<svg width="74" height="107" viewBox="0 0 74 107" fill="none" xmlns="http://www.w3.org/2000/svg">
<path d="M33.4926 57.3486H26.394V101.111H33.4926V57.3486Z" fill="#FBFBFF" stroke="#251725" stroke-miterlimit="10" stroke-linecap="round" stroke-linejoin="round"/>
<path d="M26.394 63.3496C26.394 63.3496 30.7117 63.8619 33.4926 65.3987V58.7393H26.394V63.3496Z" fill="#251725" stroke="#251725" stroke-miterlimit="10" stroke-linecap="round" stroke-linejoin="round"/>
<path d="M32.98 58.959C48.9849 58.959 61.9595 45.9844 61.9595 29.9795C61.9595 13.9746 48.9849 1 32.98 1C16.975 1 4.00049 13.9746 4.00049 29.9795C4.00049 45.9844 16.975 58.959 32.98 58.959Z" fill="#251725" stroke="#251725" stroke-miterlimit="10" stroke-linecap="round" stroke-linejoin="round"/>
<path d="M29.9795 58.959C45.9844 58.959 58.959 45.9844 58.959 29.9795C58.959 13.9746 45.9844 1 29.9795 1C13.9746 1 1 13.9746 1 29.9795C1 45.9844 13.9746 58.959 29.9795 58.959Z" fill="#A499CE"/>
<path d="M29.9795 58.959C45.9844 58.959 58.959 45.9844 58.959 29.9795C58.959 13.9746 45.9844 1 29.9795 1C13.9746 1 1 13.9746 1 29.9795C1 45.9844 13.9746 58.959 29.9795 58.959Z" fill="url(#paint0_linear_3075_11703)"/>
<path d="M29.9795 58.959C45.9844 58.959 58.959 45.9844 58.959 29.9795C58.959 13.9746 45.9844 1 29.9795 1C13.9746 1 1 13.9746 1 29.9795C1 45.9844 13.9746 58.959 29.9795 58.959Z" stroke="#251725" stroke-miterlimit="10" stroke-linecap="round" stroke-linejoin="round"/>
<path d="M29.9796 52.739C42.5491 52.739 52.7387 42.5494 52.7387 29.9798C52.7387 17.4103 42.5491 7.2207 29.9796 7.2207C17.4101 7.2207 7.22046 17.4103 7.22046 29.9798C7.22046 42.5494 17.4101 52.739 29.9796 52.739Z" fill="white"/>
<path d="M29.9796 52.739C42.5491 52.739 52.7387 42.5494 52.7387 29.9798C52.7387 17.4103 42.5491 7.2207 29.9796 7.2207C17.4101 7.2207 7.22046 17.4103 7.22046 29.9798C7.22046 42.5494 17.4101 52.739 29.9796 52.739Z" fill="url(#paint1_linear_3075_11703)"/>
<path d="M29.9796 52.739C42.5491 52.739 52.7387 42.5494 52.7387 29.9798C52.7387 17.4103 42.5491 7.2207 29.9796 7.2207C17.4101 7.2207 7.22046 17.4103 7.22046 29.9798C7.22046 42.5494 17.4101 52.739 29.9796 52.739Z" fill="url(#paint2_linear_3075_11703)"/>
<path d="M29.9796 52.739C42.5491 52.739 52.7387 42.5494 52.7387 29.9798C52.7387 17.4103 42.5491 7.2207 29.9796 7.2207C17.4101 7.2207 7.22046 17.4103 7.22046 29.9798C7.22046 42.5494 17.4101 52.739 29.9796 52.739Z" stroke="#251725" stroke-miterlimit="10" stroke-linecap="round" stroke-linejoin="round"/>
<path d="M19.125 34.6738L28.125 43.1738L33.875 34.6738L36.75 30.4238L36.125 24.1738" stroke="#251725" stroke-width="2" stroke-linecap="round" stroke-linejoin="round"/>
<path d="M19.4477 37.3192C21.0066 37.3192 22.2704 36.0554 22.2704 34.4965C22.2704 32.9376 21.0066 31.6738 19.4477 31.6738C17.8888 31.6738 16.625 32.9376 16.625 34.4965C16.625 36.0554 17.8888 37.3192 19.4477 37.3192Z" fill="#A499CE"/>
<path d="M19.4477 37.3192C21.0066 37.3192 22.2704 36.0554 22.2704 34.4965C22.2704 32.9376 21.0066 31.6738 19.4477 31.6738C17.8888 31.6738 16.625 32.9376 16.625 34.4965C16.625 36.0554 17.8888 37.3192 19.4477 37.3192Z" fill="url(#paint3_linear_3075_11703)"/>
<path d="M19.4477 37.3192C21.0066 37.3192 22.2704 36.0554 22.2704 34.4965C22.2704 32.9376 21.0066 31.6738 19.4477 31.6738C17.8888 31.6738 16.625 32.9376 16.625 34.4965C16.625 36.0554 17.8888 37.3192 19.4477 37.3192Z" stroke="#251725" stroke-miterlimit="10" stroke-linecap="round" stroke-linejoin="round"/>
<path d="M27.625 36.6738L39.125 19.6738" stroke="#251725" stroke-width="2" stroke-linecap="round"/>
<path d="M39.4477 22.3192C41.0066 22.3192 42.2704 21.0554 42.2704 19.4965C42.2704 17.9376 41.0066 16.6738 39.4477 16.6738C37.8888 16.6738 36.625 17.9376 36.625 19.4965C36.625 21.0554 37.8888 22.3192 39.4477 22.3192Z" fill="#A499CE"/>
<path d="M39.4477 22.3192C41.0066 22.3192 42.2704 21.0554 42.2704 19.4965C42.2704 17.9376 41.0066 16.6738 39.4477 16.6738C37.8888 16.6738 36.625 17.9376 36.625 19.4965C36.625 21.0554 37.8888 22.3192 39.4477 22.3192Z" fill="url(#paint4_linear_3075_11703)"/>
<path d="M39.4477 22.3192C41.0066 22.3192 42.2704 21.0554 42.2704 19.4965C42.2704 17.9376 41.0066 16.6738 39.4477 16.6738C37.8888 16.6738 36.625 17.9376 36.625 19.4965C36.625 21.0554 37.8888 22.3192 39.4477 22.3192Z" stroke="#251725" stroke-miterlimit="10" stroke-linecap="round" stroke-linejoin="round"/>
<path d="M25.5156 105.355C25.5156 105.355 38.0295 106.892 43.9571 104.331C48.4211 102.355 50.3238 100.745 53.3242 101.111C56.3246 101.477 61.5204 102.867 69.5703 102.794" stroke="#251725" stroke-miterlimit="10" stroke-linecap="round" stroke-linejoin="round"/>
<path d="M39.3465 86.2555C39.3465 86.2555 38.6147 83.6942 37.2975 82.9624C35.9071 82.1574 39.2734 89.7682 38.8343 95.0371C38.322 100.379 35.9802 103.672 35.9802 103.672C35.9802 103.672 29.6135 100.233 29.3208 97.5253C29.0281 94.8176 30.9308 81.4988 31.1503 81.2792C31.3699 81.0597 34.663 78.5715 34.663 78.5715C34.663 78.5715 38.4684 75.937 39.3465 86.2555Z" fill="#251725"/>
<path d="M31.5163 84.0595H20.1001C18.0511 84.0595 16.3679 82.3763 16.3679 80.3273C16.3679 78.205 18.1243 76.5219 20.2465 76.5951L31.5895 77.0341C33.2726 77.1073 34.5899 78.4978 34.5899 80.1809V80.9127C34.6631 82.6691 33.2726 84.0595 31.5163 84.0595Z" fill="#FBFBFF" stroke="#251725" stroke-miterlimit="10" stroke-linecap="round" stroke-linejoin="round"/>
<path d="M32.5409 91.0849L21.1979 91.524C19.0757 91.5972 17.3193 89.914 17.3193 87.7918C17.3193 85.7427 19.0025 84.0596 21.0515 84.0596H32.4677C34.224 84.0596 35.6145 85.45 35.6145 87.2063V87.9381C35.5413 89.6213 34.224 91.0117 32.5409 91.0849Z" fill="#FBFBFF" stroke="#251725" stroke-miterlimit="10" stroke-linecap="round" stroke-linejoin="round"/>
<path d="M34.4438 98.037L23.1009 98.9883C20.9786 99.1347 19.0759 97.4516 19.0759 95.3293C19.0759 93.3534 20.6127 91.7435 22.6618 91.5971L34.0779 91.158C35.8343 91.0849 37.3711 92.4753 37.3711 94.3048V95.0366C37.2979 96.5734 36.0538 97.8906 34.4438 98.037Z" fill="#FBFBFF" stroke="#251725" stroke-miterlimit="10" stroke-linecap="round" stroke-linejoin="round"/>
<path d="M33.7118 104.917L23.9788 105.429C22.3688 105.502 20.9052 104.258 20.832 102.575V102.136C20.7588 100.453 22.0761 98.9892 23.7592 98.9892L33.4922 98.916C35.1022 98.916 36.4195 100.16 36.4926 101.77C36.5658 103.453 35.3217 104.844 33.7118 104.917Z" fill="#FBFBFF" stroke="#251725" stroke-miterlimit="10" stroke-linecap="round" stroke-linejoin="round"/>
<path d="M68.1065 76.5951C68.1065 76.5951 53.5436 80.1809 50.1041 78.5709C46.6647 76.961 46.5915 72.3506 41.1029 72.3506C34.224 72.3506 28.955 73.6678 28.7354 75.9364C28.5159 78.205 30.0527 79.01 34.3703 79.1564C38.688 79.3027 37.8098 80.2541 39.5661 86.9135C41.2493 93.2802 48.2014 94.1584 51.2018 92.9875" fill="#FBFBFF"/>
<path d="M68.1065 76.5951C68.1065 76.5951 53.5436 80.1809 50.1041 78.5709C46.6647 76.961 46.5915 72.3506 41.1029 72.3506C34.224 72.3506 28.955 73.6678 28.7354 75.9364C28.5159 78.205 30.0527 79.01 34.3703 79.1564C38.688 79.3027 37.8098 80.2541 39.5661 86.9135C41.2493 93.2802 48.2014 94.1584 51.2018 92.9875" stroke="#251725" stroke-miterlimit="10" stroke-linecap="round" stroke-linejoin="round"/>
<path d="M61.0081 75.571C61.0081 75.571 61.2276 96.9397 61.0081 104.404L72.7901 105.795V74.1074L61.0081 75.571Z" fill="#A499CE"/>
<path d="M61.0081 75.571C61.0081 75.571 61.2276 96.9397 61.0081 104.404L72.7901 105.795V74.1074L61.0081 75.571Z" fill="url(#paint5_linear_3075_11703)"/>
<path d="M61.0081 75.571C61.0081 75.571 61.2276 96.9397 61.0081 104.404L72.7901 105.795V74.1074L61.0081 75.571Z" stroke="#251725" stroke-miterlimit="10" stroke-linecap="round" stroke-linejoin="round"/>
<path d="M61.008 85.5967C61.008 85.5967 60.6421 96.281 57.7148 101.843L61.008 102.282V85.5967Z" fill="#251725"/>
<defs>
<linearGradient id="paint0_linear_3075_11703" x1="14.1829" y1="-14.7966" x2="80.0393" y2="51.0598" gradientUnits="userSpaceOnUse">
<stop offset="0.1" stop-color="#F76DFC"/>
<stop offset="0.7" stop-color="#1288AA"/>
</linearGradient>
<linearGradient id="paint1_linear_3075_11703" x1="79.8054" y1="65.1135" x2="12.1841" y2="7.14445" gradientUnits="userSpaceOnUse">
<stop offset="0.25" stop-color="#DF87F1"/>
<stop offset="0.6" stop-color="#FBFBFF"/>
</linearGradient>
<linearGradient id="paint2_linear_3075_11703" x1="79.8054" y1="65.1135" x2="12.1841" y2="7.14445" gradientUnits="userSpaceOnUse">
<stop offset="0.2" stop-color="#DF87F1"/>
<stop offset="0.7" stop-color="#FBFBFF"/>
</linearGradient>
<linearGradient id="paint3_linear_3075_11703" x1="17.909" y1="30.1352" x2="25.642" y2="37.8681" gradientUnits="userSpaceOnUse">
<stop offset="0.15" stop-color="#10AD74"/>
<stop offset="0.75" stop-color="#1288AA"/>
</linearGradient>
<linearGradient id="paint4_linear_3075_11703" x1="37.909" y1="15.1352" x2="45.642" y2="22.8681" gradientUnits="userSpaceOnUse">
<stop offset="0.15" stop-color="#10AD74"/>
<stop offset="0.75" stop-color="#1288AA"/>
</linearGradient>
<linearGradient id="paint5_linear_3075_11703" x1="63.6879" y1="65.4711" x2="87.2108" y2="74.2175" gradientUnits="userSpaceOnUse">
<stop offset="0.1" stop-color="#F76DFC"/>
<stop offset="0.7" stop-color="#1288AA"/>
</linearGradient>
</defs>
</svg>
