<svg width="113" height="104" viewBox="0 0 113 104" fill="none" xmlns="http://www.w3.org/2000/svg">
<path d="M40.4847 4.82617V14.5519H38.0741C30.1771 14.5519 23.7765 20.9525 23.7765 28.8494V41.9002L20.9502 42.2327L23.7765 45.0589H30.5928V28.7663C30.5928 24.6932 33.9178 21.3682 37.9909 21.3682H57.276L40.4847 4.82617Z" fill="#251725" stroke="#251725" stroke-width="2.19876" stroke-miterlimit="10" stroke-linecap="round" stroke-linejoin="round"/>
<path d="M91.7733 58.9404C91.7733 58.9404 88.8639 60.6029 88.947 60.8523C88.947 60.9354 89.1133 61.2679 89.3626 61.7667H87.7001V77.9762C87.7001 82.0493 84.3751 85.3743 80.302 85.3743H61.0168L77.8082 101.999V92.2738H80.2188C88.1158 92.2738 94.5164 85.8731 94.5164 77.9762V61.7667L91.7733 58.9404Z" fill="#251725" stroke="#251725" stroke-width="2.19876" stroke-miterlimit="10" stroke-linecap="round" stroke-linejoin="round"/>
<path d="M27.7666 99.0909C40.3457 99.0909 50.543 88.8935 50.543 76.3145C50.543 63.7354 40.3457 53.5381 27.7666 53.5381C15.1876 53.5381 4.99023 63.7354 4.99023 76.3145C4.99023 88.8935 15.1876 99.0909 27.7666 99.0909Z" fill="#251725" stroke="#251725" stroke-width="2.19876" stroke-miterlimit="10" stroke-linecap="round" stroke-linejoin="round"/>
<path d="M23.7764 99.0909C36.3554 99.0909 46.5528 88.8935 46.5528 76.3145C46.5528 63.7354 36.3554 53.5381 23.7764 53.5381C11.1973 53.5381 1 63.7354 1 76.3145C1 88.8935 11.1973 99.0909 23.7764 99.0909Z" fill="url(#paint0_linear_3082_7478)" stroke="#251725" stroke-miterlimit="10" stroke-linecap="round" stroke-linejoin="round"/>
<path d="M23.7765 93.8534C33.4633 93.8534 41.316 86.0007 41.316 76.3139C41.316 66.6271 33.4633 58.7744 23.7765 58.7744C14.0898 58.7744 6.23706 66.6271 6.23706 76.3139C6.23706 86.0007 14.0898 93.8534 23.7765 93.8534Z" fill="url(#paint1_linear_3082_7478)" stroke="#251725" stroke-miterlimit="10" stroke-linecap="round" stroke-linejoin="round"/>
<path d="M31.0917 62.0166L23.9429 69.1654C25.2729 70.6617 27.0185 72.0748 27.351 73.5711L35.5804 65.3416C34.3336 64.0116 32.7542 62.8479 31.0917 62.0166Z" fill="white"/>
<path d="M18.3738 74.7344L9.39624 83.7119C10.2275 85.3744 11.3913 86.8707 12.8044 88.2007L18.3738 82.6313V74.7344Z" fill="white"/>
<path d="M18.3734 84.7932V84.8763V84.7932L13.9678 89.1988C14.6328 89.6976 15.2978 90.1963 16.0459 90.5288L21.5322 85.0425C20.7009 84.71 19.9528 84.3775 19.2047 83.9619L18.3734 84.7932Z" fill="white"/>
<path d="M36.5777 66.5889L27.0183 76.1483C27.5171 76.7302 28.0989 77.3952 28.5146 78.0602L37.9078 68.667C37.4921 68.002 37.0765 67.2539 36.5777 66.5889Z" fill="white"/>
<path d="M24.2768 86.0403V85.5403H23.7768H22.2806H21.7806V86.0403V87.6184H19.788V86.0403V85.5403H19.288H16.5461V67.4214H19.1218H19.6218V66.9214V65.0107H21.6143V66.9214V67.4214H22.1143H23.6106H24.1106V66.9214V65.0107H26.1031V67.0876V67.5166L26.5271 67.5818C27.5078 67.7327 28.2592 68.1057 28.9479 68.6397C29.9017 69.4503 30.4256 70.5507 30.4256 72.0752C30.4256 73.1526 30.1169 74.1027 29.5544 74.7355L29.5491 74.7415L29.544 74.7476C29.1684 75.1983 28.7937 75.5001 28.3207 75.8154L27.6039 76.2933L28.3745 76.6787C28.9975 76.9901 29.5022 77.3599 29.8537 77.8521L29.8537 77.8521L29.8562 77.8555C30.4755 78.707 30.8412 79.6039 30.8412 80.6371C30.8412 82.1816 30.3044 83.4343 29.2867 84.234L29.2748 84.2433L29.2634 84.2534C28.607 84.8369 27.7104 85.2219 26.537 85.3784L26.1031 85.4362V85.874V87.6184H24.2768V86.0403ZM21.2831 77.8927H20.7831V78.3927V81.6346V82.1346H21.2831H24.0262C24.9668 82.1346 25.6297 81.9115 26.0443 81.4662C26.4553 81.0247 26.5212 80.4706 26.5212 80.0552C26.5212 79.4328 26.3084 78.8872 25.876 78.4548C25.3851 77.9638 24.6894 77.8927 23.9431 77.8927H21.2831ZM24.2768 74.9858V74.8767C24.9183 74.8056 25.386 74.589 25.6943 74.2293C26.0666 73.7949 26.1056 73.2626 26.1056 72.9064C26.1056 72.4917 26.04 71.9533 25.6332 71.5309C25.2268 71.1089 24.5852 70.9102 23.6937 70.9102H21.2831H20.7831V71.4102V74.4858V74.9858H21.2831H23.7768H24.2768Z" fill="url(#paint2_linear_3082_7478)" stroke="black"/>
<path d="M88.947 47.5528C101.526 47.5528 111.723 37.3554 111.723 24.7764C111.723 12.1973 101.526 2 88.947 2C76.368 2 66.1707 12.1973 66.1707 24.7764C66.1707 37.3554 76.368 47.5528 88.947 47.5528Z" fill="#251725" stroke="#251725" stroke-width="2.19876" stroke-miterlimit="10" stroke-linecap="round" stroke-linejoin="round"/>
<path d="M84.9571 47.5528C97.5361 47.5528 107.733 37.3554 107.733 24.7764C107.733 12.1973 97.5361 2 84.9571 2C72.378 2 62.1807 12.1973 62.1807 24.7764C62.1807 37.3554 72.378 47.5528 84.9571 47.5528Z" fill="url(#paint3_linear_3082_7478)" stroke="#251725" stroke-miterlimit="10" stroke-linecap="round" stroke-linejoin="round"/>
<path d="M84.9565 42.3163C94.6433 42.3163 102.496 34.4636 102.496 24.7768C102.496 15.09 94.6433 7.2373 84.9565 7.2373C75.2697 7.2373 67.417 15.09 67.417 24.7768C67.417 34.4636 75.2697 42.3163 84.9565 42.3163Z" fill="url(#paint4_linear_3082_7478)" stroke="#251725" stroke-miterlimit="10" stroke-linecap="round" stroke-linejoin="round"/>
<path d="M92.2721 10.4795L85.1233 17.6283C86.4533 19.1245 88.1989 20.5377 88.5314 22.0339L96.7609 13.8045C95.514 12.4745 94.0177 11.3939 92.2721 10.4795Z" fill="white"/>
<path d="M79.637 23.1968L70.6594 32.1744C71.4907 33.8369 72.6544 35.3332 74.0676 36.6632L88.6145 22.1162L79.637 23.1968Z" fill="white"/>
<path d="M79.6371 33.2551V33.3382V33.2551L75.2314 37.6607C75.8964 38.1595 76.5615 38.6582 77.3096 38.9907L82.7959 33.5045C81.9646 33.172 81.2165 32.8395 80.4684 32.4238L79.6371 33.2551Z" fill="white"/>
<path d="M97.7582 15.0508L88.1987 24.6102C88.6975 25.1921 89.2794 25.8571 89.695 26.5221L99.0882 17.1289C98.7557 16.4639 98.2569 15.7158 97.7582 15.0508Z" fill="white"/>
<path d="M89.8452 17.305L89.0524 19.9884L88.9213 19.9229L88.9027 19.9136L88.8834 19.9059C88.7716 19.8612 88.6555 19.812 88.5339 19.7604C87.7877 19.444 86.8321 19.0389 85.3727 19.0389C84.4644 19.0389 83.8575 19.2663 83.4813 19.6425C83.1051 20.0187 83.0439 20.4593 83.0439 20.7026C83.0439 21.2524 83.3414 21.6758 83.8409 22.0413C84.3225 22.3936 85.0606 22.7456 86.1014 23.1619L86.1101 23.1654L86.1189 23.1685C87.2624 23.5769 88.3437 24.0879 89.1381 24.8634C89.9143 25.6211 90.4421 26.6557 90.4421 28.1839C90.4421 30.346 89.0359 32.1638 86.6464 32.8575L86.6028 32.8702L86.5622 32.8905C86.425 32.9591 86.2871 33.0612 86.1776 33.1889C86.0729 33.3111 85.9533 33.5059 85.9533 33.7533V35.7471H83.4621V34.0027C83.4621 33.7644 83.3804 33.5269 83.2013 33.3478C83.0308 33.1773 82.8074 33.0951 82.5808 33.0876C81.2199 32.9246 79.9915 32.5266 79.2588 32.0137L79.2444 32.0036L79.2293 31.9946L79.1435 31.9431L79.9431 29.1753L80.1397 29.2845C80.7427 29.629 82.2484 30.4296 84.1258 30.4296C84.8563 30.4296 85.5025 30.2708 85.9825 29.9507C86.4756 29.622 86.7871 29.122 86.7871 28.5164C86.7871 28.0996 86.6556 27.6553 86.2091 27.2223C85.7907 26.8166 85.1096 26.4339 84.0458 26.051L84.0446 26.0505C82.8993 25.6415 81.7242 25.106 80.8403 24.3278C79.9723 23.5636 79.3889 22.5711 79.3889 21.2014C79.3889 19.1262 80.709 17.4681 82.944 16.7745L82.9829 16.7624L83.0194 16.7442C83.1567 16.6756 83.2945 16.5735 83.404 16.4457C83.5087 16.3236 83.6283 16.1288 83.6283 15.8813V13.9707H86.1196V15.5488C86.1196 15.7872 86.2012 16.0246 86.3803 16.2037C86.5482 16.3716 86.7674 16.4539 86.9905 16.4635C88.0186 16.6237 88.8763 16.8604 89.7294 17.2471L89.8452 17.305Z" fill="url(#paint5_linear_3082_7478)" stroke="black"/>
<path d="M54.4498 18.6251H35.2478C31.1746 18.6251 27.8496 21.9501 27.8496 26.0233V42.2328H20.9502V26.0233C20.9502 18.1264 27.3509 11.7257 35.2478 11.7257H37.6584V2L54.4498 18.6251Z" fill="#A499CE"/>
<path d="M54.4498 18.6251H35.2478C31.1746 18.6251 27.8496 21.9501 27.8496 26.0233V42.2328H20.9502V26.0233C20.9502 18.1264 27.3509 11.7257 35.2478 11.7257H37.6584V2L54.4498 18.6251Z" fill="url(#paint6_linear_3082_7478)"/>
<path d="M54.4498 18.6251H35.2478C31.1746 18.6251 27.8496 21.9501 27.8496 26.0233V42.2328H20.9502V26.0233C20.9502 18.1264 27.3509 11.7257 35.2478 11.7257H37.6584V2L54.4498 18.6251Z" fill="url(#paint7_linear_3082_7478)"/>
<path d="M54.4498 18.6251H35.2478C31.1746 18.6251 27.8496 21.9501 27.8496 26.0233V42.2328H20.9502V26.0233C20.9502 18.1264 27.3509 11.7257 35.2478 11.7257H37.6584V2L54.4498 18.6251Z" stroke="#251725" stroke-miterlimit="10" stroke-linecap="round" stroke-linejoin="round"/>
<path d="M58.2734 82.5481H77.5586C81.6317 82.5481 84.9567 79.2231 84.9567 75.1499V58.9404H91.8561V75.1499C91.8561 83.0468 85.4555 89.4475 77.5586 89.4475H75.1479V99.1732L58.2734 82.5481Z" fill="#A499CE"/>
<path d="M58.2734 82.5481H77.5586C81.6317 82.5481 84.9567 79.2231 84.9567 75.1499V58.9404H91.8561V75.1499C91.8561 83.0468 85.4555 89.4475 77.5586 89.4475H75.1479V99.1732L58.2734 82.5481Z" fill="url(#paint8_linear_3082_7478)"/>
<path d="M58.2734 82.5481H77.5586C81.6317 82.5481 84.9567 79.2231 84.9567 75.1499V58.9404H91.8561V75.1499C91.8561 83.0468 85.4555 89.4475 77.5586 89.4475H75.1479V99.1732L58.2734 82.5481Z" fill="url(#paint9_linear_3082_7478)"/>
<path d="M58.2734 82.5481H77.5586C81.6317 82.5481 84.9567 79.2231 84.9567 75.1499V58.9404H91.8561V75.1499C91.8561 83.0468 85.4555 89.4475 77.5586 89.4475H75.1479V99.1732L58.2734 82.5481Z" stroke="#251725" stroke-miterlimit="10" stroke-linecap="round" stroke-linejoin="round"/>
<defs>
<linearGradient id="paint0_linear_3082_7478" x1="51.8122" y1="99.0909" x2="6.06697" y2="53.3457" gradientUnits="userSpaceOnUse">
<stop stop-color="#DF87F1"/>
<stop offset="1" stop-color="#FBFBFF"/>
</linearGradient>
<linearGradient id="paint1_linear_3082_7478" x1="14.2158" y1="49.2137" x2="62.2665" y2="97.2643" gradientUnits="userSpaceOnUse">
<stop offset="0.15" stop-color="#10AD74"/>
<stop offset="0.75" stop-color="#1288AA"/>
</linearGradient>
<linearGradient id="paint2_linear_3082_7478" x1="33.1072" y1="88.1184" x2="11.4701" y2="74.1" gradientUnits="userSpaceOnUse">
<stop stop-color="#DF87F1"/>
<stop offset="1" stop-color="#FBFBFF"/>
</linearGradient>
<linearGradient id="paint3_linear_3082_7478" x1="112.993" y1="47.5528" x2="67.2476" y2="1.80758" gradientUnits="userSpaceOnUse">
<stop stop-color="#DF87F1"/>
<stop offset="1" stop-color="#FBFBFF"/>
</linearGradient>
<linearGradient id="paint4_linear_3082_7478" x1="75.3958" y1="-2.3234" x2="123.446" y2="45.7272" gradientUnits="userSpaceOnUse">
<stop offset="0.15" stop-color="#10AD74"/>
<stop offset="0.75" stop-color="#1288AA"/>
</linearGradient>
<linearGradient id="paint5_linear_3082_7478" x1="92.3721" y1="36.2471" x2="73.1734" y2="25.8069" gradientUnits="userSpaceOnUse">
<stop stop-color="#DF87F1"/>
<stop offset="1" stop-color="#FBFBFF"/>
</linearGradient>
<linearGradient id="paint6_linear_3082_7478" x1="28.5697" y1="-8.96536" x2="82.7684" y2="36.1629" gradientUnits="userSpaceOnUse">
<stop offset="0.15" stop-color="#10AD74"/>
<stop offset="0.65" stop-color="#1288AA"/>
</linearGradient>
<linearGradient id="paint7_linear_3082_7478" x1="28.5697" y1="-8.96536" x2="73.5284" y2="28.4693" gradientUnits="userSpaceOnUse">
<stop offset="0.1" stop-color="#F76DFC"/>
<stop offset="0.7" stop-color="#1288AA"/>
</linearGradient>
<linearGradient id="paint8_linear_3082_7478" x1="65.9119" y1="47.9751" x2="120.135" y2="93.2354" gradientUnits="userSpaceOnUse">
<stop offset="0.15" stop-color="#10AD74"/>
<stop offset="0.65" stop-color="#1288AA"/>
</linearGradient>
<linearGradient id="paint9_linear_3082_7478" x1="65.9119" y1="47.9751" x2="110.891" y2="85.5193" gradientUnits="userSpaceOnUse">
<stop offset="0.1" stop-color="#F76DFC"/>
<stop offset="0.7" stop-color="#1288AA"/>
</linearGradient>
</defs>
</svg>
