<svg width="102" height="96" viewBox="0 0 102 96" fill="none" xmlns="http://www.w3.org/2000/svg">
<path d="M14.6199 28.5225L85.0489 17.443C87.4483 17.0901 89.5654 18.925 89.5654 21.3243V43.2011H14.6904L14.6199 28.5225Z" fill="#251725" stroke="#251725" stroke-width="0.705701" stroke-miterlimit="10" stroke-linecap="round" stroke-linejoin="round"/>
<path d="M50.8226 85.1196C37.5555 80.6737 24.6411 75.8044 11.7974 70.2293C23.0886 49.27 33.3918 27.9578 42.7777 6.08105C54.7746 11.3738 66.8421 16.0314 79.1918 20.2657C70.7234 42.2835 61.1965 63.8074 50.8226 85.1196Z" fill="#251725" stroke="#251725" stroke-width="0.705701" stroke-miterlimit="10" stroke-linecap="round" stroke-linejoin="round"/>
<path d="M50.1874 85.4725C36.9202 78.8389 24.0058 71.7113 11.3738 63.878C26.4052 43.4832 40.5192 22.5945 53.7159 1C65.5011 8.40986 77.498 15.114 89.9183 21.3948C77.6391 43.3421 64.372 64.6543 50.1874 85.4725Z" fill="url(#paint0_linear_3082_7513)" stroke="#251725" stroke-miterlimit="10" stroke-linecap="round" stroke-linejoin="round"/>
<path d="M79.0508 28.8748C70.3707 43.5534 61.3377 57.9497 51.8813 72.2049C48.5645 70.5112 44.1891 71.5697 42.1426 74.6042C35.5796 71.1463 32.3334 69.3821 25.982 65.6418C28.1697 62.6073 27.2523 58.726 24.1472 56.8206C34.027 42.8477 43.4834 28.5925 52.587 14.0551C55.5509 15.8899 59.5029 14.9725 61.1965 12.0791C67.195 15.6076 70.2295 17.3719 76.4397 20.6887C74.6754 23.582 75.8046 27.3223 79.0508 28.8748Z" fill="url(#paint1_linear_3082_7513)" stroke="#251725" stroke-miterlimit="10" stroke-linecap="round" stroke-linejoin="round"/>
<path d="M52.587 47.93C52.8693 47.7889 53.0104 47.7183 53.2927 47.5772C53.7867 47.3654 54.9864 46.6597 55.6921 45.46C55.8332 45.2483 56.0449 44.8955 56.0449 44.4721C56.1155 44.0486 55.9038 43.6958 55.5509 43.4841C55.4804 43.4135 55.2687 43.3429 54.9864 43.3429C54.4924 43.3429 53.8573 43.6958 53.0104 44.3309C51.9519 45.1072 50.611 46.0246 49.0585 46.0952C48.2822 46.0952 47.5765 45.954 46.8708 45.5306C45.1771 44.5426 44.542 42.7784 45.036 40.8024C45.1066 40.6613 45.036 40.5201 44.8949 40.4496C44.1892 40.0261 43.8363 39.8144 43.2012 39.4616C43.8363 38.4736 44.1186 38.0502 44.7537 37.0622C45.3888 37.4151 45.6711 37.6268 46.2357 37.9796C46.3063 37.9796 46.3768 38.0502 46.4474 38.0502C46.518 38.0502 46.6591 37.9796 46.7297 37.909C47.2942 37.2739 47.9294 36.7094 48.6351 36.2859C48.7762 36.2154 48.8468 36.1448 49.0585 36.0742C49.9053 36.9916 50.3993 37.4856 51.2462 38.403C51.0345 38.5442 50.8933 38.6147 50.6816 38.7559C50.0465 39.1087 49.2702 39.6027 48.6351 40.6613C48.4234 40.9436 48.3528 41.2258 48.2822 41.4375C48.1411 42.0021 48.4939 42.2844 48.6351 42.355C48.7762 42.4255 48.8468 42.4255 49.0585 42.4255C49.4819 42.4255 50.117 42.0727 51.2462 41.2964C52.1636 40.5907 53.4338 39.8144 54.9158 39.7439C55.7627 39.6733 56.5389 39.885 57.3152 40.3084C59.0795 41.2964 59.8557 43.1312 59.2912 45.1778C59.2206 45.3189 59.2912 45.46 59.4323 45.5306C60.2086 45.954 60.5614 46.0952 61.2671 46.5186C60.632 47.5066 60.3497 48.0006 59.7146 48.918C59.0795 48.5651 58.7266 48.424 58.0915 48.0711C58.0209 48.0711 57.9503 48.0006 57.8798 48.0006C57.8092 48.0006 57.6681 48.0711 57.5975 48.1417C56.8212 49.0591 55.9744 49.7648 55.1275 50.1177C54.9864 50.1882 54.9158 50.2588 54.7041 50.3294C53.9984 49.3414 53.5044 48.8474 52.587 47.93Z" fill="#A499CE"/>
<path d="M49.0583 36.4269C49.764 37.1326 50.1169 37.556 50.8226 38.2617C50.752 38.3323 50.6814 38.3323 50.6109 38.4029C49.9757 38.7557 49.1995 39.3203 48.4232 40.3788C47.5058 41.7902 48.2821 42.3548 48.5643 42.4959C48.7055 42.5665 48.9172 42.6371 49.1289 42.6371C49.6229 42.6371 50.3286 42.2842 51.5283 41.4374C52.4457 40.8023 53.6454 40.026 54.9862 39.9554C55.7625 39.8849 56.4682 40.0966 57.1739 40.52C58.8676 41.4374 59.5733 43.1311 59.0087 45.0365C58.9381 45.3188 59.0793 45.601 59.3616 45.7422C59.9967 46.095 60.279 46.2362 60.9141 46.589C60.4201 47.3653 60.2084 47.7181 59.7144 48.4238C59.1499 48.1416 58.9381 48.0004 58.3736 47.7181C58.2324 47.6476 58.0913 47.6476 57.9502 47.6476C57.7385 47.6476 57.5973 47.7181 57.4562 47.9299C56.7505 48.7767 55.9036 49.4824 55.1274 49.8352C55.0568 49.8352 55.0568 49.9058 54.9862 49.9058C54.21 49.2001 53.8571 48.8473 53.1514 48.071C53.2925 48.0004 53.2925 48.0004 53.4337 47.9299C53.9277 47.6476 55.1979 46.9419 55.9742 45.6716C56.1153 45.4599 56.3271 45.0365 56.3976 44.5425C56.4682 43.9779 56.1859 43.4839 55.7625 43.2722C55.6214 43.2017 55.4096 43.0605 54.9862 43.0605C54.4217 43.0605 53.716 43.4134 52.8691 44.1191C51.8811 44.8953 50.5403 45.7422 49.1289 45.8127C48.4232 45.8127 47.7881 45.6716 47.1529 45.3188C45.6004 44.4013 44.9653 42.7782 45.5298 40.9434C45.6004 40.6611 45.4593 40.3788 45.2475 40.2377C44.683 39.8849 44.4007 39.7437 43.8361 39.3909C44.3301 38.6146 44.5418 38.2617 45.0358 37.556C45.5298 37.8383 45.7415 37.9795 46.2355 38.2617C46.3767 38.3323 46.5178 38.3323 46.5884 38.3323C46.8001 38.3323 46.9412 38.2617 47.0824 38.1206C47.6469 37.4855 48.2115 36.9915 48.9172 36.5681C48.9878 36.4975 48.9878 36.4269 49.0583 36.4269ZM49.1995 35.5801C48.9172 35.7212 48.7761 35.7918 48.5643 35.9329C47.7881 36.3563 47.1529 36.9209 46.5884 37.6266C45.8827 37.2032 45.5298 36.9915 44.7536 36.5681C43.9773 37.7678 43.6244 38.3323 42.7776 39.532C43.5539 40.026 43.9773 40.2377 44.7536 40.7317C44.1184 42.8488 44.8947 44.8248 46.7295 45.8127C47.5058 46.3067 48.3526 46.4479 49.1289 46.3773C50.6814 46.3067 52.0928 45.3893 53.2925 44.5425C54.21 43.8368 54.7039 43.6251 55.0568 43.6251C55.2685 43.6251 55.3391 43.6956 55.4096 43.6956C55.9036 43.9779 55.7625 44.6836 55.4096 45.2482C54.7039 46.3773 53.5748 47.0124 53.0808 47.2947C52.6574 47.5064 52.4457 47.6476 52.0223 47.8593C53.1514 48.9884 53.716 49.4824 54.8451 50.6115C55.1274 50.4704 55.1979 50.4704 55.4802 50.3292C56.3271 49.9058 57.315 49.2001 58.0913 48.2121C58.8676 48.6356 59.291 48.8473 60.0673 49.2707C60.8435 48.071 61.1964 47.5064 61.9727 46.3067C61.1258 45.8833 60.7024 45.601 59.785 45.1776C60.4201 42.9899 59.5733 41.014 57.6679 39.9554C56.7505 39.4614 55.9036 39.2497 55.0568 39.3203C53.5748 39.3909 52.3046 40.1671 51.246 40.9434C50.1875 41.6491 49.5523 42.002 49.1995 42.002C49.1289 42.002 49.0583 42.002 48.9878 41.9314C48.4938 41.6491 48.8466 41.014 49.0583 40.6611C49.6935 39.6731 50.3992 39.2497 51.0343 38.8969C51.3871 38.6852 51.5989 38.544 51.9517 38.3323C50.8226 37.2032 50.258 36.7092 49.1995 35.5801Z" fill="#251725"/>
<path d="M91.8944 85.6839H19.6306C16.8784 85.6839 14.6201 83.4256 14.6201 80.6734V33.1091C14.6201 30.3569 16.8784 28.0986 19.6306 28.0986H91.8944C94.6467 28.0986 96.9049 30.3569 96.9049 33.1091V80.6734C96.9049 83.4256 94.7172 85.6839 91.8944 85.6839Z" fill="#251725" stroke="#251725" stroke-width="0.705701" stroke-miterlimit="10" stroke-linecap="round" stroke-linejoin="round"/>
<path d="M96.9048 64.9367H82.932C78.486 64.9367 74.887 61.3376 74.887 56.8917C74.887 52.4458 78.486 48.8467 82.932 48.8467H96.9048C99.1631 48.8467 100.998 50.6815 100.998 52.9398V60.8436C101.068 63.1018 99.2337 64.9367 96.9048 64.9367Z" fill="#251725" stroke="#251725" stroke-width="0.705701" stroke-miterlimit="10" stroke-linecap="round" stroke-linejoin="round"/>
<path d="M88.6481 85.6839H16.3843C13.632 85.6839 11.3738 83.4256 11.3738 80.6734V33.1091C11.3738 30.3569 13.632 28.0986 16.3843 28.0986H88.6481C91.4003 28.0986 93.6586 30.3569 93.6586 33.1091V80.6734C93.6586 83.4256 91.4003 85.6839 88.6481 85.6839Z" fill="url(#paint2_linear_3082_7513)" stroke="#251725" stroke-miterlimit="10" stroke-linecap="round" stroke-linejoin="round"/>
<path d="M93.6586 35.6494H11.3738V78.0621H93.6586V35.6494Z" fill="url(#paint3_linear_3082_7513)" stroke="#251725" stroke-miterlimit="10" stroke-linecap="round" stroke-linejoin="round"/>
<path d="M93.6585 66.3478H79.6856C75.2397 66.3478 71.6406 62.7487 71.6406 58.3028C71.6406 53.8569 75.2397 50.2578 79.6856 50.2578H93.6585C95.9168 50.2578 97.7516 52.0926 97.7516 54.3509V62.2547C97.7516 64.513 95.9168 66.3478 93.6585 66.3478Z" fill="#251725" stroke="#251725" stroke-width="0.705701" stroke-miterlimit="10" stroke-linecap="round" stroke-linejoin="round"/>
<path d="M19.2069 40.9424H58.5145C58.9379 40.9424 59.2908 41.2952 59.2908 41.7187V44.4003C59.2908 44.8237 58.9379 45.1766 58.5145 45.1766H19.2069C18.7835 45.1766 18.4307 44.8237 18.4307 44.4003V41.7187C18.4307 41.2952 18.7835 40.9424 19.2069 40.9424Z" fill="white" stroke="#251725" stroke-width="0.705701" stroke-miterlimit="10" stroke-linecap="round" stroke-linejoin="round"/>
<path d="M93.6585 64.9367H79.6856C75.2397 64.9367 71.6406 61.3376 71.6406 56.8917C71.6406 52.4458 75.2397 48.8467 79.6856 48.8467H93.6585C95.9168 48.8467 97.7516 50.6815 97.7516 52.9398V60.8436C97.7516 63.1018 95.9168 64.9367 93.6585 64.9367Z" fill="url(#paint4_linear_3082_7513)" stroke="#251725" stroke-miterlimit="10" stroke-linecap="round" stroke-linejoin="round"/>
<path d="M80.0386 59.7848C81.6366 59.7848 82.932 58.4894 82.932 56.8914C82.932 55.2935 81.6366 53.998 80.0386 53.998C78.4407 53.998 77.1453 55.2935 77.1453 56.8914C77.1453 58.4894 78.4407 59.7848 80.0386 59.7848Z" fill="white" stroke="#251725" stroke-width="0.705701" stroke-miterlimit="10" stroke-linecap="round" stroke-linejoin="round"/>
<path d="M82.9319 85.6835H57.5266C57.5266 84.4132 58.5852 83.4252 59.7849 83.4252H80.603C81.9439 83.3546 82.9319 84.4132 82.9319 85.6835Z" fill="#251725"/>
<path d="M87.9424 26.123H35.7205V28.099H87.9424V26.123Z" fill="#251725"/>
<path d="M25.8523 94.2954C37.5319 94.2954 47 84.8273 47 73.1477C47 61.4682 37.5319 52 25.8523 52C14.1727 52 4.70459 61.4682 4.70459 73.1477C4.70459 84.8273 14.1727 94.2954 25.8523 94.2954Z" fill="#251725" stroke="#251725" stroke-width="2.19876" stroke-miterlimit="10" stroke-linecap="round" stroke-linejoin="round"/>
<path d="M22.1477 94.2954C33.8273 94.2954 43.2954 84.8273 43.2954 73.1477C43.2954 61.4682 33.8273 52 22.1477 52C10.4682 52 1 61.4682 1 73.1477C1 84.8273 10.4682 94.2954 22.1477 94.2954Z" fill="url(#paint5_linear_3082_7513)" stroke="#251725" stroke-miterlimit="10" stroke-linecap="round" stroke-linejoin="round"/>
<path d="M22.1471 89.4329C31.1412 89.4329 38.4324 82.1417 38.4324 73.1476C38.4324 64.1535 31.1412 56.8623 22.1471 56.8623C13.153 56.8623 5.86182 64.1535 5.86182 73.1476C5.86182 82.1417 13.153 89.4329 22.1471 89.4329Z" fill="url(#paint6_linear_3082_7513)" stroke="#251725" stroke-miterlimit="10" stroke-linecap="round" stroke-linejoin="round"/>
<path d="M28.9396 59.873L22.302 66.5107C23.5369 67.8999 25.1577 69.212 25.4664 70.6013L33.1074 62.9603C31.9497 61.7254 30.5604 60.722 28.9396 59.873Z" fill="white"/>
<path d="M17.2082 71.6811L8.87256 80.0167C9.64437 81.5603 10.7249 82.9496 12.037 84.1845L25.5438 70.6777L17.2082 71.6811Z" fill="white"/>
<path d="M17.2083 81.0199V81.097V81.0199L13.1177 85.1105C13.7351 85.5736 14.3526 86.0367 15.0472 86.3454L20.1412 81.2514C19.3694 80.9427 18.6747 80.634 17.9801 80.248L17.2083 81.0199Z" fill="white"/>
<path d="M34.0333 64.1172L25.1575 72.9931C25.6206 73.5333 26.1608 74.1508 26.5467 74.7682L35.2682 66.0467C34.9595 65.4293 34.4964 64.7346 34.0333 64.1172Z" fill="white"/>
<path d="M26.6436 66.2301L25.9281 68.652L25.8446 68.6102L25.826 68.6009L25.8067 68.5932C25.7034 68.5519 25.596 68.5063 25.4833 68.4585C24.7902 68.1646 23.8964 67.7856 22.5337 67.7856C21.6848 67.7856 21.1107 67.9982 20.7523 68.3566C20.3939 68.7149 20.3357 69.1347 20.3357 69.3662C20.3357 69.8922 20.6213 70.2947 21.0904 70.638C21.5414 70.968 22.2305 71.2961 23.197 71.6827L23.2057 71.6862L23.2145 71.6894C24.2748 72.0681 25.2729 72.5404 26.0049 73.255C26.7186 73.9517 27.2049 74.9031 27.2049 76.3125C27.2049 78.3022 25.9116 79.9773 23.7064 80.6176L23.6628 80.6302L23.6222 80.6505C23.4909 80.7162 23.359 80.8138 23.2539 80.9363C23.1537 81.0532 23.0371 81.2422 23.0371 81.4836V83.2991H20.7955V81.7152C20.7955 81.4858 20.7168 81.2558 20.5429 81.0819C20.3777 80.9167 20.162 80.8374 19.9442 80.8299C18.6843 80.6787 17.5509 80.3105 16.8775 79.8391L16.8631 79.829L16.848 79.82L16.792 79.7864L17.5143 77.2861L17.6574 77.3656C18.2188 77.6862 19.6234 78.4333 21.376 78.4333C22.059 78.4333 22.6665 78.2849 23.1198 77.9827C23.5861 77.6718 23.8827 77.1971 23.8827 76.6212C23.8827 76.2252 23.7572 75.8032 23.3352 75.394C22.9414 75.012 22.3033 74.6546 21.3138 74.2984L21.3126 74.298C20.2505 73.9187 19.1646 73.4233 18.349 72.7052C17.5495 72.0013 17.0136 71.089 17.0136 69.8292C17.0136 67.9205 18.2267 66.3932 20.2893 65.7531L20.3282 65.741L20.3647 65.7227C20.496 65.6571 20.6279 65.5595 20.733 65.4369C20.8332 65.32 20.9498 65.1311 20.9498 64.8896V63.1514H23.1914V64.5809C23.1914 64.8103 23.2701 65.0403 23.444 65.2142C23.6065 65.3768 23.8181 65.4561 24.0323 65.4658C24.9832 65.6141 25.7757 65.8329 26.5635 66.19L26.6436 66.2301Z" fill="url(#paint7_linear_3082_7513)" stroke="black"/>
<defs>
<linearGradient id="paint0_linear_3082_7513" x1="98.9868" y1="85.4725" x2="14.3816" y2="6.80446" gradientUnits="userSpaceOnUse">
<stop stop-color="#DF87F1"/>
<stop offset="1" stop-color="#FBFBFF"/>
</linearGradient>
<linearGradient id="paint1_linear_3082_7513" x1="36.6351" y1="-4.962" x2="121.563" y2="69.6131" gradientUnits="userSpaceOnUse">
<stop offset="0.15" stop-color="#10AD74"/>
<stop offset="0.75" stop-color="#1288AA"/>
</linearGradient>
<linearGradient id="paint2_linear_3082_7513" x1="103.159" y1="85.6839" x2="48.828" y2="8.04925" gradientUnits="userSpaceOnUse">
<stop stop-color="#DF87F1"/>
<stop offset="1" stop-color="#FBFBFF"/>
</linearGradient>
<linearGradient id="paint3_linear_3082_7513" x1="30.0896" y1="24.0899" x2="77.4081" y2="115.893" gradientUnits="userSpaceOnUse">
<stop offset="0.15" stop-color="#10AD74"/>
<stop offset="0.75" stop-color="#1288AA"/>
</linearGradient>
<linearGradient id="paint4_linear_3082_7513" x1="100.766" y1="64.9367" x2="86.3332" y2="41.5146" gradientUnits="userSpaceOnUse">
<stop stop-color="#DF87F1"/>
<stop offset="1" stop-color="#FBFBFF"/>
</linearGradient>
<linearGradient id="paint5_linear_3082_7513" x1="48.1787" y1="94.2954" x2="5.70465" y2="51.8213" gradientUnits="userSpaceOnUse">
<stop stop-color="#DF87F1"/>
<stop offset="1" stop-color="#FBFBFF"/>
</linearGradient>
<linearGradient id="paint6_linear_3082_7513" x1="13.2701" y1="47.9853" x2="57.8847" y2="92.5999" gradientUnits="userSpaceOnUse">
<stop offset="0.15" stop-color="#10AD74"/>
<stop offset="0.75" stop-color="#1288AA"/>
</linearGradient>
<linearGradient id="paint7_linear_3082_7513" x1="29.0326" y1="83.7991" x2="11.2068" y2="74.1054" gradientUnits="userSpaceOnUse">
<stop stop-color="#DF87F1"/>
<stop offset="1" stop-color="#FBFBFF"/>
</linearGradient>
</defs>
</svg>
