<svg width="94" height="92" viewBox="0 0 94 92" fill="none" xmlns="http://www.w3.org/2000/svg">
<path d="M85.67 82.1572H14.6117C11.8309 82.1572 9.56226 79.8886 9.56226 77.1077V6.04945C9.56226 3.26859 11.8309 1 14.6117 1H85.67C88.4509 1 90.7194 3.26859 90.7194 6.04945V77.1077C90.7194 79.8886 88.4509 82.1572 85.67 82.1572Z" fill="#251725" stroke="#251725" stroke-miterlimit="10" stroke-linecap="round" stroke-linejoin="round"/>
<path d="M15.9287 82.1572L16.8069 85.9626C16.9532 86.6212 17.5387 87.0603 18.1241 87.0603H26.4667C27.1253 87.0603 27.7108 86.6212 27.784 85.9626L28.5889 82.1572H15.9287Z" fill="#251725" stroke="#251725" stroke-miterlimit="10" stroke-linecap="round" stroke-linejoin="round"/>
<path d="M71.6194 82.1572L72.4975 85.9626C72.6439 86.6212 73.2294 87.0603 73.8148 87.0603H82.1574C82.816 87.0603 83.4014 86.6212 83.4746 85.9626L84.2796 82.1572H71.6194Z" fill="#251725" stroke="#251725" stroke-miterlimit="10" stroke-linecap="round" stroke-linejoin="round"/>
<path d="M77.0346 82.1572H6.04946C3.2686 82.1572 1 79.8886 1 77.1077V6.04945C1 3.26859 3.2686 1 6.04946 1H77.1077C79.8886 1 82.1572 3.26859 82.1572 6.04945V77.1077C82.1572 79.8886 79.8154 82.1572 77.0346 82.1572Z" fill="url(#paint0_linear_3075_11882)" stroke="#251725" stroke-miterlimit="10" stroke-linecap="round" stroke-linejoin="round"/>
<path d="M12.7087 71.8386C11.9037 71.8386 11.2451 71.18 11.2451 70.375V12.782C11.2451 11.977 11.9037 11.3184 12.7087 11.3184H70.375C71.18 11.3184 71.8386 11.977 71.8386 12.782V70.4482C71.8386 71.2532 71.18 71.9118 70.375 71.9118H12.7087V71.8386Z" fill="url(#paint1_linear_3075_11882)" stroke="#251725" stroke-miterlimit="10" stroke-linecap="round" stroke-linejoin="round"/>
<path d="M11.5379 33.7115C10.3671 33.7115 9.34253 32.7602 9.34253 31.5161V23.8321C9.34253 22.6612 10.2939 21.6367 11.5379 21.6367C12.7088 21.6367 13.7334 22.5881 13.7334 23.8321V31.5161C13.7334 32.687 12.782 33.7115 11.5379 33.7115Z" fill="#251725" stroke="#251725" stroke-miterlimit="10" stroke-linecap="round" stroke-linejoin="round"/>
<path d="M11.5379 61.5201C10.3671 61.5201 9.34253 60.5688 9.34253 59.3247V51.6407C9.34253 50.4698 10.2939 49.4453 11.5379 49.4453C12.7088 49.4453 13.7334 50.3967 13.7334 51.6407V59.3247C13.7334 60.5688 12.782 61.5201 11.5379 61.5201Z" fill="#251725" stroke="#251725" stroke-miterlimit="10" stroke-linecap="round" stroke-linejoin="round"/>
<path d="M7.36694 82.1572L8.24511 85.9626C8.39147 86.6212 8.97691 87.0603 9.56236 87.0603H17.9049C18.5636 87.0603 19.149 86.6212 19.2222 85.9626L20.0272 82.1572H7.36694Z" fill="white" stroke="#251725" stroke-miterlimit="10" stroke-linecap="round" stroke-linejoin="round"/>
<path d="M62.9841 82.1572L63.8623 85.9626C64.0087 86.6212 64.5941 87.0603 65.1795 87.0603H73.5221C74.1807 87.0603 74.7662 86.6212 74.8394 85.9626L75.6444 82.1572H62.9841Z" fill="white" stroke="#251725" stroke-miterlimit="10" stroke-linecap="round" stroke-linejoin="round"/>
<path d="M41.542 60.7149C52.0907 60.7149 60.6421 52.1635 60.6421 41.6148C60.6421 31.0661 52.0907 22.5146 41.542 22.5146C30.9933 22.5146 22.4419 31.0661 22.4419 41.6148C22.4419 52.1635 30.9933 60.7149 41.542 60.7149Z" fill="#251725" stroke="#251725" stroke-miterlimit="10" stroke-linecap="round" stroke-linejoin="round"/>
<path d="M30.638 49.5918L28.6621 51.5677C29.1012 52.1531 29.6135 52.7386 30.1257 53.2508L32.1016 51.2749C31.5162 50.7627 31.0771 50.1772 30.638 49.5918Z" fill="white"/>
<path d="M51.5677 28.6621L49.5918 30.638C50.1772 31.0771 50.7627 31.5893 51.275 32.1016L53.2508 30.1257C52.6654 29.6135 52.1531 29.1012 51.5677 28.6621Z" fill="white"/>
<path d="M29.6135 47.9825C28.6621 46.2993 28.0767 44.3235 28.0035 42.2744L25.5154 44.7625C25.8813 46.6652 26.6131 48.4216 27.5644 50.0315L29.6135 47.9825Z" fill="white"/>
<path d="M50.0308 27.6379C48.4208 26.6866 46.6645 25.9548 44.7618 25.5889L42.2737 28.077C44.3227 28.2234 46.2254 28.7356 47.9818 29.687L50.0308 27.6379Z" fill="white"/>
<path d="M41.5417 52.665C47.6446 52.665 52.592 47.7176 52.592 41.6147C52.592 35.5118 47.6446 30.5645 41.5417 30.5645C35.4388 30.5645 30.4915 35.5118 30.4915 41.6147C30.4915 47.7176 35.4388 52.665 41.5417 52.665Z" fill="#EBEDFD"/>
<path d="M41.5417 52.665C47.6446 52.665 52.592 47.7176 52.592 41.6147C52.592 35.5118 47.6446 30.5645 41.5417 30.5645C35.4388 30.5645 30.4915 35.5118 30.4915 41.6147C30.4915 47.7176 35.4388 52.665 41.5417 52.665Z" fill="url(#paint2_linear_3075_11882)"/>
<path d="M41.5417 52.665C47.6446 52.665 52.592 47.7176 52.592 41.6147C52.592 35.5118 47.6446 30.5645 41.5417 30.5645C35.4388 30.5645 30.4915 35.5118 30.4915 41.6147C30.4915 47.7176 35.4388 52.665 41.5417 52.665Z" fill="url(#paint3_linear_3075_11882)"/>
<path d="M41.5417 52.665C47.6446 52.665 52.592 47.7176 52.592 41.6147C52.592 35.5118 47.6446 30.5645 41.5417 30.5645C35.4388 30.5645 30.4915 35.5118 30.4915 41.6147C30.4915 47.7176 35.4388 52.665 41.5417 52.665Z" stroke="#251725" stroke-miterlimit="10" stroke-linecap="round" stroke-linejoin="round"/>
<path d="M41.5421 46.1525C44.0479 46.1525 46.0793 44.1211 46.0793 41.6153C46.0793 39.1095 44.0479 37.0781 41.5421 37.0781C39.0363 37.0781 37.0049 39.1095 37.0049 41.6153C37.0049 44.1211 39.0363 46.1525 41.5421 46.1525Z" fill="#251725" stroke="#251725" stroke-miterlimit="10" stroke-linecap="round" stroke-linejoin="round"/>
<path d="M41.5417 25.8085C40.5904 25.8085 39.7854 25.0036 39.7854 24.0522V21.7104C39.7854 20.7591 40.5904 19.9541 41.5417 19.9541C42.4931 19.9541 43.2981 20.7591 43.2981 21.7104V24.0522C43.2981 25.0036 42.4931 25.8085 41.5417 25.8085Z" fill="white" stroke="#251725" stroke-miterlimit="10" stroke-linecap="round" stroke-linejoin="round"/>
<path d="M41.5417 63.2041C40.5904 63.2041 39.7854 62.3991 39.7854 61.4477V59.1059C39.7854 58.1546 40.5904 57.3496 41.5417 57.3496C42.4931 57.3496 43.2981 58.1546 43.2981 59.1059V61.4477C43.2981 62.4722 42.4931 63.2041 41.5417 63.2041Z" fill="white" stroke="#251725" stroke-miterlimit="10" stroke-linecap="round" stroke-linejoin="round"/>
<path d="M25.7348 41.6157C25.7348 42.5671 24.9298 43.372 23.9785 43.372H21.6367C20.6854 43.372 19.8804 42.5671 19.8804 41.6157C19.8804 40.6644 20.6854 39.8594 21.6367 39.8594H23.9785C24.9298 39.8594 25.7348 40.6644 25.7348 41.6157Z" fill="white" stroke="#251725" stroke-miterlimit="10" stroke-linecap="round" stroke-linejoin="round"/>
<path d="M63.2033 41.6157C63.2033 42.5671 62.3983 43.372 61.447 43.372H59.1052C58.1539 43.372 57.3489 42.5671 57.3489 41.6157C57.3489 40.6644 58.1539 39.8594 59.1052 39.8594H61.447C62.3983 39.8594 63.2033 40.6644 63.2033 41.6157Z" fill="white" stroke="#251725" stroke-miterlimit="10" stroke-linecap="round" stroke-linejoin="round"/>
<path d="M52.7391 30.4182C52.0805 29.7596 52.0805 28.6619 52.7391 27.93L54.4222 26.2469C55.0809 25.5883 56.1786 25.5883 56.9104 26.2469C57.569 26.9055 57.569 28.0032 56.9104 28.735L55.2272 30.4182C54.4954 31.0768 53.3977 31.0768 52.7391 30.4182Z" fill="white" stroke="#251725" stroke-miterlimit="10" stroke-linecap="round" stroke-linejoin="round"/>
<path d="M26.2476 56.9094C25.589 56.2508 25.589 55.1531 26.2476 54.4213L27.9308 52.7381C28.5894 52.0795 29.6871 52.0795 30.4189 52.7381C31.0775 53.3967 31.0775 54.4944 30.4189 55.2262L28.7358 56.9094C28.004 57.568 26.9063 57.568 26.2476 56.9094Z" fill="white" stroke="#251725" stroke-miterlimit="10" stroke-linecap="round" stroke-linejoin="round"/>
<path d="M30.3454 30.4182C29.6868 31.0768 28.5891 31.0768 27.8573 30.4182L26.1741 28.735C25.5155 28.0764 25.5155 26.9787 26.1741 26.2469C26.8328 25.5883 27.9305 25.5883 28.6623 26.2469L30.3454 27.93C31.0041 28.6619 31.0041 29.7596 30.3454 30.4182Z" fill="white" stroke="#251725" stroke-miterlimit="10" stroke-linecap="round" stroke-linejoin="round"/>
<path d="M56.8369 56.9094C56.1783 57.568 55.0806 57.568 54.3487 56.9094L52.6656 55.2262C52.007 54.5676 52.007 53.4699 52.6656 52.7381C53.3242 52.0795 54.4219 52.0795 55.1537 52.7381L56.8369 54.4213C57.4955 55.0799 57.4955 56.2508 56.8369 56.9094Z" fill="white" stroke="#251725" stroke-miterlimit="10" stroke-linecap="round" stroke-linejoin="round"/>
<path d="M7.95239 84.6454H22.808V82.1572H7.36694L7.95239 84.6454Z" fill="#251725" stroke="#251725" stroke-miterlimit="10" stroke-linecap="round" stroke-linejoin="round"/>
<path d="M63.5696 84.6454H78.4252V82.1572H62.9841L63.5696 84.6454Z" fill="#251725" stroke="#251725" stroke-miterlimit="10" stroke-linecap="round" stroke-linejoin="round"/>
<path d="M10.5865 33.7115C9.41564 33.7115 8.39111 32.7602 8.39111 31.5161V23.8321C8.39111 22.6612 9.34246 21.6367 10.5865 21.6367C11.7574 21.6367 12.7819 22.5881 12.7819 23.8321V31.5161C12.7088 32.687 11.7574 33.7115 10.5865 33.7115Z" fill="white" stroke="#251725" stroke-miterlimit="10" stroke-linecap="round" stroke-linejoin="round"/>
<path d="M10.5865 61.5201C9.41564 61.5201 8.39111 60.5688 8.39111 59.3247V51.6407C8.39111 50.4698 9.34246 49.4453 10.5865 49.4453C11.7574 49.4453 12.7819 50.3967 12.7819 51.6407V59.3247C12.7088 60.5688 11.7574 61.5201 10.5865 61.5201Z" fill="white" stroke="#251725" stroke-miterlimit="10" stroke-linecap="round" stroke-linejoin="round"/>
<path d="M74.1071 91.1581C84.3729 91.1581 92.695 82.8361 92.695 72.5703C92.695 62.3045 84.3729 53.9824 74.1071 53.9824C63.8413 53.9824 55.5193 62.3045 55.5193 72.5703C55.5193 82.8361 63.8413 91.1581 74.1071 91.1581Z" fill="#251725" stroke="#251725" stroke-miterlimit="10" stroke-linecap="round" stroke-linejoin="round"/>
<path d="M70.8142 91.1581C81.0799 91.1581 89.402 82.8361 89.402 72.5703C89.402 62.3045 81.0799 53.9824 70.8142 53.9824C60.5484 53.9824 52.2263 62.3045 52.2263 72.5703C52.2263 82.8361 60.5484 91.1581 70.8142 91.1581Z" fill="#DF87F1"/>
<path d="M70.8142 91.1581C81.0799 91.1581 89.402 82.8361 89.402 72.5703C89.402 62.3045 81.0799 53.9824 70.8142 53.9824C60.5484 53.9824 52.2263 62.3045 52.2263 72.5703C52.2263 82.8361 60.5484 91.1581 70.8142 91.1581Z" fill="url(#paint4_linear_3075_11882)"/>
<path d="M70.8142 91.1581C81.0799 91.1581 89.402 82.8361 89.402 72.5703C89.402 62.3045 81.0799 53.9824 70.8142 53.9824C60.5484 53.9824 52.2263 62.3045 52.2263 72.5703C52.2263 82.8361 60.5484 91.1581 70.8142 91.1581Z" stroke="#251725" stroke-miterlimit="10" stroke-linecap="round" stroke-linejoin="round"/>
<path d="M70.8141 86.9133C78.7357 86.9133 85.1575 80.4916 85.1575 72.5699C85.1575 64.6483 78.7357 58.2266 70.8141 58.2266C62.8925 58.2266 56.4707 64.6483 56.4707 72.5699C56.4707 80.4916 62.8925 86.9133 70.8141 86.9133Z" fill="#251725"/>
<path d="M70.8141 86.9133C78.7357 86.9133 85.1575 80.4916 85.1575 72.5699C85.1575 64.6483 78.7357 58.2266 70.8141 58.2266C62.8925 58.2266 56.4707 64.6483 56.4707 72.5699C56.4707 80.4916 62.8925 86.9133 70.8141 86.9133Z" fill="url(#paint5_linear_3075_11882)"/>
<path d="M70.8141 86.9133C78.7357 86.9133 85.1575 80.4916 85.1575 72.5699C85.1575 64.6483 78.7357 58.2266 70.8141 58.2266C62.8925 58.2266 56.4707 64.6483 56.4707 72.5699C56.4707 80.4916 62.8925 86.9133 70.8141 86.9133Z" stroke="#251725" stroke-miterlimit="10" stroke-linecap="round" stroke-linejoin="round"/>
<path d="M76.8884 60.8613L71.0339 66.7158C72.1316 67.9598 73.5952 69.1307 73.888 70.3016L80.6206 63.569C79.4497 62.4713 78.2056 61.52 76.8884 60.8613Z" fill="white"/>
<path d="M66.4965 71.2529L59.1785 78.571C59.9103 79.9614 60.8616 81.2055 61.9593 82.23L66.4965 77.6928V71.2529Z" fill="white"/>
<path d="M66.4965 79.4496V79.5228V79.4496L62.9106 83.0354C63.4229 83.4745 64.0084 83.8404 64.667 84.1331L69.2042 79.5959C68.5455 79.3764 67.8869 79.0837 67.3015 78.7178L66.4965 79.4496Z" fill="white"/>
<path d="M81.3524 64.5938L73.5952 72.3509C74.0343 72.8631 74.4734 73.3754 74.8393 73.9609L82.5232 66.2769C82.0842 65.6915 81.7183 65.106 81.3524 64.5938Z" fill="white"/>
<path d="M71.1797 82.2308C70.9601 82.2308 70.8138 82.0844 70.8138 81.8649V80.5476H69.5697V81.8649C69.5697 82.0844 69.4234 82.2308 69.2038 82.2308H67.4475C67.2279 82.2308 67.0816 82.0844 67.0816 81.8649V80.5476H64.8862C64.6666 80.5476 64.5203 80.4013 64.5203 80.1817V65.2529C64.5203 65.0334 64.6666 64.887 64.8862 64.887H67.0816V63.277C67.0816 63.0575 67.2279 62.9111 67.4475 62.9111H69.2038C69.4234 62.9111 69.5697 63.0575 69.5697 63.277V64.887H70.8138V63.277C70.8138 63.0575 70.9601 62.9111 71.1797 62.9111H72.936C73.1556 62.9111 73.3019 63.0575 73.3019 63.277V65.0334C74.1801 65.1797 74.9119 65.5456 75.4242 65.9847C76.3755 66.7165 76.8146 67.741 76.8146 69.1315C76.8146 70.0828 76.5219 70.961 76.0096 71.6196C75.7169 71.9855 75.351 72.3514 74.9119 72.571C75.4242 72.8637 75.9364 73.2296 76.3023 73.6687C76.8878 74.4005 77.1805 75.2055 77.1805 76.23C77.1805 77.6204 76.7414 78.7181 75.7901 79.5231C75.1314 80.0354 74.3265 80.4013 73.3019 80.5476V82.0113C73.3019 82.2308 73.1556 82.3772 72.936 82.3772H71.1797V82.2308ZM71.1065 76.8154C72.5701 76.8154 72.7165 76.1568 72.7165 75.4982C72.7165 75.0591 72.5701 74.7664 72.3506 74.5468C72.0579 74.3273 71.6188 74.1809 71.1065 74.1809H68.9111V76.8154H71.1065ZM70.887 70.961C72.2042 70.961 72.4238 70.3024 72.4238 69.7169C72.4238 69.1315 72.2774 68.4729 70.887 68.4729H68.9111V70.961H70.887Z" fill="#10AD74"/>
<path d="M71.1797 82.2308C70.9601 82.2308 70.8138 82.0844 70.8138 81.8649V80.5476H69.5697V81.8649C69.5697 82.0844 69.4234 82.2308 69.2038 82.2308H67.4475C67.2279 82.2308 67.0816 82.0844 67.0816 81.8649V80.5476H64.8862C64.6666 80.5476 64.5203 80.4013 64.5203 80.1817V65.2529C64.5203 65.0334 64.6666 64.887 64.8862 64.887H67.0816V63.277C67.0816 63.0575 67.2279 62.9111 67.4475 62.9111H69.2038C69.4234 62.9111 69.5697 63.0575 69.5697 63.277V64.887H70.8138V63.277C70.8138 63.0575 70.9601 62.9111 71.1797 62.9111H72.936C73.1556 62.9111 73.3019 63.0575 73.3019 63.277V65.0334C74.1801 65.1797 74.9119 65.5456 75.4242 65.9847C76.3755 66.7165 76.8146 67.741 76.8146 69.1315C76.8146 70.0828 76.5219 70.961 76.0096 71.6196C75.7169 71.9855 75.351 72.3514 74.9119 72.571C75.4242 72.8637 75.9364 73.2296 76.3023 73.6687C76.8878 74.4005 77.1805 75.2055 77.1805 76.23C77.1805 77.6204 76.7414 78.7181 75.7901 79.5231C75.1314 80.0354 74.3265 80.4013 73.3019 80.5476V82.0113C73.3019 82.2308 73.1556 82.3772 72.936 82.3772H71.1797V82.2308ZM71.1065 76.8154C72.5701 76.8154 72.7165 76.1568 72.7165 75.4982C72.7165 75.0591 72.5701 74.7664 72.3506 74.5468C72.0579 74.3273 71.6188 74.1809 71.1065 74.1809H68.9111V76.8154H71.1065ZM70.887 70.961C72.2042 70.961 72.4238 70.3024 72.4238 69.7169C72.4238 69.1315 72.2774 68.4729 70.887 68.4729H68.9111V70.961H70.887Z" fill="url(#paint6_linear_3075_11882)"/>
<path d="M72.9362 63.2035V65.3257C73.8876 65.4721 74.6194 65.7648 75.2048 66.2039C76.0098 66.8625 76.4489 67.8139 76.4489 69.0579C76.4489 69.9361 76.2293 70.7411 75.7171 71.3265C75.2048 71.912 74.6194 72.3511 73.8144 72.4974C74.6925 72.717 75.4243 73.156 75.9366 73.8147C76.4489 74.4733 76.7416 75.2783 76.7416 76.0833C76.7416 77.4005 76.3025 78.3519 75.4975 79.0837C74.8389 79.5959 73.9607 79.9618 72.9362 80.1082V81.8645H71.1799V80.1814H69.204V81.8645H67.4477V80.1814H64.8863V65.2525H67.4477V63.2767H69.204V65.2525H71.1799V63.2767H72.9362V63.2035ZM68.5454 71.3265H70.8872C72.1312 71.3265 72.7898 70.8143 72.7898 69.7166C72.7898 68.6188 72.1312 68.1066 70.8872 68.1066H68.5454V71.3265ZM68.5454 77.181H71.1067C72.4239 77.181 73.0826 76.5955 73.0826 75.571C73.0826 75.0587 72.9362 74.6196 72.5703 74.3269C72.2044 74.0342 71.6921 73.8878 71.1067 73.8878H68.5454V77.181ZM72.9362 62.4717H71.1799C70.7408 62.4717 70.4481 62.7644 70.4481 63.2035V64.4476H69.9358V63.2035C69.9358 62.7644 69.6431 62.4717 69.204 62.4717H67.4477C67.0086 62.4717 66.7159 62.7644 66.7159 63.2035V64.4476H64.8863C64.4473 64.4476 64.1545 64.7403 64.1545 65.1794V80.1082C64.1545 80.5473 64.4473 80.84 64.8863 80.84H66.7159V81.7913C66.7159 82.2304 67.0086 82.5231 67.4477 82.5231H69.204C69.6431 82.5231 69.9358 82.2304 69.9358 81.7913V80.84H70.4481V81.7913C70.4481 82.2304 70.7408 82.5231 71.1799 82.5231H72.9362C73.3753 82.5231 73.668 82.2304 73.668 81.7913V80.6204C74.6194 80.4009 75.3512 80.035 76.0098 79.5227C77.0343 78.6446 77.5466 77.4737 77.5466 75.9369C77.5466 74.9124 77.2539 73.961 76.5952 73.156C76.3025 72.7901 76.0098 72.4974 75.6439 72.2779C75.8634 72.0583 76.1561 71.8388 76.3025 71.6192C76.8879 70.8874 77.1807 70.0093 77.1807 68.9116C77.1807 67.448 76.6684 66.3503 75.6439 65.5453C75.1316 65.1062 74.3998 64.8135 73.668 64.5939V63.1303C73.668 62.8376 73.3021 62.4717 72.9362 62.4717ZM69.2772 68.8384H70.8872C72.058 68.8384 72.058 69.3506 72.058 69.7166C72.058 70.1556 71.9849 70.5947 70.8872 70.5947H69.2772V68.8384ZM69.2772 74.6196H71.1067C71.5458 74.6196 71.9117 74.6928 72.1312 74.9124C72.2776 74.9855 72.4239 75.2051 72.4239 75.6442C72.4239 76.0101 72.4239 76.5223 71.1799 76.5223H69.3504V74.6196H69.2772Z" fill="#251725"/>
<path d="M83.4746 19.6609V24.564L89.5486 18.49V13.5869L83.4746 19.6609Z" fill="white"/>
<path d="M83.4746 26.3201V29.1009L89.5486 23.027V20.2461L83.4746 26.3201Z" fill="white"/>
<path d="M52.2265 73.9611H21.1979C20.027 73.9611 19.0757 73.0098 19.0757 71.8389H52.2265V73.9611Z" fill="#251725"/>
<path d="M73.3022 3.12223H44.3959C43.225 3.12223 42.2737 2.17089 42.2737 1H75.4245C75.4245 2.17089 74.4731 3.12223 73.3022 3.12223Z" fill="#251725"/>
<defs>
<linearGradient id="paint0_linear_3075_11882" x1="91.5273" y1="82.1572" x2="10.0273" y2="0.657202" gradientUnits="userSpaceOnUse">
<stop stop-color="#DF87F1"/>
<stop offset="1" stop-color="#FBFBFF"/>
</linearGradient>
<linearGradient id="paint1_linear_3075_11882" x1="25.0272" y1="-5.19627" x2="108.027" y2="77.8037" gradientUnits="userSpaceOnUse">
<stop offset="0.15" stop-color="#10AD74"/>
<stop offset="0.75" stop-color="#1288AA"/>
</linearGradient>
<linearGradient id="paint2_linear_3075_11882" x1="55.1436" y1="52.665" x2="32.9498" y2="30.4711" gradientUnits="userSpaceOnUse">
<stop stop-color="#DF87F1"/>
<stop offset="1" stop-color="#FBFBFF"/>
</linearGradient>
<linearGradient id="paint3_linear_3075_11882" x1="65.7337" y1="58.6731" x2="32.9015" y2="30.5274" gradientUnits="userSpaceOnUse">
<stop offset="0.15" stop-color="#DF87F1"/>
<stop offset="0.6" stop-color="#FBFBFF"/>
</linearGradient>
<linearGradient id="paint4_linear_3075_11882" x1="93.6942" y1="91.1581" x2="56.3615" y2="53.8254" gradientUnits="userSpaceOnUse">
<stop stop-color="#DF87F1"/>
<stop offset="1" stop-color="#FBFBFF"/>
</linearGradient>
<linearGradient id="paint5_linear_3075_11882" x1="62.9956" y1="50.408" x2="102.29" y2="89.7027" gradientUnits="userSpaceOnUse">
<stop offset="0.15" stop-color="#10AD74"/>
<stop offset="0.75" stop-color="#1288AA"/>
</linearGradient>
<linearGradient id="paint6_linear_3075_11882" x1="78.6422" y1="82.3772" x2="60.7732" y2="70.7556" gradientUnits="userSpaceOnUse">
<stop stop-color="#DF87F1"/>
<stop offset="1" stop-color="#FBFBFF"/>
</linearGradient>
</defs>
</svg>
