<svg width="101" height="108" viewBox="0 0 101 108" fill="none" xmlns="http://www.w3.org/2000/svg">
<path d="M49.4454 94.8903C71.634 94.8903 89.6215 76.9028 89.6215 54.7142C89.6215 32.5255 71.634 14.5381 49.4454 14.5381C27.2567 14.5381 9.26929 32.5255 9.26929 54.7142C9.26929 76.9028 27.2567 94.8903 49.4454 94.8903Z" fill="#251725" stroke="#251725" stroke-width="0.731805" stroke-miterlimit="10" stroke-linecap="round" stroke-linejoin="round"/>
<path d="M49.4454 91.4508C71.634 91.4508 89.6215 73.4634 89.6215 51.2747C89.6215 29.0861 71.634 11.0986 49.4454 11.0986C27.2567 11.0986 9.26929 29.0861 9.26929 51.2747C9.26929 73.4634 27.2567 91.4508 49.4454 91.4508Z" fill="#A499CE"/>
<path d="M49.4454 91.4508C71.634 91.4508 89.6215 73.4634 89.6215 51.2747C89.6215 29.0861 71.634 11.0986 49.4454 11.0986C27.2567 11.0986 9.26929 29.0861 9.26929 51.2747C9.26929 73.4634 27.2567 91.4508 49.4454 91.4508Z" fill="url(#paint0_linear_3075_11804)"/>
<path d="M49.4454 91.4508C71.634 91.4508 89.6215 73.4634 89.6215 51.2747C89.6215 29.0861 71.634 11.0986 49.4454 11.0986C27.2567 11.0986 9.26929 29.0861 9.26929 51.2747C9.26929 73.4634 27.2567 91.4508 49.4454 91.4508Z" stroke="#251725" stroke-miterlimit="10" stroke-linecap="round" stroke-linejoin="round"/>
<path d="M49.4457 84.718C67.916 84.718 82.8892 69.7449 82.8892 51.2745C82.8892 32.8042 67.916 17.8311 49.4457 17.8311C30.9754 17.8311 16.0022 32.8042 16.0022 51.2745C16.0022 69.7449 30.9754 84.718 49.4457 84.718Z" fill="url(#paint1_linear_3075_11804)"/>
<path d="M49.4457 84.718C67.916 84.718 82.8892 69.7449 82.8892 51.2745C82.8892 32.8042 67.916 17.8311 49.4457 17.8311C30.9754 17.8311 16.0022 32.8042 16.0022 51.2745C16.0022 69.7449 30.9754 84.718 49.4457 84.718Z" fill="url(#paint2_linear_3075_11804)"/>
<path d="M49.4457 84.718C67.916 84.718 82.8892 69.7449 82.8892 51.2745C82.8892 32.8042 67.916 17.8311 49.4457 17.8311C30.9754 17.8311 16.0022 32.8042 16.0022 51.2745C16.0022 69.7449 30.9754 84.718 49.4457 84.718Z" stroke="#251725" stroke-miterlimit="10" stroke-linecap="round" stroke-linejoin="round"/>
<path d="M49.4453 51.2749V29.833" stroke="#251725" stroke-width="2" stroke-miterlimit="10" stroke-linecap="round" stroke-linejoin="round"/>
<path d="M53.4703 33.8577L49.4453 28.3691L45.4204 33.8577H53.4703Z" fill="#251725" stroke="#251725" stroke-width="0.731805" stroke-miterlimit="10" stroke-linecap="round" stroke-linejoin="round"/>
<path d="M49.4456 51.2744L36.4927 68.2523" stroke="#251725" stroke-width="2" stroke-miterlimit="10" stroke-linecap="round" stroke-linejoin="round"/>
<path d="M35.6876 62.6172L35.2485 69.7157L42.1275 67.4471L35.6876 62.6172Z" fill="#251725" stroke="#251725" stroke-width="0.731805" stroke-miterlimit="10" stroke-linecap="round" stroke-linejoin="round"/>
<path d="M49.4452 55.7386C51.9106 55.7386 53.9092 53.74 53.9092 51.2746C53.9092 48.8092 51.9106 46.8105 49.4452 46.8105C46.9798 46.8105 44.9812 48.8092 44.9812 51.2746C44.9812 53.74 46.9798 55.7386 49.4452 55.7386Z" fill="#251725" stroke="#251725" stroke-width="0.731805" stroke-miterlimit="10" stroke-linecap="round" stroke-linejoin="round"/>
<path d="M49.9575 24.2713C49.0062 24.2713 48.2012 23.4663 48.2012 22.515V18.8559C48.2012 17.9046 49.0062 17.0996 49.9575 17.0996C50.9089 17.0996 51.7138 17.9046 51.7138 18.8559V22.515C51.6407 23.4663 50.9089 24.2713 49.9575 24.2713Z" fill="#251725"/>
<path d="M49.9575 87.4256C49.0062 87.4256 48.2012 86.6206 48.2012 85.6693V82.0102C48.2012 81.0589 49.0062 80.2539 49.9575 80.2539C50.9089 80.2539 51.7138 81.0589 51.7138 82.0102V85.6693C51.6407 86.6938 50.9089 87.4256 49.9575 87.4256Z" fill="#251725"/>
<path d="M21.8563 52.2993C21.8563 53.2506 21.0513 54.0556 20.0999 54.0556H16.4409C15.4896 54.0556 14.6846 53.2506 14.6846 52.2993C14.6846 51.348 15.4896 50.543 16.4409 50.543H20.0999C21.1245 50.543 21.8563 51.348 21.8563 52.2993Z" fill="#251725"/>
<path d="M85.0843 52.2993C85.0843 53.2506 84.2793 54.0556 83.328 54.0556H79.6689C78.7176 54.0556 77.9126 53.2506 77.9126 52.2993C77.9126 51.348 78.7176 50.543 79.6689 50.543H83.328C84.2793 50.543 85.0843 51.348 85.0843 52.2993Z" fill="#251725"/>
<path d="M30.1257 32.4673C29.4671 33.1259 28.3694 33.1259 27.6376 32.4673L25.0762 29.9059C24.4176 29.2473 24.4176 28.1496 25.0762 27.4178C25.7349 26.7592 26.8326 26.7592 27.5644 27.4178L30.1257 29.9791C30.7843 30.7109 30.7843 31.8086 30.1257 32.4673Z" fill="#251725"/>
<path d="M74.7656 77.1801C74.107 77.8388 73.0093 77.8388 72.2775 77.1801L69.7161 74.6188C69.0575 73.9602 69.0575 72.8625 69.7161 72.1307C70.3748 71.4721 71.4725 71.4721 72.2043 72.1307L74.7656 74.692C75.4974 75.3506 75.4974 76.4483 74.7656 77.1801Z" fill="#251725"/>
<path d="M88.8165 43.1513C88.4506 43.2244 88.0116 43.2976 87.6457 43.2976C87.1334 43.3708 86.7675 43.7367 86.6211 44.1758L86.182 45.8589C86.0357 46.5176 85.3771 46.8835 84.7184 46.7371L79.0104 45.3467C78.3517 45.2003 77.9858 44.5417 78.1322 43.9562L78.5713 42.2731C78.7176 41.7608 78.4981 41.3218 78.059 41.029C76.5954 40.0777 75.3513 38.8336 74.3268 37.4432C74.0341 37.0041 73.5218 36.8577 73.0827 37.0041L71.3996 37.5164C70.8141 37.6627 70.0823 37.37 69.936 36.7114L68.326 31.0765C68.1796 30.4179 68.4724 29.7592 69.131 29.6129L70.8141 29.1006C71.2532 28.9542 71.6191 28.5152 71.6923 28.0761C71.7655 27.1979 71.8387 26.3929 72.0582 25.5148C72.2778 24.6366 72.5705 23.8316 72.9364 23.0998C73.1559 22.6607 73.0095 22.1485 72.6436 21.7826L71.3996 20.5385C70.9605 20.0994 70.8873 19.3676 71.3996 18.8553L72.1314 18.1235L72.7168 17.5381C74.1073 18.7822 75.3513 20.1726 76.5222 21.563C79.2299 24.8561 81.4985 28.5152 84.4989 31.5156C86.4748 35.1014 88.0116 38.98 88.8165 43.1513Z" fill="#251725"/>
<path d="M49.4453 23.2469C48.4939 23.2469 47.689 22.4419 47.689 21.4906V17.8315C47.689 16.8802 48.4939 16.0752 49.4453 16.0752C50.3966 16.0752 51.2016 16.8802 51.2016 17.8315V21.4906C51.2016 22.4419 50.3966 23.2469 49.4453 23.2469Z" fill="#EBEDFD" stroke="#251725" stroke-miterlimit="10" stroke-linecap="round" stroke-linejoin="round"/>
<path d="M49.4453 86.4744C48.4939 86.4744 47.689 85.6694 47.689 84.7181V81.0591C47.689 80.1077 48.4939 79.3027 49.4453 79.3027C50.3966 79.3027 51.2016 80.1077 51.2016 81.0591V84.7181C51.2016 85.6694 50.3966 86.4744 49.4453 86.4744Z" fill="#EBEDFD" stroke="#251725" stroke-miterlimit="10" stroke-linecap="round" stroke-linejoin="round"/>
<path d="M21.4171 51.2749C21.4171 52.2262 20.6121 53.0312 19.6607 53.0312H16.0017C15.0503 53.0312 14.2454 52.2262 14.2454 51.2749C14.2454 50.3235 15.0503 49.5186 16.0017 49.5186H19.6607C20.6121 49.5186 21.4171 50.3235 21.4171 51.2749Z" fill="#EBEDFD" stroke="#251725" stroke-miterlimit="10" stroke-linecap="round" stroke-linejoin="round"/>
<path d="M84.6451 51.2749C84.6451 52.2262 83.8401 53.0312 82.8887 53.0312H79.2297C78.2784 53.0312 77.4734 52.2262 77.4734 51.2749C77.4734 50.3235 78.2784 49.5186 79.2297 49.5186H82.8887C83.8401 49.5186 84.6451 50.3235 84.6451 51.2749Z" fill="#EBEDFD" stroke="#251725" stroke-miterlimit="10" stroke-linecap="round" stroke-linejoin="round"/>
<path d="M29.6135 31.4428C28.9549 32.1015 27.8572 32.1015 27.1254 31.4428L24.564 28.8815C23.9054 28.2229 23.9054 27.1252 24.564 26.3934C25.2227 25.7348 26.3204 25.7348 27.0522 26.3934L29.6135 28.9547C30.2721 29.6865 30.2721 30.7842 29.6135 31.4428Z" fill="#EBEDFD" stroke="#251725" stroke-miterlimit="10" stroke-linecap="round" stroke-linejoin="round"/>
<path d="M74.3269 76.1557C73.6682 76.8144 72.5705 76.8144 71.8387 76.1557L69.2774 73.5944C68.6188 72.9358 68.6188 71.8381 69.2774 71.1063C69.936 70.4476 71.0337 70.4476 71.7655 71.1063L74.3269 73.6676C74.9855 74.3994 74.9855 75.4971 74.3269 76.1557Z" fill="#EBEDFD" stroke="#251725" stroke-miterlimit="10" stroke-linecap="round" stroke-linejoin="round"/>
<path d="M69.2774 31.4428C68.6188 30.7842 68.6188 29.6865 69.2774 28.9547L71.8387 26.3934C72.4974 25.7348 73.5951 25.7348 74.3269 26.3934C74.9855 27.052 74.9855 28.1497 74.3269 28.8815L71.7655 31.4428C71.0337 32.1015 69.936 32.1015 69.2774 31.4428Z" fill="#EBEDFD" stroke="#251725" stroke-width="0.731805" stroke-miterlimit="10" stroke-linecap="round" stroke-linejoin="round"/>
<path d="M24.564 76.1557C23.9054 75.4971 23.9054 74.3994 24.564 73.6676L27.1254 71.1063C27.784 70.4476 28.8817 70.4476 29.6135 71.1063C30.2721 71.7649 30.2721 72.8626 29.6135 73.5944L27.0522 76.1557C26.3936 76.8144 25.2958 76.8144 24.564 76.1557Z" fill="#EBEDFD" stroke="#251725" stroke-width="0.731805" stroke-miterlimit="10" stroke-linecap="round" stroke-linejoin="round"/>
<path d="M99.5014 25.4422L97.9646 24.564C97.5255 24.3445 97.306 23.8322 97.3792 23.32C97.5255 22.515 97.5987 21.6368 97.5987 20.7586C97.5987 19.8805 97.5255 19.0023 97.3792 18.1973C97.306 17.6851 97.5255 17.246 97.9646 16.9532L99.5014 16.0751C100.087 15.7824 100.233 15.0506 99.9405 14.4651L97.0133 9.41566C96.7206 8.83021 95.9888 8.68385 95.4033 8.97657L93.8665 9.85474C93.4274 10.0743 92.9152 10.0743 92.5493 9.78156C91.232 8.68385 89.7684 7.80569 88.0853 7.22024C87.6462 7.07388 87.3535 6.6348 87.3535 6.12253V4.3662C87.3535 3.70758 86.8412 3.19531 86.1826 3.19531H80.3281C79.6695 3.19531 79.1572 3.70758 79.1572 4.3662V6.12253C79.1572 6.6348 78.8645 7.07388 78.4254 7.22024C76.8155 7.80569 75.2787 8.68385 73.9614 9.78156C73.5955 10.0743 73.0833 10.1475 72.6442 9.85474L71.1074 8.97657C70.5219 8.68385 69.7901 8.83021 69.4974 9.41566L66.5702 14.4651C66.2775 15.0506 66.4238 15.7824 67.0093 16.0751L68.5461 16.9532C68.9851 17.1728 69.2047 17.6851 69.1315 18.1973C68.9851 19.0023 68.912 19.8805 68.912 20.7586C68.912 21.6368 68.9851 22.515 69.1315 23.32C69.2047 23.8322 68.9851 24.2713 68.5461 24.564L67.0093 25.4422C66.4238 25.7349 66.2775 26.4667 66.5702 27.0522L69.4974 32.1016C69.7901 32.6871 70.5219 32.8334 71.1074 32.5407L72.6442 31.6625C73.0833 31.443 73.5955 31.443 73.9614 31.7357C75.2787 32.8334 76.7423 33.7116 78.4254 34.297C78.8645 34.4434 79.1572 34.8825 79.1572 35.3947V37.1511C79.1572 37.8097 79.6695 38.322 80.3281 38.322H86.1826C86.8412 38.322 87.3535 37.8097 87.3535 37.1511V35.4679C87.3535 34.9557 87.6462 34.5166 88.0853 34.3702C89.6952 33.7848 91.232 32.9066 92.5493 31.8089C92.9152 31.5162 93.4274 31.443 93.8665 31.7357L95.4033 32.6139C95.9888 32.9066 96.7206 32.7602 97.0133 32.1748L99.9405 27.1253C100.233 26.4667 100.014 25.8081 99.5014 25.4422ZM83.1822 26.5399C79.9622 26.5399 77.4009 23.9786 77.4009 20.7586C77.4009 17.5387 79.9622 14.9774 83.1822 14.9774C86.4021 14.9774 88.9634 17.5387 88.9634 20.7586C88.9634 23.9786 86.3289 26.5399 83.1822 26.5399Z" fill="#251725"/>
<path d="M98.989 23.2469L97.4522 22.3687C97.0131 22.1492 96.7936 21.6369 96.8667 21.1246C97.0131 20.3197 97.0863 19.4415 97.0863 18.5633C97.0863 17.6852 97.0131 16.807 96.8667 16.002C96.7936 15.4897 97.0131 15.0507 97.4522 14.7579L98.989 13.8798C99.5744 13.587 99.7208 12.8552 99.4281 12.2698L96.5008 7.22035C96.2081 6.6349 95.4763 6.48854 94.8909 6.78126L93.3541 7.65943C92.915 7.87897 92.4027 7.87897 92.0368 7.58625C90.7196 6.48854 89.256 5.61037 87.5728 5.02493C87.1337 4.87857 86.841 4.43949 86.841 3.92722V2.17089C86.841 1.51226 86.3287 1 85.6701 1H79.8157C79.157 1 78.6448 1.51226 78.6448 2.17089V3.92722C78.6448 4.43949 78.3521 4.87857 77.913 5.02493C76.303 5.61037 74.7662 6.48854 73.449 7.58625C73.0831 7.87897 72.5708 7.95215 72.1317 7.65943L70.5949 6.78126C70.0095 6.48854 69.2777 6.6349 68.985 7.22035L66.0577 12.2698C65.765 12.8552 65.9114 13.587 66.4968 13.8798L68.0336 14.7579C68.4727 14.9775 68.6922 15.4897 68.6191 16.002C68.4727 16.807 68.3995 17.6852 68.3995 18.5633C68.3995 19.4415 68.4727 20.3197 68.6191 21.1246C68.6922 21.6369 68.4727 22.076 68.0336 22.3687L66.4968 23.2469C65.9114 23.5396 65.765 24.2714 66.0577 24.8568L68.985 29.9063C69.2777 30.4917 70.0095 30.6381 70.5949 30.3454L72.1317 29.4672C72.5708 29.2477 73.0831 29.2477 73.449 29.5404C74.7662 30.6381 76.2298 31.5163 77.913 32.1017C78.3521 32.2481 78.6448 32.6872 78.6448 33.1994V34.9558C78.6448 35.6144 79.157 36.1266 79.8157 36.1266H85.6701C86.3287 36.1266 86.841 35.6144 86.841 34.9558V33.2726C86.841 32.7603 87.1337 32.3213 87.5728 32.1749C89.1828 31.5895 90.7196 30.7113 92.0368 29.6136C92.4027 29.3209 92.915 29.2477 93.3541 29.5404L94.8909 30.4186C95.4763 30.7113 96.2081 30.5649 96.5008 29.9795L99.4281 24.93C99.7208 24.3446 99.5012 23.6128 98.989 23.2469ZM82.6697 24.3446C79.4498 24.3446 76.8885 21.7833 76.8885 18.5633C76.8885 15.3434 79.4498 12.7821 82.6697 12.7821C85.8897 12.7821 88.451 15.3434 88.451 18.5633C88.451 21.7833 85.8165 24.3446 82.6697 24.3446Z" fill="#FBFBFF"/>
<path d="M98.989 23.2469L97.4522 22.3687C97.0131 22.1492 96.7936 21.6369 96.8667 21.1246C97.0131 20.3197 97.0863 19.4415 97.0863 18.5633C97.0863 17.6852 97.0131 16.807 96.8667 16.002C96.7936 15.4897 97.0131 15.0507 97.4522 14.7579L98.989 13.8798C99.5744 13.587 99.7208 12.8552 99.4281 12.2698L96.5008 7.22035C96.2081 6.6349 95.4763 6.48854 94.8909 6.78126L93.3541 7.65943C92.915 7.87897 92.4027 7.87897 92.0368 7.58625C90.7196 6.48854 89.256 5.61037 87.5728 5.02493C87.1337 4.87857 86.841 4.43949 86.841 3.92722V2.17089C86.841 1.51226 86.3287 1 85.6701 1H79.8157C79.157 1 78.6448 1.51226 78.6448 2.17089V3.92722C78.6448 4.43949 78.3521 4.87857 77.913 5.02493C76.303 5.61037 74.7662 6.48854 73.449 7.58625C73.0831 7.87897 72.5708 7.95215 72.1317 7.65943L70.5949 6.78126C70.0095 6.48854 69.2777 6.6349 68.985 7.22035L66.0577 12.2698C65.765 12.8552 65.9114 13.587 66.4968 13.8798L68.0336 14.7579C68.4727 14.9775 68.6922 15.4897 68.6191 16.002C68.4727 16.807 68.3995 17.6852 68.3995 18.5633C68.3995 19.4415 68.4727 20.3197 68.6191 21.1246C68.6922 21.6369 68.4727 22.076 68.0336 22.3687L66.4968 23.2469C65.9114 23.5396 65.765 24.2714 66.0577 24.8568L68.985 29.9063C69.2777 30.4917 70.0095 30.6381 70.5949 30.3454L72.1317 29.4672C72.5708 29.2477 73.0831 29.2477 73.449 29.5404C74.7662 30.6381 76.2298 31.5163 77.913 32.1017C78.3521 32.2481 78.6448 32.6872 78.6448 33.1994V34.9558C78.6448 35.6144 79.157 36.1266 79.8157 36.1266H85.6701C86.3287 36.1266 86.841 35.6144 86.841 34.9558V33.2726C86.841 32.7603 87.1337 32.3213 87.5728 32.1749C89.1828 31.5895 90.7196 30.7113 92.0368 29.6136C92.4027 29.3209 92.915 29.2477 93.3541 29.5404L94.8909 30.4186C95.4763 30.7113 96.2081 30.5649 96.5008 29.9795L99.4281 24.93C99.7208 24.3446 99.5012 23.6128 98.989 23.2469ZM82.6697 24.3446C79.4498 24.3446 76.8885 21.7833 76.8885 18.5633C76.8885 15.3434 79.4498 12.7821 82.6697 12.7821C85.8897 12.7821 88.451 15.3434 88.451 18.5633C88.451 21.7833 85.8165 24.3446 82.6697 24.3446Z" fill="url(#paint3_linear_3075_11804)"/>
<path d="M98.989 23.2469L97.4522 22.3687C97.0131 22.1492 96.7936 21.6369 96.8667 21.1246C97.0131 20.3197 97.0863 19.4415 97.0863 18.5633C97.0863 17.6852 97.0131 16.807 96.8667 16.002C96.7936 15.4897 97.0131 15.0507 97.4522 14.7579L98.989 13.8798C99.5744 13.587 99.7208 12.8552 99.4281 12.2698L96.5008 7.22035C96.2081 6.6349 95.4763 6.48854 94.8909 6.78126L93.3541 7.65943C92.915 7.87897 92.4027 7.87897 92.0368 7.58625C90.7196 6.48854 89.256 5.61037 87.5728 5.02493C87.1337 4.87857 86.841 4.43949 86.841 3.92722V2.17089C86.841 1.51226 86.3287 1 85.6701 1H79.8157C79.157 1 78.6448 1.51226 78.6448 2.17089V3.92722C78.6448 4.43949 78.3521 4.87857 77.913 5.02493C76.303 5.61037 74.7662 6.48854 73.449 7.58625C73.0831 7.87897 72.5708 7.95215 72.1317 7.65943L70.5949 6.78126C70.0095 6.48854 69.2777 6.6349 68.985 7.22035L66.0577 12.2698C65.765 12.8552 65.9114 13.587 66.4968 13.8798L68.0336 14.7579C68.4727 14.9775 68.6922 15.4897 68.6191 16.002C68.4727 16.807 68.3995 17.6852 68.3995 18.5633C68.3995 19.4415 68.4727 20.3197 68.6191 21.1246C68.6922 21.6369 68.4727 22.076 68.0336 22.3687L66.4968 23.2469C65.9114 23.5396 65.765 24.2714 66.0577 24.8568L68.985 29.9063C69.2777 30.4917 70.0095 30.6381 70.5949 30.3454L72.1317 29.4672C72.5708 29.2477 73.0831 29.2477 73.449 29.5404C74.7662 30.6381 76.2298 31.5163 77.913 32.1017C78.3521 32.2481 78.6448 32.6872 78.6448 33.1994V34.9558C78.6448 35.6144 79.157 36.1266 79.8157 36.1266H85.6701C86.3287 36.1266 86.841 35.6144 86.841 34.9558V33.2726C86.841 32.7603 87.1337 32.3213 87.5728 32.1749C89.1828 31.5895 90.7196 30.7113 92.0368 29.6136C92.4027 29.3209 92.915 29.2477 93.3541 29.5404L94.8909 30.4186C95.4763 30.7113 96.2081 30.5649 96.5008 29.9795L99.4281 24.93C99.7208 24.3446 99.5012 23.6128 98.989 23.2469ZM82.6697 24.3446C79.4498 24.3446 76.8885 21.7833 76.8885 18.5633C76.8885 15.3434 79.4498 12.7821 82.6697 12.7821C85.8897 12.7821 88.451 15.3434 88.451 18.5633C88.451 21.7833 85.8165 24.3446 82.6697 24.3446Z" stroke="#251725" stroke-miterlimit="10" stroke-linecap="round" stroke-linejoin="round"/>
<path d="M21.4177 107.331C31.8048 107.331 40.2251 98.9102 40.2251 88.5232C40.2251 78.1362 31.8048 69.7158 21.4177 69.7158C11.0307 69.7158 2.61035 78.1362 2.61035 88.5232C2.61035 98.9102 11.0307 107.331 21.4177 107.331Z" fill="#251725" stroke="#251725" stroke-miterlimit="10" stroke-linecap="round" stroke-linejoin="round"/>
<path d="M19.8074 105.282C30.1944 105.282 38.6148 96.8614 38.6148 86.4744C38.6148 76.0873 30.1944 67.667 19.8074 67.667C9.42036 67.667 1 76.0873 1 86.4744C1 96.8614 9.42036 105.282 19.8074 105.282Z" fill="white"/>
<path d="M19.8074 105.282C30.1944 105.282 38.6148 96.8614 38.6148 86.4744C38.6148 76.0873 30.1944 67.667 19.8074 67.667C9.42036 67.667 1 76.0873 1 86.4744C1 96.8614 9.42036 105.282 19.8074 105.282Z" fill="url(#paint4_linear_3075_11804)"/>
<path d="M19.8074 105.282C30.1944 105.282 38.6148 96.8614 38.6148 86.4744C38.6148 76.0873 30.1944 67.667 19.8074 67.667C9.42036 67.667 1 76.0873 1 86.4744C1 96.8614 9.42036 105.282 19.8074 105.282Z" fill="url(#paint5_linear_3075_11804)"/>
<path d="M19.8074 105.282C30.1944 105.282 38.6148 96.8614 38.6148 86.4744C38.6148 76.0873 30.1944 67.667 19.8074 67.667C9.42036 67.667 1 76.0873 1 86.4744C1 96.8614 9.42036 105.282 19.8074 105.282Z" stroke="#251725" stroke-miterlimit="10" stroke-linecap="round" stroke-linejoin="round"/>
<path d="M21.8702 83.8564V81.5108H27.2065V77.8096H12.394V81.5108H17.7452V83.8564C13.2621 84.0721 9.89648 84.9721 9.89648 86.0502C9.89648 87.1283 13.2584 88.0227 17.7452 88.2439V95.9858H21.8702V88.2439C26.3534 88.0302 29.719 87.1302 29.719 86.0502C29.719 84.9702 26.3571 84.0721 21.8702 83.8564ZM19.8077 87.5427C14.9534 87.5427 11.0177 86.7927 11.0177 85.8889C11.0177 85.1108 13.8846 84.4583 17.7415 84.2839V86.9333C18.4052 86.9633 19.0952 86.9802 19.804 86.9802C20.5127 86.9802 21.2065 86.9633 21.8665 86.9333V84.2839C25.7234 84.4583 28.5902 85.1108 28.5902 85.8889C28.5977 86.8021 24.6621 87.5427 19.8077 87.5427Z" fill="#251725"/>
<defs>
<linearGradient id="paint0_linear_3075_11804" x1="27.5456" y1="-10.8012" x2="118.847" y2="80.4998" gradientUnits="userSpaceOnUse">
<stop offset="0.1" stop-color="#F76DFC"/>
<stop offset="0.7" stop-color="#1288AA"/>
</linearGradient>
<linearGradient id="paint1_linear_3075_11804" x1="90.6117" y1="84.7181" x2="23.4422" y2="17.5485" gradientUnits="userSpaceOnUse">
<stop stop-color="#DF87F1"/>
<stop offset="0.75" stop-color="#FBFBFF"/>
</linearGradient>
<linearGradient id="paint2_linear_3075_11804" x1="122.662" y1="102.902" x2="23.2961" y2="17.719" gradientUnits="userSpaceOnUse">
<stop offset="0.3" stop-color="#DF87F1"/>
<stop offset="0.65" stop-color="#FBFBFF"/>
</linearGradient>
<linearGradient id="paint3_linear_3075_11804" x1="103.461" y1="36.1266" x2="68.2179" y2="2.35201" gradientUnits="userSpaceOnUse">
<stop stop-color="#DF87F1"/>
<stop offset="0.75" stop-color="#FBFBFF"/>
</linearGradient>
<linearGradient id="paint4_linear_3075_11804" x1="42.9577" y1="105.282" x2="5.184" y2="67.5081" gradientUnits="userSpaceOnUse">
<stop stop-color="#A1C665"/>
<stop offset="0.75" stop-color="#EBEDFD"/>
</linearGradient>
<linearGradient id="paint5_linear_3075_11804" x1="42.9577" y1="105.282" x2="5.184" y2="67.5081" gradientUnits="userSpaceOnUse">
<stop stop-color="#DF87F1"/>
<stop offset="0.75" stop-color="#FBFBFF"/>
</linearGradient>
</defs>
</svg>
