<svg width="481" height="506" viewBox="0 0 481 506" fill="none" xmlns="http://www.w3.org/2000/svg">
<path d="M342.35 430.278H373.732L374.547 429.768L386.57 422.84L416.22 405.57L374.547 381.524L377.909 407.352L365.479 414.892L317.998 410.511L307.299 430.176L342.35 430.278Z" fill="#8055BB"/>
<path d="M100.275 284.083L98.4873 287.178C97.2493 289.379 100.413 293.643 105.709 296.669C110.936 299.695 116.232 300.383 117.538 298.182L119.326 295.087C118.088 297.288 112.793 296.6 107.497 293.574C102.27 290.548 99.0375 286.284 100.275 284.083Z" fill="#DF87F1" stroke="#251725" stroke-miterlimit="10" stroke-linecap="round" stroke-linejoin="round"/>
<path d="M112.105 285.596C106.878 282.57 101.582 281.882 100.344 284.083C99.1064 286.284 102.27 290.548 107.566 293.574C112.793 296.6 118.089 297.288 119.326 295.087C120.564 292.886 117.332 288.622 112.105 285.596Z" fill="url(#paint0_linear_2216_768)" stroke="#251725" stroke-miterlimit="10" stroke-linecap="round" stroke-linejoin="round"/>
<mask id="mask0_2216_768" style="mask-type:alpha" maskUnits="userSpaceOnUse" x="97" y="283" width="23" height="17">
<path d="M100.275 284.083L98.4873 287.178C97.2493 289.379 100.413 293.643 105.709 296.669C110.936 299.695 116.232 300.383 117.538 298.182L119.326 295.087C118.088 297.288 112.793 296.6 107.497 293.574C102.27 290.548 99.0375 286.284 100.275 284.083Z" fill="#D9D9D9" stroke="#251725" stroke-miterlimit="10" stroke-linecap="round" stroke-linejoin="round"/>
</mask>
<g mask="url(#mask0_2216_768)">
<path d="M112.655 302.996L118.02 293.643" stroke="#251725" stroke-miterlimit="10" stroke-linecap="round" stroke-linejoin="round"/>
<path d="M109.423 301.139L114.787 291.717" stroke="#251725" stroke-miterlimit="10" stroke-linecap="round" stroke-linejoin="round"/>
<path d="M106.19 299.282L111.555 289.86" stroke="#251725" stroke-miterlimit="10" stroke-linecap="round" stroke-linejoin="round"/>
<path d="M102.958 297.425L108.322 288.003" stroke="#251725" stroke-miterlimit="10" stroke-linecap="round" stroke-linejoin="round"/>
<path d="M99.7253 295.569L105.09 286.146" stroke="#251725" stroke-miterlimit="10" stroke-linecap="round" stroke-linejoin="round"/>
<path d="M96.4929 293.643L101.857 284.289" stroke="#251725" stroke-miterlimit="10" stroke-linecap="round" stroke-linejoin="round"/>
<path d="M100.275 284.083L98.4873 287.178C97.2493 289.379 100.413 293.643 105.709 296.669C110.936 299.695 116.232 300.383 117.538 298.182L119.326 295.087C118.088 297.288 112.793 296.6 107.497 293.574C102.27 290.548 99.0375 286.284 100.275 284.083Z" stroke="#251725" stroke-miterlimit="10" stroke-linecap="round" stroke-linejoin="round"/>
</g>
<path d="M107.153 288.622C107.497 288.622 107.841 288.76 108.116 288.966C108.529 289.172 108.941 289.241 109.148 289.104L109.285 289.035C109.56 288.966 109.56 288.691 109.423 288.416L109.354 288.278C109.217 288.003 108.941 287.659 108.529 287.522C108.047 287.247 107.635 286.834 107.566 286.49C107.497 286.146 107.772 286.009 108.185 286.009C108.873 286.078 109.698 286.628 109.973 287.109C110.179 287.384 110.111 287.659 109.836 287.728C109.629 287.797 109.56 288.003 109.698 288.278L109.767 288.485C109.904 288.76 110.248 289.104 110.661 289.31L110.867 289.448C111.28 289.654 111.692 289.791 111.899 289.654C112.036 289.585 112.311 289.585 112.655 289.654C113.206 289.791 113.893 290.273 114.306 290.754C115.131 291.717 114.994 292.474 113.962 292.199C113.412 292.061 112.724 291.58 112.243 291.029C112.105 290.892 111.968 290.754 111.899 290.617C111.692 290.273 111.349 289.929 110.936 289.723L110.661 289.585C110.248 289.379 109.836 289.31 109.629 289.379L109.492 289.448C109.217 289.585 109.148 289.86 109.285 290.204C109.354 290.342 109.354 290.479 109.354 290.617C109.354 291.098 109.01 291.442 108.391 291.373C107.291 291.305 106.122 290.273 106.053 289.31C106.19 288.897 106.603 288.622 107.153 288.622Z" fill="#251725"/>
<path d="M61.1589 97.3201L58.339 98.9707C56.3445 100.14 56.9635 104.954 59.7146 109.769C62.4656 114.583 66.3858 117.54 68.3803 116.371L71.2002 114.72C69.2057 115.89 65.2854 112.932 62.5344 108.118C59.7833 103.304 59.1644 98.4205 61.1589 97.3201Z" fill="#8055BB" stroke="#251725" stroke-miterlimit="10" stroke-linecap="round" stroke-linejoin="round"/>
<path d="M69.8935 103.854C67.1425 99.0396 63.2222 96.0822 61.2277 97.2514C59.2332 98.4206 59.8522 103.235 62.6032 108.049C65.3543 112.864 69.2745 115.821 71.269 114.652C73.2635 113.551 72.6445 108.668 69.8935 103.854Z" fill="#DF87F1" stroke="#251725" stroke-miterlimit="10" stroke-linecap="round" stroke-linejoin="round"/>
<mask id="mask1_2216_768" style="mask-type:alpha" maskUnits="userSpaceOnUse" x="56" y="96" width="16" height="22">
<path d="M61.1589 97.3201L58.339 98.9707C56.3445 100.14 56.9635 104.954 59.7146 109.769C62.4656 114.583 66.3858 117.54 68.3803 116.371L71.2002 114.72C69.2057 115.89 65.2854 112.932 62.5344 108.118C59.7833 103.304 59.1644 98.4205 61.1589 97.3201Z" fill="#D9D9D9" stroke="#251725" stroke-miterlimit="10" stroke-linecap="round" stroke-linejoin="round"/>
</mask>
<g mask="url(#mask1_2216_768)">
<path d="M62.3279 117.953L70.9249 113.001" stroke="#251725" stroke-miterlimit="10" stroke-linecap="round" stroke-linejoin="round"/>
<path d="M60.1958 114.239L68.7928 109.287" stroke="#251725" stroke-miterlimit="10" stroke-linecap="round" stroke-linejoin="round"/>
<path d="M57.9951 110.525L66.6609 105.573" stroke="#251725" stroke-miterlimit="10" stroke-linecap="round" stroke-linejoin="round"/>
<path d="M55.863 106.811L64.46 101.859" stroke="#251725" stroke-miterlimit="10" stroke-linecap="round" stroke-linejoin="round"/>
<path d="M53.731 103.097L62.328 98.1455" stroke="#251725" stroke-miterlimit="10" stroke-linecap="round" stroke-linejoin="round"/>
</g>
<path d="M61.1589 97.3201L58.339 98.9707C56.3445 100.14 56.9635 104.954 59.7146 109.769C62.4656 114.583 66.3858 117.54 68.3803 116.371L71.2002 114.72C69.2057 115.89 65.2854 112.932 62.5344 108.118C59.7833 103.304 59.1644 98.4205 61.1589 97.3201Z" stroke="#251725" stroke-miterlimit="10" stroke-linecap="round" stroke-linejoin="round"/>
<path d="M67.8302 107.637L67.2112 105.436L67.8302 104.61L67.4175 104.129L66.9361 104.61L66.042 101.653L64.6665 102.753L65.5605 106.124L64.3914 107.43L65.0791 108.118L65.8357 107.155L66.661 110.456L70.2373 106.742L69.8934 105.642L67.8302 107.637Z" fill="#251725"/>
<path d="M215.553 76.6213L214.246 78.8909C213.283 80.5416 215.69 83.6365 219.542 85.8373C223.393 88.0381 227.313 88.5884 228.208 86.9377L229.514 84.6681C228.551 86.3187 224.7 85.7685 220.849 83.5677C216.997 81.3669 214.59 78.272 215.553 76.6213Z" fill="#DF87F1" stroke="#251725" stroke-miterlimit="10" stroke-linecap="round" stroke-linejoin="round"/>
<path d="M224.219 77.7218C220.367 75.521 216.447 74.9707 215.553 76.6214C214.59 78.272 216.997 81.3669 220.849 83.5677C224.7 85.7686 228.62 86.3188 229.514 84.6681C230.477 83.0863 228.07 79.9914 224.219 77.7218Z" fill="url(#paint1_linear_2216_768)" stroke="#251725" stroke-miterlimit="10" stroke-linecap="round" stroke-linejoin="round"/>
<mask id="mask2_2216_768" style="mask-type:alpha" maskUnits="userSpaceOnUse" x="213" y="76" width="18" height="13">
<path d="M215.553 76.6213L214.246 78.8909C213.283 80.5416 215.69 83.6365 219.542 85.8373C223.393 88.0381 227.313 88.5884 228.208 86.9377L229.514 84.6681C228.551 86.3187 224.7 85.7685 220.849 83.5677C216.997 81.3669 214.59 78.272 215.553 76.6213Z" fill="#D9D9D9" stroke="#251725" stroke-miterlimit="10" stroke-linecap="round" stroke-linejoin="round"/>
</mask>
<g mask="url(#mask2_2216_768)">
<path d="M224.631 90.5141L228.62 83.6365" stroke="#251725" stroke-miterlimit="10" stroke-linecap="round" stroke-linejoin="round"/>
<path d="M220.642 88.2443L224.631 81.3667" stroke="#251725" stroke-miterlimit="10" stroke-linecap="round" stroke-linejoin="round"/>
<path d="M216.653 85.9747L220.642 79.0283" stroke="#251725" stroke-miterlimit="10" stroke-linecap="round" stroke-linejoin="round"/>
<path d="M212.733 83.7052L216.722 76.7588" stroke="#251725" stroke-miterlimit="10" stroke-linecap="round" stroke-linejoin="round"/>
</g>
<path d="M215.553 76.6213L214.246 78.8909C213.283 80.5416 215.69 83.6365 219.542 85.8373C223.393 88.0381 227.313 88.5884 228.208 86.9377L229.514 84.6681C228.551 86.3187 224.7 85.7685 220.849 83.5677C216.997 81.3669 214.59 78.272 215.553 76.6213Z" stroke="#251725" stroke-miterlimit="10" stroke-linecap="round" stroke-linejoin="round"/>
<path d="M220.505 78.5471C220.505 78.5471 219.679 79.1661 220.436 80.0602C221.261 81.0231 222.155 81.642 221.811 82.7425C221.811 82.7425 222.499 82.4673 222.43 81.642C222.293 80.9543 221.192 79.9914 220.917 79.5788C220.367 79.0286 220.505 78.5471 220.505 78.5471Z" fill="#251725"/>
<path d="M223.806 78.5471C223.806 78.5471 222.981 79.1661 223.875 80.0602C224.769 81.0231 225.732 81.5733 225.525 82.6737C225.525 82.6737 226.213 82.3986 226.007 81.5733C225.8 80.8855 224.631 79.9226 224.287 79.51C223.737 79.0285 223.806 78.5471 223.806 78.5471Z" fill="#251725"/>
<path d="M221.811 77.9282C221.811 77.9282 220.78 78.6848 221.743 79.7852C222.774 80.9544 224.012 81.7797 223.668 83.1552C223.668 83.1552 224.562 82.7425 224.356 81.7797C224.15 80.8856 222.705 79.7164 222.293 79.235C221.743 78.5472 221.811 77.9282 221.811 77.9282Z" fill="#251725"/>
<path d="M431.26 194.414L432.414 197.379C433.27 199.499 429.808 202.781 424.789 204.774C419.77 206.766 415.029 206.618 414.174 204.497L413.019 201.532C413.875 203.652 418.598 203.734 423.635 201.808C428.654 199.816 432.115 196.534 431.26 194.414Z" fill="#DF87F1" stroke="#251725" stroke-miterlimit="10" stroke-linecap="round" stroke-linejoin="round"/>
<path d="M420.644 194.138C425.663 192.145 430.404 192.294 431.26 194.414C432.115 196.534 428.654 199.816 423.635 201.808C418.616 203.8 413.875 203.652 413.019 201.532C412.23 199.394 415.625 196.13 420.644 194.138Z" fill="url(#paint2_linear_2216_768)" stroke="#251725" stroke-miterlimit="10" stroke-linecap="round" stroke-linejoin="round"/>
<mask id="mask3_2216_768" style="mask-type:alpha" maskUnits="userSpaceOnUse" x="412" y="193" width="22" height="14">
<path d="M431.26 194.414L432.414 197.379C433.27 199.499 429.808 202.781 424.789 204.774C419.77 206.766 415.029 206.618 414.174 204.497L413.019 201.532C413.875 203.652 418.598 203.734 423.635 201.808C428.654 199.816 432.115 196.534 431.26 194.414Z" fill="#D9D9D9" stroke="#251725" stroke-miterlimit="10" stroke-linecap="round" stroke-linejoin="round"/>
</mask>
<g mask="url(#mask3_2216_768)">
<path d="M417.849 209.42L414.35 200.39" stroke="#251725" stroke-miterlimit="10" stroke-linecap="round" stroke-linejoin="round"/>
<path d="M421.727 207.949L418.228 198.919" stroke="#251725" stroke-miterlimit="10" stroke-linecap="round" stroke-linejoin="round"/>
<path d="M425.586 206.411L422.087 197.382" stroke="#251725" stroke-miterlimit="10" stroke-linecap="round" stroke-linejoin="round"/>
<path d="M429.512 204.856L425.964 195.91" stroke="#251725" stroke-miterlimit="10" stroke-linecap="round" stroke-linejoin="round"/>
<path d="M433.39 203.385L429.824 194.373" stroke="#251725" stroke-miterlimit="10" stroke-linecap="round" stroke-linejoin="round"/>
</g>
<path d="M431.26 194.414L432.414 197.379C433.27 199.499 429.808 202.781 424.789 204.774C419.77 206.766 415.029 206.618 414.174 204.497L413.019 201.532C413.875 203.652 418.598 203.734 423.635 201.808C428.654 199.816 432.115 196.534 431.26 194.414Z" stroke="#251725" stroke-miterlimit="10" stroke-linecap="round" stroke-linejoin="round"/>
<path d="M424.636 198.12C424.631 197.836 424.577 197.637 424.391 197.473C424.205 197.31 423.903 197.249 423.487 197.29C423.801 197.134 424.115 196.978 424.327 196.707C424.557 196.503 424.703 196.25 424.698 195.966C424.741 195.599 424.621 195.417 424.235 195.307C424 195.228 423.717 195.233 423.318 195.341L423.374 194.756L422.644 194.952L422.57 195.471L421.773 195.685L421.847 195.167L421.116 195.364L420.976 195.9L419.98 196.168L418.848 200.96L420.044 200.638L419.921 201.241L420.718 201.026L420.84 200.424L421.77 200.173L421.648 200.776L422.445 200.562L422.549 199.892C423.063 199.683 423.443 199.509 423.788 199.203C424.35 198.909 424.526 198.505 424.636 198.12ZM423.091 196.613C423.03 196.914 422.733 197.136 422.202 197.279L421.206 197.547L421.372 196.577L422.302 196.327C422.917 196.232 423.152 196.311 423.091 196.613ZM422.003 199.185L420.874 199.489L421.07 198.367L422.199 198.063C422.465 197.992 422.682 198.005 422.833 198.035C422.984 198.066 423.019 198.199 422.989 198.35C422.945 198.717 422.6 199.024 422.003 199.185Z" fill="#251725"/>
<path d="M188.592 113.149C192.58 105.849 181.732 92.2403 164.363 82.7546C146.995 73.2688 129.682 71.4976 125.695 78.7984C121.707 86.0993 132.555 99.7076 149.924 109.193C167.293 118.679 184.605 120.45 188.592 113.149Z" fill="url(#paint3_linear_2216_768)" stroke="#251725" stroke-miterlimit="10" stroke-linecap="round" stroke-linejoin="round"/>
<path d="M185.223 109.749C188.336 104.048 178.591 92.7259 163.455 84.46C148.32 76.1941 133.527 74.1146 130.414 79.8152C127.3 85.5159 137.046 96.838 152.181 105.104C167.316 113.37 182.109 115.449 185.223 109.749Z" fill="url(#paint4_linear_2216_768)" stroke="#251725" stroke-miterlimit="10" stroke-linecap="round" stroke-linejoin="round"/>
<path d="M136.374 89.3211C134.741 87.3209 133.653 85.407 133.222 83.7368L136.374 89.3211Z" fill="#A499CE"/>
<path d="M136.374 89.3211C134.741 87.3209 133.653 85.407 133.222 83.7368" stroke="#251725" stroke-miterlimit="10" stroke-linecap="round" stroke-linejoin="round"/>
<path d="M140.078 93.1825C139.531 92.6778 138.996 92.1052 138.449 91.6006L140.078 93.1825Z" fill="#A499CE"/>
<path d="M140.078 93.1825C139.531 92.6778 138.996 92.1052 138.449 91.6006" stroke="#251725" stroke-miterlimit="10" stroke-linecap="round" stroke-linejoin="round"/>
<path d="M140.611 84.5626L150.505 96.371L159.902 95.0783L155.902 86.5041L140.611 84.5626Z" fill="#251725"/>
<path d="M163.615 97.1305L154.092 98.3336L176.684 104.29L159.49 88.4667L163.615 97.1305Z" fill="#251725"/>
<path d="M188.647 113.154L184.721 120.33C180.706 127.631 163.438 125.863 146.077 116.35C128.716 106.837 117.849 93.2726 121.796 85.9608L125.721 78.7849C121.706 86.0859 132.574 99.6508 150.003 109.174C167.296 118.676 184.632 120.455 188.647 113.154Z" fill="url(#paint5_linear_2216_768)"/>
<mask id="mask4_2216_768" style="mask-type:alpha" maskUnits="userSpaceOnUse" x="120" y="78" width="70" height="48">
<path d="M188.647 113.154L184.721 120.33C180.706 127.631 163.438 125.863 146.077 116.35C128.716 106.837 117.849 93.2726 121.796 85.9608L125.721 78.7849C121.706 86.0859 132.574 99.6508 150.003 109.174C167.296 118.676 184.632 120.455 188.647 113.154Z" fill="#D9D9D9" stroke="#251725" stroke-miterlimit="10" stroke-linecap="round" stroke-linejoin="round"/>
</mask>
<g mask="url(#mask4_2216_768)">
<path d="M114.908 110.911L131.892 79.8347" stroke="#251725" stroke-miterlimit="10" stroke-linecap="round" stroke-linejoin="round"/>
<path d="M125.604 116.789L142.599 85.644" stroke="#251725" stroke-miterlimit="10" stroke-linecap="round" stroke-linejoin="round"/>
<path d="M136.31 122.598L153.294 91.5215" stroke="#251725" stroke-miterlimit="10" stroke-linecap="round" stroke-linejoin="round"/>
<path d="M147.006 128.476L164.001 97.331" stroke="#251725" stroke-miterlimit="10" stroke-linecap="round" stroke-linejoin="round"/>
<path d="M157.713 134.285L174.697 103.208" stroke="#251725" stroke-miterlimit="10" stroke-linecap="round" stroke-linejoin="round"/>
<path d="M168.477 140.173L185.472 109.029" stroke="#251725" stroke-miterlimit="10" stroke-linecap="round" stroke-linejoin="round"/>
</g>
<path d="M188.647 113.154L184.721 120.33C180.706 127.631 163.438 125.863 146.077 116.35C128.716 106.837 117.849 93.2726 121.796 85.9608L125.721 78.7849C121.706 86.0859 132.574 99.6508 150.003 109.174C167.296 118.676 184.632 120.455 188.647 113.154Z" stroke="#251725" stroke-miterlimit="10" stroke-linecap="round" stroke-linejoin="round"/>
<path d="M299.347 384.581L235.183 380.051L287.644 286.136L347.374 256.099L434.276 305.109L299.347 384.581Z" fill="#8055BB"/>
<path d="M378.381 132.334L378.051 296.847L235.197 379.848L235.527 215.334L378.381 132.334Z" fill="#251725" stroke="#251725" stroke-miterlimit="10" stroke-linecap="round" stroke-linejoin="round"/>
<path d="M235.527 215.334L235.197 379.848L164.101 338.678L152.031 331.734L152.361 167.386L235.527 215.334Z" fill="url(#paint6_linear_2216_768)" stroke="#251725" stroke-miterlimit="10" stroke-linecap="round" stroke-linejoin="round"/>
<path d="M378.381 132.334L235.527 215.334L152.361 167.386L295.215 84.385L378.381 132.334Z" fill="#FBFBFF" stroke="#251725" stroke-miterlimit="10" stroke-linecap="round" stroke-linejoin="round"/>
<path d="M295.215 90.0066L368.461 132.334L365.154 134.483L295.05 93.9747L295.215 90.0066Z" fill="url(#paint7_linear_2216_768)" stroke="#251725" stroke-miterlimit="10" stroke-linecap="round" stroke-linejoin="round"/>
<path d="M295.05 93.9747L165.589 169.204L162.282 167.386L295.215 90.0066L295.05 93.9747Z" fill="url(#paint8_linear_2216_768)" stroke="#251725" stroke-miterlimit="10" stroke-linecap="round" stroke-linejoin="round"/>
<path d="M165.589 169.205L235.527 209.713L365.154 134.483L295.05 93.9749L165.589 169.205Z" fill="#EBEDFD"/>
<path d="M165.589 169.205L235.527 209.713L365.154 134.483L295.05 93.9749L165.589 169.205Z" fill="url(#paint9_linear_2216_768)"/>
<path d="M165.589 169.205L235.527 209.713L365.154 134.483L295.05 93.9749L165.589 169.205Z" stroke="#251725" stroke-miterlimit="10" stroke-linecap="round" stroke-linejoin="round"/>
<path d="M312.576 143.908L323.323 137.79L323.158 131.342H326.63L333.078 137.79L322.331 143.908H312.576Z" fill="#A499CE"/>
<path d="M301.664 127.87V137.625L312.576 143.908L312.411 134.153L301.664 127.87Z" fill="#FBFBFF" stroke="#251725" stroke-miterlimit="10" stroke-linecap="round" stroke-linejoin="round"/>
<path d="M312.411 134.152L312.576 143.908L323.323 137.79L323.158 128.035L312.411 134.152Z" fill="url(#paint10_linear_2216_768)" stroke="#251725" stroke-miterlimit="10" stroke-linecap="round" stroke-linejoin="round"/>
<path d="M301.664 127.87L312.411 134.153L323.158 128.035L312.411 121.587L301.664 127.87Z" fill="#FBFBFF" stroke="#251725" stroke-miterlimit="10" stroke-linecap="round" stroke-linejoin="round"/>
<path d="M314.229 136.137L319.024 133.491L321.504 132.003" stroke="#251725" stroke-miterlimit="10" stroke-linecap="round" stroke-linejoin="round"/>
<path d="M314.229 139.444L319.024 136.633L321.504 135.31" stroke="#251725" stroke-miterlimit="10" stroke-linecap="round" stroke-linejoin="round"/>
<path d="M310.757 136.137L305.797 133.491L303.482 132.003" stroke="#8055BB" stroke-miterlimit="10" stroke-linecap="round" stroke-linejoin="round"/>
<path d="M310.757 139.444L305.797 136.633L303.482 135.31" stroke="#8055BB" stroke-miterlimit="10" stroke-linecap="round" stroke-linejoin="round"/>
<path d="M282.98 126.547L293.727 120.264V113.981L297.034 113.816L303.482 120.264L292.735 126.547H282.98Z" fill="#A499CE"/>
<path d="M272.068 110.344L272.233 120.099L282.98 126.547V116.626L272.068 110.344Z" fill="#FBFBFF" stroke="#251725" stroke-miterlimit="10" stroke-linecap="round" stroke-linejoin="round"/>
<path d="M282.98 116.627V126.547L293.727 120.264V110.509L282.98 116.627Z" fill="url(#paint11_linear_2216_768)" stroke="#251725" stroke-miterlimit="10" stroke-linecap="round" stroke-linejoin="round"/>
<path d="M272.068 110.343L282.98 116.626L293.727 110.509L282.815 104.061L272.068 110.343Z" fill="#FBFBFF" stroke="#251725" stroke-miterlimit="10" stroke-linecap="round" stroke-linejoin="round"/>
<path d="M284.799 118.776L289.594 115.965L291.908 114.642" stroke="#251725" stroke-miterlimit="10" stroke-linecap="round" stroke-linejoin="round"/>
<path d="M284.799 121.917L289.594 119.107L291.908 117.784" stroke="#251725" stroke-miterlimit="10" stroke-linecap="round" stroke-linejoin="round"/>
<path d="M281.161 118.776L276.367 115.965L274.052 114.642" stroke="#8055BB" stroke-miterlimit="10" stroke-linecap="round" stroke-linejoin="round"/>
<path d="M281.161 121.917L276.367 119.107L274.052 117.784" stroke="#8055BB" stroke-miterlimit="10" stroke-linecap="round" stroke-linejoin="round"/>
<path d="M274.879 165.732L285.626 159.615L285.46 153.167H288.932L295.381 159.615L284.634 165.732H274.879Z" fill="#A499CE"/>
<path d="M263.966 149.529V159.449L274.879 165.732L274.713 155.977L263.966 149.529Z" fill="#FBFBFF" stroke="#251725" stroke-miterlimit="10" stroke-linecap="round" stroke-linejoin="round"/>
<path d="M274.713 155.977L274.879 165.732L285.626 159.615L285.46 149.694L274.713 155.977Z" fill="url(#paint12_linear_2216_768)" stroke="#251725" stroke-miterlimit="10" stroke-linecap="round" stroke-linejoin="round"/>
<path d="M263.966 149.529L274.713 155.977L285.46 149.695L274.713 143.412L263.966 149.529Z" fill="#FBFBFF" stroke="#251725" stroke-miterlimit="10" stroke-linecap="round" stroke-linejoin="round"/>
<path d="M276.532 157.962L281.327 155.151L283.641 153.828" stroke="#251725" stroke-miterlimit="10" stroke-linecap="round" stroke-linejoin="round"/>
<path d="M276.532 161.103L281.327 158.457L283.641 157.135" stroke="#251725" stroke-miterlimit="10" stroke-linecap="round" stroke-linejoin="round"/>
<path d="M272.894 157.962L268.1 155.151L265.785 153.828" stroke="#8055BB" stroke-miterlimit="10" stroke-linecap="round" stroke-linejoin="round"/>
<path d="M272.894 161.103L268.1 158.457L265.785 157.135" stroke="#8055BB" stroke-miterlimit="10" stroke-linecap="round" stroke-linejoin="round"/>
<path d="M245.283 148.206L256.03 142.089V135.641H259.337L265.785 142.089L255.038 148.206H245.283Z" fill="#A499CE"/>
<path d="M234.37 132.003L234.536 141.924L245.283 148.206V138.451L234.37 132.003Z" fill="#FBFBFF" stroke="#251725" stroke-miterlimit="10" stroke-linecap="round" stroke-linejoin="round"/>
<path d="M245.283 138.451V148.206L256.03 142.089V132.168L245.283 138.451Z" fill="url(#paint13_linear_2216_768)" stroke="#251725" stroke-miterlimit="10" stroke-linecap="round" stroke-linejoin="round"/>
<path d="M234.37 132.003L245.283 138.451L256.03 132.168L245.117 125.885L234.37 132.003Z" fill="#FBFBFF" stroke="#251725" stroke-miterlimit="10" stroke-linecap="round" stroke-linejoin="round"/>
<path d="M247.101 140.436L251.896 137.625L254.211 136.302" stroke="#251725" stroke-miterlimit="10" stroke-linecap="round" stroke-linejoin="round"/>
<path d="M247.101 143.742L251.896 140.932L254.211 139.609" stroke="#251725" stroke-miterlimit="10" stroke-linecap="round" stroke-linejoin="round"/>
<path d="M243.464 140.436L238.669 137.625L236.354 136.302" stroke="#8055BB" stroke-miterlimit="10" stroke-linecap="round" stroke-linejoin="round"/>
<path d="M243.464 143.742L238.669 140.932L236.354 139.609" stroke="#8055BB" stroke-miterlimit="10" stroke-linecap="round" stroke-linejoin="round"/>
<path d="M237.181 187.557L247.928 181.274L247.763 174.991H251.235L257.683 181.44L246.936 187.557H237.181Z" fill="#A499CE"/>
<path d="M226.269 171.354V181.274L237.181 187.557L237.016 177.637L226.269 171.354Z" fill="#FBFBFF" stroke="#251725" stroke-miterlimit="10" stroke-linecap="round" stroke-linejoin="round"/>
<path d="M237.016 177.637L237.181 187.557L247.928 181.274L247.763 171.519L237.016 177.637Z" fill="url(#paint14_linear_2216_768)" stroke="#251725" stroke-miterlimit="10" stroke-linecap="round" stroke-linejoin="round"/>
<path d="M226.269 171.354L237.016 177.637L247.763 171.519L237.016 165.236L226.269 171.354Z" fill="#FBFBFF" stroke="#251725" stroke-miterlimit="10" stroke-linecap="round" stroke-linejoin="round"/>
<path d="M238.834 179.786L243.629 176.975L245.944 175.653" stroke="#251725" stroke-miterlimit="10" stroke-linecap="round" stroke-linejoin="round"/>
<path d="M238.834 182.927L243.629 180.117L245.944 178.794" stroke="#251725" stroke-miterlimit="10" stroke-linecap="round" stroke-linejoin="round"/>
<path d="M235.197 179.786L230.402 176.975L228.087 175.653" stroke="#8055BB" stroke-miterlimit="10" stroke-linecap="round" stroke-linejoin="round"/>
<path d="M235.197 182.927L230.402 180.117L228.087 178.794" stroke="#8055BB" stroke-miterlimit="10" stroke-linecap="round" stroke-linejoin="round"/>
<path d="M207.585 170.031L218.332 163.914V157.466H221.639L228.087 163.914L217.34 170.031H207.585Z" fill="#A499CE"/>
<path d="M196.673 153.828L196.838 163.749L207.585 170.031V160.276L196.673 153.828Z" fill="#FBFBFF" stroke="#251725" stroke-miterlimit="10" stroke-linecap="round" stroke-linejoin="round"/>
<path d="M207.585 160.276V170.031L218.332 163.914V153.993L207.585 160.276Z" fill="url(#paint15_linear_2216_768)" stroke="#251725" stroke-miterlimit="10" stroke-linecap="round" stroke-linejoin="round"/>
<path d="M196.673 153.828L207.585 160.276L218.332 153.993L207.42 147.71L196.673 153.828Z" fill="#FBFBFF" stroke="#251725" stroke-miterlimit="10" stroke-linecap="round" stroke-linejoin="round"/>
<path d="M209.404 162.26L214.199 159.45L216.513 158.127" stroke="#251725" stroke-miterlimit="10" stroke-linecap="round" stroke-linejoin="round"/>
<path d="M209.404 165.402L214.199 162.757L216.513 161.434" stroke="#251725" stroke-miterlimit="10" stroke-linecap="round" stroke-linejoin="round"/>
<path d="M205.766 162.26L200.971 159.45L198.657 158.127" stroke="#8055BB" stroke-miterlimit="10" stroke-linecap="round" stroke-linejoin="round"/>
<path d="M205.766 165.402L200.971 162.757L198.657 161.434" stroke="#8055BB" stroke-miterlimit="10" stroke-linecap="round" stroke-linejoin="round"/>
<path d="M367.469 147.876V161.268L373.586 157.796V144.404L367.469 147.876Z" fill="#8055BB"/>
<path d="M359.367 152.671V165.898L365.485 162.426V149.033L359.367 152.671Z" fill="#DF87F1"/>
<path d="M351.265 157.3V170.693L357.383 167.055V153.663L351.265 157.3Z" fill="#8055BB"/>
<path d="M340.684 163.583V176.976L346.801 173.338V159.946L340.684 163.583Z" fill="#8055BB"/>
<path d="M332.582 168.213V181.605L338.7 177.968V164.74L332.582 168.213Z" fill="#8055BB"/>
<path d="M324.48 172.842V186.235L330.598 182.762V169.37L324.48 172.842Z" fill="#8055BB"/>
<path d="M313.733 179.29L313.899 192.683L320.016 189.045V175.653L313.733 179.29Z" fill="#8055BB"/>
<path d="M305.632 183.92L305.797 197.312L311.915 193.675V180.282L305.632 183.92Z" fill="#DF87F1"/>
<path d="M297.53 188.549L297.695 201.942L303.813 198.304V184.912L297.53 188.549Z" fill="#8055BB"/>
<path d="M367.469 172.181V185.573L373.586 181.936V168.708L367.469 172.181Z" fill="#8055BB"/>
<path d="M359.367 176.81V190.203L365.485 186.73V173.338L359.367 176.81Z" fill="#8055BB"/>
<path d="M351.265 181.44V194.832L357.383 191.36V177.968L351.265 181.44Z" fill="#8055BB"/>
<path d="M340.684 187.888V201.28L346.801 197.643V184.25L340.684 187.888Z" fill="#8055BB"/>
<path d="M332.582 192.517V205.91L338.7 202.272V188.88L332.582 192.517Z" fill="#DF87F1"/>
<path d="M324.48 197.147V210.54L330.598 206.902V193.51L324.48 197.147Z" fill="#8055BB"/>
<path d="M313.733 203.595L313.899 216.988L320.016 213.35V199.958L313.733 203.595Z" fill="#8055BB"/>
<path d="M305.632 208.225L305.797 221.617L311.915 217.98V204.587L305.632 208.225Z" fill="#8055BB"/>
<path d="M297.53 212.854L297.695 226.247L303.813 222.609V209.217L297.53 212.854Z" fill="#8055BB"/>
<path d="M367.469 196.486V209.878L373.586 206.241V192.848L367.469 196.486Z" fill="#8055BB"/>
<path d="M359.367 201.115V214.508L365.485 210.87V197.643L359.367 201.115Z" fill="#8055BB"/>
<path d="M351.265 205.745V219.137L357.383 215.665V202.272L351.265 205.745Z" fill="#8055BB"/>
<path d="M340.684 212.193V225.585L346.801 221.948V208.555L340.684 212.193Z" fill="#8055BB"/>
<path d="M332.582 216.823V230.215L338.7 226.578V213.185L332.582 216.823Z" fill="#8055BB"/>
<path d="M324.48 221.452V234.845L330.598 231.207V217.814L324.48 221.452Z" fill="#8055BB"/>
<path d="M313.733 227.9L313.899 241.293L320.016 237.655V224.263L313.733 227.9Z" fill="#8055BB"/>
<path d="M305.632 232.53L305.797 245.922L311.915 242.285V228.892L305.632 232.53Z" fill="#8055BB"/>
<path d="M297.53 237.159L297.695 250.552L303.813 246.914V233.522L297.53 237.159Z" fill="#8055BB"/>
<path d="M367.469 230.711V244.104L373.586 240.632V227.239L367.469 230.711Z" fill="#8055BB"/>
<path d="M359.367 235.506V248.733L365.485 245.261V231.868L359.367 235.506Z" fill="#8055BB"/>
<path d="M351.265 240.135V253.528L357.383 249.891V236.498L351.265 240.135Z" fill="#8055BB"/>
<path d="M340.684 246.419V259.811L346.801 256.174V242.781L340.684 246.419Z" fill="#8055BB"/>
<path d="M332.582 251.048V264.441L338.699 260.803V247.576L332.582 251.048Z" fill="#DF87F1"/>
<path d="M324.48 255.677V269.07L330.598 265.598V252.205L324.48 255.677Z" fill="#8055BB"/>
<path d="M313.733 262.126L313.899 275.518L320.016 271.881V258.488L313.733 262.126Z" fill="#DF87F1"/>
<path d="M305.631 266.755L305.797 280.148L311.914 276.51V263.118L305.631 266.755Z" fill="#8055BB"/>
<path d="M297.53 271.385L297.695 284.777L303.813 281.14V267.747L297.53 271.385Z" fill="#8055BB"/>
<path d="M367.469 255.016V268.409L373.586 264.771V251.544L367.469 255.016Z" fill="#8055BB"/>
<path d="M359.367 259.645V273.038L365.485 269.566V256.173L359.367 259.645Z" fill="#8055BB"/>
<path d="M351.265 264.275V277.668L357.383 274.196V260.803L351.265 264.275Z" fill="#8055BB"/>
<path d="M340.684 270.723V284.116L346.801 280.478V267.086L340.684 270.723Z" fill="#8055BB"/>
<path d="M332.582 275.353V288.745L338.699 285.108V271.715L332.582 275.353Z" fill="#8055BB"/>
<path d="M324.48 279.982V293.375L330.598 289.737V276.345L324.48 279.982Z" fill="#8055BB"/>
<path d="M313.733 286.431L313.899 299.823L320.016 296.186V282.793L313.733 286.431Z" fill="#8055BB"/>
<path d="M305.631 291.06L305.797 304.453L311.914 300.815V287.423L305.631 291.06Z" fill="#8055BB"/>
<path d="M297.53 295.69L297.695 309.082L303.813 305.445V292.052L297.53 295.69Z" fill="#8055BB"/>
<path d="M367.469 279.321V292.714L373.586 289.076V275.684L367.469 279.321Z" fill="#DF87F1"/>
<path d="M359.367 283.951V297.343L365.485 293.706V280.479L359.367 283.951Z" fill="#8055BB"/>
<path d="M351.265 288.58V301.973L357.383 298.5V285.108L351.265 288.58Z" fill="#8055BB"/>
<path d="M340.684 295.028V308.421L346.801 304.783V291.391L340.684 295.028Z" fill="#8055BB"/>
<path d="M332.582 299.658V313.05L338.699 309.413V296.02L332.582 299.658Z" fill="#DF87F1"/>
<path d="M324.48 304.287V317.68L330.598 314.042V300.65L324.48 304.287Z" fill="#8055BB"/>
<path d="M313.733 310.736L313.899 324.128L320.016 320.491V307.098L313.733 310.736Z" fill="#8055BB"/>
<path d="M305.631 315.365L305.797 328.758L311.914 325.12V311.728L305.631 315.365Z" fill="#8055BB"/>
<path d="M297.53 319.995L297.695 333.387L303.813 329.75V316.357L297.53 319.995Z" fill="#8055BB"/>
<path d="M179.312 203.76V217.153L173.029 213.516V200.123L179.312 203.76Z" fill="#DF87F1"/>
<path d="M187.414 208.39V221.782L181.131 218.145V204.752L187.414 208.39Z" fill="#251725"/>
<path d="M195.515 213.02V226.412L189.232 222.94V209.547L195.515 213.02Z" fill="#DF87F1"/>
<path d="M203.617 217.649V231.042L197.334 227.57V214.177L203.617 217.649Z" fill="#251725"/>
<path d="M211.719 222.279V235.671L205.436 232.199V218.806L211.719 222.279Z" fill="#DF87F1"/>
<path d="M179.312 220.129V233.522L173.029 229.884V216.492L179.312 220.129Z" fill="#DF87F1"/>
<path d="M187.414 224.759V238.151L181.131 234.679V221.287L187.414 224.759Z" fill="#DF87F1"/>
<path d="M195.515 229.388V242.781L189.232 239.309V225.916L195.515 229.388Z" fill="#251725"/>
<path d="M203.617 234.018V247.41L197.334 243.938V230.546L203.617 234.018Z" fill="#DF87F1"/>
<path d="M211.719 238.813V252.205L205.436 248.568V235.175L211.719 238.813Z" fill="#DF87F1"/>
<path d="M179.312 236.498V249.891L173.029 246.418V233.026L179.312 236.498Z" fill="#251725"/>
<path d="M187.414 241.127V254.52L181.131 251.048V237.655L187.414 241.127Z" fill="#DF87F1"/>
<path d="M195.515 245.757V259.15L189.232 255.677V242.285L195.515 245.757Z" fill="#DF87F1"/>
<path d="M203.617 250.552V263.945L197.334 260.307V246.915L203.617 250.552Z" fill="#251725"/>
<path d="M211.719 255.181V268.574L205.436 264.936V251.544L211.719 255.181Z" fill="#DF87F1"/>
<path d="M179.312 252.867V266.259L173.029 262.787V249.395L179.312 252.867Z" fill="#DF87F1"/>
<path d="M187.414 257.661V270.889L181.131 267.416V254.024L187.414 257.661Z" fill="#DF87F1"/>
<path d="M195.515 262.291V275.684L189.232 272.046V258.654L195.515 262.291Z" fill="#DF87F1"/>
<path d="M203.617 266.921V280.313L197.334 276.676V263.283L203.617 266.921Z" fill="#DF87F1"/>
<path d="M211.719 271.55V284.943L205.436 281.305V267.913L211.719 271.55Z" fill="#DF87F1"/>
<path d="M225.276 310.405L225.111 332.23L157.983 293.375L158.148 271.716L225.276 310.405Z" fill="url(#paint16_linear_2216_768)" stroke="#251725" stroke-miterlimit="10" stroke-linecap="round" stroke-linejoin="round"/>
<path d="M253.219 359.511L244.456 364.637V218.972L253.219 213.846V359.511Z" fill="url(#paint17_linear_2216_768)"/>
<path d="M253.219 359.511L244.456 364.637V218.972L253.219 213.846V359.511Z" fill="url(#paint18_linear_2216_768)"/>
<path d="M256.526 211.862L265.454 206.902V352.401L256.691 357.527L256.526 211.862Z" fill="url(#paint19_linear_2216_768)"/>
<path d="M256.526 211.862L265.454 206.902V352.401L256.691 357.527L256.526 211.862Z" fill="url(#paint20_linear_2216_768)"/>
<path d="M268.761 204.918L277.524 199.792V345.457L268.761 350.417V204.918Z" fill="url(#paint21_linear_2216_768)"/>
<path d="M268.761 204.918L277.524 199.792V345.457L268.761 350.417V204.918Z" fill="url(#paint22_linear_2216_768)"/>
<path d="M289.759 338.347L280.996 343.308L280.831 197.808L289.759 192.683V338.347Z" fill="url(#paint23_linear_2216_768)"/>
<path d="M179.973 345.457V347.937L164.1 338.678L166.25 337.521L179.973 345.457Z" fill="#251725"/>
<path d="M166.25 311.893V337.521L164.1 338.678V310.736L166.25 311.893Z" fill="#251725"/>
<path d="M180.138 319.83L179.973 345.457V347.937L164.1 338.678V310.736L166.25 311.893L180.138 319.83Z" stroke="#251725" stroke-miterlimit="10" stroke-linecap="round" stroke-linejoin="round"/>
<path d="M174.021 316.357V342.15" stroke="#251725" stroke-miterlimit="10" stroke-linecap="round" stroke-linejoin="round"/>
<path d="M199.979 357.031V359.511L184.107 350.417L186.256 349.094L199.979 357.031Z" fill="#251725"/>
<path d="M186.256 323.467V349.095L184.107 350.417V322.31L186.256 323.467Z" fill="#251725"/>
<path d="M200.145 331.403L199.979 357.031V359.511L184.107 350.417V322.31L186.256 323.467L200.145 331.403Z" stroke="#251725" stroke-miterlimit="10" stroke-linecap="round" stroke-linejoin="round"/>
<path d="M194.027 327.931V353.724" stroke="#251725" stroke-miterlimit="10" stroke-linecap="round" stroke-linejoin="round"/>
<path d="M220.151 368.605V371.085L204.113 361.991L206.262 360.668L220.151 368.605Z" fill="#251725"/>
<path d="M206.262 335.206V360.668L204.113 361.991V333.883L206.262 335.206Z" fill="#251725"/>
<path d="M220.151 342.977V368.605V371.085L204.113 361.991V333.883L206.262 335.206L220.151 342.977Z" stroke="#251725" stroke-miterlimit="10" stroke-linecap="round" stroke-linejoin="round"/>
<path d="M214.033 339.67V365.463" stroke="#251725" stroke-miterlimit="10" stroke-linecap="round" stroke-linejoin="round"/>
<path d="M262.378 68.8452H256.978L254.211 73.5702L256.978 78.2952H262.378L265.146 73.5702L262.378 68.8452Z" stroke="#A499CE" stroke-miterlimit="10" stroke-linecap="round" stroke-linejoin="round"/>
<path d="M409.743 242.094H404.343L401.575 246.819L404.343 251.544H409.743L412.51 246.819L409.743 242.094Z" stroke="#A499CE" stroke-miterlimit="10" stroke-linecap="round" stroke-linejoin="round"/>
<path d="M456.766 165.968H451.366L448.598 170.693L451.366 175.418H456.766L459.533 170.693L456.766 165.968Z" stroke="#A499CE" stroke-miterlimit="10" stroke-linecap="round" stroke-linejoin="round"/>
<path d="M134.394 267.55H128.994L126.227 272.275L128.994 277H134.394L137.162 272.275L134.394 267.55Z" stroke="#A499CE" stroke-miterlimit="10" stroke-linecap="round" stroke-linejoin="round"/>
<path d="M284.677 49.2373H278.939L276.037 54.2323L278.939 59.2273H284.677L287.512 54.2323L284.677 49.2373Z" stroke="#A499CE" stroke-miterlimit="10" stroke-linecap="round" stroke-linejoin="round"/>
<path d="M426.923 219.681H416.343L410.991 228.892L416.343 238.103H426.923L432.151 228.892L426.923 219.681Z" stroke="#A499CE" stroke-miterlimit="10" stroke-linecap="round" stroke-linejoin="round"/>
<path d="M186.675 61.5891H178.305L174.12 68.8116L178.305 76.1016H186.675L190.86 68.8116L186.675 61.5891Z" stroke="#A499CE" stroke-miterlimit="10" stroke-linecap="round" stroke-linejoin="round"/>
<path d="M405.455 373.121L414.365 373.121L418.888 365.426L414.365 357.731L405.455 357.731L401 365.426L405.455 373.121Z" stroke="#A499CE" stroke-miterlimit="10" stroke-linecap="round" stroke-linejoin="round"/>
<path d="M403.366 101.73H394.456L389.933 109.425L394.456 117.12H403.366L407.821 109.425L403.366 101.73Z" stroke="#A499CE" stroke-miterlimit="10" stroke-linecap="round" stroke-linejoin="round"/>
<path d="M474.272 297.526L477.85 297.526L479.672 294.421L477.85 291.249L474.272 291.249L472.45 294.421L474.272 297.526Z" stroke="#A499CE" stroke-miterlimit="10" stroke-linecap="round" stroke-linejoin="round"/>
<path d="M423.612 353.344L427.257 353.344L429.08 350.239L427.257 347.134L423.612 347.134L421.857 350.239L423.612 353.344Z" stroke="#A499CE" stroke-miterlimit="10" stroke-linecap="round" stroke-linejoin="round"/>
<path d="M391.789 124.393H388.144L386.322 127.498L388.144 130.603H391.789L393.544 127.498L391.789 124.393Z" stroke="#A499CE" stroke-miterlimit="10" stroke-linecap="round" stroke-linejoin="round"/>
<path d="M404.073 345.288L409.135 345.288L411.633 340.968L409.135 336.581L404.073 336.581L401.575 340.968L404.073 345.288Z" stroke="#A499CE" stroke-miterlimit="10" stroke-linecap="round" stroke-linejoin="round"/>
<path d="M407.469 135.696H402.406L399.909 140.016L402.406 144.404H407.469L409.966 140.016L407.469 135.696Z" stroke="#A499CE" stroke-miterlimit="10" stroke-linecap="round" stroke-linejoin="round"/>
<path d="M139.37 406.444L148.28 406.444L152.802 398.749L148.28 391.054L139.37 391.054L134.915 398.749L139.37 406.444Z" stroke="#A499CE" stroke-miterlimit="10" stroke-linecap="round" stroke-linejoin="round"/>
<path d="M171.251 133.643H162.341L157.819 141.338L162.341 149.033H171.251L175.706 141.338L171.251 133.643Z" stroke="#A499CE" stroke-miterlimit="10" stroke-linecap="round" stroke-linejoin="round"/>
<path d="M60.9208 303.706L64.4983 303.706L66.3208 300.601L64.4983 297.428L60.9208 297.428L59.0983 300.601L60.9208 303.706Z" stroke="#A499CE" stroke-miterlimit="10" stroke-linecap="round" stroke-linejoin="round"/>
<path d="M138.427 306.269L142.072 306.269L143.894 303.164L142.072 300.059L138.427 300.059L136.672 303.164L138.427 306.269Z" stroke="#A499CE" stroke-miterlimit="10" stroke-linecap="round" stroke-linejoin="round"/>
<path d="M147.084 153.663H143.439L141.617 156.768L143.439 159.873H147.084L148.839 156.768L147.084 153.663Z" stroke="#A499CE" stroke-miterlimit="10" stroke-linecap="round" stroke-linejoin="round"/>
<path d="M59.7545 150.383L64.817 150.383L67.3145 146.063L64.817 141.676L59.7545 141.676L57.257 146.063L59.7545 150.383Z" stroke="#A499CE" stroke-miterlimit="10" stroke-linecap="round" stroke-linejoin="round"/>
<path d="M118.536 107.891H113.473L110.976 112.211L113.473 116.599H118.536L121.033 112.211L118.536 107.891Z" stroke="#A499CE" stroke-miterlimit="10" stroke-linecap="round" stroke-linejoin="round"/>
<path d="M345.567 429.49L326.997 418.798V358.134L345.792 369.389L345.567 429.49Z" fill="url(#paint24_linear_2216_768)" stroke="#251725" stroke-miterlimit="10" stroke-linecap="round" stroke-linejoin="round"/>
<path d="M269.822 328.872V357.572V385.821L326.997 418.798V350.819L269.822 328.872Z" fill="url(#paint25_linear_2216_768)" stroke="#251725" stroke-miterlimit="10" stroke-linecap="round" stroke-linejoin="round"/>
<path d="M341.741 383.345V404.842L331.724 399.214V377.605L341.741 383.345Z" fill="url(#paint26_linear_2216_768)" stroke="#251725" stroke-miterlimit="10" stroke-linecap="round" stroke-linejoin="round"/>
<path d="M335.213 379.743V401.015" stroke="#251725" stroke-miterlimit="10" stroke-linecap="round" stroke-linejoin="round"/>
<path d="M370.778 326.621L390.812 343.053V403.716L362.787 419.923L345.905 429.715V401.465V369.051L370.778 326.621Z" fill="#251725" stroke="#251725" stroke-miterlimit="10" stroke-linecap="round" stroke-linejoin="round"/>
<path d="M342.866 371.077L268.021 327.859L295.145 281.264L369.878 324.37L342.866 371.077Z" fill="url(#paint27_linear_2216_768)" stroke="#251725" stroke-miterlimit="10" stroke-linecap="round" stroke-linejoin="round"/>
<path d="M307.188 430.278L298.635 425.326L272.748 410.469V349.806L292.557 338.326L307.188 369.727V430.278Z" fill="url(#paint28_linear_2216_768)" stroke="#251725" stroke-miterlimit="10" stroke-linecap="round" stroke-linejoin="round"/>
<path d="M342.866 371.077L345.792 369.389L355.471 352.62L369.878 327.746L390.699 343.391L393.175 341.927L369.878 324.37L355.471 349.243L342.866 371.077Z" fill="#DF87F1" stroke="#251725" stroke-miterlimit="10" stroke-linecap="round" stroke-linejoin="round"/>
<path d="M383.946 390.436L355.922 406.53V374.229L383.946 358.134V390.436Z" fill="url(#paint29_linear_2216_768)" stroke="#251725" stroke-miterlimit="10" stroke-linecap="round" stroke-linejoin="round"/>
<path d="M373.367 364.212V396.401" stroke="#251725" stroke-miterlimit="10" stroke-linecap="round" stroke-linejoin="round"/>
<path d="M298.635 393.024V425.326L279.951 414.633V382.332L284.341 384.808L298.635 393.024Z" fill="#DF87F1" stroke="#251725" stroke-miterlimit="10" stroke-linecap="round" stroke-linejoin="round"/>
<path d="M326.997 418.798L307.188 430.278V369.727L326.997 358.247V418.798Z" fill="#251725" stroke="#251725" stroke-miterlimit="10" stroke-linecap="round" stroke-linejoin="round"/>
<path d="M270.272 351.382L272.748 352.732L289.293 339.902L308.539 373.328L311.352 374.904L289.293 336.638L270.272 351.382Z" fill="#DF87F1" stroke="#251725" stroke-miterlimit="10" stroke-linecap="round" stroke-linejoin="round"/>
<path d="M289.293 336.638L311.352 374.904L325.871 366.463L330.486 363.874L308.539 325.608L289.293 336.638Z" fill="#EBEDFD" stroke="#251725" stroke-miterlimit="10" stroke-linecap="round" stroke-linejoin="round"/>
<path d="M289.293 371.753C286.592 370.177 284.341 371.415 284.341 374.566C284.341 377.718 286.592 381.544 289.293 383.12C291.994 384.696 294.245 383.458 294.245 380.306C294.358 377.155 292.107 373.328 289.293 371.753V383.12V371.753Z" fill="url(#paint30_linear_2216_768)"/>
<path d="M289.293 371.753C286.592 370.177 284.341 371.415 284.341 374.566C284.341 377.718 286.592 381.544 289.293 383.12C291.994 384.696 294.245 383.458 294.245 380.306C294.358 377.155 292.107 373.328 289.293 371.753ZM289.293 371.753V383.12" stroke="#251725" stroke-miterlimit="10" stroke-linecap="round" stroke-linejoin="round"/>
<path d="M294.245 380.306L284.341 374.566" stroke="#251725" stroke-miterlimit="10" stroke-linecap="round" stroke-linejoin="round"/>
<path d="M284.341 384.808V417.11" stroke="#251725" stroke-miterlimit="10" stroke-linecap="round" stroke-linejoin="round"/>
<path d="M286.93 400.903V402.703" stroke="#251725" stroke-miterlimit="10" stroke-linecap="round" stroke-linejoin="round"/>
<path d="M337.464 342.04L346.918 336.637L337.464 331.123L328.01 336.637L337.464 342.04Z" stroke="#251725" stroke-miterlimit="10" stroke-linecap="round" stroke-linejoin="round"/>
<path d="M337.464 328.759L346.918 323.357L337.464 317.842L328.01 323.357L337.464 328.759Z" stroke="#251725" stroke-miterlimit="10" stroke-linecap="round" stroke-linejoin="round"/>
<path d="M342.416 323.357L337.464 320.43L332.512 323.357L337.464 326.17L342.416 323.357Z" fill="url(#paint31_linear_2216_768)" stroke="#251725" stroke-miterlimit="10" stroke-linecap="round" stroke-linejoin="round"/>
<path d="M337.464 328.759V352.957L346.918 336.637V323.357L337.464 328.759Z" fill="url(#paint32_linear_2216_768)" stroke="#251725" stroke-miterlimit="10" stroke-linecap="round" stroke-linejoin="round"/>
<path d="M328.01 323.357L337.464 328.759V352.957L328.01 347.555V323.357Z" fill="#EBEDFD" stroke="#251725" stroke-miterlimit="10" stroke-linecap="round" stroke-linejoin="round"/>
<path d="M300.21 305.574L309.777 300.059L300.21 294.657L290.756 300.059L300.21 305.574Z" stroke="#251725" stroke-miterlimit="10" stroke-linecap="round" stroke-linejoin="round"/>
<path d="M305.275 300.059L300.21 297.246L295.258 300.059L300.21 302.986L305.275 300.059Z" fill="url(#paint33_linear_2216_768)" stroke="#251725" stroke-miterlimit="10" stroke-linecap="round" stroke-linejoin="round"/>
<path d="M300.21 305.574V329.772L309.777 313.34V300.059L300.21 305.574Z" fill="url(#paint34_linear_2216_768)" stroke="#251725" stroke-miterlimit="10" stroke-linecap="round" stroke-linejoin="round"/>
<path d="M290.756 300.059L300.21 305.574V329.772L290.756 324.257V300.059Z" fill="#EBEDFD" stroke="#251725" stroke-miterlimit="10" stroke-linecap="round" stroke-linejoin="round"/>
<path d="M307.188 423.863L326.997 412.383" stroke="#251725" stroke-miterlimit="10" stroke-linecap="round" stroke-linejoin="round"/>
<path d="M345.905 423.3L326.997 412.383" stroke="#251725" stroke-miterlimit="10" stroke-linecap="round" stroke-linejoin="round"/>
<path d="M370.666 413.17L371.453 412.72L370.666 413.17Z" fill="#A499CE"/>
<path d="M132.255 353.253C147.641 362.117 147.743 376.585 132.459 385.45C117.176 394.314 92.3144 394.314 76.929 385.45C61.5435 376.585 61.4416 362.117 76.7252 353.253C92.0087 344.388 116.87 344.388 132.255 353.253Z" fill="#8055BB" stroke="#8055BB" stroke-miterlimit="10" stroke-linecap="round" stroke-linejoin="round"/>
<path d="M122.882 368.638V359.163H118.5C116.666 357.125 114.323 355.189 111.368 353.457C95.9825 344.592 71.1213 344.592 55.8378 353.457C52.8829 355.189 50.5395 357.125 48.7054 359.163H44.426V368.638C44.426 369.25 44.426 369.759 44.426 370.37V370.472C44.8336 375.974 48.6035 381.477 55.9396 385.756C71.3251 394.62 96.1863 394.62 111.47 385.756C119.621 381.069 123.391 374.752 122.882 368.638Z" fill="#EBEDFD"/>
<path d="M122.882 368.638V359.163H118.5C116.666 357.125 114.323 355.189 111.368 353.457C95.9825 344.592 71.1213 344.592 55.8378 353.457C52.8829 355.189 50.5395 357.125 48.7054 359.163H44.426V368.638C44.426 369.25 44.426 369.759 44.426 370.37V370.472C44.8336 375.974 48.6035 381.477 55.9396 385.756C71.3251 394.62 96.1863 394.62 111.47 385.756C119.621 381.069 123.391 374.752 122.882 368.638Z" fill="url(#paint35_linear_2216_768)"/>
<path d="M122.882 368.638V359.163H118.5C116.666 357.125 114.323 355.189 111.368 353.457C95.9825 344.592 71.1213 344.592 55.8378 353.457C52.8829 355.189 50.5395 357.125 48.7054 359.163H44.426V368.638C44.426 369.25 44.426 369.759 44.426 370.37V370.472C44.8336 375.974 48.6035 381.477 55.9396 385.756C71.3251 394.62 96.1863 394.62 111.47 385.756C119.621 381.069 123.391 374.752 122.882 368.638Z" stroke="#251725" stroke-miterlimit="10" stroke-linecap="round" stroke-linejoin="round"/>
<path d="M111.368 344.184C126.753 353.049 126.855 367.517 111.571 376.382C96.2879 385.246 71.4267 385.246 56.0413 376.382C40.6558 367.517 40.554 353.049 55.8375 344.184C71.121 335.218 95.9823 335.218 111.368 344.184Z" fill="#EBEDFD" stroke="#251725" stroke-miterlimit="10" stroke-linecap="round" stroke-linejoin="round"/>
<path d="M106.477 345.815C119.112 352.947 119.214 364.461 106.579 371.491C93.9447 378.624 73.4648 378.624 60.8304 371.491C48.196 364.359 48.0941 352.845 60.7285 345.815C73.3629 338.682 93.8428 338.682 106.477 345.815Z" fill="#A499CE" stroke="#251725" stroke-miterlimit="10" stroke-linecap="round" stroke-linejoin="round"/>
<path d="M49.928 371.797V380.559" stroke="#251725" stroke-miterlimit="10" stroke-linecap="round" stroke-linejoin="round"/>
<path d="M59.0981 377.91V387.284" stroke="#251725" stroke-miterlimit="10" stroke-linecap="round" stroke-linejoin="round"/>
<path d="M71.427 381.782V391.054" stroke="#251725" stroke-miterlimit="10" stroke-linecap="round" stroke-linejoin="round"/>
<path d="M85.8953 382.903V392.379" stroke="#251725" stroke-miterlimit="10" stroke-linecap="round" stroke-linejoin="round"/>
<path d="M99.9563 380.967V390.341" stroke="#251725" stroke-miterlimit="10" stroke-linecap="round" stroke-linejoin="round"/>
<path d="M111.572 376.28V385.756" stroke="#251725" stroke-miterlimit="10" stroke-linecap="round" stroke-linejoin="round"/>
<path d="M120.436 368.435V377.808" stroke="#251725" stroke-miterlimit="10" stroke-linecap="round" stroke-linejoin="round"/>
<path d="M99.345 350.094L96.1864 351.928C97.511 352.845 98.428 353.864 99.0393 354.883L99.4469 355.596L92.8241 357.736L92.2127 356.717C91.7032 355.902 90.99 354.883 89.156 353.762C88.5446 353.457 87.0163 352.641 85.8955 353.253C85.386 353.558 85.3861 354.17 87.0163 356.411C89.6655 359.774 89.3598 362.117 85.9974 364.053C82.7369 365.989 77.9481 366.193 73.6687 364.766L70.1025 366.906L65.1099 364.053L68.3704 362.117C66.7401 360.895 65.4156 359.57 65.008 358.449L64.8042 357.838L71.529 355.698L72.0384 356.819C72.6498 358.143 73.7706 359.366 75.2989 360.181C76.4197 360.793 78.1518 361.302 79.1707 360.691C79.7821 360.283 80.1897 359.672 78.5594 357.736C76.6235 355.392 74.8913 352.336 78.9669 349.992C82.0237 348.158 86.6088 347.954 90.7863 349.279L94.2505 347.241L99.345 350.094Z" fill="#251725"/>
<path d="M122.882 360.487V351.011H118.5C116.666 348.973 114.323 347.037 111.368 345.305C95.9825 336.441 71.1213 336.441 55.8378 345.305C52.8829 347.037 50.5395 348.973 48.7054 351.011H44.426V360.487C44.426 361.098 44.426 361.608 44.426 362.219V362.321C44.8336 367.823 48.6035 373.325 55.9396 377.604C71.3251 386.469 96.1863 386.469 111.47 377.604C119.621 372.815 123.391 366.6 122.882 360.487Z" fill="#EBEDFD"/>
<path d="M122.882 360.487V351.011H118.5C116.666 348.973 114.323 347.037 111.368 345.305C95.9825 336.441 71.1213 336.441 55.8378 345.305C52.8829 347.037 50.5395 348.973 48.7054 351.011H44.426V360.487C44.426 361.098 44.426 361.608 44.426 362.219V362.321C44.8336 367.823 48.6035 373.325 55.9396 377.604C71.3251 386.469 96.1863 386.469 111.47 377.604C119.621 372.815 123.391 366.6 122.882 360.487Z" fill="url(#paint36_linear_2216_768)"/>
<path d="M122.882 360.487V351.011H118.5C116.666 348.973 114.323 347.037 111.368 345.305C95.9825 336.441 71.1213 336.441 55.8378 345.305C52.8829 347.037 50.5395 348.973 48.7054 351.011H44.426V360.487C44.426 361.098 44.426 361.608 44.426 362.219V362.321C44.8336 367.823 48.6035 373.325 55.9396 377.604C71.3251 386.469 96.1863 386.469 111.47 377.604C119.621 372.815 123.391 366.6 122.882 360.487Z" stroke="#251725" stroke-miterlimit="10" stroke-linecap="round" stroke-linejoin="round"/>
<path d="M111.368 335.931C126.753 344.796 126.855 359.264 111.571 368.129C96.2879 376.993 71.4267 376.993 56.0413 368.129C40.6558 359.264 40.554 344.796 55.8375 335.931C71.121 327.067 95.9823 327.067 111.368 335.931Z" fill="#EBEDFD"/>
<path d="M111.368 335.931C126.753 344.796 126.855 359.264 111.571 368.129C96.2879 376.993 71.4267 376.993 56.0413 368.129C40.6558 359.264 40.554 344.796 55.8375 335.931C71.121 327.067 95.9823 327.067 111.368 335.931Z" fill="url(#paint37_linear_2216_768)"/>
<path d="M111.368 335.931C126.753 344.796 126.855 359.264 111.571 368.129C96.2879 376.993 71.4267 376.993 56.0413 368.129C40.6558 359.264 40.554 344.796 55.8375 335.931C71.121 327.067 95.9823 327.067 111.368 335.931Z" stroke="#251725" stroke-miterlimit="10" stroke-linecap="round" stroke-linejoin="round"/>
<path d="M106.477 337.663C119.112 344.796 119.214 356.309 106.579 363.34C93.9447 370.472 73.4648 370.472 60.8304 363.34C48.196 356.207 48.0941 344.694 60.7285 337.663C73.3629 330.531 93.8428 330.531 106.477 337.663Z" fill="#A499CE"/>
<path d="M106.477 337.663C119.112 344.796 119.214 356.309 106.579 363.34C93.9447 370.472 73.4648 370.472 60.8304 363.34C48.196 356.207 48.0941 344.694 60.7285 337.663C73.3629 330.531 93.8428 330.531 106.477 337.663Z" fill="url(#paint38_linear_2216_768)"/>
<path d="M106.477 337.663C119.112 344.796 119.214 356.309 106.579 363.34C93.9447 370.472 73.4648 370.472 60.8304 363.34C48.196 356.207 48.0941 344.694 60.7285 337.663C73.3629 330.531 93.8428 330.531 106.477 337.663Z" stroke="#251725" stroke-miterlimit="10" stroke-linecap="round" stroke-linejoin="round"/>
<path d="M49.928 363.646V372.408" stroke="#251725" stroke-miterlimit="10" stroke-linecap="round" stroke-linejoin="round"/>
<path d="M59.0981 369.759V379.133" stroke="#251725" stroke-miterlimit="10" stroke-linecap="round" stroke-linejoin="round"/>
<path d="M71.427 373.631V382.903" stroke="#251725" stroke-miterlimit="10" stroke-linecap="round" stroke-linejoin="round"/>
<path d="M85.8953 374.751V384.125" stroke="#251725" stroke-miterlimit="10" stroke-linecap="round" stroke-linejoin="round"/>
<path d="M99.9563 372.815V382.189" stroke="#251725" stroke-miterlimit="10" stroke-linecap="round" stroke-linejoin="round"/>
<path d="M111.572 368.129V377.503" stroke="#251725" stroke-miterlimit="10" stroke-linecap="round" stroke-linejoin="round"/>
<path d="M120.436 360.181V369.657" stroke="#251725" stroke-miterlimit="10" stroke-linecap="round" stroke-linejoin="round"/>
<path d="M99.345 341.943L96.1864 343.777C97.511 344.694 98.428 345.713 99.0393 346.732L99.4469 347.445L92.8241 349.585L92.2127 348.566C91.7032 347.751 90.99 346.732 89.156 345.611C88.5446 345.305 87.0163 344.49 85.8955 345.101C85.386 345.407 85.3861 346.018 87.0163 348.26C89.6655 351.622 89.3598 353.966 85.9974 355.902C82.7369 357.838 77.9481 358.041 73.6687 356.615L70.1025 358.755L65.1099 355.902L68.3704 353.966C66.7401 352.743 65.4156 351.419 65.008 350.298L64.8042 349.686L71.529 347.547L72.0384 348.668C72.6498 349.992 73.7706 351.215 75.2989 352.03C76.4197 352.641 78.1518 353.151 79.1707 352.539C79.7821 352.132 80.1897 351.52 78.5594 349.585C76.6235 347.241 74.8913 344.184 78.9669 341.841C82.0237 340.007 86.6088 339.803 90.7863 341.128L94.2505 339.09L99.345 341.943Z" fill="#251725"/>
<path d="M141.528 347.649V338.173H137.146C135.312 336.135 132.969 334.199 130.014 332.467C114.629 323.602 89.7673 323.602 74.4837 332.467C71.5289 334.199 69.1854 336.135 67.3514 338.173H63.072V347.649C63.072 348.26 63.072 348.769 63.072 349.381V349.483C63.4796 354.985 67.2495 360.487 74.5856 364.766C89.971 373.631 114.832 373.631 130.116 364.766C138.267 359.977 142.037 353.762 141.528 347.649Z" fill="url(#paint39_linear_2216_768)" stroke="#251725" stroke-miterlimit="10" stroke-linecap="round" stroke-linejoin="round"/>
<path d="M130.014 323.093C145.399 331.958 145.501 346.426 130.217 355.29C114.934 364.155 90.0727 364.155 74.6873 355.29C59.3018 346.426 59.1999 331.958 74.4835 323.093C89.767 314.229 114.628 314.229 130.014 323.093Z" fill="url(#paint40_linear_2216_768)" stroke="#251725" stroke-miterlimit="10" stroke-linecap="round" stroke-linejoin="round"/>
<path d="M125.123 324.825C137.758 331.958 137.86 343.471 125.225 350.502C112.591 357.634 92.1107 357.634 79.4763 350.502C66.842 343.369 66.7401 331.856 79.3745 324.825C91.907 317.693 112.387 317.693 125.123 324.825Z" fill="url(#paint41_linear_2216_768)" stroke="#251725" stroke-miterlimit="10" stroke-linecap="round" stroke-linejoin="round"/>
<path d="M68.574 350.807V359.57" stroke="#251725" stroke-miterlimit="10" stroke-linecap="round" stroke-linejoin="round"/>
<path d="M77.7441 356.921V366.295" stroke="#251725" stroke-miterlimit="10" stroke-linecap="round" stroke-linejoin="round"/>
<path d="M90.073 360.792V370.064" stroke="#251725" stroke-miterlimit="10" stroke-linecap="round" stroke-linejoin="round"/>
<path d="M104.542 361.913V371.287" stroke="#251725" stroke-miterlimit="10" stroke-linecap="round" stroke-linejoin="round"/>
<path d="M118.602 359.977V369.351" stroke="#251725" stroke-miterlimit="10" stroke-linecap="round" stroke-linejoin="round"/>
<path d="M130.218 355.291V364.664" stroke="#251725" stroke-miterlimit="10" stroke-linecap="round" stroke-linejoin="round"/>
<path d="M139.082 347.343V356.819" stroke="#251725" stroke-miterlimit="10" stroke-linecap="round" stroke-linejoin="round"/>
<path d="M107.869 335.634L110.358 333.146L117.933 335.611L121.861 331.685L100.836 324.845L96.9077 328.771L104.503 331.242L102.014 333.729C95.4216 331.888 89.6892 331.288 88.545 332.431C87.4007 333.575 91.2233 336.076 97.3572 338.382L89.1405 346.593L94.9955 348.498L103.212 340.287C109.802 342.131 115.535 342.73 116.681 341.585C117.827 340.44 114.009 337.935 107.869 335.634ZM101.029 338.591C94.1387 336.349 89.3484 333.737 90.3076 332.778C91.1335 331.953 95.8952 332.585 101.555 334.181L98.7429 336.991C99.6531 337.329 100.615 337.665 101.621 337.993C102.627 338.32 103.629 338.622 104.598 338.895L107.41 336.086C112.699 338.052 116.076 340.067 115.25 340.893C114.291 341.865 107.919 340.833 101.029 338.591Z" fill="#251725"/>
<path d="M6.30165 206.523L126.634 137.034C128.264 136.117 129.691 136.117 130.71 136.728L134.582 138.97L132.238 143.249L132.544 235.256C132.544 238.72 130.098 243 127.042 244.732L11.1924 311.674L6.7092 316.87L2.93927 314.73C1.92038 314.221 1.30902 312.998 1.30902 311.164L1.00334 216.101C0.901443 212.534 3.24493 208.255 6.30165 206.523Z" fill="url(#paint42_linear_2216_768)" stroke="#251725" stroke-miterlimit="10" stroke-linecap="round" stroke-linejoin="round"/>
<path d="M9.96968 208.663C6.91298 210.395 4.46761 214.674 4.46761 218.138L4.77327 313.202C4.77327 316.666 7.21863 318.093 10.2753 316.361L130.608 246.871C133.665 245.139 136.11 240.86 136.11 237.396L135.804 142.332C135.804 138.868 133.359 137.441 130.302 139.173L9.96968 208.663Z" fill="#EBEDFD" stroke="#251725" stroke-miterlimit="10" stroke-linecap="round" stroke-linejoin="round"/>
<path d="M76.9116 184.719V244.121L63.9716 266.435V207.032L76.9116 184.719Z" fill="#FBFBFF" stroke="#251725" stroke-miterlimit="10" stroke-linecap="round" stroke-linejoin="round"/>
<path d="M38.1932 207.032H63.9714V266.435H38.1932V207.032Z" fill="#FBFBFF" stroke="#251725" stroke-miterlimit="10" stroke-linecap="round" stroke-linejoin="round"/>
<path d="M38.2952 207.032V266.435L25.3551 288.748V229.245L38.2952 207.032Z" fill="#FBFBFF" stroke="#251725" stroke-miterlimit="10" stroke-linecap="round" stroke-linejoin="round"/>
<path d="M76.9116 208.663L63.9716 227.003L38.2952 233.829L25.3551 245.649" stroke="#AF56FF" stroke-miterlimit="10" stroke-linecap="round" stroke-linejoin="round"/>
<path d="M52.458 230.06L48.5862 245.649L38.2952 256.245" stroke="#AF56FF" stroke-miterlimit="10" stroke-linecap="round" stroke-linejoin="round"/>
<path d="M48.586 245.649L63.9714 258.997" stroke="#AF56FF" stroke-miterlimit="10" stroke-linecap="round" stroke-linejoin="round"/>
<path d="M68.8623 220.176L76.9116 231.894" stroke="#AF56FF" stroke-miterlimit="10" stroke-linecap="round" stroke-linejoin="round"/>
<path d="M100.143 177.892C102.588 173.714 105.747 170.556 108.905 168.722C110.943 167.499 112.981 166.99 114.815 166.99C115.834 166.99 116.853 167.295 117.668 167.805C122.049 170.25 122.559 177.994 118.789 185.839L109.007 206.421L104.626 202.345L99.0219 197.149C97.2897 195.519 96.4746 193.073 96.4746 190.017C96.4746 186.349 97.6973 182.069 100.143 177.892ZM102.996 187.164C103.199 188.488 103.709 189.609 104.728 190.119C105.849 190.832 107.377 190.526 108.905 189.711C110.434 188.794 111.962 187.266 113.083 185.33C114.204 183.292 114.815 181.254 114.815 179.522C114.815 177.79 114.204 176.363 113.083 175.752C112.166 175.243 110.943 175.243 109.72 175.752C109.415 175.854 109.211 175.956 108.905 176.16C107.377 177.077 105.849 178.605 104.728 180.541C103.607 182.579 102.996 184.617 102.996 186.349C102.996 186.654 102.996 186.96 102.996 187.164Z" fill="url(#paint43_linear_2216_768)" stroke="#251725" stroke-miterlimit="10" stroke-linecap="round" stroke-linejoin="round"/>
<path d="M102.996 187.164C103.199 188.488 103.709 189.609 104.728 190.119C105.849 190.832 107.377 190.526 108.905 189.711C110.434 188.794 111.962 187.266 113.083 185.33C114.204 183.292 114.815 181.254 114.815 179.522C114.815 177.79 114.204 176.363 113.083 175.752C112.166 175.243 110.943 175.243 109.72 175.752C109.72 176.058 109.822 176.261 109.822 176.567C109.822 178.299 109.211 180.337 108.09 182.375C106.969 184.413 105.441 185.941 103.913 186.756C103.607 186.96 103.301 187.062 102.996 187.164Z" fill="#251725" stroke="#251725" stroke-miterlimit="10" stroke-linecap="round" stroke-linejoin="round"/>
<path d="M91.482 187.164C91.482 190.221 92.2971 192.768 94.0293 194.296L103.913 203.568L109.007 206.523L104.626 202.447L99.0219 197.251C97.2898 195.621 96.4746 193.175 96.4746 190.119C96.4746 186.451 97.6973 182.069 100.041 177.994C102.486 173.816 105.645 170.658 108.803 168.824C110.841 167.601 112.879 167.091 114.713 167.091C115.732 167.091 116.751 167.397 117.566 167.907L112.471 164.952C110.026 163.525 106.867 164.035 103.709 165.869C100.55 167.703 97.3916 170.963 94.9463 175.039C92.6028 179.115 91.482 183.496 91.482 187.164Z" fill="#EBEDFD"/>
<path d="M91.482 187.164C91.482 190.221 92.2971 192.768 94.0293 194.296L103.913 203.568L109.007 206.523L104.626 202.447L99.0219 197.251C97.2898 195.621 96.4746 193.175 96.4746 190.119C96.4746 186.451 97.6973 182.069 100.041 177.994C102.486 173.816 105.645 170.658 108.803 168.824C110.841 167.601 112.879 167.091 114.713 167.091C115.732 167.091 116.751 167.397 117.566 167.907L112.471 164.952C110.026 163.525 106.867 164.035 103.709 165.869C100.55 167.703 97.3916 170.963 94.9463 175.039C92.6028 179.115 91.482 183.496 91.482 187.164Z" fill="url(#paint44_linear_2216_768)"/>
<path d="M91.482 187.164C91.482 190.221 92.2971 192.768 94.0293 194.296L103.913 203.568L109.007 206.523L104.626 202.447L99.0219 197.251C97.2898 195.621 96.4746 193.175 96.4746 190.119C96.4746 186.451 97.6973 182.069 100.041 177.994C102.486 173.816 105.645 170.658 108.803 168.824C110.841 167.601 112.879 167.091 114.713 167.091C115.732 167.091 116.751 167.397 117.566 167.907L112.471 164.952C110.026 163.525 106.867 164.035 103.709 165.869C100.55 167.703 97.3916 170.963 94.9463 175.039C92.6028 179.115 91.482 183.496 91.482 187.164Z" stroke="#251725" stroke-miterlimit="10" stroke-linecap="round" stroke-linejoin="round"/>
<path d="M120.113 208.459L99.5312 220.278" stroke="#251725" stroke-miterlimit="10" stroke-linecap="round" stroke-linejoin="round"/>
<path d="M120.113 212.84L99.5312 224.659" stroke="#AF56FF" stroke-miterlimit="10" stroke-linecap="round" stroke-linejoin="round"/>
<path d="M120.113 217.221L106.052 225.372" stroke="#251725" stroke-miterlimit="10" stroke-linecap="round" stroke-linejoin="round"/>
<path d="M348.387 465.456C352.972 468.105 353.074 472.486 348.488 475.135L304.472 500.71C299.887 503.359 292.449 503.359 287.762 500.71L166.716 430.813C162.131 428.164 162.029 423.782 166.716 421.133L210.733 395.661C215.318 393.012 222.756 393.012 227.443 395.661L348.387 465.456Z" fill="#8055BB" stroke="#8055BB" stroke-miterlimit="10" stroke-linecap="round" stroke-linejoin="round"/>
<path d="M216.235 397.902C211.65 395.253 204.11 395.253 199.525 397.902L155.508 423.477C154.371 424.134 152.908 420.599 152.335 421.417C152.335 421.417 149.167 429.48 155.508 433.156L276.554 503.053C278.999 504.479 282.26 505.091 285.52 504.989V437.945L216.235 397.902Z" fill="#EBEDFD" stroke="#251725" stroke-miterlimit="10" stroke-linecap="round" stroke-linejoin="round"/>
<path d="M337.178 467.799L285.52 437.945V504.989C288.373 504.887 291.124 504.276 293.264 503.053L337.28 477.479C342.605 473.751 340.822 466.269 340.197 466.893C339.646 465.84 338.648 468.629 337.178 467.799Z" fill="#AF56FF" stroke="#251725" stroke-miterlimit="10" stroke-linecap="round" stroke-linejoin="round"/>
<path d="M337.179 462.399C341.764 465.048 341.866 469.429 337.28 472.078L293.264 497.653C288.679 500.302 281.241 500.302 276.554 497.653L155.508 427.756C150.923 425.107 150.821 420.726 155.508 418.077L199.525 392.604C204.11 389.955 211.548 389.955 216.235 392.604L337.179 462.399Z" fill="#EBEDFD" stroke="#251725" stroke-miterlimit="10" stroke-linecap="round" stroke-linejoin="round"/>
<path d="M296.626 481.452L293.06 483.592L251.795 459.75L255.361 457.61L296.626 481.452Z" fill="#251725" stroke="#251725" stroke-miterlimit="10" stroke-linecap="round" stroke-linejoin="round"/>
<path d="M222.348 415.631L218.782 417.771L199.627 406.665L203.193 404.627L222.348 415.631Z" fill="url(#paint45_linear_2216_768)" stroke="#251725" stroke-miterlimit="10" stroke-linecap="round" stroke-linejoin="round"/>
<path d="M247.719 421.235L244.153 423.273L207.472 402.08L211.038 400.042L247.719 421.235Z" fill="url(#paint46_linear_2216_768)" stroke="#251725" stroke-miterlimit="10" stroke-linecap="round" stroke-linejoin="round"/>
<path d="M220.616 447.727L217.05 449.866L170.996 423.273L174.562 421.235L220.616 447.727Z" fill="#EBEDFD" stroke="#251725" stroke-miterlimit="10" stroke-linecap="round" stroke-linejoin="round"/>
<path d="M249.655 454.35L246.089 456.387L179.86 418.179L183.426 416.039L249.655 454.35Z" fill="#251725" stroke="#251725" stroke-miterlimit="10" stroke-linecap="round" stroke-linejoin="round"/>
<path d="M277.063 460.769L273.497 462.908L187.909 413.492L191.476 411.352L277.063 460.769Z" fill="#EBEDFD" stroke="#251725" stroke-miterlimit="10" stroke-linecap="round" stroke-linejoin="round"/>
<path d="M304.778 476.765L301.211 478.905L277.471 465.15L281.037 463.112L304.778 476.765Z" fill="#251725" stroke="#251725" stroke-miterlimit="10" stroke-linecap="round" stroke-linejoin="round"/>
<path d="M373.896 110.204L372.746 109.553C374.814 102.503 373.869 94.5845 369.653 87.3819C361.759 73.9472 344.083 66.4266 328.783 70.7704C323.598 72.2524 319.269 74.9476 315.987 78.409L314.48 77.6045L311.109 85.8424C311.071 85.9318 310.994 86.1106 310.956 86.2L310.764 86.647C308.058 93.5821 308.48 101.858 312.874 109.878C322.212 126.735 343.987 133.208 359.734 124.982C363.156 123.168 365.94 120.869 368.175 118.123L368.239 118.097C368.89 117.318 369.49 116.411 370.027 115.53L373.896 110.204Z" fill="url(#paint47_linear_2216_768)" stroke="#251725" stroke-miterlimit="10" stroke-linecap="round" stroke-linejoin="round"/>
<mask id="mask5_2216_768" style="mask-type:alpha" maskUnits="userSpaceOnUse" x="308" y="69" width="67" height="61">
<path d="M373.896 110.204L372.746 109.552C374.814 102.502 373.869 94.5843 369.653 87.3816C361.759 73.9469 344.083 66.4264 328.783 70.7702C323.598 72.2522 319.269 74.9473 315.987 78.4087L314.48 77.6043L311.109 85.8421C311.071 85.9316 310.994 86.1104 310.956 86.1998L310.764 86.6468C308.058 93.5819 308.48 101.858 312.874 109.878C322.212 126.735 343.987 133.208 359.734 124.982C363.156 123.168 365.94 120.869 368.175 118.122L368.239 118.097C368.89 117.318 369.49 116.411 370.027 115.53L373.896 110.204Z" fill="white" stroke="#251725" stroke-miterlimit="10" stroke-linecap="round" stroke-linejoin="round"/>
</mask>
<g mask="url(#mask5_2216_768)">
<path d="M354.447 135.838L366.616 107.19" stroke="#251725" stroke-miterlimit="10" stroke-linecap="round" stroke-linejoin="round"/>
<path d="M344.613 131.624L356.717 103.002" stroke="#251725" stroke-miterlimit="10" stroke-linecap="round" stroke-linejoin="round"/>
<path d="M334.804 127.474L346.909 98.8524" stroke="#251725" stroke-miterlimit="10" stroke-linecap="round" stroke-linejoin="round"/>
<path d="M324.906 123.287L337.074 94.6391" stroke="#251725" stroke-miterlimit="10" stroke-linecap="round" stroke-linejoin="round"/>
<path d="M315.072 119.073L327.202 90.5148" stroke="#251725" stroke-miterlimit="10" stroke-linecap="round" stroke-linejoin="round"/>
<path d="M305.199 114.949L317.367 86.3012" stroke="#251725" stroke-miterlimit="10" stroke-linecap="round" stroke-linejoin="round"/>
</g>
<path d="M373.382 81.5194C381.57 95.5033 377.715 112.528 363.258 120.09C347.154 128.533 324.778 121.856 315.223 104.641C305.835 87.6565 314.032 69.6352 331.49 64.576C347.211 59.9895 365.271 67.7272 373.382 81.5194Z" fill="url(#paint48_linear_2216_768)" stroke="#251725" stroke-miterlimit="10" stroke-linecap="round" stroke-linejoin="round"/>
<path d="M369.487 83.0779C376.461 94.9545 372.951 109.323 360.652 115.429C347.192 122.148 328.775 116.479 320.907 102.367C313.153 88.3581 319.652 73.3127 334.058 68.9563C347.173 64.8937 362.564 71.3289 369.487 83.0779Z" fill="url(#paint49_linear_2216_768)" stroke="#251725" stroke-miterlimit="10" stroke-linecap="round" stroke-linejoin="round"/>
<path d="M322.782 84.6533C323.318 83.0313 324.033 81.4859 324.927 80.0171" stroke="#251725" stroke-miterlimit="10" stroke-linecap="round" stroke-linejoin="round"/>
<path d="M321.953 90.5411C321.965 89.6471 321.978 88.7531 322.08 87.8974" stroke="#251725" stroke-miterlimit="10" stroke-linecap="round" stroke-linejoin="round"/>
<path d="M360.803 93.2191C360.05 91.891 358.964 90.8438 357.508 90.1671C356.116 89.4648 354.558 89.2734 352.936 89.4779C354.021 88.6732 354.66 87.677 354.851 86.4892C355.043 85.3014 354.749 84.0116 353.97 82.6196C352.922 80.7423 351.39 79.5036 349.487 79.0057C348.133 78.5844 346.651 78.5845 345.017 78.9423L343.126 75.6986L340.176 76.6567L341.952 79.7983L338.644 80.9736L336.868 77.832L333.79 78.8413L335.592 82.0467L331.109 83.618L345.071 108.329L349.4 106.375L350.984 109.223L353.934 107.894L352.375 105.11L355.581 103.679L357.139 106.463L359.962 105.186L358.314 102.364C359.846 101.38 360.957 100.269 361.404 98.9789C362.183 97.0376 361.966 95.1986 360.803 93.2191ZM348.734 85.8257C349.705 87.5114 349.168 88.7631 347.099 89.5168L343.115 91.037L340.151 85.8521L344.098 84.4213C346.256 83.7059 347.763 84.14 348.734 85.8257ZM352.809 98.7882L348.582 100.628L345.516 95.1874L349.795 93.4757C350.88 93.0413 351.812 92.9646 352.655 93.2199C353.498 93.4753 354.162 94.0244 354.648 94.8672C355.555 96.5785 354.98 97.9196 352.809 98.7882Z" fill="#251725"/>
<path d="M440.148 301.895C457.187 292.057 467.644 278.269 463.503 271.098C459.363 263.927 442.194 266.089 425.155 275.927C408.116 285.764 397.659 299.553 401.799 306.724C405.94 313.894 423.109 311.733 440.148 301.895Z" fill="url(#paint50_linear_2216_768)" stroke="#251725" stroke-miterlimit="10" stroke-linecap="round" stroke-linejoin="round"/>
<path d="M426.201 277.694C440.988 269.166 455.569 266.896 458.87 272.536C462.171 278.175 452.818 289.73 438.1 298.258C423.313 306.786 408.732 309.056 405.431 303.416C402.13 297.708 411.483 286.222 426.201 277.694Z" fill="url(#paint51_linear_2216_768)" stroke="#251725" stroke-miterlimit="10" stroke-linecap="round" stroke-linejoin="round"/>
<path d="M463.547 271.091L467.811 277.9C471.937 285.053 461.484 298.877 444.427 308.712C427.371 318.547 410.177 320.748 406.05 313.595L401.786 306.786C405.913 313.939 423.107 311.738 440.163 301.903C457.219 292.068 467.673 278.244 463.547 271.091Z" fill="url(#paint52_linear_2216_768)"/>
<mask id="mask6_2216_768" style="mask-type:alpha" maskUnits="userSpaceOnUse" x="401" y="270" width="69" height="49">
<path d="M463.547 271.091L467.811 277.9C471.937 285.053 461.484 298.877 444.427 308.712C427.371 318.547 410.177 320.748 406.05 313.595L401.786 306.786C405.913 313.939 423.107 311.738 440.163 301.903C457.219 292.068 467.673 278.244 463.547 271.091Z" fill="#D9D9D9" stroke="#251725" stroke-miterlimit="10" stroke-linecap="round" stroke-linejoin="round"/>
</mask>
<g mask="url(#mask6_2216_768)">
<path d="M423.519 332.577L405.913 302.04" stroke="#251725" stroke-miterlimit="10" stroke-linecap="round" stroke-linejoin="round"/>
<path d="M434.042 326.456L416.367 295.988" stroke="#251725" stroke-miterlimit="10" stroke-linecap="round" stroke-linejoin="round"/>
<path d="M444.565 320.403L426.889 289.867" stroke="#251725" stroke-miterlimit="10" stroke-linecap="round" stroke-linejoin="round"/>
<path d="M455.019 314.351L437.412 283.815" stroke="#251725" stroke-miterlimit="10" stroke-linecap="round" stroke-linejoin="round"/>
<path d="M465.541 308.299L447.935 277.762" stroke="#251725" stroke-miterlimit="10" stroke-linecap="round" stroke-linejoin="round"/>
<path d="M476.064 302.178L458.457 271.71" stroke="#251725" stroke-miterlimit="10" stroke-linecap="round" stroke-linejoin="round"/>
</g>
<path d="M463.547 271.091L467.811 277.9C471.937 285.053 461.484 298.877 444.427 308.712C427.371 318.547 410.177 320.748 406.05 313.595L401.786 306.786C405.913 313.939 423.107 311.738 440.163 301.903C457.219 292.068 467.673 278.244 463.547 271.091Z" stroke="#251725" stroke-miterlimit="10" stroke-linecap="round" stroke-linejoin="round"/>
<path d="M441.332 285.81C440.232 285.878 439.131 286.222 438.1 286.841C436.793 287.529 435.486 287.735 434.661 287.391L434.179 287.185C433.354 286.841 433.148 286.085 433.629 285.122L433.836 284.64C434.317 283.746 435.211 282.715 436.449 282.096C438.031 281.202 439.406 279.895 439.613 278.726C439.819 277.694 438.994 277.075 437.549 277.213C435.417 277.488 432.735 279.138 431.772 280.789C431.222 281.752 431.36 282.577 432.116 282.852C432.804 283.127 433.01 283.746 432.529 284.709L432.185 285.328C431.703 286.291 430.603 287.323 429.296 288.079L428.54 288.492C427.233 289.18 425.926 289.524 425.239 289.18C424.688 288.905 423.863 288.905 422.831 289.248C421.043 289.799 418.911 291.243 417.467 292.894C414.785 295.988 415.266 298.396 418.567 297.57C420.424 297.089 422.694 295.576 424.276 293.856C424.757 293.375 425.101 292.894 425.307 292.481C425.995 291.312 427.164 290.211 428.54 289.455L429.434 288.973C430.741 288.217 432.047 288.01 432.873 288.354L433.423 288.561C434.248 288.905 434.455 289.799 433.973 290.968C433.836 291.38 433.698 291.862 433.698 292.275C433.698 293.788 434.798 294.888 436.724 294.75C440.3 294.544 444.152 291.037 444.221 288.148C444.427 286.635 443.12 285.672 441.332 285.81Z" fill="#251725"/>
<path d="M225.954 45.5362L226.573 44.7797C223.065 40.3093 221.483 34.3258 222.446 27.9984C224.234 16.1001 234.757 5.64619 246.931 4.40822C251.057 3.99557 254.977 4.68333 258.279 6.1964L259.104 5.16476L263.918 10.0479C263.987 10.1166 264.056 10.1854 264.125 10.2542L264.4 10.5293C268.32 14.7246 270.383 20.7769 269.558 27.792C267.701 42.5101 253.946 53.4455 240.328 52.07C237.371 51.7949 234.688 50.9008 232.35 49.594H232.281C231.593 49.1814 230.906 48.7687 230.287 48.2873L225.954 45.5362Z" fill="url(#paint53_linear_2216_768)" stroke="#251725" stroke-miterlimit="10" stroke-linecap="round" stroke-linejoin="round"/>
<mask id="mask7_2216_768" style="mask-type:alpha" maskUnits="userSpaceOnUse" x="221" y="3" width="50" height="50">
<path d="M225.954 45.5362L226.573 44.7797C223.065 40.3093 221.483 34.3258 222.446 27.9984C224.234 16.1001 234.757 5.64619 246.931 4.40822C251.057 3.99557 254.977 4.68333 258.279 6.1964L259.104 5.16476L263.918 10.0479C263.987 10.1166 264.056 10.1854 264.125 10.2542L264.4 10.5293C268.32 14.7246 270.383 20.7769 269.558 27.792C267.701 42.5101 253.946 53.4455 240.328 52.07C237.371 51.7949 234.688 50.9008 232.35 49.594H232.281C231.593 49.1814 230.906 48.7687 230.287 48.2873L225.954 45.5362Z" fill="white" stroke="#251725" stroke-miterlimit="10" stroke-linecap="round" stroke-linejoin="round"/>
</mask>
<g mask="url(#mask7_2216_768)">
<path d="M247.206 58.3284L230.355 41.272" stroke="#251725" stroke-miterlimit="10" stroke-linecap="round" stroke-linejoin="round"/>
<path d="M253.052 52.4823L236.201 35.4946" stroke="#251725" stroke-miterlimit="10" stroke-linecap="round" stroke-linejoin="round"/>
<path d="M258.897 46.6366L242.047 29.6489" stroke="#251725" stroke-miterlimit="10" stroke-linecap="round" stroke-linejoin="round"/>
<path d="M264.743 40.8592L247.893 23.8716" stroke="#251725" stroke-miterlimit="10" stroke-linecap="round" stroke-linejoin="round"/>
<path d="M270.658 35.0133L253.739 18.0256" stroke="#251725" stroke-miterlimit="10" stroke-linecap="round" stroke-linejoin="round"/>
<path d="M276.504 29.2362L259.585 12.2485" stroke="#251725" stroke-miterlimit="10" stroke-linecap="round" stroke-linejoin="round"/>
</g>
<path d="M218.113 24.8346C216.256 37.2143 223.891 48.2872 236.408 49.5251C250.369 50.9694 264.468 39.759 266.325 24.697C268.182 9.84141 257.109 -0.750079 243.217 0.694216C230.699 1.93218 219.97 12.6612 218.113 24.8346Z" fill="url(#paint54_linear_2216_768)" stroke="#251725" stroke-miterlimit="10" stroke-linecap="round" stroke-linejoin="round"/>
<path d="M221.346 24.8345C219.764 35.3572 226.366 44.5732 236.958 45.4673C248.512 46.4301 260.067 37.1454 261.648 24.6969C263.23 12.4548 254.221 3.51395 242.666 4.54559C232.075 5.43968 222.928 14.4493 221.346 24.8345Z" fill="url(#paint55_linear_2216_768)" stroke="#251725" stroke-miterlimit="10" stroke-linecap="round" stroke-linejoin="round"/>
<path d="M231.387 12.5923C232.35 11.6982 233.45 11.0104 234.688 10.4602" stroke="#251725" stroke-miterlimit="10" stroke-linecap="round" stroke-linejoin="round"/>
<path d="M228.499 16.0998C228.842 15.4809 229.255 14.9307 229.668 14.4492" stroke="#251725" stroke-miterlimit="10" stroke-linecap="round" stroke-linejoin="round"/>
<path d="M238.815 30.9556L241.153 24.6283L245.624 23.3903L245.005 21.1895L242.116 21.946L244.936 14.1743H238.402L235.032 23.8717L230.631 25.0409L231.181 27.3105L234.069 26.4852L231.387 34.1881H250.782L252.364 30.9556H238.815Z" fill="#251725"/>
<path d="M116.042 240.357L116.727 237.944L116.808 237.659L116.955 237.916L117.34 238.587C117.34 238.587 117.34 238.587 117.34 238.587C117.475 238.814 117.748 238.949 118.035 238.92L118.505 238.842L119.666 234.759L119.669 234.748L119.67 234.748L119.706 234.655L119.7 234.522L119.7 234.519L119.7 234.519C119.695 234.322 119.643 233.331 119.328 232.255C119.011 231.174 118.439 230.039 117.417 229.511L117.417 229.511C116.513 229.04 115.448 229.103 114.201 229.735L114.201 229.735C113.872 229.899 113.758 230.324 113.959 230.641C114.14 230.908 114.495 230.996 114.781 230.851L114.781 230.851C115.595 230.436 116.303 230.339 116.843 230.624M116.042 240.357L116.785 230.734M116.042 240.357L115.622 240.462C115.352 240.514 115.09 240.426 114.931 240.237C114.931 240.237 114.93 240.237 114.93 240.237L113.383 238.375L113.196 238.149L113.163 238.44L112.681 242.651L112.681 242.651C112.641 243.006 112.33 243.272 111.977 243.259L111.977 243.259C111.613 243.245 111.329 242.957 111.313 242.597L111.313 242.597L111.189 242.602M116.042 240.357L111.972 243.384C111.542 243.368 111.207 243.026 111.189 242.602M116.843 230.624C116.843 230.624 116.843 230.624 116.843 230.624L116.785 230.734M116.843 230.624C116.843 230.623 116.843 230.623 116.842 230.623L116.785 230.734M116.843 230.624C117.443 230.935 117.823 231.659 118.063 232.397C118.305 233.144 118.415 233.941 118.449 234.446L118.451 234.468L118.445 234.489L117.859 236.534L117.778 236.818L117.63 236.562L117.247 235.898L117.245 235.894L117.245 235.894C117.116 235.649 116.841 235.513 116.55 235.551M116.785 230.734C117.891 231.307 118.256 233.459 118.325 234.454L117.787 236.333L117.847 236.438L117.739 236.5L117.618 236.466L117.652 236.349L117.356 235.835C117.199 235.541 116.871 235.382 116.531 235.427M116.55 235.551L116.553 235.55L116.531 235.427M116.55 235.551L116.084 235.631L115.297 238.391L115.232 238.618L115.081 238.436L113.329 236.333L113.329 236.333C113.15 236.117 112.861 236.031 112.578 236.111L112.139 236.262L111.756 239.633L111.735 239.814L111.574 239.73C109.254 238.526 106.93 238.2 104.805 238.731L104.716 238.754L104.668 238.675C103.703 237.105 102.796 235.838 102.263 235.125L102.262 235.124C102.056 234.843 101.657 234.79 101.377 235.011C101.11 235.229 101.065 235.607 101.264 235.88C101.882 236.71 102.652 237.808 103.423 239.055L103.497 239.175L103.369 239.235C102.451 239.659 101.574 240.254 100.76 241.013C99.1167 242.565 97.9356 244.657 97.3652 246.751C96.7942 248.847 96.8393 250.929 97.6245 252.471C97.9246 253.049 98.4586 253.797 99.3762 254.314C100.292 254.83 101.603 255.123 103.472 254.771C105.955 254.304 107.542 253.136 108.223 251.309L108.223 251.309C108.807 249.746 108.637 247.832 108.058 245.849C107.48 243.868 106.498 241.836 105.481 240.046L105.395 239.894L105.567 239.862C107.13 239.571 109.013 239.763 111.188 240.957L111.25 240.991L111.253 241.061L111.313 242.596M116.55 235.551C116.549 235.551 116.548 235.551 116.548 235.551L116.531 235.427M116.531 235.427L115.985 235.522L111.313 242.596M111.189 242.602L111.313 242.596M111.189 242.602L111.128 241.066C109.038 239.919 107.228 239.711 105.721 239.962C105.713 239.949 105.706 239.936 105.699 239.923L105.59 239.985L105.613 240.107C105.627 240.105 105.641 240.102 105.655 240.1C107.668 243.67 109.524 248.187 108.34 251.353L111.313 242.596M103.203 239.175C102.313 239.601 101.464 240.185 100.674 240.921C97.3515 244.061 95.9047 249.371 97.5134 252.528C98.1281 253.714 99.7087 255.607 103.495 254.894L103.203 239.175ZM103.203 239.175C103.206 239.179 103.208 239.183 103.211 239.187L103.317 239.121M103.203 239.175L103.317 239.121M103.317 239.121L103.264 239.008C103.26 239.01 103.255 239.012 103.251 239.014L103.317 239.121ZM118.607 238.938L118.603 238.953L118.603 238.953L118.603 238.952L118.567 238.832L118.56 238.834L118.502 238.852L118.477 238.94L118.545 238.959L118.607 238.938ZM104.206 240.371L104.151 240.275L104.048 240.319C103.015 240.766 102.2 241.38 101.618 241.924L101.617 241.925C100.791 242.712 100.089 243.653 99.5429 244.664L99.5183 244.709L99.5227 244.724C98.8664 245.951 98.4378 247.272 98.2879 248.518C98.1363 249.778 98.269 250.97 98.7503 251.91C99.2272 252.843 99.9762 253.325 100.793 253.534C101.604 253.742 102.482 253.681 103.229 253.538C105.244 253.156 106.51 252.305 107.035 250.869C107.541 249.514 107.332 247.762 106.755 245.926C106.177 244.084 105.221 242.135 104.206 240.371Z" fill="#AF56FF" stroke="#EBEDFD" stroke-width="0.25"/>
<path d="M100.387 233.004C100.668 233.193 100.725 233.576 100.546 233.85L100.521 233.767L100.382 234.024C100.172 234.172 99.8916 234.188 99.6885 234.045L99.687 234.044C99.3282 233.799 98.8652 233.581 98.4345 233.417C98.1306 233.299 97.9681 232.973 98.0564 232.668L98.0564 232.668L98.0566 232.667C98.1572 232.309 98.5452 232.115 98.8934 232.246C99.3446 232.422 99.9027 232.67 100.386 233.003L100.387 233.004Z" fill="#AF56FF" stroke="#EBEDFD" stroke-width="0.25"/>
<path d="M121.54 240.451L121.535 240.462C121.204 240.53 120.878 240.32 120.807 239.983L120.807 239.983L120.807 239.982C120.597 239.046 120.347 237.676 120.324 236.407C120.312 235.772 120.356 235.168 120.488 234.658C120.62 234.148 120.836 233.745 121.156 233.494C121.429 233.284 121.861 233.093 122.484 233.227C122.863 233.31 123.061 233.757 122.871 234.109L122.847 234.152C122.722 234.385 122.456 234.497 122.174 234.452L122.174 234.452L122.167 234.451C122.132 234.448 122.094 234.445 122.059 234.447C122.034 234.448 121.977 234.454 121.934 234.496C121.855 234.56 121.798 234.656 121.755 234.765C121.709 234.879 121.675 235.019 121.649 235.177C121.599 235.494 121.582 235.903 121.597 236.371C121.626 237.308 121.781 238.499 122.051 239.708C122.123 240.041 121.918 240.362 121.595 240.438L121.54 240.451Z" fill="#AF56FF" stroke="#EBEDFD" stroke-width="0.25"/>
<defs>
<linearGradient id="paint0_linear_2216_768" x1="97.8235" y1="296.377" x2="110.616" y2="278" gradientUnits="userSpaceOnUse">
<stop stop-color="#DF87F1"/>
<stop offset="0.75" stop-color="#FBFBFF"/>
</linearGradient>
<linearGradient id="paint1_linear_2216_768" x1="231.388" y1="85.6279" x2="222.018" y2="72.1024" gradientUnits="userSpaceOnUse">
<stop stop-color="#DF87F1"/>
<stop offset="0.75" stop-color="#FBFBFF"/>
</linearGradient>
<linearGradient id="paint2_linear_2216_768" x1="434.824" y1="198.95" x2="425.082" y2="186.742" gradientUnits="userSpaceOnUse">
<stop stop-color="#DF87F1"/>
<stop offset="0.75" stop-color="#FBFBFF"/>
</linearGradient>
<linearGradient id="paint3_linear_2216_768" x1="197.479" y1="96.8775" x2="153.864" y2="131.645" gradientUnits="userSpaceOnUse">
<stop stop-color="#DF87F1"/>
<stop offset="0.75" stop-color="#FBFBFF"/>
</linearGradient>
<linearGradient id="paint4_linear_2216_768" x1="185.483" y1="84.8698" x2="163.284" y2="128.576" gradientUnits="userSpaceOnUse">
<stop offset="0.35" stop-color="#F76DFC"/>
<stop offset="0.85" stop-color="#1288AA"/>
</linearGradient>
<linearGradient id="paint5_linear_2216_768" x1="194.464" y1="128.53" x2="171.913" y2="64.7089" gradientUnits="userSpaceOnUse">
<stop offset="0.5" stop-color="#DF87F1"/>
<stop offset="0.75" stop-color="#FBFBFF"/>
</linearGradient>
<linearGradient id="paint6_linear_2216_768" x1="280.988" y1="457.617" x2="348.595" y2="277.04" gradientUnits="userSpaceOnUse">
<stop stop-color="#DF87F1"/>
<stop offset="0.805521" stop-color="#FBFBFF"/>
</linearGradient>
<linearGradient id="paint7_linear_2216_768" x1="303.816" y1="92.3925" x2="369.452" y2="104.408" gradientUnits="userSpaceOnUse">
<stop offset="0.1" stop-color="#F76DFC"/>
<stop offset="0.75" stop-color="#1288AA"/>
</linearGradient>
<linearGradient id="paint8_linear_2216_768" x1="264.979" y1="68.4214" x2="169.578" y2="228.552" gradientUnits="userSpaceOnUse">
<stop offset="0.1" stop-color="#F76DFC"/>
<stop offset="0.75" stop-color="#1288AA"/>
</linearGradient>
<linearGradient id="paint9_linear_2216_768" x1="-56.2716" y1="79.5248" x2="-20.074" y2="268.234" gradientUnits="userSpaceOnUse">
<stop stop-color="#DF87F1"/>
<stop offset="0.805521" stop-color="#FBFBFF"/>
</linearGradient>
<linearGradient id="paint10_linear_2216_768" x1="320.841" y1="123.709" x2="300.541" y2="137.665" gradientUnits="userSpaceOnUse">
<stop offset="0.1" stop-color="#F76DFC"/>
<stop offset="0.75" stop-color="#1288AA"/>
</linearGradient>
<linearGradient id="paint11_linear_2216_768" x1="291.283" y1="106.138" x2="270.964" y2="119.753" gradientUnits="userSpaceOnUse">
<stop offset="0.1" stop-color="#F76DFC"/>
<stop offset="0.75" stop-color="#1288AA"/>
</linearGradient>
<linearGradient id="paint12_linear_2216_768" x1="283.144" y1="145.323" x2="262.709" y2="159.227" gradientUnits="userSpaceOnUse">
<stop offset="0.1" stop-color="#F76DFC"/>
<stop offset="0.75" stop-color="#1288AA"/>
</linearGradient>
<linearGradient id="paint13_linear_2216_768" x1="253.585" y1="127.797" x2="233.267" y2="141.413" gradientUnits="userSpaceOnUse">
<stop offset="0.1" stop-color="#F76DFC"/>
<stop offset="0.75" stop-color="#1288AA"/>
</linearGradient>
<linearGradient id="paint14_linear_2216_768" x1="245.446" y1="167.148" x2="225.011" y2="181.052" gradientUnits="userSpaceOnUse">
<stop offset="0.1" stop-color="#F76DFC"/>
<stop offset="0.75" stop-color="#1288AA"/>
</linearGradient>
<linearGradient id="paint15_linear_2216_768" x1="215.888" y1="149.622" x2="195.569" y2="163.238" gradientUnits="userSpaceOnUse">
<stop offset="0.1" stop-color="#F76DFC"/>
<stop offset="0.75" stop-color="#1288AA"/>
</linearGradient>
<linearGradient id="paint16_linear_2216_768" x1="209.97" y1="255.222" x2="127.544" y2="346.883" gradientUnits="userSpaceOnUse">
<stop offset="0.27713" stop-color="#F76DFC"/>
<stop offset="0.75" stop-color="#1288AA"/>
</linearGradient>
<linearGradient id="paint17_linear_2216_768" x1="251.226" y1="172.749" x2="227.3" y2="174.139" gradientUnits="userSpaceOnUse">
<stop offset="0.1" stop-color="#F76DFC"/>
<stop offset="0.75" stop-color="#1288AA"/>
</linearGradient>
<linearGradient id="paint18_linear_2216_768" x1="19.7207" y1="370.51" x2="50.8859" y2="429.512" gradientUnits="userSpaceOnUse">
<stop stop-color="#F76DFC"/>
<stop offset="1" stop-color="#1288AA"/>
</linearGradient>
<linearGradient id="paint19_linear_2216_768" x1="263.423" y1="165.85" x2="239.049" y2="167.294" gradientUnits="userSpaceOnUse">
<stop offset="0.1" stop-color="#F76DFC"/>
<stop offset="0.75" stop-color="#1288AA"/>
</linearGradient>
<linearGradient id="paint20_linear_2216_768" x1="27.5513" y1="363.394" x2="58.3329" y2="422.834" gradientUnits="userSpaceOnUse">
<stop stop-color="#F76DFC"/>
<stop offset="1" stop-color="#1288AA"/>
</linearGradient>
<linearGradient id="paint21_linear_2216_768" x1="275.531" y1="158.74" x2="251.605" y2="160.132" gradientUnits="userSpaceOnUse">
<stop offset="0.1" stop-color="#F76DFC"/>
<stop offset="0.75" stop-color="#1288AA"/>
</linearGradient>
<linearGradient id="paint22_linear_2216_768" x1="44.023" y1="356.284" x2="75.1345" y2="415.25" gradientUnits="userSpaceOnUse">
<stop stop-color="#F76DFC"/>
<stop offset="1" stop-color="#1288AA"/>
</linearGradient>
<linearGradient id="paint23_linear_2216_768" x1="51.8549" y1="349.174" x2="82.6364" y2="408.615" gradientUnits="userSpaceOnUse">
<stop stop-color="#F76DFC"/>
<stop offset="1" stop-color="#1288AA"/>
</linearGradient>
<linearGradient id="paint24_linear_2216_768" x1="324.827" y1="429.49" x2="360.127" y2="420.192" gradientUnits="userSpaceOnUse">
<stop stop-color="#DF87F1"/>
<stop offset="0.669" stop-color="#FBFBFF"/>
</linearGradient>
<linearGradient id="paint25_linear_2216_768" x1="263.221" y1="418.798" x2="344.997" y2="366.805" gradientUnits="userSpaceOnUse">
<stop stop-color="#DF87F1"/>
<stop offset="0.669" stop-color="#FBFBFF"/>
</linearGradient>
<linearGradient id="paint26_linear_2216_768" x1="339.462" y1="370.182" x2="315.29" y2="379.071" gradientUnits="userSpaceOnUse">
<stop offset="0.1" stop-color="#F76DFC"/>
<stop offset="0.75" stop-color="#1288AA"/>
</linearGradient>
<linearGradient id="paint27_linear_2216_768" x1="247.1" y1="349.535" x2="348.277" y2="268.12" gradientUnits="userSpaceOnUse">
<stop stop-color="#DF87F1"/>
<stop offset="0.59775" stop-color="#FBFBFF"/>
</linearGradient>
<linearGradient id="paint28_linear_2216_768" x1="268.772" y1="430.278" x2="329.433" y2="407.558" gradientUnits="userSpaceOnUse">
<stop stop-color="#DF87F1"/>
<stop offset="0.669" stop-color="#FBFBFF"/>
</linearGradient>
<linearGradient id="paint29_linear_2216_768" x1="377.572" y1="344.944" x2="320.076" y2="378.238" gradientUnits="userSpaceOnUse">
<stop offset="0.1" stop-color="#F76DFC"/>
<stop offset="0.75" stop-color="#1288AA"/>
</linearGradient>
<linearGradient id="paint30_linear_2216_768" x1="291.995" y1="367.599" x2="275.088" y2="380.755" gradientUnits="userSpaceOnUse">
<stop offset="0.1" stop-color="#F76DFC"/>
<stop offset="0.75" stop-color="#1288AA"/>
</linearGradient>
<linearGradient id="paint31_linear_2216_768" x1="340.163" y1="318.866" x2="333.341" y2="330.637" gradientUnits="userSpaceOnUse">
<stop offset="0.1" stop-color="#F76DFC"/>
<stop offset="0.75" stop-color="#1288AA"/>
</linearGradient>
<linearGradient id="paint32_linear_2216_768" x1="344.767" y1="315.289" x2="321.265" y2="322.796" gradientUnits="userSpaceOnUse">
<stop offset="0.1" stop-color="#F76DFC"/>
<stop offset="0.75" stop-color="#1288AA"/>
</linearGradient>
<linearGradient id="paint33_linear_2216_768" x1="302.997" y1="295.681" x2="296.213" y2="307.519" gradientUnits="userSpaceOnUse">
<stop offset="0.1" stop-color="#F76DFC"/>
<stop offset="0.75" stop-color="#1288AA"/>
</linearGradient>
<linearGradient id="paint34_linear_2216_768" x1="307.601" y1="291.961" x2="283.854" y2="299.607" gradientUnits="userSpaceOnUse">
<stop offset="0.1" stop-color="#F76DFC"/>
<stop offset="0.75" stop-color="#1288AA"/>
</linearGradient>
<linearGradient id="paint35_linear_2216_768" x1="144.356" y1="359.975" x2="81.2963" y2="310.646" gradientUnits="userSpaceOnUse">
<stop offset="0.540232" stop-color="#DF87F1"/>
<stop offset="0.784112" stop-color="#FBFBFF"/>
</linearGradient>
<linearGradient id="paint36_linear_2216_768" x1="144.356" y1="351.823" x2="81.2963" y2="302.494" gradientUnits="userSpaceOnUse">
<stop offset="0.540232" stop-color="#DF87F1"/>
<stop offset="0.784112" stop-color="#FBFBFF"/>
</linearGradient>
<linearGradient id="paint37_linear_2216_768" x1="132.038" y1="374.777" x2="92.4058" y2="306.364" gradientUnits="userSpaceOnUse">
<stop offset="0.112285" stop-color="#DF87F1"/>
<stop offset="0.583747" stop-color="#FBFBFF"/>
<stop offset="1" stop-color="#DF87F1"/>
</linearGradient>
<linearGradient id="paint38_linear_2216_768" x1="123.474" y1="368.689" x2="92.2656" y2="313.178" gradientUnits="userSpaceOnUse">
<stop offset="0.35" stop-color="#DF87F1"/>
<stop offset="0.85" stop-color="#FBFBFF"/>
</linearGradient>
<linearGradient id="paint39_linear_2216_768" x1="163.002" y1="338.985" x2="99.9423" y2="289.656" gradientUnits="userSpaceOnUse">
<stop offset="0.540232" stop-color="#DF87F1"/>
<stop offset="0.784112" stop-color="#FBFBFF"/>
</linearGradient>
<linearGradient id="paint40_linear_2216_768" x1="150.684" y1="361.939" x2="111.052" y2="293.525" gradientUnits="userSpaceOnUse">
<stop offset="0.112285" stop-color="#DF87F1"/>
<stop offset="0.583747" stop-color="#FBFBFF"/>
<stop offset="1" stop-color="#DF87F1"/>
</linearGradient>
<linearGradient id="paint41_linear_2216_768" x1="142.12" y1="355.851" x2="110.912" y2="300.34" gradientUnits="userSpaceOnUse">
<stop stop-color="#DF87F1"/>
<stop offset="0.75" stop-color="#FBFBFF"/>
</linearGradient>
<linearGradient id="paint42_linear_2216_768" x1="-14.4227" y1="316.87" x2="158.973" y2="188.595" gradientUnits="userSpaceOnUse">
<stop offset="0.278683" stop-color="#DF87F1"/>
<stop offset="0.435677" stop-color="#FBFBFF"/>
</linearGradient>
<linearGradient id="paint43_linear_2216_768" x1="115.665" y1="156.243" x2="66.9469" y2="186.934" gradientUnits="userSpaceOnUse">
<stop offset="0.1" stop-color="#F76DFC"/>
<stop offset="0.75" stop-color="#1288AA"/>
</linearGradient>
<linearGradient id="paint44_linear_2216_768" x1="88.4704" y1="206.523" x2="126.472" y2="183.141" gradientUnits="userSpaceOnUse">
<stop offset="0.245053" stop-color="#DF87F1"/>
<stop offset="0.397159" stop-color="#FBFBFF"/>
</linearGradient>
<linearGradient id="paint45_linear_2216_768" x1="204.795" y1="401.045" x2="220.402" y2="428.025" gradientUnits="userSpaceOnUse">
<stop offset="0.1" stop-color="#F76DFC"/>
<stop offset="0.75" stop-color="#1288AA"/>
</linearGradient>
<linearGradient id="paint46_linear_2216_768" x1="216.626" y1="393.71" x2="244.181" y2="441.448" gradientUnits="userSpaceOnUse">
<stop offset="0.1" stop-color="#F76DFC"/>
<stop offset="0.75" stop-color="#1288AA"/>
</linearGradient>
<linearGradient id="paint47_linear_2216_768" x1="388.249" y1="113.737" x2="307.306" y2="79.4205" gradientUnits="userSpaceOnUse">
<stop offset="0.75" stop-color="#DF87F1"/>
<stop offset="0.9" stop-color="#FBFBFF"/>
</linearGradient>
<linearGradient id="paint48_linear_2216_768" x1="392.456" y1="108.58" x2="309.524" y2="73.3946" gradientUnits="userSpaceOnUse">
<stop stop-color="#DF87F1"/>
<stop offset="0.75" stop-color="#FBFBFF"/>
</linearGradient>
<linearGradient id="paint49_linear_2216_768" x1="316.715" y1="60.1656" x2="411.254" y2="100.232" gradientUnits="userSpaceOnUse">
<stop offset="0.15" stop-color="#10AD74"/>
<stop offset="0.5" stop-color="#1288AA"/>
</linearGradient>
<linearGradient id="paint50_linear_2216_768" x1="467.935" y1="296.669" x2="451.246" y2="260.187" gradientUnits="userSpaceOnUse">
<stop offset="0.55" stop-color="#FBFBFF"/>
<stop offset="0.9" stop-color="#DF87F1"/>
</linearGradient>
<linearGradient id="paint51_linear_2216_768" x1="417.224" y1="259.337" x2="464.369" y2="328.983" gradientUnits="userSpaceOnUse">
<stop offset="0.293434" stop-color="#10AD74"/>
<stop offset="0.495204" stop-color="#1288AA"/>
</linearGradient>
<linearGradient id="paint52_linear_2216_768" x1="476.438" y1="317.799" x2="432.412" y2="254.716" gradientUnits="userSpaceOnUse">
<stop offset="0.4" stop-color="#DF87F1"/>
<stop offset="0.75" stop-color="#FBFBFF"/>
</linearGradient>
<linearGradient id="paint53_linear_2216_768" x1="275.23" y1="52.1868" x2="227.132" y2="4.41785" gradientUnits="userSpaceOnUse">
<stop offset="0.35" stop-color="#DF87F1"/>
<stop offset="0.45" stop-color="#FBFBFF"/>
</linearGradient>
<linearGradient id="paint54_linear_2216_768" x1="237.662" y1="-8.88656" x2="258.362" y2="49.4832" gradientUnits="userSpaceOnUse">
<stop offset="0.1" stop-color="#DF87F1"/>
<stop offset="0.3" stop-color="#FBFBFF"/>
<stop offset="0.5" stop-color="#DF87F1"/>
<stop offset="0.8" stop-color="#FBFBFF"/>
</linearGradient>
<linearGradient id="paint55_linear_2216_768" x1="230.374" y1="-6.7293" x2="286.63" y2="49.0416" gradientUnits="userSpaceOnUse">
<stop offset="0.3" stop-color="#F76DFC"/>
<stop offset="0.75" stop-color="#1288AA"/>
</linearGradient>
</defs>
</svg>
