<svg width="481" height="506" viewBox="0 0 481 506" fill="none" xmlns="http://www.w3.org/2000/svg">
<path d="M342.35 430.715H373.732L374.547 430.206L386.57 423.277L416.22 406.007L374.547 381.961L377.909 407.79L365.479 415.33L317.998 410.948L307.299 430.613L342.35 430.715Z" fill="#8055BB"/>
<path d="M100.275 284.52L98.4873 287.615C97.2493 289.816 100.413 294.08 105.709 297.106C110.936 300.133 116.232 300.82 117.538 298.62L119.326 295.525C118.088 297.725 112.793 297.038 107.497 294.012C102.27 290.985 99.0375 286.721 100.275 284.52Z" fill="#DF87F1" stroke="#251725" stroke-miterlimit="10" stroke-linecap="round" stroke-linejoin="round"/>
<path d="M112.105 286.034C106.878 283.007 101.582 282.32 100.344 284.52C99.1064 286.721 102.27 290.985 107.566 294.012C112.793 297.038 118.089 297.725 119.326 295.525C120.564 293.324 117.332 289.06 112.105 286.034Z" fill="url(#paint0_linear_2539_10587)" stroke="#251725" stroke-miterlimit="10" stroke-linecap="round" stroke-linejoin="round"/>
<mask id="mask0_2539_10587" style="mask-type:alpha" maskUnits="userSpaceOnUse" x="97" y="284" width="23" height="17">
<path d="M100.275 284.52L98.4873 287.615C97.2493 289.816 100.413 294.08 105.709 297.106C110.936 300.133 116.232 300.82 117.538 298.62L119.326 295.525C118.088 297.725 112.793 297.038 107.497 294.012C102.27 290.985 99.0375 286.721 100.275 284.52Z" fill="#D9D9D9" stroke="#251725" stroke-miterlimit="10" stroke-linecap="round" stroke-linejoin="round"/>
</mask>
<g mask="url(#mask0_2539_10587)">
<path d="M112.655 303.434L118.02 294.08" stroke="#251725" stroke-miterlimit="10" stroke-linecap="round" stroke-linejoin="round"/>
<path d="M109.423 301.577L114.787 292.155" stroke="#251725" stroke-miterlimit="10" stroke-linecap="round" stroke-linejoin="round"/>
<path d="M106.19 299.72L111.555 290.298" stroke="#251725" stroke-miterlimit="10" stroke-linecap="round" stroke-linejoin="round"/>
<path d="M102.958 297.863L108.322 288.441" stroke="#251725" stroke-miterlimit="10" stroke-linecap="round" stroke-linejoin="round"/>
<path d="M99.7253 296.006L105.09 286.584" stroke="#251725" stroke-miterlimit="10" stroke-linecap="round" stroke-linejoin="round"/>
<path d="M96.4929 294.08L101.857 284.727" stroke="#251725" stroke-miterlimit="10" stroke-linecap="round" stroke-linejoin="round"/>
<path d="M100.275 284.52L98.4873 287.615C97.2493 289.816 100.413 294.08 105.709 297.106C110.936 300.133 116.232 300.82 117.538 298.62L119.326 295.525C118.088 297.725 112.793 297.038 107.497 294.012C102.27 290.985 99.0375 286.721 100.275 284.52Z" stroke="#251725" stroke-miterlimit="10" stroke-linecap="round" stroke-linejoin="round"/>
</g>
<path d="M107.153 289.06C107.497 289.06 107.841 289.197 108.116 289.404C108.529 289.61 108.941 289.679 109.148 289.541L109.285 289.472C109.56 289.404 109.56 289.128 109.423 288.853L109.354 288.716C109.217 288.441 108.941 288.097 108.529 287.959C108.047 287.684 107.635 287.272 107.566 286.928C107.497 286.584 107.772 286.446 108.185 286.446C108.873 286.515 109.698 287.065 109.973 287.547C110.179 287.822 110.111 288.097 109.836 288.166C109.629 288.234 109.56 288.441 109.698 288.716L109.767 288.922C109.904 289.197 110.248 289.541 110.661 289.747L110.867 289.885C111.28 290.091 111.692 290.229 111.899 290.091C112.036 290.023 112.311 290.023 112.655 290.091C113.206 290.229 113.893 290.71 114.306 291.192C115.131 292.155 114.994 292.911 113.962 292.636C113.412 292.499 112.724 292.017 112.243 291.467C112.105 291.329 111.968 291.192 111.899 291.054C111.692 290.71 111.349 290.366 110.936 290.16L110.661 290.023C110.248 289.816 109.836 289.747 109.629 289.816L109.492 289.885C109.217 290.023 109.148 290.298 109.285 290.642C109.354 290.779 109.354 290.917 109.354 291.054C109.354 291.536 109.01 291.88 108.391 291.811C107.291 291.742 106.122 290.71 106.053 289.747C106.19 289.335 106.603 289.06 107.153 289.06Z" fill="#251725"/>
<path d="M61.1589 97.7578L58.339 99.4084C56.3445 100.578 56.9635 105.392 59.7146 110.206C62.4656 115.021 66.3858 117.978 68.3803 116.809L71.2002 115.158C69.2057 116.327 65.2854 113.37 62.5344 108.556C59.7833 103.741 59.1644 98.8582 61.1589 97.7578Z" fill="#8055BB" stroke="#251725" stroke-miterlimit="10" stroke-linecap="round" stroke-linejoin="round"/>
<path d="M69.8935 104.291C67.1425 99.4772 63.2222 96.5198 61.2277 97.689C59.2332 98.8582 59.8522 103.672 62.6032 108.487C65.3543 113.301 69.2745 116.258 71.269 115.089C73.2635 113.989 72.6445 109.106 69.8935 104.291Z" fill="#DF87F1" stroke="#251725" stroke-miterlimit="10" stroke-linecap="round" stroke-linejoin="round"/>
<mask id="mask1_2539_10587" style="mask-type:alpha" maskUnits="userSpaceOnUse" x="56" y="97" width="16" height="21">
<path d="M61.1589 97.7578L58.339 99.4084C56.3445 100.578 56.9635 105.392 59.7146 110.206C62.4656 115.021 66.3858 117.978 68.3803 116.809L71.2002 115.158C69.2057 116.327 65.2854 113.37 62.5344 108.556C59.7833 103.741 59.1644 98.8582 61.1589 97.7578Z" fill="#D9D9D9" stroke="#251725" stroke-miterlimit="10" stroke-linecap="round" stroke-linejoin="round"/>
</mask>
<g mask="url(#mask1_2539_10587)">
<path d="M62.3279 118.391L70.9249 113.439" stroke="#251725" stroke-miterlimit="10" stroke-linecap="round" stroke-linejoin="round"/>
<path d="M60.1958 114.677L68.7928 109.725" stroke="#251725" stroke-miterlimit="10" stroke-linecap="round" stroke-linejoin="round"/>
<path d="M57.9951 110.963L66.6609 106.011" stroke="#251725" stroke-miterlimit="10" stroke-linecap="round" stroke-linejoin="round"/>
<path d="M55.863 107.249L64.46 102.297" stroke="#251725" stroke-miterlimit="10" stroke-linecap="round" stroke-linejoin="round"/>
<path d="M53.731 103.535L62.328 98.5832" stroke="#251725" stroke-miterlimit="10" stroke-linecap="round" stroke-linejoin="round"/>
</g>
<path d="M61.1589 97.7578L58.339 99.4084C56.3445 100.578 56.9635 105.392 59.7146 110.206C62.4656 115.021 66.3858 117.978 68.3803 116.809L71.2002 115.158C69.2057 116.327 65.2854 113.37 62.5344 108.556C59.7833 103.741 59.1644 98.8582 61.1589 97.7578Z" stroke="#251725" stroke-miterlimit="10" stroke-linecap="round" stroke-linejoin="round"/>
<path d="M67.8302 108.074L67.2112 105.873L67.8302 105.048L67.4175 104.567L66.9361 105.048L66.042 102.091L64.6665 103.191L65.5605 106.561L64.3914 107.868L65.0791 108.556L65.8357 107.593L66.661 110.894L70.2373 107.18L69.8934 106.08L67.8302 108.074Z" fill="#251725"/>
<path d="M215.553 77.0588L214.246 79.3284C213.283 80.979 215.69 84.0739 219.542 86.2747C223.393 88.4756 227.313 89.0258 228.208 87.3752L229.514 85.1055C228.551 86.7562 224.7 86.206 220.849 84.0051C216.997 81.8043 214.59 78.7094 215.553 77.0588Z" fill="#DF87F1" stroke="#251725" stroke-miterlimit="10" stroke-linecap="round" stroke-linejoin="round"/>
<path d="M224.219 78.1592C220.367 75.9584 216.447 75.4082 215.553 77.0588C214.59 78.7094 216.997 81.8043 220.849 84.0052C224.7 86.206 228.62 86.7562 229.514 85.1056C230.477 83.5237 228.07 80.4288 224.219 78.1592Z" fill="url(#paint1_linear_2539_10587)" stroke="#251725" stroke-miterlimit="10" stroke-linecap="round" stroke-linejoin="round"/>
<mask id="mask2_2539_10587" style="mask-type:alpha" maskUnits="userSpaceOnUse" x="213" y="76" width="18" height="13">
<path d="M215.553 77.0588L214.246 79.3284C213.283 80.979 215.69 84.0739 219.542 86.2747C223.393 88.4756 227.313 89.0258 228.208 87.3752L229.514 85.1055C228.551 86.7562 224.7 86.206 220.849 84.0051C216.997 81.8043 214.59 78.7094 215.553 77.0588Z" fill="#D9D9D9" stroke="#251725" stroke-miterlimit="10" stroke-linecap="round" stroke-linejoin="round"/>
</mask>
<g mask="url(#mask2_2539_10587)">
<path d="M224.631 90.9515L228.62 84.0739" stroke="#251725" stroke-miterlimit="10" stroke-linecap="round" stroke-linejoin="round"/>
<path d="M220.642 88.6819L224.631 81.8043" stroke="#251725" stroke-miterlimit="10" stroke-linecap="round" stroke-linejoin="round"/>
<path d="M216.653 86.4123L220.642 79.466" stroke="#251725" stroke-miterlimit="10" stroke-linecap="round" stroke-linejoin="round"/>
<path d="M212.733 84.1427L216.722 77.1963" stroke="#251725" stroke-miterlimit="10" stroke-linecap="round" stroke-linejoin="round"/>
</g>
<path d="M215.553 77.0588L214.246 79.3284C213.283 80.979 215.69 84.0739 219.542 86.2747C223.393 88.4756 227.313 89.0258 228.208 87.3752L229.514 85.1055C228.551 86.7562 224.7 86.206 220.849 84.0051C216.997 81.8043 214.59 78.7094 215.553 77.0588Z" stroke="#251725" stroke-miterlimit="10" stroke-linecap="round" stroke-linejoin="round"/>
<path d="M220.505 78.9846C220.505 78.9846 219.679 79.6036 220.436 80.4977C221.261 81.4605 222.155 82.0795 221.811 83.1799C221.811 83.1799 222.499 82.9048 222.43 82.0795C222.293 81.3917 221.192 80.4289 220.917 80.0162C220.367 79.466 220.505 78.9846 220.505 78.9846Z" fill="#251725"/>
<path d="M223.806 78.9846C223.806 78.9846 222.981 79.6036 223.875 80.4977C224.769 81.4605 225.732 82.0107 225.525 83.1111C225.525 83.1111 226.213 82.836 226.007 82.0107C225.8 81.323 224.631 80.3601 224.287 79.9474C223.737 79.466 223.806 78.9846 223.806 78.9846Z" fill="#251725"/>
<path d="M221.811 78.3656C221.811 78.3656 220.78 79.1221 221.743 80.2225C222.774 81.3917 224.012 82.217 223.668 83.5925C223.668 83.5925 224.562 83.1799 224.356 82.217C224.15 81.3229 222.705 80.1537 222.293 79.6723C221.743 78.9845 221.811 78.3656 221.811 78.3656Z" fill="#251725"/>
<path d="M430.997 194.844L432.246 197.959C433.17 200.187 429.837 203.49 424.91 205.407C419.983 207.324 415.26 207.026 414.337 204.798L413.087 201.684C414.01 203.911 418.713 204.14 423.66 202.292C428.588 200.376 431.92 197.072 430.997 194.844Z" fill="#DF87F1" stroke="#251725" stroke-miterlimit="10" stroke-linecap="round" stroke-linejoin="round"/>
<path d="M420.521 194.384C425.447 192.468 430.169 192.766 431.092 194.992C432.016 197.219 428.684 200.521 423.758 202.437C418.832 204.352 414.11 204.055 413.187 201.828C412.329 199.585 415.595 196.3 420.521 194.384Z" fill="url(#paint2_linear_2539_10587)" stroke="#251725" stroke-miterlimit="10" stroke-linecap="round" stroke-linejoin="round"/>
<mask id="mask3_2539_10587" style="mask-type:alpha" maskUnits="userSpaceOnUse" x="412" y="194" width="21" height="14">
<path d="M431.083 194.847L432.301 197.907C433.203 200.095 429.828 203.39 424.871 205.335C419.913 207.279 415.184 207.036 414.283 204.848L413.065 201.788C413.966 203.976 418.675 204.15 423.652 202.275C428.609 200.33 431.984 197.035 431.083 194.847Z" fill="#D9D9D9" stroke="#251725" stroke-miterlimit="10" stroke-linecap="round" stroke-linejoin="round"/>
</mask>
<g mask="url(#mask3_2539_10587)">
<path d="M417.849 209.895L414.35 200.79" stroke="#251725" stroke-miterlimit="10" stroke-linecap="round" stroke-linejoin="round"/>
<path d="M421.727 208.423L418.228 199.319" stroke="#251725" stroke-miterlimit="10" stroke-linecap="round" stroke-linejoin="round"/>
<path d="M425.586 206.886L422.087 197.781" stroke="#251725" stroke-miterlimit="10" stroke-linecap="round" stroke-linejoin="round"/>
<path d="M429.512 205.333L425.964 196.307" stroke="#251725" stroke-miterlimit="10" stroke-linecap="round" stroke-linejoin="round"/>
<path d="M433.39 203.862L429.824 194.77" stroke="#251725" stroke-miterlimit="10" stroke-linecap="round" stroke-linejoin="round"/>
</g>
<path d="M430.87 194.841L432.166 198.022C433.122 200.298 429.851 203.611 424.968 205.494C420.085 207.377 415.371 207.013 414.415 204.738L413.119 201.557C414.075 203.832 418.769 204.125 423.673 202.313C428.556 200.43 431.827 197.117 430.87 194.841Z" stroke="#251725" stroke-miterlimit="10" stroke-linecap="round" stroke-linejoin="round"/>
<path d="M424.6 198.648C424.585 198.358 424.526 198.153 424.336 197.98C424.147 197.807 423.848 197.735 423.439 197.765C423.743 197.615 424.048 197.465 424.248 197.194C424.468 196.992 424.603 196.738 424.588 196.447C424.619 196.073 424.494 195.883 424.11 195.76C423.876 195.672 423.596 195.668 423.207 195.766L423.243 195.169L422.529 195.349L422.473 195.877L421.694 196.073L421.75 195.544L421.036 195.724L420.916 196.268L419.942 196.513L418.987 201.38L420.155 201.087L420.055 201.7L420.833 201.504L420.934 200.891L421.843 200.663L421.742 201.276L422.521 201.08L422.601 200.399C423.101 200.2 423.47 200.034 423.8 199.731C424.344 199.447 424.505 199.039 424.6 198.648ZM423.025 197.06C422.975 197.367 422.69 197.585 422.171 197.716L421.198 197.96L421.329 196.972L422.237 196.744C422.841 196.666 423.076 196.754 423.025 197.06ZM422.039 199.659L420.935 199.936L421.092 198.795L422.195 198.518C422.455 198.453 422.669 198.472 422.819 198.508C422.968 198.544 423.008 198.681 422.983 198.834C422.952 199.209 422.623 199.512 422.039 199.659Z" fill="#251725"/>
<path d="M188.029 112.995C192.328 105.368 181.984 91.7596 164.927 82.6005C147.869 73.4415 130.557 72.1999 126.258 79.8275C121.96 87.455 132.303 101.063 149.361 110.222C166.418 119.381 183.731 120.623 188.029 112.995Z" fill="url(#paint3_linear_2539_10587)" stroke="#251725" stroke-miterlimit="10" stroke-linecap="round" stroke-linejoin="round"/>
<path d="M184.774 109.702C188.135 103.733 178.792 92.4112 163.905 84.413C149.018 76.4148 134.225 74.7692 130.863 80.7376C127.502 86.7059 136.845 98.028 151.732 106.026C166.619 114.025 181.412 115.67 184.774 109.702Z" fill="url(#paint4_linear_2539_10587)" stroke="#251725" stroke-miterlimit="10" stroke-linecap="round" stroke-linejoin="round"/>
<path d="M136.209 89.7585C134.713 87.7748 133.738 85.8613 133.388 84.1745L136.209 89.7585Z" fill="#A499CE"/>
<path d="M136.209 89.7585C134.713 87.7748 133.738 85.8613 133.388 84.1745" stroke="#251725" stroke-miterlimit="10" stroke-linecap="round" stroke-linejoin="round"/>
<path d="M140.032 93.6194C139.515 93.1159 139.013 92.5418 138.496 92.0383L140.032 93.6194Z" fill="#A499CE"/>
<path d="M140.032 93.6194C139.515 93.1159 139.013 92.5418 138.496 92.0383" stroke="#251725" stroke-miterlimit="10" stroke-linecap="round" stroke-linejoin="round"/>
<path d="M141.085 85.0298L150.226 97.0938L159.535 95.347L156.029 86.4578L141.085 85.0298Z" fill="#251725"/>
<path d="M163.61 97.7278L154.201 99.379L176.085 104.728L159.992 88.7836L163.61 97.7278Z" fill="#251725"/>
<path d="M187.487 112.73L183.262 120.461C178.943 128.328 162.082 127.186 145.53 117.881C128.978 108.576 119.01 94.7265 123.263 86.8513L127.487 79.1203C123.168 86.9869 133.136 100.836 149.754 110.15C166.24 119.446 183.168 120.597 187.487 112.73Z" fill="url(#paint5_linear_2539_10587)"/>
<mask id="mask4_2539_10587" style="mask-type:alpha" maskUnits="userSpaceOnUse" x="121" y="78" width="68" height="49">
<path d="M187.882 113.01L183.759 120.561C179.544 128.244 162.544 126.898 145.716 117.526C128.889 108.153 118.614 94.3964 122.763 86.7042L126.886 79.1535C122.67 86.8364 132.945 100.593 149.839 109.975C166.6 119.338 183.667 120.693 187.882 113.01Z" fill="#D9D9D9" stroke="#251725" stroke-miterlimit="10" stroke-linecap="round" stroke-linejoin="round"/>
</mask>
<g mask="url(#mask4_2539_10587)">
<path d="M114.908 111.77L131.892 79.8515" stroke="#251725" stroke-miterlimit="10" stroke-linecap="round" stroke-linejoin="round"/>
<path d="M125.604 117.647L142.599 85.6609" stroke="#251725" stroke-miterlimit="10" stroke-linecap="round" stroke-linejoin="round"/>
<path d="M136.31 123.457L153.294 91.5384" stroke="#251725" stroke-miterlimit="10" stroke-linecap="round" stroke-linejoin="round"/>
<path d="M147.006 129.334L164.001 97.3478" stroke="#251725" stroke-miterlimit="10" stroke-linecap="round" stroke-linejoin="round"/>
<path d="M157.713 135.143L174.697 103.225" stroke="#251725" stroke-miterlimit="10" stroke-linecap="round" stroke-linejoin="round"/>
<path d="M168.477 141.032L185.472 109.045" stroke="#251725" stroke-miterlimit="10" stroke-linecap="round" stroke-linejoin="round"/>
</g>
<path d="M187.487 112.73L183.262 120.461C178.943 128.328 162.082 127.186 145.53 117.881C128.978 108.576 119.01 94.7265 123.263 86.8513L127.487 79.1203C123.168 86.9869 133.136 100.836 149.754 110.15C166.24 119.446 183.168 120.597 187.487 112.73Z" stroke="#251725" stroke-miterlimit="10" stroke-linecap="round" stroke-linejoin="round"/>
<path d="M299.347 385.018L235.183 380.489L287.644 286.574L347.374 256.537L434.276 305.547L299.347 385.018Z" fill="#8055BB"/>
<path d="M378.381 132.771L378.051 297.285L235.197 380.285L235.528 215.772L378.381 132.771Z" fill="#251725" stroke="#251725" stroke-miterlimit="10" stroke-linecap="round" stroke-linejoin="round"/>
<path d="M235.528 215.772L235.197 380.285L164.101 339.116L152.031 332.171L152.362 167.823L235.528 215.772Z" fill="url(#paint6_linear_2539_10587)" stroke="#251725" stroke-miterlimit="10" stroke-linecap="round" stroke-linejoin="round"/>
<path d="M378.381 132.771L235.528 215.772L152.361 167.823L295.215 84.8227L378.381 132.771Z" fill="#FBFBFF" stroke="#251725" stroke-miterlimit="10" stroke-linecap="round" stroke-linejoin="round"/>
<path d="M295.215 90.4443L368.461 132.771L365.154 134.921L295.05 94.4124L295.215 90.4443Z" fill="url(#paint7_linear_2539_10587)" stroke="#251725" stroke-miterlimit="10" stroke-linecap="round" stroke-linejoin="round"/>
<path d="M295.05 94.4124L165.589 169.642L162.282 167.823L295.215 90.4443L295.05 94.4124Z" fill="url(#paint8_linear_2539_10587)" stroke="#251725" stroke-miterlimit="10" stroke-linecap="round" stroke-linejoin="round"/>
<path d="M165.589 169.642L235.528 210.151L365.154 134.921L295.05 94.4124L165.589 169.642Z" fill="#EBEDFD"/>
<path d="M165.589 169.642L235.528 210.151L365.154 134.921L295.05 94.4124L165.589 169.642Z" fill="url(#paint9_linear_2539_10587)"/>
<path d="M165.589 169.642L235.528 210.151L365.154 134.921L295.05 94.4124L165.589 169.642Z" stroke="#251725" stroke-miterlimit="10" stroke-linecap="round" stroke-linejoin="round"/>
<path d="M312.576 144.345L323.323 138.228L323.158 131.779H326.63L333.078 138.228L322.331 144.345H312.576Z" fill="#A499CE"/>
<path d="M301.664 128.307V138.062L312.576 144.345L312.411 134.59L301.664 128.307Z" fill="#FBFBFF" stroke="#251725" stroke-miterlimit="10" stroke-linecap="round" stroke-linejoin="round"/>
<path d="M312.411 134.59L312.576 144.345L323.323 138.228L323.158 128.473L312.411 134.59Z" fill="url(#paint10_linear_2539_10587)" stroke="#251725" stroke-miterlimit="10" stroke-linecap="round" stroke-linejoin="round"/>
<path d="M301.664 128.307L312.411 134.59L323.158 128.473L312.411 122.024L301.664 128.307Z" fill="#FBFBFF" stroke="#251725" stroke-miterlimit="10" stroke-linecap="round" stroke-linejoin="round"/>
<path d="M314.229 136.574L319.024 133.929L321.504 132.441" stroke="#251725" stroke-miterlimit="10" stroke-linecap="round" stroke-linejoin="round"/>
<path d="M314.229 139.881L319.024 137.07L321.504 135.748" stroke="#251725" stroke-miterlimit="10" stroke-linecap="round" stroke-linejoin="round"/>
<path d="M310.757 136.574L305.797 133.929L303.482 132.441" stroke="#8055BB" stroke-miterlimit="10" stroke-linecap="round" stroke-linejoin="round"/>
<path d="M310.757 139.881L305.797 137.07L303.482 135.748" stroke="#8055BB" stroke-miterlimit="10" stroke-linecap="round" stroke-linejoin="round"/>
<path d="M282.98 126.985L293.727 120.702V114.419L297.034 114.254L303.482 120.702L292.735 126.985H282.98Z" fill="#A499CE"/>
<path d="M272.068 110.781L272.233 120.536L282.98 126.985V117.064L272.068 110.781Z" fill="#FBFBFF" stroke="#251725" stroke-miterlimit="10" stroke-linecap="round" stroke-linejoin="round"/>
<path d="M282.98 117.064V126.985L293.727 120.702V110.947L282.98 117.064Z" fill="url(#paint11_linear_2539_10587)" stroke="#251725" stroke-miterlimit="10" stroke-linecap="round" stroke-linejoin="round"/>
<path d="M272.068 110.781L282.98 117.064L293.727 110.947L282.815 104.498L272.068 110.781Z" fill="#FBFBFF" stroke="#251725" stroke-miterlimit="10" stroke-linecap="round" stroke-linejoin="round"/>
<path d="M284.799 119.214L289.594 116.403L291.908 115.08" stroke="#251725" stroke-miterlimit="10" stroke-linecap="round" stroke-linejoin="round"/>
<path d="M284.799 122.355L289.594 119.544L291.908 118.222" stroke="#251725" stroke-miterlimit="10" stroke-linecap="round" stroke-linejoin="round"/>
<path d="M281.161 119.214L276.367 116.403L274.052 115.08" stroke="#8055BB" stroke-miterlimit="10" stroke-linecap="round" stroke-linejoin="round"/>
<path d="M281.161 122.355L276.367 119.544L274.052 118.222" stroke="#8055BB" stroke-miterlimit="10" stroke-linecap="round" stroke-linejoin="round"/>
<path d="M274.879 166.17L285.626 160.053L285.46 153.604H288.932L295.381 160.053L284.634 166.17H274.879Z" fill="#A499CE"/>
<path d="M263.966 149.967V159.887L274.879 166.17L274.713 156.415L263.966 149.967Z" fill="#FBFBFF" stroke="#251725" stroke-miterlimit="10" stroke-linecap="round" stroke-linejoin="round"/>
<path d="M274.713 156.415L274.879 166.17L285.626 160.053L285.46 150.132L274.713 156.415Z" fill="url(#paint12_linear_2539_10587)" stroke="#251725" stroke-miterlimit="10" stroke-linecap="round" stroke-linejoin="round"/>
<path d="M263.966 149.967L274.713 156.415L285.46 150.132L274.713 143.849L263.966 149.967Z" fill="#FBFBFF" stroke="#251725" stroke-miterlimit="10" stroke-linecap="round" stroke-linejoin="round"/>
<path d="M276.532 158.399L281.327 155.588L283.641 154.266" stroke="#251725" stroke-miterlimit="10" stroke-linecap="round" stroke-linejoin="round"/>
<path d="M276.532 161.541L281.327 158.895L283.641 157.572" stroke="#251725" stroke-miterlimit="10" stroke-linecap="round" stroke-linejoin="round"/>
<path d="M272.894 158.399L268.1 155.588L265.785 154.266" stroke="#8055BB" stroke-miterlimit="10" stroke-linecap="round" stroke-linejoin="round"/>
<path d="M272.894 161.541L268.1 158.895L265.785 157.572" stroke="#8055BB" stroke-miterlimit="10" stroke-linecap="round" stroke-linejoin="round"/>
<path d="M245.283 148.644L256.03 142.527V136.078H259.337L265.785 142.527L255.038 148.644H245.283Z" fill="#A499CE"/>
<path d="M234.37 132.441L234.536 142.361L245.283 148.644V138.889L234.37 132.441Z" fill="#FBFBFF" stroke="#251725" stroke-miterlimit="10" stroke-linecap="round" stroke-linejoin="round"/>
<path d="M245.283 138.889V148.644L256.03 142.527V132.606L245.283 138.889Z" fill="url(#paint13_linear_2539_10587)" stroke="#251725" stroke-miterlimit="10" stroke-linecap="round" stroke-linejoin="round"/>
<path d="M234.37 132.441L245.283 138.889L256.03 132.606L245.117 126.323L234.37 132.441Z" fill="#FBFBFF" stroke="#251725" stroke-miterlimit="10" stroke-linecap="round" stroke-linejoin="round"/>
<path d="M247.101 140.873L251.896 138.062L254.211 136.74" stroke="#251725" stroke-miterlimit="10" stroke-linecap="round" stroke-linejoin="round"/>
<path d="M247.101 144.18L251.896 141.369L254.211 140.047" stroke="#251725" stroke-miterlimit="10" stroke-linecap="round" stroke-linejoin="round"/>
<path d="M243.464 140.873L238.669 138.062L236.354 136.74" stroke="#8055BB" stroke-miterlimit="10" stroke-linecap="round" stroke-linejoin="round"/>
<path d="M243.464 144.18L238.669 141.369L236.354 140.047" stroke="#8055BB" stroke-miterlimit="10" stroke-linecap="round" stroke-linejoin="round"/>
<path d="M237.181 187.995L247.928 181.712L247.763 175.429H251.235L257.683 181.877L246.936 187.995H237.181Z" fill="#A499CE"/>
<path d="M226.269 171.792V181.712L237.181 187.995L237.016 178.075L226.269 171.792Z" fill="#FBFBFF" stroke="#251725" stroke-miterlimit="10" stroke-linecap="round" stroke-linejoin="round"/>
<path d="M237.016 178.075L237.181 187.995L247.928 181.712L247.763 171.957L237.016 178.075Z" fill="url(#paint14_linear_2539_10587)" stroke="#251725" stroke-miterlimit="10" stroke-linecap="round" stroke-linejoin="round"/>
<path d="M226.269 171.792L237.016 178.075L247.763 171.957L237.016 165.674L226.269 171.792Z" fill="#FBFBFF" stroke="#251725" stroke-miterlimit="10" stroke-linecap="round" stroke-linejoin="round"/>
<path d="M238.834 180.224L243.629 177.413L245.944 176.091" stroke="#251725" stroke-miterlimit="10" stroke-linecap="round" stroke-linejoin="round"/>
<path d="M238.834 183.365L243.629 180.555L245.944 179.232" stroke="#251725" stroke-miterlimit="10" stroke-linecap="round" stroke-linejoin="round"/>
<path d="M235.197 180.224L230.402 177.413L228.087 176.091" stroke="#8055BB" stroke-miterlimit="10" stroke-linecap="round" stroke-linejoin="round"/>
<path d="M235.197 183.365L230.402 180.555L228.087 179.232" stroke="#8055BB" stroke-miterlimit="10" stroke-linecap="round" stroke-linejoin="round"/>
<path d="M207.585 170.469L218.332 164.352V157.903H221.639L228.087 164.352L217.34 170.469H207.585Z" fill="#A499CE"/>
<path d="M196.673 154.266L196.838 164.186L207.585 170.469V160.714L196.673 154.266Z" fill="#FBFBFF" stroke="#251725" stroke-miterlimit="10" stroke-linecap="round" stroke-linejoin="round"/>
<path d="M207.585 160.714V170.469L218.332 164.352V154.431L207.585 160.714Z" fill="url(#paint15_linear_2539_10587)" stroke="#251725" stroke-miterlimit="10" stroke-linecap="round" stroke-linejoin="round"/>
<path d="M196.673 154.266L207.585 160.714L218.332 154.431L207.42 148.148L196.673 154.266Z" fill="#FBFBFF" stroke="#251725" stroke-miterlimit="10" stroke-linecap="round" stroke-linejoin="round"/>
<path d="M209.404 162.698L214.199 159.887L216.513 158.565" stroke="#251725" stroke-miterlimit="10" stroke-linecap="round" stroke-linejoin="round"/>
<path d="M209.404 165.84L214.199 163.194L216.513 161.872" stroke="#251725" stroke-miterlimit="10" stroke-linecap="round" stroke-linejoin="round"/>
<path d="M205.766 162.698L200.971 159.887L198.657 158.565" stroke="#8055BB" stroke-miterlimit="10" stroke-linecap="round" stroke-linejoin="round"/>
<path d="M205.766 165.84L200.971 163.194L198.657 161.872" stroke="#8055BB" stroke-miterlimit="10" stroke-linecap="round" stroke-linejoin="round"/>
<path d="M367.469 148.313V161.706L373.586 158.234V144.841L367.469 148.313Z" fill="#8055BB"/>
<path d="M359.367 153.108V166.335L365.485 162.863V149.471L359.367 153.108Z" fill="#DF87F1"/>
<path d="M351.265 157.738V171.13L357.383 167.493V154.1L351.265 157.738Z" fill="#8055BB"/>
<path d="M340.684 164.021V177.413L346.801 173.776V160.383L340.684 164.021Z" fill="#8055BB"/>
<path d="M332.582 168.65V182.043L338.7 178.405V165.178L332.582 168.65Z" fill="#8055BB"/>
<path d="M324.48 173.279V186.672L330.598 183.2V169.807L324.48 173.279Z" fill="#8055BB"/>
<path d="M313.733 179.728L313.899 193.12L320.016 189.483V176.09L313.733 179.728Z" fill="#8055BB"/>
<path d="M305.632 184.357L305.797 197.75L311.915 194.112V180.72L305.632 184.357Z" fill="#DF87F1"/>
<path d="M297.53 188.987L297.695 202.379L303.813 198.742V185.349L297.53 188.987Z" fill="#8055BB"/>
<path d="M367.469 172.618V186.011L373.586 182.373V169.146L367.469 172.618Z" fill="#8055BB"/>
<path d="M359.367 177.248V190.64L365.485 187.168V173.775L359.367 177.248Z" fill="#8055BB"/>
<path d="M351.265 181.877V195.27L357.383 191.798V178.405L351.265 181.877Z" fill="#8055BB"/>
<path d="M340.684 188.325V201.718L346.801 198.081V184.688L340.684 188.325Z" fill="#8055BB"/>
<path d="M332.582 192.955V206.347L338.7 202.71V189.317L332.582 192.955Z" fill="#DF87F1"/>
<path d="M324.48 197.584V210.977L330.598 207.34V193.947L324.48 197.584Z" fill="#8055BB"/>
<path d="M313.733 204.033L313.899 217.425L320.016 213.788V200.395L313.733 204.033Z" fill="#8055BB"/>
<path d="M305.632 208.662L305.797 222.055L311.915 218.417V205.025L305.632 208.662Z" fill="#8055BB"/>
<path d="M297.53 213.292L297.695 226.684L303.813 223.047V209.654L297.53 213.292Z" fill="#8055BB"/>
<path d="M367.469 196.923V210.316L373.586 206.678V193.286L367.469 196.923Z" fill="#8055BB"/>
<path d="M359.367 201.553V214.945L365.485 211.308V198.081L359.367 201.553Z" fill="#8055BB"/>
<path d="M351.265 206.182V219.575L357.383 216.103V202.71L351.265 206.182Z" fill="#8055BB"/>
<path d="M340.684 212.631V226.023L346.801 222.386V208.993L340.684 212.631Z" fill="#8055BB"/>
<path d="M332.582 217.26V230.653L338.7 227.015V213.623L332.582 217.26Z" fill="#8055BB"/>
<path d="M324.48 221.89V235.282L330.598 231.645V218.252L324.48 221.89Z" fill="#8055BB"/>
<path d="M313.733 228.338L313.899 241.73L320.016 238.093V224.7L313.733 228.338Z" fill="#8055BB"/>
<path d="M305.632 232.967L305.797 246.36L311.915 242.722V229.33L305.632 232.967Z" fill="#8055BB"/>
<path d="M297.53 237.597L297.695 250.989L303.813 247.352V233.959L297.53 237.597Z" fill="#8055BB"/>
<path d="M367.469 231.149V244.541L373.586 241.069V227.677L367.469 231.149Z" fill="#8055BB"/>
<path d="M359.367 235.944V249.171L365.485 245.699V232.306L359.367 235.944Z" fill="#8055BB"/>
<path d="M351.265 240.573V253.966L357.383 250.328V236.936L351.265 240.573Z" fill="#8055BB"/>
<path d="M340.684 246.856V260.249L346.801 256.611V243.219L340.684 246.856Z" fill="#8055BB"/>
<path d="M332.582 251.486V264.878L338.699 261.241V248.013L332.582 251.486Z" fill="#DF87F1"/>
<path d="M324.48 256.115V269.508L330.598 266.036V252.643L324.48 256.115Z" fill="#8055BB"/>
<path d="M313.733 262.563L313.899 275.956L320.016 272.318V258.926L313.733 262.563Z" fill="#DF87F1"/>
<path d="M305.631 267.193L305.797 280.586L311.914 276.948V263.556L305.631 267.193Z" fill="#8055BB"/>
<path d="M297.53 271.822L297.695 285.215L303.813 281.577V268.185L297.53 271.822Z" fill="#8055BB"/>
<path d="M367.469 255.454V268.846L373.586 265.209V251.982L367.469 255.454Z" fill="#8055BB"/>
<path d="M359.367 260.083V273.476L365.485 270.004V256.611L359.367 260.083Z" fill="#8055BB"/>
<path d="M351.265 264.713V278.105L357.383 274.633V261.241L351.265 264.713Z" fill="#8055BB"/>
<path d="M340.684 271.161V284.553L346.801 280.916V267.523L340.684 271.161Z" fill="#8055BB"/>
<path d="M332.582 275.79V289.183L338.699 285.546V272.153L332.582 275.79Z" fill="#8055BB"/>
<path d="M324.48 280.42V293.812L330.598 290.175V276.782L324.48 280.42Z" fill="#8055BB"/>
<path d="M313.733 286.868L313.899 300.261L320.016 296.623V283.231L313.733 286.868Z" fill="#8055BB"/>
<path d="M305.631 291.498L305.797 304.89L311.914 301.253V287.86L305.631 291.498Z" fill="#8055BB"/>
<path d="M297.53 296.127L297.695 309.52L303.813 305.882V292.49L297.53 296.127Z" fill="#8055BB"/>
<path d="M367.469 279.759V293.151L373.586 289.514V276.121L367.469 279.759Z" fill="#DF87F1"/>
<path d="M359.367 284.388V297.781L365.485 294.143V280.916L359.367 284.388Z" fill="#8055BB"/>
<path d="M351.265 289.018V302.41L357.383 298.938V285.546L351.265 289.018Z" fill="#8055BB"/>
<path d="M340.684 295.466V308.859L346.801 305.221V291.829L340.684 295.466Z" fill="#8055BB"/>
<path d="M332.582 300.095V313.488L338.699 309.851V296.458L332.582 300.095Z" fill="#DF87F1"/>
<path d="M324.48 304.725V318.118L330.598 314.48V301.088L324.48 304.725Z" fill="#8055BB"/>
<path d="M313.733 311.173L313.899 324.566L320.016 320.928V307.536L313.733 311.173Z" fill="#8055BB"/>
<path d="M305.631 315.803L305.797 329.195L311.914 325.558V312.165L305.631 315.803Z" fill="#8055BB"/>
<path d="M297.53 320.433L297.695 333.825L303.813 330.188V316.795L297.53 320.433Z" fill="#8055BB"/>
<path d="M179.312 204.198V217.591L173.029 213.953V200.561L179.312 204.198Z" fill="#DF87F1"/>
<path d="M187.414 208.828V222.22L181.131 218.583V205.19L187.414 208.828Z" fill="#251725"/>
<path d="M195.515 213.457V226.85L189.232 223.378V209.985L195.515 213.457Z" fill="#DF87F1"/>
<path d="M203.617 218.087V231.479L197.334 228.007V214.615L203.617 218.087Z" fill="#251725"/>
<path d="M211.719 222.716V236.109L205.436 232.637V219.244L211.719 222.716Z" fill="#DF87F1"/>
<path d="M179.312 220.567V233.959L173.029 230.322V216.929L179.312 220.567Z" fill="#DF87F1"/>
<path d="M187.414 225.196V238.589L181.131 235.117V221.724L187.414 225.196Z" fill="#DF87F1"/>
<path d="M195.515 229.826V243.218L189.232 239.746V226.354L195.515 229.826Z" fill="#251725"/>
<path d="M203.617 234.455V247.848L197.334 244.376V230.983L203.617 234.455Z" fill="#DF87F1"/>
<path d="M211.719 239.25V252.643L205.436 249.005V235.613L211.719 239.25Z" fill="#DF87F1"/>
<path d="M179.312 236.936V250.328L173.029 246.856V233.463L179.312 236.936Z" fill="#251725"/>
<path d="M187.414 241.565V254.958L181.131 251.485V238.093L187.414 241.565Z" fill="#DF87F1"/>
<path d="M195.515 246.195V259.587L189.232 256.115V242.722L195.515 246.195Z" fill="#DF87F1"/>
<path d="M203.617 250.99V264.382L197.334 260.745V247.352L203.617 250.99Z" fill="#251725"/>
<path d="M211.719 255.619V269.011L205.436 265.374V251.981L211.719 255.619Z" fill="#DF87F1"/>
<path d="M179.312 253.304V266.697L173.029 263.225V249.832L179.312 253.304Z" fill="#DF87F1"/>
<path d="M187.414 258.099V271.326L181.131 267.854V254.462L187.414 258.099Z" fill="#DF87F1"/>
<path d="M195.515 262.729V276.121L189.232 272.484V259.091L195.515 262.729Z" fill="#DF87F1"/>
<path d="M203.617 267.358V280.751L197.334 277.113V263.721L203.617 267.358Z" fill="#DF87F1"/>
<path d="M211.719 271.988V285.38L205.436 281.743V268.35L211.719 271.988Z" fill="#DF87F1"/>
<path d="M225.276 310.843L225.111 332.668L157.983 293.813L158.148 272.153L225.276 310.843Z" fill="url(#paint16_linear_2539_10587)" stroke="#251725" stroke-miterlimit="10" stroke-linecap="round" stroke-linejoin="round"/>
<path d="M253.219 359.949L244.456 365.074V219.409L253.219 214.284V359.949Z" fill="url(#paint17_linear_2539_10587)"/>
<path d="M253.219 359.949L244.456 365.074V219.409L253.219 214.284V359.949Z" fill="url(#paint18_linear_2539_10587)"/>
<path d="M256.526 212.3L265.454 207.34V352.839L256.691 357.964L256.526 212.3Z" fill="url(#paint19_linear_2539_10587)"/>
<path d="M256.526 212.3L265.454 207.34V352.839L256.691 357.964L256.526 212.3Z" fill="url(#paint20_linear_2539_10587)"/>
<path d="M268.761 205.356L277.524 200.23V345.895L268.761 350.855V205.356Z" fill="url(#paint21_linear_2539_10587)"/>
<path d="M268.761 205.356L277.524 200.23V345.895L268.761 350.855V205.356Z" fill="url(#paint22_linear_2539_10587)"/>
<path d="M289.759 338.785L280.996 343.745L280.831 198.246L289.759 193.12V338.785Z" fill="url(#paint23_linear_2539_10587)"/>
<path d="M179.973 345.895V348.375L164.1 339.116L166.25 337.958L179.973 345.895Z" fill="#251725"/>
<path d="M166.25 312.331V337.958L164.1 339.116V311.173L166.25 312.331Z" fill="#251725"/>
<path d="M180.138 320.267L179.973 345.895V348.375L164.1 339.116V311.173L166.25 312.331L180.138 320.267Z" stroke="#251725" stroke-miterlimit="10" stroke-linecap="round" stroke-linejoin="round"/>
<path d="M174.021 316.795V342.588" stroke="#251725" stroke-miterlimit="10" stroke-linecap="round" stroke-linejoin="round"/>
<path d="M199.979 357.469V359.949L184.107 350.855L186.256 349.532L199.979 357.469Z" fill="#251725"/>
<path d="M186.256 323.905V349.532L184.107 350.855V322.747L186.256 323.905Z" fill="#251725"/>
<path d="M200.145 331.841L199.979 357.469V359.949L184.107 350.855V322.747L186.256 323.905L200.145 331.841Z" stroke="#251725" stroke-miterlimit="10" stroke-linecap="round" stroke-linejoin="round"/>
<path d="M194.027 328.369V354.162" stroke="#251725" stroke-miterlimit="10" stroke-linecap="round" stroke-linejoin="round"/>
<path d="M220.151 369.042V371.522L204.113 362.429L206.262 361.106L220.151 369.042Z" fill="#251725"/>
<path d="M206.262 335.644V361.106L204.113 362.429V334.321L206.262 335.644Z" fill="#251725"/>
<path d="M220.151 343.415V369.042V371.523L204.113 362.429V334.321L206.262 335.644L220.151 343.415Z" stroke="#251725" stroke-miterlimit="10" stroke-linecap="round" stroke-linejoin="round"/>
<path d="M214.033 340.108V365.901" stroke="#251725" stroke-miterlimit="10" stroke-linecap="round" stroke-linejoin="round"/>
<path d="M262.378 69.2829H256.978L254.211 74.0079L256.978 78.7329H262.378L265.146 74.0079L262.378 69.2829Z" stroke="#A499CE" stroke-miterlimit="10" stroke-linecap="round" stroke-linejoin="round"/>
<path d="M409.743 242.531H404.343L401.575 247.256L404.343 251.981H409.743L412.51 247.256L409.743 242.531Z" stroke="#A499CE" stroke-miterlimit="10" stroke-linecap="round" stroke-linejoin="round"/>
<path d="M456.766 166.405H451.366L448.598 171.13L451.366 175.855H456.766L459.533 171.13L456.766 166.405Z" stroke="#A499CE" stroke-miterlimit="10" stroke-linecap="round" stroke-linejoin="round"/>
<path d="M134.394 267.987H128.994L126.227 272.712L128.994 277.437H134.394L137.162 272.712L134.394 267.987Z" stroke="#A499CE" stroke-miterlimit="10" stroke-linecap="round" stroke-linejoin="round"/>
<path d="M284.677 49.6749H278.939L276.037 54.6699L278.939 59.6649H284.677L287.512 54.6699L284.677 49.6749Z" stroke="#A499CE" stroke-miterlimit="10" stroke-linecap="round" stroke-linejoin="round"/>
<path d="M426.923 220.119H416.343L410.991 229.33L416.343 238.541H426.923L432.151 229.33L426.923 220.119Z" stroke="#A499CE" stroke-miterlimit="10" stroke-linecap="round" stroke-linejoin="round"/>
<path d="M186.675 62.0267H178.305L174.12 69.2491L178.305 76.5392H186.675L190.86 69.2491L186.675 62.0267Z" stroke="#A499CE" stroke-miterlimit="10" stroke-linecap="round" stroke-linejoin="round"/>
<path d="M405.455 373.559L414.365 373.559L418.888 365.864L414.365 358.169L405.455 358.169L401 365.864L405.455 373.559Z" stroke="#A499CE" stroke-miterlimit="10" stroke-linecap="round" stroke-linejoin="round"/>
<path d="M403.366 102.167H394.456L389.933 109.862L394.456 117.557H403.366L407.821 109.862L403.366 102.167Z" stroke="#A499CE" stroke-miterlimit="10" stroke-linecap="round" stroke-linejoin="round"/>
<path d="M474.272 297.964L477.85 297.964L479.672 294.859L477.85 291.686L474.272 291.686L472.45 294.859L474.272 297.964Z" stroke="#A499CE" stroke-miterlimit="10" stroke-linecap="round" stroke-linejoin="round"/>
<path d="M423.612 353.781L427.257 353.781L429.08 350.676L427.257 347.571L423.612 347.571L421.857 350.676L423.612 353.781Z" stroke="#A499CE" stroke-miterlimit="10" stroke-linecap="round" stroke-linejoin="round"/>
<path d="M391.789 124.831H388.144L386.322 127.936L388.144 131.041H391.789L393.544 127.936L391.789 124.831Z" stroke="#A499CE" stroke-miterlimit="10" stroke-linecap="round" stroke-linejoin="round"/>
<path d="M404.073 345.726L409.135 345.726L411.633 341.406L409.135 337.018L404.073 337.018L401.575 341.406L404.073 345.726Z" stroke="#A499CE" stroke-miterlimit="10" stroke-linecap="round" stroke-linejoin="round"/>
<path d="M407.469 136.134H402.406L399.909 140.454L402.406 144.841H407.469L409.966 140.454L407.469 136.134Z" stroke="#A499CE" stroke-miterlimit="10" stroke-linecap="round" stroke-linejoin="round"/>
<path d="M139.37 406.881L148.28 406.881L152.802 399.186L148.28 391.491L139.37 391.491L134.915 399.186L139.37 406.881Z" stroke="#A499CE" stroke-miterlimit="10" stroke-linecap="round" stroke-linejoin="round"/>
<path d="M171.251 134.08H162.341L157.819 141.775L162.341 149.47H171.251L175.706 141.775L171.251 134.08Z" stroke="#A499CE" stroke-miterlimit="10" stroke-linecap="round" stroke-linejoin="round"/>
<path d="M60.9208 304.143L64.4983 304.143L66.3208 301.038L64.4983 297.866L60.9208 297.866L59.0983 301.038L60.9208 304.143Z" stroke="#A499CE" stroke-miterlimit="10" stroke-linecap="round" stroke-linejoin="round"/>
<path d="M138.427 306.706L142.072 306.706L143.894 303.601L142.072 300.496L138.427 300.496L136.672 303.601L138.427 306.706Z" stroke="#A499CE" stroke-miterlimit="10" stroke-linecap="round" stroke-linejoin="round"/>
<path d="M147.084 154.1H143.439L141.617 157.205L143.439 160.31H147.084L148.839 157.205L147.084 154.1Z" stroke="#A499CE" stroke-miterlimit="10" stroke-linecap="round" stroke-linejoin="round"/>
<path d="M59.7545 150.821L64.817 150.821L67.3145 146.501L64.817 142.113L59.7545 142.113L57.257 146.501L59.7545 150.821Z" stroke="#A499CE" stroke-miterlimit="10" stroke-linecap="round" stroke-linejoin="round"/>
<path d="M118.536 108.329H113.473L110.976 112.649L113.473 117.036H118.536L121.033 112.649L118.536 108.329Z" stroke="#A499CE" stroke-miterlimit="10" stroke-linecap="round" stroke-linejoin="round"/>
<path d="M345.567 429.927L326.997 419.235V358.572L345.792 369.826L345.567 429.927Z" fill="url(#paint24_linear_2539_10587)" stroke="#251725" stroke-miterlimit="10" stroke-linecap="round" stroke-linejoin="round"/>
<path d="M269.822 329.309V358.009V386.259L326.997 419.235V351.256L269.822 329.309Z" fill="url(#paint25_linear_2539_10587)" stroke="#251725" stroke-miterlimit="10" stroke-linecap="round" stroke-linejoin="round"/>
<path d="M341.74 383.782V405.279L331.724 399.652V378.042L341.74 383.782Z" fill="url(#paint26_linear_2539_10587)" stroke="#251725" stroke-miterlimit="10" stroke-linecap="round" stroke-linejoin="round"/>
<path d="M335.213 380.181V401.453" stroke="#251725" stroke-miterlimit="10" stroke-linecap="round" stroke-linejoin="round"/>
<path d="M370.778 327.058L390.812 343.49V404.154L362.787 420.361L345.905 430.152V401.903V369.489L370.778 327.058Z" fill="#251725" stroke="#251725" stroke-miterlimit="10" stroke-linecap="round" stroke-linejoin="round"/>
<path d="M342.866 371.515L268.021 328.296L295.145 281.701L369.878 324.807L342.866 371.515Z" fill="url(#paint27_linear_2539_10587)" stroke="#251725" stroke-miterlimit="10" stroke-linecap="round" stroke-linejoin="round"/>
<path d="M307.188 430.715L298.635 425.763L272.748 410.907V350.243L292.557 338.763L307.188 370.164V430.715Z" fill="url(#paint28_linear_2539_10587)" stroke="#251725" stroke-miterlimit="10" stroke-linecap="round" stroke-linejoin="round"/>
<path d="M342.866 371.515L345.792 369.826L355.471 353.057L369.878 328.184L390.699 343.828L393.175 342.365L369.878 324.807L355.471 349.68L342.866 371.515Z" fill="#DF87F1" stroke="#251725" stroke-miterlimit="10" stroke-linecap="round" stroke-linejoin="round"/>
<path d="M383.946 390.873L355.922 406.967V374.666L383.946 358.572V390.873Z" fill="url(#paint29_linear_2539_10587)" stroke="#251725" stroke-miterlimit="10" stroke-linecap="round" stroke-linejoin="round"/>
<path d="M373.367 364.649V396.838" stroke="#251725" stroke-miterlimit="10" stroke-linecap="round" stroke-linejoin="round"/>
<path d="M298.635 393.462V425.763L279.951 415.071V382.769L284.341 385.246L298.635 393.462Z" fill="#DF87F1" stroke="#251725" stroke-miterlimit="10" stroke-linecap="round" stroke-linejoin="round"/>
<path d="M326.997 419.235L307.188 430.715V370.164L326.997 358.684V419.235Z" fill="#251725" stroke="#251725" stroke-miterlimit="10" stroke-linecap="round" stroke-linejoin="round"/>
<path d="M270.272 351.819L272.748 353.169L289.293 340.339L308.539 373.766L311.352 375.342L289.293 337.075L270.272 351.819Z" fill="#DF87F1" stroke="#251725" stroke-miterlimit="10" stroke-linecap="round" stroke-linejoin="round"/>
<path d="M289.293 337.075L311.352 375.341L325.871 366.9L330.486 364.312L308.539 326.045L289.293 337.075Z" fill="#EBEDFD" stroke="#251725" stroke-miterlimit="10" stroke-linecap="round" stroke-linejoin="round"/>
<path d="M289.293 372.19C286.592 370.614 284.341 371.852 284.341 375.004C284.341 378.155 286.592 381.982 289.293 383.557C291.994 385.133 294.245 383.895 294.245 380.744C294.358 377.592 292.107 373.766 289.293 372.19V383.557V372.19Z" fill="url(#paint30_linear_2539_10587)"/>
<path d="M289.293 372.19C286.592 370.614 284.341 371.852 284.341 375.004C284.341 378.155 286.592 381.982 289.293 383.557C291.994 385.133 294.245 383.895 294.245 380.744C294.358 377.592 292.107 373.766 289.293 372.19ZM289.293 372.19V383.557" stroke="#251725" stroke-miterlimit="10" stroke-linecap="round" stroke-linejoin="round"/>
<path d="M294.245 380.744L284.341 375.004" stroke="#251725" stroke-miterlimit="10" stroke-linecap="round" stroke-linejoin="round"/>
<path d="M284.341 385.246V417.547" stroke="#251725" stroke-miterlimit="10" stroke-linecap="round" stroke-linejoin="round"/>
<path d="M286.93 401.34V403.141" stroke="#251725" stroke-miterlimit="10" stroke-linecap="round" stroke-linejoin="round"/>
<path d="M337.464 342.477L346.918 337.075L337.464 331.56L328.01 337.075L337.464 342.477Z" stroke="#251725" stroke-miterlimit="10" stroke-linecap="round" stroke-linejoin="round"/>
<path d="M337.464 329.196L346.918 323.794L337.464 318.279L328.01 323.794L337.464 329.196Z" stroke="#251725" stroke-miterlimit="10" stroke-linecap="round" stroke-linejoin="round"/>
<path d="M342.416 323.794L337.464 320.868L332.512 323.794L337.464 326.608L342.416 323.794Z" fill="url(#paint31_linear_2539_10587)" stroke="#251725" stroke-miterlimit="10" stroke-linecap="round" stroke-linejoin="round"/>
<path d="M337.464 329.196V353.394L346.918 337.075V323.794L337.464 329.196Z" fill="url(#paint32_linear_2539_10587)" stroke="#251725" stroke-miterlimit="10" stroke-linecap="round" stroke-linejoin="round"/>
<path d="M328.01 323.794L337.464 329.196V353.394L328.01 347.992V323.794Z" fill="#EBEDFD" stroke="#251725" stroke-miterlimit="10" stroke-linecap="round" stroke-linejoin="round"/>
<path d="M300.21 306.011L309.777 300.497L300.21 295.094L290.756 300.497L300.21 306.011Z" stroke="#251725" stroke-miterlimit="10" stroke-linecap="round" stroke-linejoin="round"/>
<path d="M305.275 300.497L300.21 297.683L295.258 300.497L300.21 303.423L305.275 300.497Z" fill="url(#paint33_linear_2539_10587)" stroke="#251725" stroke-miterlimit="10" stroke-linecap="round" stroke-linejoin="round"/>
<path d="M300.21 306.012V330.209L309.777 313.777V300.497L300.21 306.012Z" fill="url(#paint34_linear_2539_10587)" stroke="#251725" stroke-miterlimit="10" stroke-linecap="round" stroke-linejoin="round"/>
<path d="M290.756 300.497L300.21 306.012V330.209L290.756 324.695V300.497Z" fill="#EBEDFD" stroke="#251725" stroke-miterlimit="10" stroke-linecap="round" stroke-linejoin="round"/>
<path d="M307.188 424.3L326.997 412.82" stroke="#251725" stroke-miterlimit="10" stroke-linecap="round" stroke-linejoin="round"/>
<path d="M345.905 423.737L326.997 412.82" stroke="#251725" stroke-miterlimit="10" stroke-linecap="round" stroke-linejoin="round"/>
<path d="M370.665 413.608L371.453 413.158L370.665 413.608Z" fill="#A499CE"/>
<path d="M132.255 353.69C147.641 362.554 147.743 377.023 132.459 385.887C117.176 394.752 92.3144 394.752 76.929 385.887C61.5435 377.023 61.4416 362.554 76.7252 353.69C92.0087 344.826 116.87 344.826 132.255 353.69Z" fill="#8055BB" stroke="#8055BB" stroke-miterlimit="10" stroke-linecap="round" stroke-linejoin="round"/>
<path d="M122.882 369.076V359.6H118.5C116.666 357.562 114.323 355.626 111.368 353.894C95.9825 345.029 71.1213 345.029 55.8378 353.894C52.8829 355.626 50.5395 357.562 48.7054 359.6H44.426V369.076C44.426 369.687 44.426 370.196 44.426 370.808V370.91C44.8336 376.412 48.6035 381.914 55.9396 386.193C71.3251 395.058 96.1863 395.058 111.47 386.193C119.621 381.506 123.391 375.189 122.882 369.076Z" fill="#EBEDFD"/>
<path d="M122.882 369.076V359.6H118.5C116.666 357.562 114.323 355.626 111.368 353.894C95.9825 345.029 71.1213 345.029 55.8378 353.894C52.8829 355.626 50.5395 357.562 48.7054 359.6H44.426V369.076C44.426 369.687 44.426 370.196 44.426 370.808V370.91C44.8336 376.412 48.6035 381.914 55.9396 386.193C71.3251 395.058 96.1863 395.058 111.47 386.193C119.621 381.506 123.391 375.189 122.882 369.076Z" fill="url(#paint35_linear_2539_10587)"/>
<path d="M122.882 369.076V359.6H118.5C116.666 357.562 114.323 355.626 111.368 353.894C95.9825 345.029 71.1213 345.029 55.8378 353.894C52.8829 355.626 50.5395 357.562 48.7054 359.6H44.426V369.076C44.426 369.687 44.426 370.196 44.426 370.808V370.91C44.8336 376.412 48.6035 381.914 55.9396 386.193C71.3251 395.058 96.1863 395.058 111.47 386.193C119.621 381.506 123.391 375.189 122.882 369.076Z" stroke="#251725" stroke-miterlimit="10" stroke-linecap="round" stroke-linejoin="round"/>
<path d="M111.368 344.622C126.753 353.486 126.855 367.955 111.571 376.819C96.2879 385.684 71.4267 385.684 56.0413 376.819C40.6558 367.955 40.554 353.486 55.8375 344.622C71.121 335.655 95.9823 335.655 111.368 344.622Z" fill="#EBEDFD" stroke="#251725" stroke-miterlimit="10" stroke-linecap="round" stroke-linejoin="round"/>
<path d="M106.477 346.252C119.112 353.385 119.214 364.898 106.579 371.929C93.9447 379.061 73.4648 379.061 60.8304 371.929C48.196 364.796 48.0941 353.283 60.7285 346.252C73.3629 339.12 93.8428 339.12 106.477 346.252Z" fill="#A499CE" stroke="#251725" stroke-miterlimit="10" stroke-linecap="round" stroke-linejoin="round"/>
<path d="M49.928 372.234V380.997" stroke="#251725" stroke-miterlimit="10" stroke-linecap="round" stroke-linejoin="round"/>
<path d="M59.0981 378.348V387.722" stroke="#251725" stroke-miterlimit="10" stroke-linecap="round" stroke-linejoin="round"/>
<path d="M71.427 382.219V391.491" stroke="#251725" stroke-miterlimit="10" stroke-linecap="round" stroke-linejoin="round"/>
<path d="M85.8953 383.34V392.816" stroke="#251725" stroke-miterlimit="10" stroke-linecap="round" stroke-linejoin="round"/>
<path d="M99.9563 381.404V390.778" stroke="#251725" stroke-miterlimit="10" stroke-linecap="round" stroke-linejoin="round"/>
<path d="M111.572 376.717V386.193" stroke="#251725" stroke-miterlimit="10" stroke-linecap="round" stroke-linejoin="round"/>
<path d="M120.436 368.872V378.246" stroke="#251725" stroke-miterlimit="10" stroke-linecap="round" stroke-linejoin="round"/>
<path d="M99.345 350.532L96.1864 352.366C97.511 353.283 98.428 354.301 99.0393 355.32L99.4469 356.034L92.8241 358.173L92.2127 357.154C91.7032 356.339 90.99 355.32 89.156 354.2C88.5446 353.894 87.0163 353.079 85.8955 353.69C85.386 353.996 85.3861 354.607 87.0163 356.849C89.6655 360.211 89.3598 362.555 85.9974 364.49C82.7369 366.426 77.9481 366.63 73.6687 365.204L70.1025 367.343L65.1099 364.49L68.3704 362.555C66.7401 361.332 65.4156 360.007 65.008 358.886L64.8042 358.275L71.529 356.135L72.0384 357.256C72.6498 358.581 73.7706 359.804 75.2989 360.619C76.4197 361.23 78.1518 361.739 79.1707 361.128C79.7821 360.721 80.1897 360.109 78.5594 358.173C76.6235 355.83 74.8913 352.773 78.9669 350.43C82.0237 348.596 86.6088 348.392 90.7863 349.716L94.2505 347.679L99.345 350.532Z" fill="#251725"/>
<path d="M122.882 360.924V351.448H118.5C116.666 349.411 114.323 347.475 111.368 345.742C95.9825 336.878 71.1213 336.878 55.8378 345.742C52.8829 347.475 50.5395 349.411 48.7054 351.448H44.426V360.924C44.426 361.535 44.426 362.045 44.426 362.656V362.758C44.8336 368.26 48.6035 373.762 55.9396 378.042C71.3251 386.906 96.1863 386.906 111.47 378.042C119.621 373.253 123.391 367.038 122.882 360.924Z" fill="#EBEDFD"/>
<path d="M122.882 360.924V351.448H118.5C116.666 349.411 114.323 347.475 111.368 345.742C95.9825 336.878 71.1213 336.878 55.8378 345.742C52.8829 347.475 50.5395 349.411 48.7054 351.448H44.426V360.924C44.426 361.535 44.426 362.045 44.426 362.656V362.758C44.8336 368.26 48.6035 373.762 55.9396 378.042C71.3251 386.906 96.1863 386.906 111.47 378.042C119.621 373.253 123.391 367.038 122.882 360.924Z" fill="url(#paint36_linear_2539_10587)"/>
<path d="M122.882 360.924V351.448H118.5C116.666 349.411 114.323 347.475 111.368 345.742C95.9825 336.878 71.1213 336.878 55.8378 345.742C52.8829 347.475 50.5395 349.411 48.7054 351.448H44.426V360.924C44.426 361.535 44.426 362.045 44.426 362.656V362.758C44.8336 368.26 48.6035 373.762 55.9396 378.042C71.3251 386.906 96.1863 386.906 111.47 378.042C119.621 373.253 123.391 367.038 122.882 360.924Z" stroke="#251725" stroke-miterlimit="10" stroke-linecap="round" stroke-linejoin="round"/>
<path d="M111.368 336.369C126.753 345.233 126.855 359.702 111.571 368.566C96.2879 377.43 71.4267 377.43 56.0413 368.566C40.6558 359.702 40.554 345.233 55.8375 336.369C71.121 327.504 95.9823 327.504 111.368 336.369Z" fill="#EBEDFD"/>
<path d="M111.368 336.369C126.753 345.233 126.855 359.702 111.571 368.566C96.2879 377.43 71.4267 377.43 56.0413 368.566C40.6558 359.702 40.554 345.233 55.8375 336.369C71.121 327.504 95.9823 327.504 111.368 336.369Z" fill="url(#paint37_linear_2539_10587)"/>
<path d="M111.368 336.369C126.753 345.233 126.855 359.702 111.571 368.566C96.2879 377.43 71.4267 377.43 56.0413 368.566C40.6558 359.702 40.554 345.233 55.8375 336.369C71.121 327.504 95.9823 327.504 111.368 336.369Z" stroke="#251725" stroke-miterlimit="10" stroke-linecap="round" stroke-linejoin="round"/>
<path d="M106.477 338.101C119.112 345.233 119.214 356.747 106.579 363.777C93.9447 370.909 73.4648 370.909 60.8304 363.777C48.196 356.645 48.0941 345.131 60.7285 338.101C73.3629 330.968 93.8428 330.968 106.477 338.101Z" fill="#A499CE"/>
<path d="M106.477 338.101C119.112 345.233 119.214 356.747 106.579 363.777C93.9447 370.909 73.4648 370.909 60.8304 363.777C48.196 356.645 48.0941 345.131 60.7285 338.101C73.3629 330.968 93.8428 330.968 106.477 338.101Z" fill="url(#paint38_linear_2539_10587)"/>
<path d="M106.477 338.101C119.112 345.233 119.214 356.747 106.579 363.777C93.9447 370.909 73.4648 370.909 60.8304 363.777C48.196 356.645 48.0941 345.131 60.7285 338.101C73.3629 330.968 93.8428 330.968 106.477 338.101Z" stroke="#251725" stroke-miterlimit="10" stroke-linecap="round" stroke-linejoin="round"/>
<path d="M49.928 364.083V372.845" stroke="#251725" stroke-miterlimit="10" stroke-linecap="round" stroke-linejoin="round"/>
<path d="M59.0981 370.196V379.57" stroke="#251725" stroke-miterlimit="10" stroke-linecap="round" stroke-linejoin="round"/>
<path d="M71.427 374.068V383.34" stroke="#251725" stroke-miterlimit="10" stroke-linecap="round" stroke-linejoin="round"/>
<path d="M85.8953 375.189V384.563" stroke="#251725" stroke-miterlimit="10" stroke-linecap="round" stroke-linejoin="round"/>
<path d="M99.9563 373.253V382.627" stroke="#251725" stroke-miterlimit="10" stroke-linecap="round" stroke-linejoin="round"/>
<path d="M111.572 368.566V377.94" stroke="#251725" stroke-miterlimit="10" stroke-linecap="round" stroke-linejoin="round"/>
<path d="M120.436 360.618V370.094" stroke="#251725" stroke-miterlimit="10" stroke-linecap="round" stroke-linejoin="round"/>
<path d="M99.345 342.38L96.1864 344.214C97.511 345.131 98.428 346.15 99.0393 347.169L99.4469 347.882L92.8241 350.022L92.2127 349.003C91.7032 348.188 90.99 347.169 89.156 346.048C88.5446 345.743 87.0163 344.927 85.8955 345.539C85.386 345.844 85.3861 346.456 87.0163 348.697C89.6655 352.06 89.3598 354.403 85.9974 356.339C82.7369 358.275 77.9481 358.479 73.6687 357.052L70.1025 359.192L65.1099 356.339L68.3704 354.403C66.7401 353.181 65.4156 351.856 65.008 350.735L64.8042 350.124L71.529 347.984L72.0384 349.105C72.6498 350.429 73.7706 351.652 75.2989 352.467C76.4197 353.079 78.1518 353.588 79.1707 352.977C79.7821 352.569 80.1897 351.958 78.5594 350.022C76.6235 347.678 74.8913 344.622 78.9669 342.278C82.0237 340.444 86.6088 340.24 90.7863 341.565L94.2505 339.527L99.345 342.38Z" fill="#251725"/>
<path d="M141.528 348.086V338.61H137.146C135.312 336.572 132.969 334.636 130.014 332.904C114.629 324.04 89.7673 324.04 74.4837 332.904C71.5289 334.636 69.1854 336.572 67.3514 338.61H63.072V348.086C63.072 348.697 63.072 349.207 63.072 349.818V349.92C63.4796 355.422 67.2495 360.924 74.5856 365.204C89.971 374.068 114.832 374.068 130.116 365.204C138.267 360.415 142.037 354.199 141.528 348.086Z" fill="url(#paint39_linear_2539_10587)" stroke="#251725" stroke-miterlimit="10" stroke-linecap="round" stroke-linejoin="round"/>
<path d="M130.014 323.531C145.399 332.395 145.501 346.863 130.217 355.728C114.934 364.592 90.0727 364.592 74.6873 355.728C59.3018 346.863 59.1999 332.395 74.4835 323.531C89.767 314.666 114.628 314.666 130.014 323.531Z" fill="url(#paint40_linear_2539_10587)" stroke="#251725" stroke-miterlimit="10" stroke-linecap="round" stroke-linejoin="round"/>
<path d="M125.123 325.263C137.758 332.395 137.86 343.909 125.225 350.939C112.591 358.071 92.1107 358.071 79.4763 350.939C66.842 343.807 66.7401 332.293 79.3745 325.263C91.907 318.13 112.387 318.13 125.123 325.263Z" fill="url(#paint41_linear_2539_10587)" stroke="#251725" stroke-miterlimit="10" stroke-linecap="round" stroke-linejoin="round"/>
<path d="M68.574 351.245V360.007" stroke="#251725" stroke-miterlimit="10" stroke-linecap="round" stroke-linejoin="round"/>
<path d="M77.7441 357.358V366.732" stroke="#251725" stroke-miterlimit="10" stroke-linecap="round" stroke-linejoin="round"/>
<path d="M90.073 361.23V370.502" stroke="#251725" stroke-miterlimit="10" stroke-linecap="round" stroke-linejoin="round"/>
<path d="M104.542 362.351V371.725" stroke="#251725" stroke-miterlimit="10" stroke-linecap="round" stroke-linejoin="round"/>
<path d="M118.602 360.415V369.789" stroke="#251725" stroke-miterlimit="10" stroke-linecap="round" stroke-linejoin="round"/>
<path d="M130.218 355.728V365.102" stroke="#251725" stroke-miterlimit="10" stroke-linecap="round" stroke-linejoin="round"/>
<path d="M139.082 347.78V357.256" stroke="#251725" stroke-miterlimit="10" stroke-linecap="round" stroke-linejoin="round"/>
<path d="M107.869 336.071L110.358 333.584L117.933 336.048L121.861 332.123L100.836 325.283L96.9077 329.208L104.503 331.679L102.014 334.167C95.4216 332.325 89.6892 331.725 88.545 332.869C87.4007 334.012 91.2233 336.513 97.3572 338.82L89.1405 347.03L94.9955 348.935L103.212 340.725C109.802 342.568 115.535 343.168 116.681 342.022C117.827 340.877 114.009 338.372 107.869 336.071ZM101.029 339.028C94.1387 336.787 89.3484 334.174 90.3076 333.216C91.1335 332.39 95.8952 333.022 101.555 334.618L98.7429 337.428C99.6531 337.766 100.615 338.103 101.621 338.43C102.627 338.757 103.629 339.06 104.598 339.333L107.41 336.523C112.699 338.489 116.076 340.505 115.25 341.33C114.291 342.302 107.919 341.27 101.029 339.028Z" fill="#251725"/>
<path d="M6.30165 206.961L126.634 137.471C128.264 136.554 129.691 136.554 130.71 137.166L134.582 139.407L132.238 143.687L132.544 235.694C132.544 239.158 130.098 243.437 127.042 245.169L11.1924 312.111L6.7092 317.308L2.93927 315.168C1.92038 314.659 1.30902 313.436 1.30902 311.602L1.00334 216.538C0.901443 212.972 3.24493 208.693 6.30165 206.961Z" fill="url(#paint42_linear_2539_10587)" stroke="#251725" stroke-miterlimit="10" stroke-linecap="round" stroke-linejoin="round"/>
<path d="M9.96968 209.1C6.91298 210.832 4.46761 215.112 4.46761 218.576L4.77327 313.64C4.77327 317.104 7.21863 318.531 10.2753 316.798L130.608 247.309C133.665 245.577 136.11 241.298 136.11 237.833L135.804 142.77C135.804 139.305 133.359 137.879 130.302 139.611L9.96968 209.1Z" fill="#EBEDFD" stroke="#251725" stroke-miterlimit="10" stroke-linecap="round" stroke-linejoin="round"/>
<path d="M76.9116 185.156V244.558L63.9716 266.872V207.47L76.9116 185.156Z" fill="#FBFBFF" stroke="#251725" stroke-miterlimit="10" stroke-linecap="round" stroke-linejoin="round"/>
<path d="M38.1932 207.47H63.9714V266.872H38.1932V207.47Z" fill="#FBFBFF" stroke="#251725" stroke-miterlimit="10" stroke-linecap="round" stroke-linejoin="round"/>
<path d="M38.2952 207.47V266.872L25.3551 289.186V229.682L38.2952 207.47Z" fill="#FBFBFF" stroke="#251725" stroke-miterlimit="10" stroke-linecap="round" stroke-linejoin="round"/>
<path d="M76.9116 209.1L63.9716 227.441L38.2952 234.267L25.3551 246.086" stroke="#AF56FF" stroke-miterlimit="10" stroke-linecap="round" stroke-linejoin="round"/>
<path d="M52.458 230.497L48.5862 246.086L38.2952 256.683" stroke="#AF56FF" stroke-miterlimit="10" stroke-linecap="round" stroke-linejoin="round"/>
<path d="M48.586 246.086L63.9714 259.434" stroke="#AF56FF" stroke-miterlimit="10" stroke-linecap="round" stroke-linejoin="round"/>
<path d="M68.8623 220.614L76.9116 232.331" stroke="#AF56FF" stroke-miterlimit="10" stroke-linecap="round" stroke-linejoin="round"/>
<path d="M100.143 178.329C102.588 174.152 105.747 170.993 108.905 169.159C110.943 167.937 112.981 167.427 114.815 167.427C115.834 167.427 116.853 167.733 117.668 168.242C122.049 170.688 122.559 178.431 118.789 186.277L109.007 206.859L104.626 202.783L99.0219 197.587C97.2897 195.956 96.4746 193.511 96.4746 190.454C96.4746 186.786 97.6973 182.507 100.143 178.329ZM102.996 187.601C103.199 188.926 103.709 190.047 104.728 190.556C105.849 191.269 107.377 190.964 108.905 190.149C110.434 189.232 111.962 187.703 113.083 185.767C114.204 183.73 114.815 181.692 114.815 179.96C114.815 178.227 114.204 176.801 113.083 176.19C112.166 175.68 110.943 175.68 109.72 176.19C109.415 176.292 109.211 176.393 108.905 176.597C107.377 177.514 105.849 179.043 104.728 180.979C103.607 183.016 102.996 185.054 102.996 186.786C102.996 187.092 102.996 187.398 102.996 187.601Z" fill="url(#paint43_linear_2539_10587)" stroke="#251725" stroke-miterlimit="10" stroke-linecap="round" stroke-linejoin="round"/>
<path d="M102.996 187.601C103.199 188.926 103.709 190.047 104.728 190.556C105.849 191.269 107.377 190.964 108.905 190.149C110.434 189.232 111.962 187.703 113.083 185.767C114.204 183.73 114.815 181.692 114.815 179.96C114.815 178.228 114.204 176.801 113.083 176.19C112.166 175.68 110.943 175.68 109.72 176.19C109.72 176.495 109.822 176.699 109.822 177.005C109.822 178.737 109.211 180.775 108.09 182.813C106.969 184.85 105.441 186.379 103.913 187.194C103.607 187.398 103.301 187.5 102.996 187.601Z" fill="#251725" stroke="#251725" stroke-miterlimit="10" stroke-linecap="round" stroke-linejoin="round"/>
<path d="M91.482 187.601C91.482 190.658 92.2971 193.205 94.0293 194.734L103.913 204.006L109.007 206.961L104.626 202.885L99.0219 197.689C97.2898 196.058 96.4746 193.613 96.4746 190.556C96.4746 186.888 97.6973 182.507 100.041 178.431C102.486 174.254 105.645 171.095 108.803 169.261C110.841 168.038 112.879 167.529 114.713 167.529C115.732 167.529 116.751 167.835 117.566 168.344L112.471 165.389C110.026 163.963 106.867 164.472 103.709 166.306C100.55 168.14 97.3916 171.401 94.9463 175.476C92.6028 179.552 91.482 183.933 91.482 187.601Z" fill="#EBEDFD"/>
<path d="M91.482 187.601C91.482 190.658 92.2971 193.205 94.0293 194.734L103.913 204.006L109.007 206.961L104.626 202.885L99.0219 197.689C97.2898 196.058 96.4746 193.613 96.4746 190.556C96.4746 186.888 97.6973 182.507 100.041 178.431C102.486 174.254 105.645 171.095 108.803 169.261C110.841 168.038 112.879 167.529 114.713 167.529C115.732 167.529 116.751 167.835 117.566 168.344L112.471 165.389C110.026 163.963 106.867 164.472 103.709 166.306C100.55 168.14 97.3916 171.401 94.9463 175.476C92.6028 179.552 91.482 183.933 91.482 187.601Z" fill="url(#paint44_linear_2539_10587)"/>
<path d="M91.482 187.601C91.482 190.658 92.2971 193.205 94.0293 194.734L103.913 204.006L109.007 206.961L104.626 202.885L99.0219 197.689C97.2898 196.058 96.4746 193.613 96.4746 190.556C96.4746 186.888 97.6973 182.507 100.041 178.431C102.486 174.254 105.645 171.095 108.803 169.261C110.841 168.038 112.879 167.529 114.713 167.529C115.732 167.529 116.751 167.835 117.566 168.344L112.471 165.389C110.026 163.963 106.867 164.472 103.709 166.306C100.55 168.14 97.3916 171.401 94.9463 175.476C92.6028 179.552 91.482 183.933 91.482 187.601Z" stroke="#251725" stroke-miterlimit="10" stroke-linecap="round" stroke-linejoin="round"/>
<path d="M120.113 208.896L99.5312 220.716" stroke="#251725" stroke-miterlimit="10" stroke-linecap="round" stroke-linejoin="round"/>
<path d="M120.113 213.278L99.5312 225.097" stroke="#AF56FF" stroke-miterlimit="10" stroke-linecap="round" stroke-linejoin="round"/>
<path d="M120.113 217.659L106.052 225.81" stroke="#251725" stroke-miterlimit="10" stroke-linecap="round" stroke-linejoin="round"/>
<path d="M348.387 465.893C352.972 468.542 353.074 472.923 348.488 475.573L304.472 501.147C299.887 503.796 292.449 503.796 287.762 501.147L166.716 431.25C162.131 428.601 162.029 424.22 166.716 421.571L210.733 396.098C215.318 393.449 222.756 393.449 227.443 396.098L348.387 465.893Z" fill="#8055BB" stroke="#8055BB" stroke-miterlimit="10" stroke-linecap="round" stroke-linejoin="round"/>
<path d="M216.235 398.34C211.65 395.691 204.11 395.691 199.525 398.34L155.508 423.914C154.371 424.571 152.908 421.037 152.335 421.854C152.335 421.854 149.167 429.917 155.508 433.594L276.554 503.491C278.999 504.917 282.26 505.528 285.52 505.426V438.383L216.235 398.34Z" fill="#EBEDFD" stroke="#251725" stroke-miterlimit="10" stroke-linecap="round" stroke-linejoin="round"/>
<path d="M337.178 468.236L285.52 438.383V505.426C288.373 505.325 291.124 504.713 293.264 503.491L337.28 477.916C342.605 474.188 340.822 466.706 340.197 467.331C339.646 466.277 338.648 469.067 337.178 468.236Z" fill="#AF56FF" stroke="#251725" stroke-miterlimit="10" stroke-linecap="round" stroke-linejoin="round"/>
<path d="M337.179 462.836C341.764 465.485 341.866 469.867 337.28 472.516L293.264 498.09C288.679 500.74 281.241 500.74 276.554 498.09L155.508 428.194C150.923 425.544 150.821 421.163 155.508 418.514L199.525 393.041C204.11 390.392 211.548 390.392 216.235 393.041L337.179 462.836Z" fill="#EBEDFD" stroke="#251725" stroke-miterlimit="10" stroke-linecap="round" stroke-linejoin="round"/>
<path d="M296.626 481.89L293.06 484.03L251.795 460.187L255.361 458.047L296.626 481.89Z" fill="#251725" stroke="#251725" stroke-miterlimit="10" stroke-linecap="round" stroke-linejoin="round"/>
<path d="M222.348 416.069L218.782 418.208L199.627 407.102L203.193 405.065L222.348 416.069Z" fill="url(#paint45_linear_2539_10587)" stroke="#251725" stroke-miterlimit="10" stroke-linecap="round" stroke-linejoin="round"/>
<path d="M247.719 421.673L244.153 423.71L207.472 402.517L211.038 400.479L247.719 421.673Z" fill="url(#paint46_linear_2539_10587)" stroke="#251725" stroke-miterlimit="10" stroke-linecap="round" stroke-linejoin="round"/>
<path d="M220.616 448.164L217.05 450.304L170.996 423.711L174.562 421.673L220.616 448.164Z" fill="#EBEDFD" stroke="#251725" stroke-miterlimit="10" stroke-linecap="round" stroke-linejoin="round"/>
<path d="M249.655 454.787L246.089 456.825L179.86 418.616L183.426 416.476L249.655 454.787Z" fill="#251725" stroke="#251725" stroke-miterlimit="10" stroke-linecap="round" stroke-linejoin="round"/>
<path d="M277.063 461.206L273.497 463.346L187.909 413.929L191.476 411.789L277.063 461.206Z" fill="#EBEDFD" stroke="#251725" stroke-miterlimit="10" stroke-linecap="round" stroke-linejoin="round"/>
<path d="M304.778 477.203L301.211 479.343L277.471 465.587L281.037 463.55L304.778 477.203Z" fill="#251725" stroke="#251725" stroke-miterlimit="10" stroke-linecap="round" stroke-linejoin="round"/>
<path d="M373.896 110.641L372.746 109.99C374.815 102.94 373.869 95.022 369.653 87.8193C361.759 74.3846 344.083 66.864 328.783 71.2078C323.598 72.6898 319.269 75.385 315.987 78.8464L314.48 78.042L311.109 86.2798C311.071 86.3692 310.994 86.548 310.956 86.6374L310.765 87.0845C308.058 94.0196 308.48 102.295 312.874 110.315C322.212 127.173 343.988 133.646 359.734 125.419C363.156 123.605 365.94 121.306 368.175 118.56L368.239 118.535C368.89 117.755 369.49 116.849 370.027 115.967L373.896 110.641Z" fill="url(#paint47_linear_2539_10587)" stroke="#251725" stroke-miterlimit="10" stroke-linecap="round" stroke-linejoin="round"/>
<mask id="mask5_2539_10587" style="mask-type:alpha" maskUnits="userSpaceOnUse" x="308" y="69" width="67" height="61">
<path d="M373.861 111.007L372.709 110.342C374.679 103.282 373.639 95.322 369.357 88.0479C361.339 74.4796 343.664 66.7539 328.501 70.9654C323.362 72.4026 319.09 75.0664 315.868 78.51L314.359 77.6874L311.109 85.9264C311.072 86.0158 310.998 86.1946 310.961 86.284L310.776 86.731C308.17 93.6684 308.693 101.983 313.164 110.08C322.661 127.099 344.4 133.813 359.959 125.707C363.34 123.919 366.081 121.638 368.269 118.902L368.332 118.877C368.971 118.101 369.556 117.197 370.079 116.317L373.861 111.007Z" fill="white" stroke="#251725" stroke-miterlimit="10" stroke-linecap="round" stroke-linejoin="round"/>
</mask>
<g mask="url(#mask5_2539_10587)">
<path d="M355.172 136.275L365.892 107.628" stroke="#251725" stroke-miterlimit="10" stroke-linecap="round" stroke-linejoin="round"/>
<path d="M345.337 132.062L355.994 103.44" stroke="#251725" stroke-miterlimit="10" stroke-linecap="round" stroke-linejoin="round"/>
<path d="M335.528 127.912L346.185 99.2902" stroke="#251725" stroke-miterlimit="10" stroke-linecap="round" stroke-linejoin="round"/>
<path d="M325.63 123.724L336.35 95.0767" stroke="#251725" stroke-miterlimit="10" stroke-linecap="round" stroke-linejoin="round"/>
<path d="M315.794 119.511L326.48 90.9525" stroke="#251725" stroke-miterlimit="10" stroke-linecap="round" stroke-linejoin="round"/>
<path d="M305.923 115.386L316.643 86.7389" stroke="#251725" stroke-miterlimit="10" stroke-linecap="round" stroke-linejoin="round"/>
</g>
<path d="M373.382 81.9569C381.57 95.9407 377.715 112.965 363.258 120.527C347.154 128.971 324.778 122.294 315.223 105.079C305.835 88.0939 314.032 70.0727 331.49 65.0135C347.211 60.427 365.271 68.1646 373.382 81.9569Z" fill="url(#paint48_linear_2539_10587)" stroke="#251725" stroke-miterlimit="10" stroke-linecap="round" stroke-linejoin="round"/>
<path d="M369.487 83.5153C376.461 95.392 372.951 109.76 360.652 115.866C347.192 122.585 328.775 116.917 320.907 102.805C313.153 88.7956 319.652 73.7502 334.058 69.3938C347.174 65.3311 362.564 71.7664 369.487 83.5153Z" fill="url(#paint49_linear_2539_10587)" stroke="#251725" stroke-miterlimit="10" stroke-linecap="round" stroke-linejoin="round"/>
<path d="M322.782 85.0909C323.318 83.4689 324.034 81.9235 324.927 80.4547" stroke="#251725" stroke-miterlimit="10" stroke-linecap="round" stroke-linejoin="round"/>
<path d="M321.953 90.9786C321.965 90.0846 321.978 89.1906 322.08 88.3349" stroke="#251725" stroke-miterlimit="10" stroke-linecap="round" stroke-linejoin="round"/>
<path d="M360.803 93.6567C360.05 92.3285 358.964 91.2814 357.508 90.6046C356.116 89.9024 354.558 89.711 352.936 89.9155C354.021 89.1108 354.66 88.1145 354.851 86.9268C355.043 85.739 354.749 84.4491 353.97 83.0571C352.922 81.1798 351.39 79.9412 349.487 79.4433C348.133 79.022 346.651 79.0221 345.017 79.3799L343.126 76.1361L340.176 77.0943L341.952 80.2359L338.644 81.4111L336.868 78.2696L333.79 79.2788L335.592 82.4842L331.109 84.0556L345.071 108.767L349.4 106.812L350.984 109.66L353.934 108.332L352.375 105.548L355.581 104.117L357.139 106.901L359.962 105.624L358.314 102.801C359.846 101.818 360.957 100.706 361.404 99.4165C362.183 97.4752 361.966 95.6361 360.803 93.6567ZM348.734 86.2633C349.705 87.949 349.168 89.2006 347.099 89.9544L343.115 91.4745L340.151 86.2897L344.098 84.8589C346.256 84.1435 347.763 84.5775 348.734 86.2633ZM352.809 99.2258L348.582 101.065L345.516 95.625L349.795 93.9132C350.88 93.4789 351.812 93.4022 352.655 93.6575C353.498 93.9128 354.162 94.4619 354.648 95.3048C355.555 97.0161 354.98 98.3571 352.809 99.2258Z" fill="#251725"/>
<path d="M440.148 302.332C457.187 292.494 467.644 278.706 463.503 271.535C459.363 264.364 442.194 266.526 425.155 276.364C408.116 286.202 397.659 299.99 401.799 307.161C405.94 314.332 423.109 312.17 440.148 302.332Z" fill="url(#paint50_linear_2539_10587)" stroke="#251725" stroke-miterlimit="10" stroke-linecap="round" stroke-linejoin="round"/>
<path d="M426.201 278.131C440.988 269.603 455.569 267.334 458.87 272.973C462.171 278.613 452.818 290.167 438.1 298.695C423.313 307.224 408.732 309.493 405.431 303.854C402.13 298.145 411.483 286.66 426.201 278.131Z" fill="url(#paint51_linear_2539_10587)" stroke="#251725" stroke-miterlimit="10" stroke-linecap="round" stroke-linejoin="round"/>
<path d="M463.547 271.529L467.811 278.338C471.937 285.49 461.484 299.314 444.427 309.149C427.371 318.984 410.177 321.185 406.05 314.032L401.786 307.224C405.913 314.376 423.107 312.175 440.163 302.341C457.219 292.506 467.673 278.682 463.547 271.529Z" fill="url(#paint52_linear_2539_10587)"/>
<mask id="mask6_2539_10587" style="mask-type:alpha" maskUnits="userSpaceOnUse" x="401" y="271" width="69" height="48">
<path d="M463.547 271.529L467.811 278.338C471.937 285.49 461.484 299.314 444.427 309.149C427.371 318.984 410.177 321.185 406.05 314.032L401.786 307.224C405.913 314.376 423.107 312.175 440.163 302.341C457.219 292.506 467.673 278.682 463.547 271.529Z" fill="#D9D9D9" stroke="#251725" stroke-miterlimit="10" stroke-linecap="round" stroke-linejoin="round"/>
</mask>
<g mask="url(#mask6_2539_10587)">
<path d="M423.519 333.015L405.913 302.478" stroke="#251725" stroke-miterlimit="10" stroke-linecap="round" stroke-linejoin="round"/>
<path d="M434.042 326.894L416.367 296.426" stroke="#251725" stroke-miterlimit="10" stroke-linecap="round" stroke-linejoin="round"/>
<path d="M444.565 320.841L426.889 290.305" stroke="#251725" stroke-miterlimit="10" stroke-linecap="round" stroke-linejoin="round"/>
<path d="M455.019 314.789L437.412 284.252" stroke="#251725" stroke-miterlimit="10" stroke-linecap="round" stroke-linejoin="round"/>
<path d="M465.541 308.737L447.935 278.2" stroke="#251725" stroke-miterlimit="10" stroke-linecap="round" stroke-linejoin="round"/>
<path d="M476.064 302.616L458.457 272.148" stroke="#251725" stroke-miterlimit="10" stroke-linecap="round" stroke-linejoin="round"/>
</g>
<path d="M463.547 271.529L467.811 278.338C471.937 285.49 461.484 299.314 444.427 309.149C427.371 318.984 410.177 321.185 406.05 314.032L401.786 307.224C405.913 314.376 423.107 312.175 440.163 302.341C457.219 292.506 467.673 278.682 463.547 271.529Z" stroke="#251725" stroke-miterlimit="10" stroke-linecap="round" stroke-linejoin="round"/>
<path d="M441.332 286.247C440.232 286.316 439.131 286.66 438.1 287.279C436.793 287.966 435.486 288.173 434.661 287.829L434.179 287.623C433.354 287.279 433.148 286.522 433.629 285.559L433.836 285.078C434.317 284.184 435.211 283.152 436.449 282.533C438.031 281.639 439.406 280.332 439.613 279.163C439.819 278.131 438.994 277.512 437.549 277.65C435.417 277.925 432.735 279.576 431.772 281.226C431.222 282.189 431.36 283.015 432.116 283.29C432.804 283.565 433.01 284.184 432.529 285.147L432.185 285.766C431.703 286.728 430.603 287.76 429.296 288.517L428.54 288.929C427.233 289.617 425.926 289.961 425.239 289.617C424.688 289.342 423.863 289.342 422.831 289.686C421.043 290.236 418.911 291.68 417.467 293.331C414.785 296.426 415.266 298.833 418.567 298.008C420.424 297.526 422.694 296.013 424.276 294.294C424.757 293.812 425.101 293.331 425.307 292.918C425.995 291.749 427.164 290.649 428.54 289.892L429.434 289.411C430.741 288.654 432.047 288.448 432.873 288.792L433.423 288.998C434.248 289.342 434.455 290.236 433.973 291.405C433.836 291.818 433.698 292.299 433.698 292.712C433.698 294.225 434.798 295.325 436.724 295.188C440.3 294.982 444.152 291.474 444.221 288.585C444.427 287.072 443.12 286.109 441.332 286.247Z" fill="#251725"/>
<path d="M225.954 45.9736L226.573 45.2171C223.065 40.7467 221.483 34.7632 222.446 28.4358C224.234 16.5375 234.757 6.08358 246.931 4.84562C251.057 4.43296 254.977 5.12072 258.279 6.63379L259.104 5.60216L263.918 10.4853C263.987 10.554 264.056 10.6228 264.125 10.6916L264.4 10.9667C268.32 15.162 270.383 21.2143 269.558 28.2294C267.701 42.9475 253.946 53.8829 240.328 52.5074C237.371 52.2323 234.688 51.3382 232.35 50.0314H232.281C231.593 49.6188 230.906 49.2061 230.287 48.7247L225.954 45.9736Z" fill="url(#paint53_linear_2539_10587)" stroke="#251725" stroke-miterlimit="10" stroke-linecap="round" stroke-linejoin="round"/>
<mask id="mask7_2539_10587" style="mask-type:alpha" maskUnits="userSpaceOnUse" x="221" y="4" width="50" height="50">
<path d="M225.954 45.9736L226.573 45.2171C223.065 40.7467 221.483 34.7632 222.446 28.4358C224.234 16.5375 234.757 6.08358 246.931 4.84562C251.057 4.43296 254.977 5.12072 258.279 6.63379L259.104 5.60216L263.918 10.4853C263.987 10.554 264.056 10.6228 264.125 10.6916L264.4 10.9667C268.32 15.162 270.383 21.2143 269.558 28.2294C267.701 42.9475 253.946 53.8829 240.328 52.5074C237.371 52.2323 234.688 51.3382 232.35 50.0314H232.281C231.593 49.6188 230.906 49.2061 230.287 48.7247L225.954 45.9736Z" fill="white" stroke="#251725" stroke-miterlimit="10" stroke-linecap="round" stroke-linejoin="round"/>
</mask>
<g mask="url(#mask7_2539_10587)">
<path d="M247.206 58.7658L230.355 41.7094" stroke="#251725" stroke-miterlimit="10" stroke-linecap="round" stroke-linejoin="round"/>
<path d="M253.052 52.9198L236.201 35.9322" stroke="#251725" stroke-miterlimit="10" stroke-linecap="round" stroke-linejoin="round"/>
<path d="M258.897 47.0739L242.047 30.0863" stroke="#251725" stroke-miterlimit="10" stroke-linecap="round" stroke-linejoin="round"/>
<path d="M264.743 41.2967L247.893 24.3091" stroke="#251725" stroke-miterlimit="10" stroke-linecap="round" stroke-linejoin="round"/>
<path d="M270.658 35.4508L253.739 18.4632" stroke="#251725" stroke-miterlimit="10" stroke-linecap="round" stroke-linejoin="round"/>
<path d="M276.504 29.6736L259.585 12.686" stroke="#251725" stroke-miterlimit="10" stroke-linecap="round" stroke-linejoin="round"/>
</g>
<path d="M218.113 25.2721C216.256 37.6518 223.891 48.7247 236.408 49.9626C250.369 51.4069 264.468 40.1965 266.325 25.1345C268.182 10.2789 257.109 -0.312579 243.217 1.13172C230.699 2.36968 219.97 13.0987 218.113 25.2721Z" fill="url(#paint54_linear_2539_10587)" stroke="#251725" stroke-miterlimit="10" stroke-linecap="round" stroke-linejoin="round"/>
<path d="M221.346 25.2721C219.764 35.7948 226.366 45.0108 236.958 45.9049C248.512 46.8677 260.067 37.583 261.648 25.1345C263.23 12.8924 254.221 3.95153 242.666 4.98316C232.075 5.87725 222.928 14.8869 221.346 25.2721Z" fill="url(#paint55_linear_2539_10587)" stroke="#251725" stroke-miterlimit="10" stroke-linecap="round" stroke-linejoin="round"/>
<path d="M231.387 13.0299C232.35 12.1358 233.45 11.448 234.688 10.8978" stroke="#251725" stroke-miterlimit="10" stroke-linecap="round" stroke-linejoin="round"/>
<path d="M228.499 16.5375C228.842 15.9185 229.255 15.3683 229.668 14.8868" stroke="#251725" stroke-miterlimit="10" stroke-linecap="round" stroke-linejoin="round"/>
<path d="M238.815 31.3931L241.153 25.0657L245.624 23.8277L245.005 21.6269L242.116 22.3834L244.936 14.6117H238.402L235.032 24.3091L230.631 25.4783L231.181 27.7479L234.069 26.9226L231.387 34.6255H250.782L252.364 31.3931H238.815Z" fill="#251725"/>
<path d="M118.603 239.39L118.052 239.482C117.717 239.517 117.394 239.361 117.232 239.088L116.847 238.416L116.142 240.899L115.649 241.022C115.338 241.082 115.027 240.982 114.835 240.755L113.287 238.892L112.805 243.103C112.758 243.522 112.39 243.837 111.972 243.821C111.541 243.805 111.207 243.463 111.189 243.039L111.128 241.504C108.977 240.323 107.123 240.137 105.59 240.422C107.628 244.009 109.537 248.591 108.34 251.79C107.64 253.669 106.007 254.859 103.495 255.332C99.7086 256.044 98.128 254.151 97.5133 252.965C95.9047 249.808 97.3514 244.498 100.674 241.359C101.497 240.592 102.385 239.989 103.317 239.559C102.548 238.315 101.78 237.219 101.163 236.391C100.925 236.065 100.979 235.611 101.298 235.351C101.633 235.087 102.113 235.148 102.363 235.487C102.898 236.203 103.807 237.473 104.774 239.048C106.934 238.508 109.289 238.84 111.631 240.057L112.023 236.607L112.54 236.429C112.869 236.335 113.212 236.433 113.425 236.691L115.177 238.794L115.985 235.959L116.531 235.865C116.871 235.819 117.199 235.978 117.356 236.273L117.739 236.937L117.841 236.578C118.161 235.462 118.34 234.284 118.031 233.165C117.799 232.325 117.411 231.496 116.785 231.172C116.299 230.915 115.639 230.992 114.837 231.4C114.496 231.574 114.071 231.468 113.855 231.147C113.614 230.769 113.747 230.26 114.145 230.061C115.414 229.417 116.524 229.343 117.475 229.838C119.611 230.943 119.816 234.547 119.825 234.954L119.832 235.112L119.787 235.23L118.597 239.411L118.595 239.392L118.603 239.39ZM99.6572 245.175C98.3303 247.631 97.9285 250.469 98.8614 252.29C99.7782 254.084 101.729 254.136 103.206 253.852C105.197 253.475 106.414 252.642 106.918 251.263C107.9 248.634 106.123 244.39 104.098 240.871C103.081 241.311 102.278 241.916 101.703 242.453C100.887 243.23 100.193 244.16 99.6528 245.161L99.6572 245.175Z" fill="#AF56FF"/>
<path d="M100.489 234.537C100.24 234.736 99.8807 234.771 99.6164 234.584C99.2685 234.347 98.8152 234.133 98.3895 233.971C98.0263 233.83 97.8294 233.44 97.9361 233.07C98.0568 232.641 98.5218 232.41 98.938 232.567C99.3924 232.744 99.9614 232.996 100.457 233.338C100.869 233.616 100.879 234.228 100.482 234.539L100.487 234.529L100.489 234.537Z" fill="#AF56FF"/>
<path d="M121.604 241.011C121.191 241.122 120.774 240.866 120.685 240.446C120.265 238.568 119.677 234.93 121.08 233.833C121.377 233.604 121.846 233.399 122.511 233.542C122.975 233.645 123.208 234.185 122.981 234.606L122.957 234.649C122.802 234.937 122.479 235.065 122.155 235.013C122.084 235.006 122.036 235.005 122.018 235.026C121.559 235.384 121.636 237.714 122.173 240.119C122.26 240.518 122.014 240.905 121.624 240.997L121.616 241.012L121.604 241.011Z" fill="#AF56FF"/>
<path d="M118.603 239.39L118.052 239.482C117.717 239.517 117.394 239.361 117.232 239.088L116.847 238.416L116.142 240.899L115.649 241.022C115.338 241.082 115.027 240.982 114.835 240.755L113.287 238.892L112.805 243.103C112.758 243.522 112.39 243.837 111.972 243.821C111.541 243.805 111.207 243.463 111.189 243.039L111.128 241.504C108.977 240.323 107.123 240.137 105.59 240.422C107.628 244.009 109.537 248.591 108.34 251.79C107.64 253.669 106.007 254.859 103.495 255.332C99.7086 256.044 98.128 254.151 97.5133 252.965C95.9047 249.808 97.3514 244.498 100.674 241.359C101.497 240.592 102.385 239.989 103.317 239.559C102.548 238.315 101.78 237.219 101.163 236.391C100.925 236.065 100.979 235.611 101.298 235.351C101.633 235.087 102.113 235.148 102.363 235.487C102.898 236.203 103.807 237.473 104.774 239.048C106.934 238.508 109.289 238.84 111.631 240.057L112.023 236.607L112.54 236.429C112.869 236.335 113.212 236.433 113.425 236.691L115.177 238.794L115.985 235.959L116.531 235.865C116.871 235.819 117.199 235.978 117.356 236.273L117.739 236.937L117.841 236.578C118.161 235.462 118.34 234.284 118.031 233.165C117.799 232.325 117.411 231.496 116.785 231.172C116.299 230.915 115.639 230.992 114.837 231.4C114.496 231.574 114.071 231.468 113.855 231.147C113.614 230.769 113.747 230.26 114.145 230.061C115.414 229.417 116.524 229.343 117.475 229.838C119.611 230.943 119.816 234.547 119.825 234.954L119.832 235.112L119.787 235.23L118.597 239.411L118.595 239.392L118.603 239.39ZM99.6572 245.175C98.3303 247.631 97.9285 250.469 98.8614 252.29C99.7782 254.084 101.729 254.136 103.206 253.852C105.197 253.475 106.414 252.642 106.918 251.263C107.9 248.634 106.123 244.39 104.098 240.871C103.081 241.311 102.278 241.916 101.703 242.453C100.887 243.23 100.193 244.16 99.6528 245.161L99.6572 245.175Z" stroke="#EBEDFD" stroke-width="0.25"/>
<path d="M100.489 234.537C100.24 234.736 99.8807 234.771 99.6164 234.584C99.2685 234.347 98.8152 234.133 98.3895 233.971C98.0263 233.83 97.8294 233.44 97.9361 233.07C98.0568 232.641 98.5218 232.41 98.938 232.567C99.3924 232.744 99.9614 232.996 100.457 233.338C100.869 233.616 100.879 234.228 100.482 234.539L100.487 234.529L100.489 234.537Z" stroke="#EBEDFD" stroke-width="0.25"/>
<path d="M121.604 241.011C121.191 241.122 120.774 240.866 120.685 240.446C120.265 238.568 119.677 234.93 121.08 233.833C121.377 233.604 121.846 233.399 122.511 233.542C122.975 233.645 123.208 234.185 122.981 234.606L122.957 234.649C122.802 234.937 122.479 235.065 122.155 235.013C122.084 235.006 122.036 235.005 122.018 235.026C121.559 235.384 121.636 237.714 122.173 240.119C122.26 240.518 122.014 240.905 121.624 240.997L121.616 241.012L121.604 241.011Z" stroke="#EBEDFD" stroke-width="0.25"/>
<defs>
<linearGradient id="paint0_linear_2539_10587" x1="97.8235" y1="296.814" x2="110.616" y2="278.437" gradientUnits="userSpaceOnUse">
<stop stop-color="#DF87F1"/>
<stop offset="0.75" stop-color="#FBFBFF"/>
</linearGradient>
<linearGradient id="paint1_linear_2539_10587" x1="231.388" y1="86.0653" x2="222.018" y2="72.5399" gradientUnits="userSpaceOnUse">
<stop stop-color="#DF87F1"/>
<stop offset="0.75" stop-color="#FBFBFF"/>
</linearGradient>
<linearGradient id="paint2_linear_2539_10587" x1="434.793" y1="199.809" x2="424.337" y2="187.129" gradientUnits="userSpaceOnUse">
<stop stop-color="#DF87F1"/>
<stop offset="0.75" stop-color="#FBFBFF"/>
</linearGradient>
<linearGradient id="paint3_linear_2539_10587" x1="197.609" y1="95.9954" x2="151.068" y2="131.371" gradientUnits="userSpaceOnUse">
<stop stop-color="#DF87F1"/>
<stop offset="0.75" stop-color="#FBFBFF"/>
</linearGradient>
<linearGradient id="paint4_linear_2539_10587" x1="186.042" y1="84.0994" x2="163.072" y2="130.36" gradientUnits="userSpaceOnUse">
<stop offset="0.35" stop-color="#F76DFC"/>
<stop offset="0.85" stop-color="#1288AA"/>
</linearGradient>
<linearGradient id="paint5_linear_2539_10587" x1="192.404" y1="128.7" x2="166.174" y2="65.4078" gradientUnits="userSpaceOnUse">
<stop offset="0.5" stop-color="#DF87F1"/>
<stop offset="0.75" stop-color="#FBFBFF"/>
</linearGradient>
<linearGradient id="paint6_linear_2539_10587" x1="280.988" y1="458.055" x2="348.596" y2="277.477" gradientUnits="userSpaceOnUse">
<stop stop-color="#DF87F1"/>
<stop offset="0.805521" stop-color="#FBFBFF"/>
</linearGradient>
<linearGradient id="paint7_linear_2539_10587" x1="303.817" y1="92.8302" x2="369.452" y2="104.846" gradientUnits="userSpaceOnUse">
<stop offset="0.1" stop-color="#F76DFC"/>
<stop offset="0.75" stop-color="#1288AA"/>
</linearGradient>
<linearGradient id="paint8_linear_2539_10587" x1="264.979" y1="68.8591" x2="169.578" y2="228.99" gradientUnits="userSpaceOnUse">
<stop offset="0.1" stop-color="#F76DFC"/>
<stop offset="0.75" stop-color="#1288AA"/>
</linearGradient>
<linearGradient id="paint9_linear_2539_10587" x1="-56.2715" y1="79.9624" x2="-20.0738" y2="268.671" gradientUnits="userSpaceOnUse">
<stop stop-color="#DF87F1"/>
<stop offset="0.805521" stop-color="#FBFBFF"/>
</linearGradient>
<linearGradient id="paint10_linear_2539_10587" x1="320.841" y1="124.147" x2="300.541" y2="138.103" gradientUnits="userSpaceOnUse">
<stop offset="0.1" stop-color="#F76DFC"/>
<stop offset="0.75" stop-color="#1288AA"/>
</linearGradient>
<linearGradient id="paint11_linear_2539_10587" x1="291.283" y1="106.576" x2="270.964" y2="120.191" gradientUnits="userSpaceOnUse">
<stop offset="0.1" stop-color="#F76DFC"/>
<stop offset="0.75" stop-color="#1288AA"/>
</linearGradient>
<linearGradient id="paint12_linear_2539_10587" x1="283.144" y1="145.761" x2="262.709" y2="159.665" gradientUnits="userSpaceOnUse">
<stop offset="0.1" stop-color="#F76DFC"/>
<stop offset="0.75" stop-color="#1288AA"/>
</linearGradient>
<linearGradient id="paint13_linear_2539_10587" x1="253.585" y1="128.235" x2="233.267" y2="141.851" gradientUnits="userSpaceOnUse">
<stop offset="0.1" stop-color="#F76DFC"/>
<stop offset="0.75" stop-color="#1288AA"/>
</linearGradient>
<linearGradient id="paint14_linear_2539_10587" x1="245.446" y1="167.586" x2="225.011" y2="181.49" gradientUnits="userSpaceOnUse">
<stop offset="0.1" stop-color="#F76DFC"/>
<stop offset="0.75" stop-color="#1288AA"/>
</linearGradient>
<linearGradient id="paint15_linear_2539_10587" x1="215.888" y1="150.06" x2="195.569" y2="163.676" gradientUnits="userSpaceOnUse">
<stop offset="0.1" stop-color="#F76DFC"/>
<stop offset="0.75" stop-color="#1288AA"/>
</linearGradient>
<linearGradient id="paint16_linear_2539_10587" x1="209.97" y1="255.66" x2="127.544" y2="347.32" gradientUnits="userSpaceOnUse">
<stop offset="0.27713" stop-color="#F76DFC"/>
<stop offset="0.75" stop-color="#1288AA"/>
</linearGradient>
<linearGradient id="paint17_linear_2539_10587" x1="251.226" y1="173.186" x2="227.3" y2="174.577" gradientUnits="userSpaceOnUse">
<stop offset="0.1" stop-color="#F76DFC"/>
<stop offset="0.75" stop-color="#1288AA"/>
</linearGradient>
<linearGradient id="paint18_linear_2539_10587" x1="19.7207" y1="370.947" x2="50.8859" y2="429.949" gradientUnits="userSpaceOnUse">
<stop stop-color="#F76DFC"/>
<stop offset="1" stop-color="#1288AA"/>
</linearGradient>
<linearGradient id="paint19_linear_2539_10587" x1="263.423" y1="166.287" x2="239.049" y2="167.732" gradientUnits="userSpaceOnUse">
<stop offset="0.1" stop-color="#F76DFC"/>
<stop offset="0.75" stop-color="#1288AA"/>
</linearGradient>
<linearGradient id="paint20_linear_2539_10587" x1="27.5513" y1="363.831" x2="58.3329" y2="423.272" gradientUnits="userSpaceOnUse">
<stop stop-color="#F76DFC"/>
<stop offset="1" stop-color="#1288AA"/>
</linearGradient>
<linearGradient id="paint21_linear_2539_10587" x1="275.531" y1="159.177" x2="251.605" y2="160.569" gradientUnits="userSpaceOnUse">
<stop offset="0.1" stop-color="#F76DFC"/>
<stop offset="0.75" stop-color="#1288AA"/>
</linearGradient>
<linearGradient id="paint22_linear_2539_10587" x1="44.023" y1="356.721" x2="75.1345" y2="415.687" gradientUnits="userSpaceOnUse">
<stop stop-color="#F76DFC"/>
<stop offset="1" stop-color="#1288AA"/>
</linearGradient>
<linearGradient id="paint23_linear_2539_10587" x1="51.8549" y1="349.612" x2="82.6364" y2="409.052" gradientUnits="userSpaceOnUse">
<stop stop-color="#F76DFC"/>
<stop offset="1" stop-color="#1288AA"/>
</linearGradient>
<linearGradient id="paint24_linear_2539_10587" x1="324.827" y1="429.927" x2="360.127" y2="420.629" gradientUnits="userSpaceOnUse">
<stop stop-color="#DF87F1"/>
<stop offset="0.669" stop-color="#FBFBFF"/>
</linearGradient>
<linearGradient id="paint25_linear_2539_10587" x1="263.221" y1="419.235" x2="344.997" y2="367.243" gradientUnits="userSpaceOnUse">
<stop stop-color="#DF87F1"/>
<stop offset="0.669" stop-color="#FBFBFF"/>
</linearGradient>
<linearGradient id="paint26_linear_2539_10587" x1="339.462" y1="370.619" x2="315.29" y2="379.509" gradientUnits="userSpaceOnUse">
<stop offset="0.1" stop-color="#F76DFC"/>
<stop offset="0.75" stop-color="#1288AA"/>
</linearGradient>
<linearGradient id="paint27_linear_2539_10587" x1="247.1" y1="349.972" x2="348.277" y2="268.557" gradientUnits="userSpaceOnUse">
<stop stop-color="#DF87F1"/>
<stop offset="0.59775" stop-color="#FBFBFF"/>
</linearGradient>
<linearGradient id="paint28_linear_2539_10587" x1="268.772" y1="430.715" x2="329.433" y2="407.995" gradientUnits="userSpaceOnUse">
<stop stop-color="#DF87F1"/>
<stop offset="0.669" stop-color="#FBFBFF"/>
</linearGradient>
<linearGradient id="paint29_linear_2539_10587" x1="377.572" y1="345.381" x2="320.076" y2="378.675" gradientUnits="userSpaceOnUse">
<stop offset="0.1" stop-color="#F76DFC"/>
<stop offset="0.75" stop-color="#1288AA"/>
</linearGradient>
<linearGradient id="paint30_linear_2539_10587" x1="291.995" y1="368.036" x2="275.088" y2="381.193" gradientUnits="userSpaceOnUse">
<stop offset="0.1" stop-color="#F76DFC"/>
<stop offset="0.75" stop-color="#1288AA"/>
</linearGradient>
<linearGradient id="paint31_linear_2539_10587" x1="340.163" y1="319.303" x2="333.341" y2="331.075" gradientUnits="userSpaceOnUse">
<stop offset="0.1" stop-color="#F76DFC"/>
<stop offset="0.75" stop-color="#1288AA"/>
</linearGradient>
<linearGradient id="paint32_linear_2539_10587" x1="344.767" y1="315.727" x2="321.265" y2="323.233" gradientUnits="userSpaceOnUse">
<stop offset="0.1" stop-color="#F76DFC"/>
<stop offset="0.75" stop-color="#1288AA"/>
</linearGradient>
<linearGradient id="paint33_linear_2539_10587" x1="302.997" y1="296.119" x2="296.213" y2="307.956" gradientUnits="userSpaceOnUse">
<stop offset="0.1" stop-color="#F76DFC"/>
<stop offset="0.75" stop-color="#1288AA"/>
</linearGradient>
<linearGradient id="paint34_linear_2539_10587" x1="307.601" y1="292.398" x2="283.854" y2="300.044" gradientUnits="userSpaceOnUse">
<stop offset="0.1" stop-color="#F76DFC"/>
<stop offset="0.75" stop-color="#1288AA"/>
</linearGradient>
<linearGradient id="paint35_linear_2539_10587" x1="144.356" y1="360.412" x2="81.2963" y2="311.083" gradientUnits="userSpaceOnUse">
<stop offset="0.540232" stop-color="#DF87F1"/>
<stop offset="0.784112" stop-color="#FBFBFF"/>
</linearGradient>
<linearGradient id="paint36_linear_2539_10587" x1="144.356" y1="352.261" x2="81.2963" y2="302.931" gradientUnits="userSpaceOnUse">
<stop offset="0.540232" stop-color="#DF87F1"/>
<stop offset="0.784112" stop-color="#FBFBFF"/>
</linearGradient>
<linearGradient id="paint37_linear_2539_10587" x1="132.038" y1="375.214" x2="92.4058" y2="306.801" gradientUnits="userSpaceOnUse">
<stop offset="0.112285" stop-color="#DF87F1"/>
<stop offset="0.583747" stop-color="#FBFBFF"/>
<stop offset="1" stop-color="#DF87F1"/>
</linearGradient>
<linearGradient id="paint38_linear_2539_10587" x1="123.474" y1="369.126" x2="92.2656" y2="313.615" gradientUnits="userSpaceOnUse">
<stop offset="0.35" stop-color="#DF87F1"/>
<stop offset="0.85" stop-color="#FBFBFF"/>
</linearGradient>
<linearGradient id="paint39_linear_2539_10587" x1="163.002" y1="339.423" x2="99.9423" y2="290.093" gradientUnits="userSpaceOnUse">
<stop offset="0.540232" stop-color="#DF87F1"/>
<stop offset="0.784112" stop-color="#FBFBFF"/>
</linearGradient>
<linearGradient id="paint40_linear_2539_10587" x1="150.684" y1="362.376" x2="111.052" y2="293.963" gradientUnits="userSpaceOnUse">
<stop offset="0.112285" stop-color="#DF87F1"/>
<stop offset="0.583747" stop-color="#FBFBFF"/>
<stop offset="1" stop-color="#DF87F1"/>
</linearGradient>
<linearGradient id="paint41_linear_2539_10587" x1="142.12" y1="356.288" x2="110.912" y2="300.777" gradientUnits="userSpaceOnUse">
<stop stop-color="#DF87F1"/>
<stop offset="0.75" stop-color="#FBFBFF"/>
</linearGradient>
<linearGradient id="paint42_linear_2539_10587" x1="-14.4227" y1="317.308" x2="158.973" y2="189.033" gradientUnits="userSpaceOnUse">
<stop offset="0.278683" stop-color="#DF87F1"/>
<stop offset="0.435677" stop-color="#FBFBFF"/>
</linearGradient>
<linearGradient id="paint43_linear_2539_10587" x1="115.665" y1="156.68" x2="66.9469" y2="187.371" gradientUnits="userSpaceOnUse">
<stop offset="0.1" stop-color="#F76DFC"/>
<stop offset="0.75" stop-color="#1288AA"/>
</linearGradient>
<linearGradient id="paint44_linear_2539_10587" x1="88.4704" y1="206.961" x2="126.472" y2="183.579" gradientUnits="userSpaceOnUse">
<stop offset="0.245053" stop-color="#DF87F1"/>
<stop offset="0.397159" stop-color="#FBFBFF"/>
</linearGradient>
<linearGradient id="paint45_linear_2539_10587" x1="204.795" y1="401.482" x2="220.402" y2="428.462" gradientUnits="userSpaceOnUse">
<stop offset="0.1" stop-color="#F76DFC"/>
<stop offset="0.75" stop-color="#1288AA"/>
</linearGradient>
<linearGradient id="paint46_linear_2539_10587" x1="216.626" y1="394.148" x2="244.181" y2="441.886" gradientUnits="userSpaceOnUse">
<stop offset="0.1" stop-color="#F76DFC"/>
<stop offset="0.75" stop-color="#1288AA"/>
</linearGradient>
<linearGradient id="paint47_linear_2539_10587" x1="388.249" y1="114.175" x2="307.306" y2="79.8579" gradientUnits="userSpaceOnUse">
<stop offset="0.75" stop-color="#DF87F1"/>
<stop offset="0.9" stop-color="#FBFBFF"/>
</linearGradient>
<linearGradient id="paint48_linear_2539_10587" x1="392.456" y1="109.017" x2="309.524" y2="73.832" gradientUnits="userSpaceOnUse">
<stop stop-color="#DF87F1"/>
<stop offset="0.75" stop-color="#FBFBFF"/>
</linearGradient>
<linearGradient id="paint49_linear_2539_10587" x1="316.715" y1="60.6031" x2="411.254" y2="100.67" gradientUnits="userSpaceOnUse">
<stop offset="0.15" stop-color="#10AD74"/>
<stop offset="0.5" stop-color="#1288AA"/>
</linearGradient>
<linearGradient id="paint50_linear_2539_10587" x1="467.935" y1="297.106" x2="451.246" y2="260.624" gradientUnits="userSpaceOnUse">
<stop offset="0.55" stop-color="#FBFBFF"/>
<stop offset="0.9" stop-color="#DF87F1"/>
</linearGradient>
<linearGradient id="paint51_linear_2539_10587" x1="417.224" y1="259.774" x2="464.369" y2="329.42" gradientUnits="userSpaceOnUse">
<stop offset="0.293434" stop-color="#10AD74"/>
<stop offset="0.495204" stop-color="#1288AA"/>
</linearGradient>
<linearGradient id="paint52_linear_2539_10587" x1="476.438" y1="318.236" x2="432.412" y2="255.153" gradientUnits="userSpaceOnUse">
<stop offset="0.4" stop-color="#DF87F1"/>
<stop offset="0.75" stop-color="#FBFBFF"/>
</linearGradient>
<linearGradient id="paint53_linear_2539_10587" x1="275.23" y1="52.6242" x2="227.132" y2="4.85525" gradientUnits="userSpaceOnUse">
<stop offset="0.35" stop-color="#DF87F1"/>
<stop offset="0.45" stop-color="#FBFBFF"/>
</linearGradient>
<linearGradient id="paint54_linear_2539_10587" x1="237.662" y1="-8.44906" x2="258.362" y2="49.9207" gradientUnits="userSpaceOnUse">
<stop offset="0.1" stop-color="#DF87F1"/>
<stop offset="0.3" stop-color="#FBFBFF"/>
<stop offset="0.5" stop-color="#DF87F1"/>
<stop offset="0.8" stop-color="#FBFBFF"/>
</linearGradient>
<linearGradient id="paint55_linear_2539_10587" x1="230.374" y1="-6.29172" x2="286.63" y2="49.4792" gradientUnits="userSpaceOnUse">
<stop offset="0.3" stop-color="#F76DFC"/>
<stop offset="0.75" stop-color="#1288AA"/>
</linearGradient>
</defs>
</svg>
