<svg width="386" height="226" viewBox="0 0 386 226" fill="none" xmlns="http://www.w3.org/2000/svg">
<path d="M148.095 51.9003L147.96 89.7003L116.032 108.263L116.167 70.4628L148.095 51.9003Z" fill="white"/>
<path d="M148.095 51.9003L147.96 89.7003L116.032 108.263L116.167 70.4628L148.095 51.9003Z" fill="url(#paint0_linear_2376_20806)"/>
<path d="M148.095 51.9003L147.96 89.7003L116.032 108.263L116.167 70.4628L148.095 51.9003Z" stroke="#251725" stroke-miterlimit="10" stroke-linecap="round" stroke-linejoin="round"/>
<path d="M116.167 70.4628L116.032 108.263L83.9023 89.7003L83.9698 51.9003L116.167 70.4628Z" fill="#251725" stroke="#251725" stroke-miterlimit="10" stroke-linecap="round" stroke-linejoin="round"/>
<path d="M148.095 51.9003L116.167 70.4628L83.97 51.9003L115.965 33.3378L148.095 51.9003Z" fill="white"/>
<path d="M148.095 51.9003L116.167 70.4628L83.97 51.9003L115.965 33.3378L148.095 51.9003Z" fill="url(#paint1_linear_2376_20806)"/>
<path d="M148.095 51.9003L116.167 70.4628L83.97 51.9003L115.965 33.3378L148.095 51.9003Z" stroke="#251725" stroke-miterlimit="10" stroke-linecap="round" stroke-linejoin="round"/>
<path d="M139.117 51.9003L135.135 54.2628L115.965 43.1928V38.5353L139.117 51.9003Z" fill="#251725" stroke="#251725" stroke-miterlimit="10" stroke-linecap="round" stroke-linejoin="round"/>
<path d="M115.965 38.5353V43.1928L96.9973 54.2628L92.9473 51.9003L115.965 38.5353Z" fill="#FBFBFF" stroke="#251725" stroke-miterlimit="10" stroke-linecap="round" stroke-linejoin="round"/>
<path d="M135.135 54.2628L116.1 65.2653L96.9973 54.2628L115.965 43.1927L135.135 54.2628Z" fill="#A499CE"/>
<path d="M135.135 54.2628L116.1 65.2653L96.9973 54.2628L115.965 43.1927L135.135 54.2628Z" fill="url(#paint2_linear_2376_20806)"/>
<path d="M135.135 54.2628L116.1 65.2653L96.9973 54.2628L115.965 43.1927L135.135 54.2628Z" fill="url(#paint3_linear_2376_20806)"/>
<path d="M135.135 54.2628L116.1 65.2653L96.9973 54.2628L115.965 43.1927L135.135 54.2628Z" stroke="#251725" stroke-miterlimit="10" stroke-linecap="round" stroke-linejoin="round"/>
<path d="M133.177 75.6603C135.472 74.3778 137.295 75.3903 137.295 78.0228C137.295 80.6553 135.472 83.8278 133.177 85.1778C130.882 86.5278 129.06 85.4478 129.06 82.8153C129.06 80.1828 130.882 76.9428 133.177 75.6603Z" fill="#251725" stroke="#251725" stroke-miterlimit="10" stroke-linecap="round" stroke-linejoin="round"/>
<path d="M135.067 76.8753C137.362 75.5928 139.185 76.6053 139.185 79.2378C139.185 81.8703 137.362 85.0428 135.067 86.3928C132.772 87.7428 130.95 86.6628 130.95 84.0303C130.95 81.3978 132.84 78.2253 135.067 76.8753Z" fill="#FBFBFF" stroke="#251725" stroke-miterlimit="10" stroke-linecap="round" stroke-linejoin="round"/>
<path d="M111.51 73.2302L111.442 95.7752V100.163L88.5598 86.9328L88.6273 60.0677L93.0823 62.6328L111.51 73.2302Z" fill="white"/>
<path d="M111.51 73.2302L111.442 95.7752V100.163L88.5598 86.9328L88.6273 60.0677L93.0823 62.6328L111.51 73.2302Z" fill="url(#paint4_linear_2376_20806)"/>
<path d="M111.51 73.2302L111.442 95.7752V100.163L88.5598 86.9328L88.6273 60.0677L93.0823 62.6328L111.51 73.2302Z" stroke="#251725" stroke-miterlimit="10" stroke-linecap="round" stroke-linejoin="round"/>
<path d="M111.51 73.2303L111.442 95.7753L93.0149 85.1103L93.0824 62.6328L111.51 73.2303Z" fill="#A499CE"/>
<path d="M111.51 73.2303L111.442 95.7753L93.0149 85.1103L93.0824 62.6328L111.51 73.2303Z" fill="url(#paint5_linear_2376_20806)"/>
<path d="M111.51 73.2303L111.442 95.7753L93.0149 85.1103L93.0824 62.6328L111.51 73.2303Z" fill="url(#paint6_linear_2376_20806)"/>
<path d="M111.51 73.2303L111.442 95.7753L93.0149 85.1103L93.0824 62.6328L111.51 73.2303Z" stroke="#251725" stroke-miterlimit="10" stroke-linecap="round" stroke-linejoin="round"/>
<path d="M93.0148 85.1102L88.5598 86.9327" stroke="#251725" stroke-miterlimit="10" stroke-linecap="round" stroke-linejoin="round"/>
<path d="M136.215 81.8702L188.527 112.043" stroke="#251725" stroke-width="4" stroke-miterlimit="10" stroke-linecap="round" stroke-linejoin="round"/>
<path d="M79.2451 111.705L79.1101 149.505L47.1826 168.068L47.3176 130.268L79.2451 111.705Z" fill="white"/>
<path d="M79.2451 111.705L79.1101 149.505L47.1826 168.068L47.3176 130.268L79.2451 111.705Z" fill="url(#paint7_linear_2376_20806)"/>
<path d="M79.2451 111.705L79.1101 149.505L47.1826 168.068L47.3176 130.268L79.2451 111.705Z" stroke="#251725" stroke-miterlimit="10" stroke-linecap="round" stroke-linejoin="round"/>
<path d="M47.3175 130.268L47.1825 168.068L15.0525 149.505L15.12 111.705L47.3175 130.268Z" fill="#251725" stroke="#251725" stroke-miterlimit="10" stroke-linecap="round" stroke-linejoin="round"/>
<path d="M79.2451 111.705L47.3176 130.268L15.1201 111.705L47.1151 93.1428L79.2451 111.705Z" fill="white"/>
<path d="M79.2451 111.705L47.3176 130.268L15.1201 111.705L47.1151 93.1428L79.2451 111.705Z" fill="url(#paint8_linear_2376_20806)"/>
<path d="M79.2451 111.705L47.3176 130.268L15.1201 111.705L47.1151 93.1428L79.2451 111.705Z" stroke="#251725" stroke-miterlimit="10" stroke-linecap="round" stroke-linejoin="round"/>
<path d="M70.2675 111.705L66.285 114L47.115 102.998V98.2728L70.2675 111.705Z" fill="#251725" stroke="#251725" stroke-miterlimit="10" stroke-linecap="round" stroke-linejoin="round"/>
<path d="M47.1149 98.2728V102.998L28.1474 114L24.0974 111.705L47.1149 98.2728Z" fill="#FBFBFF" stroke="#251725" stroke-miterlimit="10" stroke-linecap="round" stroke-linejoin="round"/>
<path d="M66.285 114L47.25 125.07L28.1475 114L47.115 102.998L66.285 114Z" fill="#A499CE"/>
<path d="M66.285 114L47.25 125.07L28.1475 114L47.115 102.998L66.285 114Z" fill="url(#paint9_linear_2376_20806)"/>
<path d="M66.285 114L47.25 125.07L28.1475 114L47.115 102.998L66.285 114Z" fill="url(#paint10_linear_2376_20806)"/>
<path d="M66.285 114L47.25 125.07L28.1475 114L47.115 102.998L66.285 114Z" stroke="#251725" stroke-miterlimit="10" stroke-linecap="round" stroke-linejoin="round"/>
<path d="M64.3275 135.398C66.6225 134.115 68.445 135.128 68.445 137.76C68.445 140.393 66.6225 143.565 64.3275 144.915C62.0325 146.265 60.21 145.185 60.21 142.553C60.1425 139.92 62.0325 136.748 64.3275 135.398Z" fill="#251725" stroke="#251725" stroke-miterlimit="10" stroke-linecap="round" stroke-linejoin="round"/>
<path d="M66.2176 136.68C68.5126 135.398 70.3351 136.41 70.3351 139.043C70.3351 141.675 68.5126 144.848 66.2176 146.198C63.9226 147.548 62.1001 146.468 62.1001 143.835C62.1001 141.203 63.9901 137.963 66.2176 136.68Z" fill="#FBFBFF" stroke="#251725" stroke-miterlimit="10" stroke-linecap="round" stroke-linejoin="round"/>
<path d="M42.66 133.035L42.5925 155.513V159.9L19.71 146.738L19.7775 119.805L24.2325 122.37L42.66 133.035Z" fill="white"/>
<path d="M42.66 133.035L42.5925 155.513V159.9L19.71 146.738L19.7775 119.805L24.2325 122.37L42.66 133.035Z" fill="url(#paint11_linear_2376_20806)"/>
<path d="M42.66 133.035L42.5925 155.513V159.9L19.71 146.738L19.7775 119.805L24.2325 122.37L42.66 133.035Z" stroke="#251725" stroke-miterlimit="10" stroke-linecap="round" stroke-linejoin="round"/>
<path d="M42.6599 133.035L42.5924 155.513L24.0974 144.915L24.2324 122.37L42.6599 133.035Z" fill="#A499CE"/>
<path d="M42.6599 133.035L42.5924 155.513L24.0974 144.915L24.2324 122.37L42.6599 133.035Z" fill="url(#paint12_linear_2376_20806)"/>
<path d="M42.6599 133.035L42.5924 155.513L24.0974 144.915L24.2324 122.37L42.6599 133.035Z" fill="url(#paint13_linear_2376_20806)"/>
<path d="M42.6599 133.035L42.5924 155.513L24.0974 144.915L24.2324 122.37L42.6599 133.035Z" stroke="#251725" stroke-miterlimit="10" stroke-linecap="round" stroke-linejoin="round"/>
<path d="M24.0975 144.915L19.71 146.738" stroke="#251725" stroke-miterlimit="10" stroke-linecap="round" stroke-linejoin="round"/>
<path d="M67.365 141.608L119.677 171.848" stroke="#251725" stroke-width="4" stroke-miterlimit="10" stroke-linecap="round" stroke-linejoin="round"/>
<path d="M320.557 111.705L320.693 149.505L352.62 168.068L352.485 130.268L320.557 111.705Z" fill="#FBFBFF" stroke="#251725" stroke-miterlimit="10" stroke-linecap="round" stroke-linejoin="round"/>
<path d="M352.485 130.268L352.62 168.068L384.75 149.505L384.682 111.705L352.485 130.268Z" fill="#251725" stroke="#251725" stroke-miterlimit="10" stroke-linecap="round" stroke-linejoin="round"/>
<path d="M320.557 111.705L352.485 130.268L384.682 111.705L352.688 93.1428L320.557 111.705Z" fill="white"/>
<path d="M320.557 111.705L352.485 130.268L384.682 111.705L352.688 93.1428L320.557 111.705Z" fill="url(#paint14_linear_2376_20806)"/>
<path d="M320.557 111.705L352.485 130.268L384.682 111.705L352.688 93.1428L320.557 111.705Z" stroke="#251725" stroke-miterlimit="10" stroke-linecap="round" stroke-linejoin="round"/>
<path d="M329.535 111.705L333.585 114L352.688 102.998V98.2728L329.535 111.705Z" fill="#251725" stroke="#251725" stroke-miterlimit="10" stroke-linecap="round" stroke-linejoin="round"/>
<path d="M352.688 98.2728V102.998L371.655 114L375.705 111.705L352.688 98.2728Z" fill="#FBFBFF" stroke="#251725" stroke-miterlimit="10" stroke-linecap="round" stroke-linejoin="round"/>
<path d="M333.585 114L352.553 125.07L371.655 114L352.688 102.998L333.585 114Z" fill="#A499CE"/>
<path d="M333.585 114L352.553 125.07L371.655 114L352.688 102.998L333.585 114Z" fill="url(#paint15_linear_2376_20806)"/>
<path d="M333.585 114L352.553 125.07L371.655 114L352.688 102.998L333.585 114Z" stroke="#251725" stroke-miterlimit="10" stroke-linecap="round" stroke-linejoin="round"/>
<path d="M335.543 135.398C333.248 134.115 331.425 135.128 331.425 137.76C331.425 140.393 333.248 143.565 335.543 144.915C337.838 146.265 339.66 145.185 339.66 142.553C339.66 139.92 337.77 136.748 335.543 135.398Z" fill="#251725" stroke="#251725" stroke-miterlimit="10" stroke-linecap="round" stroke-linejoin="round"/>
<path d="M333.585 136.68C331.29 135.398 329.468 136.41 329.468 139.043C329.468 141.675 331.29 144.848 333.585 146.198C335.88 147.548 337.703 146.468 337.703 143.835C337.703 141.203 335.813 137.963 333.585 136.68Z" fill="#FBFBFF" stroke="#251725" stroke-miterlimit="10" stroke-linecap="round" stroke-linejoin="round"/>
<path d="M357.142 133.035L357.21 155.513V159.9L380.092 146.738L380.025 119.805L375.57 122.37L357.142 133.035Z" fill="white"/>
<path d="M357.142 133.035L357.21 155.513V159.9L380.092 146.738L380.025 119.805L375.57 122.37L357.142 133.035Z" fill="url(#paint16_linear_2376_20806)"/>
<path d="M357.142 133.035L357.21 155.513V159.9L380.092 146.738L380.025 119.805L375.57 122.37L357.142 133.035Z" stroke="#251725" stroke-miterlimit="10" stroke-linecap="round" stroke-linejoin="round"/>
<path d="M357.142 133.035L357.21 155.513L375.705 144.915L375.57 122.37L357.142 133.035Z" fill="#A499CE"/>
<path d="M357.142 133.035L357.21 155.513L375.705 144.915L375.57 122.37L357.142 133.035Z" fill="url(#paint17_linear_2376_20806)"/>
<path d="M357.142 133.035L357.21 155.513L375.705 144.915L375.57 122.37L357.142 133.035Z" stroke="#251725" stroke-miterlimit="10" stroke-linecap="round" stroke-linejoin="round"/>
<path d="M375.705 144.915L380.092 146.738" stroke="#251725" stroke-miterlimit="10" stroke-linecap="round" stroke-linejoin="round"/>
<path d="M332.438 141.608L280.125 171.848" stroke="#251725" stroke-width="4" stroke-miterlimit="10" stroke-linecap="round" stroke-linejoin="round"/>
<path d="M248.535 51.9003L248.67 89.7003L280.598 108.263L280.53 70.4628L248.535 51.9003Z" fill="#FBFBFF" stroke="#251725" stroke-miterlimit="10" stroke-linecap="round" stroke-linejoin="round"/>
<path d="M280.53 70.4628L280.598 108.263L312.795 89.7003L312.66 51.9003L280.53 70.4628Z" fill="#251725" stroke="#251725" stroke-miterlimit="10" stroke-linecap="round" stroke-linejoin="round"/>
<path d="M248.535 51.9003L280.53 70.4628L312.66 51.9003L280.733 33.3378L248.535 51.9003Z" fill="white"/>
<path d="M248.535 51.9003L280.53 70.4628L312.66 51.9003L280.733 33.3378L248.535 51.9003Z" fill="url(#paint18_linear_2376_20806)"/>
<path d="M248.535 51.9003L280.53 70.4628L312.66 51.9003L280.733 33.3378L248.535 51.9003Z" stroke="#251725" stroke-miterlimit="10" stroke-linecap="round" stroke-linejoin="round"/>
<path d="M257.513 51.9003L261.563 54.2628L280.665 43.1928V38.5353L257.513 51.9003Z" fill="#251725" stroke="#251725" stroke-miterlimit="10" stroke-linecap="round" stroke-linejoin="round"/>
<path d="M280.665 38.5353V43.1928L299.7 54.2628L303.683 51.9003L280.665 38.5353Z" fill="#FBFBFF" stroke="#251725" stroke-miterlimit="10" stroke-linecap="round" stroke-linejoin="round"/>
<path d="M261.562 54.2628L280.53 65.2653L299.7 54.2628L280.665 43.1927L261.562 54.2628Z" fill="#A499CE"/>
<path d="M261.562 54.2628L280.53 65.2653L299.7 54.2628L280.665 43.1927L261.562 54.2628Z" fill="url(#paint19_linear_2376_20806)"/>
<path d="M261.562 54.2628L280.53 65.2653L299.7 54.2628L280.665 43.1927L261.562 54.2628Z" stroke="#251725" stroke-miterlimit="10" stroke-linecap="round" stroke-linejoin="round"/>
<path d="M263.52 75.6603C261.225 74.3778 259.403 75.3903 259.403 78.0228C259.403 80.6553 261.225 83.8278 263.52 85.1778C265.815 86.5278 267.638 85.4478 267.638 82.8153C267.638 80.1828 265.815 76.9428 263.52 75.6603Z" fill="#251725" stroke="#251725" stroke-miterlimit="10" stroke-linecap="round" stroke-linejoin="round"/>
<path d="M261.563 76.8753C259.268 75.5928 257.445 76.6053 257.445 79.2378C257.445 81.8703 259.268 85.0428 261.563 86.3928C263.858 87.7428 265.68 86.6628 265.68 84.0303C265.68 81.3978 263.858 78.2253 261.563 76.8753Z" fill="#FBFBFF" stroke="#251725" stroke-miterlimit="10" stroke-linecap="round" stroke-linejoin="round"/>
<path d="M285.188 73.2302L285.255 95.7752V100.163L308.138 86.9328L308.07 60.0677L303.615 62.6328L285.188 73.2302Z" fill="white"/>
<path d="M285.188 73.2302L285.255 95.7752V100.163L308.138 86.9328L308.07 60.0677L303.615 62.6328L285.188 73.2302Z" fill="url(#paint20_linear_2376_20806)"/>
<path d="M285.188 73.2302L285.255 95.7752V100.163L308.138 86.9328L308.07 60.0677L303.615 62.6328L285.188 73.2302Z" stroke="#251725" stroke-miterlimit="10" stroke-linecap="round" stroke-linejoin="round"/>
<path d="M285.188 73.2303L285.255 95.7753L303.682 85.1103L303.615 62.6328L285.188 73.2303Z" fill="#A499CE"/>
<path d="M285.188 73.2303L285.255 95.7753L303.682 85.1103L303.615 62.6328L285.188 73.2303Z" fill="url(#paint21_linear_2376_20806)"/>
<path d="M285.188 73.2303L285.255 95.7753L303.682 85.1103L303.615 62.6328L285.188 73.2303Z" stroke="#251725" stroke-miterlimit="10" stroke-linecap="round" stroke-linejoin="round"/>
<path d="M303.682 85.1102L308.138 86.9327" stroke="#251725" stroke-miterlimit="10" stroke-linecap="round" stroke-linejoin="round"/>
<path d="M260.483 81.8702L208.17 112.043" stroke="#251725" stroke-width="4" stroke-miterlimit="10" stroke-linecap="round" stroke-linejoin="round"/>
<path d="M249.548 151.395L200.07 180.15L150.255 151.395L199.733 115.89L249.548 151.395Z" fill="#FBFBFF" stroke="#251725" stroke-miterlimit="10" stroke-linecap="round" stroke-linejoin="round"/>
<path d="M200.07 180.15V139.11L249.547 110.355V151.395L200.07 180.15Z" fill="#251725" stroke="#251725" stroke-miterlimit="10" stroke-linecap="round" stroke-linejoin="round"/>
<path d="M200.07 180.15V139.11L150.255 110.355V151.395L200.07 180.15Z" fill="#FBFBFF" stroke="#251725" stroke-miterlimit="10" stroke-linecap="round" stroke-linejoin="round"/>
<path d="M271.552 115.08L200.138 156.593L128.25 115.08L199.665 73.5677L271.552 115.08Z" fill="#A499CE" stroke="#251725" stroke-miterlimit="10" stroke-linecap="round" stroke-linejoin="round"/>
<path d="M271.552 110.355L200.138 151.868L128.25 110.355L199.665 68.8428L271.552 110.355Z" fill="white"/>
<path d="M271.552 110.355L200.138 151.868L128.25 110.355L199.665 68.8428L271.552 110.355Z" fill="url(#paint22_linear_2376_20806)"/>
<path d="M271.552 110.355L200.138 151.868L128.25 110.355L199.665 68.8428L271.552 110.355Z" stroke="#251725" stroke-miterlimit="10" stroke-linecap="round" stroke-linejoin="round"/>
<path d="M249.548 110.355L245.498 112.718L200.07 139.11L154.305 112.718L150.255 110.355L199.733 81.6002L249.548 110.355Z" fill="#FBFBFF" stroke="#251725" stroke-miterlimit="10" stroke-linecap="round" stroke-linejoin="round"/>
<path d="M245.497 112.718L200.07 139.11L154.305 112.718L199.732 86.3253L245.497 112.718Z" fill="#A499CE"/>
<path d="M245.497 112.718L200.07 139.11L154.305 112.718L199.732 86.3253L245.497 112.718Z" fill="url(#paint23_linear_2376_20806)"/>
<path d="M245.497 112.718L200.07 139.11L154.305 112.718L199.732 86.3253L245.497 112.718Z" stroke="#251725" stroke-miterlimit="10" stroke-linecap="round" stroke-linejoin="round"/>
<path d="M234.765 112.718L206.955 128.85L200.07 132.9L192.847 128.715L165.037 112.718L199.732 92.5353L234.765 112.718Z" fill="#AF56FF" stroke="#251725" stroke-miterlimit="10" stroke-linecap="round" stroke-linejoin="round"/>
<path d="M206.955 128.85L200.07 132.9L192.848 128.715L199.733 124.733L206.955 128.85Z" fill="#DF87F1" stroke="#251725" stroke-miterlimit="10" stroke-linecap="round" stroke-linejoin="round"/>
<path d="M200.137 156.593V151.868L128.25 110.355V115.08L200.137 156.593Z" fill="#251725" stroke="#251725" stroke-miterlimit="10" stroke-linecap="round" stroke-linejoin="round"/>
<path d="M271.552 115.08V110.355L200.137 151.868V156.593L271.552 115.08Z" fill="#FBFBFF" stroke="#251725" stroke-miterlimit="10" stroke-linecap="round" stroke-linejoin="round"/>
<path d="M199.733 86.3252V81.6002L249.548 110.355L245.498 112.718L199.733 86.3252Z" fill="#251725" stroke="#251725" stroke-miterlimit="10" stroke-linecap="round" stroke-linejoin="round"/>
<path d="M199.733 124.733V92.5353L234.765 112.718L206.955 128.85L199.733 124.733Z" fill="#251725" stroke="#251725" stroke-miterlimit="10" stroke-linecap="round" stroke-linejoin="round"/>
<path d="M173.475 149.033L135.135 171.173" stroke="#251725" stroke-width="4" stroke-miterlimit="10" stroke-linecap="round" stroke-linejoin="round"/>
<path d="M148.095 161.318L147.96 199.118L116.032 217.68L116.167 179.88L148.095 161.318Z" fill="white"/>
<path d="M148.095 161.318L147.96 199.118L116.032 217.68L116.167 179.88L148.095 161.318Z" fill="url(#paint24_linear_2376_20806)"/>
<path d="M148.095 161.318L147.96 199.118L116.032 217.68L116.167 179.88L148.095 161.318Z" stroke="#251725" stroke-miterlimit="10" stroke-linecap="round" stroke-linejoin="round"/>
<path d="M116.167 179.88L116.032 217.68L83.9023 199.118L83.9698 161.318L116.167 179.88Z" fill="#251725" stroke="#251725" stroke-miterlimit="10" stroke-linecap="round" stroke-linejoin="round"/>
<path d="M148.095 161.318L116.167 179.88L83.97 161.318L115.965 142.755L148.095 161.318Z" fill="white"/>
<path d="M148.095 161.318L116.167 179.88L83.97 161.318L115.965 142.755L148.095 161.318Z" fill="url(#paint25_linear_2376_20806)"/>
<path d="M148.095 161.318L116.167 179.88L83.97 161.318L115.965 142.755L148.095 161.318Z" stroke="#251725" stroke-miterlimit="10" stroke-linecap="round" stroke-linejoin="round"/>
<path d="M139.117 161.318L135.135 163.613L115.965 152.61V147.885L139.117 161.318Z" fill="#251725" stroke="#251725" stroke-miterlimit="10" stroke-linecap="round" stroke-linejoin="round"/>
<path d="M115.965 147.885V152.61L96.9973 163.613L92.9473 161.318L115.965 147.885Z" fill="#FBFBFF" stroke="#251725" stroke-miterlimit="10" stroke-linecap="round" stroke-linejoin="round"/>
<path d="M135.135 163.613L116.1 174.683L96.9973 163.613L115.965 152.61L135.135 163.613Z" fill="#A499CE"/>
<path d="M135.135 163.613L116.1 174.683L96.9973 163.613L115.965 152.61L135.135 163.613Z" fill="url(#paint26_linear_2376_20806)"/>
<path d="M135.135 163.613L116.1 174.683L96.9973 163.613L115.965 152.61L135.135 163.613Z" fill="url(#paint27_linear_2376_20806)"/>
<path d="M135.135 163.613L116.1 174.683L96.9973 163.613L115.965 152.61L135.135 163.613Z" stroke="#251725" stroke-miterlimit="10" stroke-linecap="round" stroke-linejoin="round"/>
<path d="M133.177 185.01C135.472 183.728 137.295 184.74 137.295 187.373C137.295 190.005 135.472 193.178 133.177 194.528C130.882 195.878 129.06 194.798 129.06 192.165C129.06 189.533 130.882 186.36 133.177 185.01Z" fill="#251725" stroke="#251725" stroke-miterlimit="10" stroke-linecap="round" stroke-linejoin="round"/>
<path d="M135.067 186.293C137.362 185.01 139.185 186.023 139.185 188.655C139.185 191.288 137.362 194.46 135.067 195.81C132.772 197.16 130.95 196.08 130.95 193.448C130.95 190.815 132.84 187.575 135.067 186.293Z" fill="#FBFBFF" stroke="#251725" stroke-miterlimit="10" stroke-linecap="round" stroke-linejoin="round"/>
<path d="M111.51 182.648L111.442 205.125V209.513L88.5598 196.35L88.6273 169.418L93.0823 171.983L111.51 182.648Z" fill="white"/>
<path d="M111.51 182.648L111.442 205.125V209.513L88.5598 196.35L88.6273 169.418L93.0823 171.983L111.51 182.648Z" fill="url(#paint28_linear_2376_20806)"/>
<path d="M111.51 182.648L111.442 205.125V209.513L88.5598 196.35L88.6273 169.418L93.0823 171.983L111.51 182.648Z" stroke="#251725" stroke-miterlimit="10" stroke-linecap="round" stroke-linejoin="round"/>
<path d="M111.51 182.648L111.442 205.125L93.0149 194.528L93.0824 171.983L111.51 182.648Z" fill="#A499CE"/>
<path d="M111.51 182.648L111.442 205.125L93.0149 194.528L93.0824 171.983L111.51 182.648Z" fill="url(#paint29_linear_2376_20806)"/>
<path d="M111.51 182.648L111.442 205.125L93.0149 194.528L93.0824 171.983L111.51 182.648Z" fill="url(#paint30_linear_2376_20806)"/>
<path d="M111.51 182.648L111.442 205.125L93.0149 194.528L93.0824 171.983L111.51 182.648Z" stroke="#251725" stroke-miterlimit="10" stroke-linecap="round" stroke-linejoin="round"/>
<path d="M93.0148 194.528L88.5598 196.35" stroke="#251725" stroke-miterlimit="10" stroke-linecap="round" stroke-linejoin="round"/>
<path d="M224.843 149.978L261.563 171.173" stroke="#251725" stroke-width="4" stroke-miterlimit="10" stroke-linecap="round" stroke-linejoin="round"/>
<path d="M248.535 161.318L248.67 199.118L280.598 217.68L280.53 179.88L248.535 161.318Z" fill="#FBFBFF" stroke="#251725" stroke-miterlimit="10" stroke-linecap="round" stroke-linejoin="round"/>
<path d="M280.53 179.88L280.598 217.68L312.795 199.118L312.66 161.318L280.53 179.88Z" fill="#251725" stroke="#251725" stroke-miterlimit="10" stroke-linecap="round" stroke-linejoin="round"/>
<path d="M248.535 161.318L280.53 179.88L312.66 161.318L280.733 142.755L248.535 161.318Z" fill="white"/>
<path d="M248.535 161.318L280.53 179.88L312.66 161.318L280.733 142.755L248.535 161.318Z" fill="url(#paint31_linear_2376_20806)"/>
<path d="M248.535 161.318L280.53 179.88L312.66 161.318L280.733 142.755L248.535 161.318Z" stroke="#251725" stroke-miterlimit="10" stroke-linecap="round" stroke-linejoin="round"/>
<path d="M257.513 161.318L261.563 163.613L280.665 152.61V147.885L257.513 161.318Z" fill="#251725" stroke="#251725" stroke-miterlimit="10" stroke-linecap="round" stroke-linejoin="round"/>
<path d="M280.665 147.885V152.61L299.7 163.613L303.683 161.318L280.665 147.885Z" fill="#FBFBFF" stroke="#251725" stroke-miterlimit="10" stroke-linecap="round" stroke-linejoin="round"/>
<path d="M261.562 163.613L280.53 174.683L299.7 163.613L280.665 152.61L261.562 163.613Z" fill="#A499CE"/>
<path d="M261.562 163.613L280.53 174.683L299.7 163.613L280.665 152.61L261.562 163.613Z" fill="url(#paint32_linear_2376_20806)"/>
<path d="M261.562 163.613L280.53 174.683L299.7 163.613L280.665 152.61L261.562 163.613Z" fill="url(#paint33_linear_2376_20806)"/>
<path d="M261.562 163.613L280.53 174.683L299.7 163.613L280.665 152.61L261.562 163.613Z" stroke="#251725" stroke-miterlimit="10" stroke-linecap="round" stroke-linejoin="round"/>
<path d="M263.52 185.01C261.225 183.728 259.403 184.74 259.403 187.373C259.403 190.005 261.225 193.178 263.52 194.528C265.815 195.878 267.638 194.798 267.638 192.165C267.638 189.533 265.815 186.36 263.52 185.01Z" fill="#251725" stroke="#251725" stroke-miterlimit="10" stroke-linecap="round" stroke-linejoin="round"/>
<path d="M261.563 186.293C259.268 185.01 257.445 186.023 257.445 188.655C257.445 191.288 259.268 194.46 261.563 195.81C263.858 197.16 265.68 196.08 265.68 193.448C265.68 190.815 263.858 187.575 261.563 186.293Z" fill="#FBFBFF" stroke="#251725" stroke-miterlimit="10" stroke-linecap="round" stroke-linejoin="round"/>
<path d="M285.188 182.648L285.255 205.125V209.513L308.138 196.35L308.07 169.418L303.615 171.983L285.188 182.648Z" fill="white"/>
<path d="M285.188 182.648L285.255 205.125V209.513L308.138 196.35L308.07 169.418L303.615 171.983L285.188 182.648Z" fill="url(#paint34_linear_2376_20806)"/>
<path d="M285.188 182.648L285.255 205.125V209.513L308.138 196.35L308.07 169.418L303.615 171.983L285.188 182.648Z" stroke="#251725" stroke-miterlimit="10" stroke-linecap="round" stroke-linejoin="round"/>
<path d="M285.188 182.648L285.255 205.125L303.682 194.528L303.615 171.983L285.188 182.648Z" fill="#A499CE"/>
<path d="M285.188 182.648L285.255 205.125L303.682 194.528L303.615 171.983L285.188 182.648Z" fill="url(#paint35_linear_2376_20806)"/>
<path d="M285.188 182.648L285.255 205.125L303.682 194.528L303.615 171.983L285.188 182.648Z" stroke="#251725" stroke-miterlimit="10" stroke-linecap="round" stroke-linejoin="round"/>
<path d="M303.682 194.528L308.138 196.35" stroke="#251725" stroke-miterlimit="10" stroke-linecap="round" stroke-linejoin="round"/>
<path d="M260.482 191.22L208.777 221.055C202.297 224.768 194.332 224.768 187.852 221.055L136.35 191.355" stroke="#251725" stroke-width="4" stroke-miterlimit="10" stroke-linecap="round" stroke-linejoin="round"/>
<path d="M317.25 29.6927H312.255L309.757 34.0128L312.255 38.3328H317.25L319.68 34.0128L317.25 29.6927Z" fill="#A1C665" stroke="#251725" stroke-miterlimit="10" stroke-linecap="round" stroke-linejoin="round"/>
<path d="M338.378 166.988H332.64L329.738 171.983L332.64 176.978H338.378L341.28 171.983L338.378 166.988Z" stroke="#FBFBFF" stroke-miterlimit="10" stroke-linecap="round" stroke-linejoin="round"/>
<path d="M124.43 4.65027H120.785L118.962 7.82277L120.785 10.9278H124.43L126.252 7.82277L124.43 4.65027Z" fill="white" stroke="#251725" stroke-miterlimit="10" stroke-linecap="round" stroke-linejoin="round"/>
<path d="M310.838 101.648H307.26L305.438 104.753L307.26 107.858H310.838L312.66 104.753L310.838 101.648Z" fill="white" stroke="#251725" stroke-miterlimit="10" stroke-linecap="round" stroke-linejoin="round"/>
<path d="M6.4 135.398H2.8225L1 138.57L2.8225 141.675H6.4L8.155 138.57L6.4 135.398Z" stroke="#FBFBFF" stroke-miterlimit="10" stroke-linecap="round" stroke-linejoin="round"/>
<path d="M327.173 107.858H317.453L312.66 116.228L317.453 124.598H327.173L331.965 116.228L327.173 107.858Z" fill="white" stroke="#251725" stroke-miterlimit="10" stroke-linecap="round" stroke-linejoin="round"/>
<path d="M48.5999 147.008H38.9474L34.0874 155.378L38.9474 163.748H48.5999L53.4599 155.378L48.5999 147.008Z" fill="white" stroke="#251725" stroke-miterlimit="10" stroke-linecap="round" stroke-linejoin="round"/>
<path d="M145.085 13.8978H135.433L130.573 22.2003L135.433 30.5703H145.085L149.878 22.2003L145.085 13.8978Z" stroke="#FBFBFF" stroke-miterlimit="10" stroke-linecap="round" stroke-linejoin="round"/>
<path d="M211.097 186.868H198.07L191.59 198.073L198.07 209.345H211.097L217.577 198.073L211.097 186.868Z" stroke="#FBFBFF" stroke-miterlimit="10" stroke-linecap="round" stroke-linejoin="round"/>
<path d="M200.948 161.115H195.413L192.645 165.908L195.413 170.7H200.948L203.715 165.908L200.948 161.115Z" fill="white" stroke="#251725" stroke-miterlimit="10" stroke-linecap="round" stroke-linejoin="round"/>
<path d="M63.6523 33.6753L65.4073 36.7128C66.6223 38.8728 63.5173 42.9903 58.3873 45.9603C53.2573 48.9303 48.1273 49.6053 46.8448 47.4453L45.0898 44.4078C46.3048 46.5678 51.5023 45.8928 56.6323 42.9228C61.6948 40.0203 64.8673 35.8353 63.6523 33.6753Z" fill="#DF87F1" stroke="#251725" stroke-miterlimit="10" stroke-linecap="round" stroke-linejoin="round"/>
<path d="M56.6093 42.9922C61.7424 40.0285 64.8913 35.8725 63.6424 33.7095C62.3936 31.5465 57.2199 32.1956 52.0868 35.1593C46.9537 38.123 43.8049 42.279 45.0537 44.442C46.3026 46.605 51.4762 45.9559 56.6093 42.9922Z" fill="url(#paint36_linear_2376_20806)" stroke="#251725" stroke-miterlimit="10" stroke-linecap="round" stroke-linejoin="round"/>
<mask id="mask0_2376_20806" style="mask-type:alpha" maskUnits="userSpaceOnUse" x="44" y="33" width="23" height="17">
<path d="M63.6523 33.6753L65.4073 36.7128C66.6223 38.8728 63.5173 42.9903 58.3873 45.9603C53.2573 48.9303 48.1273 49.6053 46.8448 47.4453L45.0898 44.4078C46.3048 46.5678 51.5023 45.8928 56.6323 42.9228C61.6948 40.0203 64.8673 35.8353 63.6523 33.6753Z" fill="#D9D9D9" stroke="#251725" stroke-miterlimit="10" stroke-linecap="round" stroke-linejoin="round"/>
</mask>
<g mask="url(#mask0_2376_20806)">
<path d="M51.5699 52.1704L46.3049 42.9904" stroke="#251725" stroke-miterlimit="10" stroke-linecap="round" stroke-linejoin="round"/>
<path d="M54.7425 50.3479L49.4775 41.1678" stroke="#251725" stroke-miterlimit="10" stroke-linecap="round" stroke-linejoin="round"/>
<path d="M57.9149 48.5253L52.6499 39.3453" stroke="#251725" stroke-miterlimit="10" stroke-linecap="round" stroke-linejoin="round"/>
<path d="M61.0874 46.7028L55.7549 37.5228" stroke="#251725" stroke-miterlimit="10" stroke-linecap="round" stroke-linejoin="round"/>
<path d="M64.26 44.8803L58.9275 35.7003" stroke="#251725" stroke-miterlimit="10" stroke-linecap="round" stroke-linejoin="round"/>
<path d="M67.3649 43.0578L62.0999 33.8778" stroke="#251725" stroke-miterlimit="10" stroke-linecap="round" stroke-linejoin="round"/>
<path d="M63.6523 33.6753L65.4073 36.7128C66.6223 38.8728 63.5173 42.9903 58.3873 45.9603C53.2573 48.9303 48.1273 49.6053 46.8448 47.4453L45.0898 44.4078C46.3048 46.5678 51.5023 45.8928 56.6323 42.9228C61.6948 40.0203 64.8673 35.8353 63.6523 33.6753Z" stroke="#251725" stroke-miterlimit="10" stroke-linecap="round" stroke-linejoin="round"/>
</g>
<path d="M56.97 38.1303C56.6325 38.1303 56.295 38.2653 56.025 38.4003C55.62 38.6028 55.215 38.6703 55.0125 38.5353L54.8775 38.4678C54.6075 38.4003 54.6075 38.1303 54.7425 37.8603L54.81 37.7253C54.945 37.4553 55.215 37.1178 55.62 36.9828C56.0925 36.7128 56.4975 36.3078 56.565 35.9703C56.6325 35.6328 56.3625 35.4978 55.9575 35.4978C55.2825 35.5653 54.54 36.1053 54.2025 36.5778C54 36.8478 54.0675 37.1178 54.3375 37.1853C54.54 37.2528 54.6075 37.4553 54.4725 37.7253L54.405 37.9278C54.27 38.1978 53.9325 38.5353 53.5275 38.7378L53.325 38.8728C52.92 39.0753 52.515 39.2103 52.3125 39.0753C52.1775 39.0078 51.9075 39.0078 51.57 39.0753C51.03 39.2103 50.355 39.6828 49.95 40.1553C49.14 41.1003 49.275 41.8428 50.2875 41.5728C50.8275 41.4378 51.5025 40.9653 51.975 40.4253C52.11 40.2903 52.245 40.1553 52.3125 40.0203C52.515 39.6828 52.8525 39.3453 53.2575 39.1428L53.5275 39.0078C53.9325 38.8053 54.3375 38.7378 54.54 38.8053L54.675 38.8728C54.945 39.0078 55.0125 39.2778 54.8775 39.6153C54.81 39.7503 54.81 39.8853 54.81 40.0203C54.81 40.4928 55.1475 40.8303 55.6875 40.7628C56.7675 40.6953 57.915 39.6828 57.915 38.8053C57.8475 38.3328 57.51 38.0628 56.97 38.1303Z" fill="#251725"/>
<path d="M342.022 60.2029L340.74 62.4304C339.795 63.9829 342.157 67.0879 345.937 69.2479C349.717 71.4079 353.497 71.8804 354.442 70.3279L355.725 68.1004C354.78 69.6529 351 69.1804 347.22 67.0204C343.372 64.8604 341.077 61.8229 342.022 60.2029Z" fill="url(#paint37_linear_2376_20806)" stroke="#251725" stroke-miterlimit="10" stroke-linecap="round" stroke-linejoin="round"/>
<path d="M350.46 61.2828C346.68 59.1228 342.9 58.6503 341.955 60.2028C341.01 61.7553 343.372 64.8603 347.152 67.0203C350.932 69.1803 354.712 69.6528 355.657 68.1003C356.535 66.5478 354.24 63.5103 350.46 61.2828Z" fill="white"/>
<path d="M350.46 61.2828C346.68 59.1228 342.9 58.6503 341.955 60.2028C341.01 61.7553 343.372 64.8603 347.152 67.0203C350.932 69.1803 354.712 69.6528 355.657 68.1003C356.535 66.5478 354.24 63.5103 350.46 61.2828Z" fill="url(#paint38_linear_2376_20806)"/>
<path d="M350.46 61.2828C346.68 59.1228 342.9 58.6503 341.955 60.2028C341.01 61.7553 343.372 64.8603 347.152 67.0203C350.932 69.1803 354.712 69.6528 355.657 68.1003C356.535 66.5478 354.24 63.5103 350.46 61.2828Z" stroke="#251725" stroke-miterlimit="10" stroke-linecap="round" stroke-linejoin="round"/>
<path d="M342.022 60.2029L340.74 62.4304C339.795 63.9829 342.157 67.0879 345.937 69.2479C349.717 71.4079 353.497 71.8804 354.442 70.3279L355.725 68.1004C354.78 69.6529 351 69.1804 347.22 67.0204C343.372 64.8604 341.077 61.8229 342.022 60.2029Z" fill="white"/>
<path d="M342.022 60.2029L340.74 62.4304C339.795 63.9829 342.157 67.0879 345.937 69.2479C349.717 71.4079 353.497 71.8804 354.442 70.3279L355.725 68.1004C354.78 69.6529 351 69.1804 347.22 67.0204C343.372 64.8604 341.077 61.8229 342.022 60.2029Z" fill="url(#paint39_linear_2376_20806)"/>
<mask id="mask1_2376_20806" style="mask-type:alpha" maskUnits="userSpaceOnUse" x="340" y="59" width="17" height="13">
<path d="M342.022 60.2029L340.74 62.4304C339.795 63.9829 342.157 67.0879 345.937 69.2479C349.717 71.4079 353.497 71.8804 354.442 70.3279L355.725 68.1004C354.78 69.6529 351 69.1804 347.22 67.0204C343.372 64.8604 341.077 61.8229 342.022 60.2029Z" fill="#D9D9D9" stroke="#251725" stroke-miterlimit="10" stroke-linecap="round" stroke-linejoin="round"/>
</mask>
<g mask="url(#mask1_2376_20806)">
<path d="M350.865 73.8379L354.78 67.0879" stroke="#251725" stroke-miterlimit="10" stroke-linecap="round" stroke-linejoin="round"/>
<path d="M346.95 71.6104L350.865 64.8604" stroke="#251725" stroke-miterlimit="10" stroke-linecap="round" stroke-linejoin="round"/>
<path d="M343.102 69.3154L347.017 62.5654" stroke="#251725" stroke-miterlimit="10" stroke-linecap="round" stroke-linejoin="round"/>
<path d="M339.255 67.0879L343.102 60.3379" stroke="#251725" stroke-miterlimit="10" stroke-linecap="round" stroke-linejoin="round"/>
</g>
<path d="M342.022 60.2029L340.74 62.4304C339.795 63.9829 342.157 67.0879 345.937 69.2479C349.717 71.4079 353.497 71.8804 354.442 70.3279L355.725 68.1004C354.78 69.6529 351 69.1804 347.22 67.0204C343.372 64.8604 341.077 61.8229 342.022 60.2029Z" stroke="#251725" stroke-miterlimit="10" stroke-linecap="round" stroke-linejoin="round"/>
<path d="M346.815 62.0929C346.815 62.0929 346.005 62.7004 346.747 63.5779C347.557 64.5229 348.435 65.0629 348.097 66.1429C348.097 66.1429 348.772 65.8729 348.705 65.0629C348.57 64.3879 347.49 63.4429 347.22 63.1054C346.747 62.5654 346.815 62.0929 346.815 62.0929Z" fill="#251725"/>
<path d="M350.055 62.0929C350.055 62.0929 349.245 62.7004 350.122 63.5779C351 64.5229 351.945 65.0629 351.742 66.1429C351.742 66.1429 352.417 65.8729 352.215 65.0629C352.012 64.3879 350.865 63.4429 350.527 63.1054C350.055 62.5654 350.055 62.0929 350.055 62.0929Z" fill="#251725"/>
<path d="M348.165 61.4854C348.165 61.4854 347.152 62.2278 348.097 63.3078C349.11 64.4553 350.325 65.2654 349.987 66.6154C349.987 66.6154 350.865 66.2104 350.662 65.2654C350.46 64.3879 349.042 63.2403 348.637 62.7678C348.03 62.0928 348.165 61.4854 348.165 61.4854Z" fill="#251725"/>
<path d="M252.652 125.948L252.99 129.053C253.26 131.28 249.142 133.508 243.945 134.115C238.68 134.723 234.225 133.373 234.022 131.145L233.685 128.04C233.955 130.268 238.41 131.55 243.607 131.01C248.805 130.403 252.855 128.108 252.652 125.948Z" stroke="#251725" stroke-miterlimit="10" stroke-linecap="round" stroke-linejoin="round"/>
<path d="M242.662 122.978C247.927 122.37 252.382 123.72 252.585 125.948C252.855 128.175 248.737 130.403 243.54 131.01C238.275 131.618 233.82 130.268 233.617 128.04C233.347 125.813 237.465 123.585 242.662 122.978Z" fill="#FBFBFF" stroke="#251725" stroke-miterlimit="10" stroke-linecap="round" stroke-linejoin="round"/>
<path d="M252.652 125.948L252.99 129.053C253.26 131.28 249.142 133.508 243.945 134.115C238.68 134.723 234.225 133.373 234.022 131.145L233.685 128.04C233.955 130.268 238.41 131.55 243.607 131.01C248.805 130.403 252.855 128.108 252.652 125.948Z" fill="white"/>
<path d="M252.652 125.948L252.99 129.053C253.26 131.28 249.142 133.508 243.945 134.115C238.68 134.723 234.225 133.373 234.022 131.145L233.685 128.04C233.955 130.268 238.41 131.55 243.607 131.01C248.805 130.403 252.855 128.108 252.652 125.948Z" fill="url(#paint40_linear_2376_20806)"/>
<mask id="mask2_2376_20806" style="mask-type:alpha" maskUnits="userSpaceOnUse" x="233" y="125" width="21" height="10">
<path d="M252.652 125.948L252.99 129.053C253.26 131.28 249.142 133.508 243.945 134.115C238.68 134.723 234.225 133.373 234.022 131.145L233.685 128.04C233.955 130.268 238.41 131.55 243.607 131.01C248.805 130.403 252.855 128.108 252.652 125.948Z" fill="#D9D9D9" stroke="#251725" stroke-miterlimit="10" stroke-linecap="round" stroke-linejoin="round"/>
</mask>
<g mask="url(#mask2_2376_20806)">
<path d="M236.182 136.68L235.17 127.298" stroke="#251725" stroke-miterlimit="10" stroke-linecap="round" stroke-linejoin="round"/>
<path d="M240.232 136.275L239.152 126.825" stroke="#251725" stroke-miterlimit="10" stroke-linecap="round" stroke-linejoin="round"/>
<path d="M244.282 135.803L243.202 126.42" stroke="#251725" stroke-miterlimit="10" stroke-linecap="round" stroke-linejoin="round"/>
<path d="M248.332 135.398L247.252 125.948" stroke="#251725" stroke-miterlimit="10" stroke-linecap="round" stroke-linejoin="round"/>
<path d="M252.382 134.925L251.302 125.543" stroke="#251725" stroke-miterlimit="10" stroke-linecap="round" stroke-linejoin="round"/>
</g>
<path d="M252.652 125.948L252.99 129.053C253.26 131.28 249.142 133.508 243.945 134.115C238.68 134.723 234.225 133.373 234.022 131.145L233.685 128.04C233.955 130.268 238.41 131.55 243.607 131.01C248.805 130.403 252.855 128.108 252.652 125.948Z" stroke="#251725" stroke-miterlimit="10" stroke-linecap="round" stroke-linejoin="round"/>
<path d="M245.43 127.703C245.497 127.433 245.497 127.23 245.362 127.028C245.227 126.825 244.957 126.69 244.552 126.69C244.89 126.623 245.227 126.555 245.497 126.353C245.767 126.218 245.97 126.015 246.037 125.745C246.172 125.408 246.105 125.205 245.767 125.003C245.565 124.868 245.295 124.8 244.89 124.8L245.092 124.26H244.417L244.215 124.733H243.405L243.607 124.26H242.932L242.662 124.733H241.65L239.355 128.918H240.57L240.3 129.458H241.11L241.38 128.918H242.325L242.055 129.458H242.865L243.135 128.85C243.675 128.783 244.08 128.715 244.485 128.513C244.957 128.378 245.295 128.108 245.43 127.703ZM244.35 125.948C244.215 126.218 243.877 126.353 243.337 126.353H242.325L242.73 125.475H243.675C244.282 125.475 244.485 125.61 244.35 125.948ZM242.662 128.04H241.515L241.987 127.028H243.135C243.405 127.028 243.607 127.095 243.742 127.163C243.877 127.23 243.877 127.365 243.81 127.5C243.675 127.905 243.27 128.04 242.662 128.04Z" fill="#251725"/>
<path d="M75.5325 192.503L78.2325 194.258C80.1225 195.54 84.105 192.908 87.1425 188.385C90.18 183.863 91.0575 179.205 89.1675 177.923L86.4675 176.168C88.3575 177.45 87.48 182.108 84.4425 186.63C81.405 191.085 77.4225 193.718 75.5325 192.503Z" stroke="#251725" stroke-miterlimit="10" stroke-linecap="round" stroke-linejoin="round"/>
<path d="M77.5575 182.04C74.52 186.563 73.6425 191.22 75.5325 192.503C77.4225 193.785 81.405 191.153 84.4425 186.63C87.48 182.108 88.3575 177.45 86.4675 176.168C84.51 174.885 80.5275 177.518 77.5575 182.04Z" fill="#FBFBFF" stroke="#251725" stroke-miterlimit="10" stroke-linecap="round" stroke-linejoin="round"/>
<path d="M75.5325 192.503L78.2325 194.258C80.1225 195.54 84.105 192.908 87.1425 188.385C90.18 183.863 91.0575 179.205 89.1675 177.923L86.4675 176.168C88.3575 177.45 87.48 182.108 84.4425 186.63C81.405 191.085 77.4225 193.718 75.5325 192.503Z" fill="white"/>
<path d="M75.5325 192.503L78.2325 194.258C80.1225 195.54 84.105 192.908 87.1425 188.385C90.18 183.863 91.0575 179.205 89.1675 177.923L86.4675 176.168C88.3575 177.45 87.48 182.108 84.4425 186.63C81.405 191.085 77.4225 193.718 75.5325 192.503Z" fill="url(#paint41_linear_2376_20806)"/>
<mask id="mask3_2376_20806" style="mask-type:alpha" maskUnits="userSpaceOnUse" x="75" y="175" width="16" height="21">
<path d="M75.5325 192.503L78.2325 194.258C80.1225 195.54 84.105 192.908 87.1425 188.385C90.18 183.863 91.0575 179.205 89.1675 177.923L86.4675 176.168C88.3575 177.45 87.48 182.108 84.4425 186.63C81.405 191.085 77.4225 193.718 75.5325 192.503Z" fill="#D9D9D9" stroke="#251725" stroke-miterlimit="10" stroke-linecap="round" stroke-linejoin="round"/>
</mask>
<g mask="url(#mask3_2376_20806)">
<path d="M93.15 182.513L85.05 177.18" stroke="#251725" stroke-miterlimit="10" stroke-linecap="round" stroke-linejoin="round"/>
<path d="M90.8549 186.023L82.7549 180.623" stroke="#251725" stroke-miterlimit="10" stroke-linecap="round" stroke-linejoin="round"/>
<path d="M88.4926 189.533L80.3926 184.133" stroke="#251725" stroke-miterlimit="10" stroke-linecap="round" stroke-linejoin="round"/>
<path d="M86.1974 192.975L78.0974 187.575" stroke="#251725" stroke-miterlimit="10" stroke-linecap="round" stroke-linejoin="round"/>
<path d="M83.9025 196.485L75.8025 191.085" stroke="#251725" stroke-miterlimit="10" stroke-linecap="round" stroke-linejoin="round"/>
</g>
<path d="M75.5325 192.503L78.2325 194.258C80.1225 195.54 84.105 192.908 87.1425 188.385C90.18 183.863 91.0575 179.205 89.1675 177.923L86.4675 176.168C88.3575 177.45 87.48 182.108 84.4425 186.63C81.405 191.085 77.4225 193.718 75.5325 192.503Z" stroke="#251725" stroke-miterlimit="10" stroke-linecap="round" stroke-linejoin="round"/>
<path d="M81.675 182.175L80.055 183.66L79.0425 183.458L78.84 184.065L79.4475 184.268L77.22 186.293L78.84 187.035L81.405 184.808L83.025 185.28L83.295 184.335L82.215 184.133L84.7125 181.973L79.92 180.488L79.11 181.23L81.675 182.175Z" fill="#251725"/>
<path d="M332.1 13.2228L330.75 17.0028C329.805 19.7028 323.797 20.0403 317.317 17.7453C310.837 15.4503 306.45 11.4003 307.395 8.70029L308.745 4.92029C307.8 7.62029 312.255 11.6703 318.667 13.9653C325.147 16.2603 331.155 15.9228 332.1 13.2228Z" stroke="#251725" stroke-miterlimit="10" stroke-linecap="round" stroke-linejoin="round"/>
<path d="M332.027 13.1895C332.991 10.4855 328.562 6.43696 322.136 4.14678C315.709 1.8566 309.719 2.19205 308.755 4.89606C307.791 7.60007 312.22 11.6487 318.646 13.9388C325.073 16.229 331.063 15.8935 332.027 13.1895Z" fill="#FBFBFF" stroke="#251725" stroke-miterlimit="10" stroke-linecap="round" stroke-linejoin="round"/>
<path d="M314.212 6.06774L318.195 9.57775L321.3 8.63274L319.477 5.93274L314.212 6.06774Z" fill="#251725"/>
<path d="M322.717 9.10527L319.545 10.0503L327.51 10.8603L320.827 6.40527L322.717 9.10527Z" fill="#251725"/>
<path d="M332.1 13.2228L330.75 17.0028C329.805 19.7028 323.798 20.0403 317.318 17.7453C310.838 15.4503 306.45 11.4003 307.395 8.70029L308.745 4.92029C307.8 7.62029 312.255 11.6703 318.668 13.9653C325.148 16.2603 331.155 15.9228 332.1 13.2228Z" fill="white"/>
<path d="M332.1 13.2228L330.75 17.0028C329.805 19.7028 323.798 20.0403 317.318 17.7453C310.838 15.4503 306.45 11.4003 307.395 8.70029L308.745 4.92029C307.8 7.62029 312.255 11.6703 318.668 13.9653C325.148 16.2603 331.155 15.9228 332.1 13.2228Z" fill="url(#paint42_linear_2376_20806)"/>
<mask id="mask4_2376_20806" style="mask-type:alpha" maskUnits="userSpaceOnUse" x="306" y="4" width="27" height="16">
<path d="M332.1 13.2228L330.75 17.0028C329.805 19.7028 323.797 20.0403 317.317 17.7453C310.837 15.4503 306.45 11.4003 307.395 8.70029L308.745 4.92029C307.8 7.62029 312.255 11.6703 318.667 13.9653C325.147 16.2603 331.155 15.9228 332.1 13.2228Z" fill="#D9D9D9" stroke="#251725" stroke-miterlimit="10" stroke-linecap="round" stroke-linejoin="round"/>
</mask>
<g mask="url(#mask4_2376_20806)">
<path d="M306.855 16.4628L310.905 4.92029" stroke="#251725" stroke-miterlimit="10" stroke-linecap="round" stroke-linejoin="round"/>
<path d="M310.77 17.8803L314.888 6.33777" stroke="#251725" stroke-miterlimit="10" stroke-linecap="round" stroke-linejoin="round"/>
<path d="M314.752 19.2978L318.87 7.75525" stroke="#251725" stroke-miterlimit="10" stroke-linecap="round" stroke-linejoin="round"/>
<path d="M318.735 20.7154L322.852 9.17285" stroke="#251725" stroke-miterlimit="10" stroke-linecap="round" stroke-linejoin="round"/>
<path d="M322.718 22.1328L326.835 10.5903" stroke="#251725" stroke-miterlimit="10" stroke-linecap="round" stroke-linejoin="round"/>
<path d="M326.7 23.5503L330.817 12.0078" stroke="#251725" stroke-miterlimit="10" stroke-linecap="round" stroke-linejoin="round"/>
</g>
<path d="M332.1 13.2228L330.75 17.0028C329.805 19.7028 323.797 20.0403 317.317 17.7453C310.837 15.4503 306.45 11.4003 307.395 8.70029L308.745 4.92029C307.8 7.62029 312.255 11.6703 318.667 13.9653C325.147 16.2603 331.155 15.9228 332.1 13.2228Z" stroke="#251725" stroke-miterlimit="10" stroke-linecap="round" stroke-linejoin="round"/>
<path d="M47.5201 71.2727C45.9676 71.2727 44.6851 69.9902 44.6851 68.4377V64.2527C44.6851 62.7002 45.9676 61.4177 47.5201 61.4177C49.0726 61.4177 50.3551 62.7002 50.3551 64.2527V68.4377C50.2876 69.9902 49.0726 71.2727 47.5201 71.2727Z" fill="white" stroke="#251725" stroke-miterlimit="10" stroke-linecap="round" stroke-linejoin="round"/>
<path d="M59.67 93.9528C58.1175 93.9528 56.835 92.6703 56.835 91.1178V86.9328C56.835 85.3803 58.1175 84.0978 59.67 84.0978C61.2225 84.0978 62.505 85.3803 62.505 86.9328V91.1178C62.505 92.6703 61.2225 93.9528 59.67 93.9528Z" fill="white" stroke="#251725" stroke-miterlimit="10" stroke-linecap="round" stroke-linejoin="round"/>
<path d="M34.8975 77.3478C33.345 77.3478 32.0625 76.0652 32.0625 74.5127V72.9603C32.0625 71.4078 33.345 70.1252 34.8975 70.1252C36.45 70.1252 37.7325 71.4078 37.7325 72.9603V74.5127C37.7325 76.0652 36.45 77.3478 34.8975 77.3478Z" fill="white" stroke="#251725" stroke-miterlimit="10" stroke-linecap="round" stroke-linejoin="round"/>
<path d="M280.395 12.8853C278.843 12.8853 277.56 11.6028 277.56 10.0503V5.86528C277.56 4.31278 278.843 3.03027 280.395 3.03027C281.948 3.03027 283.23 4.31278 283.23 5.86528V10.0503C283.163 11.6028 281.88 12.8853 280.395 12.8853Z" fill="white" stroke="#251725" stroke-miterlimit="10" stroke-linecap="round" stroke-linejoin="round"/>
<path d="M292.545 35.5653C290.992 35.5653 289.71 34.2828 289.71 32.7303V28.5453C289.71 26.9928 290.992 25.7103 292.545 25.7103C294.097 25.7103 295.38 26.9928 295.38 28.5453V32.7303C295.312 34.2828 294.097 35.5653 292.545 35.5653Z" fill="white" stroke="#251725" stroke-miterlimit="10" stroke-linecap="round" stroke-linejoin="round"/>
<path d="M267.772 31.1103C266.22 31.1103 264.938 29.8278 264.938 28.2753V14.5728C264.938 13.0203 266.22 11.7378 267.772 11.7378C269.325 11.7378 270.607 13.0203 270.607 14.5728V28.2753C270.607 29.8953 269.325 31.1103 267.772 31.1103Z" fill="white" stroke="#251725" stroke-miterlimit="10" stroke-linecap="round" stroke-linejoin="round"/>
<path d="M115.357 132.563C116.91 132.563 118.192 131.28 118.192 129.728V125.543C118.192 123.99 116.91 122.708 115.357 122.708C113.805 122.708 112.522 123.99 112.522 125.543V129.728C112.59 131.28 113.805 132.563 115.357 132.563Z" fill="white" stroke="#251725" stroke-miterlimit="10" stroke-linecap="round" stroke-linejoin="round"/>
<path d="M103.208 146.535C104.76 146.535 106.043 145.253 106.043 143.7V139.515C106.043 137.963 104.76 136.68 103.208 136.68C101.655 136.68 100.373 137.963 100.373 139.515V143.7C100.373 145.253 101.655 146.535 103.208 146.535Z" fill="white" stroke="#251725" stroke-miterlimit="10" stroke-linecap="round" stroke-linejoin="round"/>
<path d="M127.98 162.263C129.533 162.263 130.815 160.98 130.815 159.428V145.725C130.815 144.173 129.533 142.89 127.98 142.89C126.428 142.89 125.145 144.173 125.145 145.725V159.428C125.145 160.98 126.428 162.263 127.98 162.263Z" fill="white" stroke="#251725" stroke-miterlimit="10" stroke-linecap="round" stroke-linejoin="round"/>
<path d="M287.955 134.453C289.508 134.453 290.79 133.17 290.79 131.618V127.433C290.79 125.88 289.508 124.598 287.955 124.598C286.403 124.598 285.12 125.88 285.12 127.433V131.618C285.187 133.17 286.403 134.453 287.955 134.453Z" fill="white" stroke="#251725" stroke-miterlimit="10" stroke-linecap="round" stroke-linejoin="round"/>
<circle cx="200.052" cy="67.6478" r="39.5" fill="#D9D9D9" stroke="#251725"/>
<mask id="mask5_2376_20806" style="mask-type:alpha" maskUnits="userSpaceOnUse" x="161" y="28" width="79" height="79">
<circle cx="200.052" cy="67.6478" r="39" fill="#D9D9D9"/>
</mask>
<g mask="url(#mask5_2376_20806)">
<circle cx="200.052" cy="67.6478" r="39" fill="#251725"/>
<circle cx="193.052" cy="62.6478" r="39" fill="white"/>
</g>
<path d="M192.363 69.7369C192.363 69.7369 195.468 71.3569 196.548 72.9769C197.628 74.4619 196.953 75.6769 200.193 78.2419C203.433 80.8069 203.973 81.6169 204.243 82.4269C204.513 83.2369 196.548 80.9419 194.523 79.5919C192.498 78.1069 191.823 77.5669 190.608 75.4069C189.393 73.2469 189.123 69.7369 189.123 69.7369H192.363Z" fill="#A499CE" stroke="#251725" stroke-miterlimit="10" stroke-linecap="round" stroke-linejoin="round"/>
<path d="M208.023 83.5069C208.023 83.5069 210.183 83.3719 212.883 84.5869C215.583 85.8019 217.608 83.1019 217.878 84.5869C218.148 86.0719 215.043 88.9069 212.883 87.6919C210.858 86.3419 207.888 84.5869 208.023 83.5069Z" fill="#A499CE" stroke="#251725" stroke-miterlimit="10" stroke-linecap="round" stroke-linejoin="round"/>
<path d="M215.583 79.4569C215.583 79.4569 214.368 74.4619 215.583 73.7869C216.798 73.1119 217.878 70.1419 218.553 70.5469C219.228 70.9519 222.873 68.7919 222.063 70.5469C221.253 72.3019 221.118 75.2719 222.198 76.0819C223.278 76.8919 226.653 77.4319 225.573 78.3769C224.493 79.4569 215.853 80.5369 215.583 79.4569Z" fill="#A499CE" stroke="#251725" stroke-miterlimit="10" stroke-linecap="round" stroke-linejoin="round"/>
<path d="M222.873 84.5868C222.873 84.5868 223.683 82.9668 225.708 83.5068C227.868 84.0468 226.383 87.0168 222.873 84.5868Z" fill="#A499CE" stroke="#251725" stroke-miterlimit="10" stroke-linecap="round" stroke-linejoin="round"/>
<path d="M208.023 29.5069C208.023 29.5069 206.403 32.4769 205.998 33.4219C205.593 34.2319 202.083 38.4169 200.058 39.2269C198.033 40.0369 198.303 40.3069 195.603 41.7919C192.903 43.2769 194.118 44.4919 194.118 44.4919C194.118 44.4919 192.228 57.4519 193.848 59.0719C195.468 60.8269 195.468 66.4969 195.468 66.4969C195.468 66.4969 191.688 65.6869 187.368 62.7169C183.048 59.7469 187.368 62.7169 185.478 59.7469C183.588 56.7769 178.188 56.2369 176.703 55.4269C175.218 54.6169 170.223 55.8319 169.278 55.4269C168.198 55.0219 164.418 51.6469 164.418 51.6469C170.493 38.1469 184.128 28.6969 199.923 28.6969C202.893 28.6969 205.458 28.9669 208.023 29.5069Z" fill="#A499CE" stroke="#251725" stroke-miterlimit="10" stroke-linecap="round" stroke-linejoin="round"/>
<path d="M217.878 102.272C212.613 104.972 206.538 106.592 200.058 106.592C197.358 106.592 194.793 106.322 192.228 105.782C192.498 105.512 196.683 102.137 204.108 100.787C211.803 99.3019 208.293 98.0869 209.103 97.2769C209.913 96.4669 211.128 97.5469 212.883 99.9769C214.638 102.272 217.608 102.272 217.878 102.272Z" fill="#A499CE" stroke="#251725" stroke-miterlimit="10" stroke-linecap="round" stroke-linejoin="round"/>
<path d="M239.073 67.5769C239.073 68.5219 239.073 69.6019 238.938 70.5469L229.488 62.4469C229.488 62.4469 228.273 60.1519 227.463 59.4769C226.653 58.8019 229.893 55.9669 229.488 53.2669C228.948 50.5669 225.843 44.8969 225.573 44.3569C225.438 43.8169 226.518 39.4969 226.653 39.0919C234.213 46.2469 239.073 56.3719 239.073 67.5769Z" fill="#A499CE" stroke="#251725" stroke-miterlimit="10" stroke-linecap="round" stroke-linejoin="round"/>
<path d="M227.529 95.1239C242.712 79.9404 242.712 55.3232 227.529 40.1398C212.345 24.9564 187.728 24.9564 172.545 40.1398C157.361 55.3232 157.361 79.9404 172.545 95.1239C187.728 110.307 212.345 110.307 227.529 95.1239Z" stroke="#251725" stroke-miterlimit="10" stroke-linecap="round" stroke-linejoin="round"/>
<path d="M199.732 113.982C170.564 113.982 146.917 90.3358 146.917 61.1669C146.917 31.998 170.564 8.35193 199.732 8.35193C228.901 8.35193 252.547 31.998 252.547 61.1669C252.547 90.3358 228.901 113.982 199.732 113.982Z" fill="white"/>
<path d="M199.732 113.982C170.564 113.982 146.917 90.3358 146.917 61.1669C146.917 31.998 170.564 8.35193 199.732 8.35193C228.901 8.35193 252.547 31.998 252.547 61.1669C252.547 90.3358 228.901 113.982 199.732 113.982Z" fill="url(#paint43_radial_2376_20806)"/>
<path d="M146.952 62.2169C147.232 76.6019 153.357 90.8119 165.082 100.997C187.097 120.142 220.452 117.832 239.562 95.8169C258.602 73.9419 256.432 40.8669 234.802 21.6869C243.587 38.7669 241.627 60.2219 228.257 75.6219C210.687 95.7819 180.132 97.9169 159.972 80.3469C154.057 75.2369 149.717 69.0069 146.952 62.2169Z" fill="url(#paint44_linear_2376_20806)"/>
<path d="M199.732 113.982C170.564 113.982 146.917 90.3358 146.917 61.1669C146.917 31.998 170.564 8.35193 199.732 8.35193C228.901 8.35193 252.547 31.998 252.547 61.1669C252.547 90.3358 228.901 113.982 199.732 113.982Z" stroke="#251725" stroke-miterlimit="10" stroke-linecap="round" stroke-linejoin="round"/>
<path d="M171.137 101.662C171.137 101.662 163.402 99.142 159.202 92.352C155.002 85.562 156.542 84.757 152.097 78.072C147.652 71.387 148.457 52.907 148.457 52.907C148.457 52.907 149.962 65.612 151.187 66.837C152.412 68.062 151.642 69.392 152.132 69.952C152.622 70.512 154.407 70.932 155.317 72.227C156.227 73.522 157.172 70.827 160.812 73.382C164.452 75.937 167.847 75.377 168.337 79.192C168.827 83.042 167.007 86.262 167.917 87.557C168.827 88.852 170.262 87.802 170.227 92.597C170.192 97.392 174.742 97.392 171.137 101.662Z" fill="#343FFC"/>
<path d="M171.137 101.662C171.137 101.662 163.402 99.142 159.202 92.352C155.002 85.562 156.542 84.757 152.097 78.072C147.652 71.387 148.457 52.907 148.457 52.907C148.457 52.907 149.962 65.612 151.187 66.837C152.412 68.062 151.642 69.392 152.132 69.952C152.622 70.512 154.407 70.932 155.317 72.227C156.227 73.522 157.172 70.827 160.812 73.382C164.452 75.937 167.847 75.377 168.337 79.192C168.827 83.042 167.007 86.262 167.917 87.557C168.827 88.852 170.262 87.802 170.227 92.597C170.192 97.392 174.742 97.392 171.137 101.662Z" fill="url(#paint45_linear_2376_20806)"/>
<path d="M171.137 101.662C171.137 101.662 163.402 99.142 159.202 92.352C155.002 85.562 156.542 84.757 152.097 78.072C147.652 71.387 148.457 52.907 148.457 52.907C148.457 52.907 149.962 65.612 151.187 66.837C152.412 68.062 151.642 69.392 152.132 69.952C152.622 70.512 154.407 70.932 155.317 72.227C156.227 73.522 157.172 70.827 160.812 73.382C164.452 75.937 167.847 75.377 168.337 79.192C168.827 83.042 167.007 86.262 167.917 87.557C168.827 88.852 170.262 87.802 170.227 92.597C170.192 97.392 174.742 97.392 171.137 101.662Z" stroke="#251725" stroke-miterlimit="10" stroke-linecap="round" stroke-linejoin="round"/>
<path d="M213.837 67.1519C215.552 69.0769 215.517 72.0169 213.767 73.9069C212.962 74.7819 212.052 75.9019 211.107 77.2669C208.727 80.6969 204.247 80.5569 201.342 81.8869C198.437 83.1819 197.317 84.8969 193.327 82.9719C189.337 81.0469 188.707 83.9869 185.697 80.3819C182.687 76.7769 184.087 76.4619 186.922 70.9319C189.757 65.4019 193.922 61.6919 190.492 59.9769C187.062 58.2619 187.482 57.1069 186.607 55.1469C185.732 53.1519 184.192 52.8719 179.957 51.4019C175.722 49.9319 174.182 48.8469 171.417 45.9769C168.687 43.0719 165.782 39.4669 170.962 36.4919C176.142 33.5169 179.817 36.3519 182.897 33.4119C185.977 30.4719 190.422 35.9319 193.152 35.1969C195.882 34.4619 207.467 29.6319 208.412 33.4119C209.322 37.1919 205.472 41.4269 210.127 44.7519C214.782 48.0769 215.482 46.1169 215.307 49.1619C215.132 52.2069 219.822 53.3269 217.302 56.0569C214.782 58.7869 211.282 64.4219 213.697 67.0819C213.767 67.0819 213.802 67.1169 213.837 67.1519Z" fill="#343FFC"/>
<path d="M213.837 67.1519C215.552 69.0769 215.517 72.0169 213.767 73.9069C212.962 74.7819 212.052 75.9019 211.107 77.2669C208.727 80.6969 204.247 80.5569 201.342 81.8869C198.437 83.1819 197.317 84.8969 193.327 82.9719C189.337 81.0469 188.707 83.9869 185.697 80.3819C182.687 76.7769 184.087 76.4619 186.922 70.9319C189.757 65.4019 193.922 61.6919 190.492 59.9769C187.062 58.2619 187.482 57.1069 186.607 55.1469C185.732 53.1519 184.192 52.8719 179.957 51.4019C175.722 49.9319 174.182 48.8469 171.417 45.9769C168.687 43.0719 165.782 39.4669 170.962 36.4919C176.142 33.5169 179.817 36.3519 182.897 33.4119C185.977 30.4719 190.422 35.9319 193.152 35.1969C195.882 34.4619 207.467 29.6319 208.412 33.4119C209.322 37.1919 205.472 41.4269 210.127 44.7519C214.782 48.0769 215.482 46.1169 215.307 49.1619C215.132 52.2069 219.822 53.3269 217.302 56.0569C214.782 58.7869 211.282 64.4219 213.697 67.0819C213.767 67.0819 213.802 67.1169 213.837 67.1519Z" fill="url(#paint46_linear_2376_20806)"/>
<path d="M213.837 67.1519C215.552 69.0769 215.517 72.0169 213.767 73.9069C212.962 74.7819 212.052 75.9019 211.107 77.2669C208.727 80.6969 204.247 80.5569 201.342 81.8869C198.437 83.1819 197.317 84.8969 193.327 82.9719C189.337 81.0469 188.707 83.9869 185.697 80.3819C182.687 76.7769 184.087 76.4619 186.922 70.9319C189.757 65.4019 193.922 61.6919 190.492 59.9769C187.062 58.2619 187.482 57.1069 186.607 55.1469C185.732 53.1519 184.192 52.8719 179.957 51.4019C175.722 49.9319 174.182 48.8469 171.417 45.9769C168.687 43.0719 165.782 39.4669 170.962 36.4919C176.142 33.5169 179.817 36.3519 182.897 33.4119C185.977 30.4719 190.422 35.9319 193.152 35.1969C195.882 34.4619 207.467 29.6319 208.412 33.4119C209.322 37.1919 205.472 41.4269 210.127 44.7519C214.782 48.0769 215.482 46.1169 215.307 49.1619C215.132 52.2069 219.822 53.3269 217.302 56.0569C214.782 58.7869 211.282 64.4219 213.697 67.0819C213.767 67.0819 213.802 67.1169 213.837 67.1519Z" stroke="#251725" stroke-miterlimit="10" stroke-linecap="round" stroke-linejoin="round"/>
<path d="M197.037 28.9319C195.602 28.5119 194.132 28.3019 192.662 28.4069C192.137 28.4419 191.647 28.4769 191.227 28.6169C189.512 29.0719 184.052 28.8269 183.107 28.1269C182.197 27.4269 187.867 23.4369 192.242 24.0669C196.617 24.6969 198.087 24.5569 199.382 24.4869C200.607 24.3819 203.442 30.7869 197.037 28.9319Z" fill="#343FFC"/>
<path d="M197.037 28.9319C195.602 28.5119 194.132 28.3019 192.662 28.4069C192.137 28.4419 191.647 28.4769 191.227 28.6169C189.512 29.0719 184.052 28.8269 183.107 28.1269C182.197 27.4269 187.867 23.4369 192.242 24.0669C196.617 24.6969 198.087 24.5569 199.382 24.4869C200.607 24.3819 203.442 30.7869 197.037 28.9319Z" fill="url(#paint47_linear_2376_20806)"/>
<path d="M197.037 28.9319C195.602 28.5119 194.132 28.3019 192.662 28.4069C192.137 28.4419 191.647 28.4769 191.227 28.6169C189.512 29.0719 184.052 28.8269 183.107 28.1269C182.197 27.4269 187.867 23.4369 192.242 24.0669C196.617 24.6969 198.087 24.5569 199.382 24.4869C200.607 24.3819 203.442 30.7869 197.037 28.9319Z" stroke="#251725" stroke-miterlimit="10" stroke-linecap="round" stroke-linejoin="round"/>
<path d="M184.227 105.932C184.227 105.932 180.167 103.552 179.502 102.467C178.837 101.382 178.592 100.472 177.052 101.137C175.477 101.802 174.182 102.292 176.177 103.657C178.172 105.022 177.997 105.897 178.802 106.737C179.607 107.577 180.307 106.457 181.322 106.352C182.302 106.317 185.417 108.242 184.227 105.932Z" fill="#343FFC"/>
<path d="M184.227 105.932C184.227 105.932 180.167 103.552 179.502 102.467C178.837 101.382 178.592 100.472 177.052 101.137C175.477 101.802 174.182 102.292 176.177 103.657C178.172 105.022 177.997 105.897 178.802 106.737C179.607 107.577 180.307 106.457 181.322 106.352C182.302 106.317 185.417 108.242 184.227 105.932Z" fill="url(#paint48_linear_2376_20806)"/>
<path d="M184.227 105.932C184.227 105.932 180.167 103.552 179.502 102.467C178.837 101.382 178.592 100.472 177.052 101.137C175.477 101.802 174.182 102.292 176.177 103.657C178.172 105.022 177.997 105.897 178.802 106.737C179.607 107.577 180.307 106.457 181.322 106.352C182.302 106.317 185.417 108.242 184.227 105.932Z" stroke="#251725" stroke-miterlimit="10" stroke-linecap="round" stroke-linejoin="round"/>
<path d="M231.093 83.6719C230.953 83.8819 230.743 83.9869 230.498 84.0219C230.008 84.0919 228.958 84.0919 228.118 83.0069C226.963 81.5019 226.123 82.0269 224.758 82.3069C223.393 82.5869 227.033 79.6119 227.523 79.6119C228.013 79.6119 228.013 80.8719 229.063 81.3269C230.008 81.7469 231.618 82.8669 231.093 83.6719Z" fill="#343FFC"/>
<path d="M231.093 83.6719C230.953 83.8819 230.743 83.9869 230.498 84.0219C230.008 84.0919 228.958 84.0919 228.118 83.0069C226.963 81.5019 226.123 82.0269 224.758 82.3069C223.393 82.5869 227.033 79.6119 227.523 79.6119C228.013 79.6119 228.013 80.8719 229.063 81.3269C230.008 81.7469 231.618 82.8669 231.093 83.6719Z" fill="url(#paint49_linear_2376_20806)"/>
<path d="M231.093 83.6719C230.953 83.8819 230.743 83.9869 230.498 84.0219C230.008 84.0919 228.958 84.0919 228.118 83.0069C226.963 81.5019 226.123 82.0269 224.758 82.3069C223.393 82.5869 227.033 79.6119 227.523 79.6119C228.013 79.6119 228.013 80.8719 229.063 81.3269C230.008 81.7469 231.618 82.8669 231.093 83.6719Z" stroke="#251725" stroke-miterlimit="10" stroke-linecap="round" stroke-linejoin="round"/>
<path d="M211.703 104.567C212.788 106.387 213.278 105.022 215.413 106.352C217.548 107.682 214.853 107.717 215.693 108.102C216.533 108.487 219.578 108.312 216.288 110.237C212.998 112.162 205.158 111.077 206.103 112.582C207.048 114.052 208.203 112.127 209.778 112.897C209.848 112.932 209.918 112.967 209.953 113.002C201.238 114.717 192.138 114.227 183.563 111.497C183.808 111.147 183.703 110.587 182.863 109.607C179.853 106.037 184.543 111.462 191.613 110.062C198.683 108.662 203.583 107.857 201.798 107.542C199.978 107.192 203.268 105.267 204.318 105.337C205.368 105.407 203.303 107.962 205.088 108.102C206.873 108.207 210.618 102.747 211.703 104.567Z" fill="#343FFC"/>
<path d="M211.703 104.567C212.788 106.387 213.278 105.022 215.413 106.352C217.548 107.682 214.853 107.717 215.693 108.102C216.533 108.487 219.578 108.312 216.288 110.237C212.998 112.162 205.158 111.077 206.103 112.582C207.048 114.052 208.203 112.127 209.778 112.897C209.848 112.932 209.918 112.967 209.953 113.002C201.238 114.717 192.138 114.227 183.563 111.497C183.808 111.147 183.703 110.587 182.863 109.607C179.853 106.037 184.543 111.462 191.613 110.062C198.683 108.662 203.583 107.857 201.798 107.542C199.978 107.192 203.268 105.267 204.318 105.337C205.368 105.407 203.303 107.962 205.088 108.102C206.873 108.207 210.618 102.747 211.703 104.567Z" fill="url(#paint50_linear_2376_20806)"/>
<path d="M211.703 104.567C212.788 106.387 213.278 105.022 215.413 106.352C217.548 107.682 214.853 107.717 215.693 108.102C216.533 108.487 219.578 108.312 216.288 110.237C212.998 112.162 205.158 111.077 206.103 112.582C207.048 114.052 208.203 112.127 209.778 112.897C209.848 112.932 209.918 112.967 209.953 113.002C201.238 114.717 192.138 114.227 183.563 111.497C183.808 111.147 183.703 110.587 182.863 109.607C179.853 106.037 184.543 111.462 191.613 110.062C198.683 108.662 203.583 107.857 201.798 107.542C199.978 107.192 203.268 105.267 204.318 105.337C205.368 105.407 203.303 107.962 205.088 108.102C206.873 108.207 210.618 102.747 211.703 104.567Z" stroke="#251725" stroke-miterlimit="10" stroke-linecap="round" stroke-linejoin="round"/>
<path d="M234.382 21.337C248.592 33.727 254.612 52.032 251.882 69.392L251.217 71.807C251.217 71.807 248.977 69.497 248.837 65.892C248.697 62.287 248.417 57.597 247.437 61.202C246.422 64.807 246.212 66.522 244.742 65.997C243.272 65.472 242.677 66.802 243.097 68.097C243.517 69.392 245.092 66.382 245.092 69.672C245.092 72.997 245.057 74.992 239.597 76.532C234.137 78.072 236.132 79.647 234.137 78.072C232.142 76.497 235.292 75.552 234.592 74.537C233.927 73.522 232.352 72.857 235.152 71.947C237.987 71.037 237.777 73.382 239.352 72.892C240.927 72.437 242.362 71.387 239.562 71.562C236.762 71.737 239.702 67.922 239.387 67.292C239.107 66.662 236.972 69.392 234.872 69.042C232.772 68.692 231.372 73.172 231.337 74.677C231.302 76.182 231.687 76.217 229.342 76.707C226.997 77.232 226.017 78.527 224.827 80.137C223.637 81.747 222.657 80.137 222.447 79.297C222.237 78.457 220.592 76.602 220.067 80.242C219.542 83.882 214.852 81.327 214.117 82.377C213.382 83.392 210.407 82.027 213.872 78.702C217.337 75.377 223.322 74.292 222.972 72.752C222.622 71.212 223.637 66.487 221.047 65.472C218.492 64.457 222.482 63.162 223.637 64.212C224.792 65.262 224.512 63.127 223.287 61.552C222.062 59.977 220.487 57.912 224.022 59.137C227.557 60.362 231.897 59.207 231.722 57.877C231.547 56.547 229.867 55.182 231.617 53.117C233.367 51.052 228.887 51.122 229.132 54.797C229.377 58.437 224.337 56.162 224.197 57.667C224.057 59.137 219.507 56.547 225.037 51.227C230.602 45.907 220.487 46.712 215.902 43.072C211.317 39.432 210.652 32.957 215.902 32.502C221.152 32.047 221.747 32.887 221.887 36.142C222.027 39.362 223.357 40.342 223.882 40.272C224.407 40.202 225.072 36.527 224.162 34.042C223.252 31.522 225.282 29.037 224.302 27.812C223.322 26.587 219.157 26.062 216.567 20.007C214.537 15.177 226.437 22.387 227.697 21.337C230.812 18.782 216.532 16.157 213.207 12.202C212.087 10.872 215.272 11.292 219.997 12.412C225.142 14.547 230.007 17.522 234.382 21.337Z" fill="#343FFC"/>
<path d="M234.382 21.337C248.592 33.727 254.612 52.032 251.882 69.392L251.217 71.807C251.217 71.807 248.977 69.497 248.837 65.892C248.697 62.287 248.417 57.597 247.437 61.202C246.422 64.807 246.212 66.522 244.742 65.997C243.272 65.472 242.677 66.802 243.097 68.097C243.517 69.392 245.092 66.382 245.092 69.672C245.092 72.997 245.057 74.992 239.597 76.532C234.137 78.072 236.132 79.647 234.137 78.072C232.142 76.497 235.292 75.552 234.592 74.537C233.927 73.522 232.352 72.857 235.152 71.947C237.987 71.037 237.777 73.382 239.352 72.892C240.927 72.437 242.362 71.387 239.562 71.562C236.762 71.737 239.702 67.922 239.387 67.292C239.107 66.662 236.972 69.392 234.872 69.042C232.772 68.692 231.372 73.172 231.337 74.677C231.302 76.182 231.687 76.217 229.342 76.707C226.997 77.232 226.017 78.527 224.827 80.137C223.637 81.747 222.657 80.137 222.447 79.297C222.237 78.457 220.592 76.602 220.067 80.242C219.542 83.882 214.852 81.327 214.117 82.377C213.382 83.392 210.407 82.027 213.872 78.702C217.337 75.377 223.322 74.292 222.972 72.752C222.622 71.212 223.637 66.487 221.047 65.472C218.492 64.457 222.482 63.162 223.637 64.212C224.792 65.262 224.512 63.127 223.287 61.552C222.062 59.977 220.487 57.912 224.022 59.137C227.557 60.362 231.897 59.207 231.722 57.877C231.547 56.547 229.867 55.182 231.617 53.117C233.367 51.052 228.887 51.122 229.132 54.797C229.377 58.437 224.337 56.162 224.197 57.667C224.057 59.137 219.507 56.547 225.037 51.227C230.602 45.907 220.487 46.712 215.902 43.072C211.317 39.432 210.652 32.957 215.902 32.502C221.152 32.047 221.747 32.887 221.887 36.142C222.027 39.362 223.357 40.342 223.882 40.272C224.407 40.202 225.072 36.527 224.162 34.042C223.252 31.522 225.282 29.037 224.302 27.812C223.322 26.587 219.157 26.062 216.567 20.007C214.537 15.177 226.437 22.387 227.697 21.337C230.812 18.782 216.532 16.157 213.207 12.202C212.087 10.872 215.272 11.292 219.997 12.412C225.142 14.547 230.007 17.522 234.382 21.337Z" fill="url(#paint51_linear_2376_20806)"/>
<path d="M234.382 21.337C248.592 33.727 254.612 52.032 251.882 69.392L251.217 71.807C251.217 71.807 248.977 69.497 248.837 65.892C248.697 62.287 248.417 57.597 247.437 61.202C246.422 64.807 246.212 66.522 244.742 65.997C243.272 65.472 242.677 66.802 243.097 68.097C243.517 69.392 245.092 66.382 245.092 69.672C245.092 72.997 245.057 74.992 239.597 76.532C234.137 78.072 236.132 79.647 234.137 78.072C232.142 76.497 235.292 75.552 234.592 74.537C233.927 73.522 232.352 72.857 235.152 71.947C237.987 71.037 237.777 73.382 239.352 72.892C240.927 72.437 242.362 71.387 239.562 71.562C236.762 71.737 239.702 67.922 239.387 67.292C239.107 66.662 236.972 69.392 234.872 69.042C232.772 68.692 231.372 73.172 231.337 74.677C231.302 76.182 231.687 76.217 229.342 76.707C226.997 77.232 226.017 78.527 224.827 80.137C223.637 81.747 222.657 80.137 222.447 79.297C222.237 78.457 220.592 76.602 220.067 80.242C219.542 83.882 214.852 81.327 214.117 82.377C213.382 83.392 210.407 82.027 213.872 78.702C217.337 75.377 223.322 74.292 222.972 72.752C222.622 71.212 223.637 66.487 221.047 65.472C218.492 64.457 222.482 63.162 223.637 64.212C224.792 65.262 224.512 63.127 223.287 61.552C222.062 59.977 220.487 57.912 224.022 59.137C227.557 60.362 231.897 59.207 231.722 57.877C231.547 56.547 229.867 55.182 231.617 53.117C233.367 51.052 228.887 51.122 229.132 54.797C229.377 58.437 224.337 56.162 224.197 57.667C224.057 59.137 219.507 56.547 225.037 51.227C230.602 45.907 220.487 46.712 215.902 43.072C211.317 39.432 210.652 32.957 215.902 32.502C221.152 32.047 221.747 32.887 221.887 36.142C222.027 39.362 223.357 40.342 223.882 40.272C224.407 40.202 225.072 36.527 224.162 34.042C223.252 31.522 225.282 29.037 224.302 27.812C223.322 26.587 219.157 26.062 216.567 20.007C214.537 15.177 226.437 22.387 227.697 21.337C230.812 18.782 216.532 16.157 213.207 12.202C212.087 10.872 215.272 11.292 219.997 12.412C225.142 14.547 230.007 17.522 234.382 21.337Z" stroke="#251725" stroke-miterlimit="10" stroke-linecap="round" stroke-linejoin="round"/>
<path d="M227.452 95.922C228.397 94.487 232.982 94.557 234.522 93.157C236.062 91.757 238.967 89.657 240.227 88.362C241.487 87.067 242.117 87.452 242.327 88.047C242.537 88.642 244.322 86.297 245.162 85.912C245.582 85.702 246.387 85.107 247.122 84.512C245.442 87.942 243.342 91.232 240.857 94.347C240.122 94.697 239.422 95.047 238.897 95.397C236.832 96.867 236.377 96.342 233.927 97.672C231.477 99.002 229.552 99.982 227.662 99.667C225.737 99.317 226.507 97.322 227.452 95.922Z" fill="#343FFC"/>
<path d="M227.452 95.922C228.397 94.487 232.982 94.557 234.522 93.157C236.062 91.757 238.967 89.657 240.227 88.362C241.487 87.067 242.117 87.452 242.327 88.047C242.537 88.642 244.322 86.297 245.162 85.912C245.582 85.702 246.387 85.107 247.122 84.512C245.442 87.942 243.342 91.232 240.857 94.347C240.122 94.697 239.422 95.047 238.897 95.397C236.832 96.867 236.377 96.342 233.927 97.672C231.477 99.002 229.552 99.982 227.662 99.667C225.737 99.317 226.507 97.322 227.452 95.922Z" fill="url(#paint52_linear_2376_20806)"/>
<path d="M227.452 95.922C228.397 94.487 232.982 94.557 234.522 93.157C236.062 91.757 238.967 89.657 240.227 88.362C241.487 87.067 242.117 87.452 242.327 88.047C242.537 88.642 244.322 86.297 245.162 85.912C245.582 85.702 246.387 85.107 247.122 84.512C245.442 87.942 243.342 91.232 240.857 94.347C240.122 94.697 239.422 95.047 238.897 95.397C236.832 96.867 236.377 96.342 233.927 97.672C231.477 99.002 229.552 99.982 227.662 99.667C225.737 99.317 226.507 97.322 227.452 95.922Z" stroke="#251725" stroke-miterlimit="10" stroke-linecap="round" stroke-linejoin="round"/>
<path d="M217.408 106.422C217.233 105.687 221.083 105.757 221.853 104.497C222.623 103.237 224.618 102.502 225.633 103.272C226.613 104.042 227.453 101.802 230.043 103.482C230.288 103.657 230.498 103.832 230.603 104.007C229.238 104.987 227.873 105.897 226.438 106.737C226.403 106.702 226.333 106.667 226.298 106.597C226.298 106.597 225.563 105.092 223.848 105.722C222.133 106.387 221.923 108.417 220.488 107.402C219.088 106.422 217.583 107.157 217.408 106.422Z" fill="#343FFC"/>
<path d="M217.408 106.422C217.233 105.687 221.083 105.757 221.853 104.497C222.623 103.237 224.618 102.502 225.633 103.272C226.613 104.042 227.453 101.802 230.043 103.482C230.288 103.657 230.498 103.832 230.603 104.007C229.238 104.987 227.873 105.897 226.438 106.737C226.403 106.702 226.333 106.667 226.298 106.597C226.298 106.597 225.563 105.092 223.848 105.722C222.133 106.387 221.923 108.417 220.488 107.402C219.088 106.422 217.583 107.157 217.408 106.422Z" fill="url(#paint53_linear_2376_20806)"/>
<path d="M217.408 106.422C217.233 105.687 221.083 105.757 221.853 104.497C222.623 103.237 224.618 102.502 225.633 103.272C226.613 104.042 227.453 101.802 230.043 103.482C230.288 103.657 230.498 103.832 230.603 104.007C229.238 104.987 227.873 105.897 226.438 106.737C226.403 106.702 226.333 106.667 226.298 106.597C226.298 106.597 225.563 105.092 223.848 105.722C222.133 106.387 221.923 108.417 220.488 107.402C219.088 106.422 217.583 107.157 217.408 106.422Z" stroke="#251725" stroke-miterlimit="10" stroke-linecap="round" stroke-linejoin="round"/>
<defs>
<linearGradient id="paint0_linear_2376_20806" x1="151.797" y1="108.263" x2="103.145" y2="80.5865" gradientUnits="userSpaceOnUse">
<stop stop-color="#DF87F1"/>
<stop offset="0.75" stop-color="#FBFBFF"/>
</linearGradient>
<linearGradient id="paint1_linear_2376_20806" x1="145.68" y1="87.7585" x2="128.201" y2="23.1452" gradientUnits="userSpaceOnUse">
<stop stop-color="#DF87F1"/>
<stop offset="0.75" stop-color="#FBFBFF"/>
</linearGradient>
<linearGradient id="paint2_linear_2376_20806" x1="105.672" y1="37.1769" x2="131.888" y2="82.4734" gradientUnits="userSpaceOnUse">
<stop offset="0.1" stop-color="#F76DFC"/>
<stop offset="0.75" stop-color="#1288AA"/>
</linearGradient>
<linearGradient id="paint3_linear_2376_20806" x1="105.672" y1="37.1769" x2="131.888" y2="82.4734" gradientUnits="userSpaceOnUse">
<stop stop-color="#1288AA"/>
<stop offset="0.417635" stop-color="#F76DFC"/>
</linearGradient>
<linearGradient id="paint4_linear_2376_20806" x1="114.16" y1="100.163" x2="79.4407" y2="80.29" gradientUnits="userSpaceOnUse">
<stop stop-color="#DF87F1"/>
<stop offset="0.75" stop-color="#FBFBFF"/>
</linearGradient>
<linearGradient id="paint5_linear_2376_20806" x1="97.2216" y1="53.5999" x2="135.858" y2="75.1607" gradientUnits="userSpaceOnUse">
<stop offset="0.1" stop-color="#F76DFC"/>
<stop offset="0.75" stop-color="#1288AA"/>
</linearGradient>
<linearGradient id="paint6_linear_2376_20806" x1="97.2216" y1="53.5999" x2="135.858" y2="75.1607" gradientUnits="userSpaceOnUse">
<stop offset="0.25" stop-color="#F76DFC"/>
<stop offset="0.73376" stop-color="#1288AA"/>
</linearGradient>
<linearGradient id="paint7_linear_2376_20806" x1="82.947" y1="168.068" x2="34.2951" y2="140.392" gradientUnits="userSpaceOnUse">
<stop stop-color="#DF87F1"/>
<stop offset="0.75" stop-color="#FBFBFF"/>
</linearGradient>
<linearGradient id="paint8_linear_2376_20806" x1="76.8305" y1="147.564" x2="59.3515" y2="82.9502" gradientUnits="userSpaceOnUse">
<stop stop-color="#DF87F1"/>
<stop offset="0.75" stop-color="#FBFBFF"/>
</linearGradient>
<linearGradient id="paint9_linear_2376_20806" x1="36.8219" y1="96.982" x2="63.0377" y2="142.278" gradientUnits="userSpaceOnUse">
<stop offset="0.1" stop-color="#F76DFC"/>
<stop offset="0.75" stop-color="#1288AA"/>
</linearGradient>
<linearGradient id="paint10_linear_2376_20806" x1="36.8219" y1="96.982" x2="63.0377" y2="142.278" gradientUnits="userSpaceOnUse">
<stop stop-color="#1288AA"/>
<stop offset="0.417635" stop-color="#F76DFC"/>
</linearGradient>
<linearGradient id="paint11_linear_2376_20806" x1="45.3097" y1="159.9" x2="10.5908" y2="140.028" gradientUnits="userSpaceOnUse">
<stop stop-color="#DF87F1"/>
<stop offset="0.75" stop-color="#FBFBFF"/>
</linearGradient>
<linearGradient id="paint12_linear_2376_20806" x1="28.3195" y1="113.337" x2="67.0297" y2="135.018" gradientUnits="userSpaceOnUse">
<stop offset="0.1" stop-color="#F76DFC"/>
<stop offset="0.75" stop-color="#1288AA"/>
</linearGradient>
<linearGradient id="paint13_linear_2376_20806" x1="28.3195" y1="113.337" x2="67.0297" y2="135.018" gradientUnits="userSpaceOnUse">
<stop offset="0.25" stop-color="#F76DFC"/>
<stop offset="0.73376" stop-color="#1288AA"/>
</linearGradient>
<linearGradient id="paint14_linear_2376_20806" x1="382.268" y1="147.564" x2="364.789" y2="82.9502" gradientUnits="userSpaceOnUse">
<stop stop-color="#DF87F1"/>
<stop offset="0.75" stop-color="#FBFBFF"/>
</linearGradient>
<linearGradient id="paint15_linear_2376_20806" x1="342.244" y1="96.982" x2="368.483" y2="142.238" gradientUnits="userSpaceOnUse">
<stop stop-color="#1288AA"/>
<stop offset="0.417635" stop-color="#F76DFC"/>
</linearGradient>
<linearGradient id="paint16_linear_2376_20806" x1="382.742" y1="159.9" x2="348.023" y2="140.028" gradientUnits="userSpaceOnUse">
<stop stop-color="#DF87F1"/>
<stop offset="0.75" stop-color="#FBFBFF"/>
</linearGradient>
<linearGradient id="paint17_linear_2376_20806" x1="361.365" y1="113.337" x2="400.075" y2="135.018" gradientUnits="userSpaceOnUse">
<stop offset="0.3" stop-color="#F76DFC"/>
<stop offset="0.75" stop-color="#1288AA"/>
</linearGradient>
<linearGradient id="paint18_linear_2376_20806" x1="310.245" y1="87.7585" x2="292.766" y2="23.1452" gradientUnits="userSpaceOnUse">
<stop stop-color="#DF87F1"/>
<stop offset="0.75" stop-color="#FBFBFF"/>
</linearGradient>
<linearGradient id="paint19_linear_2376_20806" x1="270.237" y1="37.1769" x2="293.648" y2="71.6056" gradientUnits="userSpaceOnUse">
<stop stop-color="#1288AA"/>
<stop offset="0.55" stop-color="#F76DFC"/>
</linearGradient>
<linearGradient id="paint20_linear_2376_20806" x1="310.787" y1="100.163" x2="276.068" y2="80.29" gradientUnits="userSpaceOnUse">
<stop stop-color="#DF87F1"/>
<stop offset="0.75" stop-color="#FBFBFF"/>
</linearGradient>
<linearGradient id="paint21_linear_2376_20806" x1="289.394" y1="53.5999" x2="328.031" y2="75.1607" gradientUnits="userSpaceOnUse">
<stop offset="0.25" stop-color="#F76DFC"/>
<stop offset="0.73376" stop-color="#1288AA"/>
</linearGradient>
<linearGradient id="paint22_linear_2376_20806" x1="266.156" y1="190.547" x2="227.043" y2="46.0628" gradientUnits="userSpaceOnUse">
<stop stop-color="#DF87F1"/>
<stop offset="0.75" stop-color="#FBFBFF"/>
</linearGradient>
<linearGradient id="paint23_linear_2376_20806" x1="175.047" y1="71.9389" x2="231.036" y2="154.267" gradientUnits="userSpaceOnUse">
<stop stop-color="#1288AA"/>
<stop offset="0.55" stop-color="#F76DFC"/>
</linearGradient>
<linearGradient id="paint24_linear_2376_20806" x1="151.797" y1="217.68" x2="103.145" y2="190.004" gradientUnits="userSpaceOnUse">
<stop stop-color="#DF87F1"/>
<stop offset="0.75" stop-color="#FBFBFF"/>
</linearGradient>
<linearGradient id="paint25_linear_2376_20806" x1="145.68" y1="197.176" x2="128.201" y2="132.563" gradientUnits="userSpaceOnUse">
<stop stop-color="#DF87F1"/>
<stop offset="0.75" stop-color="#FBFBFF"/>
</linearGradient>
<linearGradient id="paint26_linear_2376_20806" x1="105.672" y1="146.594" x2="131.888" y2="191.891" gradientUnits="userSpaceOnUse">
<stop offset="0.1" stop-color="#F76DFC"/>
<stop offset="0.75" stop-color="#1288AA"/>
</linearGradient>
<linearGradient id="paint27_linear_2376_20806" x1="105.672" y1="146.594" x2="131.888" y2="191.891" gradientUnits="userSpaceOnUse">
<stop stop-color="#1288AA"/>
<stop offset="0.417635" stop-color="#F76DFC"/>
</linearGradient>
<linearGradient id="paint28_linear_2376_20806" x1="114.16" y1="209.513" x2="79.4407" y2="189.64" gradientUnits="userSpaceOnUse">
<stop stop-color="#DF87F1"/>
<stop offset="0.75" stop-color="#FBFBFF"/>
</linearGradient>
<linearGradient id="paint29_linear_2376_20806" x1="97.2216" y1="162.95" x2="135.858" y2="184.511" gradientUnits="userSpaceOnUse">
<stop offset="0.1" stop-color="#F76DFC"/>
<stop offset="0.75" stop-color="#1288AA"/>
</linearGradient>
<linearGradient id="paint30_linear_2376_20806" x1="97.2216" y1="162.95" x2="135.858" y2="184.511" gradientUnits="userSpaceOnUse">
<stop offset="0.25" stop-color="#F76DFC"/>
<stop offset="0.73376" stop-color="#1288AA"/>
</linearGradient>
<linearGradient id="paint31_linear_2376_20806" x1="310.245" y1="197.176" x2="292.766" y2="132.563" gradientUnits="userSpaceOnUse">
<stop stop-color="#DF87F1"/>
<stop offset="0.75" stop-color="#FBFBFF"/>
</linearGradient>
<linearGradient id="paint32_linear_2376_20806" x1="270.237" y1="146.594" x2="296.453" y2="191.891" gradientUnits="userSpaceOnUse">
<stop offset="0.1" stop-color="#F76DFC"/>
<stop offset="0.75" stop-color="#1288AA"/>
</linearGradient>
<linearGradient id="paint33_linear_2376_20806" x1="270.237" y1="146.594" x2="296.453" y2="191.891" gradientUnits="userSpaceOnUse">
<stop stop-color="#1288AA"/>
<stop offset="0.417635" stop-color="#F76DFC"/>
</linearGradient>
<linearGradient id="paint34_linear_2376_20806" x1="310.787" y1="209.513" x2="276.068" y2="189.64" gradientUnits="userSpaceOnUse">
<stop stop-color="#DF87F1"/>
<stop offset="0.75" stop-color="#FBFBFF"/>
</linearGradient>
<linearGradient id="paint35_linear_2376_20806" x1="289.394" y1="162.95" x2="328.031" y2="184.511" gradientUnits="userSpaceOnUse">
<stop offset="0.1" stop-color="#F76DFC"/>
<stop offset="0.75" stop-color="#1288AA"/>
</linearGradient>
<linearGradient id="paint36_linear_2376_20806" x1="68.0499" y1="36.3868" x2="54.7067" y2="26.2773" gradientUnits="userSpaceOnUse">
<stop stop-color="#DF87F1"/>
<stop offset="0.75" stop-color="#FBFBFF"/>
</linearGradient>
<linearGradient id="paint37_linear_2376_20806" x1="355.153" y1="76.3828" x2="348.878" y2="57.8968" gradientUnits="userSpaceOnUse">
<stop offset="0.5" stop-color="#DF87F1"/>
<stop offset="0.75" stop-color="#FBFBFF"/>
</linearGradient>
<linearGradient id="paint38_linear_2376_20806" x1="355.313" y1="73.5427" x2="350.012" y2="57.0909" gradientUnits="userSpaceOnUse">
<stop stop-color="#DF87F1"/>
<stop offset="0.75" stop-color="#FBFBFF"/>
</linearGradient>
<linearGradient id="paint39_linear_2376_20806" x1="355.153" y1="76.3828" x2="342.482" y2="49.4535" gradientUnits="userSpaceOnUse">
<stop offset="0.35" stop-color="#DF87F1"/>
<stop offset="0.75" stop-color="#FBFBFF"/>
</linearGradient>
<linearGradient id="paint40_linear_2376_20806" x1="252.275" y1="138.134" x2="245.868" y2="115.147" gradientUnits="userSpaceOnUse">
<stop offset="0.35" stop-color="#DF87F1"/>
<stop offset="0.75" stop-color="#FBFBFF"/>
</linearGradient>
<linearGradient id="paint41_linear_2376_20806" x1="89.6103" y1="203.161" x2="62.736" y2="170.198" gradientUnits="userSpaceOnUse">
<stop offset="0.35" stop-color="#DF87F1"/>
<stop offset="0.75" stop-color="#FBFBFF"/>
</linearGradient>
<linearGradient id="paint42_linear_2376_20806" x1="331.165" y1="25.9538" x2="317.13" y2="-11.5513" gradientUnits="userSpaceOnUse">
<stop offset="0.35" stop-color="#DF87F1"/>
<stop offset="0.75" stop-color="#FBFBFF"/>
</linearGradient>
<radialGradient id="paint43_radial_2376_20806" cx="0" cy="0" r="1" gradientUnits="userSpaceOnUse" gradientTransform="translate(199.732 55.279) rotate(155.233) scale(123.552 95.8669)">
<stop offset="0.394304" stop-color="#FBFBFF"/>
<stop offset="0.7" stop-color="#DF87F1"/>
</radialGradient>
<linearGradient id="paint44_linear_2376_20806" x1="222.081" y1="131.722" x2="156.18" y2="11.8633" gradientUnits="userSpaceOnUse">
<stop stop-color="#FBFBFF"/>
<stop offset="0.35" stop-color="#DF87F1"/>
</linearGradient>
<linearGradient id="paint45_linear_2376_20806" x1="167.04" y1="39.6189" x2="113.945" y2="65.8936" gradientUnits="userSpaceOnUse">
<stop offset="0.3" stop-color="#10AD74"/>
<stop offset="0.5" stop-color="#1288AA"/>
</linearGradient>
<linearGradient id="paint46_linear_2376_20806" x1="206.687" y1="17.8503" x2="135.71" y2="86.2228" gradientUnits="userSpaceOnUse">
<stop offset="0.3" stop-color="#10AD74"/>
<stop offset="0.5" stop-color="#1288AA"/>
</linearGradient>
<linearGradient id="paint47_linear_2376_20806" x1="196.965" y1="22.5636" x2="193.084" y2="35.8676" gradientUnits="userSpaceOnUse">
<stop offset="0.3" stop-color="#10AD74"/>
<stop offset="0.5" stop-color="#1288AA"/>
</linearGradient>
<linearGradient id="paint48_linear_2376_20806" x1="182.372" y1="99.232" x2="174.613" y2="110.987" gradientUnits="userSpaceOnUse">
<stop offset="0.3" stop-color="#10AD74"/>
<stop offset="0.5" stop-color="#1288AA"/>
</linearGradient>
<linearGradient id="paint49_linear_2376_20806" x1="229.662" y1="78.4031" x2="224.082" y2="86.8839" gradientUnits="userSpaceOnUse">
<stop offset="0.3" stop-color="#10AD74"/>
<stop offset="0.5" stop-color="#1288AA"/>
</linearGradient>
<linearGradient id="paint50_linear_2376_20806" x1="209.629" y1="101.523" x2="202.793" y2="126.515" gradientUnits="userSpaceOnUse">
<stop offset="0.3" stop-color="#10AD74"/>
<stop offset="0.5" stop-color="#1288AA"/>
</linearGradient>
<linearGradient id="paint51_linear_2376_20806" x1="243.354" y1="-8.06824" x2="159.648" y2="39.238" gradientUnits="userSpaceOnUse">
<stop offset="0.3" stop-color="#10AD74"/>
<stop offset="0.5" stop-color="#1288AA"/>
</linearGradient>
<linearGradient id="paint52_linear_2376_20806" x1="242.425" y1="80.3653" x2="222.521" y2="107.382" gradientUnits="userSpaceOnUse">
<stop offset="0.3" stop-color="#10AD74"/>
<stop offset="0.5" stop-color="#1288AA"/>
</linearGradient>
<linearGradient id="paint53_linear_2376_20806" x1="227.6" y1="101.521" x2="223.313" y2="113.211" gradientUnits="userSpaceOnUse">
<stop offset="0.3" stop-color="#10AD74"/>
<stop offset="0.5" stop-color="#1288AA"/>
</linearGradient>
</defs>
</svg>
