<svg width="400" height="213" viewBox="0 0 400 213" fill="none" xmlns="http://www.w3.org/2000/svg">
<path d="M62.8293 171.24C60.2693 171.24 58.4133 169.824 58.0613 167.592L60.0613 167.288C60.4053 168.696 61.3973 169.432 62.9493 169.432C64.3333 169.432 65.3333 168.728 65.3333 167.752C65.3333 167.128 64.9173 166.704 64.0533 166.448L61.0773 165.568C59.3733 165.064 58.5093 164.064 58.5093 162.6C58.5093 160.592 60.2293 159.256 62.6693 159.256C65.0773 159.256 66.7493 160.48 67.2613 162.624L65.1893 162.984C64.9413 161.76 64.0053 161.056 62.6373 161.056C61.3493 161.056 60.5333 161.672 60.5333 162.52C60.5333 163.168 61.0373 163.584 62.2213 163.912L64.2613 164.48C66.3413 165.048 67.3493 166.08 67.3493 167.648C67.3493 169.784 65.5253 171.24 62.8293 171.24ZM72.9129 169.464C73.8969 169.464 74.5369 169.048 74.9209 168.232L76.8249 168.776C76.1609 170.344 74.7369 171.24 72.9129 171.24C70.3289 171.24 68.6009 169.376 68.6009 166.68C68.6009 163.952 70.3609 162.12 72.8969 162.12C75.6489 162.12 77.1449 164.104 76.9209 167.216H70.6729C70.8409 168.64 71.6489 169.464 72.9129 169.464ZM70.7209 165.76H74.9609C74.8649 164.544 74.1049 163.832 72.8969 163.832C71.7289 163.832 70.9609 164.536 70.7209 165.76ZM80.7939 171H78.8659V159.24H80.7939V171ZM85.2783 171H83.3503V159.24H85.2783V171ZM91.5067 169.464C92.4907 169.464 93.1307 169.048 93.5147 168.232L95.4187 168.776C94.7547 170.344 93.3307 171.24 91.5067 171.24C88.9227 171.24 87.1947 169.376 87.1947 166.68C87.1947 163.952 88.9547 162.12 91.4907 162.12C94.2427 162.12 95.7387 164.104 95.5147 167.216H89.2667C89.4347 168.64 90.2427 169.464 91.5067 169.464ZM89.3147 165.76H93.5547C93.4587 164.544 92.6987 163.832 91.4907 163.832C90.3227 163.832 89.5547 164.536 89.3147 165.76ZM102.156 162.136V163.992C101.908 163.936 101.604 163.928 101.244 163.928C99.9477 163.928 99.2117 164.76 99.2117 166.24V171H97.2837V162.36H99.2117V163.488C99.6357 162.704 100.412 162.12 101.748 162.12C101.884 162.12 102.02 162.128 102.156 162.136Z" fill="white"/>
<path d="M149.269 137.21C146.742 137.21 145.195 135.341 145.195 131.96C145.195 128.579 146.742 126.71 149.269 126.71C151.803 126.71 153.336 128.579 153.336 131.96C153.336 135.341 151.803 137.21 149.269 137.21ZM149.269 135.621C150.774 135.621 151.551 134.228 151.551 131.96C151.551 129.692 150.774 128.299 149.269 128.299C147.764 128.299 146.98 129.685 146.98 131.96C146.98 134.221 147.757 135.621 149.269 135.621ZM157.678 131.75C156.761 131.75 155.949 131.274 155.501 130.497C155.27 130.112 155.158 129.685 155.158 129.23C155.158 128.334 155.655 127.508 156.432 127.053C156.817 126.822 157.237 126.71 157.678 126.71C158.595 126.71 159.407 127.186 159.862 127.963C160.086 128.348 160.198 128.775 160.198 129.23C160.198 130.147 159.715 130.966 158.945 131.414C158.56 131.638 158.133 131.75 157.678 131.75ZM165.665 128.047L156.698 137L155.578 135.88L164.545 126.92L165.665 128.047ZM157.678 130.308C158.259 130.308 158.756 129.811 158.756 129.23C158.756 128.649 158.259 128.152 157.678 128.152C157.097 128.152 156.6 128.649 156.6 129.23C156.6 129.811 157.097 130.308 157.678 130.308ZM163.565 137.21C162.648 137.21 161.836 136.734 161.388 135.957C161.157 135.572 161.045 135.145 161.045 134.69C161.045 133.794 161.542 132.968 162.319 132.513C162.704 132.282 163.124 132.17 163.565 132.17C164.482 132.17 165.294 132.646 165.749 133.423C165.973 133.808 166.085 134.235 166.085 134.69C166.085 135.607 165.602 136.426 164.832 136.874C164.447 137.098 164.02 137.21 163.565 137.21ZM163.565 135.768C164.139 135.768 164.643 135.271 164.643 134.69C164.643 134.109 164.139 133.612 163.565 133.612C162.991 133.612 162.48 134.109 162.48 134.69C162.48 135.271 162.991 135.768 163.565 135.768ZM173.99 137.21C171.673 137.21 170.287 135.523 170.287 133.22C170.287 130.889 171.729 129.23 174.011 129.23C175.733 129.23 177 130.154 177.357 131.645L175.677 132.1C175.418 131.288 174.767 130.812 173.99 130.812C172.688 130.812 172.072 131.813 172.072 133.22C172.072 134.662 172.723 135.628 173.99 135.628C174.893 135.628 175.376 135.201 175.635 134.431L177.357 134.816C176.888 136.356 175.677 137.21 173.99 137.21ZM181.893 137.21C179.639 137.21 178.134 135.572 178.134 133.22C178.134 130.861 179.653 129.23 181.893 129.23C184.161 129.23 185.666 130.861 185.666 133.22C185.666 135.579 184.154 137.21 181.893 137.21ZM181.893 135.628C183.167 135.628 183.881 134.718 183.881 133.22C183.881 131.701 183.174 130.812 181.893 130.812C180.605 130.812 179.919 131.701 179.919 133.22C179.919 134.732 180.626 135.628 181.893 135.628ZM191.738 137V132.485C191.738 131.47 191.29 130.812 190.317 130.812C189.337 130.812 188.882 131.47 188.882 132.485V137H187.195V129.44H188.882V130.35C189.197 129.72 189.764 129.23 190.744 129.23C191.871 129.23 192.655 129.636 193.068 130.427C193.481 129.734 194.188 129.23 195.182 129.23C196.995 129.23 197.975 130.21 197.975 132.135V137H196.288V132.485C196.288 131.47 195.847 130.812 194.867 130.812C193.894 130.812 193.432 131.47 193.432 132.485L193.418 132.478V137H191.738ZM204.329 137V132.485C204.329 131.47 203.881 130.812 202.908 130.812C201.928 130.812 201.473 131.47 201.473 132.485V137H199.786V129.44H201.473V130.35C201.788 129.72 202.355 129.23 203.335 129.23C204.462 129.23 205.246 129.636 205.659 130.427C206.072 129.734 206.779 129.23 207.773 129.23C209.586 129.23 210.566 130.21 210.566 132.135V137H208.879V132.485C208.879 131.47 208.438 130.812 207.458 130.812C206.485 130.812 206.023 131.47 206.023 132.485L206.009 132.478V137H204.329ZM214.219 128.292H212.532V126.745H214.219V128.292ZM214.219 137H212.532V129.44H214.219V137ZM219.256 137.21C217.38 137.21 216.176 136.349 215.896 134.809L217.625 134.536C217.814 135.334 218.388 135.747 219.291 135.747C220.103 135.747 220.628 135.411 220.628 134.844C220.628 134.501 220.502 134.319 219.984 134.13C219.732 134.039 219.305 133.913 218.724 133.759C216.974 133.304 216.141 132.765 216.141 131.54C216.141 130.147 217.331 129.23 219.13 129.23C220.866 129.23 222.105 130.098 222.301 131.463L220.579 131.771C220.488 131.099 219.914 130.686 219.074 130.686C218.346 130.686 217.821 131.008 217.821 131.463C217.821 131.869 218.199 132.03 218.801 132.219C219.137 132.324 219.599 132.464 220.173 132.618C221.755 133.052 222.357 133.661 222.357 134.767C222.357 136.286 221.181 137.21 219.256 137.21ZM226.83 137.21C224.954 137.21 223.75 136.349 223.47 134.809L225.199 134.536C225.388 135.334 225.962 135.747 226.865 135.747C227.677 135.747 228.202 135.411 228.202 134.844C228.202 134.501 228.076 134.319 227.558 134.13C227.306 134.039 226.879 133.913 226.298 133.759C224.548 133.304 223.715 132.765 223.715 131.54C223.715 130.147 224.905 129.23 226.704 129.23C228.44 129.23 229.679 130.098 229.875 131.463L228.153 131.771C228.062 131.099 227.488 130.686 226.648 130.686C225.92 130.686 225.395 131.008 225.395 131.463C225.395 131.869 225.773 132.03 226.375 132.219C226.711 132.324 227.173 132.464 227.747 132.618C229.329 133.052 229.931 133.661 229.931 134.767C229.931 136.286 228.755 137.21 226.83 137.21ZM233.291 128.292H231.604V126.745H233.291V128.292ZM233.291 137H231.604V129.44H233.291V137ZM238.727 137.21C236.473 137.21 234.968 135.572 234.968 133.22C234.968 130.861 236.487 129.23 238.727 129.23C240.995 129.23 242.5 130.861 242.5 133.22C242.5 135.579 240.988 137.21 238.727 137.21ZM238.727 135.628C240.001 135.628 240.715 134.718 240.715 133.22C240.715 131.701 240.008 130.812 238.727 130.812C237.439 130.812 236.753 131.701 236.753 133.22C236.753 134.732 237.46 135.628 238.727 135.628ZM249.258 137V132.835C249.258 131.547 248.635 130.812 247.494 130.812C246.353 130.812 245.716 131.54 245.716 132.835V137H244.029V129.44H245.716V130.427C246.087 129.741 246.766 129.23 247.935 129.23C249.741 129.23 250.945 130.252 250.945 132.485V137H249.258Z" fill="white"/>
<rect x="40" y="62" width="80" height="80" rx="6" fill="#F4F6FF"/>
<path fill-rule="evenodd" clip-rule="evenodd" d="M86.97 98.1497C80.174 98.1497 74.6565 103.667 74.6565 110.463C74.6565 117.259 80.174 122.777 86.97 122.777C93.7659 122.777 99.2834 117.259 99.2834 110.463C99.2834 103.667 93.7659 98.1497 86.97 98.1497ZM73.8309 118.299C72.46 116.007 71.6716 113.326 71.6716 110.463C71.6716 105.455 74.083 101.006 77.8063 98.2152C77.2446 98.1289 76.6693 98.0845 76.084 98.0845C74.6494 98.0845 73.1714 98.0845 71.7368 98.0845C65.5186 98.0845 60.4775 103.125 60.4775 109.344C60.4775 111.951 60.4775 113.785 60.4775 115.314C60.4775 116.962 61.814 118.299 63.4625 118.299H73.8309ZM73.9104 80.9854C69.7917 80.9854 66.4478 84.3292 66.4478 88.4483C66.4478 92.567 69.7917 95.9108 73.9104 95.9108C78.0291 95.9108 81.3729 92.567 81.3729 88.4483C81.3729 84.3292 78.0291 80.9854 73.9104 80.9854Z" fill="#718096"/>
<path d="M87.7071 103.293C87.3166 102.902 86.6834 102.902 86.2929 103.293L79.9289 109.657C79.5384 110.047 79.5384 110.681 79.9289 111.071C80.3195 111.462 80.9526 111.462 81.3431 111.071L87 105.414L92.6569 111.071C93.0474 111.462 93.6805 111.462 94.0711 111.071C94.4616 110.681 94.4616 110.047 94.0711 109.657L87.7071 103.293ZM88 117L88 104L86 104L86 117L88 117Z" fill="white"/>
<path d="M303.685 171H299.245V159.48H303.565C305.701 159.48 307.389 160.472 307.389 162.504C307.389 163.992 306.485 164.784 305.733 165.016C306.645 165.184 307.765 166.088 307.765 167.792C307.765 170.04 305.933 171 303.685 171ZM303.605 161.288H301.181V164.176H303.685C304.661 164.176 305.437 163.816 305.437 162.72C305.437 161.624 304.645 161.288 303.605 161.288ZM301.181 169.192H303.685C304.805 169.192 305.829 168.912 305.829 167.568C305.829 166.256 304.797 165.952 303.749 165.952H301.181V169.192ZM311.13 162.36V167.112C311.13 168.584 311.85 169.432 313.154 169.432C314.45 169.432 315.186 168.6 315.186 167.112V162.36H317.106V171H315.186V169.872C314.754 170.656 313.986 171.24 312.642 171.24C310.586 171.24 309.21 170.072 309.21 167.52V162.36H311.13ZM322.298 174.84H320.49L321.914 170.944L318.418 162.36H320.426L322.834 168.544L325.186 162.36H327.114L322.298 174.84ZM331.827 169.464C332.811 169.464 333.451 169.048 333.835 168.232L335.739 168.776C335.075 170.344 333.651 171.24 331.827 171.24C329.243 171.24 327.515 169.376 327.515 166.68C327.515 163.952 329.275 162.12 331.811 162.12C334.563 162.12 336.059 164.104 335.835 167.216H329.587C329.755 168.64 330.563 169.464 331.827 169.464ZM329.635 165.76H333.875C333.779 164.544 333.019 163.832 331.811 163.832C330.643 163.832 329.875 164.536 329.635 165.76ZM342.476 162.136V163.992C342.228 163.936 341.924 163.928 341.564 163.928C340.268 163.928 339.532 164.76 339.532 166.24V171H337.604V162.36H339.532V163.488C339.956 162.704 340.732 162.12 342.068 162.12C342.204 162.12 342.34 162.128 342.476 162.136Z" fill="white"/>
<rect x="280" y="62" width="80" height="80" rx="6" fill="#F4F6FF"/>
<path fill-rule="evenodd" clip-rule="evenodd" d="M326.97 98.1497C320.174 98.1497 314.657 103.667 314.657 110.463C314.657 117.259 320.174 122.777 326.97 122.777C333.766 122.777 339.284 117.259 339.284 110.463C339.284 103.667 333.766 98.1497 326.97 98.1497ZM328.463 104.214V103.747C328.463 102.923 327.794 102.254 326.97 102.254C326.147 102.254 325.478 102.923 325.478 103.747V104.307C324.825 104.482 324.224 104.826 323.738 105.312C323.009 106.042 322.599 107.031 322.599 108.063C322.599 108.064 322.599 108.065 322.599 108.066C322.599 109.098 323.009 110.087 323.738 110.816C324.468 111.546 325.457 111.956 326.489 111.956H327.452C327.692 111.956 327.921 112.051 328.091 112.22C328.261 112.39 328.356 112.62 328.356 112.86C328.356 112.861 328.356 112.862 328.356 112.863C328.356 113.103 328.261 113.333 328.091 113.503C327.921 113.673 327.692 113.768 327.452 113.768H326.008C325.774 113.768 325.586 113.578 325.584 113.344C325.58 112.555 324.947 111.862 324.092 111.867C323.17 111.872 322.604 112.647 322.599 113.342L322.6 113.352L322.599 113.344C322.599 115.046 323.847 116.457 325.478 116.712V117.18C325.478 118.003 326.147 118.672 326.97 118.672C327.794 118.672 328.463 118.003 328.463 117.18V116.619C329.115 116.444 329.716 116.1 330.202 115.614C330.932 114.884 331.341 113.895 331.341 112.863C331.341 112.862 331.341 112.861 331.341 112.86C331.341 111.829 330.932 110.839 330.202 110.11C329.473 109.38 328.483 108.97 327.452 108.97H326.489C326.249 108.97 326.019 108.875 325.849 108.706C325.679 108.536 325.584 108.306 325.584 108.066C325.584 108.065 325.584 108.064 325.584 108.063C325.584 107.823 325.679 107.593 325.849 107.423C326.019 107.254 326.249 107.158 326.489 107.158H327.932C328.166 107.158 328.356 107.351 328.356 107.585C328.356 108.011 328.558 108.421 328.783 108.628C329.037 108.888 329.499 109.136 330.027 109.07C330.499 109.011 331.323 108.598 331.341 107.582C331.341 105.88 330.093 104.469 328.463 104.214ZM313.831 118.299C312.46 116.007 311.672 113.326 311.672 110.463C311.672 105.455 314.083 101.006 317.806 98.2152C317.245 98.1289 316.669 98.0845 316.084 98.0845C314.649 98.0845 313.172 98.0845 311.737 98.0845C305.519 98.0845 300.478 103.125 300.478 109.344C300.478 111.951 300.478 113.785 300.478 115.314C300.478 116.962 301.814 118.299 303.463 118.299H313.831ZM313.91 80.9854C309.792 80.9854 306.448 84.3292 306.448 88.4483C306.448 92.567 309.792 95.9108 313.91 95.9108C318.029 95.9108 321.373 92.567 321.373 88.4483C321.373 84.3292 318.029 80.9854 313.91 80.9854Z" fill="#718096"/>
<path d="M179 116H218C218.796 116 219.559 115.684 220.121 115.121C220.684 114.559 221 113.796 221 113V95C221 94.2044 220.684 93.4413 220.121 92.8787C219.559 92.3161 218.796 92 218 92H209C208.204 92 207.441 92.3161 206.879 92.8787C206.316 93.4413 206 94.2044 206 95V71C206 70.2044 205.684 69.4413 205.121 68.8787C204.559 68.3161 203.796 68 203 68H194C193.204 68 192.441 68.3161 191.879 68.8787C191.316 69.4413 191 70.2044 191 71V83C191 82.2044 190.684 81.4413 190.121 80.8787C189.559 80.3161 188.796 80 188 80H179C178.204 80 177.441 80.3161 176.879 80.8787C176.316 81.4413 176 82.2044 176 83V113C176 113.796 176.316 114.559 176.879 115.121C177.441 115.684 178.204 116 179 116ZM179 113V107H182V113H179ZM182 95V98H179V95H182ZM179 92V89H182V92H179ZM182 101V104H179V101H182ZM185 98V95H188V98H185ZM188 101V104H185V101H188ZM185 92V89H188V92H185ZM185 113V107H188V113H185ZM188 86H185V83H188V86ZM182 86H179V83H182V86ZM200 113V107H203V113H200ZM197 83V86H194V83H197ZM194 80V77H197V80H194ZM197 89V92H194V89H197ZM197 95V98H194V95H197ZM197 101V104H194V101H197ZM200 98V95H203V98H200ZM203 101V104H200V101H203ZM200 92V89H203V92H200ZM200 86V83H203V86H200ZM200 80V77H203V80H200ZM203 74H200V71H203V74ZM197 74H194V71H197V74ZM194 107H197V113H194V107ZM212 104H209V101H212V104ZM215 101H218V104H215V101ZM215 107H218V113H215V107ZM218 98H215V95H218V98ZM212 98H209V95H212V98ZM209 107H212V113H209V107Z" fill="white"/>
<path d="M272.354 101.354C272.549 101.158 272.549 100.842 272.354 100.646L269.172 97.4645C268.976 97.2692 268.66 97.2692 268.464 97.4645C268.269 97.6597 268.269 97.9763 268.464 98.1716L271.293 101L268.464 103.828C268.269 104.024 268.269 104.34 268.464 104.536C268.66 104.731 268.976 104.731 269.172 104.536L272.354 101.354ZM233 101.5L272 101.5L272 100.5L233 100.5L233 101.5Z" fill="white"/>
<path d="M167.354 101.354C167.549 101.158 167.549 100.842 167.354 100.646L164.172 97.4645C163.976 97.2692 163.66 97.2692 163.464 97.4645C163.269 97.6597 163.269 97.9763 163.464 98.1716L166.293 101L163.464 103.828C163.269 104.024 163.269 104.34 163.464 104.536C163.66 104.731 163.976 104.731 164.172 104.536L167.354 101.354ZM128 101.5L167 101.5L167 100.5L128 100.5L128 101.5Z" fill="white"/>
<rect x="0.5" y="22.5" width="399" height="190" rx="5.5" stroke="white" stroke-dasharray="4 4"/>
<path d="M177.623 13.21C175.502 13.21 173.955 12.09 173.612 10.305L174.662 10.13C175.005 11.453 176.104 12.223 177.665 12.223C179.205 12.223 180.255 11.439 180.255 10.284C180.255 9.514 179.744 8.968 178.708 8.66L176.153 7.897C174.725 7.477 174.004 6.658 174.004 5.475C174.004 3.844 175.411 2.717 177.434 2.717C179.457 2.717 180.92 3.844 181.249 5.657L180.171 5.853C179.968 4.544 178.89 3.697 177.42 3.697C176.02 3.697 175.089 4.453 175.089 5.44C175.089 6.217 175.586 6.651 176.888 7.036L178.855 7.61C180.472 8.079 181.305 8.968 181.305 10.249C181.305 12.034 179.842 13.21 177.623 13.21ZM181.91 6.42V5.44H183.527V2.913H184.549V5.44H186.866V6.42H184.549V10.851C184.549 11.719 184.871 12.048 185.732 12.048H186.866V13H185.459C184.255 13 183.527 12.293 183.527 11.131V6.42H181.91ZM191.302 5.23C193.318 5.23 194.312 6.273 194.312 8.373V13H193.29V11.726C192.751 12.692 191.806 13.21 190.546 13.21C188.929 13.21 187.935 12.377 187.935 11.019C187.935 9.43 189.16 8.821 191.015 8.59L193.29 8.303C193.29 6.819 192.667 6.175 191.288 6.175C190.14 6.175 189.454 6.637 189.195 7.596L188.222 7.365C188.579 5.986 189.671 5.23 191.302 5.23ZM193.29 9.157L191.113 9.423C189.573 9.619 188.957 10.06 188.957 10.963C188.957 11.838 189.559 12.293 190.728 12.293C192.037 12.293 192.954 11.537 193.192 10.333C193.283 9.955 193.29 9.493 193.29 9.157ZM195.294 6.42V5.44H196.911V2.913H197.933V5.44H200.25V6.42H197.933V10.851C197.933 11.719 198.255 12.048 199.116 12.048H200.25V13H198.843C197.639 13 196.911 12.293 196.911 11.131V6.42H195.294ZM204.734 12.237C205.861 12.237 206.603 11.705 207.051 10.781L208.024 11.138C207.422 12.468 206.239 13.21 204.734 13.21C202.543 13.21 201.115 11.649 201.115 9.22C201.115 6.777 202.515 5.23 204.692 5.23C206.96 5.23 208.248 6.847 208.171 9.507H202.214C202.312 11.229 203.25 12.237 204.734 12.237ZM202.235 8.646H207.086C206.96 7.064 206.106 6.182 204.692 6.182C203.292 6.182 202.403 7.085 202.235 8.646ZM210.76 13H209.724V2.92H213.462C215.562 2.92 216.787 4.124 216.787 6.049C216.787 7.967 215.555 9.171 213.462 9.171H210.76V13ZM210.76 3.907V8.191H213.455C214.883 8.191 215.73 7.386 215.73 6.049C215.73 4.705 214.883 3.907 213.455 3.907H210.76ZM219.356 4.005H218.327V2.85H219.356V4.005ZM219.356 13H218.327V5.44H219.356V13ZM221.854 13H220.615L223.569 9.178L220.678 5.44H221.91L224.171 8.387L226.411 5.44H227.643L224.752 9.178L227.713 13H226.474L224.171 9.969L221.854 13Z" fill="white"/>
</svg>
