<svg width="32" height="32" viewBox="0 0 32 32" fill="none" xmlns="http://www.w3.org/2000/svg">
<path d="M29.3334 24.8069C29.3334 25.0721 29.2281 25.3265 29.0405 25.514C28.853 25.7015 28.5986 25.8069 28.3334 25.8069H21.5334C21.3107 26.6374 20.8202 27.3712 20.138 27.8946C19.4558 28.418 18.6199 28.7016 17.7601 28.7016C16.9002 28.7016 16.0644 28.418 15.3822 27.8946C14.7 27.3712 14.2095 26.6374 13.9867 25.8069H3.66675C3.40153 25.8069 3.14718 25.7015 2.95964 25.514C2.7721 25.3265 2.66675 25.0721 2.66675 24.8069C2.66675 24.5417 2.7721 24.2873 2.95964 24.0998C3.14718 23.9123 3.40153 23.8069 3.66675 23.8069H13.9867C14.2095 22.9764 14.7 22.2426 15.3822 21.7192C16.0644 21.1958 16.9002 20.9122 17.7601 20.9122C18.6199 20.9122 19.4558 21.1958 20.138 21.7192C20.8202 22.2426 21.3107 22.9764 21.5334 23.8069H28.3334C28.5986 23.8069 28.853 23.9123 29.0405 24.0998C29.2281 24.2873 29.3334 24.5417 29.3334 24.8069ZM29.3334 7.19357C29.3334 7.45878 29.2281 7.71314 29.0405 7.90067C28.853 8.08821 28.5986 8.19357 28.3334 8.19357H25.0667C24.844 9.02407 24.3535 9.75789 23.6713 10.2813C22.9891 10.8046 22.1533 11.0883 21.2934 11.0883C20.4336 11.0883 19.5977 10.8046 18.9155 10.2813C18.2333 9.75789 17.7428 9.02407 17.5201 8.19357H3.66675C3.53543 8.19357 3.40539 8.1677 3.28406 8.11745C3.16274 8.06719 3.0525 7.99353 2.95964 7.90067C2.86678 7.80781 2.79312 7.69758 2.74287 7.57625C2.69261 7.45492 2.66675 7.32489 2.66675 7.19357C2.66675 7.06224 2.69261 6.93221 2.74287 6.81088C2.79312 6.68956 2.86678 6.57932 2.95964 6.48646C3.0525 6.3936 3.16274 6.31994 3.28406 6.26969C3.40539 6.21943 3.53543 6.19357 3.66675 6.19357H17.5201C17.7428 5.36306 18.2333 4.62924 18.9155 4.10587C19.5977 3.5825 20.4336 3.29883 21.2934 3.29883C22.1533 3.29883 22.9891 3.5825 23.6713 4.10587C24.3535 4.62924 24.844 5.36306 25.0667 6.19357H28.3334C28.4652 6.19177 28.5961 6.21641 28.7182 6.26603C28.8403 6.31565 28.9513 6.38924 29.0445 6.48246C29.1377 6.57568 29.2113 6.68663 29.2609 6.80877C29.3106 6.93091 29.3352 7.06175 29.3334 7.19357ZM29.3334 15.9936C29.3352 16.1254 29.3106 16.2562 29.2609 16.3784C29.2113 16.5005 29.1377 16.6115 29.0445 16.7047C28.9513 16.7979 28.8403 16.8715 28.7182 16.9211C28.5961 16.9707 28.4652 16.9954 28.3334 16.9936H12.7334C12.5107 17.8241 12.0202 18.5579 11.338 19.0813C10.6558 19.6046 9.81993 19.8883 8.96008 19.8883C8.10023 19.8883 7.2644 19.6046 6.58219 19.0813C5.89997 18.5579 5.40947 17.8241 5.18675 16.9936H3.66675C3.40153 16.9936 3.14718 16.8882 2.95964 16.7007C2.7721 16.5131 2.66675 16.2588 2.66675 15.9936C2.66675 15.7283 2.7721 15.474 2.95964 15.2865C3.14718 15.0989 3.40153 14.9936 3.66675 14.9936H5.18675C5.40947 14.1631 5.89997 13.4292 6.58219 12.9059C7.2644 12.3825 8.10023 12.0988 8.96008 12.0988C9.81993 12.0988 10.6558 12.3825 11.338 12.9059C12.0202 13.4292 12.5107 14.1631 12.7334 14.9936H28.3334C28.5986 14.9936 28.853 15.0989 29.0405 15.2865C29.2281 15.474 29.3334 15.7283 29.3334 15.9936Z" fill="#718096"/>
</svg>
