<svg width="32" height="32" viewBox="0 0 32 32" fill="none" xmlns="http://www.w3.org/2000/svg">
<path d="M29.9419 6.96001C29.9278 6.73662 29.8391 6.52444 29.6901 6.35741C29.5411 6.19039 29.3404 6.07818 29.12 6.03876C23.7138 5.06876 21.4569 4.36751 16.4119 2.08876C16.2825 2.03026 16.1421 2 16 2C15.858 2 15.7176 2.03026 15.5882 2.08876C10.5432 4.36751 8.28628 5.06876 2.88003 6.03876C2.65969 6.07818 2.45896 6.19039 2.30995 6.35741C2.16094 6.52444 2.07228 6.73662 2.05815 6.96001C1.81753 10.7794 2.33065 14.3381 3.58503 17.5375C4.61223 20.1472 6.13241 22.5346 8.06253 24.5694C11.4044 28.115 14.9525 29.655 15.6294 29.9275C15.8699 30.0248 16.1389 30.0248 16.3794 29.9275C17.0563 29.655 20.6044 28.115 23.9463 24.5694C25.8733 22.5339 27.3904 20.1465 28.415 17.5375C29.6694 14.3381 30.1825 10.7794 29.9419 6.96001ZM21.7544 11.6544L14.8294 19.6544C14.7404 19.7575 14.6312 19.8414 14.5085 19.9009C14.3859 19.9603 14.2524 19.994 14.1163 20H14.075C13.8133 20.0001 13.562 19.8975 13.375 19.7144L10.3 16.7019C10.2062 16.61 10.1314 16.5005 10.0799 16.3796C10.0284 16.2588 10.0012 16.129 9.99991 15.9977C9.99722 15.7324 10.1 15.477 10.2857 15.2875C10.4713 15.098 10.7246 14.9901 10.9899 14.9874C11.2551 14.9847 11.5106 15.0875 11.7 15.2731L14.0125 17.5413L20.2438 10.3456C20.3297 10.2463 20.4344 10.1649 20.5518 10.106C20.6692 10.0472 20.797 10.012 20.928 10.0025C21.059 9.99309 21.1905 10.0095 21.3152 10.0509C21.4398 10.0923 21.5551 10.1578 21.6544 10.2438C21.7537 10.3297 21.8351 10.4343 21.894 10.5517C21.9529 10.6691 21.988 10.797 21.9975 10.928C22.007 11.059 21.9905 11.1905 21.9491 11.3152C21.9077 11.4398 21.8422 11.5551 21.7563 11.6544H21.7544Z" fill="#718096"/>
</svg>
