<svg width="32" height="32" viewBox="0 0 32 32" fill="none" xmlns="http://www.w3.org/2000/svg">
<path d="M16.3475 6.3301C16.2545 6.24109 16.1307 6.19141 16.0019 6.19141C15.8731 6.19141 15.7493 6.24109 15.6563 6.3301L4.15002 17.322C4.10116 17.3687 4.06228 17.4249 4.03575 17.4871C4.00921 17.5493 3.99557 17.6162 3.99565 17.6838L3.99377 28.0001C3.99377 28.5305 4.20449 29.0392 4.57956 29.4143C4.95463 29.7894 5.46334 30.0001 5.99377 30.0001H12C12.2652 30.0001 12.5196 29.8947 12.7071 29.7072C12.8947 29.5197 13 29.2653 13 29.0001V20.5001C13 20.3675 13.0527 20.2403 13.1465 20.1465C13.2402 20.0528 13.3674 20.0001 13.5 20.0001H18.5C18.6326 20.0001 18.7598 20.0528 18.8536 20.1465C18.9473 20.2403 19 20.3675 19 20.5001V29.0001C19 29.2653 19.1054 29.5197 19.2929 29.7072C19.4805 29.8947 19.7348 30.0001 20 30.0001H26.0038C26.5342 30.0001 27.0429 29.7894 27.418 29.4143C27.7931 29.0392 28.0038 28.5305 28.0038 28.0001V17.6838C28.0039 17.6162 27.9902 17.5493 27.9637 17.4871C27.9371 17.4249 27.8983 17.3687 27.8494 17.322L16.3475 6.3301Z" fill="#718096"/>
<path d="M30.6819 15.2594L26.0069 10.7869V4C26.0069 3.73478 25.9015 3.48043 25.714 3.29289C25.5265 3.10536 25.2721 3 25.0069 3H22.0069C21.7417 3 21.4873 3.10536 21.2998 3.29289C21.1123 3.48043 21.0069 3.73478 21.0069 4V6L17.3869 2.53875C17.0481 2.19625 16.5444 2 16 2C15.4575 2 14.955 2.19625 14.6163 2.53938L1.32252 15.2581C0.933774 15.6331 0.885024 16.25 1.23877 16.6562C1.32761 16.7588 1.43637 16.8422 1.55846 16.9014C1.68055 16.9605 1.8134 16.9942 1.94892 17.0004C2.08445 17.0066 2.21982 16.9852 2.3468 16.9374C2.47378 16.8896 2.5897 16.8165 2.68752 16.7225L15.6563 4.33C15.7493 4.24099 15.8731 4.19131 16.0019 4.19131C16.1307 4.19131 16.2545 4.24099 16.3475 4.33L29.3175 16.7225C29.5086 16.9057 29.7645 17.0057 30.0291 17.0006C30.2938 16.9954 30.5456 16.8855 30.7294 16.695C31.1131 16.2975 31.0813 15.6412 30.6819 15.2594Z" fill="#718096"/>
</svg>
