<svg width="448" height="389" viewBox="0 0 448 389" fill="none" xmlns="http://www.w3.org/2000/svg">
<path d="M77.2 332.3L281.6 363.9C284.8 364.4 288.2 363.7 290.9 361.9L372.8 308.8C373.8 308.2 373.4 306.7 372.2 306.6L211 294.9L77 329.6C75.6 330 75.7 332 77.2 332.3Z" fill="#251725"/>
<path d="M292.7 341.3L288.7 350L275.4 356.7L281.6 340.6L292.7 341.3Z" fill="white" stroke="#251725" stroke-miterlimit="10" stroke-linecap="round" stroke-linejoin="round"/>
<path d="M242.5 335.6L246.9 352.6L275.3 356.7L281.5 340.7C281.5 340.7 274.4 335.1 270 334.2C265.7 333.2 242.5 335.6 242.5 335.6Z" fill="white" stroke="#251725" stroke-miterlimit="10" stroke-linecap="round" stroke-linejoin="round"/>
<path d="M244.1 341.7L279.4 346.2L281.6 340.6L242.5 335.6L244.1 341.7Z" fill="#251725" stroke="#251725" stroke-miterlimit="10" stroke-linecap="round" stroke-linejoin="round"/>
<path d="M279.4 346.2L290.1 341.7L281.6 340.6L279.4 346.2Z" fill="#251725" stroke="#251725" stroke-miterlimit="10" stroke-linecap="round" stroke-linejoin="round"/>
<path d="M122.9 319.8L118.7 333.5L135.4 328.2L138 321.7L135.2 316.2L122.9 319.8Z" fill="white" stroke="#251725" stroke-miterlimit="10" stroke-linecap="round" stroke-linejoin="round"/>
<path d="M118.7 333.5L122.9 319.8L118.7 310.5H109.9L93.9 316.2L97.9 330.4L118.7 333.5Z" fill="white" stroke="#251725" stroke-miterlimit="10" stroke-linecap="round" stroke-linejoin="round"/>
<path d="M95.2 320.7L121.5 324.5L122.9 319.8L93.9 316.2L95.2 320.7Z" fill="#251725" stroke="#251725" stroke-miterlimit="10" stroke-linecap="round" stroke-linejoin="round"/>
<path d="M121.5 324.5L136 321.7L122.9 319.8L121.5 324.5Z" fill="#251725" stroke="#251725" stroke-miterlimit="10" stroke-linecap="round" stroke-linejoin="round"/>
<path d="M306.3 39.2997L374.5 78.6997C377.4 80.3997 379.1 83.3997 379.1 86.6997V290.4C379.1 293.7 377.4 296.7 374.5 298.4L306.4 338.7C301.8 341.4 296.5 342.5 291.2 341.8L236.6 334.7V43.1997L291.4 36.3997C296.6 35.6997 301.8 36.6997 306.3 39.2997Z" fill="#251725" stroke="#251725" stroke-miterlimit="10" stroke-linecap="round" stroke-linejoin="round"/>
<path d="M66.6 304.5V73.9998C66.6 69.2998 70.1 65.3998 74.7 64.7998L288.9 36.6998C294.5 35.9998 299.4 40.2998 299.4 45.8998V332.4C299.4 338 294.5 342.3 288.9 341.6L74.7 313.7C70.1 313.1 66.6 309.1 66.6 304.5Z" fill="url(#paint0_linear_3082_7561)" stroke="#251725" stroke-miterlimit="10" stroke-linecap="round" stroke-linejoin="round"/>
<path d="M77.4 85.9V293.3C77.4 296.8 80.1 299.8 83.6 300.2L269.6 321.9C274.2 322.4 278.3 318.8 278.3 314.2V64.6C278.3 60.4 274.7 57.2 270.5 57.7L84.3 78.2C80.4 78.6 77.4 82 77.4 85.9Z" fill="#251725" stroke="#251725" stroke-miterlimit="10" stroke-linecap="round" stroke-linejoin="round"/>
<path d="M271.4 319.899C271.2 319.899 270.9 319.899 270.7 319.899L84.7 298.199C82.2 297.899 80.3 295.799 80.3 293.199V85.8992C80.3 82.9992 82.5 80.4992 85.4 80.1992L271.6 59.6992C271.8 59.6992 272 59.6992 272.2 59.6992C274.9 59.6992 277.2 61.8992 277.2 64.6992V314.199C277.2 315.699 276.6 317.199 275.5 318.299C274.3 319.299 272.9 319.899 271.4 319.899Z" fill="url(#paint1_linear_3082_7561)" stroke="#251725" stroke-miterlimit="10" stroke-linecap="round" stroke-linejoin="round"/>
<path d="M80.3 298.3L120.3 251.6" stroke="#251725" stroke-miterlimit="10" stroke-linecap="round" stroke-linejoin="round"/>
<path d="M103.2 272.4L136.6 238.5L131.1 235L103.2 272.4Z" fill="#251725"/>
<path d="M80.4 80.5996L121.6 129.9" stroke="#251725" stroke-miterlimit="10" stroke-linecap="round" stroke-linejoin="round"/>
<path d="M103.2 107.899L129.5 135.399L124.3 139.399L103.2 107.899Z" fill="#251725"/>
<path d="M173.8 272.399C210.637 272.399 240.5 236.761 240.5 192.799C240.5 148.837 210.637 113.199 173.8 113.199C136.963 113.199 107.1 148.837 107.1 192.799C107.1 236.761 136.963 272.399 173.8 272.399Z" fill="#251725"/>
<path d="M168.6 255.199C198.976 255.199 223.6 226.277 223.6 190.599C223.6 154.921 198.976 125.999 168.6 125.999C138.224 125.999 113.6 154.921 113.6 190.599C113.6 226.277 138.224 255.199 168.6 255.199Z" stroke="#251725" stroke-miterlimit="10" stroke-linecap="round" stroke-linejoin="round"/>
<path d="M168.6 269.399C204.719 269.399 234 234.433 234 191.299C234 148.166 204.719 113.199 168.6 113.199C132.481 113.199 103.2 148.166 103.2 191.299C103.2 234.433 132.481 269.399 168.6 269.399Z" fill="white" stroke="#251725" stroke-miterlimit="10" stroke-linecap="round" stroke-linejoin="round"/>
<path d="M161.9 269.399C198.019 269.399 227.3 234.433 227.3 191.299C227.3 148.166 198.019 113.199 161.9 113.199C125.781 113.199 96.5 148.166 96.5 191.299C96.5 234.433 125.781 269.399 161.9 269.399Z" fill="url(#paint2_linear_3082_7561)" stroke="#251725" stroke-miterlimit="10" stroke-linecap="round" stroke-linejoin="round"/>
<path d="M160.5 255.799C190.876 255.799 215.5 226.608 215.5 190.599C215.5 154.59 190.876 125.399 160.5 125.399C130.124 125.399 105.5 154.59 105.5 190.599C105.5 226.608 130.124 255.799 160.5 255.799Z" fill="white" stroke="#251725" stroke-miterlimit="10" stroke-linecap="round" stroke-linejoin="round"/>
<path d="M156.3 125.6L148.6 139.4V241.8L156.3 255.8" stroke="#251725" stroke-miterlimit="10" stroke-linecap="round" stroke-linejoin="round"/>
<path d="M104.6 190.6H215.5" stroke="#251725" stroke-miterlimit="10" stroke-linecap="round" stroke-linejoin="round"/>
<path d="M200.1 145.199L148.6 190.699L197.9 238.499" stroke="#251725" stroke-miterlimit="10" stroke-linecap="round" stroke-linejoin="round"/>
<path d="M146.3 241.799C170.159 241.799 189.5 218.876 189.5 190.599C189.5 162.322 170.159 139.399 146.3 139.399C122.441 139.399 103.1 162.322 103.1 190.599C103.1 218.876 122.441 241.799 146.3 241.799Z" fill="#251725" stroke="#251725" stroke-miterlimit="10" stroke-linecap="round" stroke-linejoin="round"/>
<path d="M141.7 241.799C165.559 241.799 184.9 218.876 184.9 190.599C184.9 162.322 165.559 139.399 141.7 139.399C117.841 139.399 98.5 162.322 98.5 190.599C98.5 218.876 117.841 241.799 141.7 241.799Z" fill="white" stroke="#251725" stroke-miterlimit="10" stroke-linecap="round" stroke-linejoin="round"/>
<path d="M138.4 233.299C157.84 233.299 173.6 214.182 173.6 190.599C173.6 167.017 157.84 147.899 138.4 147.899C118.96 147.899 103.2 167.017 103.2 190.599C103.2 214.182 118.96 233.299 138.4 233.299Z" fill="url(#paint3_linear_3082_7561)" stroke="#251725" stroke-miterlimit="10" stroke-linecap="round" stroke-linejoin="round"/>
<path d="M189.5 187.699L204.1 190.599L189.4 193.399C189.4 193.399 188.4 189.499 189.5 187.699Z" fill="#251725"/>
<path d="M182.2 219.1L190.6 231.3L178.7 224C178.7 224 179.9 219.5 182.2 219.1Z" fill="#251725"/>
<path d="M145.8 241.799L152.8 249.499L151.7 240.399C151.7 240.399 147.1 242.799 145.8 241.799Z" fill="#251725"/>
<path d="M178.7 159.199L191.4 152.899L183.1 166.199C183 166.299 178.9 161.999 178.7 159.199Z" fill="#251725"/>
<path d="M145.9 139.399L153.3 130.899L152.4 139.899C152.4 139.899 146.9 139.799 145.9 139.399Z" fill="#251725"/>
<path d="M211.6 166.299L198.7 169.699" stroke="#251725" stroke-miterlimit="10" stroke-linecap="round" stroke-linejoin="round"/>
<path d="M177.4 128.499L172.2 137.499" stroke="#251725" stroke-miterlimit="10" stroke-linecap="round" stroke-linejoin="round"/>
<path d="M210.9 216.799L198.7 211.899" stroke="#251725" stroke-miterlimit="10" stroke-linecap="round" stroke-linejoin="round"/>
<path d="M177.8 252.599L171.8 243.699" stroke="#251725" stroke-miterlimit="10" stroke-linecap="round" stroke-linejoin="round"/>
<path d="M135.7 248.799L136.6 243.199" stroke="#251725" stroke-miterlimit="10" stroke-linecap="round" stroke-linejoin="round"/>
<path d="M152.8 201.299C152.8 198.599 152 196.299 150.4 194.299C148.8 192.299 146.7 190.999 144.1 190.299C146.3 189.799 148.2 188.599 149.6 186.799C151 184.999 151.8 182.699 151.8 179.999C151.8 176.299 150.5 173.499 148.1 171.599C146.4 170.299 144.2 169.599 141.5 169.399V163.299L136.6 163.699V169.499L131.3 169.899V164.199L126.7 164.599V170.199L120.3 170.599V211.399L126.7 211.899V216.699L131.3 217.099V212.299L136.6 212.699V217.599L141.5 217.999V212.799C144.6 212.599 147.1 211.799 149 210.299C151.5 208.199 152.8 205.199 152.8 201.299ZM141 182.299C141 185.399 139.2 186.999 135.8 187.099L129.5 187.199V178.099L135.7 177.799C139.2 177.699 141 179.199 141 182.299ZM136.4 204.099L129.5 203.799V194.299L136.3 194.399C138.1 194.399 139.5 194.899 140.5 195.799C141.5 196.699 142 197.899 142 199.499C142 202.699 140.1 204.199 136.4 204.099Z" fill="#251725"/>
<path d="M276.4 59.0996L213.3 134.3" stroke="#251725" stroke-miterlimit="10" stroke-linecap="round" stroke-linejoin="round"/>
<path d="M275.4 320.799L212.5 249.199" stroke="#251725" stroke-miterlimit="10" stroke-linecap="round" stroke-linejoin="round"/>
<path d="M299.4 328.899C299.4 328.899 299.3 335.999 302.8 337.699C305.7 339.199 309.5 336.999 309.5 336.999C309.5 336.999 304.3 340.799 299.9 341.399C295.5 341.999 292.5 341.999 290.7 341.799L290.1 341.599C290.1 341.599 292.3 341.899 295.3 339.999C298.3 338.199 300.1 334.599 299.4 328.899Z" fill="#251725"/>
<path d="M257.5 155.999V163.199C257.5 165.399 259.3 167.199 261.5 167.199H303.4V151.199L261.4 151.999C259.2 151.999 257.5 153.799 257.5 155.999Z" fill="white" stroke="#251725" stroke-miterlimit="10" stroke-linecap="round" stroke-linejoin="round"/>
<path d="M303.4 151.199L312.6 152.299C314.6 152.499 316.1 154.199 316.1 156.299V163.299C316.1 165.499 314.3 167.299 312.1 167.299H303.3V151.199H303.4Z" fill="#A499CE" stroke="#251725" stroke-miterlimit="10" stroke-linecap="round" stroke-linejoin="round"/>
<path d="M260.4 167.1L267.4 168.4V170.4C267.4 171.5 268.3 172.4 269.4 172.4H299.4L310.5 171.6C311.7 171.5 312.7 170.5 312.7 169.2V167.2L260.4 167.1Z" fill="#251725"/>
<path d="M260.4 224.999L267.4 226.299V229.799C267.4 230.899 268.3 231.799 269.4 231.799H299.4L311.1 228.899C312.1 228.699 312.8 227.799 312.8 226.799V225.299L260.4 224.999Z" fill="#251725"/>
<path d="M257.5 214.999V222.199C257.5 224.399 259.2 226.099 261.4 226.199L303.4 227.399V211.399L261.5 210.999C259.3 210.899 257.5 212.699 257.5 214.999Z" fill="white" stroke="#251725" stroke-miterlimit="10" stroke-linecap="round" stroke-linejoin="round"/>
<path d="M303.4 211.399L312 211.099C314.3 210.999 316.1 212.799 316.1 215.099V222.099C316.1 224.099 314.7 225.799 312.7 226.099L303.3 227.499V211.399H303.4Z" fill="#A499CE" stroke="#251725" stroke-miterlimit="10" stroke-linecap="round" stroke-linejoin="round"/>
<path d="M252.6 294.9L218.7 251.6C218.7 251.6 215.7 251.7 214.5 255.8L252.6 294.9Z" fill="#251725"/>
<path d="M213.3 128.699L249.3 91.3994L217.4 135.399L213.3 128.699Z" fill="#251725"/>
<path d="M379.1 190.7L344.4 199.2V272.4" stroke="#A499CE" stroke-width="3" stroke-miterlimit="10" stroke-linecap="round" stroke-linejoin="round"/>
<path d="M361.8 194.3V135.4" stroke="#A499CE" stroke-width="3" stroke-miterlimit="10" stroke-linecap="round" stroke-linejoin="round"/>
<path d="M344.4 255.8L318.7 267" stroke="#A499CE" stroke-width="3" stroke-miterlimit="10" stroke-linecap="round" stroke-linejoin="round"/>
<path d="M361.6 156L344.3 157.3V111.5" stroke="#A499CE" stroke-width="3" stroke-miterlimit="10" stroke-linecap="round" stroke-linejoin="round"/>
<path d="M347.4 198.8C347.6 201 346.3 203.2 344.5 203.7C342.8 204.2 341.2 202.8 341.1 200.5C340.9 198.3 342.2 196.1 344 195.6C345.7 195.1 347.3 196.5 347.4 198.8Z" fill="#A499CE"/>
<path d="M364.8 135C365 137.2 363.7 139.4 361.9 139.9C360.2 140.4 358.6 139 358.5 136.7C358.3 134.5 359.6 132.3 361.4 131.8C363.1 131.3 364.6 132.8 364.8 135Z" fill="#A499CE"/>
<path d="M347.4 110C347.6 112.2 346.3 114.3 344.5 114.6C342.7 114.9 341.2 113.3 341.1 111.1C340.9 108.9 342.2 106.8 344 106.5C345.7 106.2 347.3 107.7 347.4 110Z" fill="#A499CE"/>
<path d="M347.4 272.4C347.6 274.6 346.3 276.8 344.5 277.3C342.8 277.8 341.2 276.4 341.1 274.1C340.9 271.9 342.2 269.7 344 269.2C345.7 268.7 347.3 270.2 347.4 272.4Z" fill="#A499CE"/>
<path d="M321.9 266.9C322.1 269.1 320.8 271.3 319 271.8C317.3 272.3 315.7 270.9 315.6 268.6C315.4 266.4 316.7 264.2 318.5 263.7C320.2 263.3 321.7 264.7 321.9 266.9Z" fill="#A499CE"/>
<path d="M303.1 12.0996H296.5L293.1 17.7996L296.5 23.5996H303.1L306.5 17.7996L303.1 12.0996Z" stroke="#251725" stroke-miterlimit="10" stroke-linecap="round" stroke-linejoin="round"/>
<path d="M443.5 180.5H435.7L431.9 187.2L435.7 193.9H443.5L447.4 187.2L443.5 180.5Z" stroke="#A499CE" stroke-miterlimit="10" stroke-linecap="round" stroke-linejoin="round"/>
<path d="M106.5 18.7002H101.6L99.1 23.0002L101.6 27.2002H106.5L108.9 23.0002L106.5 18.7002Z" stroke="#251725" stroke-miterlimit="10" stroke-linecap="round" stroke-linejoin="round"/>
<path d="M399.6 163.8H394.8L392.3 168L394.8 172.2H399.6L402 168L399.6 163.8Z" stroke="#251725" stroke-miterlimit="10" stroke-linecap="round" stroke-linejoin="round"/>
<path d="M8.3 222.3H3.39999L1 226.5L3.39999 230.7H8.3L10.7 226.5L8.3 222.3Z" stroke="#A499CE" stroke-miterlimit="10" stroke-linecap="round" stroke-linejoin="round"/>
<path d="M403.6 185.4H390.7L384.2 196.6L390.7 207.8H403.6L410.1 196.6L403.6 185.4Z" stroke="#251725" stroke-miterlimit="10" stroke-linecap="round" stroke-linejoin="round"/>
<path d="M30 237.9H17L10.6 249.1L17 260.3H30L36.5 249.1L30 237.9Z" stroke="#251725" stroke-miterlimit="10" stroke-linecap="round" stroke-linejoin="round"/>
<path d="M148.1 1H135.2L128.7 12.2L135.2 23.4H148.1L154.6 12.2L148.1 1Z" stroke="#A499CE" stroke-miterlimit="10" stroke-linecap="round" stroke-linejoin="round"/>
<path d="M378.6 326.9H361.2L352.5 342L361.2 357.1H378.6L387.4 342L378.6 326.9Z" stroke="#A499CE" stroke-miterlimit="10" stroke-linecap="round" stroke-linejoin="round"/>
<path d="M337.4 301.9H329.9L326.2 308.3L329.9 314.8H337.4L341.1 308.3L337.4 301.9Z" stroke="#251725" stroke-miterlimit="10" stroke-linecap="round" stroke-linejoin="round"/>
<path d="M203 11.2998L205.6 15.7998C207.4 18.9998 202.8 25.1998 195.1 29.5998C187.5 33.9998 179.8 34.9998 177.9 31.7998L175.3 27.2998C177.1 30.4998 184.8 29.4998 192.5 25.0998C200.2 20.6998 204.9 14.4998 203 11.2998Z" stroke="#251725" stroke-miterlimit="10" stroke-linecap="round" stroke-linejoin="round"/>
<path d="M185.9 13.5002C193.5 9.10021 201.2 8.1002 203 11.3002C204.8 14.5002 200.2 20.7002 192.5 25.1002C184.9 29.5002 177.2 30.5002 175.4 27.3002C173.6 24.0002 178.3 17.9002 185.9 13.5002Z" stroke="#251725" stroke-miterlimit="10" stroke-linecap="round" stroke-linejoin="round"/>
<mask id="mask0_3082_7561" style="mask-type:alpha" maskUnits="userSpaceOnUse" x="174" y="10" width="33" height="25">
<path d="M203 11.2998L205.6 15.7998C207.4 18.9998 202.8 25.1998 195.1 29.5998C187.5 33.9998 179.8 34.9998 177.9 31.7998L175.3 27.2998C177.1 30.4998 184.8 29.4998 192.5 25.0998C200.2 20.6998 204.9 14.4998 203 11.2998Z" fill="#D9D9D9" stroke="#251725" stroke-miterlimit="10" stroke-linecap="round" stroke-linejoin="round"/>
</mask>
<g mask="url(#mask0_3082_7561)">
<path d="M185.1 38.7996L177.3 25.0996" stroke="#251725" stroke-miterlimit="10" stroke-linecap="round" stroke-linejoin="round"/>
<path d="M189.8 36.0004L182 22.4004" stroke="#251725" stroke-miterlimit="10" stroke-linecap="round" stroke-linejoin="round"/>
<path d="M194.5 33.3002L186.7 19.7002" stroke="#251725" stroke-miterlimit="10" stroke-linecap="round" stroke-linejoin="round"/>
<path d="M199.2 30.6L191.3 17" stroke="#251725" stroke-miterlimit="10" stroke-linecap="round" stroke-linejoin="round"/>
<path d="M203.9 27.8998L196 14.2998" stroke="#251725" stroke-miterlimit="10" stroke-linecap="round" stroke-linejoin="round"/>
<path d="M208.6 25.2L200.7 11.5" stroke="#251725" stroke-miterlimit="10" stroke-linecap="round" stroke-linejoin="round"/>
</g>
<path d="M203 11.2998L205.6 15.7998C207.4 18.9998 202.8 25.1998 195.1 29.5998C187.5 33.9998 179.8 34.9998 177.9 31.7998L175.3 27.2998C177.1 30.4998 184.8 29.4998 192.5 25.0998C200.2 20.6998 204.9 14.4998 203 11.2998Z" stroke="#251725" stroke-miterlimit="10" stroke-linecap="round" stroke-linejoin="round"/>
<path d="M193.1 17.9006C192.6 17.9006 192.1 18.1006 191.7 18.4006C191.1 18.7006 190.5 18.8006 190.2 18.6006L190 18.5006C189.6 18.4006 189.6 18.0006 189.8 17.6006L189.9 17.4006C190.1 17.0006 190.5 16.5006 191.1 16.3006C191.8 15.9006 192.4 15.3006 192.5 14.8006C192.6 14.3006 192.2 14.1006 191.6 14.1006C190.6 14.2006 189.4 15.0006 189 15.7006C188.7 16.1006 188.8 16.5006 189.2 16.6006C189.5 16.7006 189.6 17.0006 189.4 17.4006L189.3 17.7006C189.1 18.1006 188.6 18.6006 188 18.9006L187.7 19.1006C187.1 19.4006 186.5 19.6006 186.2 19.4006C186 19.3006 185.6 19.3006 185.1 19.4006C184.3 19.6006 183.3 20.3006 182.7 21.0006C181.5 22.4006 181.7 23.5006 183.2 23.1006C184 22.9006 185 22.2006 185.7 21.4006C185.9 21.2006 186.1 21.0006 186.2 20.8006C186.5 20.3006 187 19.8006 187.6 19.5006L188 19.3006C188.6 19.0006 189.2 18.9006 189.5 19.0006L189.7 19.1006C190.1 19.3006 190.2 19.7006 190 20.2006C189.9 20.4006 189.9 20.6006 189.9 20.8006C189.9 21.5006 190.4 22.0006 191.3 21.9006C192.9 21.8006 194.6 20.3006 194.7 18.9006C194.5 18.2006 193.9 17.8006 193.1 17.9006Z" fill="#251725"/>
<path d="M27.3 149.9L25.4 153.2C24 155.6 27.5 160.1 33.1 163.3C38.7 166.5 44.4 167.3 45.7 164.9L47.6 161.6C46.2 164 40.6 163.2 35 160C29.4 156.8 25.9 152.3 27.3 149.9Z" stroke="#251725" stroke-miterlimit="10" stroke-linecap="round" stroke-linejoin="round"/>
<path d="M39.9 151.5C34.3 148.3 28.6 147.5 27.3 149.9C25.9 152.3 29.4 156.8 35 160C40.6 163.2 46.3 164 47.6 161.6C48.9 159.3 45.5 154.8 39.9 151.5Z" stroke="#251725" stroke-miterlimit="10" stroke-linecap="round" stroke-linejoin="round"/>
<mask id="mask1_3082_7561" style="mask-type:alpha" maskUnits="userSpaceOnUse" x="24" y="149" width="25" height="18">
<path d="M27.3001 149.9L25.4001 153.2C24.0001 155.6 27.5001 160.1 33.1001 163.3C38.7001 166.5 44.4001 167.3 45.7001 164.9L47.6001 161.6C46.2001 164 40.6001 163.2 35.0001 160C29.4001 156.8 25.9001 152.3 27.3001 149.9Z" fill="#D9D9D9" stroke="#251725" stroke-miterlimit="10" stroke-linecap="round" stroke-linejoin="round"/>
</mask>
<g mask="url(#mask1_3082_7561)">
<path d="M40.4 170.201L46.2 160.101" stroke="#251725" stroke-miterlimit="10" stroke-linecap="round" stroke-linejoin="round"/>
<path d="M34.7 166.801L40.5 156.801" stroke="#251725" stroke-miterlimit="10" stroke-linecap="round" stroke-linejoin="round"/>
<path d="M28.9 163.501L34.7 153.501" stroke="#251725" stroke-miterlimit="10" stroke-linecap="round" stroke-linejoin="round"/>
<path d="M23.2 160.201L29 150.101" stroke="#251725" stroke-miterlimit="10" stroke-linecap="round" stroke-linejoin="round"/>
<path d="M27.3 149.9L25.4 153.2C24 155.6 27.5 160.1 33.1 163.3C38.7 166.5 44.4 167.3 45.7 164.9L47.6 161.6C46.2 164 40.6 163.2 35 160C29.4 156.8 25.9 152.3 27.3 149.9Z" stroke="#251725" stroke-miterlimit="10" stroke-linecap="round" stroke-linejoin="round"/>
</g>
<path d="M34.5 152.7C34.5 152.7 33.3 153.6 34.4 154.9C35.6 156.3 36.9 157.2 36.4 158.8C36.4 158.8 37.4 158.4 37.3 157.2C37.1 156.2 35.5 154.8 35.1 154.2C34.3 153.5 34.5 152.7 34.5 152.7Z" fill="#251725"/>
<path d="M39.3 152.7C39.3 152.7 38.1 153.6 39.4 154.9C40.7 156.3 42.1 157.1 41.8 158.7C41.8 158.7 42.8 158.3 42.5 157.1C42.2 156.1 40.5 154.7 40 154.1C39.2 153.4 39.3 152.7 39.3 152.7Z" fill="#251725"/>
<path d="M36.4 151.9C36.4 151.9 34.9 153 36.3 154.6C37.8 156.3 39.6 157.5 39.1 159.5C39.1 159.5 40.4 158.9 40.1 157.5C39.8 156.2 37.7 154.5 37.1 153.8C36.3 152.7 36.4 151.9 36.4 151.9Z" fill="#251725"/>
<path d="M424 107.7L424.5 112.3C424.9 115.6 418.8 118.9 411 119.8C403.2 120.7 396.6 118.7 396.2 115.4L395.7 110.8C396.1 114.1 402.7 116 410.5 115.2C418.3 114.3 424.4 111 424 107.7Z" stroke="#251725" stroke-miterlimit="10" stroke-linecap="round" stroke-linejoin="round"/>
<path d="M409.2 103.3C417 102.4 423.6 104.4 424 107.7C424.4 111 418.3 114.3 410.5 115.2C402.7 116.1 396.1 114.1 395.7 110.8C395.4 107.5 401.4 104.2 409.2 103.3Z" stroke="#251725" stroke-miterlimit="10" stroke-linecap="round" stroke-linejoin="round"/>
<mask id="mask2_3082_7561" style="mask-type:alpha" maskUnits="userSpaceOnUse" x="395" y="107" width="31" height="14">
<path d="M424 107.7L424.5 112.3C424.9 115.6 418.8 118.9 411 119.8C403.2 120.7 396.6 118.7 396.2 115.4L395.7 110.8C396.1 114.1 402.7 116 410.5 115.2C418.3 114.3 424.4 111 424 107.7Z" fill="#D9D9D9" stroke="#251725" stroke-miterlimit="10" stroke-linecap="round" stroke-linejoin="round"/>
</mask>
<g mask="url(#mask2_3082_7561)">
<path d="M399.5 123.7L398 109.7" stroke="#251725" stroke-miterlimit="10" stroke-linecap="round" stroke-linejoin="round"/>
<path d="M405.5 123.001L404 109.101" stroke="#251725" stroke-miterlimit="10" stroke-linecap="round" stroke-linejoin="round"/>
<path d="M411.5 122.4L410 108.4" stroke="#251725" stroke-miterlimit="10" stroke-linecap="round" stroke-linejoin="round"/>
<path d="M417.6 121.7L416 107.7" stroke="#251725" stroke-miterlimit="10" stroke-linecap="round" stroke-linejoin="round"/>
<path d="M423.6 121.001L422 107.101" stroke="#251725" stroke-miterlimit="10" stroke-linecap="round" stroke-linejoin="round"/>
</g>
<path d="M424 107.7L424.5 112.3C424.9 115.6 418.8 118.9 411 119.8C403.2 120.7 396.6 118.7 396.2 115.4L395.7 110.8C396.1 114.1 402.7 116 410.5 115.2C418.3 114.3 424.4 111 424 107.7Z" stroke="#251725" stroke-miterlimit="10" stroke-linecap="round" stroke-linejoin="round"/>
<path d="M413.3 110.3C413.4 109.9 413.4 109.6 413.2 109.3C413 109 412.6 108.8 412 108.7C412.5 108.6 413 108.5 413.4 108.2C413.8 108 414.1 107.7 414.2 107.3C414.4 106.8 414.3 106.5 413.8 106.2C413.5 106 413.1 105.9 412.5 105.9L412.8 105.1H411.7L411.4 105.8H410.2L410.5 105.1H409.4L409 105.8H407.5L404.1 112.1H405.9L405.5 112.9H406.7L407.1 112.1H408.5L408.1 112.9H409.3L409.7 112C410.5 111.9 411.1 111.8 411.7 111.5C412.6 111.4 413 110.9 413.3 110.3ZM411.7 107.7C411.5 108.1 411 108.3 410.2 108.3H408.7L409.3 107H410.7C411.6 107 411.9 107.2 411.7 107.7ZM409.2 110.8H407.5L408.2 109.3H409.9C410.3 109.3 410.6 109.4 410.8 109.5C411 109.6 411 109.8 410.9 110C410.7 110.6 410.1 110.8 409.2 110.8Z" fill="#251725"/>
<path d="M32 288.101L27.9 290.501C25 292.201 25.9 299.201 29.9 306.201C33.9 313.201 39.6 317.501 42.5 315.801L46.6 313.401C43.7 315.101 38 310.801 34 303.801C29.9 296.801 29 289.801 32 288.101Z" stroke="#251725" stroke-miterlimit="10" stroke-linecap="round" stroke-linejoin="round"/>
<path d="M46.581 313.322C49.4985 311.638 48.5953 304.611 44.5636 297.629C40.5319 290.646 34.8985 286.35 31.981 288.035C29.0635 289.719 29.9667 296.746 33.9984 303.729C38.0301 310.711 43.6635 315.007 46.581 313.322Z" fill="white" stroke="#251725" stroke-miterlimit="10" stroke-linecap="round" stroke-linejoin="round"/>
<path d="M32 288.101L27.9 290.501C25 292.201 25.9 299.201 29.9 306.201C33.9 313.201 39.6 317.501 42.5 315.801L46.6 313.401C43.7 315.101 38 310.801 34 303.801C29.9 296.801 29 289.801 32 288.101Z" fill="white"/>
<mask id="mask3_3082_7561" style="mask-type:alpha" maskUnits="userSpaceOnUse" x="25" y="287" width="23" height="30">
<path d="M32 288.101L27.9 290.501C25 292.201 25.9 299.201 29.9 306.201C33.9 313.201 39.6 317.501 42.5 315.801L46.6 313.401C43.7 315.101 38 310.801 34 303.801C29.9 296.801 29 289.801 32 288.101Z" fill="#D9D9D9" stroke="#251725" stroke-miterlimit="10" stroke-linecap="round" stroke-linejoin="round"/>
</mask>
<g mask="url(#mask3_3082_7561)">
<path d="M33.6 318.1L46.1 310.9" stroke="#251725" stroke-miterlimit="10" stroke-linecap="round" stroke-linejoin="round"/>
<path d="M30.5 312.701L43 305.501" stroke="#251725" stroke-miterlimit="10" stroke-linecap="round" stroke-linejoin="round"/>
<path d="M27.4 307.301L39.9 300.101" stroke="#251725" stroke-miterlimit="10" stroke-linecap="round" stroke-linejoin="round"/>
<path d="M24.3 301.901L36.8 294.701" stroke="#251725" stroke-miterlimit="10" stroke-linecap="round" stroke-linejoin="round"/>
<path d="M21.1 296.501L33.7 289.301" stroke="#251725" stroke-miterlimit="10" stroke-linecap="round" stroke-linejoin="round"/>
</g>
<path d="M32 288.101L27.9 290.501C25 292.201 25.9 299.201 29.9 306.201C33.9 313.201 39.6 317.501 42.5 315.801L46.6 313.401C43.7 315.101 38 310.801 34 303.801C29.9 296.801 29 289.801 32 288.101Z" stroke="#251725" stroke-miterlimit="10" stroke-linecap="round" stroke-linejoin="round"/>
<path d="M41.6 303.1L40.7 299.9L41.6 298.7L41 298L40.3 298.7L39.1 294.4L37.1 296L38.3 300.9L36.6 302.8L37.7 303.8L38.7 302.4L39.9 307.2L45.1 301.8L44.7 300.2L41.6 303.1Z" fill="#251725"/>
<path d="M314.191 362.583C338.966 348.279 354.17 328.231 348.15 317.804C342.13 307.378 317.166 310.521 292.391 324.826C267.616 339.13 252.413 359.178 258.432 369.604C264.452 380.031 289.416 376.887 314.191 362.583Z" fill="white" stroke="#251725" stroke-miterlimit="10" stroke-linecap="round" stroke-linejoin="round"/>
<path d="M293.9 327.401C315.4 315.001 336.6 311.701 341.4 319.901C346.2 328.201 332.6 344.901 311.2 357.301C289.7 369.701 268.5 373.001 263.7 364.801C258.9 356.501 272.5 339.801 293.9 327.401Z" fill="url(#paint4_linear_3082_7561)" stroke="#251725" stroke-miterlimit="10" stroke-linecap="round" stroke-linejoin="round"/>
<path d="M348.2 317.801L354.4 327.701C360.4 338.101 345.2 358.201 320.4 372.501C295.6 386.801 270.6 390.001 264.6 379.601L258.4 369.701C264.4 380.101 289.4 376.901 314.2 362.601C339 348.201 354.2 328.201 348.2 317.801Z" fill="url(#paint5_linear_3082_7561)" stroke="#251725" stroke-miterlimit="10" stroke-linecap="round" stroke-linejoin="round"/>
<mask id="mask4_3082_7561" style="mask-type:alpha" maskUnits="userSpaceOnUse" x="257" y="317" width="100" height="70">
<path d="M348.2 317.801L354.4 327.701C360.4 338.101 345.2 358.201 320.4 372.501C295.6 386.801 270.6 390.001 264.6 379.601L258.4 369.701C264.4 380.101 289.4 376.901 314.2 362.601C339 348.201 354.2 328.201 348.2 317.801Z" fill="#D9D9D9" stroke="#251725" stroke-miterlimit="10" stroke-linecap="round" stroke-linejoin="round"/>
</mask>
<g mask="url(#mask4_3082_7561)">
<path d="M290 407.1L264.4 362.7" stroke="#251725" stroke-miterlimit="10" stroke-linecap="round" stroke-linejoin="round"/>
<path d="M305.3 398.3L279.7 353.9" stroke="#251725" stroke-miterlimit="10" stroke-linecap="round" stroke-linejoin="round"/>
<path d="M320.6 389.501L294.9 345.101" stroke="#251725" stroke-miterlimit="10" stroke-linecap="round" stroke-linejoin="round"/>
<path d="M335.8 380.701L310.2 336.301" stroke="#251725" stroke-miterlimit="10" stroke-linecap="round" stroke-linejoin="round"/>
<path d="M351.1 371.801L325.5 327.501" stroke="#251725" stroke-miterlimit="10" stroke-linecap="round" stroke-linejoin="round"/>
<path d="M366.4 363.001L340.8 318.601" stroke="#251725" stroke-miterlimit="10" stroke-linecap="round" stroke-linejoin="round"/>
</g>
<path d="M348.2 317.801L354.4 327.701C360.4 338.101 345.2 358.201 320.4 372.501C295.6 386.801 270.6 390.001 264.6 379.601L258.4 369.701C264.4 380.101 289.4 376.901 314.2 362.601C339 348.201 354.2 328.201 348.2 317.801Z" stroke="#251725" stroke-miterlimit="10" stroke-linecap="round" stroke-linejoin="round"/>
<path d="M315.9 339.201C314.3 339.301 312.7 339.801 311.2 340.701C309.3 341.701 307.4 342.001 306.2 341.501L305.5 341.201C304.3 340.701 304 339.601 304.7 338.201L305 337.501C305.7 336.201 307 334.701 308.8 333.801C311.1 332.501 313.1 330.601 313.4 328.901C313.7 327.401 312.5 326.501 310.4 326.701C307.3 327.101 303.4 329.501 302 331.901C301.2 333.301 301.4 334.501 302.5 334.901C303.5 335.301 303.8 336.201 303.1 337.601L302.6 338.501C301.9 339.901 300.3 341.401 298.4 342.501L297.3 343.101C295.4 344.101 293.5 344.601 292.5 344.101C291.7 343.701 290.5 343.701 289 344.201C286.4 345.001 283.3 347.101 281.2 349.501C277.3 354.001 278 357.501 282.8 356.301C285.5 355.601 288.8 353.401 291.1 350.901C291.8 350.201 292.3 349.501 292.6 348.901C293.6 347.201 295.3 345.601 297.3 344.501L298.6 343.801C300.5 342.701 302.4 342.401 303.6 342.901L304.4 343.201C305.6 343.701 305.9 345.001 305.2 346.701C305 347.301 304.8 348.001 304.8 348.601C304.8 350.801 306.4 352.401 309.2 352.201C314.4 351.901 320 346.801 320.1 342.601C320.4 340.401 318.5 339.001 315.9 339.201Z" fill="#251725"/>
<path d="M117.7 96.8009L116.5 95.3009C123.1 86.9009 126.1 75.7009 124.3 63.7009C120.9 41.3009 101.1 21.6009 78.1 19.2009C70.3 18.4009 63 19.7009 56.7 22.6009L55.1 20.7009L46.1 30.0009C46 30.1009 45.8 30.3009 45.7 30.4009L45.2 30.9009C37.8 38.8009 33.9 50.2009 35.5 63.4009C39 91.2009 64.9 111.701 90.6 109.101C96.2 108.501 101.2 106.901 105.7 104.401H105.8C107.1 103.701 108.4 102.801 109.6 101.901L117.7 96.8009Z" fill="white" stroke="#251725" stroke-miterlimit="10" stroke-linecap="round" stroke-linejoin="round"/>
<mask id="mask5_3082_7561" style="mask-type:alpha" maskUnits="userSpaceOnUse" x="34" y="18" width="92" height="92">
<path d="M117.7 96.7999L116.5 95.2999C123.1 86.8999 126.1 75.6999 124.3 63.6999C120.9 41.2999 101.1 21.5999 78.1 19.1999C70.3 18.3999 63 19.6999 56.7 22.5999L55.1 20.6999L46.1 29.9999C46 30.0999 45.8 30.2999 45.7 30.3999L45.2 30.8999C37.8 38.7999 33.9 50.1999 35.5 63.3999C39 91.1999 64.9 111.7 90.6 109.1C96.2 108.5 101.2 106.9 105.7 104.4H105.8C107.1 103.7 108.4 102.8 109.6 101.9L117.7 96.7999Z" fill="white" stroke="#251725" stroke-miterlimit="10" stroke-linecap="round" stroke-linejoin="round"/>
</mask>
<g mask="url(#mask5_3082_7561)">
<path d="M77.7 120.9L109.5 88.7998" stroke="#251725" stroke-miterlimit="10" stroke-linecap="round" stroke-linejoin="round"/>
<path d="M66.6 109.9L98.5 77.9004" stroke="#251725" stroke-miterlimit="10" stroke-linecap="round" stroke-linejoin="round"/>
<path d="M55.6 99.0004L87.4 66.9004" stroke="#251725" stroke-miterlimit="10" stroke-linecap="round" stroke-linejoin="round"/>
<path d="M44.5 88L76.4 56" stroke="#251725" stroke-miterlimit="10" stroke-linecap="round" stroke-linejoin="round"/>
<path d="M33.5 77.1L65.3 45" stroke="#251725" stroke-miterlimit="10" stroke-linecap="round" stroke-linejoin="round"/>
<path d="M22.5 66.1L54.3 34" stroke="#251725" stroke-miterlimit="10" stroke-linecap="round" stroke-linejoin="round"/>
</g>
<path d="M132.5 57.8005C136 81.1005 121.6 102 98 104.4C71.7 107.1 45.1 86.0005 41.5 57.6005C38 29.6005 58.8 9.70046 85.1 12.3005C108.8 14.7005 129 34.8005 132.5 57.8005Z" fill="white" stroke="#251725" stroke-miterlimit="10" stroke-linecap="round" stroke-linejoin="round"/>
<path d="M126.4 57.8006C129.4 77.6006 116.9 95.1006 97 96.7006C75.2 98.5006 53.4 80.9006 50.4 57.6006C47.5 34.5006 64.4 17.7006 86.2 19.6006C106.2 21.3006 123.5 38.2006 126.4 57.8006Z" fill="url(#paint6_linear_3082_7561)" stroke="#251725" stroke-miterlimit="10" stroke-linecap="round" stroke-linejoin="round"/>
<path d="M62.6 34.8002C64.2 32.9002 66 31.2002 68 29.7002" stroke="#251725" stroke-miterlimit="10" stroke-linecap="round" stroke-linejoin="round"/>
<path d="M58.3 42.2002C58.8 41.0002 59.3 39.8002 59.9 38.7002" stroke="#251725" stroke-miterlimit="10" stroke-linecap="round" stroke-linejoin="round"/>
<path d="M109.2 66.8008C108.9 64.6008 108 62.6008 106.4 60.9008C104.9 59.2008 102.9 58.1008 100.6 57.5008C102.5 57.0008 103.9 56.0008 104.8 54.5008C105.7 53.0008 106 51.1008 105.7 48.8008C105.3 45.7008 103.9 43.2008 101.6 41.5008C100 40.2008 98 39.4008 95.6 39.0008L94.8 33.6008L90.3 33.3008L91 38.5008L85.9 38.3008L85.2 33.1008L80.5 32.8008L81.2 38.1008L74.3 37.8008L79.8 78.7008L86.7 78.4008L87.3 83.1008L92 82.9008L91.4 78.3008L96.5 78.1008L97.1 82.7008L101.6 82.5008L100.9 77.8008C103.5 77.3008 105.6 76.4008 106.9 74.9008C109 72.7008 109.7 70.1008 109.2 66.8008ZM96.9 50.3008C97.3 53.1008 95.9 54.5008 92.7 54.4008L86.5 54.3008L85.3 45.7008L91.4 45.9008C94.7 46.1008 96.5 47.5008 96.9 50.3008ZM95.4 70.1008L88.7 70.3008L87.5 61.3008H94.2C95.9 61.3008 97.2 61.7008 98.2 62.5008C99.2 63.3008 99.8 64.4008 100 65.8008C100.3 68.5008 98.9 70.0008 95.4 70.1008Z" fill="#251725"/>
<path d="M364.8 281.501L365.7 280.401C360.6 273.901 358.3 265.201 359.7 256.001C362.3 238.701 377.6 223.501 395.3 221.701C401.3 221.101 407 222.101 411.8 224.301L413 222.801L420 229.901C420.1 230.001 420.2 230.101 420.3 230.201L420.7 230.601C426.4 236.701 429.4 245.501 428.2 255.701C425.5 277.101 405.5 293.001 385.7 291.001C381.4 290.601 377.5 289.301 374.1 287.401H374C373 286.801 372 286.201 371.1 285.501L364.8 281.501Z" fill="white" stroke="#251725" stroke-miterlimit="10" stroke-linecap="round" stroke-linejoin="round"/>
<mask id="mask6_3082_7561" style="mask-type:alpha" maskUnits="userSpaceOnUse" x="358" y="221" width="71" height="71">
<path d="M364.8 281.501L365.7 280.401C360.6 273.901 358.3 265.201 359.7 256.001C362.3 238.701 377.6 223.501 395.3 221.701C401.3 221.101 407 222.101 411.8 224.301L413 222.801L420 229.901C420.1 230.001 420.2 230.101 420.3 230.201L420.7 230.601C426.4 236.701 429.4 245.501 428.2 255.701C425.5 277.101 405.5 293.001 385.7 291.001C381.4 290.601 377.5 289.301 374.1 287.401H374C373 286.801 372 286.201 371.1 285.501L364.8 281.501Z" fill="white" stroke="#251725" stroke-miterlimit="10" stroke-linecap="round" stroke-linejoin="round"/>
</mask>
<g mask="url(#mask6_3082_7561)">
<path d="M395.7 300.1L371.1 275.4" stroke="#251725" stroke-miterlimit="10" stroke-linecap="round" stroke-linejoin="round"/>
<path d="M404.2 291.7L379.6 266.9" stroke="#251725" stroke-miterlimit="10" stroke-linecap="round" stroke-linejoin="round"/>
<path d="M412.7 283.201L388.1 258.501" stroke="#251725" stroke-miterlimit="10" stroke-linecap="round" stroke-linejoin="round"/>
<path d="M421.2 274.701L396.7 250.001" stroke="#251725" stroke-miterlimit="10" stroke-linecap="round" stroke-linejoin="round"/>
<path d="M429.7 266.301L405.2 241.601" stroke="#251725" stroke-miterlimit="10" stroke-linecap="round" stroke-linejoin="round"/>
<path d="M438.2 257.801L413.7 233.101" stroke="#251725" stroke-miterlimit="10" stroke-linecap="round" stroke-linejoin="round"/>
</g>
<path d="M353.3 251.401C350.6 269.401 361.7 285.501 379.9 287.301C400.2 289.401 420.7 273.101 423.4 251.201C426.1 229.601 410 214.201 389.8 216.301C371.6 218.201 356 233.701 353.3 251.401Z" fill="white" stroke="#251725" stroke-miterlimit="10" stroke-linecap="round" stroke-linejoin="round"/>
<path d="M358.1 251.401C355.8 266.701 365.4 280.101 380.8 281.401C397.6 282.801 414.4 269.301 416.7 251.201C419 233.401 405.9 220.401 389.1 221.901C373.7 223.301 360.3 236.301 358.1 251.401Z" fill="url(#paint7_linear_3082_7561)" stroke="#251725" stroke-miterlimit="10" stroke-linecap="round" stroke-linejoin="round"/>
<path d="M372.6 233.601C374 232.301 375.6 231.301 377.4 230.501" stroke="#251725" stroke-miterlimit="10" stroke-linecap="round" stroke-linejoin="round"/>
<path d="M368.4 238.701C368.9 237.801 369.5 237.001 370.1 236.301" stroke="#251725" stroke-miterlimit="10" stroke-linecap="round" stroke-linejoin="round"/>
<path d="M383.5 260.401L386.8 251.101L393.3 249.401L392.5 246.101L388.2 247.301L392.4 235.901H382.9L378 250.001L371.5 251.701L372.4 255.001L376.6 253.901L372.7 265.001H400.8L403.1 260.401H383.5Z" fill="#251725"/>
<path d="M417.6 23.7002L412.2 22.3002L411.3 23.9002C392.2 23.3002 375.1 13.9002 375.1 13.9002L368.6 12.2002L371.5 16.5002C364.9 21.1002 350.2 30.4002 336.3 32.2002C336.3 32.2002 330.6 80.0002 368.2 106.2V111.6L375.1 110.5C425.3 81.7002 417.6 23.7002 417.6 23.7002Z" fill="#251725" stroke="#251725" stroke-miterlimit="10" stroke-linecap="round" stroke-linejoin="round"/>
<path d="M412.2 22.3002C390.2 24.1002 368.6 12.2002 368.6 12.2002C368.6 12.2002 347.9 28.5002 328.6 31.0002C328.6 31.0002 321.8 86.1002 368.1 111.5C420 81.9002 412.2 22.3002 412.2 22.3002Z" fill="url(#paint8_linear_3082_7561)" stroke="#251725" stroke-miterlimit="10" stroke-linecap="round" stroke-linejoin="round"/>
<path d="M368.2 103.3C336.1 84.1998 333.7 49.5998 334 36.3998C348.4 33.0998 362.3 24.1998 368.6 19.7998C374.9 22.7998 389.6 28.9998 405.8 29.3998C406 43.4998 402.9 81.1998 368.2 103.3Z" fill="url(#paint9_linear_3082_7561)" stroke="#251725" stroke-miterlimit="10" stroke-linecap="round" stroke-linejoin="round"/>
<path d="M372.4 59.4L369.1 59.5V44.9L375.9 45V36.3L369.1 37V35L364.5 35.5V59.7L361.4 59.8L356.2 69.5L361.4 79.1L372.4 79.3L378.1 69.3L372.4 59.4ZM369.8 74.7L363.9 74.6L361 69.4L363.9 64.1H364.6L369.2 64H369.9L372.9 69.3L369.8 74.7Z" fill="#251725"/>
<defs>
<linearGradient id="paint0_linear_3082_7561" x1="326.278" y1="341.675" x2="30.7998" y2="116.179" gradientUnits="userSpaceOnUse">
<stop stop-color="#DF87F1"/>
<stop offset="0.75" stop-color="#FBFBFF"/>
</linearGradient>
<linearGradient id="paint1_linear_3082_7561" x1="54.0554" y1="116.923" x2="364.197" y2="173.999" gradientUnits="userSpaceOnUse">
<stop stop-color="#DF87F1"/>
<stop offset="0.75" stop-color="#FBFBFF"/>
</linearGradient>
<linearGradient id="paint2_linear_3082_7561" x1="242.402" y1="269.399" x2="87.9801" y2="140.088" gradientUnits="userSpaceOnUse">
<stop stop-color="#DF87F1"/>
<stop offset="0.75" stop-color="#FBFBFF"/>
</linearGradient>
<linearGradient id="paint3_linear_3082_7561" x1="119.213" y1="124.624" x2="234.043" y2="219.285" gradientUnits="userSpaceOnUse">
<stop offset="0.15" stop-color="#10AD74"/>
<stop offset="0.5" stop-color="#1288AA"/>
</linearGradient>
<linearGradient id="paint4_linear_3082_7561" x1="351.558" y1="369.301" x2="301.304" y2="295.061" gradientUnits="userSpaceOnUse">
<stop stop-color="#DF87F1"/>
<stop offset="0.75" stop-color="#FBFBFF"/>
</linearGradient>
<linearGradient id="paint5_linear_3082_7561" x1="366.943" y1="385.713" x2="302.93" y2="293.991" gradientUnits="userSpaceOnUse">
<stop stop-color="#DF87F1"/>
<stop offset="0.75" stop-color="#FBFBFF"/>
</linearGradient>
<linearGradient id="paint6_linear_3082_7561" x1="67.5363" y1="-1.63379" x2="173.518" y2="103.518" gradientUnits="userSpaceOnUse">
<stop offset="0.15" stop-color="#10AD74"/>
<stop offset="0.5" stop-color="#1288AA"/>
</linearGradient>
<linearGradient id="paint7_linear_3082_7561" x1="371.226" y1="205.507" x2="453.023" y2="286.598" gradientUnits="userSpaceOnUse">
<stop offset="0.15" stop-color="#10AD74"/>
<stop offset="0.5" stop-color="#1288AA"/>
</linearGradient>
<linearGradient id="paint8_linear_3082_7561" x1="317.004" y1="34.0384" x2="448.768" y2="61.2641" gradientUnits="userSpaceOnUse">
<stop stop-color="#DF87F1"/>
<stop offset="0.75" stop-color="#FBFBFF"/>
</linearGradient>
<linearGradient id="paint9_linear_3082_7561" x1="414.102" y1="103.3" x2="331.19" y2="31.9761" gradientUnits="userSpaceOnUse">
<stop stop-color="#DF87F1"/>
<stop offset="0.75" stop-color="#FBFBFF"/>
</linearGradient>
</defs>
</svg>
