<svg width="526" height="351" viewBox="0 0 526 351" fill="none" xmlns="http://www.w3.org/2000/svg">
<path d="M488.145 193.246L489.845 197.612C491.104 200.733 486.005 205.567 478.61 208.502C471.216 211.438 464.234 211.221 462.974 208.1L461.275 203.734C462.534 206.855 469.491 206.974 476.911 204.136C484.305 201.201 489.405 196.367 488.145 193.246Z" fill="#DF87F1" stroke="#251725" stroke-width="1.50076" stroke-miterlimit="10" stroke-linecap="round" stroke-linejoin="round"/>
<path d="M472.508 192.842C479.902 189.907 486.885 190.123 488.144 193.245C489.404 196.366 484.304 201.2 476.91 204.135C469.516 207.07 462.533 206.854 461.274 203.733C460.112 200.585 465.114 195.778 472.508 192.842Z" fill="url(#paint0_linear_3085_9420)" stroke="#251725" stroke-width="1.50076" stroke-miterlimit="10" stroke-linecap="round" stroke-linejoin="round"/>
<mask id="mask0_3085_9420" style="mask-type:alpha" maskUnits="userSpaceOnUse" x="460" y="192" width="31" height="20">
<path d="M488.144 193.248L489.844 197.614C491.104 200.736 486.005 205.57 478.611 208.505C471.218 211.44 464.235 211.223 462.975 208.101L461.275 203.735C462.535 206.856 469.492 206.976 476.912 204.139C484.305 201.204 489.404 196.369 488.144 193.248Z" fill="#D9D9D9" stroke="#251725" stroke-width="1.50076" stroke-miterlimit="10" stroke-linecap="round" stroke-linejoin="round"/>
</mask>
<g mask="url(#mask0_3085_9420)">
<path d="M468.39 215.35L463.236 202.052" stroke="#251725" stroke-width="1.50076" stroke-miterlimit="10" stroke-linecap="round" stroke-linejoin="round"/>
<path d="M474.101 213.184L468.947 199.886" stroke="#251725" stroke-width="1.50076" stroke-miterlimit="10" stroke-linecap="round" stroke-linejoin="round"/>
<path d="M479.786 210.92L474.632 197.621" stroke="#251725" stroke-width="1.50076" stroke-miterlimit="10" stroke-linecap="round" stroke-linejoin="round"/>
<path d="M485.568 208.627L480.343 195.453" stroke="#251725" stroke-width="1.50076" stroke-miterlimit="10" stroke-linecap="round" stroke-linejoin="round"/>
<path d="M491.279 206.462L486.028 193.189" stroke="#251725" stroke-width="1.50076" stroke-miterlimit="10" stroke-linecap="round" stroke-linejoin="round"/>
</g>
<path d="M488.147 193.247L489.846 197.612C491.105 200.733 486.004 205.567 478.61 208.503C471.215 211.439 464.232 211.223 462.973 208.103L461.275 203.737C462.534 206.858 469.49 206.976 476.911 204.138C484.306 201.202 489.406 196.368 488.147 193.247Z" stroke="#251725" stroke-width="1.50076" stroke-miterlimit="10" stroke-linecap="round" stroke-linejoin="round"/>
<path d="M478.387 198.703C478.379 198.286 478.301 197.993 478.026 197.752C477.751 197.511 477.307 197.421 476.694 197.481C477.157 197.252 477.62 197.022 477.932 196.623C478.271 196.322 478.486 195.95 478.478 195.533C478.542 194.991 478.366 194.724 477.797 194.562C477.451 194.446 477.034 194.453 476.447 194.612L476.53 193.75L475.453 194.04L475.344 194.804L474.17 195.12L474.279 194.356L473.203 194.646L472.996 195.436L471.528 195.831L469.859 202.888L471.62 202.414L471.44 203.302L472.614 202.985L472.794 202.098L474.164 201.729L473.983 202.616L475.157 202.3L475.312 201.315C476.068 201.006 476.629 200.75 477.137 200.299C477.965 199.866 478.225 199.271 478.387 198.703ZM476.111 196.485C476.021 196.929 475.584 197.256 474.801 197.467L473.334 197.862L473.579 196.433L474.949 196.064C475.855 195.924 476.202 196.041 476.111 196.485ZM474.507 200.273L472.844 200.721L473.134 199.07L474.797 198.622C475.189 198.516 475.508 198.535 475.73 198.58C475.952 198.625 476.005 198.821 475.96 199.043C475.896 199.584 475.388 200.036 474.507 200.273Z" fill="#251725"/>
<path d="M108.862 270.01C114.731 259.261 98.7476 239.217 73.1612 225.241C47.5749 211.264 22.075 208.648 16.2058 219.397C10.3365 230.146 26.3203 250.19 51.9067 264.166C77.4931 278.142 102.993 280.759 108.862 270.01Z" fill="url(#paint1_linear_3085_9420)" stroke="#251725" stroke-width="1.50076" stroke-miterlimit="10" stroke-linecap="round" stroke-linejoin="round"/>
<path d="M103.898 265.002C108.481 256.609 94.1214 239.932 71.8257 227.754C49.53 215.575 27.7407 212.506 23.1579 220.898C18.5751 229.291 32.9342 245.968 55.2299 258.146C77.5256 270.325 99.3149 273.395 103.898 265.002Z" fill="url(#paint2_linear_3085_9420)" stroke="#251725" stroke-width="1.50076" stroke-miterlimit="10" stroke-linecap="round" stroke-linejoin="round"/>
<path d="M31.9438 234.906C29.5382 231.959 27.9332 229.14 27.2972 226.681L31.9438 234.906Z" fill="#A499CE"/>
<path d="M31.9438 234.906C29.5382 231.959 27.9332 229.14 27.2972 226.681" stroke="#251725" stroke-width="1.50076" stroke-miterlimit="10" stroke-linecap="round" stroke-linejoin="round"/>
<path d="M37.3973 240.593C36.5922 239.85 35.8029 239.006 34.9977 238.263L37.3973 240.593Z" fill="#A499CE"/>
<path d="M37.3973 240.593C36.5922 239.85 35.8029 239.006 34.9977 238.263" stroke="#251725" stroke-width="1.50076" stroke-miterlimit="10" stroke-linecap="round" stroke-linejoin="round"/>
<path d="M38.1782 227.897L52.7586 245.286L66.6015 243.389L60.704 230.764L38.1782 227.897Z" fill="#251725"/>
<path d="M72.0662 246.406L58.0388 248.172L91.3225 256.954L65.9843 233.649L72.0662 246.406Z" fill="#251725"/>
<path d="M108.949 270.022L103.17 280.583C97.2602 291.329 71.8212 288.716 46.2408 274.701C20.6603 260.687 4.64287 240.711 10.453 229.949L16.2314 219.388C10.3212 230.133 26.3386 250.109 52.0191 264.14C77.4996 278.138 103.039 280.768 108.949 270.022Z" fill="url(#paint3_linear_3085_9420)"/>
<mask id="mask1_3085_9420" style="mask-type:alpha" maskUnits="userSpaceOnUse" x="8" y="218" width="102" height="70">
<path d="M108.944 270.02L103.165 280.584C97.2534 291.332 71.816 288.722 46.2387 274.709C20.6615 260.695 4.6476 240.718 10.4589 229.954L16.2385 219.389C10.3271 230.138 26.341 250.115 52.0183 264.144C77.4955 278.142 103.033 280.768 108.944 270.02Z" fill="#D9D9D9" stroke="#251725" stroke-width="1.50076" stroke-miterlimit="10" stroke-linecap="round" stroke-linejoin="round"/>
</mask>
<g mask="url(#mask1_3085_9420)">
<path d="M0.324262 266.702L25.3404 220.941" stroke="#251725" stroke-width="1.50076" stroke-miterlimit="10" stroke-linecap="round" stroke-linejoin="round"/>
<path d="M16.0788 275.359L41.1108 229.498" stroke="#251725" stroke-width="1.50076" stroke-miterlimit="10" stroke-linecap="round" stroke-linejoin="round"/>
<path d="M31.8487 283.916L56.8648 238.155" stroke="#251725" stroke-width="1.50076" stroke-miterlimit="10" stroke-linecap="round" stroke-linejoin="round"/>
<path d="M47.6029 292.572L72.635 246.712" stroke="#251725" stroke-width="1.50076" stroke-miterlimit="10" stroke-linecap="round" stroke-linejoin="round"/>
<path d="M63.3731 301.131L88.3892 255.37" stroke="#251725" stroke-width="1.50076" stroke-miterlimit="10" stroke-linecap="round" stroke-linejoin="round"/>
<path d="M79.2275 309.803L104.259 263.942" stroke="#251725" stroke-width="1.50076" stroke-miterlimit="10" stroke-linecap="round" stroke-linejoin="round"/>
</g>
<path d="M108.949 270.022L103.17 280.584C97.2603 291.329 71.8212 288.716 46.2408 274.701C20.6603 260.687 4.64287 240.711 10.453 229.949L16.2314 219.388C10.3212 230.133 26.3386 250.109 52.0191 264.14C77.4996 278.138 103.039 280.768 108.949 270.022Z" stroke="#251725" stroke-width="1.50076" stroke-miterlimit="10" stroke-linecap="round" stroke-linejoin="round"/>
<path d="M209.98 1.47754L205.827 3.90876C202.889 5.63089 203.801 12.722 207.853 19.8131C211.905 26.9042 217.679 31.2601 220.617 29.538L224.77 27.1068C221.833 28.8289 216.059 24.4729 212.006 17.3819C207.954 10.2908 207.043 3.09836 209.98 1.47754Z" fill="#8055BB" stroke="#251725" stroke-width="1.50076" stroke-miterlimit="10" stroke-linecap="round" stroke-linejoin="round"/>
<path d="M222.846 11.101C218.794 4.0099 213.019 -0.346063 210.082 1.37606C207.144 3.09818 208.056 10.1893 212.108 17.2804C216.16 24.3715 221.934 28.7274 224.872 27.0053C227.809 25.3845 226.898 18.1921 222.846 11.101Z" fill="#DF87F1" stroke="#251725" stroke-width="1.50076" stroke-miterlimit="10" stroke-linecap="round" stroke-linejoin="round"/>
<mask id="mask2_3085_9420" style="mask-type:alpha" maskUnits="userSpaceOnUse" x="203" y="0" width="23" height="31">
<path d="M209.98 1.47754L205.827 3.90876C202.889 5.63089 203.801 12.722 207.853 19.8131C211.905 26.9042 217.679 31.2601 220.617 29.538L224.77 27.1068C221.833 28.8289 216.059 24.4729 212.006 17.3819C207.954 10.2908 207.043 3.09836 209.98 1.47754Z" fill="#D9D9D9" stroke="#251725" stroke-width="1.50076" stroke-miterlimit="10" stroke-linecap="round" stroke-linejoin="round"/>
</mask>
<g mask="url(#mask2_3085_9420)">
<path d="M211.703 31.8679L224.365 24.5742" stroke="#251725" stroke-width="1.50076" stroke-miterlimit="10" stroke-linecap="round" stroke-linejoin="round"/>
<path d="M208.562 26.3962L221.225 19.1025" stroke="#251725" stroke-width="1.50076" stroke-miterlimit="10" stroke-linecap="round" stroke-linejoin="round"/>
<path d="M205.321 20.9265L218.085 13.6328" stroke="#251725" stroke-width="1.50076" stroke-miterlimit="10" stroke-linecap="round" stroke-linejoin="round"/>
<path d="M202.18 15.4558L214.843 8.16211" stroke="#251725" stroke-width="1.50076" stroke-miterlimit="10" stroke-linecap="round" stroke-linejoin="round"/>
<path d="M199.04 9.98606L211.703 2.69238" stroke="#251725" stroke-width="1.50076" stroke-miterlimit="10" stroke-linecap="round" stroke-linejoin="round"/>
</g>
<path d="M209.98 1.47754L205.827 3.90876C202.889 5.63089 203.801 12.722 207.853 19.8131C211.905 26.9042 217.679 31.2601 220.617 29.538L224.77 27.1068C221.833 28.8289 216.059 24.4729 212.006 17.3819C207.954 10.2908 207.043 3.09836 209.98 1.47754Z" stroke="#251725" stroke-width="1.50076" stroke-miterlimit="10" stroke-linecap="round" stroke-linejoin="round"/>
<path d="M219.807 16.6726L218.895 13.4309L219.807 12.2153L219.199 11.5062L218.49 12.2153L217.173 7.85938L215.147 9.48017L216.464 14.444L214.742 16.3687L215.755 17.3817L216.869 15.9635L218.085 20.8259L223.352 15.3557L222.846 13.7348L219.807 16.6726Z" fill="#251725"/>
<path d="M14.2444 162.996L12.3197 166.339C10.9015 168.77 14.447 173.329 20.1199 176.57C25.7928 179.812 31.5669 180.623 32.8838 178.191L34.8086 174.848C33.3903 177.28 27.7175 176.469 22.0446 173.228C16.3717 169.986 12.8262 165.427 14.2444 162.996Z" fill="#DF87F1" stroke="#251725" stroke-width="1.50076" stroke-miterlimit="10" stroke-linecap="round" stroke-linejoin="round"/>
<path d="M27.0083 164.616C21.3354 161.375 15.5613 160.564 14.2444 162.996C12.8261 165.427 16.3717 169.985 22.0446 173.227C27.7174 176.469 33.4916 177.279 34.8085 174.848C36.2267 172.518 32.6812 167.959 27.0083 164.616Z" fill="url(#paint4_linear_3085_9420)" stroke="#251725" stroke-width="1.50076" stroke-miterlimit="10" stroke-linecap="round" stroke-linejoin="round"/>
<mask id="mask3_3085_9420" style="mask-type:alpha" maskUnits="userSpaceOnUse" x="11" y="162" width="25" height="19">
<path d="M14.2444 162.996L12.3197 166.339C10.9015 168.77 14.447 173.329 20.1199 176.57C25.7928 179.812 31.5669 180.623 32.8838 178.191L34.8086 174.848C33.3903 177.28 27.7175 176.469 22.0446 173.228C16.3717 169.986 12.8262 165.427 14.2444 162.996Z" fill="#D9D9D9" stroke="#251725" stroke-width="1.50076" stroke-miterlimit="10" stroke-linecap="round" stroke-linejoin="round"/>
</mask>
<g mask="url(#mask3_3085_9420)">
<path d="M27.6163 183.459L33.4918 173.329" stroke="#251725" stroke-width="1.50076" stroke-miterlimit="10" stroke-linecap="round" stroke-linejoin="round"/>
<path d="M21.7407 180.115L27.6162 169.985" stroke="#251725" stroke-width="1.50076" stroke-miterlimit="10" stroke-linecap="round" stroke-linejoin="round"/>
<path d="M15.8655 176.772L21.741 166.541" stroke="#251725" stroke-width="1.50076" stroke-miterlimit="10" stroke-linecap="round" stroke-linejoin="round"/>
<path d="M10.0912 173.43L15.9667 163.198" stroke="#251725" stroke-width="1.50076" stroke-miterlimit="10" stroke-linecap="round" stroke-linejoin="round"/>
</g>
<path d="M14.2444 162.995L12.3197 166.338C10.9015 168.769 14.447 173.328 20.1199 176.569C25.7927 179.811 31.5669 180.622 32.8838 178.19L34.8086 174.847C33.3903 177.279 27.7175 176.468 22.0446 173.227C16.3717 169.985 12.8262 165.426 14.2444 162.995Z" stroke="#251725" stroke-width="1.50076" stroke-miterlimit="10" stroke-linecap="round" stroke-linejoin="round"/>
<path d="M21.538 165.833C21.538 165.833 20.3224 166.745 21.4367 168.062C22.6523 169.48 23.9692 170.392 23.4627 172.012C23.4627 172.012 24.4758 171.607 24.3745 170.392C24.1719 169.379 22.551 167.96 22.1458 167.353C21.3354 166.542 21.538 165.833 21.538 165.833Z" fill="#251725"/>
<path d="M26.4005 165.833C26.4005 165.833 25.1849 166.745 26.5018 168.062C27.8187 169.48 29.2369 170.29 28.933 171.911C28.933 171.911 29.9461 171.506 29.6421 170.29C29.3382 169.277 27.6161 167.859 27.1096 167.251C26.2992 166.542 26.4005 165.833 26.4005 165.833Z" fill="#251725"/>
<path d="M23.4627 164.921C23.4627 164.921 21.9432 166.035 23.3614 167.656C24.881 169.378 26.7044 170.594 26.1979 172.62C26.1979 172.62 27.5148 172.012 27.2109 170.594C26.907 169.277 24.7796 167.555 24.1718 166.846C23.3614 165.833 23.4627 164.921 23.4627 164.921Z" fill="#251725"/>
<path d="M482.74 145.44C499.767 128.257 507.711 108.522 500.483 101.36C493.256 94.1989 473.594 102.323 456.568 119.506C439.541 136.689 431.597 156.425 438.825 163.586C446.052 170.748 465.714 162.623 482.74 145.44Z" fill="url(#paint5_linear_3085_9420)" stroke="#251725" stroke-width="1.50076" stroke-miterlimit="10" stroke-linecap="round" stroke-linejoin="round"/>
<path d="M458.377 121.265C473.159 106.366 489.72 98.9534 495.459 104.57C501.197 110.187 493.838 126.914 479.138 141.791C464.356 156.69 447.795 164.102 442.056 158.485C436.295 152.787 443.677 136.141 458.377 121.265Z" fill="url(#paint6_linear_3085_9420)" stroke="#251725" stroke-width="1.50076" stroke-miterlimit="10" stroke-linecap="round" stroke-linejoin="round"/>
<path d="M500.547 101.346L507.805 108.036C515.011 115.177 507.077 134.95 490.022 152.134C472.967 169.317 453.282 177.496 446.076 170.355L438.818 163.665C446.024 170.807 465.709 162.628 482.764 145.444C499.819 128.261 507.753 108.488 500.547 101.346Z" fill="url(#paint7_linear_3085_9420)"/>
<mask id="mask4_3085_9420" style="mask-type:alpha" maskUnits="userSpaceOnUse" x="438" y="100" width="74" height="74">
<path d="M500.537 101.345L507.796 108.037C515.003 115.182 507.074 134.957 490.024 152.14C472.974 169.323 453.293 177.499 446.085 170.354L438.826 163.662C446.034 170.807 465.715 162.63 482.765 145.447C499.815 128.264 507.744 108.489 500.537 101.345Z" fill="#D9D9D9" stroke="#251725" stroke-width="1.50076" stroke-miterlimit="10" stroke-linecap="round" stroke-linejoin="round"/>
</mask>
<g mask="url(#mask4_3085_9420)">
<path d="M472.953 187.206L442.192 156.704" stroke="#251725" stroke-width="1.50076" stroke-miterlimit="10" stroke-linecap="round" stroke-linejoin="round"/>
<path d="M483.452 176.542L452.631 146.145" stroke="#251725" stroke-width="1.50076" stroke-miterlimit="10" stroke-linecap="round" stroke-linejoin="round"/>
<path d="M493.972 165.961L463.13 135.481" stroke="#251725" stroke-width="1.50076" stroke-miterlimit="10" stroke-linecap="round" stroke-linejoin="round"/>
<path d="M504.411 155.399L473.65 124.897" stroke="#251725" stroke-width="1.50076" stroke-miterlimit="10" stroke-linecap="round" stroke-linejoin="round"/>
<path d="M514.932 144.818L484.171 114.316" stroke="#251725" stroke-width="1.50076" stroke-miterlimit="10" stroke-linecap="round" stroke-linejoin="round"/>
<path d="M525.43 134.154L494.692 103.734" stroke="#251725" stroke-width="1.50076" stroke-miterlimit="10" stroke-linecap="round" stroke-linejoin="round"/>
</g>
<path d="M500.547 101.346L507.805 108.036C515.011 115.177 507.077 134.95 490.022 152.134C472.967 169.317 453.282 177.496 446.076 170.355L438.818 163.665C446.024 170.807 465.709 162.628 482.764 145.444C499.819 128.261 507.753 108.488 500.547 101.346Z" stroke="#251725" stroke-width="1.50076" stroke-miterlimit="10" stroke-linecap="round" stroke-linejoin="round"/>
<path d="M478.948 125.985C477.665 126.422 476.471 127.186 475.447 128.254C474.12 129.493 472.636 130.161 471.546 130.02L470.909 129.932C469.818 129.791 469.329 128.961 469.589 127.664L469.678 127.026C469.96 125.81 470.687 124.298 471.955 123.163C473.543 121.591 474.752 119.596 474.618 118.143C474.53 116.853 473.351 116.387 471.682 117.017C469.242 118.034 466.594 120.86 465.986 123.128C465.644 124.448 466.074 125.382 467.061 125.463C467.965 125.566 468.41 126.233 468.15 127.531L467.943 128.376C467.683 129.673 466.711 131.253 465.406 132.573L464.642 133.307C463.314 134.546 461.875 135.377 460.948 135.192C460.207 135.044 459.228 135.311 458.115 136.053C456.172 137.284 454.11 139.687 452.931 142.111C450.75 146.649 452.099 149.347 455.748 147.3C457.795 146.127 459.998 143.599 461.318 141.048C461.733 140.321 461.986 139.639 462.097 139.083C462.535 137.474 463.566 135.791 464.953 134.449L465.858 133.588C467.163 132.268 468.646 131.601 469.737 131.741L470.456 131.807C471.546 131.948 472.08 132.941 471.887 134.483C471.857 135.017 471.849 135.632 471.983 136.121C472.472 137.915 474.133 138.863 476.373 138.077C480.548 136.674 483.982 131.268 483.13 127.821C482.886 125.961 481.024 125.242 478.948 125.985Z" fill="#251725"/>
<path d="M121.595 177.98L120.318 177.257C122.615 169.428 121.565 160.636 116.884 152.638C108.118 137.719 88.4898 129.368 71.5007 134.192C65.7431 135.837 60.9358 138.83 57.2915 142.674L55.618 141.781L51.875 150.928C51.8324 151.027 51.7474 151.226 51.7048 151.325L51.4921 151.822C48.4864 159.523 48.9553 168.712 53.8347 177.618C64.2033 196.337 88.3838 203.524 105.869 194.389C109.669 192.375 112.761 189.822 115.242 186.773L115.313 186.745C116.036 185.879 116.703 184.873 117.298 183.894L121.595 177.98Z" fill="url(#paint8_linear_3085_9420)" stroke="#251725" stroke-width="1.50076" stroke-miterlimit="10" stroke-linecap="round" stroke-linejoin="round"/>
<mask id="mask5_3085_9420" style="mask-type:alpha" maskUnits="userSpaceOnUse" x="48" y="132" width="75" height="68">
<path d="M121.595 177.976L120.319 177.253C122.616 169.425 121.567 160.633 116.886 152.635C108.122 137.719 88.4936 129.37 71.5032 134.195C65.7452 135.841 60.9375 138.834 57.2926 142.678L55.6191 141.785L51.875 150.933C51.8324 151.032 51.7473 151.231 51.7048 151.33L51.492 151.826C48.4854 159.527 48.9534 168.716 53.8321 177.621C64.1993 196.338 88.38 203.523 105.867 194.387C109.668 192.372 112.759 189.819 115.241 186.77L115.312 186.741C116.035 185.876 116.702 184.869 117.298 183.89L121.595 177.976Z" fill="white" stroke="#251725" stroke-width="1.50076" stroke-miterlimit="10" stroke-linecap="round" stroke-linejoin="round"/>
</mask>
<g mask="url(#mask5_3085_9420)">
<path d="M99.9921 206.446L113.518 174.635" stroke="#251725" stroke-width="1.50076" stroke-miterlimit="10" stroke-linecap="round" stroke-linejoin="round"/>
<path d="M89.0719 201.767L102.526 169.984" stroke="#251725" stroke-width="1.50076" stroke-miterlimit="10" stroke-linecap="round" stroke-linejoin="round"/>
<path d="M78.1798 197.158L91.6344 165.376" stroke="#251725" stroke-width="1.50076" stroke-miterlimit="10" stroke-linecap="round" stroke-linejoin="round"/>
<path d="M67.1886 192.508L80.7141 160.697" stroke="#251725" stroke-width="1.50076" stroke-miterlimit="10" stroke-linecap="round" stroke-linejoin="round"/>
<path d="M56.2682 187.829L69.7511 156.118" stroke="#251725" stroke-width="1.50076" stroke-miterlimit="10" stroke-linecap="round" stroke-linejoin="round"/>
<path d="M45.3053 183.25L58.8308 151.439" stroke="#251725" stroke-width="1.50076" stroke-miterlimit="10" stroke-linecap="round" stroke-linejoin="round"/>
</g>
<path d="M121.024 146.128C130.116 161.656 125.835 180.561 109.782 188.958C91.9002 198.334 67.0532 190.919 56.4435 171.803C46.0181 152.943 55.1207 132.932 74.5064 127.314C91.9635 122.221 112.017 130.813 121.024 146.128Z" fill="url(#paint9_linear_3085_9420)" stroke="#251725" stroke-width="1.50076" stroke-miterlimit="10" stroke-linecap="round" stroke-linejoin="round"/>
<path d="M116.699 147.859C124.443 161.047 120.545 177.002 106.889 183.782C91.942 191.243 71.4915 184.949 62.754 169.279C54.1442 153.723 61.361 137.016 77.3574 132.178C91.9215 127.667 109.011 134.813 116.699 147.859Z" fill="url(#paint10_linear_3085_9420)" stroke="#251725" stroke-width="1.50076" stroke-miterlimit="10" stroke-linecap="round" stroke-linejoin="round"/>
<path d="M64.8369 149.608C65.4324 147.807 66.2264 146.091 67.2189 144.46" stroke="#251725" stroke-width="1.50076" stroke-miterlimit="10" stroke-linecap="round" stroke-linejoin="round"/>
<path d="M63.9156 156.148C63.9297 155.155 63.9437 154.162 64.0571 153.212" stroke="#251725" stroke-width="1.50076" stroke-miterlimit="10" stroke-linecap="round" stroke-linejoin="round"/>
<path d="M107.056 159.121C106.22 157.646 105.014 156.483 103.397 155.732C101.851 154.952 100.121 154.739 98.3201 154.966C99.5255 154.073 100.234 152.966 100.447 151.648C100.66 150.329 100.333 148.896 99.4681 147.351C98.305 145.266 96.6031 143.891 94.4899 143.338C92.9866 142.87 91.3416 142.87 89.5264 143.267L87.4271 139.665L84.1513 140.729L86.1229 144.218L82.45 145.523L80.4783 142.034L77.0607 143.155L79.0606 146.714L74.0831 148.459L89.5864 175.899L94.3937 173.729L96.1526 176.891L99.4284 175.416L97.6979 172.325L101.257 170.736L102.988 173.827L106.122 172.409L104.292 169.275C105.994 168.183 107.227 166.949 107.724 165.516C108.589 163.361 108.347 161.319 107.056 159.121ZM93.654 150.911C94.732 152.783 94.1365 154.173 91.8391 155.009L87.4146 156.698L84.1239 150.94L88.5059 149.351C90.9025 148.557 92.576 149.039 93.654 150.911ZM98.1794 165.305L93.4854 167.347L90.0812 161.306L94.8319 159.405C96.0373 158.923 97.0725 158.838 98.0086 159.122C98.9446 159.405 99.6821 160.015 100.221 160.951C101.228 162.851 100.59 164.34 98.1794 165.305Z" fill="#251725"/>
<path d="M238.622 50.5264L238.922 199.852L368.587 275.19L368.287 125.864L238.622 50.5264Z" fill="white" stroke="#251725" stroke-width="1.50076" stroke-miterlimit="10" stroke-linecap="round" stroke-linejoin="round"/>
<path d="M368.287 125.865L368.587 275.19L433.12 237.821L444.076 231.518L443.775 82.3428L368.287 125.865Z" fill="url(#paint11_linear_3085_9420)" stroke="#251725" stroke-width="1.50076" stroke-miterlimit="10" stroke-linecap="round" stroke-linejoin="round"/>
<path d="M238.622 50.5269L368.287 125.865L443.775 82.343L314.11 7.00488L238.622 50.5269Z" fill="white" stroke="#251725" stroke-width="1.50076" stroke-miterlimit="10" stroke-linecap="round" stroke-linejoin="round"/>
<path d="M314.11 12.1084L247.626 50.5278L250.628 52.4788L314.26 15.7102L314.11 12.1084Z" fill="white" stroke="#251725" stroke-width="1.50076" stroke-miterlimit="10" stroke-linecap="round" stroke-linejoin="round"/>
<path d="M314.26 15.7102L431.769 83.9948L434.771 82.3439L314.11 12.1084L314.26 15.7102Z" fill="#AF56FF" stroke="#251725" stroke-width="1.50076" stroke-miterlimit="10" stroke-linecap="round" stroke-linejoin="round"/>
<path d="M431.769 83.9936L368.287 120.762L250.628 52.4776L314.26 15.709L431.769 83.9936Z" fill="white" stroke="#251725" stroke-width="1.50076" stroke-miterlimit="10" stroke-linecap="round" stroke-linejoin="round"/>
<path d="M298.352 61.0347L288.597 55.4819L288.747 49.6289H285.596L279.743 55.4819L289.497 61.0347H298.352Z" fill="#8055BB"/>
<path d="M308.257 46.4775V55.332L298.352 61.0349L298.502 52.1804L308.257 46.4775Z" fill="white" stroke="#251725" stroke-width="1.50076" stroke-miterlimit="10" stroke-linecap="round" stroke-linejoin="round"/>
<path d="M298.502 52.1817L298.352 61.0362L288.597 55.4834L288.747 46.6289L298.502 52.1817Z" fill="#AF56FF" stroke="#251725" stroke-width="1.50076" stroke-miterlimit="10" stroke-linecap="round" stroke-linejoin="round"/>
<path d="M308.257 46.4773L298.502 52.1802L288.747 46.6274L298.502 40.7744L308.257 46.4773Z" fill="white" stroke="#251725" stroke-width="1.50076" stroke-miterlimit="10" stroke-linecap="round" stroke-linejoin="round"/>
<path d="M296.851 53.9794L292.499 51.5782L290.248 50.2275" stroke="#251725" stroke-width="1.50076" stroke-miterlimit="10" stroke-linecap="round" stroke-linejoin="round"/>
<path d="M296.851 56.9814L292.499 54.4301L290.248 53.2295" stroke="#251725" stroke-width="1.50076" stroke-miterlimit="10" stroke-linecap="round" stroke-linejoin="round"/>
<path d="M300.003 53.9794L304.505 51.5782L306.606 50.2275" stroke="#8055BB" stroke-width="1.50076" stroke-miterlimit="10" stroke-linecap="round" stroke-linejoin="round"/>
<path d="M300.003 56.9814L304.505 54.4301L306.606 53.2295" stroke="#8055BB" stroke-width="1.50076" stroke-miterlimit="10" stroke-linecap="round" stroke-linejoin="round"/>
<path d="M325.216 45.2775L315.461 39.5746V33.8718L312.459 33.7217L306.606 39.5746L316.361 45.2775H325.216Z" fill="#8055BB"/>
<path d="M335.121 30.5693L334.97 39.4238L325.215 45.2768V36.2722L335.121 30.5693Z" fill="white" stroke="#251725" stroke-width="1.50076" stroke-miterlimit="10" stroke-linecap="round" stroke-linejoin="round"/>
<path d="M325.216 36.2735V45.2781L315.461 39.5752V30.7207L325.216 36.2735Z" fill="#AF56FF" stroke="#251725" stroke-width="1.50076" stroke-miterlimit="10" stroke-linecap="round" stroke-linejoin="round"/>
<path d="M335.121 30.5701L325.216 36.2729L315.461 30.7201L325.366 24.8672L335.121 30.5701Z" fill="white" stroke="#251725" stroke-width="1.50076" stroke-miterlimit="10" stroke-linecap="round" stroke-linejoin="round"/>
<path d="M323.565 38.2226L319.213 35.6713L317.111 34.4707" stroke="#251725" stroke-width="1.50076" stroke-miterlimit="10" stroke-linecap="round" stroke-linejoin="round"/>
<path d="M323.565 41.0742L319.213 38.5229L317.111 37.3223" stroke="#251725" stroke-width="1.50076" stroke-miterlimit="10" stroke-linecap="round" stroke-linejoin="round"/>
<path d="M326.866 38.2226L331.219 35.6713L333.32 34.4707" stroke="#8055BB" stroke-width="1.50076" stroke-miterlimit="10" stroke-linecap="round" stroke-linejoin="round"/>
<path d="M326.866 41.0742L331.219 38.5229L333.32 37.3223" stroke="#8055BB" stroke-width="1.50076" stroke-miterlimit="10" stroke-linecap="round" stroke-linejoin="round"/>
<path d="M332.569 80.8462L322.814 75.2934L322.964 69.4404H319.813L313.96 75.2934L323.715 80.8462H332.569Z" fill="#8055BB"/>
<path d="M342.474 66.1406V75.1452L332.569 80.8481L332.719 71.9936L342.474 66.1406Z" fill="white" stroke="#251725" stroke-width="1.50076" stroke-miterlimit="10" stroke-linecap="round" stroke-linejoin="round"/>
<path d="M332.719 71.9939L332.569 80.8484L322.814 75.2956L322.964 66.291L332.719 71.9939Z" fill="#AF56FF" stroke="#251725" stroke-width="1.50076" stroke-miterlimit="10" stroke-linecap="round" stroke-linejoin="round"/>
<path d="M342.474 66.1417L332.719 71.9946L322.964 66.2918L332.719 60.5889L342.474 66.1417Z" fill="white" stroke="#251725" stroke-width="1.50076" stroke-miterlimit="10" stroke-linecap="round" stroke-linejoin="round"/>
<path d="M331.069 73.7919L326.716 71.2406L324.615 70.04" stroke="#251725" stroke-width="1.50076" stroke-miterlimit="10" stroke-linecap="round" stroke-linejoin="round"/>
<path d="M331.069 76.6438L326.716 74.2426L324.615 73.042" stroke="#251725" stroke-width="1.50076" stroke-miterlimit="10" stroke-linecap="round" stroke-linejoin="round"/>
<path d="M334.37 73.7919L338.723 71.2406L340.824 70.04" stroke="#8055BB" stroke-width="1.50076" stroke-miterlimit="10" stroke-linecap="round" stroke-linejoin="round"/>
<path d="M334.37 76.6438L338.723 74.2426L340.824 73.042" stroke="#8055BB" stroke-width="1.50076" stroke-miterlimit="10" stroke-linecap="round" stroke-linejoin="round"/>
<path d="M359.433 64.937L349.678 59.3842V53.5312H346.677L340.824 59.3842L350.579 64.937H359.433Z" fill="#8055BB"/>
<path d="M369.338 50.2305L369.188 59.235L359.433 64.9379V56.0834L369.338 50.2305Z" fill="white" stroke="#251725" stroke-width="1.50076" stroke-miterlimit="10" stroke-linecap="round" stroke-linejoin="round"/>
<path d="M359.433 56.0808V64.9353L349.678 59.3825V50.3779L359.433 56.0808Z" fill="#AF56FF" stroke="#251725" stroke-width="1.50076" stroke-miterlimit="10" stroke-linecap="round" stroke-linejoin="round"/>
<path d="M369.338 50.2286L359.433 56.0815L349.678 50.3787L359.583 44.6758L369.338 50.2286Z" fill="white" stroke="#251725" stroke-width="1.50076" stroke-miterlimit="10" stroke-linecap="round" stroke-linejoin="round"/>
<path d="M357.782 57.8818L353.43 55.3305L351.329 54.1299" stroke="#251725" stroke-width="1.50076" stroke-miterlimit="10" stroke-linecap="round" stroke-linejoin="round"/>
<path d="M357.782 60.8837L353.43 58.3324L351.329 57.1318" stroke="#251725" stroke-width="1.50076" stroke-miterlimit="10" stroke-linecap="round" stroke-linejoin="round"/>
<path d="M361.084 57.8818L365.436 55.3305L367.537 54.1299" stroke="#8055BB" stroke-width="1.50076" stroke-miterlimit="10" stroke-linecap="round" stroke-linejoin="round"/>
<path d="M361.084 60.8837L365.436 58.3324L367.537 57.1318" stroke="#8055BB" stroke-width="1.50076" stroke-miterlimit="10" stroke-linecap="round" stroke-linejoin="round"/>
<path d="M366.787 100.655L357.032 94.9519L357.182 89.249H354.03L348.177 95.102L357.932 100.655H366.787Z" fill="#8055BB"/>
<path d="M376.692 85.9482V94.9528L366.787 100.656L366.937 91.6512L376.692 85.9482Z" fill="white" stroke="#251725" stroke-width="1.50076" stroke-miterlimit="10" stroke-linecap="round" stroke-linejoin="round"/>
<path d="M366.937 91.6524L366.787 100.657L357.032 94.9541L357.182 86.0996L366.937 91.6524Z" fill="#AF56FF" stroke="#251725" stroke-width="1.50076" stroke-miterlimit="10" stroke-linecap="round" stroke-linejoin="round"/>
<path d="M376.692 85.9493L366.937 91.6522L357.182 86.0994L366.937 80.3965L376.692 85.9493Z" fill="white" stroke="#251725" stroke-width="1.50076" stroke-miterlimit="10" stroke-linecap="round" stroke-linejoin="round"/>
<path d="M365.286 93.6005L360.934 91.0493L358.833 89.8486" stroke="#251725" stroke-width="1.50076" stroke-miterlimit="10" stroke-linecap="round" stroke-linejoin="round"/>
<path d="M365.286 96.4521L360.934 93.9008L358.833 92.7002" stroke="#251725" stroke-width="1.50076" stroke-miterlimit="10" stroke-linecap="round" stroke-linejoin="round"/>
<path d="M368.588 93.6005L372.94 91.0493L375.041 89.8486" stroke="#8055BB" stroke-width="1.50076" stroke-miterlimit="10" stroke-linecap="round" stroke-linejoin="round"/>
<path d="M368.588 96.4521L372.94 93.9008L375.041 92.7002" stroke="#8055BB" stroke-width="1.50076" stroke-miterlimit="10" stroke-linecap="round" stroke-linejoin="round"/>
<path d="M393.65 84.7476L383.895 79.1948V73.3418H380.894L375.041 79.1948L384.796 84.7476H393.65Z" fill="#8055BB"/>
<path d="M403.555 70.04L403.405 79.0446L393.65 84.7475V75.893L403.555 70.04Z" fill="white" stroke="#251725" stroke-width="1.50076" stroke-miterlimit="10" stroke-linecap="round" stroke-linejoin="round"/>
<path d="M393.65 75.8924V84.7468L383.895 79.194V70.1895L393.65 75.8924Z" fill="#AF56FF" stroke="#251725" stroke-width="1.50076" stroke-miterlimit="10" stroke-linecap="round" stroke-linejoin="round"/>
<path d="M403.555 70.0392L393.65 75.8921L383.895 70.1892L393.8 64.4863L403.555 70.0392Z" fill="white" stroke="#251725" stroke-width="1.50076" stroke-miterlimit="10" stroke-linecap="round" stroke-linejoin="round"/>
<path d="M391.999 77.6914L387.647 75.1401L385.546 73.9395" stroke="#251725" stroke-width="1.50076" stroke-miterlimit="10" stroke-linecap="round" stroke-linejoin="round"/>
<path d="M391.999 80.5433L387.647 78.142L385.546 76.9414" stroke="#251725" stroke-width="1.50076" stroke-miterlimit="10" stroke-linecap="round" stroke-linejoin="round"/>
<path d="M395.301 77.6914L399.653 75.1401L401.754 73.9395" stroke="#8055BB" stroke-width="1.50076" stroke-miterlimit="10" stroke-linecap="round" stroke-linejoin="round"/>
<path d="M395.301 80.5433L399.653 78.142L401.754 76.9414" stroke="#8055BB" stroke-width="1.50076" stroke-miterlimit="10" stroke-linecap="round" stroke-linejoin="round"/>
<path d="M248.527 64.634V76.7902L242.974 73.6386V61.4824L248.527 64.634Z" fill="#251725"/>
<path d="M255.88 68.9853V80.9914L250.328 77.8398V65.6836L255.88 68.9853Z" fill="#251725"/>
<path d="M263.234 73.1874V85.3435L257.681 82.0419V69.8857L263.234 73.1874Z" fill="#251725"/>
<path d="M272.839 78.8915V91.0477L267.286 87.746V75.5898L272.839 78.8915Z" fill="#251725"/>
<path d="M280.193 83.094V95.2502L274.64 91.9485V79.9424L280.193 83.094Z" fill="#251725"/>
<path d="M287.547 87.2961V99.4523L281.994 96.3007V84.1445L287.547 87.2961Z" fill="#251725"/>
<path d="M297.301 93.1484L297.151 105.305L291.599 102.003V89.8467L297.301 93.1484Z" fill="#251725"/>
<path d="M304.655 97.3505L304.505 109.507L298.952 106.205V94.0488L304.655 97.3505Z" fill="#251725"/>
<path d="M312.009 101.552L311.859 113.708L306.306 110.406V98.25L312.009 101.552Z" fill="#251725"/>
<path d="M248.527 86.6955V98.8517L242.974 95.55V83.5439L248.527 86.6955Z" fill="#251725"/>
<path d="M255.88 90.8977V103.054L250.328 99.9023V87.7461L255.88 90.8977Z" fill="#251725"/>
<path d="M263.234 95.0989V107.255L257.681 104.103V91.9473L263.234 95.0989Z" fill="#251725"/>
<path d="M272.839 100.953V113.109L267.286 109.808V97.6514L272.839 100.953Z" fill="#251725"/>
<path d="M280.193 105.155V117.311L274.64 114.01V101.854L280.193 105.155Z" fill="#251725"/>
<path d="M287.547 109.356V121.512L281.994 118.211V106.055L287.547 109.356Z" fill="#251725"/>
<path d="M297.301 115.21L297.151 127.366L291.599 124.064V111.908L297.301 115.21Z" fill="#251725"/>
<path d="M304.655 119.412L304.505 131.568L298.952 128.267V116.11L304.655 119.412Z" fill="#251725"/>
<path d="M312.009 123.613L311.859 135.769L306.306 132.468V120.312L312.009 123.613Z" fill="#251725"/>
<path d="M248.527 108.757V120.913L242.974 117.611V105.455L248.527 108.757Z" fill="#251725"/>
<path d="M255.88 112.959V125.115L250.328 121.814V109.808L255.88 112.959Z" fill="#251725"/>
<path d="M263.234 117.161V129.318L257.681 126.166V114.01L263.234 117.161Z" fill="#251725"/>
<path d="M272.839 123.013V135.169L267.286 131.867V119.711L272.839 123.013Z" fill="#251725"/>
<path d="M280.193 127.214V139.37L274.64 136.068V123.912L280.193 127.214Z" fill="#251725"/>
<path d="M287.547 131.416V143.572L281.994 140.27V128.114L287.547 131.416Z" fill="#251725"/>
<path d="M297.301 137.27L297.151 149.427L291.598 146.125V133.969L297.301 137.27Z" fill="#251725"/>
<path d="M304.655 141.473L304.505 153.629L298.952 150.327V138.171L304.655 141.473Z" fill="#251725"/>
<path d="M312.009 145.674L311.859 157.83L306.306 154.528V142.372L312.009 145.674Z" fill="#251725"/>
<path d="M248.677 140.721V152.877L243.124 149.725V137.569L248.677 140.721Z" fill="#251725"/>
<path d="M256.031 145.073V157.079L250.478 153.928V141.771L256.031 145.073Z" fill="#251725"/>
<path d="M263.384 149.274V161.43L257.832 158.129V145.973L263.384 149.274Z" fill="#251725"/>
<path d="M272.989 154.978V167.135L267.436 163.833V151.677L272.989 154.978Z" fill="#251725"/>
<path d="M280.343 159.182V171.338L274.79 168.036V156.03L280.343 159.182Z" fill="#251725"/>
<path d="M287.697 163.383V175.539L282.144 172.388V160.231L287.697 163.383Z" fill="#251725"/>
<path d="M297.451 169.237L297.301 181.393L291.749 178.092V165.936L297.451 169.237Z" fill="#251725"/>
<path d="M304.805 173.439L304.655 185.596L299.102 182.294V170.138L304.805 173.439Z" fill="#251725"/>
<path d="M312.159 177.641L312.009 189.797L306.456 186.495V174.339L312.159 177.641Z" fill="#251725"/>
<path d="M248.677 162.784V174.941L243.124 171.639V159.633L248.677 162.784Z" fill="#251725"/>
<path d="M256.031 166.987V179.143L250.478 175.991V163.835L256.031 166.987Z" fill="#251725"/>
<path d="M263.384 171.188V183.344L257.832 180.192V168.036L263.384 171.188Z" fill="#251725"/>
<path d="M272.989 177.042V189.198L267.436 185.896V173.74L272.989 177.042Z" fill="#251725"/>
<path d="M280.343 181.244V193.4L274.79 190.099V177.942L280.343 181.244Z" fill="#251725"/>
<path d="M287.697 185.445V197.601L282.144 194.3V182.144L287.697 185.445Z" fill="#251725"/>
<path d="M297.452 191.3L297.301 203.456L291.749 200.154V187.998L297.452 191.3Z" fill="#251725"/>
<path d="M304.805 195.502L304.655 207.658L299.102 204.356V192.2L304.805 195.502Z" fill="#251725"/>
<path d="M312.159 199.703L312.009 211.859L306.456 208.557V196.401L312.159 199.703Z" fill="#251725"/>
<path d="M248.677 184.845V197.001L243.124 193.699V181.543L248.677 184.845Z" fill="#251725"/>
<path d="M256.03 189.047V201.203L250.478 197.902V185.896L256.03 189.047Z" fill="#251725"/>
<path d="M263.384 193.249V205.405L257.831 202.254V190.098L263.384 193.249Z" fill="#251725"/>
<path d="M272.989 199.102V211.259L267.436 207.957V195.801L272.989 199.102Z" fill="#251725"/>
<path d="M280.343 203.305V215.461L274.79 212.159V200.003L280.343 203.305Z" fill="#251725"/>
<path d="M287.697 207.506V219.662L282.144 216.36V204.204L287.697 207.506Z" fill="#251725"/>
<path d="M297.451 213.359L297.301 225.515L291.749 222.214V210.058L297.451 213.359Z" fill="#251725"/>
<path d="M304.805 217.561L304.655 229.718L299.102 226.416V214.26L304.805 217.561Z" fill="#251725"/>
<path d="M312.159 221.763L312.009 233.919L306.456 230.617V218.461L312.159 221.763Z" fill="#251725"/>
<path d="M419.313 115.359V127.515L425.016 124.214V112.058L419.313 115.359Z" fill="#8055BB"/>
<path d="M411.959 119.561V131.718L417.662 128.416V116.26L411.959 119.561Z" fill="#8055BB"/>
<path d="M404.606 123.764V135.92L410.309 132.768V120.612L404.606 123.764Z" fill="#8055BB"/>
<path d="M397.252 127.966V140.122L402.955 136.971V124.814L397.252 127.966Z" fill="#8055BB"/>
<path d="M389.898 132.167V144.323L395.601 141.172V129.016L389.898 132.167Z" fill="#8055BB"/>
<path d="M419.313 130.217V142.373L425.016 139.071V126.915L419.313 130.217Z" fill="#8055BB"/>
<path d="M411.959 134.419V146.575L417.662 143.424V131.268L411.959 134.419Z" fill="#8055BB"/>
<path d="M404.606 138.621V150.777L410.309 147.626V135.47L404.606 138.621Z" fill="#8055BB"/>
<path d="M397.252 142.823V154.98L402.955 151.828V139.672L397.252 142.823Z" fill="#8055BB"/>
<path d="M389.898 147.175V159.331L395.601 156.029V143.873L389.898 147.175Z" fill="#8055BB"/>
<path d="M419.313 145.076V157.233L425.016 154.081V141.925L419.313 145.076Z" fill="#8055BB"/>
<path d="M411.959 149.279V161.435L417.662 158.283V146.127L411.959 149.279Z" fill="#8055BB"/>
<path d="M404.606 153.48V165.636L410.309 162.484V150.328L404.606 153.48Z" fill="#8055BB"/>
<path d="M397.252 157.833V169.989L402.955 166.687V154.531L397.252 157.833Z" fill="#8055BB"/>
<path d="M389.898 162.035V174.191L395.601 170.89V158.733L389.898 162.035Z" fill="#8055BB"/>
<path d="M419.313 159.932V172.088L425.016 168.936V156.78L419.313 159.932Z" fill="#8055BB"/>
<path d="M411.959 164.284V176.29L417.662 173.139V160.982L411.959 164.284Z" fill="#8055BB"/>
<path d="M404.606 168.485V180.641L410.309 177.34V165.184L404.606 168.485Z" fill="#8055BB"/>
<path d="M397.252 172.688V184.845L402.955 181.543V169.387L397.252 172.688Z" fill="#8055BB"/>
<path d="M389.898 176.891V189.047L395.601 185.745V173.589L389.898 176.891Z" fill="#8055BB"/>
<path d="M377.592 212.158L377.742 231.968L438.673 196.7L438.523 177.04L377.592 212.158Z" fill="white" stroke="#251725" stroke-width="1.50076" stroke-miterlimit="10" stroke-linecap="round" stroke-linejoin="round"/>
<path d="M352.229 256.732L360.183 261.384V129.167L352.229 124.515V256.732Z" fill="#251725"/>
<path d="M349.228 122.713L341.124 118.211V250.278L349.078 254.93L349.228 122.713Z" fill="#251725"/>
<path d="M338.122 116.41L330.168 111.758V243.975L338.122 248.477V116.41Z" fill="#251725"/>
<path d="M319.062 237.522L327.016 242.024L327.166 109.957L319.062 105.305V237.522Z" fill="#251725"/>
<path d="M418.713 243.975V246.226L433.12 237.822L431.169 236.771L418.713 243.975Z" fill="#AF56FF"/>
<path d="M431.169 213.507V236.768L433.12 237.819V212.456L431.169 213.507Z" fill="#AF56FF"/>
<path d="M418.563 220.71L418.713 243.972V246.223L433.12 237.819V212.456L431.169 213.507L418.563 220.71Z" stroke="#251725" stroke-width="1.50076" stroke-miterlimit="10" stroke-linecap="round" stroke-linejoin="round"/>
<path d="M400.554 254.478V256.729L414.961 248.475L413.01 247.274L400.554 254.478Z" fill="#AF56FF"/>
<path d="M413.01 224.013V247.275L414.961 248.476V222.963L413.01 224.013Z" fill="#AF56FF"/>
<path d="M400.404 231.217L400.554 254.479V256.73L414.961 248.476V222.963L413.01 224.013L400.404 231.217Z" stroke="#251725" stroke-width="1.50076" stroke-miterlimit="10" stroke-linecap="round" stroke-linejoin="round"/>
<path d="M405.956 228.066V251.478" stroke="#251725" stroke-width="1.50076" stroke-miterlimit="10" stroke-linecap="round" stroke-linejoin="round"/>
<path d="M382.244 264.986V267.237L396.802 258.983L394.851 257.782L382.244 264.986Z" fill="#AF56FF"/>
<path d="M394.85 234.67V257.782L396.801 258.983V233.47L394.85 234.67Z" fill="#AF56FF"/>
<path d="M382.244 241.724V264.986V267.237L396.802 258.983V233.47L394.851 234.67L382.244 241.724Z" stroke="#251725" stroke-width="1.50076" stroke-miterlimit="10" stroke-linecap="round" stroke-linejoin="round"/>
<path d="M387.797 238.722V262.134" stroke="#8055BB" stroke-width="1.50076" stroke-miterlimit="10" stroke-linecap="round" stroke-linejoin="round"/>
<path d="M171.538 272.189L195.7 258.232L219.862 272.189L256.781 250.878L170.637 201.053L109.556 236.321L171.538 272.189Z" fill="white" stroke="#251725" stroke-width="1.50076" stroke-miterlimit="10" stroke-linecap="round" stroke-linejoin="round"/>
<path d="M171.538 133.218L195.7 119.261L219.862 133.218L256.781 111.908L170.637 62.2324L109.556 97.3502L171.538 133.218Z" fill="white" stroke="#251725" stroke-width="1.50076" stroke-miterlimit="10" stroke-linecap="round" stroke-linejoin="round"/>
<path d="M171.838 127.966L194.95 114.609L218.061 127.966L253.93 107.255L171.388 59.5312L112.408 93.5985L171.838 127.966Z" fill="white" stroke="#251725" stroke-width="1.50076" stroke-miterlimit="10" stroke-linecap="round" stroke-linejoin="round"/>
<path d="M171.387 64.0342V67.0357L122.763 95.0999L120.212 93.5991L171.387 64.0342Z" stroke="#251725" stroke-width="1.50076" stroke-miterlimit="10" stroke-linecap="round" stroke-linejoin="round"/>
<path d="M246.125 107.256L243.574 108.607L171.387 67.0357V64.0342L246.125 107.256Z" fill="#AF56FF" stroke="#251725" stroke-width="1.50076" stroke-miterlimit="10" stroke-linecap="round" stroke-linejoin="round"/>
<path d="M243.574 108.605L218.061 123.313L194.95 109.956L171.838 123.313L122.763 95.0984L171.388 67.0342L243.574 108.605Z" stroke="#251725" stroke-width="1.50076" stroke-miterlimit="10" stroke-linecap="round" stroke-linejoin="round"/>
<path d="M195.7 119.261V258.231L171.538 272.188V133.218L195.7 119.261Z" fill="url(#paint12_linear_3085_9420)" stroke="#251725" stroke-width="1.50076" stroke-miterlimit="10" stroke-linecap="round" stroke-linejoin="round"/>
<path d="M171.538 133.218L109.556 97.3496V236.32L171.538 272.188V133.218Z" fill="white" stroke="#251725" stroke-width="1.50076" stroke-miterlimit="10" stroke-linecap="round" stroke-linejoin="round"/>
<path d="M122.012 130.666L119.311 129.016V135.169L122.012 136.67V130.666Z" fill="#251725"/>
<path d="M122.012 142.973L119.311 141.322V147.475L122.012 148.976V142.973Z" fill="#251725"/>
<path d="M122.012 155.279L119.311 153.628V159.781L122.012 161.282V155.279Z" fill="#251725"/>
<path d="M122.012 167.586L119.311 166.085V172.088L122.012 173.589V167.586Z" fill="#251725"/>
<path d="M122.012 179.891L119.311 178.391V184.394L122.012 185.894V179.891Z" fill="#251725"/>
<path d="M122.012 192.197L119.311 190.696V196.699L122.012 198.2V192.197Z" fill="#251725"/>
<path d="M122.012 204.504L119.311 203.003V209.006L122.012 210.507V204.504Z" fill="#251725"/>
<path d="M130.117 135.32L127.415 133.819V139.822L130.117 141.323V135.32Z" fill="#251725"/>
<path d="M130.117 147.626L127.415 146.125V152.128L130.117 153.629V147.626Z" fill="#251725"/>
<path d="M130.117 159.932L127.415 158.432V164.435L130.117 165.935V159.932Z" fill="#251725"/>
<path d="M130.117 172.237L127.415 170.736V176.739L130.117 178.24V172.237Z" fill="#251725"/>
<path d="M130.117 184.545L127.415 183.044V189.047L130.117 190.698V184.545Z" fill="#251725"/>
<path d="M130.117 196.851L127.415 195.351V201.354L130.117 203.004V196.851Z" fill="#251725"/>
<path d="M130.117 209.157L127.415 207.656V213.659L130.117 215.31V209.157Z" fill="#251725"/>
<path d="M138.221 139.971L135.519 138.471V144.474L138.221 146.125V139.971Z" fill="#251725"/>
<path d="M138.221 152.278L135.519 150.777V156.78L138.221 158.431V152.278Z" fill="#251725"/>
<path d="M138.221 164.584L135.519 163.083V169.086L138.221 170.737V164.584Z" fill="#251725"/>
<path d="M138.221 177.04L135.519 175.389V181.392L138.221 183.043V177.04Z" fill="#251725"/>
<path d="M138.221 189.346L135.519 187.695V193.698L138.221 195.349V189.346Z" fill="#251725"/>
<path d="M138.221 201.653L135.519 200.002V206.155L138.221 207.656V201.653Z" fill="#251725"/>
<path d="M138.221 213.959L135.519 212.309V218.462L138.221 219.962V213.959Z" fill="#251725"/>
<path d="M146.475 144.774L143.773 143.123V149.126L146.475 150.777V144.774Z" fill="#251725"/>
<path d="M146.475 157.082L143.773 155.431V161.584L146.475 163.085V157.082Z" fill="#251725"/>
<path d="M146.475 169.387L143.773 167.736V173.889L146.475 175.39V169.387Z" fill="#251725"/>
<path d="M146.475 181.693L143.773 180.042V186.195L146.475 187.696V181.693Z" fill="#251725"/>
<path d="M146.475 193.999L143.773 192.498V198.501L146.475 200.002V193.999Z" fill="#251725"/>
<path d="M146.475 206.305L143.773 204.805V210.808L146.475 212.308V206.305Z" fill="#251725"/>
<path d="M146.475 218.611L143.773 217.11V223.113L146.475 224.614V218.611Z" fill="#251725"/>
<path d="M154.579 149.425L151.877 147.924V153.927L154.579 155.428V149.425Z" fill="#251725"/>
<path d="M154.579 161.731L151.877 160.23V166.234L154.579 167.734V161.731Z" fill="#251725"/>
<path d="M154.579 174.037L151.877 172.536V178.539L154.579 180.04V174.037Z" fill="#251725"/>
<path d="M154.579 186.344L151.877 184.843V190.846L154.579 192.347V186.344Z" fill="#251725"/>
<path d="M154.579 198.649L151.877 197.148V203.151L154.579 204.652V198.649Z" fill="#251725"/>
<path d="M154.579 210.956L151.877 209.455V215.458L154.579 216.959V210.956Z" fill="#251725"/>
<path d="M154.579 223.262L151.877 221.762V227.765L154.579 229.416V223.262Z" fill="#251725"/>
<path d="M162.683 154.079L159.982 152.578V158.581L162.683 160.082V154.079Z" fill="#251725"/>
<path d="M162.683 166.386L159.982 164.885V170.888L162.683 172.389V166.386Z" fill="#251725"/>
<path d="M162.683 178.692L159.982 177.191V183.194L162.683 184.845V178.692Z" fill="#251725"/>
<path d="M162.683 190.998L159.982 189.497V195.5L162.683 197.151V190.998Z" fill="#251725"/>
<path d="M162.683 203.303L159.982 201.803V207.806L162.683 209.457V203.303Z" fill="#251725"/>
<path d="M162.683 215.76L159.982 214.109V220.112L162.683 221.763V215.76Z" fill="#251725"/>
<path d="M162.683 228.067L159.982 226.416V232.419L162.683 234.07V228.067Z" fill="#251725"/>
<path d="M219.862 133.219V272.189L256.781 250.879V111.908L219.862 133.219Z" fill="url(#paint13_linear_3085_9420)" stroke="#251725" stroke-width="1.50076" stroke-miterlimit="10" stroke-linecap="round" stroke-linejoin="round"/>
<path d="M219.862 133.218L195.7 119.261V258.231L219.862 272.188V133.218Z" fill="white" stroke="#251725" stroke-width="1.50076" stroke-miterlimit="10" stroke-linecap="round" stroke-linejoin="round"/>
<path d="M109.556 97.3505L112.408 93.5986L171.838 127.966L171.538 133.219L109.556 97.3505Z" fill="#8055BB" stroke="#251725" stroke-width="1.50076" stroke-miterlimit="10" stroke-linecap="round" stroke-linejoin="round"/>
<path d="M171.838 127.966L171.538 133.219L195.7 119.262L194.95 114.609L171.838 127.966Z" fill="white" stroke="#251725" stroke-width="1.50076" stroke-miterlimit="10" stroke-linecap="round" stroke-linejoin="round"/>
<path d="M194.95 114.609L218.061 127.966L219.862 133.219L195.7 119.262L194.95 114.609Z" fill="#8055BB" stroke="#251725" stroke-width="1.50076" stroke-miterlimit="10" stroke-linecap="round" stroke-linejoin="round"/>
<path d="M253.929 107.255L256.781 111.907L219.862 133.218L218.061 127.965L253.929 107.255Z" fill="white" stroke="#251725" stroke-width="1.50076" stroke-miterlimit="10" stroke-linecap="round" stroke-linejoin="round"/>
<path d="M131.317 94.7984L136.42 91.7969L141.523 94.7984L136.42 97.6498L131.317 94.7984Z" fill="white" stroke="#251725" stroke-width="1.50076" stroke-miterlimit="10" stroke-linecap="round" stroke-linejoin="round"/>
<path d="M248.227 142.374L250.928 140.873V146.876L248.227 148.377V142.374Z" fill="#8055BB"/>
<path d="M248.227 154.68L250.928 153.18V159.183L248.227 160.683V154.68Z" fill="#8055BB"/>
<path d="M248.227 166.986L250.928 165.485V171.488L248.227 172.989V166.986Z" fill="#8055BB"/>
<path d="M248.227 179.293L250.928 177.792V183.795L248.227 185.296V179.293Z" fill="#8055BB"/>
<path d="M248.227 191.598L250.928 190.098V196.101L248.227 197.601V191.598Z" fill="#8055BB"/>
<path d="M248.227 203.905L250.928 202.404V208.407L248.227 210.058V203.905Z" fill="#8055BB"/>
<path d="M248.227 216.211L250.928 214.71V220.713L248.227 222.364V216.211Z" fill="#8055BB"/>
<path d="M241.473 146.276L244.174 144.775V150.778L241.473 152.279V146.276Z" fill="#8055BB"/>
<path d="M241.473 158.583L244.174 157.082V163.085L241.473 164.586V158.583Z" fill="#8055BB"/>
<path d="M241.473 170.888L244.174 169.388V175.391L241.473 176.891V170.888Z" fill="#8055BB"/>
<path d="M241.473 183.194L244.174 181.693V187.696L241.473 189.197V183.194Z" fill="#8055BB"/>
<path d="M241.473 195.5L244.174 193.999V200.002L241.473 201.653V195.5Z" fill="#8055BB"/>
<path d="M241.473 207.807L244.174 206.307V212.31L241.473 213.961V207.807Z" fill="#8055BB"/>
<path d="M241.473 220.114L244.174 218.613V224.616L241.473 226.267V220.114Z" fill="#8055BB"/>
<path d="M234.57 150.178L237.271 148.677V154.68L234.57 156.181V150.178Z" fill="#8055BB"/>
<path d="M234.57 162.484L237.271 160.983V166.986L234.57 168.487V162.484Z" fill="#8055BB"/>
<path d="M234.57 174.79L237.271 173.289V179.292L234.57 180.793V174.79Z" fill="#8055BB"/>
<path d="M234.57 187.096L237.271 185.596V191.599L234.57 193.25V187.096Z" fill="#8055BB"/>
<path d="M234.57 199.402L237.271 197.901V203.904L234.57 205.555V199.402Z" fill="#8055BB"/>
<path d="M234.57 211.709L237.271 210.208V216.211L234.57 217.862V211.709Z" fill="#8055BB"/>
<path d="M234.57 224.164L237.271 222.514V228.517L234.57 230.168V224.164Z" fill="#8055BB"/>
<path d="M227.816 154.081L230.517 152.58V158.583L227.816 160.084V154.081Z" fill="#8055BB"/>
<path d="M227.816 166.387L230.517 164.887V170.89L227.816 172.391V166.387Z" fill="#8055BB"/>
<path d="M227.816 178.693L230.517 177.192V183.195L227.816 184.846V178.693Z" fill="#8055BB"/>
<path d="M227.816 191L230.517 189.499V195.502L227.816 197.153V191Z" fill="#8055BB"/>
<path d="M227.816 203.305L230.517 201.805V207.808L227.816 209.459V203.305Z" fill="#8055BB"/>
<path d="M227.816 215.762L230.517 214.111V220.114L227.816 221.765V215.762Z" fill="#8055BB"/>
<path d="M227.816 228.069L230.517 226.418V232.421L227.816 234.072V228.069Z" fill="#8055BB"/>
<path d="M225.865 350.678L171.838 345.425L169.587 323.664L246.126 283.144L249.127 284.644V304.154L277.641 320.663L225.865 350.678Z" fill="#8055BB"/>
<path d="M346.676 340.922L310.658 338.671L313.66 318.411L418.713 280.142L462.985 301.152L388.698 343.924H352.679L346.676 340.922Z" fill="#8055BB"/>
<path d="M353.13 344.223L422.615 304.303L422.915 214.558L353.43 254.478L353.13 344.223Z" fill="url(#paint14_linear_3085_9420)" stroke="#251725" stroke-width="1.50076" stroke-miterlimit="10" stroke-linecap="round" stroke-linejoin="round"/>
<path d="M353.43 254.479L353.13 344.224L286.496 305.805V215.909L353.43 254.479Z" fill="white" stroke="#251725" stroke-width="1.50076" stroke-miterlimit="10" stroke-linecap="round" stroke-linejoin="round"/>
<path d="M233.519 185.293L286.496 215.908V305.804L233.369 275.038L233.519 185.293Z" fill="white" stroke="#251725" stroke-width="1.50076" stroke-miterlimit="10" stroke-linecap="round" stroke-linejoin="round"/>
<path d="M246.276 206.453L251.228 209.305C251.228 209.305 251.228 209.305 251.228 209.455V222.661L246.276 219.81V206.453Z" fill="#251725"/>
<path d="M240.273 203.002L245.225 205.703V218.91L240.273 216.059V203.002Z" fill="#251725"/>
<path d="M246.276 231.364L251.228 234.216C251.228 234.216 251.228 234.216 251.228 234.366V247.572L246.276 244.721V231.364Z" fill="#251725"/>
<path d="M240.272 227.914L245.225 230.615V243.822L240.272 240.971V227.914Z" fill="#251725"/>
<path d="M246.276 253.729L251.228 256.58C251.228 256.58 251.228 256.58 251.228 256.73V269.937L246.276 267.085V253.729Z" fill="#251725"/>
<path d="M240.272 250.428C240.272 250.278 240.272 250.428 240.272 250.428L245.225 253.129V266.336L240.272 263.485V250.428Z" fill="#251725"/>
<path d="M310.208 338.972L326.866 329.067L327.167 239.321L310.358 249.226L310.208 338.972Z" fill="url(#paint15_linear_3085_9420)" stroke="#251725" stroke-width="1.50076" stroke-miterlimit="10" stroke-linecap="round" stroke-linejoin="round"/>
<path d="M233.519 185.294L303.604 144.323L422.915 214.559L353.43 254.479L327.317 239.471L310.358 249.226L249.577 214.109L266.536 204.354L233.519 185.294Z" fill="white" stroke="#251725" stroke-width="1.50076" stroke-miterlimit="10" stroke-linecap="round" stroke-linejoin="round"/>
<path d="M249.577 214.108L249.277 304.004L310.208 338.972L310.358 249.226L249.577 214.108Z" fill="white" stroke="#251725" stroke-width="1.50076" stroke-miterlimit="10" stroke-linecap="round" stroke-linejoin="round"/>
<path d="M268.637 204.354V207.505L254.53 215.609L251.979 214.108L268.637 204.354Z" fill="#AF56FF" stroke="#251725" stroke-width="1.50076" stroke-miterlimit="10" stroke-linecap="round" stroke-linejoin="round"/>
<path d="M353.43 255.978V260.48L327.167 245.473V240.82L353.43 255.978Z" fill="white" stroke="#251725" stroke-width="1.50076" stroke-miterlimit="10" stroke-linecap="round" stroke-linejoin="round"/>
<path d="M327.166 240.82V245.473L310.358 255.228V250.575L327.166 240.82Z" fill="#AF56FF" stroke="#251725" stroke-width="1.50076" stroke-miterlimit="10" stroke-linecap="round" stroke-linejoin="round"/>
<path d="M310.358 250.576V255.228L247.176 218.76V214.107L310.358 250.576Z" fill="white" stroke="#251725" stroke-width="1.50076" stroke-miterlimit="10" stroke-linecap="round" stroke-linejoin="round"/>
<path d="M263.984 204.353L261.283 207.504L231.268 189.795V185.293L263.984 204.353Z" fill="white" stroke="#251725" stroke-width="1.50076" stroke-miterlimit="10" stroke-linecap="round" stroke-linejoin="round"/>
<path d="M428.017 213.658V218.16L353.43 260.482V255.98L428.017 213.658Z" fill="#AF56FF" stroke="#251725" stroke-width="1.50076" stroke-miterlimit="10" stroke-linecap="round" stroke-linejoin="round"/>
<path d="M353.43 255.979L427.867 213.658L304.055 142.071L231.118 185.293L263.834 204.353L247.026 214.108L310.208 250.576L327.016 240.821L353.43 255.979Z" fill="white" stroke="#251725" stroke-width="1.50076" stroke-miterlimit="10" stroke-linecap="round" stroke-linejoin="round"/>
<path d="M354.48 215.311V217.412L363.935 222.814L365.586 221.764L354.48 215.311Z" fill="white" stroke="#251725" stroke-width="1.50076" stroke-miterlimit="10" stroke-linecap="round" stroke-linejoin="round"/>
<path d="M343.375 221.764L345.176 222.814L354.48 217.412V215.311L343.375 221.764Z" fill="#AF56FF" stroke="#251725" stroke-width="1.50076" stroke-miterlimit="10" stroke-linecap="round" stroke-linejoin="round"/>
<path d="M345.176 222.815L354.481 228.218L363.935 222.815L354.481 217.412L345.176 222.815Z" fill="white" stroke="#251725" stroke-width="1.50076" stroke-miterlimit="10" stroke-linecap="round" stroke-linejoin="round"/>
<path d="M333.32 203.154V205.105L342.624 210.508L344.425 209.457L333.32 203.154Z" fill="white" stroke="#251725" stroke-width="1.50076" stroke-miterlimit="10" stroke-linecap="round" stroke-linejoin="round"/>
<path d="M322.214 209.457L323.865 210.508L333.32 205.105V203.154L322.214 209.457Z" fill="#AF56FF" stroke="#251725" stroke-width="1.50076" stroke-miterlimit="10" stroke-linecap="round" stroke-linejoin="round"/>
<path d="M323.865 210.507L333.32 215.91L342.624 210.507L333.32 205.104L323.865 210.507Z" fill="white" stroke="#251725" stroke-width="1.50076" stroke-miterlimit="10" stroke-linecap="round" stroke-linejoin="round"/>
<path d="M312.159 190.848V192.949L321.464 198.351L323.265 197.301L312.159 190.848Z" fill="white" stroke="#251725" stroke-width="1.50076" stroke-miterlimit="10" stroke-linecap="round" stroke-linejoin="round"/>
<path d="M300.903 197.301L302.704 198.351L312.159 192.949V190.848L300.903 197.301Z" fill="#AF56FF" stroke="#251725" stroke-width="1.50076" stroke-miterlimit="10" stroke-linecap="round" stroke-linejoin="round"/>
<path d="M302.704 198.352L312.159 203.755L321.464 198.352L312.159 192.949L302.704 198.352Z" fill="white" stroke="#251725" stroke-width="1.50076" stroke-miterlimit="10" stroke-linecap="round" stroke-linejoin="round"/>
<path d="M290.848 178.542V180.643L300.303 186.046L302.104 184.995L290.848 178.542Z" fill="white" stroke="#251725" stroke-width="1.50076" stroke-miterlimit="10" stroke-linecap="round" stroke-linejoin="round"/>
<path d="M279.742 184.995L281.543 186.046L290.848 180.643V178.542L279.742 184.995Z" fill="#AF56FF" stroke="#251725" stroke-width="1.50076" stroke-miterlimit="10" stroke-linecap="round" stroke-linejoin="round"/>
<path d="M281.543 186.046L290.848 191.449L300.303 186.046L290.848 180.644L281.543 186.046Z" fill="white" stroke="#251725" stroke-width="1.50076" stroke-miterlimit="10" stroke-linecap="round" stroke-linejoin="round"/>
<path d="M387.797 247.124L382.845 249.975C382.845 249.975 382.845 249.975 382.845 250.126V263.332L387.797 260.481V247.124Z" fill="#251725"/>
<path d="M393.65 243.822C393.65 243.671 393.65 243.671 393.65 243.822L388.698 246.523V259.73L393.65 256.878V243.822Z" fill="#251725"/>
<path d="M407.757 235.718L402.805 238.569C402.805 238.569 402.805 238.569 402.805 238.719V251.926L407.757 249.075V235.718Z" fill="#251725"/>
<path d="M413.61 232.416C413.61 232.266 413.61 232.416 413.61 232.416L408.658 235.118V248.324L413.61 245.473V232.416Z" fill="#251725"/>
<path d="M367.537 258.68L362.584 261.531C362.584 261.531 362.584 261.531 362.584 261.681V274.888L367.537 272.036V258.68Z" fill="#251725"/>
<path d="M373.54 255.379L368.587 258.08V271.287L373.54 268.436V255.379Z" fill="#251725"/>
<path d="M387.797 272.038L382.844 274.89C382.844 274.89 382.844 274.89 382.844 275.04V288.246L387.797 285.395V272.038Z" fill="#251725"/>
<path d="M393.65 268.736C393.65 268.586 393.65 268.586 393.65 268.736L388.697 271.437V284.644L393.65 281.792V268.736Z" fill="#251725"/>
<path d="M407.757 260.632L402.804 263.483C402.804 263.483 402.804 263.483 402.804 263.633V276.84L407.757 273.989V260.632Z" fill="#251725"/>
<path d="M413.61 257.181L408.658 259.882V273.089L413.61 270.237V257.181Z" fill="#251725"/>
<path d="M367.537 283.594L362.584 286.445C362.584 286.445 362.584 286.445 362.584 286.595V299.802L367.537 296.951V283.594Z" fill="#251725"/>
<path d="M373.54 280.292L368.588 282.993V296.2L373.54 293.349V280.292Z" fill="#251725"/>
<path d="M387.797 294.398L382.845 297.25C382.845 297.25 382.845 297.25 382.845 297.4V310.607L387.797 307.755V294.398Z" fill="#251725"/>
<path d="M393.65 291.098L388.698 293.799V307.006L393.65 304.154V291.098Z" fill="#251725"/>
<path d="M407.757 282.994L402.805 285.846C402.805 285.846 402.805 285.846 402.805 285.996V299.202L407.757 296.351V282.994Z" fill="#251725"/>
<path d="M413.61 279.693L408.657 282.395V295.601L413.61 292.75V279.693Z" fill="#251725"/>
<path d="M367.537 306.106L362.584 308.958C362.584 308.958 362.584 308.958 362.584 309.108V322.315L367.537 319.463V306.106Z" fill="#251725"/>
<path d="M373.54 302.804C373.54 302.654 373.54 302.654 373.54 302.804L368.588 305.505V318.712L373.54 315.861V302.804Z" fill="#251725"/>
<path d="M340.974 258.68L345.926 261.531C345.926 261.531 345.926 261.531 345.926 261.681V274.888L340.974 272.036V258.68Z" fill="#251725"/>
<path d="M334.971 255.379L339.923 258.08V271.287L334.971 268.436V255.379Z" fill="#251725"/>
<path d="M340.974 283.594L345.926 286.445C345.926 286.445 345.926 286.445 345.926 286.595V299.802L340.974 296.951V283.594Z" fill="#251725"/>
<path d="M334.971 280.292L339.923 282.993V296.2L334.971 293.349V280.292Z" fill="#251725"/>
<path d="M340.974 306.106L345.926 308.958C345.926 308.958 345.926 308.958 345.926 309.108V322.315L340.974 319.463V306.106Z" fill="#251725"/>
<path d="M334.97 302.804C334.97 302.654 334.97 302.654 334.97 302.804L339.923 305.505V318.712L334.97 315.861V302.804Z" fill="#251725"/>
<path d="M293.7 270.836C293.7 270.836 293.7 270.836 293.7 270.385C293.4 266.333 292.199 262.131 290.248 258.229C290.098 258.079 290.098 257.929 289.948 257.629L279.743 262.731L280.343 263.032L293.7 270.836Z" fill="#251725"/>
<path d="M289.498 256.579C289.498 256.429 289.347 256.429 289.347 256.278C289.347 256.278 289.348 256.278 289.197 255.978C289.197 255.978 289.197 255.978 289.197 255.828C288.597 254.778 287.847 253.727 287.246 252.677C286.796 252.226 286.496 251.626 286.046 251.176C286.496 251.626 286.796 252.076 287.246 252.677C284.995 249.675 282.594 247.274 279.893 245.623L279.743 262.432L280.043 262.281L289.498 256.579Z" fill="#251725"/>
<path d="M278.542 244.574V244.875L278.392 261.383L275.09 255.83L278.392 261.383V261.533L268.187 244.424C268.187 244.424 268.186 244.424 268.337 244.424C268.337 244.424 268.487 244.424 268.487 244.274C268.637 244.124 268.637 244.124 268.787 244.124C271.788 242.473 275.09 242.623 278.542 244.574Z" fill="#251725"/>
<path d="M267.886 246.223L267.586 245.623C266.085 246.974 264.885 248.925 264.284 251.476C264.284 251.476 264.284 251.476 264.284 251.626V251.776C264.284 252.226 264.134 252.527 264.134 252.977C264.134 253.127 264.134 253.127 264.134 253.277L264.585 253.577L277.941 261.231L267.886 246.223Z" fill="#251725"/>
<path d="M265.936 277.891L265.786 313.459L290.998 327.866V292.298L265.936 277.891Z" stroke="#251725" stroke-width="1.50076" stroke-miterlimit="10" stroke-linecap="round" stroke-linejoin="round"/>
<path d="M280.343 290.646L287.997 295.149V321.562L280.343 317.21V290.646Z" fill="#8055BB"/>
<path d="M268.937 284.193L276.591 288.696V315.259L268.937 310.757V284.193Z" fill="#8055BB"/>
<path d="M205.609 344.576L189.076 335.057V281.048L205.81 291.068L205.609 344.576Z" fill="white" stroke="#251725" stroke-width="1.50076" stroke-miterlimit="10" stroke-linecap="round" stroke-linejoin="round"/>
<path d="M138.173 254.994V280.546V305.696L189.076 335.055V274.533L138.173 254.994Z" fill="white" stroke="#251725" stroke-width="1.50076" stroke-miterlimit="10" stroke-linecap="round" stroke-linejoin="round"/>
<path d="M202.202 303.494V322.633L193.284 317.623V298.384L202.202 303.494Z" stroke="#251725" stroke-width="1.50076" stroke-miterlimit="10" stroke-linecap="round" stroke-linejoin="round"/>
<path d="M196.39 300.287V319.225" stroke="#251725" stroke-width="1.50076" stroke-miterlimit="10" stroke-linecap="round" stroke-linejoin="round"/>
<path d="M228.054 252.991L245.89 267.621V321.629L220.94 336.058L205.91 344.776V319.625V290.767L228.054 252.991Z" fill="url(#paint16_linear_3085_9420)" stroke="#251725" stroke-width="1.50076" stroke-miterlimit="10" stroke-linecap="round" stroke-linejoin="round"/>
<path d="M203.204 292.57L136.57 254.093L160.719 212.609L227.253 250.987L203.204 292.57Z" fill="white" stroke="#251725" stroke-width="1.50076" stroke-miterlimit="10" stroke-linecap="round" stroke-linejoin="round"/>
<path d="M171.44 345.275L163.825 340.866L140.778 327.639V273.631L158.414 263.41L171.44 291.366V345.275Z" fill="white" stroke="#251725" stroke-width="1.50076" stroke-miterlimit="10" stroke-linecap="round" stroke-linejoin="round"/>
<path d="M203.204 292.57L205.809 291.067L214.427 276.137L227.253 253.992L245.79 267.92L247.994 266.618L227.253 250.986L214.427 273.131L203.204 292.57Z" fill="white" stroke="#251725" stroke-width="1.50076" stroke-miterlimit="10" stroke-linecap="round" stroke-linejoin="round"/>
<path d="M239.778 309.806L214.828 324.135V295.377L239.778 281.048V309.806Z" stroke="white" stroke-width="1.50076" stroke-miterlimit="10" stroke-linecap="round" stroke-linejoin="round"/>
<path d="M230.359 286.459V315.117" stroke="white" stroke-width="1.50076" stroke-miterlimit="10" stroke-linecap="round" stroke-linejoin="round"/>
<path d="M163.825 312.11V340.868L147.191 331.349V302.591L151.099 304.795L163.825 312.11Z" fill="white" stroke="#251725" stroke-width="1.50076" stroke-miterlimit="10" stroke-linecap="round" stroke-linejoin="round"/>
<path d="M189.076 335.056L171.44 345.277V291.368L189.076 281.147V335.056Z" fill="url(#paint17_linear_3085_9420)" stroke="#251725" stroke-width="1.50076" stroke-miterlimit="10" stroke-linecap="round" stroke-linejoin="round"/>
<path d="M138.574 275.036L140.778 276.238L155.508 264.815L172.643 294.575L175.148 295.978L155.508 261.909L138.574 275.036Z" fill="white" stroke="#251725" stroke-width="1.50076" stroke-miterlimit="10" stroke-linecap="round" stroke-linejoin="round"/>
<path d="M155.508 261.91L175.148 295.978L188.074 288.463L192.182 286.158L172.643 252.09L155.508 261.91Z" fill="white" stroke="#251725" stroke-width="1.50076" stroke-miterlimit="10" stroke-linecap="round" stroke-linejoin="round"/>
<path d="M155.508 293.171C153.103 291.768 151.099 292.87 151.099 295.676C151.099 298.481 153.103 301.888 155.508 303.291C157.913 304.694 159.917 303.592 159.917 300.786C160.017 297.98 158.013 294.573 155.508 293.171ZM155.508 293.171V303.291" stroke="#251725" stroke-width="1.50076" stroke-miterlimit="10" stroke-linecap="round" stroke-linejoin="round"/>
<path d="M159.917 300.788L151.099 295.678" stroke="#251725" stroke-width="1.50076" stroke-miterlimit="10" stroke-linecap="round" stroke-linejoin="round"/>
<path d="M151.099 304.794V333.552" stroke="#251725" stroke-width="1.50076" stroke-miterlimit="10" stroke-linecap="round" stroke-linejoin="round"/>
<path d="M153.404 319.123V320.726" stroke="#251725" stroke-width="1.50076" stroke-miterlimit="10" stroke-linecap="round" stroke-linejoin="round"/>
<path d="M198.394 266.72L206.811 261.91L198.394 257L189.978 261.91L198.394 266.72Z" stroke="#251725" stroke-width="1.50076" stroke-miterlimit="10" stroke-linecap="round" stroke-linejoin="round"/>
<path d="M198.394 254.894L206.811 250.085L198.394 245.175L189.978 250.085L198.394 254.894Z" stroke="#251725" stroke-width="1.50076" stroke-miterlimit="10" stroke-linecap="round" stroke-linejoin="round"/>
<path d="M202.803 250.084L198.395 247.479L193.986 250.084L198.395 252.589L202.803 250.084Z" fill="#AF56FF" stroke="#251725" stroke-width="1.50076" stroke-miterlimit="10" stroke-linecap="round" stroke-linejoin="round"/>
<path d="M198.394 254.895V276.438L206.811 261.909V250.085L198.394 254.895Z" fill="#AF56FF" stroke="#251725" stroke-width="1.50076" stroke-miterlimit="10" stroke-linecap="round" stroke-linejoin="round"/>
<path d="M189.977 250.085L198.394 254.895V276.438L189.977 271.628V250.085Z" fill="white" stroke="#251725" stroke-width="1.50076" stroke-miterlimit="10" stroke-linecap="round" stroke-linejoin="round"/>
<path d="M165.228 234.253L173.745 229.343L165.228 224.533L156.811 229.343L165.228 234.253Z" stroke="#251725" stroke-width="1.50076" stroke-miterlimit="10" stroke-linecap="round" stroke-linejoin="round"/>
<path d="M169.737 229.344L165.228 226.839L160.819 229.344L165.228 231.949L169.737 229.344Z" fill="#AF56FF" stroke="#251725" stroke-width="1.50076" stroke-miterlimit="10" stroke-linecap="round" stroke-linejoin="round"/>
<path d="M165.228 234.253V255.796L173.745 241.167V229.343L165.228 234.253Z" fill="#AF56FF" stroke="#251725" stroke-width="1.50076" stroke-miterlimit="10" stroke-linecap="round" stroke-linejoin="round"/>
<path d="M156.811 229.343L165.228 234.253V255.796L156.811 250.886V229.343Z" fill="white" stroke="#251725" stroke-width="1.50076" stroke-miterlimit="10" stroke-linecap="round" stroke-linejoin="round"/>
<path d="M171.44 339.565L189.076 329.345" stroke="#251725" stroke-width="1.50076" stroke-miterlimit="10" stroke-linecap="round" stroke-linejoin="round"/>
<path d="M205.91 339.064L189.076 329.345" stroke="#251725" stroke-width="1.50076" stroke-miterlimit="10" stroke-linecap="round" stroke-linejoin="round"/>
<path d="M227.954 330.045L228.656 329.645L227.954 330.045Z" fill="#8055BB"/>
<path d="M220.162 61.135L220.012 95.6525C220.012 97.1532 219.562 98.3538 218.662 98.9541L218.061 99.2543L213.259 102.106C214.159 101.505 214.61 100.305 214.61 98.804L214.76 64.2866C214.76 60.8348 212.358 56.6327 209.357 54.8318L151.428 21.3649H151.277C149.927 20.6145 148.576 20.4644 147.676 20.9146L152.778 17.9131L153.078 17.763C153.979 17.3128 155.33 17.4629 156.68 18.2132L214.61 51.6802C217.761 53.4811 220.162 57.6832 220.162 61.135Z" fill="white" stroke="#251725" stroke-width="1.50076" stroke-miterlimit="10" stroke-linecap="round" stroke-linejoin="round"/>
<path d="M209.207 54.8313L151.277 21.3644C148.276 19.5635 145.725 21.0642 145.725 24.516L145.575 59.0334C145.575 62.4852 147.976 66.6873 150.977 68.4882L169.887 79.4438L173.789 87.848C174.089 88.5984 174.689 89.0486 175.14 89.3488C175.59 89.649 176.19 89.649 176.49 89.3488L180.392 85.4468L208.907 101.955C211.908 103.756 214.459 102.255 214.459 98.8036L214.61 64.2861C214.76 60.8344 212.358 56.6322 209.207 54.8313Z" fill="url(#paint18_linear_3085_9420)" stroke="#251725" stroke-miterlimit="10" stroke-linecap="round" stroke-linejoin="round"/>
<path d="M160.282 39.825C158.031 38.4743 156.23 39.5249 156.23 42.0762C156.23 44.0272 157.281 46.2783 158.781 47.779C155.78 46.8786 153.679 48.6795 153.679 52.2813V56.9337L166.885 64.5876V59.9352C166.885 57.8341 166.135 55.583 164.934 53.4819C164.034 51.9812 162.983 50.6305 161.783 49.58C163.284 49.73 164.334 48.6795 164.334 46.7285C164.334 44.3273 162.533 41.1757 160.282 39.825Z" fill="#251725"/>
<path d="M179.942 54.9815L176.04 53.6309C175.74 53.6309 175.74 53.6309 175.74 53.931C175.74 54.0811 175.74 54.2312 175.74 54.3812C175.74 54.5313 175.74 54.8315 175.89 54.9815L176.19 55.2817L178.891 56.3322V66.2372L176.19 64.7365C175.89 64.5864 175.74 64.7365 175.74 65.1867V65.4869C175.74 65.9371 175.89 66.2372 176.19 66.3873L182.793 70.2893C183.094 70.4394 183.244 70.2893 183.244 69.8391V69.5389C183.244 69.0887 183.094 68.7885 182.793 68.6385L180.542 67.2878V55.882C180.542 55.7319 180.542 55.5818 180.392 55.4318C180.242 55.1316 180.092 54.9815 179.942 54.9815Z" fill="#251725"/>
<path d="M190.597 61.1337L185.945 58.4323C185.795 58.2822 185.645 58.2822 185.495 58.2822C185.345 58.2822 185.345 58.4323 185.345 58.7325L185.044 64.1352C185.044 64.2853 185.044 64.5854 185.195 64.7355C185.345 64.8856 185.345 65.0357 185.645 65.1857L187.146 66.0862C188.046 66.6865 188.796 67.2868 189.247 67.8871C189.697 68.6375 189.997 69.3879 189.847 70.1382C189.847 70.7385 189.697 71.0387 189.547 71.3389C189.247 71.639 189.096 71.7891 188.646 71.7891C188.346 71.7891 187.896 71.639 187.446 71.3389C186.995 71.0387 186.545 70.7385 186.245 70.4384C185.945 70.1382 185.645 69.8381 185.495 69.688C185.345 69.3879 185.195 69.2378 185.044 69.2378H184.744C184.594 69.2378 184.594 69.3878 184.444 69.5379C184.294 69.688 184.294 69.8381 184.294 69.8381C184.294 69.9882 184.444 70.2883 184.744 70.5885C185.044 70.8886 185.345 71.3388 185.945 71.7891C186.395 72.2393 186.995 72.5394 187.596 72.9897C188.046 73.2898 188.496 73.4399 189.096 73.59C189.547 73.7401 189.997 73.7401 190.447 73.7401C190.897 73.59 191.198 73.4399 191.348 72.9897C191.648 72.5394 191.648 71.9391 191.648 71.1888C191.648 70.4384 191.498 69.688 191.348 68.9376C191.047 68.3373 190.747 67.737 190.447 67.1367C189.997 66.5364 189.547 66.0862 189.096 65.786C188.646 65.3358 188.046 65.0356 187.596 64.7355L186.845 64.2853L186.995 60.8335L190.597 62.9346C190.897 63.0847 191.047 62.9346 191.047 62.4844V62.1842C191.047 61.5839 190.897 61.2838 190.597 61.1337Z" fill="#251725"/>
<path d="M199.602 66.3866L194.95 63.6852C194.799 63.5352 194.649 63.5352 194.499 63.5352C194.349 63.5352 194.349 63.6852 194.349 63.9854L194.049 69.3881C194.049 69.5382 194.049 69.8384 194.199 69.9884C194.199 70.1385 194.349 70.2886 194.649 70.4387L196.15 71.3391C197.051 71.9394 197.801 72.5397 198.251 73.14C198.701 73.8904 199.002 74.6408 198.852 75.3912C198.852 75.9915 198.701 76.2916 198.551 76.5918C198.401 76.8919 198.101 77.042 197.651 77.042C197.351 77.042 196.901 76.8919 196.45 76.5918C196 76.2916 195.55 75.9915 195.25 75.6913C194.95 75.3912 194.649 75.091 194.499 74.9409C194.349 74.6408 194.199 74.4907 194.049 74.4907H193.749C193.599 74.4907 193.599 74.6408 193.449 74.7909C193.299 74.9409 193.299 75.091 193.299 75.091C193.299 75.2411 193.449 75.5413 193.749 75.8414C194.049 76.1416 194.349 76.5918 194.95 77.042C195.4 77.4922 196 77.7924 196.6 78.2426C197.051 78.5428 197.501 78.6928 198.101 78.8429C198.551 78.993 199.002 78.993 199.452 78.993C199.902 78.8429 200.202 78.6928 200.352 78.2426C200.652 77.7924 200.652 77.1921 200.652 76.4417C200.652 75.6913 200.502 74.9409 200.352 74.1906C200.052 73.5903 199.752 72.99 199.452 72.3897C199.002 71.7893 198.551 71.3391 198.101 71.039C197.651 70.5887 197.051 70.2886 196.6 69.9884L195.85 69.5382L196 66.0865L199.602 68.1875C199.902 68.3376 200.052 68.1875 200.052 67.7373V67.4371C199.902 66.8368 199.902 66.5367 199.602 66.3866Z" fill="#251725"/>
<path d="M438.745 32.1961L438.653 53.3158C438.653 54.234 438.377 54.9686 437.827 55.3359L437.459 55.5196L434.521 57.2642C435.072 56.8969 435.347 56.1623 435.347 55.2441L435.439 34.1245C435.439 32.0125 433.97 29.4414 432.133 28.3395L396.689 7.86265H396.597C395.771 7.40352 394.945 7.3117 394.394 7.58717L397.516 5.75068L397.699 5.65886C398.25 5.38339 399.077 5.4752 399.903 5.93433L435.347 26.4112C437.276 27.4213 438.745 29.9924 438.745 32.1961Z" fill="white" stroke="#251725" stroke-width="1.50076" stroke-miterlimit="10" stroke-linecap="round" stroke-linejoin="round"/>
<path d="M432.133 28.2487L396.689 7.77186C394.853 6.66996 393.292 7.58821 393.292 9.70018L393.2 30.8198C393.2 32.9318 394.669 35.5029 396.505 36.6048L408.075 43.3079L410.463 48.4501C410.646 48.9092 411.014 49.1847 411.289 49.3684C411.565 49.552 411.932 49.552 412.116 49.3684L414.503 46.9809L431.95 57.0816C433.786 58.1835 435.347 57.2653 435.347 55.1533L435.439 34.0337C435.439 31.9217 433.97 29.3506 432.133 28.2487Z" fill="url(#paint19_linear_3085_9420)" stroke="#251725" stroke-miterlimit="10" stroke-linecap="round" stroke-linejoin="round"/>
<path d="M416.071 29.1071L412.95 28.0156C412.71 28.0156 412.71 28.0156 412.71 28.2582C412.71 28.3794 412.71 28.5007 412.71 28.622C412.71 28.7433 412.71 28.9858 412.83 29.1071L413.07 29.3496L415.231 30.1986V38.2026L413.07 36.9899C412.83 36.8686 412.71 36.9899 412.71 37.3537V37.5962C412.71 37.9601 412.83 38.2026 413.07 38.3239L418.353 41.477C418.593 41.5983 418.713 41.477 418.713 41.1132V40.8706C418.713 40.5068 418.593 40.2643 418.353 40.143L416.552 39.0515V29.8347C416.552 29.7135 416.552 29.5922 416.432 29.4709C416.312 29.2284 416.191 29.1071 416.071 29.1071Z" fill="#251725"/>
<path d="M425.359 34.7333L421.561 32.6351C421.439 32.5186 421.316 32.5186 421.194 32.5186C421.071 32.5186 421.071 32.6351 421.071 32.8682L420.826 37.0646C420.826 37.1811 420.826 37.4142 420.949 37.5308C421.071 37.6474 421.071 37.7639 421.316 37.8805L422.541 38.5799C423.276 39.0461 423.889 39.5124 424.256 39.9787C424.624 40.5615 424.869 41.1443 424.746 41.7271C424.746 42.1934 424.624 42.4265 424.501 42.6596C424.256 42.8927 424.134 43.0093 423.766 43.0093C423.521 43.0093 423.154 42.8927 422.786 42.6596C422.419 42.4265 422.051 42.1934 421.806 41.9602C421.561 41.7271 421.316 41.494 421.194 41.3774C421.071 41.1443 420.949 41.0277 420.826 41.0277H420.581C420.459 41.0277 420.459 41.1443 420.336 41.2608C420.213 41.3774 420.214 41.494 420.214 41.494C420.214 41.6105 420.336 41.8437 420.581 42.0768C420.826 42.3099 421.071 42.6596 421.561 43.0093C421.929 43.359 422.419 43.5921 422.909 43.9418C423.276 44.1749 423.644 44.2915 424.134 44.4081C424.501 44.5246 424.869 44.5246 425.236 44.5246C425.604 44.4081 425.849 44.2915 425.972 43.9418C426.217 43.5921 426.217 43.1259 426.217 42.5431C426.217 41.9602 426.094 41.3774 425.972 40.7946C425.726 40.3283 425.481 39.8621 425.236 39.3958C424.869 38.9296 424.501 38.5799 424.134 38.3467C423.766 37.9971 423.276 37.7639 422.909 37.5308L422.296 37.1811L422.419 34.5002L425.359 36.132C425.604 36.2486 425.727 36.132 425.727 35.7823V35.5492C425.727 35.083 425.604 34.8498 425.359 34.7333Z" fill="#251725"/>
<path d="M402.107 19.1569C400.729 18.3305 399.628 18.9733 399.628 20.5343C399.628 21.728 400.27 23.1054 401.189 24.0236C399.352 23.4727 398.067 24.5746 398.067 26.7783V29.6249L406.147 34.308V31.4614C406.147 30.1758 405.688 28.7985 404.953 27.5129C404.402 26.5947 403.76 25.7683 403.025 25.1255C403.943 25.2173 404.586 24.5745 404.586 23.3808C404.586 21.8198 403.484 19.8915 402.107 19.1569Z" fill="#251725"/>
<defs>
<linearGradient id="paint0_linear_3085_9420" x1="493.392" y1="199.922" x2="479.052" y2="181.947" gradientUnits="userSpaceOnUse">
<stop stop-color="#DF87F1"/>
<stop offset="0.75" stop-color="#FBFBFF"/>
</linearGradient>
<linearGradient id="paint1_linear_3085_9420" x1="121.943" y1="246.053" x2="57.7397" y2="297.252" gradientUnits="userSpaceOnUse">
<stop stop-color="#DF87F1"/>
<stop offset="0.75" stop-color="#FBFBFF"/>
</linearGradient>
<linearGradient id="paint2_linear_3085_9420" x1="104.27" y1="228.368" x2="71.5815" y2="292.708" gradientUnits="userSpaceOnUse">
<stop offset="0.35" stop-color="#F76DFC"/>
<stop offset="0.85" stop-color="#1288AA"/>
</linearGradient>
<linearGradient id="paint3_linear_3085_9420" x1="117.529" y1="292.661" x2="84.3694" y2="198.659" gradientUnits="userSpaceOnUse">
<stop offset="0.5" stop-color="#DF87F1"/>
<stop offset="0.75" stop-color="#FBFBFF"/>
</linearGradient>
<linearGradient id="paint4_linear_3085_9420" x1="37.5677" y1="176.262" x2="23.7665" y2="156.34" gradientUnits="userSpaceOnUse">
<stop stop-color="#DF87F1"/>
<stop offset="0.75" stop-color="#FBFBFF"/>
</linearGradient>
<linearGradient id="paint5_linear_3085_9420" x1="514.003" y1="130.244" x2="482.417" y2="92.3968" gradientUnits="userSpaceOnUse">
<stop offset="0.55" stop-color="#FBFBFF"/>
<stop offset="0.9" stop-color="#DF87F1"/>
</linearGradient>
<linearGradient id="paint6_linear_3085_9420" x1="441.795" y1="102.409" x2="520.199" y2="169.743" gradientUnits="userSpaceOnUse">
<stop offset="0.293434" stop-color="#10AD74"/>
<stop offset="0.495204" stop-color="#1288AA"/>
</linearGradient>
<linearGradient id="paint7_linear_3085_9420" x1="530.931" y1="152.535" x2="458.361" y2="91.9745" gradientUnits="userSpaceOnUse">
<stop offset="0.4" stop-color="#DF87F1"/>
<stop offset="0.75" stop-color="#FBFBFF"/>
</linearGradient>
<linearGradient id="paint8_linear_3085_9420" x1="137.533" y1="181.903" x2="47.6512" y2="143.797" gradientUnits="userSpaceOnUse">
<stop offset="0.75" stop-color="#DF87F1"/>
<stop offset="0.9" stop-color="#FBFBFF"/>
</linearGradient>
<linearGradient id="paint9_linear_3085_9420" x1="142.205" y1="176.177" x2="50.1145" y2="137.106" gradientUnits="userSpaceOnUse">
<stop stop-color="#DF87F1"/>
<stop offset="0.75" stop-color="#FBFBFF"/>
</linearGradient>
<linearGradient id="paint10_linear_3085_9420" x1="58.0996" y1="122.417" x2="163.078" y2="166.908" gradientUnits="userSpaceOnUse">
<stop offset="0.15" stop-color="#10AD74"/>
<stop offset="0.5" stop-color="#1288AA"/>
</linearGradient>
<linearGradient id="paint11_linear_3085_9420" x1="385.525" y1="29.7825" x2="565.376" y2="100.463" gradientUnits="userSpaceOnUse">
<stop offset="0.1" stop-color="#F76DFC"/>
<stop offset="0.75" stop-color="#1288AA"/>
</linearGradient>
<linearGradient id="paint12_linear_3085_9420" x1="177.034" y1="77.5807" x2="241.615" y2="87.7845" gradientUnits="userSpaceOnUse">
<stop offset="0.1" stop-color="#F76DFC"/>
<stop offset="0.75" stop-color="#1288AA"/>
</linearGradient>
<linearGradient id="paint13_linear_3085_9420" x1="228.259" y1="68.2239" x2="324.305" y2="90.3468" gradientUnits="userSpaceOnUse">
<stop offset="0.1" stop-color="#F76DFC"/>
<stop offset="0.75" stop-color="#1288AA"/>
</linearGradient>
<linearGradient id="paint14_linear_3085_9420" x1="407.042" y1="179.218" x2="258.8" y2="259.001" gradientUnits="userSpaceOnUse">
<stop offset="0.1" stop-color="#F76DFC"/>
<stop offset="0.75" stop-color="#1288AA"/>
</linearGradient>
<linearGradient id="paint15_linear_3085_9420" x1="323.309" y1="212.162" x2="278.158" y2="219.846" gradientUnits="userSpaceOnUse">
<stop offset="0.1" stop-color="#F76DFC"/>
<stop offset="0.75" stop-color="#1288AA"/>
</linearGradient>
<linearGradient id="paint16_linear_3085_9420" x1="236.796" y1="227.975" x2="144.735" y2="268.077" gradientUnits="userSpaceOnUse">
<stop offset="0.1" stop-color="#F76DFC"/>
<stop offset="0.75" stop-color="#1288AA"/>
</linearGradient>
<linearGradient id="paint17_linear_3085_9420" x1="185.065" y1="263.669" x2="140.148" y2="276.021" gradientUnits="userSpaceOnUse">
<stop offset="0.1" stop-color="#F76DFC"/>
<stop offset="0.75" stop-color="#1288AA"/>
</linearGradient>
<linearGradient id="paint18_linear_3085_9420" x1="222.588" y1="102.722" x2="141.343" y2="34.4195" gradientUnits="userSpaceOnUse">
<stop stop-color="#DF87F1"/>
<stop offset="0.75" stop-color="#FBFBFF"/>
</linearGradient>
<linearGradient id="paint19_linear_3085_9420" x1="440.316" y1="57.5507" x2="390.607" y2="15.7644" gradientUnits="userSpaceOnUse">
<stop stop-color="#DF87F1"/>
<stop offset="0.75" stop-color="#FBFBFF"/>
</linearGradient>
</defs>
</svg>
