<svg width="849" height="600" viewBox="0 0 849 600" fill="none" xmlns="http://www.w3.org/2000/svg">
<rect x="287.5" y="211.5" width="339" height="227" rx="5.5" stroke="#2D3748" stroke-dasharray="4 4"/>
<path d="M376.056 380H374.12V368.48H376.056L381.424 376.672V368.48H383.368V380H381.424L376.056 371.808V380ZM387.54 380H385.604V368.48H392.668V370.288H387.54V373.648H391.7V375.456H387.54V380ZM398.52 380H396.576V370.288H393.144V368.48H401.936V370.288H398.52V380Z" fill="#2D3748"/>
<rect x="348" y="271" width="80" height="80" rx="6" fill="url(#paint0_linear_3073_11394)"/>
<path fill-rule="evenodd" clip-rule="evenodd" d="M389.414 330.386C389.039 330.761 388.53 330.972 388 330.972C387.47 330.972 386.961 330.761 386.586 330.386L368.614 312.415C368.428 312.229 368.281 312.009 368.18 311.766C368.08 311.523 368.028 311.263 368.028 311C368.028 310.738 368.08 310.478 368.18 310.235C368.281 309.992 368.428 309.772 368.614 309.586L386.586 291.615C386.961 291.24 387.47 291.029 388 291.029C388.53 291.029 389.039 291.24 389.414 291.615L407.386 309.586C407.571 309.772 407.719 309.992 407.819 310.235C407.92 310.478 407.972 310.738 407.972 311C407.972 311.263 407.92 311.523 407.819 311.766C407.719 312.009 407.571 312.229 407.386 312.415L389.414 330.386ZM383.2 307.445C383.412 307.445 383.616 307.529 383.766 307.679C383.916 307.829 384 308.033 384 308.245V313.618C384 314.821 382.428 315.276 381.786 314.259L379.2 310.165V314.156C379.2 314.368 379.116 314.572 378.966 314.722C378.816 314.872 378.612 314.956 378.4 314.956C378.188 314.956 377.984 314.872 377.834 314.722C377.684 314.572 377.6 314.368 377.6 314.156V308.783C377.6 307.58 379.172 307.125 379.814 308.142L382.4 312.236V308.245C382.4 308.033 382.484 307.829 382.634 307.679C382.784 307.529 382.988 307.445 383.2 307.445ZM387.6 307.4C387.282 307.4 386.977 307.527 386.752 307.752C386.526 307.977 386.4 308.282 386.4 308.6V314.2C386.4 314.413 386.484 314.616 386.634 314.766C386.784 314.916 386.988 315 387.2 315C387.412 315 387.616 314.916 387.766 314.766C387.916 314.616 388 314.413 388 314.2V312.4H389.6C389.812 312.4 390.016 312.316 390.166 312.166C390.316 312.016 390.4 311.813 390.4 311.6C390.4 311.388 390.316 311.185 390.166 311.035C390.016 310.885 389.812 310.8 389.6 310.8H388V309H390.6C390.812 309 391.016 308.916 391.166 308.766C391.316 308.616 391.4 308.413 391.4 308.2C391.4 307.988 391.316 307.785 391.166 307.635C391.016 307.485 390.812 307.4 390.6 307.4H387.6ZM396.2 315C395.988 315 395.784 314.916 395.634 314.766C395.484 314.616 395.4 314.413 395.4 314.2V309H394.4C394.188 309 393.984 308.916 393.834 308.766C393.684 308.616 393.6 308.413 393.6 308.2C393.6 307.988 393.684 307.785 393.834 307.635C393.984 307.485 394.188 307.4 394.4 307.4H398C398.212 307.4 398.416 307.485 398.566 307.635C398.716 307.785 398.8 307.988 398.8 308.2C398.8 308.413 398.716 308.616 398.566 308.766C398.416 308.916 398.212 309 398 309H397V314.2C397 314.413 396.916 314.616 396.766 314.766C396.616 314.916 396.412 315 396.2 315Z" fill="white"/>
<path d="M401.2 326.2H395.863L403.2 318.863V324.2C403.2 324.73 402.989 325.239 402.614 325.614C402.239 325.989 401.73 326.2 401.2 326.2ZM403.2 297.8V303.137L395.863 295.8H401.2C401.73 295.8 402.239 296.011 402.614 296.386C402.989 296.761 403.2 297.269 403.2 297.8ZM374.8 295.8H380.137L372.8 303.137V297.8C372.8 297.269 373.011 296.761 373.386 296.386C373.761 296.011 374.27 295.8 374.8 295.8ZM372.8 324.2V318.863L380.137 326.2H374.8C374.27 326.2 373.761 325.989 373.386 325.614C373.011 325.239 372.8 324.73 372.8 324.2Z" fill="white"/>
<path d="M497.064 380H495.12V368.48H499.672C502.392 368.48 503.752 369.88 503.752 372.232C503.752 374.576 502.384 375.976 499.672 375.976H497.064V380ZM497.064 370.288V374.176H499.656C501.048 374.176 501.808 373.48 501.808 372.232C501.808 370.976 501.048 370.288 499.656 370.288H497.064ZM507.442 380H505.514V368.24H507.442V380ZM513.319 371.12C515.791 371.12 516.975 372.344 516.975 374.896V380H515.055V378.84C514.487 379.768 513.559 380.24 512.263 380.24C510.511 380.24 509.359 379.208 509.359 377.648C509.359 375.952 510.559 375.04 512.775 374.76L515.047 374.48C515.015 373.336 514.431 372.816 513.319 372.816C512.279 372.816 511.687 373.192 511.423 374.016L509.671 373.544C510.127 371.976 511.423 371.12 513.319 371.12ZM515.055 375.888L513.047 376.136C511.815 376.288 511.247 376.72 511.247 377.488C511.247 378.248 511.751 378.632 512.727 378.632C513.783 378.632 514.583 378.048 514.871 377.272C515.047 376.856 515.055 376.352 515.055 375.968V375.888ZM518.098 373.152V371.36H519.666V368.48H521.586V371.36H524.122V373.152H521.586V377.168C521.586 377.944 521.93 378.288 522.706 378.288H524.122V380H522.306C520.642 380 519.666 379.096 519.666 377.56V373.152H518.098ZM526.731 373.152H525.339V371.36H526.731V370.92C526.731 369.024 527.515 368.24 529.419 368.24H530.747V369.808H529.779C528.955 369.808 528.659 370.104 528.659 370.944V371.36H530.747V373.152H528.659V380H526.731V373.152ZM535.53 380.24C532.954 380.24 531.234 378.368 531.234 375.68C531.234 372.984 532.97 371.12 535.53 371.12C538.122 371.12 539.842 372.984 539.842 375.68C539.842 378.376 538.114 380.24 535.53 380.24ZM535.53 378.432C536.986 378.432 537.802 377.392 537.802 375.68C537.802 373.944 536.994 372.928 535.53 372.928C534.058 372.928 533.274 373.944 533.274 375.68C533.274 377.408 534.082 378.432 535.53 378.432ZM546.46 371.136V372.992C546.212 372.936 545.908 372.928 545.548 372.928C544.252 372.928 543.516 373.76 543.516 375.24V380H541.588V371.36H543.516V372.488C543.94 371.704 544.716 371.12 546.052 371.12C546.188 371.12 546.324 371.128 546.46 371.136ZM553.155 380V374.84C553.155 373.68 552.643 372.928 551.531 372.928C550.411 372.928 549.891 373.68 549.891 374.84V380H547.963V371.36H549.891V372.4C550.251 371.68 550.899 371.12 552.019 371.12C553.307 371.12 554.203 371.584 554.675 372.488C555.147 371.696 555.955 371.12 557.091 371.12C559.163 371.12 560.283 372.24 560.283 374.44V380H558.355V374.84C558.355 373.68 557.851 372.928 556.731 372.928C555.619 372.928 555.091 373.68 555.091 374.84L555.075 374.832V380H553.155Z" fill="#2D3748"/>
<rect x="488" y="271" width="80" height="80" rx="6" fill="#219F70"/>
<path fill-rule="evenodd" clip-rule="evenodd" d="M516.002 296.004C514.357 296.004 512.996 297.355 512.996 299V304H542.995V299C542.995 297.355 541.643 296.004 539.999 296.004H516.002ZM518 299C518.552 299 519 299.448 519 300C519 300.552 518.552 301 518 301C517.447 301 517 300.552 517 300C517 299.448 517.447 299 518 299ZM522 299C522.552 299 522.999 299.448 522.999 300C522.999 300.552 522.552 301 522 301C521.447 301 521 300.552 521 300C521 299.448 521.447 299 522 299ZM525.999 299C526.552 299 526.999 299.448 526.999 300C526.999 300.552 526.552 301 525.999 301C525.447 301 524.999 300.552 524.999 300C524.999 299.448 525.447 299 525.999 299ZM512.996 305.999V322.999C512.996 324.643 514.357 326.002 516.002 326.002H539.999C541.643 326.002 542.995 324.643 542.995 322.999V305.999H512.996ZM522.001 310.999H533.997C534.13 310.996 534.263 311.02 534.387 311.069C534.51 311.118 534.623 311.191 534.719 311.284C534.814 311.377 534.89 311.488 534.941 311.611C534.993 311.734 535.02 311.866 535.02 311.999C535.02 312.132 534.993 312.264 534.941 312.387C534.89 312.51 534.814 312.621 534.719 312.714C534.623 312.807 534.51 312.881 534.387 312.93C534.263 312.978 534.13 313.002 533.997 312.999H522.001C521.868 313.002 521.736 312.978 521.612 312.93C521.488 312.881 521.375 312.807 521.28 312.714C521.185 312.621 521.109 312.51 521.057 312.387C521.005 312.264 520.979 312.132 520.979 311.999C520.979 311.866 521.005 311.734 521.057 311.611C521.109 311.488 521.185 311.377 521.28 311.284C521.375 311.191 521.488 311.118 521.612 311.069C521.736 311.02 521.868 310.996 522.001 310.999ZM521.898 314.999C521.932 314.997 521.967 314.997 522.001 314.999H533.997C534.262 314.999 534.517 315.104 534.705 315.292C534.892 315.48 534.998 315.734 534.998 316C534.998 316.265 534.892 316.52 534.705 316.708C534.517 316.895 534.262 317.001 533.997 317.001H522.001C521.736 317.015 521.476 316.922 521.279 316.744C521.081 316.566 520.963 316.317 520.949 316.052C520.935 315.786 521.027 315.526 521.205 315.329C521.383 315.131 521.633 315.013 521.898 314.999ZM521.898 319.001C521.932 318.999 521.967 318.999 522.001 319.001H527.995C528.129 318.998 528.261 319.021 528.385 319.07C528.509 319.119 528.622 319.192 528.717 319.286C528.812 319.379 528.888 319.49 528.94 319.613C528.991 319.736 529.018 319.867 529.018 320.001C529.018 320.134 528.991 320.266 528.94 320.389C528.888 320.511 528.812 320.623 528.717 320.716C528.622 320.809 528.509 320.882 528.385 320.931C528.261 320.98 528.129 321.004 527.995 321.001H522.001C521.74 321.008 521.486 320.913 521.293 320.736C521.101 320.558 520.985 320.313 520.972 320.051C520.958 319.79 521.048 319.534 521.221 319.337C521.394 319.141 521.637 319.02 521.898 319.001Z" fill="white"/>
<path d="M160.203 380.24C156.755 380.24 154.691 377.816 154.691 374.24C154.691 370.664 156.755 368.24 160.203 368.24C163.659 368.24 165.723 370.664 165.723 374.24C165.723 377.816 163.659 380.24 160.203 380.24ZM160.203 378.424C162.523 378.424 163.683 376.76 163.683 374.24C163.683 371.72 162.523 370.056 160.203 370.056C157.883 370.056 156.739 371.72 156.731 374.24C156.723 376.76 157.883 378.424 160.203 378.424ZM167.299 380V368.48H169.227V372.52C169.747 371.648 170.595 371.12 171.883 371.12C174.147 371.12 175.795 372.984 175.795 375.68C175.795 378.352 174.155 380.24 171.883 380.24C170.595 380.24 169.747 379.72 169.227 378.84V380H167.299ZM171.483 372.928C169.995 372.928 169.227 374 169.227 375.68C169.227 377.312 169.931 378.432 171.483 378.432C172.995 378.432 173.755 377.352 173.755 375.68C173.755 374.056 173.011 372.928 171.483 372.928ZM179.894 370.048H177.974V368.28H179.894V370.048ZM177.454 383.84H176.27V382.048H176.854C177.63 382.048 177.974 381.704 177.974 380.928V371.36H179.894V381.4C179.894 382.936 179.118 383.84 177.454 383.84ZM185.991 378.464C186.975 378.464 187.615 378.048 187.999 377.232L189.903 377.776C189.239 379.344 187.815 380.24 185.991 380.24C183.407 380.24 181.679 378.376 181.679 375.68C181.679 372.952 183.439 371.12 185.975 371.12C188.727 371.12 190.223 373.104 189.999 376.216H183.751C183.919 377.64 184.727 378.464 185.991 378.464ZM183.799 374.76H188.039C187.943 373.544 187.183 372.832 185.975 372.832C184.807 372.832 184.039 373.536 183.799 374.76ZM195.536 380.24C192.888 380.24 191.304 378.312 191.304 375.68C191.304 373.016 192.952 371.12 195.56 371.12C197.528 371.12 198.976 372.176 199.384 373.88L197.464 374.4C197.168 373.472 196.424 372.928 195.536 372.928C194.048 372.928 193.344 374.072 193.344 375.68C193.344 377.328 194.088 378.432 195.536 378.432C196.568 378.432 197.12 377.944 197.416 377.064L199.384 377.504C198.848 379.264 197.464 380.24 195.536 380.24ZM200.027 373.152V371.36H201.595V368.48H203.515V371.36H206.051V373.152H203.515V377.168C203.515 377.944 203.859 378.288 204.635 378.288H206.051V380H204.235C202.571 380 201.595 379.096 201.595 377.56V373.152H200.027Z" fill="#2D3748"/>
<rect x="141" y="271" width="80" height="80" rx="6" fill="#F4F6FF"/>
<path d="M336.354 311.354C336.549 311.158 336.549 310.842 336.354 310.646L333.172 307.464C332.976 307.269 332.66 307.269 332.464 307.464C332.269 307.66 332.269 307.976 332.464 308.172L335.293 311L332.464 313.828C332.269 314.024 332.269 314.34 332.464 314.536C332.66 314.731 332.976 314.731 333.172 314.536L336.354 311.354ZM233 311.5H336V310.5H233V311.5Z" fill="#2D3748"/>
<path d="M683.354 311.354C683.549 311.158 683.549 310.842 683.354 310.646L680.172 307.464C679.976 307.269 679.66 307.269 679.464 307.464C679.269 307.66 679.269 307.976 679.464 308.172L682.293 311L679.464 313.828C679.269 314.024 679.269 314.34 679.464 314.536C679.66 314.731 679.976 314.731 680.172 314.536L683.354 311.354ZM580 311.5H683V310.5H580V311.5Z" fill="#2D3748"/>
<path d="M167 327H193C193.53 327 194.039 326.789 194.414 326.414C194.789 326.039 195 325.53 195 325V313C195 312.47 194.789 311.961 194.414 311.586C194.039 311.211 193.53 311 193 311H187C186.47 311 185.961 311.211 185.586 311.586C185.211 311.961 185 312.47 185 313V297C185 296.47 184.789 295.961 184.414 295.586C184.039 295.211 183.53 295 183 295H177C176.47 295 175.961 295.211 175.586 295.586C175.211 295.961 175 296.47 175 297V305C175 304.47 174.789 303.961 174.414 303.586C174.039 303.211 173.53 303 173 303H167C166.47 303 165.961 303.211 165.586 303.586C165.211 303.961 165 304.47 165 305V325C165 325.53 165.211 326.039 165.586 326.414C165.961 326.789 166.47 327 167 327ZM167 325V321H169V325H167ZM169 313V315H167V313H169ZM167 311V309H169V311H167ZM169 317V319H167V317H169ZM171 315V313H173V315H171ZM173 317V319H171V317H173ZM171 311V309H173V311H171ZM171 325V321H173V325H171ZM173 307H171V305H173V307ZM169 307H167V305H169V307ZM181 325V321H183V325H181ZM179 305V307H177V305H179ZM177 303V301H179V303H177ZM179 309V311H177V309H179ZM179 313V315H177V313H179ZM179 317V319H177V317H179ZM181 315V313H183V315H181ZM183 317V319H181V317H183ZM181 311V309H183V311H181ZM181 307V305H183V307H181ZM181 303V301H183V303H181ZM183 299H181V297H183V299ZM179 299H177V297H179V299ZM177 321H179V325H177V321ZM189 319H187V317H189V319ZM191 317H193V319H191V317ZM191 321H193V325H191V321ZM193 315H191V313H193V315ZM189 315H187V313H189V315ZM187 321H189V325H187V321Z" fill="#718096"/>
<path d="M5.10375 380H1.46375V368.48H5.10375C8.74375 368.48 10.7918 370.552 10.7918 374.24C10.7918 377.928 8.74375 380 5.10375 380ZM3.40775 370.288V378.192H4.90375C7.47975 378.192 8.75975 376.872 8.75975 374.24C8.75975 371.6 7.47975 370.288 4.90375 370.288H3.40775ZM16.5145 378.464C17.4985 378.464 18.1385 378.048 18.5225 377.232L20.4265 377.776C19.7625 379.344 18.3385 380.24 16.5145 380.24C13.9305 380.24 12.2025 378.376 12.2025 375.68C12.2025 372.952 13.9625 371.12 16.4985 371.12C19.2505 371.12 20.7465 373.104 20.5225 376.216H14.2745C14.4425 377.64 15.2505 378.464 16.5145 378.464ZM14.3225 374.76H18.5625C18.4665 373.544 17.7065 372.832 16.4985 372.832C15.3305 372.832 14.5625 373.536 14.3225 374.76ZM26.267 380H24.331L21.195 371.36H23.131L25.299 377.632L27.475 371.36H29.403L26.267 380ZM34.3583 378.464C35.3423 378.464 35.9823 378.048 36.3663 377.232L38.2703 377.776C37.6063 379.344 36.1823 380.24 34.3583 380.24C31.7743 380.24 30.0463 378.376 30.0463 375.68C30.0463 372.952 31.8063 371.12 34.3423 371.12C37.0943 371.12 38.5903 373.104 38.3663 376.216H32.1183C32.2863 377.64 33.0943 378.464 34.3583 378.464ZM32.1663 374.76H36.4063C36.3103 373.544 35.5503 372.832 34.3423 372.832C33.1743 372.832 32.4063 373.536 32.1663 374.76ZM42.2393 380H40.3113V368.24H42.2393V380ZM48.4516 380.24C45.8756 380.24 44.1556 378.368 44.1556 375.68C44.1556 372.984 45.8916 371.12 48.4516 371.12C51.0436 371.12 52.7636 372.984 52.7636 375.68C52.7636 378.376 51.0356 380.24 48.4516 380.24ZM48.4516 378.432C49.9076 378.432 50.7236 377.392 50.7236 375.68C50.7236 373.944 49.9156 372.928 48.4516 372.928C46.9796 372.928 46.1956 373.944 46.1956 375.68C46.1956 377.408 47.0036 378.432 48.4516 378.432ZM56.4543 383.84H54.5263V371.36H56.4543V372.52C56.9743 371.64 57.8223 371.12 59.1103 371.12C61.3823 371.12 63.0223 373.008 63.0223 375.68C63.0223 378.376 61.3743 380.24 59.1103 380.24C57.8223 380.24 56.9743 379.712 56.4543 378.84V383.84ZM58.7103 378.432C60.2383 378.432 60.9823 377.304 60.9823 375.68C60.9823 374.008 60.2223 372.928 58.7103 372.928C57.1583 372.928 56.4543 374.048 56.4543 375.68C56.4543 377.36 57.2223 378.432 58.7103 378.432ZM68.6083 378.464C69.5923 378.464 70.2323 378.048 70.6163 377.232L72.5203 377.776C71.8563 379.344 70.4323 380.24 68.6083 380.24C66.0243 380.24 64.2963 378.376 64.2963 375.68C64.2963 372.952 66.0563 371.12 68.5923 371.12C71.3443 371.12 72.8403 373.104 72.6163 376.216H66.3683C66.5363 377.64 67.3443 378.464 68.6083 378.464ZM66.4163 374.76H70.6563C70.5603 373.544 69.8003 372.832 68.5923 372.832C67.4243 372.832 66.6563 373.536 66.4163 374.76ZM79.2573 371.136V372.992C79.0093 372.936 78.7053 372.928 78.3453 372.928C77.0493 372.928 76.3133 373.76 76.3133 375.24V380H74.3853V371.36H76.3133V372.488C76.7373 371.704 77.5133 371.12 78.8493 371.12C78.9853 371.12 79.1213 371.128 79.2573 371.136Z" fill="#2D3748"/>
<rect x="1" y="271" width="80" height="80" rx="6" fill="#F4F6FF"/>
<g clip-path="url(#clip0_3073_11394)">
<path d="M28.4253 321.676V309.499H28.58L28.5659 309.428C31.5892 308.62 33.9797 308.599 35.871 309.056C37.927 309.524 39.7331 310.746 40.9333 312.48C42.684 314.955 42.8597 317.774 42.8597 317.781V322.239H28.4253V321.676ZM39.3162 319.532H39.3865C39.5208 319.515 39.6445 319.45 39.7349 319.349C39.8253 319.249 39.8763 319.119 39.8786 318.983V318.906V318.969V316.797C39.7727 315.672 39.3859 314.591 38.7537 313.654C38.0448 312.632 36.9788 311.912 35.7656 311.636C34.3639 311.352 32.9134 311.425 31.547 311.847C31.4157 311.88 31.3007 311.96 31.2232 312.071C31.1457 312.182 31.1109 312.317 31.1252 312.452L31.2869 318.983C31.2905 319.13 31.3514 319.27 31.4565 319.372C31.5616 319.475 31.7026 319.532 31.8493 319.532H39.3162Z" fill="#718096"/>
<path fill-rule="evenodd" clip-rule="evenodd" d="M51.4023 296.605L38.2967 311.187L37.0452 310.062L51.0367 294.488C50.9492 294.847 50.9365 295.22 50.9994 295.584C51.0623 295.949 51.1994 296.296 51.4023 296.605ZM53.5537 297.821L42.8105 317.711L41.327 316.91L51.9648 297.223C52.4159 297.589 52.9734 297.799 53.5537 297.821Z" fill="#718096"/>
<path fill-rule="evenodd" clip-rule="evenodd" d="M43.0705 312.262L41.2495 306.356L41.1652 306.082C41.1205 305.933 41.1177 305.775 41.1571 305.625C41.1965 305.475 41.2766 305.338 41.3886 305.231C41.5005 305.123 41.64 305.049 41.7916 305.015C41.9432 304.982 42.1011 304.991 42.2479 305.041L45.9673 306.138L44.5963 302.742L44.4908 302.482C44.4403 302.358 44.4201 302.224 44.4319 302.09C44.4437 301.957 44.4871 301.828 44.5586 301.714C44.63 301.601 44.7275 301.506 44.8429 301.438C44.9582 301.37 45.0882 301.33 45.222 301.322L49.3702 300.978L48.5265 298.257L48.4422 297.989C48.4096 297.883 48.3984 297.772 48.4091 297.661C48.4198 297.551 48.4522 297.443 48.5044 297.345C48.5567 297.247 48.6278 297.161 48.7136 297.09C48.7994 297.02 48.8983 296.967 49.0046 296.935C49.0257 296.921 49.0539 296.921 49.082 296.914L51.2616 296.365C51.273 296.384 51.2848 296.403 51.2967 296.421L51.3108 296.45V296.457L51.3248 296.478L51.3389 296.506V296.513L51.36 296.534L51.374 296.569L51.3951 296.59L51.4162 296.618C51.4476 296.664 51.4805 296.708 51.5147 296.752L51.5287 296.78L51.5498 296.808C51.5988 296.869 51.6504 296.928 51.7045 296.984L51.7256 297.005V297.012L51.7467 297.033L51.7678 297.054L51.7959 297.075L51.817 297.096L51.824 297.103L51.8451 297.125L51.8732 297.146L51.8943 297.167C51.9174 297.188 51.9408 297.209 51.9646 297.23H51.9787L51.9928 297.251H52.0068L52.0209 297.272L52.049 297.293C52.0676 297.305 52.0864 297.317 52.1053 297.328L52.1334 297.35L52.1545 297.364L52.1896 297.385L52.2107 297.406L52.2389 297.42L52.267 297.441L52.2951 297.455H52.3092L52.3232 297.469C52.3418 297.481 52.3676 297.493 52.3865 297.504L52.4146 297.518L52.4427 297.532L52.4709 297.546C52.4918 297.556 52.5129 297.565 52.5341 297.575L52.5623 297.589L52.5904 297.603H52.5974L52.6185 297.617L52.6466 297.624L52.6818 297.638L52.7099 297.652C52.7333 297.659 52.7567 297.666 52.7802 297.673L52.8013 297.68L52.8294 297.694L52.8646 297.701L50.3194 298.334L51.2756 301.442C51.2967 301.512 51.3178 301.582 51.3248 301.66C51.3404 301.834 51.3014 302.009 51.2133 302.16C51.1251 302.311 50.9921 302.431 50.8327 302.503V302.552L50.5725 302.574H50.5514L50.2702 302.595L46.4735 302.911L48.1609 307.087C48.2453 307.277 48.2664 307.481 48.2101 307.678C48.1787 307.785 48.1264 307.885 48.0563 307.971C47.9862 308.058 47.8996 308.13 47.8015 308.183C47.7035 308.235 47.5959 308.268 47.485 308.28C47.3741 308.291 47.2621 308.28 47.1555 308.247L46.8954 308.17L43.2393 307.087L45.0533 312.965C45.1023 313.101 45.1158 313.246 45.0926 313.388C45.0694 313.53 45.0102 313.664 44.9208 313.777C44.8313 313.89 44.7144 313.978 44.5813 314.032C44.4482 314.087 44.3033 314.107 44.1603 314.09L40.3777 313.633C40.1549 313.606 39.9519 313.492 39.8135 313.315C39.675 313.138 39.6124 312.914 39.6395 312.691C39.6665 312.468 39.781 312.265 39.9576 312.127C40.1343 311.988 40.3588 311.926 40.5816 311.953L43.0705 312.262Z" fill="#718096"/>
<path d="M26.3721 321.114H44.9126C45.152 321.113 45.3892 321.159 45.6106 321.25C45.8319 321.342 46.033 321.476 46.2023 321.645C46.3716 321.814 46.5057 322.015 46.5969 322.237C46.6881 322.458 46.7345 322.695 46.7336 322.935V327.181C46.7345 327.42 46.688 327.657 46.5967 327.878C46.5055 328.099 46.3713 328.3 46.2019 328.469C46.0325 328.637 45.8313 328.771 45.61 328.861C45.3887 328.952 45.1516 328.997 44.9126 328.995H26.3721C26.133 328.997 25.896 328.952 25.6746 328.861C25.4533 328.771 25.2522 328.637 25.0828 328.469C24.9134 328.3 24.7792 328.099 24.6879 327.878C24.5967 327.657 24.5501 327.42 24.5511 327.181V322.935C24.5492 322.695 24.595 322.457 24.6859 322.236C24.7767 322.014 24.9108 321.812 25.0803 321.643C25.2497 321.473 25.4512 321.339 25.673 321.248C25.8948 321.158 26.1324 321.112 26.3721 321.114ZM41.2987 324.784C41.1495 324.784 41.0065 324.843 40.901 324.949C40.7955 325.054 40.7362 325.197 40.7362 325.346C40.7362 325.495 40.7955 325.639 40.901 325.744C41.0065 325.849 41.1495 325.909 41.2987 325.909H43.9423C44.0915 325.909 44.2346 325.849 44.34 325.744C44.4455 325.639 44.5048 325.495 44.5048 325.346C44.5048 325.197 44.4455 325.054 44.34 324.949C44.2346 324.843 44.0915 324.784 43.9423 324.784H41.2987ZM36.6442 324.784C36.4951 324.784 36.352 324.843 36.2465 324.949C36.141 325.054 36.0818 325.197 36.0818 325.346C36.0818 325.495 36.141 325.639 36.2465 325.744C36.352 325.849 36.4951 325.909 36.6442 325.909H39.2879C39.437 325.909 39.5801 325.849 39.6856 325.744C39.7911 325.639 39.8503 325.495 39.8503 325.346C39.8503 325.197 39.7911 325.054 39.6856 324.949C39.5801 324.843 39.437 324.784 39.2879 324.784H36.6442ZM31.9968 324.784C31.8476 324.784 31.7046 324.843 31.5991 324.949C31.4936 325.054 31.4343 325.197 31.4343 325.346C31.4343 325.495 31.4936 325.639 31.5991 325.744C31.7046 325.849 31.8476 325.909 31.9968 325.909H34.6404C34.7896 325.909 34.9327 325.849 35.0382 325.744C35.1436 325.639 35.2029 325.495 35.2029 325.346C35.2029 325.197 35.1436 325.054 35.0382 324.949C34.9327 324.843 34.7896 324.784 34.6404 324.784H31.9968ZM27.3424 324.784C27.1932 324.784 27.0501 324.843 26.9446 324.949C26.8391 325.054 26.7799 325.197 26.7799 325.346C26.7799 325.495 26.8391 325.639 26.9446 325.744C27.0501 325.849 27.1932 325.909 27.3424 325.909H29.986C30.1351 325.909 30.2782 325.849 30.3837 325.744C30.4892 325.639 30.5484 325.495 30.5484 325.346C30.5484 325.197 30.4892 325.054 30.3837 324.949C30.2782 324.843 30.1351 324.784 29.986 324.784H27.3424ZM53.652 293.004C53.9416 292.987 54.2315 293.03 54.504 293.129C54.7766 293.229 55.0259 293.383 55.2368 293.582C55.4478 293.781 55.6158 294.021 55.7306 294.288C55.8455 294.554 55.9047 294.841 55.9047 295.131C55.9047 295.421 55.8455 295.708 55.7306 295.974C55.6158 296.241 55.4478 296.481 55.2368 296.68C55.0259 296.879 54.7766 297.033 54.504 297.132C54.2315 297.232 53.9416 297.274 53.652 297.258C53.087 297.258 52.5451 297.033 52.1456 296.634C51.7461 296.234 51.5216 295.692 51.5216 295.127C51.5216 294.562 51.7461 294.021 52.1456 293.621C52.5451 293.222 53.087 293.004 53.652 293.004ZM54.6574 295.127C54.6574 294.995 54.6314 294.865 54.5809 294.743C54.5304 294.621 54.4563 294.51 54.3629 294.416C54.2696 294.323 54.1587 294.249 54.0368 294.199C53.9148 294.148 53.784 294.122 53.652 294.122C53.52 294.122 53.3892 294.148 53.2672 294.199C53.1453 294.249 53.0344 294.323 52.9411 294.416C52.8477 294.51 52.7736 294.621 52.7231 294.743C52.6726 294.865 52.6466 294.995 52.6466 295.127C52.6466 295.394 52.7525 295.65 52.9411 295.838C53.1296 296.027 53.3853 296.133 53.652 296.133C53.9187 296.133 54.1744 296.027 54.3629 295.838C54.5515 295.65 54.6574 295.394 54.6574 295.127Z" fill="#718096"/>
<path fill-rule="evenodd" clip-rule="evenodd" d="M55.5084 317.458V317.654C55.9857 317.807 56.4129 318.085 56.7448 318.46C57.0767 318.836 57.301 319.294 57.3938 319.786C57.4866 320.278 57.4445 320.786 57.272 321.257C57.0995 321.727 56.803 322.142 56.4139 322.458C56.0248 322.773 55.5576 322.977 55.0618 323.049C54.5659 323.121 54.06 323.057 53.5975 322.864C53.135 322.672 52.7332 322.358 52.4346 321.956C52.136 321.553 51.9518 321.078 51.9015 320.579H51.8875V320.298C51.8875 320.074 51.9763 319.86 52.1346 319.701C52.2928 319.543 52.5074 319.454 52.7312 319.454C52.9549 319.454 53.1695 319.543 53.3278 319.701C53.486 319.86 53.5749 320.074 53.5749 320.298V320.368C53.591 320.646 53.7129 320.908 53.9156 321.098C54.1182 321.289 54.3863 321.395 54.6647 321.395C54.8086 321.396 54.9513 321.368 55.0845 321.313C55.2176 321.258 55.3384 321.177 55.4399 321.075C55.5413 320.973 55.6214 320.852 55.6755 320.718C55.7295 320.585 55.7563 320.442 55.7545 320.298C55.7557 320.038 55.6633 319.786 55.4942 319.589C55.3251 319.391 55.0905 319.261 54.8334 319.222L54.6647 319.243H54.6506C54.1795 319.272 53.821 318.85 53.821 318.4V297.813C54.4519 297.776 55.0495 297.517 55.5084 297.082V317.458Z" fill="#718096"/>
<path fill-rule="evenodd" clip-rule="evenodd" d="M53.1389 315.278H56.1903C56.4141 315.278 56.6287 315.367 56.7869 315.525C56.9451 315.684 57.034 315.898 57.034 316.122C57.034 316.346 56.9451 316.56 56.7869 316.719C56.6287 316.877 56.4141 316.966 56.1903 316.966H53.1389C52.9151 316.966 52.7005 316.877 52.5423 316.719C52.3841 316.56 52.2952 316.346 52.2952 316.122C52.2952 315.898 52.3841 315.684 52.5423 315.525C52.7005 315.367 52.9151 315.278 53.1389 315.278Z" fill="#718096"/>
</g>
<path d="M132.354 311.354C132.549 311.158 132.549 310.842 132.354 310.646L129.172 307.464C128.976 307.269 128.66 307.269 128.464 307.464C128.269 307.66 128.269 307.976 128.464 308.172L131.293 311L128.464 313.828C128.269 314.024 128.269 314.34 128.464 314.536C128.66 314.731 128.976 314.731 129.172 314.536L132.354 311.354ZM91 311.5H132V310.5H91V311.5Z" fill="#2D3748"/>
<path d="M479.354 311.354C479.549 311.158 479.549 310.842 479.354 310.646L476.172 307.464C475.976 307.269 475.66 307.269 475.464 307.464C475.269 307.66 475.269 307.976 475.464 308.172L478.293 311L475.464 313.828C475.269 314.024 475.269 314.34 475.464 314.536C475.66 314.731 475.976 314.731 476.172 314.536L479.354 311.354ZM438 311.5H479V310.5H438V311.5Z" fill="#2D3748"/>
<path d="M541.646 260.354C541.842 260.549 542.158 260.549 542.354 260.354L545.536 257.172C545.731 256.976 545.731 256.66 545.536 256.464C545.34 256.269 545.024 256.269 544.828 256.464L542 259.293L539.172 256.464C538.976 256.269 538.66 256.269 538.464 256.464C538.269 256.66 538.269 256.976 538.464 257.172L541.646 260.354ZM541.5 104L541.5 260L542.5 260L542.5 104L541.5 104Z" fill="#2D3748"/>
<path d="M191 513.001L191 512.501L191 513.001ZM181 503.001L180.5 503.001L181 503.001ZM181.354 395.647C181.158 395.452 180.842 395.452 180.647 395.647L177.465 398.829C177.269 399.024 177.269 399.341 177.465 399.536C177.66 399.731 177.976 399.731 178.172 399.536L181 396.708L183.829 399.536C184.024 399.731 184.34 399.731 184.536 399.536C184.731 399.341 184.731 399.024 184.536 398.829L181.354 395.647ZM403 512.501L191 512.501L191 513.501L403 513.501L403 512.501ZM181.5 503.001L181.5 396.001L180.5 396.001L180.5 503.001L181.5 503.001ZM191 512.501C185.753 512.501 181.5 508.247 181.5 503.001L180.5 503.001C180.5 508.8 185.201 513.501 191 513.501L191 512.501Z" fill="#2D3748"/>
<path d="M388 503L387.5 503L387.5 503L388 503ZM388.354 396.646C388.158 396.451 387.842 396.451 387.646 396.646L384.464 399.828C384.269 400.024 384.269 400.34 384.464 400.536C384.66 400.731 384.976 400.731 385.172 400.536L388 397.707L390.828 400.536C391.024 400.731 391.34 400.731 391.535 400.536C391.731 400.34 391.731 400.024 391.536 399.828L388.354 396.646ZM796.5 513L796.5 512.5L796.5 513ZM398 513L398 513.5L398 513ZM796.5 311L796.5 310.5L796.5 310.5L796.5 311ZM806.5 321L807 321L806.5 321ZM806.5 503L806 503L806.5 503ZM388.5 503L388.5 397L387.5 397L387.5 503L388.5 503ZM796.5 512.5L398 512.5L398 513.5L796.5 513.5L796.5 512.5ZM786 311.5L796.5 311.5L796.5 310.5L786 310.5L786 311.5ZM806 321L806 503L807 503L807 321L806 321ZM796.5 311.5C801.747 311.499 806 315.753 806 321L807 321C807 315.201 802.299 310.499 796.5 310.5L796.5 311.5ZM796.5 513.5C802.299 513.5 807 508.799 807 503L806 503C806 508.247 801.747 512.5 796.5 512.5L796.5 513.5ZM387.5 503C387.5 508.799 392.201 513.5 398 513.5L398 512.5C392.753 512.5 388.5 508.247 388.5 503L387.5 503Z" fill="#2D3748"/>
<path d="M181 114L180.5 114L180.5 114L181 114ZM191 104L191 103.5L191 104ZM403.353 104.353C403.549 104.158 403.549 103.842 403.353 103.646L400.171 100.464C399.976 100.269 399.66 100.269 399.464 100.464C399.269 100.66 399.269 100.976 399.464 101.171L402.293 104L399.464 106.828C399.269 107.024 399.269 107.34 399.464 107.535C399.66 107.731 399.976 107.731 400.171 107.535L403.353 104.353ZM181.5 256L181.5 114L180.5 114L180.5 256L181.5 256ZM191 104.5L403 104.5L403 103.5L191 103.5L191 104.5ZM181.5 114C181.5 108.753 185.753 104.5 191 104.5L191 103.5C185.201 103.5 180.5 108.201 180.5 114L181.5 114Z" fill="#2D3748"/>
<path d="M725 104L725 104.5L725 104.5L725 104ZM735 114L735.5 114L735.5 114L735 114ZM734.646 259.354C734.842 259.549 735.158 259.549 735.354 259.354L738.536 256.172C738.731 255.976 738.731 255.66 738.536 255.464C738.34 255.269 738.024 255.269 737.828 255.464L735 258.293L732.172 255.464C731.976 255.269 731.66 255.269 731.464 255.464C731.269 255.66 731.269 255.976 731.464 256.172L734.646 259.354ZM521 104.5L725 104.5L725 103.5L521 103.5L521 104.5ZM734.5 114L734.5 259L735.5 259L735.5 114L734.5 114ZM725 104.5C730.247 104.5 734.5 108.753 734.5 114L735.5 114C735.5 108.201 730.799 103.5 725 103.5L725 104.5Z" fill="#2D3748"/>
<path d="M715.078 380.24C711.63 380.24 709.566 377.816 709.566 374.24C709.566 370.664 711.63 368.24 715.078 368.24C718.534 368.24 720.598 370.664 720.598 374.24C720.598 377.816 718.534 380.24 715.078 380.24ZM715.078 378.424C717.398 378.424 718.558 376.76 718.558 374.24C718.558 371.72 717.398 370.056 715.078 370.056C712.758 370.056 711.614 371.72 711.606 374.24C711.598 376.76 712.758 378.424 715.078 378.424ZM729.046 380L727.51 374.4L725.982 380H724.046L721.39 371.36H723.318L725.014 377.32L726.702 371.36H728.326L730.014 377.32L731.702 371.36H733.63L730.982 380H729.046ZM741.025 380V375.24C741.025 373.768 740.313 372.928 739.009 372.928C737.705 372.928 736.977 373.76 736.977 375.24V380H735.049V371.36H736.977V372.488C737.401 371.704 738.177 371.12 739.513 371.12C741.577 371.12 742.953 372.288 742.953 374.84V380H741.025ZM748.866 378.464C749.85 378.464 750.49 378.048 750.874 377.232L752.778 377.776C752.114 379.344 750.69 380.24 748.866 380.24C746.282 380.24 744.554 378.376 744.554 375.68C744.554 372.952 746.314 371.12 748.85 371.12C751.602 371.12 753.098 373.104 752.874 376.216H746.626C746.794 377.64 747.602 378.464 748.866 378.464ZM746.674 374.76H750.914C750.818 373.544 750.058 372.832 748.85 372.832C747.682 372.832 746.914 373.536 746.674 374.76ZM759.515 371.136V372.992C759.267 372.936 758.963 372.928 758.603 372.928C757.307 372.928 756.571 373.76 756.571 375.24V380H754.643V371.36H756.571V372.488C756.995 371.704 757.771 371.12 759.107 371.12C759.243 371.12 759.379 371.128 759.515 371.136Z" fill="#2D3748"/>
<rect x="695" y="271" width="80" height="80" rx="6" fill="#F4F6FF"/>
<path d="M731.156 324.238C729.112 321.041 728.081 316.888 728.006 312.706L723.347 314.731C720.806 315.837 719.166 318.294 719.166 321.012V328.578H733.931L731.156 324.238ZM746.653 314.731L741.994 312.706C741.919 316.888 740.887 321.041 738.844 324.238L736.069 328.578H750.834V321.012C750.834 318.294 749.194 315.828 746.653 314.731ZM735 293.422C731.119 293.422 727.969 296.572 727.969 300.453V302.216C727.997 306.106 731.128 312.706 735 312.706C738.872 312.706 742.003 306.106 742.031 302.216V300.453C742.031 296.572 738.881 293.422 735 293.422ZM738.516 317.15V315.397C738.516 314.909 738.122 314.516 737.634 314.516H732.366C731.878 314.516 731.484 314.909 731.484 315.397V317.15C731.484 317.638 731.878 318.031 732.366 318.031H733.256L731.503 321.537L734.991 326.816L738.516 321.537L736.762 318.031H737.634C738.122 318.031 738.516 317.638 738.516 317.15Z" fill="#718096"/>
<path d="M409.431 168H407.487V156.48H409.423L413.143 164.232L416.863 156.48H418.799V168H416.863V160.352L413.959 166.416H412.327L409.431 160.352V168ZM424.514 159.12C426.986 159.12 428.17 160.344 428.17 162.896V168H426.25V166.84C425.682 167.768 424.754 168.24 423.458 168.24C421.706 168.24 420.554 167.208 420.554 165.648C420.554 163.952 421.754 163.04 423.97 162.76L426.242 162.48C426.21 161.336 425.626 160.816 424.514 160.816C423.474 160.816 422.882 161.192 422.618 162.016L420.866 161.544C421.322 159.976 422.618 159.12 424.514 159.12ZM426.25 163.888L424.242 164.136C423.01 164.288 422.442 164.72 422.442 165.488C422.442 166.248 422.946 166.632 423.922 166.632C424.978 166.632 425.778 166.048 426.066 165.272C426.242 164.856 426.25 164.352 426.25 163.968V163.888ZM436.213 168V163.24C436.213 161.768 435.501 160.928 434.197 160.928C432.893 160.928 432.165 161.76 432.165 163.24V168H430.237V159.36H432.165V160.488C432.589 159.704 433.365 159.12 434.701 159.12C436.765 159.12 438.141 160.288 438.141 162.84V168H436.213ZM443.702 159.12C446.174 159.12 447.358 160.344 447.358 162.896V168H445.438V166.84C444.87 167.768 443.942 168.24 442.646 168.24C440.894 168.24 439.742 167.208 439.742 165.648C439.742 163.952 440.942 163.04 443.158 162.76L445.43 162.48C445.398 161.336 444.814 160.816 443.702 160.816C442.662 160.816 442.07 161.192 441.806 162.016L440.054 161.544C440.51 159.976 441.806 159.12 443.702 159.12ZM445.438 163.888L443.43 164.136C442.198 164.288 441.63 164.72 441.63 165.488C441.63 166.248 442.134 166.632 443.11 166.632C444.166 166.632 444.966 166.048 445.254 165.272C445.43 164.856 445.438 164.352 445.438 163.968V163.888ZM452.872 159.12C454.152 159.12 455.008 159.608 455.528 160.448V159.36H457.456V167.544C457.456 170.16 455.936 172.08 453.2 172.08C451.272 172.08 449.76 171.104 449.224 169.344L451.184 168.904C451.488 169.792 452.176 170.272 453.2 170.272C454.72 170.272 455.528 169.168 455.528 167.52V166.592C455.008 167.432 454.152 167.92 452.872 167.92C450.624 167.92 448.96 166.192 448.96 163.52C448.96 160.824 450.632 159.12 452.872 159.12ZM453.272 166.112C454.728 166.112 455.528 165.088 455.528 163.52C455.528 161.904 454.664 160.928 453.272 160.928C451.84 160.928 451 161.96 451 163.52C451 165.128 451.856 166.112 453.272 166.112ZM463.522 166.464C464.506 166.464 465.146 166.048 465.53 165.232L467.434 165.776C466.77 167.344 465.346 168.24 463.522 168.24C460.938 168.24 459.21 166.376 459.21 163.68C459.21 160.952 460.97 159.12 463.506 159.12C466.258 159.12 467.754 161.104 467.53 164.216H461.282C461.45 165.64 462.258 166.464 463.522 166.464ZM461.33 162.76H465.57C465.474 161.544 464.714 160.832 463.506 160.832C462.338 160.832 461.57 161.536 461.33 162.76ZM474.257 168V162.84C474.257 161.68 473.745 160.928 472.633 160.928C471.513 160.928 470.993 161.68 470.993 162.84V168H469.065V159.36H470.993V160.4C471.353 159.68 472.001 159.12 473.121 159.12C474.409 159.12 475.305 159.584 475.777 160.488C476.249 159.696 477.057 159.12 478.193 159.12C480.265 159.12 481.385 160.24 481.385 162.44V168H479.457V162.84C479.457 161.68 478.953 160.928 477.833 160.928C476.721 160.928 476.193 161.68 476.193 162.84L476.177 162.832V168H474.257ZM487.304 166.464C488.288 166.464 488.928 166.048 489.312 165.232L491.216 165.776C490.552 167.344 489.128 168.24 487.304 168.24C484.72 168.24 482.992 166.376 482.992 163.68C482.992 160.952 484.752 159.12 487.288 159.12C490.04 159.12 491.536 161.104 491.312 164.216H485.064C485.232 165.64 486.04 166.464 487.304 166.464ZM485.112 162.76H489.352C489.256 161.544 488.496 160.832 487.288 160.832C486.12 160.832 485.352 161.536 485.112 162.76ZM498.822 168V163.24C498.822 161.768 498.11 160.928 496.806 160.928C495.502 160.928 494.774 161.76 494.774 163.24V168H492.846V159.36H494.774V160.488C495.198 159.704 495.974 159.12 497.31 159.12C499.374 159.12 500.75 160.288 500.75 162.84V168H498.822ZM501.871 161.152V159.36H503.439V156.48H505.359V159.36H507.895V161.152H505.359V165.168C505.359 165.944 505.703 166.288 506.479 166.288H507.895V168H506.079C504.415 168 503.439 167.096 503.439 165.56V161.152H501.871ZM426.344 186.24C422.896 186.24 420.832 183.816 420.832 180.24C420.832 176.664 422.896 174.24 426.344 174.24C428.992 174.24 430.816 175.664 431.528 177.92L429.584 178.456C429.136 176.96 428.064 176.056 426.344 176.056C424.096 176.056 422.856 177.72 422.856 180.24C422.856 182.76 424.024 184.424 426.344 184.424C428.064 184.424 429.136 183.52 429.584 182.024L431.528 182.56C430.816 184.816 428.992 186.24 426.344 186.24ZM437.1 186.24C434.524 186.24 432.804 184.368 432.804 181.68C432.804 178.984 434.54 177.12 437.1 177.12C439.692 177.12 441.412 178.984 441.412 181.68C441.412 184.376 439.684 186.24 437.1 186.24ZM437.1 184.432C438.556 184.432 439.372 183.392 439.372 181.68C439.372 179.944 438.564 178.928 437.1 178.928C435.628 178.928 434.844 179.944 434.844 181.68C434.844 183.408 435.652 184.432 437.1 184.432ZM448.351 186V180.84C448.351 179.68 447.839 178.928 446.727 178.928C445.607 178.928 445.087 179.68 445.087 180.84V186H443.159V177.36H445.087V178.4C445.447 177.68 446.095 177.12 447.215 177.12C448.503 177.12 449.399 177.584 449.871 178.488C450.343 177.696 451.151 177.12 452.287 177.12C454.359 177.12 455.479 178.24 455.479 180.44V186H453.551V180.84C453.551 179.68 453.047 178.928 451.927 178.928C450.815 178.928 450.287 179.68 450.287 180.84L450.271 180.832V186H448.351ZM459.493 189.84H457.565V177.36H459.493V178.52C460.013 177.64 460.861 177.12 462.149 177.12C464.421 177.12 466.061 179.008 466.061 181.68C466.061 184.376 464.413 186.24 462.149 186.24C460.861 186.24 460.013 185.712 459.493 184.84V189.84ZM461.749 184.432C463.277 184.432 464.021 183.304 464.021 181.68C464.021 180.008 463.261 178.928 461.749 178.928C460.197 178.928 459.493 180.048 459.493 181.68C459.493 183.36 460.261 184.432 461.749 184.432ZM471.295 177.12C473.767 177.12 474.951 178.344 474.951 180.896V186H473.031V184.84C472.463 185.768 471.535 186.24 470.239 186.24C468.487 186.24 467.335 185.208 467.335 183.648C467.335 181.952 468.535 181.04 470.751 180.76L473.023 180.48C472.991 179.336 472.407 178.816 471.295 178.816C470.255 178.816 469.663 179.192 469.399 180.016L467.647 179.544C468.103 177.976 469.399 177.12 471.295 177.12ZM473.031 181.888L471.023 182.136C469.791 182.288 469.223 182.72 469.223 183.488C469.223 184.248 469.727 184.632 470.703 184.632C471.759 184.632 472.559 184.048 472.847 183.272C473.023 182.856 473.031 182.352 473.031 181.968V181.888ZM482.994 186V181.24C482.994 179.768 482.282 178.928 480.978 178.928C479.674 178.928 478.946 179.76 478.946 181.24V186H477.018V177.36H478.946V178.488C479.37 177.704 480.146 177.12 481.482 177.12C483.546 177.12 484.922 178.288 484.922 180.84V186H482.994ZM489.759 189.84H487.951L489.375 185.944L485.879 177.36H487.887L490.295 183.544L492.647 177.36H494.575L489.759 189.84Z" fill="#2D3748"/>
<rect x="418" y="64" width="80" height="80" rx="6" fill="#F4F6FF"/>
<path d="M474.875 98.375C474.874 97.1819 474.399 96.0381 473.556 95.1945C472.712 94.3508 471.568 93.8763 470.375 93.875H467V92.75C466.999 91.8552 466.643 90.9973 466.01 90.3645C465.378 89.7318 464.52 89.3759 463.625 89.375H452.375C451.48 89.3759 450.622 89.7318 449.99 90.3645C449.357 90.9973 449.001 91.8552 449 92.75V93.875H445.625C444.432 93.8763 443.288 94.3508 442.444 95.1945C441.601 96.0381 441.126 97.1819 441.125 98.375V101.75H474.875V98.375ZM464.75 93.875H451.25V92.75C451.25 92.4516 451.369 92.1655 451.58 91.9545C451.79 91.7435 452.077 91.625 452.375 91.625H463.625C463.923 91.625 464.21 91.7435 464.42 91.9545C464.631 92.1655 464.75 92.4516 464.75 92.75V93.875ZM463.625 104.562C463.625 105.01 463.447 105.439 463.131 105.756C462.814 106.072 462.385 106.25 461.938 106.25H454.062C453.615 106.25 453.186 106.072 452.869 105.756C452.553 105.439 452.375 105.01 452.375 104.562V104.281C452.375 104.207 452.345 104.135 452.293 104.082C452.24 104.03 452.168 104 452.094 104H441.125V114.125C441.125 115.318 441.599 116.463 442.443 117.307C443.287 118.151 444.432 118.625 445.625 118.625H470.375C471.568 118.625 472.713 118.151 473.557 117.307C474.401 116.463 474.875 115.318 474.875 114.125V104H463.906C463.832 104 463.76 104.03 463.707 104.082C463.655 104.135 463.625 104.207 463.625 104.281V104.562Z" fill="#718096"/>
<path d="M209.351 92H208.315V81.92H212.053C214.153 81.92 215.378 83.124 215.378 85.049C215.378 86.967 214.146 88.171 212.053 88.171H209.351V92ZM209.351 82.907V87.191H212.046C213.474 87.191 214.321 86.386 214.321 85.049C214.321 83.705 213.474 82.907 212.046 82.907H209.351ZM220.495 84.237V85.245C220.362 85.217 220.215 85.217 220.04 85.217C218.745 85.217 217.8 85.966 217.8 87.849V92H216.771V84.44H217.8V85.567C218.15 84.895 218.836 84.23 220.215 84.23C220.313 84.23 220.397 84.23 220.495 84.237ZM224.843 92.21C222.596 92.21 221.266 90.565 221.266 88.213C221.266 85.84 222.631 84.23 224.843 84.23C227.104 84.23 228.427 85.868 228.427 88.213C228.427 90.593 227.083 92.21 224.843 92.21ZM224.843 91.223C226.495 91.223 227.335 90.026 227.335 88.213C227.335 86.372 226.488 85.217 224.843 85.217C223.177 85.217 222.358 86.414 222.358 88.213C222.358 90.054 223.219 91.223 224.843 91.223ZM231 95.36H229.971V84.44H231V85.707C231.497 84.783 232.358 84.23 233.625 84.23C235.774 84.23 237.069 85.875 237.069 88.213C237.069 90.593 235.753 92.21 233.625 92.21C232.351 92.21 231.497 91.65 231 90.733V95.36ZM233.485 91.223C235.165 91.223 235.977 89.998 235.977 88.213C235.977 86.393 235.151 85.217 233.485 85.217C231.791 85.217 231 86.449 231 88.213C231 90.033 231.847 91.223 233.485 91.223ZM241.811 91.237C242.938 91.237 243.68 90.705 244.128 89.781L245.101 90.138C244.499 91.468 243.316 92.21 241.811 92.21C239.62 92.21 238.192 90.649 238.192 88.22C238.192 85.777 239.592 84.23 241.769 84.23C244.037 84.23 245.325 85.847 245.248 88.507H239.291C239.389 90.229 240.327 91.237 241.811 91.237ZM239.312 87.646H244.163C244.037 86.064 243.183 85.182 241.769 85.182C240.369 85.182 239.48 86.085 239.312 87.646ZM250.518 84.237V85.245C250.385 85.217 250.238 85.217 250.063 85.217C248.768 85.217 247.823 85.966 247.823 87.849V92H246.794V84.44H247.823V85.567C248.173 84.895 248.859 84.23 250.238 84.23C250.336 84.23 250.42 84.23 250.518 84.237ZM251.006 85.42V84.44H252.623V81.913H253.645V84.44H255.962V85.42H253.645V89.851C253.645 90.719 253.967 91.048 254.828 91.048H255.962V92H254.555C253.351 92 252.623 91.293 252.623 90.131V85.42H251.006ZM259.354 95.36H258.325L259.571 91.986L256.498 84.44H257.59L260.068 90.656L262.364 84.44H263.414L259.354 95.36ZM271.149 84.237V85.245C271.016 85.217 270.869 85.217 270.694 85.217C269.399 85.217 268.454 85.966 268.454 87.849V92H267.425V84.44H268.454V85.567C268.804 84.895 269.49 84.23 270.869 84.23C270.967 84.23 271.051 84.23 271.149 84.237ZM273.646 83.005H272.617V81.85H273.646V83.005ZM273.646 92H272.617V84.44H273.646V92ZM278.769 84.23C280.015 84.23 280.89 84.762 281.394 85.672V84.44H282.423V91.587C282.423 93.925 281.191 95.57 278.881 95.57C277.383 95.57 276.235 94.849 275.668 93.505L276.697 93.197C277.082 94.107 277.859 94.583 278.881 94.583C280.533 94.583 281.394 93.393 281.394 91.58V90.495C280.883 91.405 280.001 91.93 278.769 91.93C276.711 91.93 275.325 90.425 275.325 88.087C275.325 85.707 276.732 84.23 278.769 84.23ZM278.909 90.943C280.484 90.943 281.394 89.83 281.394 88.087C281.394 86.288 280.428 85.217 278.909 85.217C277.348 85.217 276.417 86.323 276.417 88.087C276.417 89.886 277.362 90.943 278.909 90.943ZM289.838 92V87.849C289.838 85.973 288.956 85.217 287.647 85.217C286.352 85.217 285.407 85.966 285.407 87.849V92H284.378V81.92H285.407V85.567C285.757 84.895 286.443 84.23 287.822 84.23C289.649 84.23 290.867 85.315 290.867 87.709V92H289.838ZM291.844 85.42V84.44H293.461V81.913H294.483V84.44H296.8V85.42H294.483V89.851C294.483 90.719 294.805 91.048 295.666 91.048H296.8V92H295.393C294.189 92 293.461 91.293 293.461 90.131V85.42H291.844ZM301.118 92.203C299.361 92.203 298.234 91.475 297.87 90.033L298.934 89.844C299.207 90.796 299.956 91.265 301.132 91.265C302.315 91.265 303.029 90.775 303.029 89.935C303.029 89.494 302.847 89.186 302.217 88.934C301.937 88.822 301.454 88.675 300.873 88.521C299.438 88.136 298.101 87.716 298.101 86.344C298.101 85.105 299.298 84.23 301.006 84.23C302.672 84.23 303.883 85.105 304.079 86.435L303.029 86.624C302.889 85.714 302.105 85.168 300.957 85.168C299.935 85.168 299.144 85.651 299.144 86.323C299.144 87.114 300.222 87.352 300.999 87.562C301.517 87.702 302.063 87.877 302.511 88.038C303.638 88.437 304.093 89.011 304.093 89.914C304.093 91.335 302.959 92.203 301.118 92.203Z" fill="#2D3748"/>
<path d="M611.164 92H605.347V81.92H606.376V91.013H611.164V92ZM615.556 91.237C616.683 91.237 617.425 90.705 617.873 89.781L618.846 90.138C618.244 91.468 617.061 92.21 615.556 92.21C613.365 92.21 611.937 90.649 611.937 88.22C611.937 85.777 613.337 84.23 615.514 84.23C617.782 84.23 619.07 85.847 618.993 88.507H613.036C613.134 90.229 614.072 91.237 615.556 91.237ZM613.057 87.646H617.908C617.782 86.064 616.928 85.182 615.514 85.182C614.114 85.182 613.225 86.085 613.057 87.646ZM623.57 84.23C624.816 84.23 625.691 84.762 626.195 85.672V84.44H627.224V91.587C627.224 93.925 625.992 95.57 623.682 95.57C622.184 95.57 621.036 94.849 620.469 93.505L621.498 93.197C621.883 94.107 622.66 94.583 623.682 94.583C625.334 94.583 626.195 93.393 626.195 91.58V90.495C625.684 91.405 624.802 91.93 623.57 91.93C621.512 91.93 620.126 90.425 620.126 88.087C620.126 85.707 621.533 84.23 623.57 84.23ZM623.71 90.943C625.285 90.943 626.195 89.83 626.195 88.087C626.195 86.288 625.229 85.217 623.71 85.217C622.149 85.217 621.218 86.323 621.218 88.087C621.218 89.886 622.163 90.943 623.71 90.943ZM632.134 84.23C634.15 84.23 635.144 85.273 635.144 87.373V92H634.122V90.726C633.583 91.692 632.638 92.21 631.378 92.21C629.761 92.21 628.767 91.377 628.767 90.019C628.767 88.43 629.992 87.821 631.847 87.59L634.122 87.303C634.122 85.819 633.499 85.175 632.12 85.175C630.972 85.175 630.286 85.637 630.027 86.596L629.054 86.365C629.411 84.986 630.503 84.23 632.134 84.23ZM634.122 88.157L631.945 88.423C630.405 88.619 629.789 89.06 629.789 89.963C629.789 90.838 630.391 91.293 631.56 91.293C632.869 91.293 633.786 90.537 634.024 89.333C634.115 88.955 634.122 88.493 634.122 88.157ZM638.135 92H637.106V81.71H638.135V92ZM646.061 84.23C647.307 84.23 648.182 84.762 648.686 85.672V84.44H649.715V91.587C649.715 93.925 648.483 95.57 646.173 95.57C644.675 95.57 643.527 94.849 642.96 93.505L643.989 93.197C644.374 94.107 645.151 94.583 646.173 94.583C647.825 94.583 648.686 93.393 648.686 91.58V90.495C648.175 91.405 647.293 91.93 646.061 91.93C644.003 91.93 642.617 90.425 642.617 88.087C642.617 85.707 644.024 84.23 646.061 84.23ZM646.201 90.943C647.776 90.943 648.686 89.83 648.686 88.087C648.686 86.288 647.72 85.217 646.201 85.217C644.64 85.217 643.709 86.323 643.709 88.087C643.709 89.886 644.654 90.943 646.201 90.943ZM652.559 84.44V88.591C652.559 90.467 653.448 91.223 654.757 91.223C656.052 91.223 656.997 90.474 656.997 88.591V84.44H658.019V92H656.997V90.873C656.647 91.545 655.954 92.21 654.575 92.21C652.755 92.21 651.537 91.125 651.537 88.731V84.44H652.559ZM662.937 84.23C664.953 84.23 665.947 85.273 665.947 87.373V92H664.925V90.726C664.386 91.692 663.441 92.21 662.181 92.21C660.564 92.21 659.57 91.377 659.57 90.019C659.57 88.43 660.795 87.821 662.65 87.59L664.925 87.303C664.925 85.819 664.302 85.175 662.923 85.175C661.775 85.175 661.089 85.637 660.83 86.596L659.857 86.365C660.214 84.986 661.306 84.23 662.937 84.23ZM664.925 88.157L662.748 88.423C661.208 88.619 660.592 89.06 660.592 89.963C660.592 90.838 661.194 91.293 662.363 91.293C663.672 91.293 664.589 90.537 664.827 89.333C664.918 88.955 664.925 88.493 664.925 88.157ZM671.486 84.237V85.245C671.353 85.217 671.206 85.217 671.031 85.217C669.736 85.217 668.791 85.966 668.791 87.849V92H667.762V84.44H668.791V85.567C669.141 84.895 669.827 84.23 671.206 84.23C671.304 84.23 671.388 84.23 671.486 84.237ZM675.488 84.23C677.504 84.23 678.498 85.273 678.498 87.373V92H677.476V90.726C676.937 91.692 675.992 92.21 674.732 92.21C673.115 92.21 672.121 91.377 672.121 90.019C672.121 88.43 673.346 87.821 675.201 87.59L677.476 87.303C677.476 85.819 676.853 85.175 675.474 85.175C674.326 85.175 673.64 85.637 673.381 86.596L672.408 86.365C672.765 84.986 673.857 84.23 675.488 84.23ZM677.476 88.157L675.299 88.423C673.759 88.619 673.143 89.06 673.143 89.963C673.143 90.838 673.745 91.293 674.914 91.293C676.223 91.293 677.14 90.537 677.378 89.333C677.469 88.955 677.476 88.493 677.476 88.157ZM685.773 92V87.849C685.773 85.973 684.891 85.217 683.582 85.217C682.287 85.217 681.342 85.966 681.342 87.849V92H680.313V84.44H681.342V85.567C681.685 84.895 682.378 84.23 683.757 84.23C685.577 84.23 686.802 85.315 686.802 87.709V92H685.773ZM687.779 85.42V84.44H689.396V81.913H690.418V84.44H692.735V85.42H690.418V89.851C690.418 90.719 690.74 91.048 691.601 91.048H692.735V92H691.328C690.124 92 689.396 91.293 689.396 90.131V85.42H687.779ZM697.218 91.237C698.345 91.237 699.087 90.705 699.535 89.781L700.508 90.138C699.906 91.468 698.723 92.21 697.218 92.21C695.027 92.21 693.599 90.649 693.599 88.22C693.599 85.777 694.999 84.23 697.176 84.23C699.444 84.23 700.732 85.847 700.655 88.507H694.698C694.796 90.229 695.734 91.237 697.218 91.237ZM694.719 87.646H699.57C699.444 86.064 698.59 85.182 697.176 85.182C695.776 85.182 694.887 86.085 694.719 87.646ZM705.408 91.237C706.535 91.237 707.277 90.705 707.725 89.781L708.698 90.138C708.096 91.468 706.913 92.21 705.408 92.21C703.217 92.21 701.789 90.649 701.789 88.22C701.789 85.777 703.189 84.23 705.366 84.23C707.634 84.23 708.922 85.847 708.845 88.507H702.888C702.986 90.229 703.924 91.237 705.408 91.237ZM702.909 87.646H707.76C707.634 86.064 706.78 85.182 705.366 85.182C703.966 85.182 703.077 86.085 702.909 87.646ZM713.226 92.203C711.469 92.203 710.342 91.475 709.978 90.033L711.042 89.844C711.315 90.796 712.064 91.265 713.24 91.265C714.423 91.265 715.137 90.775 715.137 89.935C715.137 89.494 714.955 89.186 714.325 88.934C714.045 88.822 713.562 88.675 712.981 88.521C711.546 88.136 710.209 87.716 710.209 86.344C710.209 85.105 711.406 84.23 713.114 84.23C714.78 84.23 715.991 85.105 716.187 86.435L715.137 86.624C714.997 85.714 714.213 85.168 713.065 85.168C712.043 85.168 711.252 85.651 711.252 86.323C711.252 87.114 712.33 87.352 713.107 87.562C713.625 87.702 714.171 87.877 714.619 88.038C715.746 88.437 716.201 89.011 716.201 89.914C716.201 91.335 715.067 92.203 713.226 92.203Z" fill="#2D3748"/>
<path d="M605.349 499H604.313V488.92H605.349V499ZM612.894 499V494.849C612.894 492.973 612.012 492.217 610.703 492.217C609.408 492.217 608.463 492.966 608.463 494.849V499H607.434V491.44H608.463V492.567C608.806 491.895 609.499 491.23 610.878 491.23C612.698 491.23 613.923 492.315 613.923 494.709V499H612.894ZM614.9 492.42V491.44H616.517V488.913H617.539V491.44H619.856V492.42H617.539V496.851C617.539 497.719 617.861 498.048 618.722 498.048H619.856V499H618.449C617.245 499 616.517 498.293 616.517 497.131V492.42H614.9ZM624.339 498.237C625.466 498.237 626.208 497.705 626.656 496.781L627.629 497.138C627.027 498.468 625.844 499.21 624.339 499.21C622.148 499.21 620.72 497.649 620.72 495.22C620.72 492.777 622.12 491.23 624.297 491.23C626.565 491.23 627.853 492.847 627.776 495.507H621.819C621.917 497.229 622.855 498.237 624.339 498.237ZM621.84 494.646H626.691C626.565 493.064 625.711 492.182 624.297 492.182C622.897 492.182 622.008 493.085 621.84 494.646ZM630.499 499H629.47V488.71H630.499V499ZM633.766 499H632.737V488.71H633.766V499ZM639.064 498.237C640.191 498.237 640.933 497.705 641.381 496.781L642.354 497.138C641.752 498.468 640.569 499.21 639.064 499.21C636.873 499.21 635.445 497.649 635.445 495.22C635.445 492.777 636.845 491.23 639.022 491.23C641.29 491.23 642.578 492.847 642.501 495.507H636.544C636.642 497.229 637.58 498.237 639.064 498.237ZM636.565 494.646H641.416C641.29 493.064 640.436 492.182 639.022 492.182C637.622 492.182 636.733 493.085 636.565 494.646ZM647.19 499.21C644.971 499.21 643.634 497.635 643.634 495.22C643.634 492.784 644.985 491.23 647.197 491.23C648.73 491.23 649.941 492.035 650.361 493.323L649.353 493.645C648.996 492.749 648.184 492.217 647.19 492.217C645.594 492.217 644.726 493.365 644.726 495.22C644.726 497.033 645.566 498.223 647.19 498.223C648.233 498.223 648.947 497.733 649.325 496.837L650.361 497.145C649.794 498.489 648.688 499.21 647.19 499.21ZM650.966 492.42V491.44H652.583V488.913H653.605V491.44H655.922V492.42H653.605V496.851C653.605 497.719 653.927 498.048 654.788 498.048H655.922V499H654.515C653.311 499 652.583 498.293 652.583 497.131V492.42H650.966ZM658.294 491.44V495.591C658.294 497.467 659.183 498.223 660.492 498.223C661.787 498.223 662.732 497.474 662.732 495.591V491.44H663.754V499H662.732V497.873C662.382 498.545 661.689 499.21 660.31 499.21C658.49 499.21 657.272 498.125 657.272 495.731V491.44H658.294ZM668.671 491.23C670.687 491.23 671.681 492.273 671.681 494.373V499H670.659V497.726C670.12 498.692 669.175 499.21 667.915 499.21C666.298 499.21 665.304 498.377 665.304 497.019C665.304 495.43 666.529 494.821 668.384 494.59L670.659 494.303C670.659 492.819 670.036 492.175 668.657 492.175C667.509 492.175 666.823 492.637 666.564 493.596L665.591 493.365C665.948 491.986 667.04 491.23 668.671 491.23ZM670.659 495.157L668.482 495.423C666.942 495.619 666.326 496.06 666.326 496.963C666.326 497.838 666.928 498.293 668.097 498.293C669.406 498.293 670.323 497.537 670.561 496.333C670.652 495.955 670.659 495.493 670.659 495.157ZM674.672 499H673.643V488.71H674.672V499ZM683.291 491.237V492.245C683.158 492.217 683.011 492.217 682.836 492.217C681.541 492.217 680.596 492.966 680.596 494.849V499H679.567V491.44H680.596V492.567C680.946 491.895 681.632 491.23 683.011 491.23C683.109 491.23 683.193 491.23 683.291 491.237ZM685.788 490.005H684.759V488.85H685.788V490.005ZM685.788 499H684.759V491.44H685.788V499ZM690.91 491.23C692.156 491.23 693.031 491.762 693.535 492.672V491.44H694.564V498.587C694.564 500.925 693.332 502.57 691.022 502.57C689.524 502.57 688.376 501.849 687.809 500.505L688.838 500.197C689.223 501.107 690 501.583 691.022 501.583C692.674 501.583 693.535 500.393 693.535 498.58V497.495C693.024 498.405 692.142 498.93 690.91 498.93C688.852 498.93 687.466 497.425 687.466 495.087C687.466 492.707 688.873 491.23 690.91 491.23ZM691.05 497.943C692.625 497.943 693.535 496.83 693.535 495.087C693.535 493.288 692.569 492.217 691.05 492.217C689.489 492.217 688.558 493.323 688.558 495.087C688.558 496.886 689.503 497.943 691.05 497.943ZM701.98 499V494.849C701.98 492.973 701.098 492.217 699.789 492.217C698.494 492.217 697.549 492.966 697.549 494.849V499H696.52V488.92H697.549V492.567C697.899 491.895 698.585 491.23 699.964 491.23C701.791 491.23 703.009 492.315 703.009 494.709V499H701.98ZM703.986 492.42V491.44H705.603V488.913H706.625V491.44H708.942V492.42H706.625V496.851C706.625 497.719 706.947 498.048 707.808 498.048H708.942V499H707.535C706.331 499 705.603 498.293 705.603 497.131V492.42H703.986ZM713.259 499.203C711.502 499.203 710.375 498.475 710.011 497.033L711.075 496.844C711.348 497.796 712.097 498.265 713.273 498.265C714.456 498.265 715.17 497.775 715.17 496.935C715.17 496.494 714.988 496.186 714.358 495.934C714.078 495.822 713.595 495.675 713.014 495.521C711.579 495.136 710.242 494.716 710.242 493.344C710.242 492.105 711.439 491.23 713.147 491.23C714.813 491.23 716.024 492.105 716.22 493.435L715.17 493.624C715.03 492.714 714.246 492.168 713.098 492.168C712.076 492.168 711.285 492.651 711.285 493.323C711.285 494.114 712.363 494.352 713.14 494.562C713.658 494.702 714.204 494.877 714.652 495.038C715.779 495.437 716.234 496.011 716.234 496.914C716.234 498.335 715.1 499.203 713.259 499.203Z" fill="#2D3748"/>
<path d="M426.535 426H423.007V415.92H426.43C428.369 415.92 429.741 416.732 429.741 418.51C429.741 419.784 428.992 420.512 428.159 420.792C429.062 420.967 430.063 421.8 430.063 423.228C430.063 425.195 428.572 426 426.535 426ZM426.444 416.907H424.036V420.323H426.731C427.837 420.323 428.684 419.77 428.684 418.573C428.684 417.369 427.774 416.907 426.444 416.907ZM424.036 425.013H426.535C427.97 425.013 429.006 424.586 429.006 423.137C429.006 421.821 427.949 421.289 426.752 421.289H424.036V425.013ZM432.626 426H431.597V415.71H432.626V426ZM437.881 426.21C435.634 426.21 434.304 424.565 434.304 422.213C434.304 419.84 435.669 418.23 437.881 418.23C440.142 418.23 441.465 419.868 441.465 422.213C441.465 424.593 440.121 426.21 437.881 426.21ZM437.881 425.223C439.533 425.223 440.373 424.026 440.373 422.213C440.373 420.372 439.526 419.217 437.881 419.217C436.215 419.217 435.396 420.414 435.396 422.213C435.396 424.054 436.257 425.223 437.881 425.223ZM446.145 426.21C443.926 426.21 442.589 424.635 442.589 422.22C442.589 419.784 443.94 418.23 446.152 418.23C447.685 418.23 448.896 419.035 449.316 420.323L448.308 420.645C447.951 419.749 447.139 419.217 446.145 419.217C444.549 419.217 443.681 420.365 443.681 422.22C443.681 424.033 444.521 425.223 446.145 425.223C447.188 425.223 447.902 424.733 448.28 423.837L449.316 424.145C448.749 425.489 447.643 426.21 446.145 426.21ZM450.754 426V415.92H451.783V422.08L455.157 418.44H456.529L452.987 422.22L456.991 426H455.493L451.783 422.36V426H450.754ZM460.692 426.21C458.473 426.21 457.136 424.635 457.136 422.22C457.136 419.784 458.487 418.23 460.699 418.23C462.232 418.23 463.443 419.035 463.863 420.323L462.855 420.645C462.498 419.749 461.686 419.217 460.692 419.217C459.096 419.217 458.228 420.365 458.228 422.22C458.228 424.033 459.068 425.223 460.692 425.223C461.735 425.223 462.449 424.733 462.827 423.837L463.863 424.145C463.296 425.489 462.19 426.21 460.692 426.21ZM470.761 426V421.849C470.761 419.973 469.879 419.217 468.57 419.217C467.275 419.217 466.33 419.966 466.33 421.849V426H465.301V415.92H466.33V419.567C466.68 418.895 467.366 418.23 468.745 418.23C470.572 418.23 471.79 419.315 471.79 421.709V426H470.761ZM476.554 418.23C478.57 418.23 479.564 419.273 479.564 421.373V426H478.542V424.726C478.003 425.692 477.058 426.21 475.798 426.21C474.181 426.21 473.187 425.377 473.187 424.019C473.187 422.43 474.412 421.821 476.267 421.59L478.542 421.303C478.542 419.819 477.919 419.175 476.54 419.175C475.392 419.175 474.706 419.637 474.447 420.596L473.474 420.365C473.831 418.986 474.923 418.23 476.554 418.23ZM478.542 422.157L476.365 422.423C474.825 422.619 474.209 423.06 474.209 423.963C474.209 424.838 474.811 425.293 475.98 425.293C477.289 425.293 478.206 424.537 478.444 423.333C478.535 422.955 478.542 422.493 478.542 422.157ZM482.555 417.005H481.526V415.85H482.555V417.005ZM482.555 426H481.526V418.44H482.555V426ZM490.107 426V421.849C490.107 419.973 489.225 419.217 487.916 419.217C486.621 419.217 485.676 419.966 485.676 421.849V426H484.647V418.44H485.676V419.567C486.019 418.895 486.712 418.23 488.091 418.23C489.911 418.23 491.136 419.315 491.136 421.709V426H490.107Z" fill="#2D3748"/>
<defs>
<linearGradient id="paint0_linear_3073_11394" x1="330.5" y1="357.5" x2="447" y2="297" gradientUnits="userSpaceOnUse">
<stop stop-color="#34AC81"/>
<stop offset="0.415" stop-color="#1C8D78"/>
<stop offset="0.65" stop-color="#7775CC"/>
<stop offset="1" stop-color="#EA9EF9"/>
</linearGradient>
<clipPath id="clip0_3073_11394">
<rect width="48" height="48" fill="white" transform="translate(17 287)"/>
</clipPath>
</defs>
</svg>
