<svg width="433" height="295" viewBox="0 0 433 295" fill="none" xmlns="http://www.w3.org/2000/svg">
<path d="M422.401 147.334H403.202L393.457 163.915L403.202 180.495H422.401L432 163.915L422.401 147.334Z" fill="#219F70" stroke="#251725" stroke-miterlimit="10" stroke-linecap="round" stroke-linejoin="round"/>
<path d="M134.981 276.876H127.272L123.345 283.566L127.272 290.402H134.981L138.908 283.566L134.981 276.876Z" stroke="#A499CE" stroke-miterlimit="10" stroke-linecap="round" stroke-linejoin="round"/>
<path d="M383.277 189.95H375.423L371.496 196.641L375.423 203.331H383.277L387.059 196.641L383.277 189.95Z" stroke="#A499CE" stroke-miterlimit="10" stroke-linecap="round" stroke-linejoin="round"/>
<path d="M425.164 187.331H414.256L408.875 196.639L414.256 206.093H425.164L430.546 196.639L425.164 187.331Z" stroke="#A499CE" stroke-miterlimit="10" stroke-linecap="round" stroke-linejoin="round"/>
<path d="M336.119 283.219L97.0736 258.462C93.2154 258.141 90.8041 253.639 91.6078 248.495L115.561 83.237C116.204 78.4142 119.901 74.0738 123.759 73.7523L362.805 48.9957C368.914 48.3527 373.415 52.8539 372.772 59.1234L348.819 272.448C348.015 279.039 342.389 283.862 336.119 283.219Z" fill="#251725" stroke="#251725" stroke-miterlimit="10" stroke-linecap="round" stroke-linejoin="round"/>
<path d="M330.332 283.219L89.0359 258.301C85.1777 257.98 82.7664 253.479 83.4094 248.334L107.684 81.4686C108.327 76.4852 112.024 72.3055 115.882 71.8232L357.179 46.9059C363.448 46.2628 367.949 50.764 367.146 57.0335L342.871 272.287C342.389 279.039 336.602 283.862 330.332 283.219Z" fill="#EBEDFD" stroke="#251725" stroke-miterlimit="10" stroke-linecap="round" stroke-linejoin="round"/>
<path d="M124.081 156.382L125.045 167.635L129.225 165.545L130.833 178.566L133.726 176.155L141.925 173.904L151.57 164.58L157.84 181.942L171.665 158.954L180.024 155.739L189.67 125.999L195.939 129.696L203.495 141.753L208.157 139.02L210.407 153.81L217.32 143.521L222.786 142.717L235.646 124.23L240.469 128.41L251.24 110.727L258.313 128.41L262.975 130.821L267.798 137.895L271.656 134.358L276.8 135.001L284.356 124.873L294.966 113.299L298.181 119.408L306.379 107.833L316.507 99.1523L303.003 197.053L119.097 191.909L124.081 156.382Z" fill="url(#paint0_linear_3086_8451)" stroke="#251725" stroke-miterlimit="10" stroke-linecap="round" stroke-linejoin="round"/>
<path d="M106.398 91.436L366.02 69.8945" stroke="#251725" stroke-miterlimit="10" stroke-linecap="round" stroke-linejoin="round"/>
<path d="M121.509 81.3074C121.348 82.2719 120.544 83.2365 119.741 83.2365C118.937 83.2365 118.455 82.5935 118.615 81.4682C118.776 80.5036 119.58 79.5391 120.384 79.5391C121.027 79.5391 121.67 80.3428 121.509 81.3074Z" fill="#251725"/>
<path d="M130.511 80.5047C130.35 81.4692 129.546 82.4337 128.743 82.4337C127.939 82.4337 127.457 81.7907 127.617 80.6654C127.778 79.7009 128.582 78.7363 129.386 78.7363C130.19 78.7363 130.672 79.5401 130.511 80.5047Z" fill="#251725"/>
<path d="M139.835 79.7009C139.674 80.6655 138.871 81.63 138.067 81.63C137.263 81.63 136.62 80.987 136.781 79.8617C136.941 78.8972 137.745 77.9326 138.549 77.9326C139.514 77.9326 139.996 78.5756 139.835 79.7009Z" fill="#251725"/>
<path d="M162.019 116.193L129.546 117.8L131.315 106.226L163.627 104.136L162.019 116.193Z" stroke="#251725" stroke-miterlimit="10" stroke-linecap="round" stroke-linejoin="round"/>
<path d="M169.575 228.722C168.45 236.599 162.341 242.708 156.071 242.226C149.802 241.744 145.622 234.992 146.748 227.275C147.873 219.559 153.66 213.45 159.93 213.772C166.36 214.093 170.7 220.845 169.575 228.722Z" stroke="#251725" stroke-miterlimit="10" stroke-linecap="round" stroke-linejoin="round"/>
<path d="M163.627 239.654C161.376 241.422 158.804 242.387 156.071 242.226C149.802 241.744 145.622 234.992 146.748 227.276C147.23 223.257 149.159 219.72 151.731 217.309" stroke="#DF87F1" stroke-miterlimit="10" stroke-linecap="round" stroke-linejoin="round"/>
<path d="M304.933 233.063L191.278 226.151L192.724 215.38L306.219 221.006L304.933 233.063Z" stroke="#251725" stroke-miterlimit="10" stroke-linecap="round" stroke-linejoin="round"/>
<path d="M189.991 236.438L214.105 238.046" stroke="#251725" stroke-miterlimit="10" stroke-linecap="round" stroke-linejoin="round"/>
<path d="M233.396 239.493L259.76 241.261" stroke="#251725" stroke-miterlimit="10" stroke-linecap="round" stroke-linejoin="round"/>
<path d="M309.112 197.215L119.097 191.91L127.618 131.947" stroke="#251725" stroke-miterlimit="10" stroke-linecap="round" stroke-linejoin="round"/>
<path d="M124.081 156.382L125.045 167.635L129.225 165.545L130.833 178.566L133.726 176.155L141.925 173.904L151.57 164.58L157.84 181.942L171.665 158.954L180.024 155.739L189.67 125.999L195.939 129.696L203.495 141.753L208.157 139.02L210.407 153.81L217.32 143.521L222.786 142.717L235.646 124.23L240.469 128.41L251.24 110.727L258.313 128.41L262.975 130.821L267.798 137.895L271.656 134.358L276.8 135.001L284.356 124.873L294.966 113.299L298.181 119.408L306.379 107.833L316.507 99.1523" stroke="#251725" stroke-miterlimit="10" stroke-linecap="round" stroke-linejoin="round"/>
<path d="M136.298 226.633C135.173 234.35 129.547 240.137 123.599 239.655C117.811 239.172 113.953 232.742 114.918 225.186C116.043 217.631 121.509 211.844 127.457 212.165C133.405 212.487 137.424 218.917 136.298 226.633Z" stroke="#251725" stroke-miterlimit="10" stroke-linecap="round" stroke-linejoin="round"/>
<path d="M130.672 237.243C128.582 238.851 126.171 239.815 123.599 239.655C117.811 239.172 113.953 232.742 114.918 225.186C116.043 217.631 121.509 211.844 127.457 212.165C129.547 212.326 131.315 213.13 132.762 214.416" stroke="#DF87F1" stroke-miterlimit="10" stroke-linecap="round" stroke-linejoin="round"/>
<path d="M342.807 143.902L343.536 143.011C339.407 137.749 337.544 130.705 338.678 123.256C340.783 109.249 353.17 96.9429 367.501 95.4855C372.359 94.9997 376.974 95.8094 380.86 97.5906L381.831 96.3761L387.499 102.125C387.58 102.206 387.661 102.286 387.742 102.367L388.066 102.691C392.681 107.63 395.11 114.755 394.138 123.013C391.952 140.339 375.759 153.213 359.728 151.593C356.247 151.27 353.089 150.217 350.337 148.679H350.256C349.446 148.193 348.636 147.707 347.908 147.14L342.807 143.902Z" fill="url(#paint1_linear_3086_8451)" stroke="#251725" stroke-miterlimit="10" stroke-linecap="round" stroke-linejoin="round"/>
<mask id="mask0_3086_8451" style="mask-type:alpha" maskUnits="userSpaceOnUse" x="337" y="94" width="58" height="59">
<path d="M342.807 143.901L343.536 143.01C339.407 137.748 337.544 130.704 338.678 123.255C340.783 109.248 353.17 96.9419 367.501 95.4845C372.359 94.9988 376.974 95.8084 380.86 97.5896L381.831 96.3751L387.499 102.124C387.58 102.205 387.661 102.285 387.742 102.366L388.066 102.69C392.681 107.629 395.11 114.754 394.138 123.012C391.952 140.338 375.759 153.212 359.728 151.592C356.247 151.269 353.089 150.216 350.337 148.678H350.256C349.446 148.192 348.636 147.706 347.908 147.139L342.807 143.901Z" fill="white" stroke="#251725" stroke-miterlimit="10" stroke-linecap="round" stroke-linejoin="round"/>
</mask>
<g mask="url(#mask0_3086_8451)">
<path d="M367.825 158.96L347.989 138.881" stroke="#251725" stroke-miterlimit="10" stroke-linecap="round" stroke-linejoin="round"/>
<path d="M374.707 152.078L354.871 132.08" stroke="#251725" stroke-miterlimit="10" stroke-linecap="round" stroke-linejoin="round"/>
<path d="M381.589 145.195L361.753 125.197" stroke="#251725" stroke-miterlimit="10" stroke-linecap="round" stroke-linejoin="round"/>
<path d="M388.47 138.395L368.634 118.396" stroke="#251725" stroke-miterlimit="10" stroke-linecap="round" stroke-linejoin="round"/>
<path d="M395.433 131.513L375.516 111.515" stroke="#251725" stroke-miterlimit="10" stroke-linecap="round" stroke-linejoin="round"/>
<path d="M402.315 124.712L382.398 104.714" stroke="#251725" stroke-miterlimit="10" stroke-linecap="round" stroke-linejoin="round"/>
</g>
<path d="M333.577 119.532C331.391 134.106 340.378 147.141 355.113 148.598C371.549 150.299 388.147 137.101 390.333 119.37C392.519 101.882 379.483 89.4138 363.129 91.114C348.393 92.5714 335.763 105.202 333.577 119.532Z" fill="url(#paint2_linear_3086_8451)" stroke="#251725" stroke-miterlimit="10" stroke-linecap="round" stroke-linejoin="round"/>
<path d="M337.382 119.532C335.52 131.92 343.293 142.769 355.761 143.821C369.363 144.955 382.965 134.025 384.827 119.37C386.689 104.959 376.083 94.4336 362.481 95.6481C350.013 96.7006 339.244 107.307 337.382 119.532Z" fill="url(#paint3_linear_3086_8451)" stroke="#251725" stroke-miterlimit="10" stroke-linecap="round" stroke-linejoin="round"/>
<path d="M349.203 105.12C350.337 104.068 351.632 103.258 353.089 102.61" stroke="#251725" stroke-miterlimit="10" stroke-linecap="round" stroke-linejoin="round"/>
<path d="M345.803 109.25C346.208 108.521 346.693 107.873 347.179 107.307" stroke="#251725" stroke-miterlimit="10" stroke-linecap="round" stroke-linejoin="round"/>
<path d="M357.947 126.739L360.7 119.29L365.963 117.833L365.234 115.242L361.833 116.132L365.153 106.983H357.461L353.494 118.399L348.312 119.776L348.96 122.447L352.361 121.476L349.203 130.544H372.035L373.897 126.739H357.947Z" fill="#251725"/>
<path d="M99.026 284.303L98.0545 283.088C103.398 276.287 105.827 267.22 104.37 257.504C101.617 239.368 85.586 223.418 66.9644 221.475C60.6492 220.827 54.7389 221.88 49.6382 224.228L48.3428 222.69L41.056 230.219C40.9751 230.3 40.8131 230.462 40.7322 230.543L40.3274 230.948C34.336 237.344 31.1784 246.574 32.4739 257.261C35.3076 279.769 56.2772 296.366 77.0849 294.261C81.6188 293.776 85.667 292.48 89.3104 290.456H89.3913C90.4439 289.889 91.4964 289.161 92.468 288.432L99.026 284.303Z" fill="url(#paint4_linear_3086_8451)" stroke="#251725" stroke-miterlimit="10" stroke-linecap="round" stroke-linejoin="round"/>
<mask id="mask1_3086_8451" style="mask-type:alpha" maskUnits="userSpaceOnUse" x="31" y="220" width="75" height="75">
<path d="M99.026 284.302L98.0545 283.087C103.398 276.287 105.827 267.219 104.37 257.503C101.617 239.367 85.586 223.417 66.9644 221.474C60.6492 220.826 54.7389 221.879 49.6382 224.227L48.3428 222.689L41.056 230.218C40.9751 230.299 40.8131 230.461 40.7322 230.542L40.3274 230.947C34.336 237.343 31.1784 246.573 32.4739 257.26C35.3076 279.768 56.2772 296.366 77.0849 294.26C81.6188 293.775 85.667 292.479 89.3104 290.455H89.3913C90.4439 289.888 91.4964 289.16 92.468 288.431L99.026 284.302Z" fill="white" stroke="#251725" stroke-miterlimit="10" stroke-linecap="round" stroke-linejoin="round"/>
</mask>
<g mask="url(#mask1_3086_8451)">
<path d="M66.5597 303.815L92.3871 277.825" stroke="#251725" stroke-miterlimit="10" stroke-linecap="round" stroke-linejoin="round"/>
<path d="M57.6536 294.909L83.4 268.92" stroke="#251725" stroke-miterlimit="10" stroke-linecap="round" stroke-linejoin="round"/>
<path d="M48.7477 286.083L74.4941 260.094" stroke="#251725" stroke-miterlimit="10" stroke-linecap="round" stroke-linejoin="round"/>
<path d="M39.7606 277.177L65.5881 251.188" stroke="#251725" stroke-miterlimit="10" stroke-linecap="round" stroke-linejoin="round"/>
<path d="M30.8546 268.272L56.6011 242.363" stroke="#251725" stroke-miterlimit="10" stroke-linecap="round" stroke-linejoin="round"/>
<path d="M21.8677 259.446L47.6951 233.457" stroke="#251725" stroke-miterlimit="10" stroke-linecap="round" stroke-linejoin="round"/>
</g>
<path d="M111.009 252.726C113.842 271.591 102.184 288.512 83.0762 290.455C61.7827 292.641 40.2464 275.558 37.3317 252.564C34.498 229.895 51.3384 213.783 72.6319 215.888C91.8203 217.75 108.175 234.105 111.009 252.726Z" fill="url(#paint5_linear_3086_8451)" stroke="#251725" stroke-miterlimit="10" stroke-linecap="round" stroke-linejoin="round"/>
<path d="M106.07 252.726C108.499 268.757 98.3784 282.926 82.2666 284.221C64.6165 285.679 46.9664 271.429 44.5375 252.564C42.1896 233.862 55.8724 220.26 73.5225 221.798C89.6343 223.094 103.641 236.858 106.07 252.726Z" fill="url(#paint6_linear_3086_8451)" stroke="#251725" stroke-miterlimit="10" stroke-linecap="round" stroke-linejoin="round"/>
<path d="M54.3341 234.023C55.6295 232.484 57.0869 231.108 58.7062 229.894" stroke="#251725" stroke-miterlimit="10" stroke-linecap="round" stroke-linejoin="round"/>
<path d="M50.8527 240.095C51.2575 239.124 51.6623 238.152 52.1481 237.262" stroke="#251725" stroke-miterlimit="10" stroke-linecap="round" stroke-linejoin="round"/>
<path d="M92.144 260.013C91.9011 258.232 91.1725 256.613 89.877 255.236C88.6626 253.86 87.0433 252.969 85.1811 252.483C86.7194 252.079 87.8529 251.269 88.5816 250.054C89.3103 248.84 89.5532 247.302 89.3103 245.44C88.9864 242.93 87.8529 240.906 85.9908 239.529C84.6954 238.477 83.0761 237.829 81.133 237.505L80.4853 233.133L76.8419 232.89L77.4086 237.1L73.2795 236.938L72.7127 232.728L68.9074 232.485L69.4742 236.776L63.8877 236.534L68.3407 269.648L73.9272 269.405L74.413 273.21L78.2183 273.048L77.7325 269.324L81.8616 269.162L82.3474 272.886L85.9908 272.724L85.424 268.919C87.5291 268.514 89.2293 267.786 90.2819 266.571C91.9821 264.79 92.5488 262.685 92.144 260.013ZM82.1855 246.654C82.5093 248.921 81.3758 250.054 78.785 249.974L73.7653 249.893L72.7937 242.93L77.7325 243.092C80.4043 243.254 81.8616 244.387 82.1855 246.654ZM80.971 262.604L75.5465 262.766L74.5749 255.479H79.9995C81.3758 255.479 82.4284 255.803 83.238 256.451C84.0477 257.098 84.5334 257.989 84.6954 259.122C84.9382 261.389 83.7238 262.604 80.971 262.604Z" fill="#251725"/>
<path d="M274.739 55.6184C278.026 46.3938 262.901 32.5759 240.956 24.7552C219.01 16.9346 198.555 18.0727 195.268 27.2974C191.98 36.522 207.106 50.3399 229.051 58.1605C250.996 65.9812 271.451 64.843 274.739 55.6184Z" fill="url(#paint7_linear_3086_8451)" stroke="#251725" stroke-miterlimit="10" stroke-linecap="round" stroke-linejoin="round"/>
<path d="M270.193 52.2876C272.76 45.0848 259.339 33.7212 240.215 26.9063C221.092 20.0914 203.509 20.4058 200.942 27.6086C198.375 34.8114 211.797 46.175 230.92 52.9899C250.043 59.8048 267.626 59.4904 270.193 52.2876Z" fill="url(#paint8_linear_3086_8451)" stroke="#251725" stroke-miterlimit="10" stroke-linecap="round" stroke-linejoin="round"/>
<path d="M209.627 37.5588C207.36 35.5347 205.741 33.5106 204.931 31.6484L209.627 37.5588Z" fill="#A499CE"/>
<path d="M209.627 37.5588C207.36 35.5347 205.741 33.5106 204.931 31.6484" stroke="#251725" stroke-miterlimit="10" stroke-linecap="round" stroke-linejoin="round"/>
<path d="M214.647 41.3635C213.918 40.8777 213.189 40.311 212.461 39.8252L214.647 41.3635Z" fill="#A499CE"/>
<path d="M214.647 41.3635C213.918 40.8777 213.189 40.311 212.461 39.8252" stroke="#251725" stroke-miterlimit="10" stroke-linecap="round" stroke-linejoin="round"/>
<path d="M213.675 31.2445L227.358 43.1461L238.045 39.9076L231.811 30.6777L213.675 31.2445Z" fill="#251725"/>
<path d="M242.741 41.6077L231.892 44.7653L259.258 47.518L236.345 32.2969L242.741 41.6077Z" fill="#251725"/>
<path d="M274.803 55.6146L271.564 64.6826C268.245 73.9124 247.842 75.0459 225.901 67.1925C203.96 59.339 188.819 45.5751 192.058 36.3453L195.296 27.2773C191.977 36.5072 207.117 50.271 229.139 58.1245C250.999 65.978 271.483 64.8445 274.803 55.6146Z" fill="url(#paint9_linear_3086_8451)"/>
<mask id="mask2_3086_8451" style="mask-type:alpha" maskUnits="userSpaceOnUse" x="191" y="26" width="85" height="47">
<path d="M274.803 55.6146L271.564 64.6826C268.245 73.9124 247.842 75.0459 225.901 67.1925C203.96 59.339 188.819 45.5751 192.058 36.3453L195.296 27.2773C191.977 36.5072 207.117 50.271 229.139 58.1245C250.999 65.978 271.483 64.8445 274.803 55.6146Z" fill="#D9D9D9" stroke="#251725" stroke-miterlimit="10" stroke-linecap="round" stroke-linejoin="round"/>
</mask>
<g mask="url(#mask2_3086_8451)">
<path d="M188.657 66.6258L202.664 27.3584" stroke="#251725" stroke-miterlimit="10" stroke-linecap="round" stroke-linejoin="round"/>
<path d="M202.178 71.4841L216.185 32.1357" stroke="#251725" stroke-miterlimit="10" stroke-linecap="round" stroke-linejoin="round"/>
<path d="M215.699 76.2606L229.706 36.9932" stroke="#251725" stroke-miterlimit="10" stroke-linecap="round" stroke-linejoin="round"/>
<path d="M229.22 81.1179L243.227 41.7695" stroke="#251725" stroke-miterlimit="10" stroke-linecap="round" stroke-linejoin="round"/>
<path d="M242.741 85.8953L256.748 46.6279" stroke="#251725" stroke-miterlimit="10" stroke-linecap="round" stroke-linejoin="round"/>
<path d="M256.343 90.7536L270.35 51.4053" stroke="#251725" stroke-miterlimit="10" stroke-linecap="round" stroke-linejoin="round"/>
</g>
<path d="M274.803 55.6146L271.564 64.6826C268.245 73.9124 247.842 75.0459 225.901 67.1925C203.96 59.339 188.819 45.5751 192.058 36.3453L195.296 27.2773C191.977 36.5072 207.117 50.271 229.139 58.1245C250.999 65.978 271.483 64.8445 274.803 55.6146Z" stroke="#251725" stroke-miterlimit="10" stroke-linecap="round" stroke-linejoin="round"/>
<path d="M243.98 196.532C259.393 187.633 268.852 175.161 265.107 168.674C261.362 162.187 245.831 164.143 230.418 173.042C215.004 181.941 205.546 194.414 209.291 200.9C213.036 207.387 228.567 205.431 243.98 196.532Z" fill="url(#paint10_linear_3086_8451)" stroke="#251725" stroke-miterlimit="10" stroke-linecap="round" stroke-linejoin="round"/>
<path d="M231.364 174.641C244.74 166.926 257.929 164.873 260.916 169.975C263.902 175.076 255.441 185.528 242.127 193.242C228.751 200.957 215.562 203.01 212.576 197.908C209.59 192.745 218.051 182.355 231.364 174.641Z" fill="url(#paint11_linear_3086_8451)" stroke="#251725" stroke-miterlimit="10" stroke-linecap="round" stroke-linejoin="round"/>
<path d="M265.146 168.668L269.004 174.827C272.736 181.297 263.28 193.802 247.851 202.699C232.422 211.595 216.869 213.586 213.136 207.116L209.279 200.957C213.012 207.427 228.565 205.436 243.994 196.539C259.423 187.643 268.879 175.138 265.146 168.668Z" fill="url(#paint12_linear_3086_8451)"/>
<mask id="mask3_3086_8451" style="mask-type:alpha" maskUnits="userSpaceOnUse" x="208" y="168" width="63" height="44">
<path d="M265.146 168.668L269.004 174.827C272.736 181.297 263.28 193.802 247.851 202.699C232.422 211.595 216.869 213.586 213.136 207.116L209.279 200.957C213.012 207.427 228.565 205.436 243.994 196.539C259.423 187.643 268.879 175.138 265.146 168.668Z" fill="#D9D9D9" stroke="#251725" stroke-miterlimit="10" stroke-linecap="round" stroke-linejoin="round"/>
</mask>
<g mask="url(#mask3_3086_8451)">
<path d="M228.938 224.288L213.012 196.665" stroke="#251725" stroke-miterlimit="10" stroke-linecap="round" stroke-linejoin="round"/>
<path d="M238.457 218.751L222.468 191.19" stroke="#251725" stroke-miterlimit="10" stroke-linecap="round" stroke-linejoin="round"/>
<path d="M247.976 213.276L231.987 185.653" stroke="#251725" stroke-miterlimit="10" stroke-linecap="round" stroke-linejoin="round"/>
<path d="M257.432 207.801L241.505 180.179" stroke="#251725" stroke-miterlimit="10" stroke-linecap="round" stroke-linejoin="round"/>
<path d="M266.951 202.326L251.024 174.703" stroke="#251725" stroke-miterlimit="10" stroke-linecap="round" stroke-linejoin="round"/>
<path d="M276.469 196.789L260.542 169.229" stroke="#251725" stroke-miterlimit="10" stroke-linecap="round" stroke-linejoin="round"/>
</g>
<path d="M265.146 168.668L269.004 174.827C272.736 181.297 263.28 193.802 247.851 202.699C232.422 211.595 216.869 213.586 213.136 207.116L209.279 200.957C213.012 207.427 228.565 205.436 243.994 196.539C259.423 187.643 268.879 175.138 265.146 168.668Z" stroke="#251725" stroke-miterlimit="10" stroke-linecap="round" stroke-linejoin="round"/>
<path d="M245.051 181.981C244.056 182.044 243.061 182.355 242.127 182.915C240.945 183.537 239.763 183.723 239.017 183.412L238.581 183.226C237.835 182.915 237.648 182.23 238.083 181.359L238.27 180.924C238.706 180.115 239.514 179.182 240.634 178.622C242.065 177.813 243.309 176.631 243.496 175.573C243.683 174.64 242.936 174.08 241.63 174.205C239.701 174.454 237.275 175.947 236.404 177.44C235.906 178.311 236.03 179.057 236.715 179.306C237.337 179.555 237.524 180.115 237.088 180.986L236.777 181.546C236.342 182.417 235.346 183.35 234.164 184.034L233.48 184.408C232.298 185.03 231.116 185.341 230.493 185.03C229.996 184.781 229.249 184.781 228.316 185.092C226.698 185.59 224.77 186.896 223.463 188.389C221.037 191.189 221.473 193.366 224.459 192.62C226.139 192.184 228.192 190.816 229.622 189.26C230.058 188.825 230.369 188.389 230.556 188.016C231.178 186.958 232.235 185.963 233.48 185.279L234.288 184.843C235.471 184.159 236.653 183.972 237.399 184.283L237.897 184.47C238.643 184.781 238.83 185.59 238.395 186.647C238.27 187.021 238.146 187.456 238.146 187.829C238.146 189.198 239.141 190.194 240.883 190.069C244.118 189.882 247.602 186.71 247.664 184.097C247.851 182.728 246.669 181.857 245.051 181.981Z" fill="#251725"/>
<path d="M114.897 103.271L117.002 106.915C118.459 109.506 114.735 114.525 108.501 118.088C102.347 121.65 96.1131 122.46 94.5748 119.869L92.4697 116.226C93.9271 118.817 100.161 118.007 106.395 114.444C112.549 110.882 116.354 105.862 114.897 103.271Z" fill="#DF87F1" stroke="#251725" stroke-miterlimit="10" stroke-linecap="round" stroke-linejoin="round"/>
<path d="M100.971 105.053C107.124 101.49 113.358 100.68 114.816 103.271C116.273 105.862 112.549 110.882 106.315 114.444C100.161 118.007 93.9272 118.816 92.4698 116.226C91.0125 113.635 94.8178 108.615 100.971 105.053Z" fill="url(#paint13_linear_3086_8451)" stroke="#251725" stroke-miterlimit="10" stroke-linecap="round" stroke-linejoin="round"/>
<mask id="mask4_3086_8451" style="mask-type:alpha" maskUnits="userSpaceOnUse" x="91" y="102" width="27" height="20">
<path d="M114.897 103.271L117.002 106.915C118.459 109.506 114.735 114.525 108.501 118.088C102.348 121.65 96.1133 122.46 94.575 119.869L92.47 116.226C93.9273 118.817 100.162 118.007 106.396 114.444C112.549 110.882 116.354 105.862 114.897 103.271Z" fill="#D9D9D9" stroke="#251725" stroke-miterlimit="10" stroke-linecap="round" stroke-linejoin="round"/>
</mask>
<g mask="url(#mask4_3086_8451)">
<path d="M100.323 125.536L94.0082 114.525" stroke="#251725" stroke-miterlimit="10" stroke-linecap="round" stroke-linejoin="round"/>
<path d="M104.129 123.351L97.8135 112.259" stroke="#251725" stroke-miterlimit="10" stroke-linecap="round" stroke-linejoin="round"/>
<path d="M107.934 121.165L101.619 110.073" stroke="#251725" stroke-miterlimit="10" stroke-linecap="round" stroke-linejoin="round"/>
<path d="M111.739 118.978L105.424 107.886" stroke="#251725" stroke-miterlimit="10" stroke-linecap="round" stroke-linejoin="round"/>
<path d="M115.544 116.792L109.229 105.7" stroke="#251725" stroke-miterlimit="10" stroke-linecap="round" stroke-linejoin="round"/>
<path d="M119.35 114.526L113.035 103.515" stroke="#251725" stroke-miterlimit="10" stroke-linecap="round" stroke-linejoin="round"/>
<path d="M114.897 103.271L117.002 106.915C118.459 109.506 114.735 114.525 108.501 118.088C102.348 121.65 96.1133 122.46 94.575 119.869L92.47 116.226C93.9273 118.817 100.162 118.007 106.396 114.444C112.549 110.882 116.354 105.862 114.897 103.271Z" stroke="#251725" stroke-miterlimit="10" stroke-linecap="round" stroke-linejoin="round"/>
</g>
<path d="M106.8 108.616C106.396 108.616 105.991 108.778 105.667 109.021C105.181 109.263 104.695 109.344 104.452 109.182L104.29 109.101C103.967 109.02 103.967 108.697 104.129 108.373L104.21 108.211C104.371 107.887 104.695 107.482 105.181 107.32C105.748 106.996 106.234 106.511 106.315 106.106C106.396 105.701 106.072 105.539 105.586 105.539C104.776 105.62 103.805 106.268 103.481 106.834C103.238 107.158 103.319 107.482 103.643 107.563C103.886 107.644 103.967 107.887 103.805 108.211L103.724 108.454C103.562 108.778 103.157 109.182 102.671 109.425L102.428 109.587C101.943 109.83 101.457 109.992 101.214 109.83C101.052 109.749 100.728 109.749 100.323 109.83C99.6755 109.992 98.8659 110.559 98.3801 111.126C97.4086 112.259 97.5705 113.15 98.7849 112.826C99.4327 112.664 100.242 112.097 100.809 111.449C100.971 111.287 101.133 111.126 101.214 110.964C101.457 110.559 101.862 110.154 102.347 109.911L102.671 109.749C103.157 109.506 103.643 109.425 103.886 109.506L104.048 109.587C104.371 109.749 104.452 110.073 104.29 110.478C104.21 110.64 104.21 110.802 104.21 110.964C104.21 111.53 104.614 111.935 105.343 111.854C106.638 111.773 108.015 110.559 108.096 109.425C107.934 108.94 107.448 108.616 106.8 108.616Z" fill="#251725"/>
<path d="M31.5752 154.461L30.0369 157.133C28.9034 159.076 31.7372 162.719 36.2711 165.31C40.8051 167.901 45.42 168.549 46.4726 166.605L48.0109 163.934C46.8774 165.877 42.3434 165.229 37.8094 162.638C33.2755 160.047 30.4418 156.404 31.5752 154.461Z" fill="#DF87F1" stroke="#251725" stroke-miterlimit="10" stroke-linecap="round" stroke-linejoin="round"/>
<path d="M41.7767 155.756C37.2427 153.165 32.6278 152.518 31.5753 154.461C30.4418 156.404 33.2755 160.047 37.8095 162.638C42.3434 165.229 46.9584 165.877 48.0109 163.934C49.1444 162.071 46.3106 158.428 41.7767 155.756Z" fill="url(#paint14_linear_3086_8451)" stroke="#251725" stroke-miterlimit="10" stroke-linecap="round" stroke-linejoin="round"/>
<mask id="mask5_3086_8451" style="mask-type:alpha" maskUnits="userSpaceOnUse" x="29" y="153" width="20" height="16">
<path d="M31.5752 154.461L30.0369 157.133C28.9034 159.076 31.7372 162.719 36.2711 165.31C40.8051 167.901 45.42 168.549 46.4726 166.605L48.0109 163.934C46.8774 165.877 42.3434 165.229 37.8094 162.638C33.2755 160.047 30.4418 156.404 31.5752 154.461Z" fill="#D9D9D9" stroke="#251725" stroke-miterlimit="10" stroke-linecap="round" stroke-linejoin="round"/>
</mask>
<g mask="url(#mask5_3086_8451)">
<path d="M42.2625 170.816L46.9583 162.72" stroke="#251725" stroke-miterlimit="10" stroke-linecap="round" stroke-linejoin="round"/>
<path d="M37.5665 168.144L42.2624 160.048" stroke="#251725" stroke-miterlimit="10" stroke-linecap="round" stroke-linejoin="round"/>
<path d="M32.8707 165.472L37.5666 157.295" stroke="#251725" stroke-miterlimit="10" stroke-linecap="round" stroke-linejoin="round"/>
<path d="M28.2557 162.8L32.9516 154.623" stroke="#251725" stroke-miterlimit="10" stroke-linecap="round" stroke-linejoin="round"/>
</g>
<path d="M31.5752 154.461L30.0369 157.133C28.9034 159.076 31.7372 162.719 36.2711 165.31C40.8051 167.901 45.42 168.549 46.4726 166.605L48.0109 163.934C46.8774 165.877 42.3434 165.229 37.8094 162.638C33.2755 160.047 30.4418 156.404 31.5752 154.461Z" stroke="#251725" stroke-miterlimit="10" stroke-linecap="round" stroke-linejoin="round"/>
<path d="M37.4046 156.728C37.4046 156.728 36.433 157.456 37.3236 158.509C38.2952 159.642 39.3477 160.371 38.9429 161.666C38.9429 161.666 39.7525 161.342 39.6716 160.371C39.5096 159.561 38.2142 158.428 37.8904 157.942C37.2427 157.294 37.4046 156.728 37.4046 156.728Z" fill="#251725"/>
<path d="M41.2909 156.728C41.2909 156.728 40.3193 157.456 41.3718 158.509C42.4244 159.642 43.5578 160.29 43.315 161.585C43.315 161.585 44.1246 161.262 43.8817 160.29C43.6388 159.48 42.2624 158.347 41.8576 157.861C41.2099 157.294 41.2909 156.728 41.2909 156.728Z" fill="#251725"/>
<path d="M38.9429 155.999C38.9429 155.999 37.7284 156.89 38.8619 158.185C40.0764 159.561 41.5337 160.533 41.1289 162.152C41.1289 162.152 42.1814 161.666 41.9385 160.533C41.6956 159.48 39.9954 158.104 39.5096 157.537C38.8619 156.728 38.9429 155.999 38.9429 155.999Z" fill="#251725"/>
<path d="M339.38 25.127L339.785 28.8513C340.109 31.5231 335.17 34.1949 328.855 34.9236C322.54 35.6522 317.196 34.033 316.872 31.3612L316.467 27.6368C316.791 30.3086 322.135 31.8469 328.45 31.1992C334.765 30.4706 339.704 27.7988 339.38 25.127Z" fill="#DF87F1" stroke="#251725" stroke-miterlimit="10" stroke-linecap="round" stroke-linejoin="round"/>
<path d="M327.397 21.5644C333.712 20.8358 339.056 22.455 339.38 25.1268C339.704 27.7986 334.765 30.4704 328.45 31.1991C322.135 31.9278 316.791 30.3085 316.467 27.6367C316.224 24.9649 321.082 22.2931 327.397 21.5644Z" fill="url(#paint15_linear_3086_8451)" stroke="#251725" stroke-miterlimit="10" stroke-linecap="round" stroke-linejoin="round"/>
<mask id="mask6_3086_8451" style="mask-type:alpha" maskUnits="userSpaceOnUse" x="315" y="24" width="26" height="12">
<path d="M339.38 25.126L339.785 28.8503C340.109 31.5221 335.17 34.1939 328.855 34.9226C322.54 35.6512 317.196 34.032 316.872 31.3602L316.467 27.6358C316.791 30.3076 322.135 31.846 328.45 31.1983C334.765 30.4696 339.704 27.7978 339.38 25.126Z" fill="#D9D9D9" stroke="#251725" stroke-miterlimit="10" stroke-linecap="round" stroke-linejoin="round"/>
</mask>
<g mask="url(#mask6_3086_8451)">
<path d="M319.544 38.08L318.329 26.7451" stroke="#251725" stroke-miterlimit="10" stroke-linecap="round" stroke-linejoin="round"/>
<path d="M324.402 37.5947L323.187 26.2598" stroke="#251725" stroke-miterlimit="10" stroke-linecap="round" stroke-linejoin="round"/>
<path d="M329.26 37.0283L328.045 25.6934" stroke="#251725" stroke-miterlimit="10" stroke-linecap="round" stroke-linejoin="round"/>
<path d="M334.198 36.462L332.903 25.208" stroke="#251725" stroke-miterlimit="10" stroke-linecap="round" stroke-linejoin="round"/>
<path d="M339.056 35.9755L337.76 24.6406" stroke="#251725" stroke-miterlimit="10" stroke-linecap="round" stroke-linejoin="round"/>
</g>
<path d="M339.38 25.126L339.785 28.8503C340.109 31.5221 335.17 34.1939 328.855 34.9226C322.54 35.6512 317.196 34.032 316.872 31.3602L316.467 27.6358C316.791 30.3076 322.135 31.846 328.45 31.1983C334.765 30.4696 339.704 27.7978 339.38 25.126Z" stroke="#251725" stroke-miterlimit="10" stroke-linecap="round" stroke-linejoin="round"/>
<path d="M330.717 27.3136C330.798 26.9898 330.798 26.7469 330.636 26.504C330.474 26.2611 330.15 26.0992 329.664 26.0182C330.069 25.9372 330.474 25.8563 330.798 25.6134C331.122 25.4515 331.364 25.2086 331.445 24.8847C331.607 24.4799 331.526 24.237 331.122 23.9941C330.879 23.8322 330.555 23.7512 330.069 23.7512L330.312 23.1035H329.421L329.178 23.6703H328.207L328.45 23.1035H327.559L327.235 23.6703H326.021L323.268 28.771H324.725L324.402 29.4187H325.373L325.697 28.771H326.83L326.507 29.4187H327.478L327.802 28.69C328.45 28.609 328.936 28.5281 329.421 28.2852C330.15 28.1233 330.474 27.7184 330.717 27.3136ZM329.421 25.1276C329.259 25.4515 328.855 25.6134 328.207 25.6134H326.992L327.478 24.5609H328.612C329.34 24.6418 329.583 24.8038 329.421 25.1276ZM327.397 27.7184H326.021L326.588 26.504H327.964C328.288 26.504 328.531 26.5849 328.693 26.6659C328.855 26.7469 328.855 26.9088 328.774 27.0707C328.612 27.4756 328.126 27.7184 327.397 27.7184Z" fill="#251725"/>
<path d="M295.966 267.661L292.647 269.604C290.299 270.981 291.028 276.648 294.266 282.316C297.505 287.983 302.12 291.464 304.468 290.088L307.787 288.145C305.439 289.521 300.824 286.04 297.586 280.372C294.347 274.705 293.619 268.957 295.966 267.661Z" fill="#8055BB" stroke="#251725" stroke-miterlimit="10" stroke-linecap="round" stroke-linejoin="round"/>
<path d="M306.249 275.352C303.01 269.685 298.395 266.203 296.047 267.58C293.699 268.956 294.428 274.624 297.667 280.291C300.905 285.959 305.52 289.44 307.868 288.064C310.216 286.768 309.487 281.02 306.249 275.352Z" fill="#DF87F1" stroke="#251725" stroke-miterlimit="10" stroke-linecap="round" stroke-linejoin="round"/>
<mask id="mask7_3086_8451" style="mask-type:alpha" maskUnits="userSpaceOnUse" x="290" y="267" width="19" height="24">
<path d="M295.966 267.661L292.647 269.604C290.299 270.981 291.028 276.648 294.266 282.316C297.505 287.983 302.12 291.464 304.468 290.088L307.787 288.145C305.439 289.521 300.824 286.04 297.586 280.372C294.347 274.705 293.619 268.957 295.966 267.661Z" fill="#D9D9D9" stroke="#251725" stroke-miterlimit="10" stroke-linecap="round" stroke-linejoin="round"/>
</mask>
<g mask="url(#mask7_3086_8451)">
<path d="M297.343 291.95L307.463 286.121" stroke="#251725" stroke-miterlimit="10" stroke-linecap="round" stroke-linejoin="round"/>
<path d="M294.833 287.577L304.954 281.748" stroke="#251725" stroke-miterlimit="10" stroke-linecap="round" stroke-linejoin="round"/>
<path d="M292.242 283.206L302.444 277.377" stroke="#251725" stroke-miterlimit="10" stroke-linecap="round" stroke-linejoin="round"/>
<path d="M289.733 278.833L299.853 273.004" stroke="#251725" stroke-miterlimit="10" stroke-linecap="round" stroke-linejoin="round"/>
<path d="M287.223 274.462L297.343 268.633" stroke="#251725" stroke-miterlimit="10" stroke-linecap="round" stroke-linejoin="round"/>
</g>
<path d="M295.966 267.661L292.647 269.604C290.299 270.981 291.028 276.648 294.266 282.316C297.505 287.983 302.12 291.464 304.468 290.088L307.787 288.145C305.439 289.521 300.824 286.04 297.586 280.372C294.347 274.705 293.619 268.957 295.966 267.661Z" stroke="#251725" stroke-miterlimit="10" stroke-linecap="round" stroke-linejoin="round"/>
<path d="M303.82 279.805L303.091 277.214L303.82 276.242L303.334 275.675L302.767 276.242L301.715 272.761L300.096 274.056L301.148 278.023L299.772 279.562L300.581 280.371L301.472 279.238L302.444 283.124L306.654 278.752L306.249 277.457L303.82 279.805Z" fill="#251725"/>
<path d="M152.852 49.458L168.685 49.458L176.721 35.7841L168.685 22.1102L152.852 22.1103L144.936 35.7841L152.852 49.458Z" fill="#219F70" stroke="#251725" stroke-miterlimit="10" stroke-linecap="round" stroke-linejoin="round"/>
<path d="M185.117 14.3125L191.594 14.3125L194.833 8.795L191.594 3.27747L185.117 3.27747L181.999 8.795L185.117 14.3125Z" stroke="#AF56FF" stroke-miterlimit="10" stroke-linecap="round" stroke-linejoin="round"/>
<path d="M150.573 16.4727L159.569 16.4727L164.007 8.79611L159.569 0.999603L150.573 0.999604L146.135 8.79611L150.573 16.4727Z" stroke="#AF56FF" stroke-miterlimit="10" stroke-linecap="round" stroke-linejoin="round"/>
<path d="M24.8693 196.512H9.03641L1 210.186L9.03641 223.859H24.8693L32.7857 210.186L24.8693 196.512Z" fill="#219F70" stroke="#251725" stroke-miterlimit="10" stroke-linecap="round" stroke-linejoin="round"/>
<path d="M48.0189 184.517H39.0229L34.585 192.193L39.0229 199.99H48.0189L52.4569 192.193L48.0189 184.517Z" stroke="#8055BB" stroke-miterlimit="10" stroke-linecap="round" stroke-linejoin="round"/>
<defs>
<linearGradient id="paint0_linear_3086_8451" x1="339.299" y1="197.053" x2="261.034" y2="39.2381" gradientUnits="userSpaceOnUse">
<stop stop-color="#DF87F1"/>
<stop offset="0.75" stop-color="#FBFBFF"/>
</linearGradient>
<linearGradient id="paint1_linear_3086_8451" x1="400.815" y1="151.731" x2="344.194" y2="95.4969" gradientUnits="userSpaceOnUse">
<stop offset="0.35" stop-color="#DF87F1"/>
<stop offset="0.45" stop-color="#FBFBFF"/>
</linearGradient>
<linearGradient id="paint2_linear_3086_8451" x1="356.589" y1="79.8355" x2="380.958" y2="148.549" gradientUnits="userSpaceOnUse">
<stop offset="0.1" stop-color="#DF87F1"/>
<stop offset="0.3" stop-color="#FBFBFF"/>
<stop offset="0.5" stop-color="#DF87F1"/>
<stop offset="0.8" stop-color="#FBFBFF"/>
</linearGradient>
<linearGradient id="paint3_linear_3086_8451" x1="348.01" y1="82.3752" x2="414.236" y2="148.029" gradientUnits="userSpaceOnUse">
<stop offset="0.3" stop-color="#F76DFC"/>
<stop offset="0.75" stop-color="#1288AA"/>
</linearGradient>
<linearGradient id="paint4_linear_3086_8451" x1="113.168" y1="294.441" x2="39.7071" y2="221.537" gradientUnits="userSpaceOnUse">
<stop offset="0.75" stop-color="#DF87F1"/>
<stop offset="0.9" stop-color="#FBFBFF"/>
</linearGradient>
<linearGradient id="paint5_linear_3086_8451" x1="120.022" y1="290.644" x2="44.7669" y2="215.92" gradientUnits="userSpaceOnUse">
<stop stop-color="#DF87F1"/>
<stop offset="0.75" stop-color="#FBFBFF"/>
</linearGradient>
<linearGradient id="paint6_linear_3086_8451" x1="58.4117" y1="204.606" x2="144.218" y2="289.741" gradientUnits="userSpaceOnUse">
<stop offset="0.15" stop-color="#10AD74"/>
<stop offset="0.5" stop-color="#1288AA"/>
</linearGradient>
<linearGradient id="paint7_linear_3086_8451" x1="282.066" y1="35.0589" x2="237.779" y2="83.5359" gradientUnits="userSpaceOnUse">
<stop stop-color="#DF87F1"/>
<stop offset="0.75" stop-color="#FBFBFF"/>
</linearGradient>
<linearGradient id="paint8_linear_3086_8451" x1="265.901" y1="23.3144" x2="248.164" y2="78.2285" gradientUnits="userSpaceOnUse">
<stop offset="0.35" stop-color="#F76DFC"/>
<stop offset="0.85" stop-color="#1288AA"/>
</linearGradient>
<linearGradient id="paint9_linear_3086_8451" x1="284.407" y1="72.4165" x2="246.401" y2="2.38097" gradientUnits="userSpaceOnUse">
<stop offset="0.5" stop-color="#DF87F1"/>
<stop offset="0.75" stop-color="#FBFBFF"/>
</linearGradient>
<linearGradient id="paint10_linear_3086_8451" x1="269.115" y1="191.805" x2="254.019" y2="158.804" gradientUnits="userSpaceOnUse">
<stop offset="0.55" stop-color="#FBFBFF"/>
<stop offset="0.9" stop-color="#DF87F1"/>
</linearGradient>
<linearGradient id="paint11_linear_3086_8451" x1="223.244" y1="158.035" x2="265.889" y2="221.036" gradientUnits="userSpaceOnUse">
<stop offset="0.293434" stop-color="#10AD74"/>
<stop offset="0.495204" stop-color="#1288AA"/>
</linearGradient>
<linearGradient id="paint12_linear_3086_8451" x1="276.807" y1="210.918" x2="236.982" y2="153.855" gradientUnits="userSpaceOnUse">
<stop offset="0.4" stop-color="#DF87F1"/>
<stop offset="0.75" stop-color="#FBFBFF"/>
</linearGradient>
<linearGradient id="paint13_linear_3086_8451" x1="117.783" y1="117.744" x2="102.724" y2="96.1099" gradientUnits="userSpaceOnUse">
<stop stop-color="#DF87F1"/>
<stop offset="0.75" stop-color="#FBFBFF"/>
</linearGradient>
<linearGradient id="paint14_linear_3086_8451" x1="50.2161" y1="165.063" x2="39.1857" y2="149.141" gradientUnits="userSpaceOnUse">
<stop stop-color="#DF87F1"/>
<stop offset="0.75" stop-color="#FBFBFF"/>
</linearGradient>
<linearGradient id="paint15_linear_3086_8451" x1="342.043" y1="31.3739" x2="334.705" y2="14.5155" gradientUnits="userSpaceOnUse">
<stop stop-color="#DF87F1"/>
<stop offset="0.75" stop-color="#FBFBFF"/>
</linearGradient>
</defs>
</svg>
