<svg width="92" height="101" viewBox="0 0 92 101" fill="none" xmlns="http://www.w3.org/2000/svg">
<path d="M90.3505 12.5L84.9505 11.1L84.0505 12.7C64.9505 12.1 47.8505 2.7 47.8505 2.7L41.3505 1L44.2505 5.3C37.6505 9.9 22.9505 19.2 9.05047 21C9.05047 21 3.35049 68.8 40.9505 95V100.4L47.8505 99.3C98.0505 70.5 90.3505 12.5 90.3505 12.5Z" fill="#251725" stroke="#251725" stroke-miterlimit="10" stroke-linecap="round" stroke-linejoin="round"/>
<path d="M84.9505 11.1C62.9505 12.9 41.3505 1 41.3505 1C41.3505 1 20.6505 17.3 1.35054 19.8C1.35054 19.8 -5.44949 74.9 40.8505 100.3C92.7505 70.7 84.9505 11.1 84.9505 11.1Z" fill="#A499CE"/>
<path d="M84.9505 11.1C62.9505 12.9 41.3505 1 41.3505 1C41.3505 1 20.6505 17.3 1.35054 19.8C1.35054 19.8 -5.44949 74.9 40.8505 100.3C92.7505 70.7 84.9505 11.1 84.9505 11.1Z" fill="url(#paint0_linear_3075_11792)"/>
<path d="M84.9505 11.1C62.9505 12.9 41.3505 1 41.3505 1C41.3505 1 20.6505 17.3 1.35054 19.8C1.35054 19.8 -5.44949 74.9 40.8505 100.3C92.7505 70.7 84.9505 11.1 84.9505 11.1Z" fill="url(#paint1_linear_3075_11792)"/>
<path d="M84.9505 11.1C62.9505 12.9 41.3505 1 41.3505 1C41.3505 1 20.6505 17.3 1.35054 19.8C1.35054 19.8 -5.44949 74.9 40.8505 100.3C92.7505 70.7 84.9505 11.1 84.9505 11.1Z" stroke="#251725" stroke-miterlimit="10" stroke-linecap="round" stroke-linejoin="round"/>
<path d="M40.9507 92.0996C8.85065 72.9996 6.45064 38.3996 6.75064 25.1996C21.1506 21.8996 35.0506 12.9996 41.3506 8.59961C47.6506 11.5996 62.3506 17.7996 78.5506 18.1996C78.7506 32.2996 75.6507 69.9996 40.9507 92.0996Z" fill="#FBFBFF"/>
<path d="M40.9507 92.0996C8.85065 72.9996 6.45064 38.3996 6.75064 25.1996C21.1506 21.8996 35.0506 12.9996 41.3506 8.59961C47.6506 11.5996 62.3506 17.7996 78.5506 18.1996C78.7506 32.2996 75.6507 69.9996 40.9507 92.0996Z" fill="url(#paint2_linear_3075_11792)"/>
<path d="M40.9507 92.0996C8.85065 72.9996 6.45064 38.3996 6.75064 25.1996C21.1506 21.8996 35.0506 12.9996 41.3506 8.59961C47.6506 11.5996 62.3506 17.7996 78.5506 18.1996C78.7506 32.2996 75.6507 69.9996 40.9507 92.0996Z" stroke="#251725" stroke-miterlimit="10" stroke-linecap="round" stroke-linejoin="round"/>
<path d="M42.6439 43.5418C47.8806 43.5418 52.1257 38.7964 52.1257 32.9428C52.1257 27.0891 47.8806 22.3438 42.6439 22.3438C37.4073 22.3438 33.1621 27.0891 33.1621 32.9428C33.1621 38.7964 37.4073 43.5418 42.6439 43.5418Z" fill="#251725"/>
<path d="M49.7858 47.0742L35.5019 47.5164C33.1804 47.5192 30.9548 48.4426 29.3132 50.0842C27.6716 51.7258 26.7482 53.9514 26.7454 56.2729V63.2567L58.5424 64.7392V55.8307C58.5396 53.5092 57.6161 51.2836 55.9746 49.642C54.333 48.0005 52.1074 47.077 49.7858 47.0742Z" fill="#251725"/>
<defs>
<linearGradient id="paint0_linear_3075_11792" x1="20.1895" y1="-26.064" x2="154.423" y2="87.983" gradientUnits="userSpaceOnUse">
<stop offset="0.15" stop-color="#10AD74"/>
<stop offset="0.65" stop-color="#1288AA"/>
</linearGradient>
<linearGradient id="paint1_linear_3075_11792" x1="20.1895" y1="-26.064" x2="131.538" y2="68.5399" gradientUnits="userSpaceOnUse">
<stop offset="0.1" stop-color="#F76DFC"/>
<stop offset="0.7" stop-color="#1288AA"/>
</linearGradient>
<linearGradient id="paint2_linear_3075_11792" x1="121.272" y1="114.8" x2="1.35566" y2="26.3678" gradientUnits="userSpaceOnUse">
<stop offset="0.35" stop-color="#DF87F1"/>
<stop offset="0.65" stop-color="#FBFBFF"/>
</linearGradient>
</defs>
</svg>
