<svg width="74" height="107" viewBox="0 0 74 107" fill="none" xmlns="http://www.w3.org/2000/svg">
<path d="M33.8676 57.675H26.769V101.437H33.8676V57.675Z" fill="#FBFBFF" stroke="#251725" stroke-miterlimit="10" stroke-linecap="round" stroke-linejoin="round"/>
<path d="M26.769 63.6758C26.769 63.6758 31.0867 64.1881 33.8676 65.7249V59.0654H26.769V63.6758Z" fill="#251725" stroke="#251725" stroke-miterlimit="10" stroke-linecap="round" stroke-linejoin="round"/>
<path d="M33.355 59.285C49.3599 59.285 62.3345 46.3105 62.3345 30.3055C62.3345 14.3006 49.3599 1.32605 33.355 1.32605C17.35 1.32605 4.37549 14.3006 4.37549 30.3055C4.37549 46.3105 17.35 59.285 33.355 59.285Z" fill="#251725" stroke="#251725" stroke-miterlimit="10" stroke-linecap="round" stroke-linejoin="round"/>
<path d="M30.3545 59.285C46.3594 59.285 59.334 46.3105 59.334 30.3055C59.334 14.3006 46.3594 1.32605 30.3545 1.32605C14.3496 1.32605 1.375 14.3006 1.375 30.3055C1.375 46.3105 14.3496 59.285 30.3545 59.285Z" fill="#A499CE"/>
<path d="M30.3545 59.285C46.3594 59.285 59.334 46.3105 59.334 30.3055C59.334 14.3006 46.3594 1.32605 30.3545 1.32605C14.3496 1.32605 1.375 14.3006 1.375 30.3055C1.375 46.3105 14.3496 59.285 30.3545 59.285Z" fill="url(#paint0_linear_2216_2551)"/>
<path d="M30.3545 59.285C46.3594 59.285 59.334 46.3105 59.334 30.3055C59.334 14.3006 46.3594 1.32605 30.3545 1.32605C14.3496 1.32605 1.375 14.3006 1.375 30.3055C1.375 46.3105 14.3496 59.285 30.3545 59.285Z" stroke="#251725" stroke-miterlimit="10" stroke-linecap="round" stroke-linejoin="round"/>
<path d="M30.3546 53.0647C42.9241 53.0647 53.1137 42.8751 53.1137 30.3055C53.1137 17.736 42.9241 7.54639 30.3546 7.54639C17.7851 7.54639 7.59546 17.736 7.59546 30.3055C7.59546 42.8751 17.7851 53.0647 30.3546 53.0647Z" fill="white"/>
<path d="M30.3546 53.0647C42.9241 53.0647 53.1137 42.8751 53.1137 30.3055C53.1137 17.736 42.9241 7.54639 30.3546 7.54639C17.7851 7.54639 7.59546 17.736 7.59546 30.3055C7.59546 42.8751 17.7851 53.0647 30.3546 53.0647Z" fill="url(#paint1_linear_2216_2551)"/>
<path d="M30.3546 53.0647C42.9241 53.0647 53.1137 42.8751 53.1137 30.3055C53.1137 17.736 42.9241 7.54639 30.3546 7.54639C17.7851 7.54639 7.59546 17.736 7.59546 30.3055C7.59546 42.8751 17.7851 53.0647 30.3546 53.0647Z" fill="url(#paint2_linear_2216_2551)"/>
<path d="M30.3546 53.0647C42.9241 53.0647 53.1137 42.8751 53.1137 30.3055C53.1137 17.736 42.9241 7.54639 30.3546 7.54639C17.7851 7.54639 7.59546 17.736 7.59546 30.3055C7.59546 42.8751 17.7851 53.0647 30.3546 53.0647Z" stroke="#251725" stroke-miterlimit="10" stroke-linecap="round" stroke-linejoin="round"/>
<path d="M19.5 35L28.5 43.5L34.25 35L37.125 30.75L36.5 24.5" stroke="#251725" stroke-width="2" stroke-linecap="round" stroke-linejoin="round"/>
<path d="M19.8227 37.6454C21.3816 37.6454 22.6454 36.3816 22.6454 34.8227C22.6454 33.2638 21.3816 32 19.8227 32C18.2638 32 17 33.2638 17 34.8227C17 36.3816 18.2638 37.6454 19.8227 37.6454Z" fill="#A499CE"/>
<path d="M19.8227 37.6454C21.3816 37.6454 22.6454 36.3816 22.6454 34.8227C22.6454 33.2638 21.3816 32 19.8227 32C18.2638 32 17 33.2638 17 34.8227C17 36.3816 18.2638 37.6454 19.8227 37.6454Z" fill="url(#paint3_linear_2216_2551)"/>
<path d="M19.8227 37.6454C21.3816 37.6454 22.6454 36.3816 22.6454 34.8227C22.6454 33.2638 21.3816 32 19.8227 32C18.2638 32 17 33.2638 17 34.8227C17 36.3816 18.2638 37.6454 19.8227 37.6454Z" stroke="#251725" stroke-miterlimit="10" stroke-linecap="round" stroke-linejoin="round"/>
<path d="M28 37L39.5 20" stroke="#251725" stroke-width="2" stroke-linecap="round"/>
<path d="M39.8227 22.6454C41.3816 22.6454 42.6454 21.3816 42.6454 19.8227C42.6454 18.2638 41.3816 17 39.8227 17C38.2638 17 37 18.2638 37 19.8227C37 21.3816 38.2638 22.6454 39.8227 22.6454Z" fill="#A499CE"/>
<path d="M39.8227 22.6454C41.3816 22.6454 42.6454 21.3816 42.6454 19.8227C42.6454 18.2638 41.3816 17 39.8227 17C38.2638 17 37 18.2638 37 19.8227C37 21.3816 38.2638 22.6454 39.8227 22.6454Z" fill="url(#paint4_linear_2216_2551)"/>
<path d="M39.8227 22.6454C41.3816 22.6454 42.6454 21.3816 42.6454 19.8227C42.6454 18.2638 41.3816 17 39.8227 17C38.2638 17 37 18.2638 37 19.8227C37 21.3816 38.2638 22.6454 39.8227 22.6454Z" stroke="#251725" stroke-miterlimit="10" stroke-linecap="round" stroke-linejoin="round"/>
<path d="M25.8906 105.681C25.8906 105.681 38.4045 107.218 44.3321 104.657C48.7961 102.681 50.6988 101.071 53.6992 101.437C56.6996 101.803 61.8954 103.193 69.9453 103.12" stroke="#251725" stroke-miterlimit="10" stroke-linecap="round" stroke-linejoin="round"/>
<path d="M39.7215 86.5814C39.7215 86.5814 38.9897 84.02 37.6725 83.2882C36.2821 82.4832 39.6484 90.094 39.2093 95.363C38.697 100.705 36.3552 103.998 36.3552 103.998C36.3552 103.998 29.9885 100.559 29.6958 97.8511C29.4031 95.1435 31.3058 81.8246 31.5253 81.6051C31.7449 81.3855 35.038 78.8974 35.038 78.8974C35.038 78.8974 38.8434 76.2629 39.7215 86.5814Z" fill="#251725"/>
<path d="M31.8913 84.3859H20.4751C18.4261 84.3859 16.7429 82.7027 16.7429 80.6537C16.7429 78.5315 18.4993 76.8483 20.6215 76.9215L31.9645 77.3606C33.6476 77.4337 34.9649 78.8242 34.9649 80.5073V81.2391C35.0381 82.9955 33.6476 84.3859 31.8913 84.3859Z" fill="#FBFBFF" stroke="#251725" stroke-miterlimit="10" stroke-linecap="round" stroke-linejoin="round"/>
<path d="M32.9159 91.4112L21.5729 91.8503C19.4507 91.9235 17.6943 90.2404 17.6943 88.1181C17.6943 86.0691 19.3775 84.3859 21.4265 84.3859H32.8427C34.599 84.3859 35.9895 85.7764 35.9895 87.5327V88.2645C35.9163 89.9476 34.599 91.3381 32.9159 91.4112Z" fill="#FBFBFF" stroke="#251725" stroke-miterlimit="10" stroke-linecap="round" stroke-linejoin="round"/>
<path d="M34.8188 98.3634L23.4759 99.3148C21.3536 99.4611 19.4509 97.778 19.4509 95.6557C19.4509 93.6799 20.9877 92.0699 23.0368 91.9235L34.4529 91.4844C36.2093 91.4113 37.7461 92.8017 37.7461 94.6312V95.363C37.6729 96.8998 36.4288 98.2171 34.8188 98.3634Z" fill="#FBFBFF" stroke="#251725" stroke-miterlimit="10" stroke-linecap="round" stroke-linejoin="round"/>
<path d="M34.0868 105.242L24.3538 105.755C22.7438 105.828 21.2802 104.584 21.207 102.901V102.462C21.1338 100.778 22.4511 99.3148 24.1342 99.3148L33.8672 99.2416C35.4772 99.2416 36.7945 100.486 36.8676 102.096C36.9408 103.779 35.6967 105.169 34.0868 105.242Z" fill="#FBFBFF" stroke="#251725" stroke-miterlimit="10" stroke-linecap="round" stroke-linejoin="round"/>
<path d="M68.4815 76.9215C68.4815 76.9215 53.9186 80.5073 50.4791 78.8973C47.0397 77.2874 46.9665 72.677 41.4779 72.677C34.599 72.677 29.33 73.9942 29.1104 76.2628C28.8909 78.5314 30.4277 79.3364 34.7453 79.4828C39.063 79.6292 38.1848 80.5805 39.9411 87.2399C41.6243 93.6066 48.5764 94.4848 51.5768 93.3139" fill="#FBFBFF"/>
<path d="M68.4815 76.9215C68.4815 76.9215 53.9186 80.5073 50.4791 78.8973C47.0397 77.2874 46.9665 72.677 41.4779 72.677C34.599 72.677 29.33 73.9942 29.1104 76.2628C28.8909 78.5314 30.4277 79.3364 34.7453 79.4828C39.063 79.6292 38.1848 80.5805 39.9411 87.2399C41.6243 93.6066 48.5764 94.4848 51.5768 93.3139" stroke="#251725" stroke-miterlimit="10" stroke-linecap="round" stroke-linejoin="round"/>
<path d="M61.3831 75.897C61.3831 75.897 61.6026 97.2657 61.3831 104.73L73.1651 106.121V74.4333L61.3831 75.897Z" fill="#A499CE"/>
<path d="M61.3831 75.897C61.3831 75.897 61.6026 97.2657 61.3831 104.73L73.1651 106.121V74.4333L61.3831 75.897Z" fill="url(#paint5_linear_2216_2551)"/>
<path d="M61.3831 75.897C61.3831 75.897 61.6026 97.2657 61.3831 104.73L73.1651 106.121V74.4333L61.3831 75.897Z" stroke="#251725" stroke-miterlimit="10" stroke-linecap="round" stroke-linejoin="round"/>
<path d="M61.383 85.9227C61.383 85.9227 61.0171 96.607 58.0898 102.169L61.383 102.608V85.9227Z" fill="#251725"/>
<defs>
<linearGradient id="paint0_linear_2216_2551" x1="14.5579" y1="-14.4706" x2="80.4143" y2="51.3859" gradientUnits="userSpaceOnUse">
<stop offset="0.1" stop-color="#F76DFC"/>
<stop offset="0.7" stop-color="#1288AA"/>
</linearGradient>
<linearGradient id="paint1_linear_2216_2551" x1="80.1804" y1="65.4391" x2="12.5591" y2="7.47013" gradientUnits="userSpaceOnUse">
<stop offset="0.25" stop-color="#DF87F1"/>
<stop offset="0.6" stop-color="#FBFBFF"/>
</linearGradient>
<linearGradient id="paint2_linear_2216_2551" x1="80.1804" y1="65.4391" x2="12.5591" y2="7.47013" gradientUnits="userSpaceOnUse">
<stop offset="0.2" stop-color="#DF87F1"/>
<stop offset="0.7" stop-color="#FBFBFF"/>
</linearGradient>
<linearGradient id="paint3_linear_2216_2551" x1="18.284" y1="30.4614" x2="26.017" y2="38.1943" gradientUnits="userSpaceOnUse">
<stop offset="0.15" stop-color="#10AD74"/>
<stop offset="0.75" stop-color="#1288AA"/>
</linearGradient>
<linearGradient id="paint4_linear_2216_2551" x1="38.284" y1="15.4614" x2="46.017" y2="23.1943" gradientUnits="userSpaceOnUse">
<stop offset="0.15" stop-color="#10AD74"/>
<stop offset="0.75" stop-color="#1288AA"/>
</linearGradient>
<linearGradient id="paint5_linear_2216_2551" x1="64.0629" y1="65.7971" x2="87.5858" y2="74.5435" gradientUnits="userSpaceOnUse">
<stop offset="0.1" stop-color="#F76DFC"/>
<stop offset="0.7" stop-color="#1288AA"/>
</linearGradient>
</defs>
</svg>
