<svg width="94" height="92" viewBox="0 0 94 92" fill="none" xmlns="http://www.w3.org/2000/svg">
<path d="M85.6426 81.8757H14.5844C11.8035 81.8757 9.53491 79.6071 9.53491 76.8263V5.76798C9.53491 2.98712 11.8035 0.718529 14.5844 0.718529H85.6426C88.4235 0.718529 90.6921 2.98712 90.6921 5.76798V76.8263C90.6921 79.6071 88.4235 81.8757 85.6426 81.8757Z" fill="#251725" stroke="#251725" stroke-miterlimit="10" stroke-linecap="round" stroke-linejoin="round"/>
<path d="M15.9014 81.8757L16.7795 85.6811C16.9259 86.3397 17.5113 86.7788 18.0968 86.7788H26.4394C27.098 86.7788 27.6834 86.3397 27.7566 85.6811L28.5616 81.8757H15.9014Z" fill="#251725" stroke="#251725" stroke-miterlimit="10" stroke-linecap="round" stroke-linejoin="round"/>
<path d="M71.592 81.8757L72.4702 85.6811C72.6166 86.3397 73.202 86.7788 73.7875 86.7788H82.13C82.7887 86.7788 83.3741 86.3397 83.4473 85.6811L84.2523 81.8757H71.592Z" fill="#251725" stroke="#251725" stroke-miterlimit="10" stroke-linecap="round" stroke-linejoin="round"/>
<path d="M77.0072 81.8757H6.02211C3.24125 81.8757 0.972656 79.6071 0.972656 76.8262V5.76797C0.972656 2.98711 3.24125 0.718513 6.02211 0.718513H77.0804C79.8613 0.718513 82.1298 2.98711 82.1298 5.76797V76.8262C82.1298 79.6071 79.7881 81.8757 77.0072 81.8757Z" fill="url(#paint0_linear_2216_2581)" stroke="#251725" stroke-miterlimit="10" stroke-linecap="round" stroke-linejoin="round"/>
<path d="M12.6814 71.5573C11.8764 71.5573 11.2178 70.8986 11.2178 70.0937V12.5006C11.2178 11.6956 11.8764 11.037 12.6814 11.037H70.3476C71.1526 11.037 71.8112 11.6956 71.8112 12.5006V70.1668C71.8112 70.9718 71.1526 71.6305 70.3476 71.6305H12.6814V71.5573Z" fill="url(#paint1_linear_2216_2581)" stroke="#251725" stroke-miterlimit="10" stroke-linecap="round" stroke-linejoin="round"/>
<path d="M11.5106 33.4302C10.3397 33.4302 9.31519 32.4789 9.31519 31.2348V23.5508C9.31519 22.38 10.2665 21.3554 11.5106 21.3554C12.6815 21.3554 13.706 22.3068 13.706 23.5508V31.2348C13.706 32.4057 12.7547 33.4302 11.5106 33.4302Z" fill="#251725" stroke="#251725" stroke-miterlimit="10" stroke-linecap="round" stroke-linejoin="round"/>
<path d="M11.5106 61.2388C10.3397 61.2388 9.31519 60.2875 9.31519 59.0434V51.3595C9.31519 50.1886 10.2665 49.164 11.5106 49.164C12.6815 49.164 13.706 50.1154 13.706 51.3595V59.0434C13.706 60.2875 12.7547 61.2388 11.5106 61.2388Z" fill="#251725" stroke="#251725" stroke-miterlimit="10" stroke-linecap="round" stroke-linejoin="round"/>
<path d="M7.3396 81.8757L8.21777 85.6811C8.36413 86.3397 8.94957 86.7788 9.53502 86.7788H17.8776C18.5362 86.7788 19.1217 86.3397 19.1948 85.6811L19.9998 81.8757H7.3396Z" fill="white" stroke="#251725" stroke-miterlimit="10" stroke-linecap="round" stroke-linejoin="round"/>
<path d="M62.9568 81.8757L63.835 85.6811C63.9813 86.3397 64.5668 86.7788 65.1522 86.7788H73.4948C74.1534 86.7788 74.7388 86.3397 74.812 85.6811L75.617 81.8757H62.9568Z" fill="white" stroke="#251725" stroke-miterlimit="10" stroke-linecap="round" stroke-linejoin="round"/>
<path d="M41.5147 60.4338C52.0634 60.4338 60.6148 51.8824 60.6148 41.3337C60.6148 30.785 52.0634 22.2336 41.5147 22.2336C30.966 22.2336 22.4146 30.785 22.4146 41.3337C22.4146 51.8824 30.966 60.4338 41.5147 60.4338Z" fill="#251725" stroke="#251725" stroke-miterlimit="10" stroke-linecap="round" stroke-linejoin="round"/>
<path d="M30.6106 49.3104L28.6348 51.2863C29.0738 51.8717 29.5861 52.4572 30.0984 52.9694L32.0743 50.9936C31.4888 50.4813 31.0497 49.8958 30.6106 49.3104Z" fill="white"/>
<path d="M51.5403 28.3808L49.5645 30.3566C50.1499 30.7957 50.7353 31.308 51.2476 31.8203L53.2235 29.8444C52.638 29.3321 52.1258 28.8199 51.5403 28.3808Z" fill="white"/>
<path d="M29.5861 47.7004C28.6348 46.0173 28.0494 44.0414 27.9762 41.9923L25.488 44.4805C25.8539 46.3832 26.5857 48.1395 27.5371 49.7495L29.5861 47.7004Z" fill="white"/>
<path d="M50.0035 27.3562C48.3935 26.4049 46.6372 25.6731 44.7345 25.3072L42.2463 27.7953C44.2954 27.9417 46.1981 28.454 47.9544 29.4053L50.0035 27.3562Z" fill="white"/>
<path d="M41.5144 52.384C47.6173 52.384 52.5646 47.4366 52.5646 41.3337C52.5646 35.2308 47.6173 30.2835 41.5144 30.2835C35.4115 30.2835 30.4641 35.2308 30.4641 41.3337C30.4641 47.4366 35.4115 52.384 41.5144 52.384Z" fill="#EBEDFD"/>
<path d="M41.5144 52.384C47.6173 52.384 52.5646 47.4366 52.5646 41.3337C52.5646 35.2308 47.6173 30.2835 41.5144 30.2835C35.4115 30.2835 30.4641 35.2308 30.4641 41.3337C30.4641 47.4366 35.4115 52.384 41.5144 52.384Z" fill="url(#paint2_linear_2216_2581)"/>
<path d="M41.5144 52.384C47.6173 52.384 52.5646 47.4366 52.5646 41.3337C52.5646 35.2308 47.6173 30.2835 41.5144 30.2835C35.4115 30.2835 30.4641 35.2308 30.4641 41.3337C30.4641 47.4366 35.4115 52.384 41.5144 52.384Z" fill="url(#paint3_linear_2216_2581)"/>
<path d="M41.5144 52.384C47.6173 52.384 52.5646 47.4366 52.5646 41.3337C52.5646 35.2308 47.6173 30.2835 41.5144 30.2835C35.4115 30.2835 30.4641 35.2308 30.4641 41.3337C30.4641 47.4366 35.4115 52.384 41.5144 52.384Z" stroke="#251725" stroke-miterlimit="10" stroke-linecap="round" stroke-linejoin="round"/>
<path d="M41.5147 45.8709C44.0206 45.8709 46.0519 43.8395 46.0519 41.3337C46.0519 38.8279 44.0206 36.7965 41.5147 36.7965C39.0089 36.7965 36.9775 38.8279 36.9775 41.3337C36.9775 43.8395 39.0089 45.8709 41.5147 45.8709Z" fill="#251725" stroke="#251725" stroke-miterlimit="10" stroke-linecap="round" stroke-linejoin="round"/>
<path d="M41.5144 25.5267C40.563 25.5267 39.7581 24.7217 39.7581 23.7704V21.4286C39.7581 20.4772 40.563 19.6723 41.5144 19.6723C42.4657 19.6723 43.2707 20.4772 43.2707 21.4286V23.7704C43.2707 24.7217 42.4657 25.5267 41.5144 25.5267Z" fill="white" stroke="#251725" stroke-miterlimit="10" stroke-linecap="round" stroke-linejoin="round"/>
<path d="M41.5144 62.922C40.563 62.922 39.7581 62.117 39.7581 61.1656V58.8239C39.7581 57.8725 40.563 57.0675 41.5144 57.0675C42.4657 57.0675 43.2707 57.8725 43.2707 58.8239V61.1656C43.2707 62.1902 42.4657 62.922 41.5144 62.922Z" fill="white" stroke="#251725" stroke-miterlimit="10" stroke-linecap="round" stroke-linejoin="round"/>
<path d="M25.7075 41.3337C25.7075 42.285 24.9025 43.09 23.9511 43.09H21.6094C20.658 43.09 19.853 42.285 19.853 41.3337C19.853 40.3824 20.658 39.5774 21.6094 39.5774H23.9511C24.9025 39.5774 25.7075 40.3824 25.7075 41.3337Z" fill="white" stroke="#251725" stroke-miterlimit="10" stroke-linecap="round" stroke-linejoin="round"/>
<path d="M63.176 41.3337C63.176 42.285 62.371 43.09 61.4196 43.09H59.0779C58.1265 43.09 57.3215 42.285 57.3215 41.3337C57.3215 40.3823 58.1265 39.5774 59.0779 39.5774H61.4196C62.371 39.5774 63.176 40.3823 63.176 41.3337Z" fill="white" stroke="#251725" stroke-miterlimit="10" stroke-linecap="round" stroke-linejoin="round"/>
<path d="M52.7115 30.1371C52.0529 29.4785 52.0529 28.3808 52.7115 27.649L54.3947 25.9658C55.0533 25.3072 56.151 25.3072 56.8828 25.9658C57.5414 26.6244 57.5414 27.7221 56.8828 28.4539L55.1996 30.1371C54.4678 30.7957 53.3701 30.7957 52.7115 30.1371Z" fill="white" stroke="#251725" stroke-miterlimit="10" stroke-linecap="round" stroke-linejoin="round"/>
<path d="M26.22 56.6285C25.5614 55.9698 25.5614 54.8721 26.22 54.1403L27.9032 52.4572C28.5618 51.7985 29.6595 51.7985 30.3913 52.4572C31.05 53.1158 31.05 54.2135 30.3913 54.9453L28.7082 56.6285C27.9764 57.2871 26.8787 57.2871 26.22 56.6285Z" fill="white" stroke="#251725" stroke-miterlimit="10" stroke-linecap="round" stroke-linejoin="round"/>
<path d="M30.3181 30.1371C29.6595 30.7957 28.5618 30.7957 27.83 30.1371L26.1468 28.4539C25.4882 27.7953 25.4882 26.6976 26.1468 25.9658C26.8054 25.3072 27.9031 25.3072 28.6349 25.9658L30.3181 27.649C30.9767 28.3808 30.9767 29.4785 30.3181 30.1371Z" fill="white" stroke="#251725" stroke-miterlimit="10" stroke-linecap="round" stroke-linejoin="round"/>
<path d="M56.8095 56.6285C56.1509 57.2871 55.0532 57.2871 54.3214 56.6285L52.6383 54.9453C51.9796 54.2867 51.9796 53.189 52.6383 52.4572C53.2969 51.7985 54.3946 51.7985 55.1264 52.4572L56.8095 54.1403C57.4682 54.7989 57.4682 55.9698 56.8095 56.6285Z" fill="white" stroke="#251725" stroke-miterlimit="10" stroke-linecap="round" stroke-linejoin="round"/>
<path d="M7.92504 84.3638H22.7807V81.8757H7.3396L7.92504 84.3638Z" fill="#251725" stroke="#251725" stroke-miterlimit="10" stroke-linecap="round" stroke-linejoin="round"/>
<path d="M63.5422 84.3638H78.3979V81.8757H62.9568L63.5422 84.3638Z" fill="#251725" stroke="#251725" stroke-miterlimit="10" stroke-linecap="round" stroke-linejoin="round"/>
<path d="M10.5594 33.4302C9.38854 33.4302 8.36401 32.4789 8.36401 31.2348V23.5508C8.36401 22.38 9.31536 21.3554 10.5594 21.3554C11.7303 21.3554 12.7548 22.3068 12.7548 23.5508V31.2348C12.6817 32.4057 11.7303 33.4302 10.5594 33.4302Z" fill="white" stroke="#251725" stroke-miterlimit="10" stroke-linecap="round" stroke-linejoin="round"/>
<path d="M10.5594 61.2388C9.38854 61.2388 8.36401 60.2875 8.36401 59.0434V51.3595C8.36401 50.1886 9.31536 49.164 10.5594 49.164C11.7303 49.164 12.7548 50.1154 12.7548 51.3595V59.0434C12.6817 60.2875 11.7303 61.2388 10.5594 61.2388Z" fill="white" stroke="#251725" stroke-miterlimit="10" stroke-linecap="round" stroke-linejoin="round"/>
<path d="M74.0798 90.8769C84.3456 90.8769 92.6676 82.5548 92.6676 72.2891C92.6676 62.0233 84.3456 53.7012 74.0798 53.7012C63.814 53.7012 55.4919 62.0233 55.4919 72.2891C55.4919 82.5548 63.814 90.8769 74.0798 90.8769Z" fill="#251725" stroke="#251725" stroke-miterlimit="10" stroke-linecap="round" stroke-linejoin="round"/>
<path d="M70.7868 90.8769C81.0526 90.8769 89.3747 82.5548 89.3747 72.2891C89.3747 62.0233 81.0526 53.7012 70.7868 53.7012C60.521 53.7012 52.199 62.0233 52.199 72.2891C52.199 82.5548 60.521 90.8769 70.7868 90.8769Z" fill="#DF87F1"/>
<path d="M70.7868 90.8769C81.0526 90.8769 89.3747 82.5548 89.3747 72.2891C89.3747 62.0233 81.0526 53.7012 70.7868 53.7012C60.521 53.7012 52.199 62.0233 52.199 72.2891C52.199 82.5548 60.521 90.8769 70.7868 90.8769Z" fill="url(#paint4_linear_2216_2581)"/>
<path d="M70.7868 90.8769C81.0526 90.8769 89.3747 82.5548 89.3747 72.2891C89.3747 62.0233 81.0526 53.7012 70.7868 53.7012C60.521 53.7012 52.199 62.0233 52.199 72.2891C52.199 82.5548 60.521 90.8769 70.7868 90.8769Z" stroke="#251725" stroke-miterlimit="10" stroke-linecap="round" stroke-linejoin="round"/>
<path d="M70.7867 86.6324C78.7084 86.6324 85.1301 80.2107 85.1301 72.289C85.1301 64.3674 78.7084 57.9457 70.7867 57.9457C62.8651 57.9457 56.4434 64.3674 56.4434 72.289C56.4434 80.2107 62.8651 86.6324 70.7867 86.6324Z" fill="#251725"/>
<path d="M70.7867 86.6324C78.7084 86.6324 85.1301 80.2107 85.1301 72.289C85.1301 64.3674 78.7084 57.9457 70.7867 57.9457C62.8651 57.9457 56.4434 64.3674 56.4434 72.289C56.4434 80.2107 62.8651 86.6324 70.7867 86.6324Z" fill="url(#paint5_linear_2216_2581)"/>
<path d="M70.7867 86.6324C78.7084 86.6324 85.1301 80.2107 85.1301 72.289C85.1301 64.3674 78.7084 57.9457 70.7867 57.9457C62.8651 57.9457 56.4434 64.3674 56.4434 72.289C56.4434 80.2107 62.8651 86.6324 70.7867 86.6324Z" stroke="#251725" stroke-miterlimit="10" stroke-linecap="round" stroke-linejoin="round"/>
<path d="M76.861 60.5802L71.0066 66.4346C72.1043 67.6787 73.5679 68.8496 73.8606 70.0205L80.5932 63.2879C79.4224 62.1901 78.1783 61.2388 76.861 60.5802Z" fill="white"/>
<path d="M66.4692 70.9718L59.1511 78.2899C59.8829 79.6803 60.8343 80.9244 61.932 81.9489L66.4692 77.4117V70.9718Z" fill="white"/>
<path d="M66.4691 79.168V79.2412V79.168L62.8833 82.7539C63.3956 83.193 63.981 83.5589 64.6396 83.8516L69.1768 79.3144C68.5182 79.0949 67.8596 78.8021 67.2741 78.4362L66.4691 79.168Z" fill="white"/>
<path d="M81.325 64.3124L73.5679 72.0695C74.007 72.5818 74.446 73.0941 74.8119 73.6795L82.4959 65.9956C82.0568 65.4101 81.6909 64.8247 81.325 64.3124Z" fill="white"/>
<path d="M71.1523 81.9489C70.9328 81.9489 70.7864 81.8025 70.7864 81.583V80.2657H69.5424V81.583C69.5424 81.8025 69.396 81.9489 69.1765 81.9489H67.4201C67.2006 81.9489 67.0542 81.8025 67.0542 81.583V80.2657H64.8588C64.6393 80.2657 64.4929 80.1194 64.4929 79.8998V64.971C64.4929 64.7515 64.6393 64.6051 64.8588 64.6051H67.0542V62.9951C67.0542 62.7756 67.2006 62.6292 67.4201 62.6292H69.1765C69.396 62.6292 69.5424 62.7756 69.5424 62.9951V64.6051H70.7864V62.9951C70.7864 62.7756 70.9328 62.6292 71.1523 62.6292H72.9087C73.1282 62.6292 73.2746 62.7756 73.2746 62.9951V64.7515C74.1528 64.8978 74.8846 65.2637 75.3968 65.7028C76.3482 66.4346 76.7872 67.4592 76.7872 68.8496C76.7872 69.8009 76.4945 70.6791 75.9823 71.3377C75.6895 71.7036 75.3236 72.0695 74.8846 72.2891C75.3968 72.5818 75.9091 72.9477 76.275 73.3868C76.8604 74.1186 77.1531 74.9236 77.1531 75.9481C77.1531 77.3385 76.7141 78.4362 75.7627 79.2412C75.1041 79.7535 74.2991 80.1194 73.2746 80.2657V81.7294C73.2746 81.9489 73.1282 82.0953 72.9087 82.0953H71.1523V81.9489ZM71.0792 76.5335C72.5428 76.5335 72.6891 75.8749 72.6891 75.2163C72.6891 74.7772 72.5428 74.4845 72.3232 74.2649C72.0305 74.0454 71.5914 73.899 71.0792 73.899H68.8838V76.5335H71.0792ZM70.8596 70.6791C72.1769 70.6791 72.3964 70.0205 72.3964 69.435C72.3964 68.8496 72.2501 68.191 70.8596 68.191H68.8838V70.6791H70.8596Z" fill="#10AD74"/>
<path d="M71.1523 81.9489C70.9328 81.9489 70.7864 81.8025 70.7864 81.583V80.2657H69.5424V81.583C69.5424 81.8025 69.396 81.9489 69.1765 81.9489H67.4201C67.2006 81.9489 67.0542 81.8025 67.0542 81.583V80.2657H64.8588C64.6393 80.2657 64.4929 80.1194 64.4929 79.8998V64.971C64.4929 64.7515 64.6393 64.6051 64.8588 64.6051H67.0542V62.9951C67.0542 62.7756 67.2006 62.6292 67.4201 62.6292H69.1765C69.396 62.6292 69.5424 62.7756 69.5424 62.9951V64.6051H70.7864V62.9951C70.7864 62.7756 70.9328 62.6292 71.1523 62.6292H72.9087C73.1282 62.6292 73.2746 62.7756 73.2746 62.9951V64.7515C74.1528 64.8978 74.8846 65.2637 75.3968 65.7028C76.3482 66.4346 76.7872 67.4592 76.7872 68.8496C76.7872 69.8009 76.4945 70.6791 75.9823 71.3377C75.6895 71.7036 75.3236 72.0695 74.8846 72.2891C75.3968 72.5818 75.9091 72.9477 76.275 73.3868C76.8604 74.1186 77.1531 74.9236 77.1531 75.9481C77.1531 77.3385 76.7141 78.4362 75.7627 79.2412C75.1041 79.7535 74.2991 80.1194 73.2746 80.2657V81.7294C73.2746 81.9489 73.1282 82.0953 72.9087 82.0953H71.1523V81.9489ZM71.0792 76.5335C72.5428 76.5335 72.6891 75.8749 72.6891 75.2163C72.6891 74.7772 72.5428 74.4845 72.3232 74.2649C72.0305 74.0454 71.5914 73.899 71.0792 73.899H68.8838V76.5335H71.0792ZM70.8596 70.6791C72.1769 70.6791 72.3964 70.0205 72.3964 69.435C72.3964 68.8496 72.2501 68.191 70.8596 68.191H68.8838V70.6791H70.8596Z" fill="url(#paint6_linear_2216_2581)"/>
<path d="M72.9089 62.9219V65.0442C73.8602 65.1905 74.592 65.4833 75.1775 65.9223C75.9824 66.581 76.4215 67.5323 76.4215 68.7764C76.4215 69.6545 76.202 70.4595 75.6897 71.045C75.1775 71.6304 74.592 72.0695 73.787 72.2159C74.6652 72.4354 75.397 72.8745 75.9093 73.5331C76.4215 74.1917 76.7142 74.9967 76.7142 75.8017C76.7142 77.119 76.2752 78.0703 75.4702 78.8021C74.8116 79.3144 73.9334 79.6803 72.9089 79.8266V81.583H71.1525V79.8998H69.1767V81.583H67.4203V79.8998H64.859V64.971H67.4203V62.9951H69.1767V64.971H71.1525V62.9951H72.9089V62.9219ZM68.518 71.045H70.8598C72.1039 71.045 72.7625 70.5327 72.7625 69.435C72.7625 68.3373 72.1039 67.825 70.8598 67.825H68.518V71.045ZM68.518 76.8994H71.0794C72.3966 76.8994 73.0552 76.314 73.0552 75.2895C73.0552 74.7772 72.9089 74.3381 72.543 74.0454C72.1771 73.7527 71.6648 73.6063 71.0794 73.6063H68.518V76.8994ZM72.9089 62.1901H71.1525C70.7134 62.1901 70.4207 62.4829 70.4207 62.9219V64.166H69.9085V62.9219C69.9085 62.4829 69.6157 62.1901 69.1767 62.1901H67.4203C66.9812 62.1901 66.6885 62.4829 66.6885 62.9219V64.166H64.859C64.4199 64.166 64.1272 64.4587 64.1272 64.8978V79.8266C64.1272 80.2657 64.4199 80.5584 64.859 80.5584H66.6885V81.5098C66.6885 81.9489 66.9812 82.2416 67.4203 82.2416H69.1767C69.6157 82.2416 69.9085 81.9489 69.9085 81.5098V80.5584H70.4207V81.5098C70.4207 81.9489 70.7134 82.2416 71.1525 82.2416H72.9089C73.3479 82.2416 73.6407 81.9489 73.6407 81.5098V80.3389C74.592 80.1194 75.3238 79.7535 75.9824 79.2412C77.007 78.363 77.5192 77.1921 77.5192 75.6554C77.5192 74.6308 77.2265 73.6795 76.5679 72.8745C76.2752 72.5086 75.9824 72.2159 75.6165 71.9963C75.8361 71.7768 76.1288 71.5572 76.2752 71.3377C76.8606 70.6059 77.1533 69.7277 77.1533 68.63C77.1533 67.1664 76.6411 66.0687 75.6165 65.2637C75.1043 64.8246 74.3725 64.5319 73.6407 64.3124V62.8488C73.6407 62.556 73.2748 62.1901 72.9089 62.1901ZM69.2498 68.5568H70.8598C72.0307 68.5568 72.0307 69.0691 72.0307 69.435C72.0307 69.8741 71.9575 70.3132 70.8598 70.3132H69.2498V68.5568ZM69.2498 74.3381H71.0794C71.5184 74.3381 71.8843 74.4113 72.1039 74.6308C72.2502 74.704 72.3966 74.9235 72.3966 75.3626C72.3966 75.7285 72.3966 76.2408 71.1525 76.2408H69.323V74.3381H69.2498Z" fill="#251725"/>
<path d="M83.4473 19.3796V24.2826L89.5213 18.2087V13.3056L83.4473 19.3796Z" fill="white"/>
<path d="M83.4473 26.039V28.8198L89.5213 22.7459V19.965L83.4473 26.039Z" fill="white"/>
<path d="M52.1991 73.6795H21.1706C19.9997 73.6795 19.0483 72.7281 19.0483 71.5573H52.1991V73.6795Z" fill="#251725"/>
<path d="M73.2749 2.84076H44.3686C43.1977 2.84076 42.2463 1.88942 42.2463 0.718529H75.3971C75.3971 1.88942 74.4458 2.84076 73.2749 2.84076Z" fill="#251725"/>
<defs>
<linearGradient id="paint0_linear_2216_2581" x1="91.5" y1="81.8757" x2="10" y2="0.375715" gradientUnits="userSpaceOnUse">
<stop stop-color="#DF87F1"/>
<stop offset="1" stop-color="#FBFBFF"/>
</linearGradient>
<linearGradient id="paint1_linear_2216_2581" x1="24.9999" y1="-5.47765" x2="108" y2="77.5224" gradientUnits="userSpaceOnUse">
<stop offset="0.15" stop-color="#10AD74"/>
<stop offset="0.75" stop-color="#1288AA"/>
</linearGradient>
<linearGradient id="paint2_linear_2216_2581" x1="55.1163" y1="52.384" x2="32.9224" y2="30.1901" gradientUnits="userSpaceOnUse">
<stop stop-color="#DF87F1"/>
<stop offset="1" stop-color="#FBFBFF"/>
</linearGradient>
<linearGradient id="paint3_linear_2216_2581" x1="65.7063" y1="58.3921" x2="32.8741" y2="30.2464" gradientUnits="userSpaceOnUse">
<stop offset="0.15" stop-color="#DF87F1"/>
<stop offset="0.6" stop-color="#FBFBFF"/>
</linearGradient>
<linearGradient id="paint4_linear_2216_2581" x1="93.6669" y1="90.8769" x2="56.3341" y2="53.5442" gradientUnits="userSpaceOnUse">
<stop stop-color="#DF87F1"/>
<stop offset="1" stop-color="#FBFBFF"/>
</linearGradient>
<linearGradient id="paint5_linear_2216_2581" x1="62.9682" y1="50.1271" x2="102.263" y2="89.4218" gradientUnits="userSpaceOnUse">
<stop offset="0.15" stop-color="#10AD74"/>
<stop offset="0.75" stop-color="#1288AA"/>
</linearGradient>
<linearGradient id="paint6_linear_2216_2581" x1="78.6149" y1="82.0953" x2="60.7458" y2="70.4737" gradientUnits="userSpaceOnUse">
<stop stop-color="#DF87F1"/>
<stop offset="1" stop-color="#FBFBFF"/>
</linearGradient>
</defs>
</svg>
