<svg width="101" height="108" viewBox="0 0 101 108" fill="none" xmlns="http://www.w3.org/2000/svg">
<path d="M49.4454 94.8906C71.634 94.8906 89.6215 76.9032 89.6215 54.7145C89.6215 32.5259 71.634 14.5384 49.4454 14.5384C27.2567 14.5384 9.26929 32.5259 9.26929 54.7145C9.26929 76.9032 27.2567 94.8906 49.4454 94.8906Z" fill="#251725" stroke="#251725" stroke-width="0.731805" stroke-miterlimit="10" stroke-linecap="round" stroke-linejoin="round"/>
<path d="M49.4454 91.4511C71.634 91.4511 89.6215 73.4636 89.6215 51.275C89.6215 29.0863 71.634 11.0989 49.4454 11.0989C27.2567 11.0989 9.26929 29.0863 9.26929 51.275C9.26929 73.4636 27.2567 91.4511 49.4454 91.4511Z" fill="#A499CE"/>
<path d="M49.4454 91.4511C71.634 91.4511 89.6215 73.4636 89.6215 51.275C89.6215 29.0863 71.634 11.0989 49.4454 11.0989C27.2567 11.0989 9.26929 29.0863 9.26929 51.275C9.26929 73.4636 27.2567 91.4511 49.4454 91.4511Z" fill="url(#paint0_linear_2216_2660)"/>
<path d="M49.4454 91.4511C71.634 91.4511 89.6215 73.4636 89.6215 51.275C89.6215 29.0863 71.634 11.0989 49.4454 11.0989C27.2567 11.0989 9.26929 29.0863 9.26929 51.275C9.26929 73.4636 27.2567 91.4511 49.4454 91.4511Z" stroke="#251725" stroke-miterlimit="10" stroke-linecap="round" stroke-linejoin="round"/>
<path d="M49.4457 84.7185C67.916 84.7185 82.8892 69.7453 82.8892 51.275C82.8892 32.8047 67.916 17.8315 49.4457 17.8315C30.9754 17.8315 16.0022 32.8047 16.0022 51.275C16.0022 69.7453 30.9754 84.7185 49.4457 84.7185Z" fill="url(#paint1_linear_2216_2660)"/>
<path d="M49.4457 84.7185C67.916 84.7185 82.8892 69.7453 82.8892 51.275C82.8892 32.8047 67.916 17.8315 49.4457 17.8315C30.9754 17.8315 16.0022 32.8047 16.0022 51.275C16.0022 69.7453 30.9754 84.7185 49.4457 84.7185Z" fill="url(#paint2_linear_2216_2660)"/>
<path d="M49.4457 84.7185C67.916 84.7185 82.8892 69.7453 82.8892 51.275C82.8892 32.8047 67.916 17.8315 49.4457 17.8315C30.9754 17.8315 16.0022 32.8047 16.0022 51.275C16.0022 69.7453 30.9754 84.7185 49.4457 84.7185Z" stroke="#251725" stroke-miterlimit="10" stroke-linecap="round" stroke-linejoin="round"/>
<path d="M49.4453 51.275V29.8331" stroke="#251725" stroke-width="2" stroke-miterlimit="10" stroke-linecap="round" stroke-linejoin="round"/>
<path d="M53.4703 33.858L49.4453 28.3695L45.4204 33.858H53.4703Z" fill="#251725" stroke="#251725" stroke-width="0.731805" stroke-miterlimit="10" stroke-linecap="round" stroke-linejoin="round"/>
<path d="M49.4456 51.275L36.4927 68.2529" stroke="#251725" stroke-width="2" stroke-miterlimit="10" stroke-linecap="round" stroke-linejoin="round"/>
<path d="M35.6877 62.618L35.2487 69.7165L42.1276 67.4479L35.6877 62.618Z" fill="#251725" stroke="#251725" stroke-width="0.731805" stroke-miterlimit="10" stroke-linecap="round" stroke-linejoin="round"/>
<path d="M49.4453 55.739C51.9107 55.739 53.9094 53.7404 53.9094 51.275C53.9094 48.8096 51.9107 46.811 49.4453 46.811C46.9799 46.811 44.9813 48.8096 44.9813 51.275C44.9813 53.7404 46.9799 55.739 49.4453 55.739Z" fill="#251725" stroke="#251725" stroke-width="0.731805" stroke-miterlimit="10" stroke-linecap="round" stroke-linejoin="round"/>
<path d="M49.9576 24.2714C49.0063 24.2714 48.2013 23.4664 48.2013 22.5151V18.8561C48.2013 17.9047 49.0063 17.0997 49.9576 17.0997C50.909 17.0997 51.714 17.9047 51.714 18.8561V22.5151C51.6408 23.4664 50.909 24.2714 49.9576 24.2714Z" fill="#251725"/>
<path d="M49.9577 87.4262C49.0064 87.4262 48.2014 86.6212 48.2014 85.6699V82.0108C48.2014 81.0595 49.0064 80.2545 49.9577 80.2545C50.9091 80.2545 51.7141 81.0595 51.7141 82.0108V85.6699C51.6409 86.6944 50.9091 87.4262 49.9577 87.4262Z" fill="#251725"/>
<path d="M21.8563 52.2996C21.8563 53.2509 21.0513 54.0559 20.0999 54.0559H16.4409C15.4896 54.0559 14.6846 53.2509 14.6846 52.2996C14.6846 51.3482 15.4896 50.5432 16.4409 50.5432H20.0999C21.1245 50.5432 21.8563 51.3482 21.8563 52.2996Z" fill="#251725"/>
<path d="M85.0842 52.2995C85.0842 53.2509 84.2792 54.0559 83.3278 54.0559H79.6688C78.7175 54.0559 77.9125 53.2509 77.9125 52.2995C77.9125 51.3482 78.7175 50.5432 79.6688 50.5432H83.3278C84.2792 50.5432 85.0842 51.3482 85.0842 52.2995Z" fill="#251725"/>
<path d="M30.1257 32.4676C29.4671 33.1262 28.3694 33.1262 27.6376 32.4676L25.0762 29.9063C24.4176 29.2477 24.4176 28.1499 25.0762 27.4181C25.7349 26.7595 26.8326 26.7595 27.5644 27.4181L30.1257 29.9795C30.7843 30.7113 30.7843 31.809 30.1257 32.4676Z" fill="#251725"/>
<path d="M74.7657 77.1809C74.1071 77.8395 73.0094 77.8395 72.2776 77.1809L69.7163 74.6196C69.0576 73.9609 69.0576 72.8632 69.7163 72.1314C70.3749 71.4728 71.4726 71.4728 72.2044 72.1314L74.7657 74.6927C75.4975 75.3514 75.4975 76.4491 74.7657 77.1809Z" fill="#251725"/>
<path d="M88.8165 43.152C88.4506 43.2251 88.0116 43.2983 87.6457 43.2983C87.1334 43.3715 86.7675 43.7374 86.6211 44.1765L86.182 45.8596C86.0357 46.5183 85.3771 46.8842 84.7184 46.7378L79.0104 45.3474C78.3517 45.201 77.9858 44.5424 78.1322 43.9569L78.5713 42.2738C78.7176 41.7615 78.4981 41.3224 78.059 41.0297C76.5954 40.0784 75.3513 38.8343 74.3268 37.4439C74.0341 37.0048 73.5218 36.8584 73.0827 37.0048L71.3996 37.5171C70.8141 37.6634 70.0823 37.3707 69.936 36.7121L68.326 31.0772C68.1796 30.4185 68.4724 29.7599 69.131 29.6136L70.8141 29.1013C71.2532 28.9549 71.6191 28.5159 71.6923 28.0768C71.7655 27.1986 71.8387 26.3936 72.0582 25.5154C72.2778 24.6373 72.5705 23.8323 72.9364 23.1005C73.1559 22.6614 73.0095 22.1491 72.6436 21.7832L71.3996 20.5392C70.9605 20.1001 70.8873 19.3683 71.3996 18.856L72.1314 18.1242L72.7168 17.5388C74.1073 18.7828 75.3513 20.1733 76.5222 21.5637C79.2299 24.8568 81.4985 28.5158 84.4989 31.5162C86.4748 35.1021 88.0116 38.9807 88.8165 43.152Z" fill="#251725"/>
<path d="M49.4454 23.2468C48.4941 23.2468 47.6891 22.4419 47.6891 21.4905V17.8315C47.6891 16.8801 48.4941 16.0751 49.4454 16.0751C50.3968 16.0751 51.2017 16.8801 51.2017 17.8315V21.4905C51.2017 22.4419 50.3968 23.2468 49.4454 23.2468Z" fill="#EBEDFD" stroke="#251725" stroke-miterlimit="10" stroke-linecap="round" stroke-linejoin="round"/>
<path d="M49.4454 86.4748C48.4941 86.4748 47.6891 85.6699 47.6891 84.7185V81.0595C47.6891 80.1081 48.4941 79.3031 49.4454 79.3031C50.3968 79.3031 51.2017 80.1081 51.2017 81.0595V84.7185C51.2017 85.6699 50.3968 86.4748 49.4454 86.4748Z" fill="#EBEDFD" stroke="#251725" stroke-miterlimit="10" stroke-linecap="round" stroke-linejoin="round"/>
<path d="M21.4171 51.275C21.4171 52.2264 20.6121 53.0313 19.6607 53.0313H16.0017C15.0503 53.0313 14.2454 52.2264 14.2454 51.275C14.2454 50.3237 15.0503 49.5187 16.0017 49.5187H19.6607C20.6121 49.5187 21.4171 50.3237 21.4171 51.275Z" fill="#EBEDFD" stroke="#251725" stroke-miterlimit="10" stroke-linecap="round" stroke-linejoin="round"/>
<path d="M84.6451 51.275C84.6451 52.2264 83.8401 53.0314 82.8887 53.0314H79.2297C78.2784 53.0314 77.4734 52.2264 77.4734 51.275C77.4734 50.3237 78.2784 49.5187 79.2297 49.5187H82.8887C83.8401 49.5187 84.6451 50.3237 84.6451 51.275Z" fill="#EBEDFD" stroke="#251725" stroke-miterlimit="10" stroke-linecap="round" stroke-linejoin="round"/>
<path d="M29.6135 31.4431C28.9549 32.1017 27.8572 32.1017 27.1254 31.4431L24.564 28.8818C23.9054 28.2231 23.9054 27.1254 24.564 26.3936C25.2227 25.735 26.3204 25.735 27.0522 26.3936L29.6135 28.9549C30.2721 29.6867 30.2721 30.7845 29.6135 31.4431Z" fill="#EBEDFD" stroke="#251725" stroke-miterlimit="10" stroke-linecap="round" stroke-linejoin="round"/>
<path d="M74.327 76.1564C73.6684 76.815 72.5707 76.815 71.8389 76.1564L69.2775 73.595C68.6189 72.9364 68.6189 71.8387 69.2775 71.1069C69.9362 70.4483 71.0339 70.4483 71.7657 71.1069L74.327 73.6682C74.9856 74.4 74.9856 75.4977 74.327 76.1564Z" fill="#EBEDFD" stroke="#251725" stroke-miterlimit="10" stroke-linecap="round" stroke-linejoin="round"/>
<path d="M69.2774 31.4431C68.6188 30.7845 68.6188 29.6868 69.2774 28.955L71.8387 26.3937C72.4974 25.7351 73.5951 25.7351 74.3269 26.3937C74.9855 27.0523 74.9855 28.15 74.3269 28.8818L71.7655 31.4431C71.0337 32.1018 69.936 32.1018 69.2774 31.4431Z" fill="#EBEDFD" stroke="#251725" stroke-width="0.731805" stroke-miterlimit="10" stroke-linecap="round" stroke-linejoin="round"/>
<path d="M24.564 76.1564C23.9054 75.4978 23.9054 74.4001 24.564 73.6683L27.1254 71.107C27.784 70.4483 28.8817 70.4483 29.6135 71.107C30.2721 71.7656 30.2721 72.8633 29.6135 73.5951L27.0522 76.1564C26.3936 76.8151 25.2958 76.8151 24.564 76.1564Z" fill="#EBEDFD" stroke="#251725" stroke-width="0.731805" stroke-miterlimit="10" stroke-linecap="round" stroke-linejoin="round"/>
<path d="M99.5013 25.4422L97.9645 24.5641C97.5254 24.3445 97.3059 23.8323 97.3791 23.32C97.5254 22.515 97.5986 21.6369 97.5986 20.7587C97.5986 19.8805 97.5254 19.0024 97.3791 18.1974C97.3059 17.6851 97.5254 17.246 97.9645 16.9533L99.5013 16.0751C100.087 15.7824 100.233 15.0506 99.9404 14.4652L97.0132 9.41572C96.7204 8.83027 95.9886 8.68391 95.4032 8.97663L93.8664 9.8548C93.4273 10.0743 92.9151 10.0743 92.5492 9.78162C91.2319 8.68391 89.7683 7.80575 88.0851 7.2203C87.6461 7.07394 87.3533 6.63486 87.3533 6.12259V4.36626C87.3533 3.70764 86.8411 3.19537 86.1824 3.19537H80.328C79.6694 3.19537 79.1571 3.70764 79.1571 4.36626V6.12259C79.1571 6.63486 78.8644 7.07394 78.4253 7.2203C76.8153 7.80575 75.2785 8.68391 73.9613 9.78162C73.5954 10.0743 73.0831 10.1475 72.644 9.8548L71.1073 8.97663C70.5218 8.68391 69.79 8.83027 69.4973 9.41572L66.5701 14.4652C66.2773 15.0506 66.4237 15.7824 67.0091 16.0751L68.5459 16.9533C68.985 17.1729 69.2046 17.6851 69.1314 18.1974C68.985 19.0024 68.9118 19.8805 68.9118 20.7587C68.9118 21.6369 68.985 22.515 69.1314 23.32C69.2046 23.8323 68.985 24.2714 68.5459 24.5641L67.0091 25.4422C66.4237 25.735 66.2773 26.4668 66.5701 27.0522L69.4973 32.1017C69.79 32.6871 70.5218 32.8335 71.1073 32.5408L72.644 31.6626C73.0831 31.4431 73.5954 31.4431 73.9613 31.7358C75.2785 32.8335 76.7422 33.7116 78.4253 34.2971C78.8644 34.4435 79.1571 34.8825 79.1571 35.3948V37.1511C79.1571 37.8098 79.6694 38.322 80.328 38.322H86.1824C86.8411 38.322 87.3533 37.8098 87.3533 37.1511V35.468C87.3533 34.9557 87.6461 34.5166 88.0851 34.3703C89.6951 33.7848 91.2319 32.9067 92.5492 31.809C92.9151 31.5162 93.4273 31.4431 93.8664 31.7358L95.4032 32.6139C95.9886 32.9067 96.7204 32.7603 97.0132 32.1749L99.9404 27.1254C100.233 26.4668 100.014 25.8082 99.5013 25.4422ZM83.182 26.54C79.9621 26.54 77.4008 23.9786 77.4008 20.7587C77.4008 17.5388 79.9621 14.9774 83.182 14.9774C86.402 14.9774 88.9633 17.5388 88.9633 20.7587C88.9633 23.9786 86.3288 26.54 83.182 26.54Z" fill="#251725"/>
<path d="M98.989 23.2469L97.4522 22.3687C97.0131 22.1492 96.7936 21.6369 96.8667 21.1246C97.0131 20.3197 97.0863 19.4415 97.0863 18.5633C97.0863 17.6852 97.0131 16.807 96.8667 16.002C96.7936 15.4897 97.0131 15.0507 97.4522 14.7579L98.989 13.8798C99.5744 13.587 99.7208 12.8552 99.4281 12.2698L96.5008 7.22035C96.2081 6.6349 95.4763 6.48854 94.8909 6.78126L93.3541 7.65943C92.915 7.87897 92.4027 7.87897 92.0368 7.58625C90.7196 6.48854 89.256 5.61037 87.5728 5.02493C87.1337 4.87857 86.841 4.43949 86.841 3.92722V2.17089C86.841 1.51226 86.3287 1 85.6701 1H79.8157C79.157 1 78.6448 1.51226 78.6448 2.17089V3.92722C78.6448 4.43949 78.3521 4.87857 77.913 5.02493C76.303 5.61037 74.7662 6.48854 73.449 7.58625C73.0831 7.87897 72.5708 7.95215 72.1317 7.65943L70.5949 6.78126C70.0095 6.48854 69.2777 6.6349 68.985 7.22035L66.0577 12.2698C65.765 12.8552 65.9114 13.587 66.4968 13.8798L68.0336 14.7579C68.4727 14.9775 68.6922 15.4897 68.6191 16.002C68.4727 16.807 68.3995 17.6852 68.3995 18.5633C68.3995 19.4415 68.4727 20.3197 68.6191 21.1246C68.6922 21.6369 68.4727 22.076 68.0336 22.3687L66.4968 23.2469C65.9114 23.5396 65.765 24.2714 66.0577 24.8568L68.985 29.9063C69.2777 30.4917 70.0095 30.6381 70.5949 30.3454L72.1317 29.4672C72.5708 29.2477 73.0831 29.2477 73.449 29.5404C74.7662 30.6381 76.2298 31.5163 77.913 32.1017C78.3521 32.2481 78.6448 32.6872 78.6448 33.1994V34.9558C78.6448 35.6144 79.157 36.1266 79.8157 36.1266H85.6701C86.3287 36.1266 86.841 35.6144 86.841 34.9558V33.2726C86.841 32.7603 87.1337 32.3213 87.5728 32.1749C89.1828 31.5895 90.7196 30.7113 92.0368 29.6136C92.4027 29.3209 92.915 29.2477 93.3541 29.5404L94.8909 30.4186C95.4763 30.7113 96.2081 30.5649 96.5008 29.9795L99.4281 24.93C99.7208 24.3446 99.5012 23.6128 98.989 23.2469ZM82.6697 24.3446C79.4498 24.3446 76.8885 21.7833 76.8885 18.5633C76.8885 15.3434 79.4498 12.7821 82.6697 12.7821C85.8897 12.7821 88.451 15.3434 88.451 18.5633C88.451 21.7833 85.8165 24.3446 82.6697 24.3446Z" fill="#FBFBFF"/>
<path d="M98.989 23.2469L97.4522 22.3687C97.0131 22.1492 96.7936 21.6369 96.8667 21.1246C97.0131 20.3197 97.0863 19.4415 97.0863 18.5633C97.0863 17.6852 97.0131 16.807 96.8667 16.002C96.7936 15.4897 97.0131 15.0507 97.4522 14.7579L98.989 13.8798C99.5744 13.587 99.7208 12.8552 99.4281 12.2698L96.5008 7.22035C96.2081 6.6349 95.4763 6.48854 94.8909 6.78126L93.3541 7.65943C92.915 7.87897 92.4027 7.87897 92.0368 7.58625C90.7196 6.48854 89.256 5.61037 87.5728 5.02493C87.1337 4.87857 86.841 4.43949 86.841 3.92722V2.17089C86.841 1.51226 86.3287 1 85.6701 1H79.8157C79.157 1 78.6448 1.51226 78.6448 2.17089V3.92722C78.6448 4.43949 78.3521 4.87857 77.913 5.02493C76.303 5.61037 74.7662 6.48854 73.449 7.58625C73.0831 7.87897 72.5708 7.95215 72.1317 7.65943L70.5949 6.78126C70.0095 6.48854 69.2777 6.6349 68.985 7.22035L66.0577 12.2698C65.765 12.8552 65.9114 13.587 66.4968 13.8798L68.0336 14.7579C68.4727 14.9775 68.6922 15.4897 68.6191 16.002C68.4727 16.807 68.3995 17.6852 68.3995 18.5633C68.3995 19.4415 68.4727 20.3197 68.6191 21.1246C68.6922 21.6369 68.4727 22.076 68.0336 22.3687L66.4968 23.2469C65.9114 23.5396 65.765 24.2714 66.0577 24.8568L68.985 29.9063C69.2777 30.4917 70.0095 30.6381 70.5949 30.3454L72.1317 29.4672C72.5708 29.2477 73.0831 29.2477 73.449 29.5404C74.7662 30.6381 76.2298 31.5163 77.913 32.1017C78.3521 32.2481 78.6448 32.6872 78.6448 33.1994V34.9558C78.6448 35.6144 79.157 36.1266 79.8157 36.1266H85.6701C86.3287 36.1266 86.841 35.6144 86.841 34.9558V33.2726C86.841 32.7603 87.1337 32.3213 87.5728 32.1749C89.1828 31.5895 90.7196 30.7113 92.0368 29.6136C92.4027 29.3209 92.915 29.2477 93.3541 29.5404L94.8909 30.4186C95.4763 30.7113 96.2081 30.5649 96.5008 29.9795L99.4281 24.93C99.7208 24.3446 99.5012 23.6128 98.989 23.2469ZM82.6697 24.3446C79.4498 24.3446 76.8885 21.7833 76.8885 18.5633C76.8885 15.3434 79.4498 12.7821 82.6697 12.7821C85.8897 12.7821 88.451 15.3434 88.451 18.5633C88.451 21.7833 85.8165 24.3446 82.6697 24.3446Z" fill="url(#paint3_linear_2216_2660)"/>
<path d="M98.989 23.2469L97.4522 22.3687C97.0131 22.1492 96.7936 21.6369 96.8667 21.1246C97.0131 20.3197 97.0863 19.4415 97.0863 18.5633C97.0863 17.6852 97.0131 16.807 96.8667 16.002C96.7936 15.4897 97.0131 15.0507 97.4522 14.7579L98.989 13.8798C99.5744 13.587 99.7208 12.8552 99.4281 12.2698L96.5008 7.22035C96.2081 6.6349 95.4763 6.48854 94.8909 6.78126L93.3541 7.65943C92.915 7.87897 92.4027 7.87897 92.0368 7.58625C90.7196 6.48854 89.256 5.61037 87.5728 5.02493C87.1337 4.87857 86.841 4.43949 86.841 3.92722V2.17089C86.841 1.51226 86.3287 1 85.6701 1H79.8157C79.157 1 78.6448 1.51226 78.6448 2.17089V3.92722C78.6448 4.43949 78.3521 4.87857 77.913 5.02493C76.303 5.61037 74.7662 6.48854 73.449 7.58625C73.0831 7.87897 72.5708 7.95215 72.1317 7.65943L70.5949 6.78126C70.0095 6.48854 69.2777 6.6349 68.985 7.22035L66.0577 12.2698C65.765 12.8552 65.9114 13.587 66.4968 13.8798L68.0336 14.7579C68.4727 14.9775 68.6922 15.4897 68.6191 16.002C68.4727 16.807 68.3995 17.6852 68.3995 18.5633C68.3995 19.4415 68.4727 20.3197 68.6191 21.1246C68.6922 21.6369 68.4727 22.076 68.0336 22.3687L66.4968 23.2469C65.9114 23.5396 65.765 24.2714 66.0577 24.8568L68.985 29.9063C69.2777 30.4917 70.0095 30.6381 70.5949 30.3454L72.1317 29.4672C72.5708 29.2477 73.0831 29.2477 73.449 29.5404C74.7662 30.6381 76.2298 31.5163 77.913 32.1017C78.3521 32.2481 78.6448 32.6872 78.6448 33.1994V34.9558C78.6448 35.6144 79.157 36.1266 79.8157 36.1266H85.6701C86.3287 36.1266 86.841 35.6144 86.841 34.9558V33.2726C86.841 32.7603 87.1337 32.3213 87.5728 32.1749C89.1828 31.5895 90.7196 30.7113 92.0368 29.6136C92.4027 29.3209 92.915 29.2477 93.3541 29.5404L94.8909 30.4186C95.4763 30.7113 96.2081 30.5649 96.5008 29.9795L99.4281 24.93C99.7208 24.3446 99.5012 23.6128 98.989 23.2469ZM82.6697 24.3446C79.4498 24.3446 76.8885 21.7833 76.8885 18.5633C76.8885 15.3434 79.4498 12.7821 82.6697 12.7821C85.8897 12.7821 88.451 15.3434 88.451 18.5633C88.451 21.7833 85.8165 24.3446 82.6697 24.3446Z" stroke="#251725" stroke-miterlimit="10" stroke-linecap="round" stroke-linejoin="round"/>
<path d="M21.4176 107.331C31.8047 107.331 40.225 98.9109 40.225 88.5238C40.225 78.1368 31.8047 69.7164 21.4176 69.7164C11.0306 69.7164 2.61023 78.1368 2.61023 88.5238C2.61023 98.9109 11.0306 107.331 21.4176 107.331Z" fill="#251725" stroke="#251725" stroke-miterlimit="10" stroke-linecap="round" stroke-linejoin="round"/>
<path d="M19.8074 105.282C30.1944 105.282 38.6148 96.8618 38.6148 86.4748C38.6148 76.0878 30.1944 67.6674 19.8074 67.6674C9.42036 67.6674 1 76.0878 1 86.4748C1 96.8618 9.42036 105.282 19.8074 105.282Z" fill="white"/>
<path d="M19.8074 105.282C30.1944 105.282 38.6148 96.8618 38.6148 86.4748C38.6148 76.0878 30.1944 67.6674 19.8074 67.6674C9.42036 67.6674 1 76.0878 1 86.4748C1 96.8618 9.42036 105.282 19.8074 105.282Z" fill="url(#paint4_linear_2216_2660)"/>
<path d="M19.8074 105.282C30.1944 105.282 38.6148 96.8618 38.6148 86.4748C38.6148 76.0878 30.1944 67.6674 19.8074 67.6674C9.42036 67.6674 1 76.0878 1 86.4748C1 96.8618 9.42036 105.282 19.8074 105.282Z" fill="url(#paint5_linear_2216_2660)"/>
<path d="M19.8074 105.282C30.1944 105.282 38.6148 96.8618 38.6148 86.4748C38.6148 76.0878 30.1944 67.6674 19.8074 67.6674C9.42036 67.6674 1 76.0878 1 86.4748C1 96.8618 9.42036 105.282 19.8074 105.282Z" stroke="#251725" stroke-miterlimit="10" stroke-linecap="round" stroke-linejoin="round"/>
<path d="M21.8699 83.8566V81.511H27.2061V77.8098H12.3936V81.511H17.7449V83.8566C13.2617 84.0723 9.89612 84.9723 9.89612 86.0504C9.89612 87.1285 13.258 88.0229 17.7449 88.2441V95.986H21.8699V88.2441C26.353 88.0304 29.7186 87.1304 29.7186 86.0504C29.7186 84.9704 26.3567 84.0723 21.8699 83.8566ZM19.8074 87.5429C14.953 87.5429 11.0174 86.7929 11.0174 85.8891C11.0174 85.111 13.8842 84.4585 17.7411 84.2841V86.9335C18.4049 86.9635 19.0949 86.9804 19.8036 86.9804C20.5124 86.9804 21.2061 86.9635 21.8661 86.9335V84.2841C25.723 84.4585 28.5899 85.111 28.5899 85.8891C28.5974 86.8023 24.6617 87.5429 19.8074 87.5429Z" fill="#251725"/>
<defs>
<linearGradient id="paint0_linear_2216_2660" x1="27.5456" y1="-10.801" x2="118.847" y2="80.5" gradientUnits="userSpaceOnUse">
<stop offset="0.1" stop-color="#F76DFC"/>
<stop offset="0.7" stop-color="#1288AA"/>
</linearGradient>
<linearGradient id="paint1_linear_2216_2660" x1="90.6117" y1="84.7185" x2="23.4422" y2="17.549" gradientUnits="userSpaceOnUse">
<stop stop-color="#DF87F1"/>
<stop offset="0.75" stop-color="#FBFBFF"/>
</linearGradient>
<linearGradient id="paint2_linear_2216_2660" x1="122.662" y1="102.902" x2="23.2961" y2="17.7195" gradientUnits="userSpaceOnUse">
<stop offset="0.3" stop-color="#DF87F1"/>
<stop offset="0.65" stop-color="#FBFBFF"/>
</linearGradient>
<linearGradient id="paint3_linear_2216_2660" x1="103.461" y1="36.1266" x2="68.2179" y2="2.35201" gradientUnits="userSpaceOnUse">
<stop stop-color="#DF87F1"/>
<stop offset="0.75" stop-color="#FBFBFF"/>
</linearGradient>
<linearGradient id="paint4_linear_2216_2660" x1="42.9577" y1="105.282" x2="5.184" y2="67.5085" gradientUnits="userSpaceOnUse">
<stop stop-color="#A1C665"/>
<stop offset="0.75" stop-color="#EBEDFD"/>
</linearGradient>
<linearGradient id="paint5_linear_2216_2660" x1="42.9577" y1="105.282" x2="5.184" y2="67.5085" gradientUnits="userSpaceOnUse">
<stop stop-color="#DF87F1"/>
<stop offset="0.75" stop-color="#FBFBFF"/>
</linearGradient>
</defs>
</svg>
