<svg width="37" height="36" viewBox="0 0 37 36" fill="none" xmlns="http://www.w3.org/2000/svg">
<path opacity="0.4" fill-rule="evenodd" clip-rule="evenodd" d="M32.8269 13.6912L28.6269 12.0112L29.2719 7.53066L21.8079 3.22266L18.2514 6.02166L14.6934 3.22266L7.22935 7.53066L7.87435 12.0112L3.67285 13.6912V22.3102L7.87585 23.9917L7.23085 28.4692L14.6949 32.7787L18.2514 29.9812L21.8064 32.7787L29.2704 28.4692L28.6254 23.9902L32.8269 22.3102V13.6912Z" fill="#8055BB"/>
<path d="M12.3433 18.0008C12.3433 21.2572 14.9923 23.9062 18.2488 23.9062C21.5053 23.9062 24.1558 21.2572 24.1558 18.0008C24.1558 14.7443 21.5053 12.0938 18.2488 12.0938C14.9923 12.0938 12.3433 14.7443 12.3433 18.0008Z" fill="#8055BB"/>
</svg>
