<svg width="36" height="36" viewBox="0 0 36 36" fill="none" xmlns="http://www.w3.org/2000/svg">
<path fill-rule="evenodd" clip-rule="evenodd" d="M14.1254 8.25867L14.9894 6.26367H21.0089L21.8729 8.25867H14.1254ZM24.3254 8.25867L22.4894 4.01367H13.5089L11.6729 8.25867H3.38086V19.1892L3.75136 19.4067C7.35436 21.5142 11.9039 22.7412 16.6799 22.9347V24.8802H19.3184V22.9347C24.0974 22.7397 28.6469 21.5127 32.2454 19.4067L32.6174 19.1892V8.25867H24.3254Z" fill="#8055BB"/>
<path opacity="0.4" fill-rule="evenodd" clip-rule="evenodd" d="M30.2214 23.7239C26.5314 25.1939 22.3164 25.9739 17.9964 25.9739C13.6764 25.9739 9.46137 25.1939 5.78637 23.7239C5.23137 23.4989 4.69137 23.2739 4.16637 23.0189C3.91137 22.8989 3.65637 22.7789 3.40137 22.6289L3.73137 31.9889H32.2764L32.5914 22.6289C32.3364 22.7789 32.0814 22.8989 31.8264 23.0189C31.3014 23.2739 30.7614 23.4989 30.2214 23.7239Z" fill="#8055BB"/>
</svg>
