<svg width="330" height="222" viewBox="0 0 330 222" fill="none" xmlns="http://www.w3.org/2000/svg">
<path d="M255.558 169H235.558V168L252.558 127L294.058 147L255.558 169Z" fill="#8055BB"/>
<path d="M294.144 134.169L295.197 136.876C295.979 138.812 292.818 141.809 288.236 143.628C283.653 145.447 279.325 145.311 278.543 143.375L277.489 140.667C278.271 142.603 282.583 142.678 287.182 140.92C291.764 139.101 294.925 136.104 294.144 134.169Z" fill="#DF87F1" stroke="#251725" stroke-miterlimit="10" stroke-linecap="round" stroke-linejoin="round"/>
<path d="M284.451 133.916C289.034 132.098 293.362 132.233 294.144 134.169C294.925 136.105 291.764 139.101 287.182 140.92C282.599 142.739 278.271 142.603 277.489 140.668C276.769 138.716 279.869 135.735 284.451 133.916Z" fill="url(#paint0_linear_2396_5808)" stroke="#251725" stroke-miterlimit="10" stroke-linecap="round" stroke-linejoin="round"/>
<mask id="mask0_2396_5808" style="mask-type:alpha" maskUnits="userSpaceOnUse" x="276" y="133" width="20" height="13">
<path d="M294.144 134.169L295.198 136.876C295.979 138.812 292.818 141.809 288.236 143.628C283.653 145.447 279.324 145.311 278.543 143.375L277.489 140.667C278.271 142.603 282.583 142.678 287.182 140.92C291.764 139.101 294.925 136.104 294.144 134.169Z" fill="#D9D9D9" stroke="#251725" stroke-miterlimit="10" stroke-linecap="round" stroke-linejoin="round"/>
</mask>
<g mask="url(#mask0_2396_5808)">
<path d="M281.899 147.869L278.705 139.625" stroke="#251725" stroke-miterlimit="10" stroke-linecap="round" stroke-linejoin="round"/>
<path d="M285.44 146.526L282.245 138.282" stroke="#251725" stroke-miterlimit="10" stroke-linecap="round" stroke-linejoin="round"/>
<path d="M288.963 145.123L285.769 136.878" stroke="#251725" stroke-miterlimit="10" stroke-linecap="round" stroke-linejoin="round"/>
<path d="M292.548 143.702L289.309 135.535" stroke="#251725" stroke-miterlimit="10" stroke-linecap="round" stroke-linejoin="round"/>
<path d="M296.088 142.359L292.833 134.131" stroke="#251725" stroke-miterlimit="10" stroke-linecap="round" stroke-linejoin="round"/>
</g>
<path d="M294.144 134.169L295.198 136.876C295.979 138.812 292.819 141.809 288.236 143.628C283.653 145.446 279.325 145.311 278.544 143.375L277.49 140.667C278.271 142.603 282.583 142.678 287.182 140.92C291.765 139.101 294.925 136.104 294.144 134.169Z" stroke="#251725" stroke-miterlimit="10" stroke-linecap="round" stroke-linejoin="round"/>
<path d="M288.096 137.552C288.092 137.294 288.043 137.112 287.872 136.962C287.702 136.813 287.427 136.757 287.047 136.794C287.334 136.652 287.621 136.51 287.814 136.263C288.024 136.076 288.157 135.845 288.152 135.586C288.192 135.251 288.082 135.085 287.73 134.985C287.516 134.912 287.257 134.917 286.893 135.015L286.944 134.481L286.277 134.66L286.21 135.134L285.482 135.33L285.55 134.856L284.883 135.036L284.754 135.526L283.845 135.77L282.811 140.145L283.903 139.852L283.791 140.402L284.519 140.206L284.631 139.656L285.479 139.427L285.367 139.978L286.095 139.782L286.191 139.171C286.66 138.98 287.007 138.821 287.322 138.541C287.835 138.273 287.996 137.905 288.096 137.552ZM286.685 136.176C286.629 136.452 286.359 136.654 285.874 136.785L284.964 137.03L285.116 136.144L285.965 135.915C286.527 135.829 286.741 135.901 286.685 136.176ZM285.692 138.525L284.661 138.802L284.841 137.778L285.871 137.501C286.114 137.436 286.312 137.447 286.45 137.475C286.587 137.503 286.62 137.625 286.592 137.762C286.552 138.098 286.237 138.378 285.692 138.525Z" fill="#251725"/>
<path d="M129.719 1.2959L127.144 2.80295C125.323 3.87045 125.888 8.26603 128.4 12.6616C130.912 17.0572 134.491 19.7573 136.312 18.6898L138.887 17.1828C137.065 18.2503 133.486 15.5501 130.974 11.1546C128.463 6.75898 127.898 2.3006 129.719 1.2959Z" fill="#8055BB" stroke="#251725" stroke-miterlimit="10" stroke-linecap="round" stroke-linejoin="round"/>
<path d="M137.694 7.26133C135.182 2.86575 131.603 0.165611 129.781 1.23311C127.96 2.30061 128.526 6.69619 131.037 11.0918C133.549 15.4873 137.128 18.1875 138.949 17.12C140.77 16.1153 140.205 11.6569 137.694 7.26133Z" fill="#DF87F1" stroke="#251725" stroke-miterlimit="10" stroke-linecap="round" stroke-linejoin="round"/>
<mask id="mask1_2396_5808" style="mask-type:alpha" maskUnits="userSpaceOnUse" x="125" y="0" width="15" height="20">
<path d="M129.719 1.2959L127.144 2.80295C125.323 3.87045 125.888 8.26603 128.4 12.6616C130.912 17.0572 134.491 19.7573 136.312 18.6898L138.887 17.1828C137.065 18.2503 133.486 15.5501 130.974 11.1546C128.463 6.75898 127.898 2.3006 129.719 1.2959Z" fill="#D9D9D9" stroke="#251725" stroke-miterlimit="10" stroke-linecap="round" stroke-linejoin="round"/>
</mask>
<g mask="url(#mask1_2396_5808)">
<path d="M130.786 20.1341L138.635 15.6129" stroke="#251725" stroke-miterlimit="10" stroke-linecap="round" stroke-linejoin="round"/>
<path d="M128.839 16.7432L136.689 12.222" stroke="#251725" stroke-miterlimit="10" stroke-linecap="round" stroke-linejoin="round"/>
<path d="M126.83 13.3523L134.742 8.83118" stroke="#251725" stroke-miterlimit="10" stroke-linecap="round" stroke-linejoin="round"/>
<path d="M124.883 9.96148L132.733 5.44031" stroke="#251725" stroke-miterlimit="10" stroke-linecap="round" stroke-linejoin="round"/>
<path d="M122.937 6.57059L130.786 2.04944" stroke="#251725" stroke-miterlimit="10" stroke-linecap="round" stroke-linejoin="round"/>
</g>
<path d="M129.719 1.2959L127.144 2.80295C125.323 3.87045 125.888 8.26603 128.4 12.6616C130.912 17.0572 134.491 19.7573 136.312 18.6898L138.887 17.1828C137.065 18.2503 133.486 15.5501 130.974 11.1546C128.463 6.75898 127.898 2.3006 129.719 1.2959Z" stroke="#251725" stroke-miterlimit="10" stroke-linecap="round" stroke-linejoin="round"/>
<path d="M135.81 10.715L135.244 8.70562L135.81 7.95208L135.433 7.51252L134.993 7.95208L134.177 5.25195L132.921 6.25664L133.737 9.33356L132.67 10.5266L133.298 11.1546L133.989 10.2755L134.742 13.2896L138.007 9.8987L137.693 8.89399L135.81 10.715Z" fill="#251725"/>
<path d="M2.38694 85.4164L1.19385 87.4886C0.314735 88.9956 2.51252 91.8214 6.02898 93.8308C9.54544 95.8402 13.1247 96.3425 13.941 94.8355L15.1341 92.7633C14.255 94.2703 10.7385 93.768 7.22207 91.7586C3.70561 89.7492 1.50783 86.9234 2.38694 85.4164Z" fill="#DF87F1" stroke="#251725" stroke-miterlimit="10" stroke-linecap="round" stroke-linejoin="round"/>
<path d="M10.299 86.421C6.78254 84.4116 3.20329 83.9093 2.38697 85.4163C1.50785 86.9234 3.70564 89.7491 7.2221 91.7585C10.7386 93.7679 14.3178 94.2702 15.1341 92.7632C16.0132 91.3189 13.8155 88.4932 10.299 86.421Z" fill="url(#paint1_linear_2396_5808)" stroke="#251725" stroke-miterlimit="10" stroke-linecap="round" stroke-linejoin="round"/>
<mask id="mask2_2396_5808" style="mask-type:alpha" maskUnits="userSpaceOnUse" x="0" y="84" width="16" height="13">
<path d="M2.38694 85.4164L1.19385 87.4886C0.314735 88.9956 2.51252 91.8214 6.02898 93.8308C9.54544 95.8402 13.1247 96.3425 13.941 94.8355L15.1341 92.7633C14.255 94.2703 10.7385 93.768 7.22207 91.7586C3.70561 89.7492 1.50783 86.9234 2.38694 85.4164Z" fill="#D9D9D9" stroke="#251725" stroke-miterlimit="10" stroke-linecap="round" stroke-linejoin="round"/>
</mask>
<g mask="url(#mask2_2396_5808)">
<path d="M10.6758 98.1007L14.3178 91.8213" stroke="#251725" stroke-miterlimit="10" stroke-linecap="round" stroke-linejoin="round"/>
<path d="M7.03394 96.0284L10.676 89.749" stroke="#251725" stroke-miterlimit="10" stroke-linecap="round" stroke-linejoin="round"/>
<path d="M3.39185 93.9563L7.0339 87.6141" stroke="#251725" stroke-miterlimit="10" stroke-linecap="round" stroke-linejoin="round"/>
<path d="M-0.1875 91.8841L3.45455 85.5419" stroke="#251725" stroke-miterlimit="10" stroke-linecap="round" stroke-linejoin="round"/>
</g>
<path d="M2.38694 85.4164L1.19385 87.4886C0.314735 88.9956 2.51252 91.8214 6.02898 93.8308C9.54544 95.8402 13.1247 96.3425 13.941 94.8355L15.1341 92.7633C14.255 94.2703 10.7385 93.768 7.22207 91.7586C3.70561 89.7492 1.50783 86.9234 2.38694 85.4164Z" stroke="#251725" stroke-miterlimit="10" stroke-linecap="round" stroke-linejoin="round"/>
<path d="M6.90803 87.1746C6.90803 87.1746 6.15449 87.7397 6.84523 88.556C7.59875 89.4352 8.41508 90.0003 8.10111 91.005C8.10111 91.005 8.72905 90.7538 8.66626 90.0003C8.54067 89.3723 7.53596 88.4932 7.28478 88.1165C6.78243 87.6141 6.90803 87.1746 6.90803 87.1746Z" fill="#251725"/>
<path d="M9.92227 87.1746C9.92227 87.1746 9.16874 87.7397 9.98506 88.556C10.8014 89.4352 11.6805 89.9375 11.4921 90.9422C11.4921 90.9422 12.1201 90.691 11.9317 89.9375C11.7433 89.3096 10.6758 88.4304 10.3618 88.0537C9.85948 87.6141 9.92227 87.1746 9.92227 87.1746Z" fill="#251725"/>
<path d="M8.1012 86.6094C8.1012 86.6094 7.15929 87.3001 8.03841 88.3048C8.98032 89.3723 10.1106 90.1258 9.79663 91.3817C9.79663 91.3817 10.613 91.005 10.4246 90.1258C10.2362 89.3095 8.91752 88.242 8.54075 87.8025C8.0384 87.1745 8.1012 86.6094 8.1012 86.6094Z" fill="#251725"/>
<path d="M302.798 92.5379C313.351 81.8884 318.272 69.6551 313.79 65.214C309.308 60.7729 297.121 65.8058 286.568 76.4553C276.015 87.1048 271.094 99.3381 275.576 103.779C280.058 108.22 292.245 103.187 302.798 92.5379Z" fill="url(#paint2_linear_2396_5808)" stroke="#251725" stroke-miterlimit="10" stroke-linecap="round" stroke-linejoin="round"/>
<path d="M287.692 77.5443C296.852 68.3092 307.115 63.7164 310.673 67.2002C314.231 70.6841 309.672 81.054 300.563 90.2753C291.403 99.5104 281.14 104.103 277.582 100.619C274.01 97.085 278.583 86.7655 287.692 77.5443Z" fill="url(#paint3_linear_2396_5808)" stroke="#251725" stroke-miterlimit="10" stroke-linecap="round" stroke-linejoin="round"/>
<path d="M313.821 65.2004L318.322 69.3507C322.79 73.7813 317.877 86.0405 307.311 96.6914C296.745 107.342 284.546 112.409 280.078 107.978L275.578 103.828C280.046 108.258 292.244 103.192 302.811 92.5412C313.377 81.8903 318.289 69.6311 313.821 65.2004Z" fill="url(#paint4_linear_2396_5808)"/>
<mask id="mask3_2396_5808" style="mask-type:alpha" maskUnits="userSpaceOnUse" x="275" y="64" width="46" height="47">
<path d="M313.822 65.2003L318.322 69.3507C322.79 73.7814 317.877 86.0407 307.311 96.6916C296.744 107.342 284.546 112.409 280.078 107.978L275.578 103.828C280.046 108.258 292.244 103.192 302.811 92.5412C313.377 81.8903 318.29 69.6311 313.822 65.2003Z" fill="#D9D9D9" stroke="#251725" stroke-miterlimit="10" stroke-linecap="round" stroke-linejoin="round"/>
</mask>
<g mask="url(#mask3_2396_5808)">
<path d="M296.728 118.429L277.66 99.511" stroke="#251725" stroke-miterlimit="10" stroke-linecap="round" stroke-linejoin="round"/>
<path d="M303.236 111.819L284.131 92.9651" stroke="#251725" stroke-miterlimit="10" stroke-linecap="round" stroke-linejoin="round"/>
<path d="M309.757 105.259L290.639 86.3547" stroke="#251725" stroke-miterlimit="10" stroke-linecap="round" stroke-linejoin="round"/>
<path d="M316.228 98.7127L297.161 79.7949" stroke="#251725" stroke-miterlimit="10" stroke-linecap="round" stroke-linejoin="round"/>
<path d="M322.75 92.153L303.682 73.2352" stroke="#251725" stroke-miterlimit="10" stroke-linecap="round" stroke-linejoin="round"/>
<path d="M329.258 85.5428L310.203 66.6755" stroke="#251725" stroke-miterlimit="10" stroke-linecap="round" stroke-linejoin="round"/>
</g>
<path d="M313.821 65.2004L318.322 69.3507C322.79 73.7813 317.877 86.0405 307.311 96.6914C296.745 107.342 284.546 112.409 280.078 107.978L275.578 103.828C280.046 108.258 292.244 103.192 302.811 92.5412C313.377 81.8903 318.289 69.6311 313.821 65.2004Z" stroke="#251725" stroke-miterlimit="10" stroke-linecap="round" stroke-linejoin="round"/>
<path d="M300.443 80.4758C299.647 80.747 298.907 81.2205 298.273 81.8825C297.45 82.6501 296.531 83.0639 295.856 82.9766L295.46 82.9215C294.785 82.8342 294.481 82.3195 294.642 81.5151L294.697 81.1198C294.872 80.3659 295.322 79.4282 296.108 78.7249C297.092 77.7504 297.841 76.5139 297.758 75.613C297.703 74.8132 296.972 74.5237 295.938 74.9145C294.425 75.5443 292.785 77.2957 292.408 78.7022C292.197 79.5204 292.463 80.0995 293.074 80.1501C293.635 80.2144 293.911 80.628 293.75 81.4324L293.622 81.9564C293.461 82.7608 292.859 83.7399 292.05 84.5581L291.576 85.0132C290.754 85.7809 289.862 86.2958 289.288 86.1809C288.828 86.089 288.221 86.2546 287.532 86.7143C286.328 87.4774 285.05 88.9667 284.319 90.4698C282.968 93.283 283.805 94.956 286.066 93.6872C287.335 92.9609 288.7 91.3933 289.518 89.8121C289.775 89.3616 289.931 88.9387 290 88.594C290.271 87.5965 290.91 86.5531 291.77 85.7211L292.33 85.1878C293.139 84.3696 294.058 83.9558 294.734 84.0431L295.18 84.0844C295.856 84.1717 296.187 84.7876 296.067 85.7437C296.049 86.0746 296.044 86.4561 296.127 86.7595C296.431 87.8718 297.46 88.4601 298.848 87.9727C301.436 87.1038 303.564 83.7528 303.035 81.6155C302.883 80.4618 301.729 80.016 300.443 80.4758Z" fill="#251725"/>
<path d="M68.9304 94.7056L68.1392 94.2573C69.5628 89.4047 68.9118 83.9544 66.0103 78.9967C60.5767 69.7493 48.4096 64.5727 37.8785 67.5626C34.3096 68.5827 31.3297 70.4379 29.0707 72.8204L28.0333 72.2667L25.7131 77.937C25.6867 77.9986 25.634 78.1216 25.6076 78.1832L25.4758 78.4909C23.6126 83.2645 23.9033 88.9609 26.9279 94.4812C33.3551 106.084 48.3439 110.54 59.1824 104.878C61.5382 103.629 63.4545 102.046 64.9927 100.156L65.0366 100.139C65.4849 99.6024 65.898 98.9782 66.2672 98.3716L68.9304 94.7056Z" fill="url(#paint5_linear_2396_5808)" stroke="#251725" stroke-miterlimit="10" stroke-linecap="round" stroke-linejoin="round"/>
<mask id="mask4_2396_5808" style="mask-type:alpha" maskUnits="userSpaceOnUse" x="23" y="66" width="47" height="42">
<path d="M68.9305 94.7066L68.1393 94.2583C69.5632 89.4056 68.9123 83.9552 66.011 78.9973C60.5777 69.7494 48.4107 64.5722 37.8792 67.5618C34.3101 68.5817 31.3301 70.4368 29.071 72.8192L28.0336 72.2655L25.7131 77.9358C25.6867 77.9973 25.634 78.1204 25.6076 78.1819L25.4758 78.4896C23.6123 83.2632 23.9028 88.9598 26.9272 94.4804C33.354 106.084 48.3429 110.54 59.1819 104.878C61.5378 103.63 63.4541 102.047 64.9925 100.157L65.0364 100.14C65.4847 99.6034 65.8979 98.9792 66.267 98.3726L68.9305 94.7066Z" fill="white" stroke="#251725" stroke-miterlimit="10" stroke-linecap="round" stroke-linejoin="round"/>
</mask>
<g mask="url(#mask4_2396_5808)">
<path d="M55.5427 112.35L63.9201 92.6314" stroke="#251725" stroke-miterlimit="10" stroke-linecap="round" stroke-linejoin="round"/>
<path d="M48.7737 109.45L57.1071 89.7486" stroke="#251725" stroke-miterlimit="10" stroke-linecap="round" stroke-linejoin="round"/>
<path d="M42.0219 106.593L50.3554 86.8924" stroke="#251725" stroke-miterlimit="10" stroke-linecap="round" stroke-linejoin="round"/>
<path d="M35.2087 103.711L43.5861 83.992" stroke="#251725" stroke-miterlimit="10" stroke-linecap="round" stroke-linejoin="round"/>
<path d="M28.4394 100.81L36.7905 81.1534" stroke="#251725" stroke-miterlimit="10" stroke-linecap="round" stroke-linejoin="round"/>
<path d="M21.644 97.9716L30.0214 78.253" stroke="#251725" stroke-miterlimit="10" stroke-linecap="round" stroke-linejoin="round"/>
</g>
<path d="M68.5769 74.9614C74.2128 84.5868 71.5592 96.3052 61.6085 101.51C50.5238 107.322 35.1219 102.726 28.5451 90.8768C22.0827 79.1856 27.7252 66.7812 39.7419 63.2988C50.5631 60.1419 62.9938 65.4678 68.5769 74.9614Z" fill="url(#paint6_linear_2396_5808)" stroke="#251725" stroke-miterlimit="10" stroke-linecap="round" stroke-linejoin="round"/>
<path d="M65.8958 76.0341C70.6964 84.2091 68.2799 94.099 59.8148 98.3019C50.5497 102.927 37.873 99.0249 32.4569 89.3116C27.1199 79.6686 31.5934 69.3126 41.5091 66.3139C50.537 63.5175 61.1304 67.947 65.8958 76.0341Z" fill="url(#paint7_linear_2396_5808)" stroke="#251725" stroke-miterlimit="10" stroke-linecap="round" stroke-linejoin="round"/>
<path d="M33.748 77.1186C34.1171 76.0022 34.6093 74.9384 35.2245 73.9274" stroke="#251725" stroke-miterlimit="10" stroke-linecap="round" stroke-linejoin="round"/>
<path d="M33.1768 81.1713C33.1855 80.5559 33.1943 79.9405 33.2645 79.3516" stroke="#251725" stroke-miterlimit="10" stroke-linecap="round" stroke-linejoin="round"/>
<path d="M59.9187 83.0146C59.4 82.1005 58.6527 81.3797 57.6505 80.9139C56.6922 80.4305 55.6197 80.2987 54.5033 80.4395C55.2505 79.8856 55.69 79.1999 55.8217 78.3823C55.9535 77.5647 55.7512 76.6769 55.2149 75.7187C54.4939 74.4266 53.4389 73.574 52.1291 73.2312C51.1972 72.9412 50.1775 72.9413 49.0523 73.1876L47.751 70.9549L45.7204 71.6144L46.9425 73.7768L44.6658 74.5858L43.4437 72.4234L41.3251 73.118L42.5649 75.3244L39.4794 76.406L49.0895 93.4153L52.0694 92.07L53.1597 94.0302L55.1903 93.1158L54.1176 91.1995L56.324 90.2147L57.3967 92.131L59.3393 91.2517L58.2051 89.309C59.26 88.632 60.0247 87.8672 60.3323 86.9793C60.8684 85.643 60.7188 84.3771 59.9187 83.0146ZM51.6109 77.9256C52.2791 79.0859 51.91 79.9475 50.4859 80.4663L47.7433 81.5126L45.7035 77.9438L48.4197 76.9589C49.9053 76.4665 50.9427 76.7653 51.6109 77.9256ZM54.4161 86.848L51.5064 88.1142L49.3962 84.3695L52.341 83.1912C53.0882 82.8923 53.73 82.8395 54.3102 83.0152C54.8904 83.191 55.3475 83.5689 55.6816 84.1491C56.3059 85.327 55.9104 86.2501 54.4161 86.848Z" fill="#251725"/>
<path d="M141.472 35.6993L141.658 128.262L222.035 174.962L221.849 82.3994L141.472 35.6993Z" fill="white" stroke="#251725" stroke-miterlimit="10" stroke-linecap="round" stroke-linejoin="round"/>
<path d="M221.849 82.3994L222.035 174.962L262.037 151.798L268.828 147.891L268.642 55.4213L221.849 82.3994Z" fill="#251725" stroke="#251725" stroke-miterlimit="10" stroke-linecap="round" stroke-linejoin="round"/>
<path d="M141.472 35.6993L221.849 82.3994L268.642 55.4213L188.266 8.72119L141.472 35.6993Z" fill="white" stroke="#251725" stroke-miterlimit="10" stroke-linecap="round" stroke-linejoin="round"/>
<path d="M188.265 11.8842L147.054 35.6993L148.915 36.9087L188.358 14.1168L188.265 11.8842Z" fill="white" stroke="#251725" stroke-miterlimit="10" stroke-linecap="round" stroke-linejoin="round"/>
<path d="M188.359 14.1168L261.199 56.4446L263.06 55.4213L188.266 11.8842L188.359 14.1168Z" fill="#AF56FF" stroke="#251725" stroke-miterlimit="10" stroke-linecap="round" stroke-linejoin="round"/>
<path d="M261.199 56.4446L221.849 79.2365L148.915 36.9087L188.358 14.1168L261.199 56.4446Z" fill="white"/>
<path d="M261.199 56.4446L221.849 79.2365L148.915 36.9087L188.358 14.1168L261.199 56.4446Z" fill="url(#paint8_linear_2396_5808)"/>
<path d="M261.199 56.4446L221.849 79.2365L148.915 36.9087L188.358 14.1168L261.199 56.4446Z" stroke="#251725" stroke-miterlimit="10" stroke-linecap="round" stroke-linejoin="round"/>
<path d="M173.102 42.2112L179.149 38.7692L179.056 35.1411H181.009L184.638 38.7692L178.591 42.2112H173.102Z" fill="#8055BB"/>
<path d="M166.962 33.1875V38.6761L173.102 42.2112L173.009 36.7226L166.962 33.1875Z" fill="white" stroke="#251725" stroke-miterlimit="10" stroke-linecap="round" stroke-linejoin="round"/>
<path d="M173.009 36.7227L173.102 42.2113L179.149 38.7693L179.056 33.2806L173.009 36.7227Z" fill="#AF56FF" stroke="#251725" stroke-miterlimit="10" stroke-linecap="round" stroke-linejoin="round"/>
<path d="M166.962 33.1875L173.009 36.7226L179.056 33.2806L173.009 29.6525L166.962 33.1875Z" fill="white" stroke="#251725" stroke-miterlimit="10" stroke-linecap="round" stroke-linejoin="round"/>
<path d="M174.033 37.8389L176.73 36.3504L178.126 35.5132" stroke="#251725" stroke-miterlimit="10" stroke-linecap="round" stroke-linejoin="round"/>
<path d="M174.033 39.6995L176.73 38.118L178.126 37.3738" stroke="#251725" stroke-miterlimit="10" stroke-linecap="round" stroke-linejoin="round"/>
<path d="M172.079 37.8389L169.288 36.3504L167.986 35.5132" stroke="#8055BB" stroke-miterlimit="10" stroke-linecap="round" stroke-linejoin="round"/>
<path d="M172.079 39.6995L169.288 38.118L167.986 37.3738" stroke="#8055BB" stroke-miterlimit="10" stroke-linecap="round" stroke-linejoin="round"/>
<path d="M189.754 32.4433L195.801 28.9082V25.3732L197.661 25.2802L201.29 28.9082L195.243 32.4433H189.754Z" fill="#8055BB"/>
<path d="M183.614 23.3265L183.707 28.8152L189.754 32.4433V26.8616L183.614 23.3265Z" fill="white" stroke="#251725" stroke-miterlimit="10" stroke-linecap="round" stroke-linejoin="round"/>
<path d="M189.754 26.8616V32.4433L195.801 28.9082V23.4196L189.754 26.8616Z" fill="#AF56FF" stroke="#251725" stroke-miterlimit="10" stroke-linecap="round" stroke-linejoin="round"/>
<path d="M183.614 23.3266L189.754 26.8616L195.801 23.4196L189.661 19.7915L183.614 23.3266Z" fill="white" stroke="#251725" stroke-miterlimit="10" stroke-linecap="round" stroke-linejoin="round"/>
<path d="M190.777 28.0711L193.475 26.4896L194.778 25.7454" stroke="#251725" stroke-miterlimit="10" stroke-linecap="round" stroke-linejoin="round"/>
<path d="M190.777 29.8386L193.475 28.2572L194.778 27.5129" stroke="#251725" stroke-miterlimit="10" stroke-linecap="round" stroke-linejoin="round"/>
<path d="M188.731 28.0711L186.033 26.4896L184.731 25.7454" stroke="#8055BB" stroke-miterlimit="10" stroke-linecap="round" stroke-linejoin="round"/>
<path d="M188.731 29.8386L186.033 28.2572L184.731 27.5129" stroke="#8055BB" stroke-miterlimit="10" stroke-linecap="round" stroke-linejoin="round"/>
<path d="M194.312 54.491L200.359 51.049L200.266 47.4209H202.22L205.848 51.049L199.801 54.491H194.312Z" fill="#8055BB"/>
<path d="M188.172 45.3743V50.956L194.312 54.491L194.219 49.0024L188.172 45.3743Z" fill="white" stroke="#251725" stroke-miterlimit="10" stroke-linecap="round" stroke-linejoin="round"/>
<path d="M194.219 49.0023L194.312 54.491L200.359 51.049L200.266 45.4673L194.219 49.0023Z" fill="#AF56FF" stroke="#251725" stroke-miterlimit="10" stroke-linecap="round" stroke-linejoin="round"/>
<path d="M188.172 45.3743L194.219 49.0024L200.266 45.4673L194.219 41.9323L188.172 45.3743Z" fill="white" stroke="#251725" stroke-miterlimit="10" stroke-linecap="round" stroke-linejoin="round"/>
<path d="M195.243 50.1187L197.94 48.5372L199.243 47.793" stroke="#251725" stroke-miterlimit="10" stroke-linecap="round" stroke-linejoin="round"/>
<path d="M195.243 51.8862L197.94 50.3978L199.243 49.6536" stroke="#251725" stroke-miterlimit="10" stroke-linecap="round" stroke-linejoin="round"/>
<path d="M193.196 50.1187L190.498 48.5372L189.196 47.793" stroke="#8055BB" stroke-miterlimit="10" stroke-linecap="round" stroke-linejoin="round"/>
<path d="M193.196 51.8862L190.498 50.3978L189.196 49.6536" stroke="#8055BB" stroke-miterlimit="10" stroke-linecap="round" stroke-linejoin="round"/>
<path d="M210.964 44.6299L217.011 41.1879V37.5598H218.872L222.5 41.1879L216.453 44.6299H210.964Z" fill="#8055BB"/>
<path d="M204.825 35.5132L204.918 41.0949L210.964 44.6299V39.1413L204.825 35.5132Z" fill="white" stroke="#251725" stroke-miterlimit="10" stroke-linecap="round" stroke-linejoin="round"/>
<path d="M210.965 39.1413V44.6299L217.011 41.1879V35.6062L210.965 39.1413Z" fill="#AF56FF" stroke="#251725" stroke-miterlimit="10" stroke-linecap="round" stroke-linejoin="round"/>
<path d="M204.825 35.5132L210.965 39.1413L217.011 35.6062L210.871 32.0712L204.825 35.5132Z" fill="white" stroke="#251725" stroke-miterlimit="10" stroke-linecap="round" stroke-linejoin="round"/>
<path d="M211.988 40.2576L214.686 38.6761L215.988 37.9319" stroke="#251725" stroke-miterlimit="10" stroke-linecap="round" stroke-linejoin="round"/>
<path d="M211.988 42.1182L214.686 40.5367L215.988 39.7925" stroke="#251725" stroke-miterlimit="10" stroke-linecap="round" stroke-linejoin="round"/>
<path d="M209.941 40.2576L207.243 38.6761L205.941 37.9319" stroke="#8055BB" stroke-miterlimit="10" stroke-linecap="round" stroke-linejoin="round"/>
<path d="M209.941 42.1182L207.243 40.5367L205.941 39.7925" stroke="#8055BB" stroke-miterlimit="10" stroke-linecap="round" stroke-linejoin="round"/>
<path d="M215.523 66.7707L221.57 63.2356L221.477 59.7006H223.43L227.058 63.3286L221.012 66.7707H215.523Z" fill="#8055BB"/>
<path d="M209.383 57.6539V63.2356L215.523 66.7707L215.43 61.189L209.383 57.6539Z" fill="white" stroke="#251725" stroke-miterlimit="10" stroke-linecap="round" stroke-linejoin="round"/>
<path d="M215.43 61.189L215.523 66.7707L221.57 63.2356L221.477 57.7469L215.43 61.189Z" fill="#AF56FF" stroke="#251725" stroke-miterlimit="10" stroke-linecap="round" stroke-linejoin="round"/>
<path d="M209.383 57.6539L215.43 61.189L221.477 57.747L215.43 54.2119L209.383 57.6539Z" fill="white" stroke="#251725" stroke-miterlimit="10" stroke-linecap="round" stroke-linejoin="round"/>
<path d="M216.453 62.3983L219.151 60.8169L220.453 60.0726" stroke="#251725" stroke-miterlimit="10" stroke-linecap="round" stroke-linejoin="round"/>
<path d="M216.453 64.1658L219.151 62.5843L220.453 61.8401" stroke="#251725" stroke-miterlimit="10" stroke-linecap="round" stroke-linejoin="round"/>
<path d="M214.406 62.3983L211.709 60.8169L210.406 60.0726" stroke="#8055BB" stroke-miterlimit="10" stroke-linecap="round" stroke-linejoin="round"/>
<path d="M214.406 64.1658L211.709 62.5843L210.406 61.8401" stroke="#8055BB" stroke-miterlimit="10" stroke-linecap="round" stroke-linejoin="round"/>
<path d="M232.175 56.9097L238.222 53.4677V49.8396H240.082L243.71 53.4677L237.663 56.9097H232.175Z" fill="#8055BB"/>
<path d="M226.035 47.793L226.128 53.3747L232.175 56.9097V51.4211L226.035 47.793Z" fill="white" stroke="#251725" stroke-miterlimit="10" stroke-linecap="round" stroke-linejoin="round"/>
<path d="M232.175 51.4211V56.9097L238.222 53.4677V47.886L232.175 51.4211Z" fill="#AF56FF" stroke="#251725" stroke-miterlimit="10" stroke-linecap="round" stroke-linejoin="round"/>
<path d="M226.035 47.793L232.175 51.4211L238.222 47.886L232.082 44.351L226.035 47.793Z" fill="white" stroke="#251725" stroke-miterlimit="10" stroke-linecap="round" stroke-linejoin="round"/>
<path d="M233.198 52.5374L235.896 50.9559L237.198 50.2117" stroke="#251725" stroke-miterlimit="10" stroke-linecap="round" stroke-linejoin="round"/>
<path d="M233.198 54.305L235.896 52.8165L237.198 52.0723" stroke="#251725" stroke-miterlimit="10" stroke-linecap="round" stroke-linejoin="round"/>
<path d="M231.151 52.5374L228.454 50.9559L227.151 50.2117" stroke="#8055BB" stroke-miterlimit="10" stroke-linecap="round" stroke-linejoin="round"/>
<path d="M231.151 54.305L228.454 52.8165L227.151 52.0723" stroke="#8055BB" stroke-miterlimit="10" stroke-linecap="round" stroke-linejoin="round"/>
<path d="M147.612 44.444V51.9792L144.17 50.0256V42.4904L147.612 44.444Z" fill="#DF87F1"/>
<path d="M152.171 47.1417V54.584L148.729 52.6304V45.0951L152.171 47.1417Z" fill="#DF87F1"/>
<path d="M156.729 49.7466V57.2818L153.287 55.2352V47.7L156.729 49.7466Z" fill="#DF87F1"/>
<path d="M162.683 53.2816V60.8169L159.241 58.7703V51.235L162.683 53.2816Z" fill="#DF87F1"/>
<path d="M167.241 55.8863V63.4216L163.799 61.375V53.9327L167.241 55.8863Z" fill="#DF87F1"/>
<path d="M171.799 58.4912V66.0264L168.357 64.0729V56.5376L171.799 58.4912Z" fill="#DF87F1"/>
<path d="M177.846 62.1193L177.753 69.6545L174.311 67.6079V60.0726L177.846 62.1193Z" fill="#A499CE"/>
<path d="M182.405 64.7241L182.312 72.2594L178.87 70.2127V62.6775L182.405 64.7241Z" fill="#A499CE"/>
<path d="M186.963 67.3289L186.87 74.8641L183.428 72.8175V65.2822L186.963 67.3289Z" fill="#A499CE"/>
<path d="M147.612 58.1191V65.6544L144.17 63.6078V56.1655L147.612 58.1191Z" fill="#DF87F1"/>
<path d="M152.171 60.724V68.2593L148.729 66.3057V58.7704L152.171 60.724Z" fill="#DF87F1"/>
<path d="M156.729 63.3287V70.864L153.287 68.9104V61.3751L156.729 63.3287Z" fill="#DF87F1"/>
<path d="M162.683 66.9568V74.492L159.241 72.4454V64.9102L162.683 66.9568Z" fill="#DF87F1"/>
<path d="M167.241 69.5615V77.0968L163.799 75.0502V67.5149L167.241 69.5615Z" fill="#DF87F1"/>
<path d="M171.799 72.1664V79.7016L168.357 77.655V70.1198L171.799 72.1664Z" fill="#DF87F1"/>
<path d="M177.846 75.7945L177.753 83.3298L174.311 81.2832V73.7479L177.846 75.7945Z" fill="#A499CE"/>
<path d="M182.405 78.3993L182.312 85.9346L178.87 83.8879V76.3527L182.405 78.3993Z" fill="#A499CE"/>
<path d="M186.963 81.0041L186.87 88.5394L183.428 86.4928V78.9575L186.963 81.0041Z" fill="#A499CE"/>
<path d="M147.612 71.7942V79.3295L144.17 77.2828V69.7476L147.612 71.7942Z" fill="#DF87F1"/>
<path d="M152.171 74.399V81.9343L148.729 79.8877V72.4454L152.171 74.399Z" fill="#DF87F1"/>
<path d="M156.729 77.0038V84.539L153.287 82.5854V75.0502L156.729 77.0038Z" fill="#DF87F1"/>
<path d="M162.683 80.6318V88.1671L159.241 86.1205V78.5852L162.683 80.6318Z" fill="#DF87F1"/>
<path d="M167.241 83.2367V90.7719L163.799 88.7253V81.1901L167.241 83.2367Z" fill="#DF87F1"/>
<path d="M171.799 85.8414V93.3767L168.357 91.3301V83.7948L171.799 85.8414Z" fill="#DF87F1"/>
<path d="M177.846 89.4695L177.753 97.0048L174.311 94.9581V87.4229L177.846 89.4695Z" fill="#A499CE"/>
<path d="M182.405 92.0743L182.312 99.6096L178.87 97.563V90.0277L182.405 92.0743Z" fill="#A499CE"/>
<path d="M186.963 94.679L186.87 102.214L183.428 100.168V92.6323L186.963 94.679Z" fill="#A499CE"/>
<path d="M147.705 91.6092V99.1445L144.263 97.1909V89.6556L147.705 91.6092Z" fill="#DF87F1"/>
<path d="M152.264 94.307V101.749L148.822 99.7957V92.2604L152.264 94.307Z" fill="#DF87F1"/>
<path d="M156.822 96.9118V104.447L153.38 102.401V94.8652L156.822 96.9118Z" fill="#DF87F1"/>
<path d="M162.776 100.447V107.982L159.334 105.936V98.4003L162.776 100.447Z" fill="#DF87F1"/>
<path d="M167.334 103.052V110.587L163.892 108.54V101.098L167.334 103.052Z" fill="#DF87F1"/>
<path d="M171.892 105.656V113.192L168.45 111.238V103.703L171.892 105.656Z" fill="#DF87F1"/>
<path d="M177.939 109.285L177.846 116.82L174.404 114.773V107.238L177.939 109.285Z" fill="#DF87F1"/>
<path d="M182.498 111.889L182.405 119.425L178.963 117.378V109.843L182.498 111.889Z" fill="#DF87F1"/>
<path d="M187.056 114.494L186.963 122.03L183.521 119.983V112.448L187.056 114.494Z" fill="#DF87F1"/>
<path d="M147.705 105.284V112.82L144.263 110.773V103.331L147.705 105.284Z" fill="#DF87F1"/>
<path d="M152.264 107.889V115.424L148.822 113.471V105.936L152.264 107.889Z" fill="#DF87F1"/>
<path d="M156.822 110.494V118.029L153.38 116.076V108.54L156.822 110.494Z" fill="#DF87F1"/>
<path d="M162.776 114.122V121.657L159.334 119.611V112.075L162.776 114.122Z" fill="#DF87F1"/>
<path d="M167.334 116.727V124.262L163.892 122.215V114.68L167.334 116.727Z" fill="#DF87F1"/>
<path d="M171.892 119.332V126.867L168.45 124.82V117.285L171.892 119.332Z" fill="#DF87F1"/>
<path d="M177.939 122.96L177.846 130.495L174.404 128.448V120.913L177.939 122.96Z" fill="#DF87F1"/>
<path d="M182.498 125.564L182.405 133.1L178.963 131.053V123.518L182.498 125.564Z" fill="#DF87F1"/>
<path d="M187.056 128.169L186.963 135.704L183.521 133.658V126.123L187.056 128.169Z" fill="#DF87F1"/>
<path d="M147.705 118.959V126.495L144.263 124.448V116.913L147.705 118.959Z" fill="#DF87F1"/>
<path d="M152.264 121.564V129.1L148.822 127.053V119.611L152.264 121.564Z" fill="#DF87F1"/>
<path d="M156.822 124.169V131.704L153.38 129.751V122.215L156.822 124.169Z" fill="#DF87F1"/>
<path d="M162.776 127.797V135.332L159.334 133.286V125.75L162.776 127.797Z" fill="#DF87F1"/>
<path d="M167.334 130.402V137.937L163.892 135.891V128.355L167.334 130.402Z" fill="#DF87F1"/>
<path d="M171.892 133.007V140.542L168.45 138.495V130.96L171.892 133.007Z" fill="#DF87F1"/>
<path d="M177.939 136.635L177.846 144.17L174.404 142.123V134.588L177.939 136.635Z" fill="#DF87F1"/>
<path d="M182.498 139.239L182.405 146.775L178.963 144.728V137.193L182.498 139.239Z" fill="#DF87F1"/>
<path d="M187.056 141.844L186.963 149.38L183.521 147.333V139.798L187.056 141.844Z" fill="#DF87F1"/>
<path d="M253.478 75.8874V83.4227L257.013 81.3761V73.8408L253.478 75.8874Z" fill="#8055BB"/>
<path d="M248.92 78.4922V86.0274L252.455 83.9808V76.4456L248.92 78.4922Z" fill="#8055BB"/>
<path d="M244.362 81.097V88.6323L247.897 86.6787V79.1434L244.362 81.097Z" fill="#8055BB"/>
<path d="M239.803 83.7017V91.237L243.338 89.2834V81.7482L239.803 83.7017Z" fill="#8055BB"/>
<path d="M235.245 86.3066V93.8419L238.78 91.8883V84.353L235.245 86.3066Z" fill="#8055BB"/>
<path d="M253.478 85.0973V92.6325L257.013 90.5859V83.0507L253.478 85.0973Z" fill="#8055BB"/>
<path d="M248.92 87.7021V95.2374L252.455 93.2838V85.7485L248.92 87.7021Z" fill="#8055BB"/>
<path d="M244.362 90.3069V97.8421L247.897 95.8886V88.3533L244.362 90.3069Z" fill="#8055BB"/>
<path d="M239.803 92.9116V100.447L243.338 98.4933V90.958L239.803 92.9116Z" fill="#8055BB"/>
<path d="M235.245 95.6095V103.145L238.78 101.098V93.5629L235.245 95.6095Z" fill="#8055BB"/>
<path d="M253.478 94.307V101.842L257.013 99.8887V92.3534L253.478 94.307Z" fill="#8055BB"/>
<path d="M248.92 96.9117V104.447L252.455 102.493V94.9581L248.92 96.9117Z" fill="#8055BB"/>
<path d="M244.362 99.5166V107.052L247.897 105.098V97.563L244.362 99.5166Z" fill="#8055BB"/>
<path d="M239.803 102.214V109.75L243.338 107.703V100.168L239.803 102.214Z" fill="#8055BB"/>
<path d="M235.245 104.819V112.354L238.78 110.308V102.772L235.245 104.819Z" fill="#8055BB"/>
<path d="M253.478 103.517V111.052L257.013 109.098V101.563L253.478 103.517Z" fill="#8055BB"/>
<path d="M248.92 106.214V113.657L252.455 111.703V104.168L248.92 106.214Z" fill="#8055BB"/>
<path d="M244.362 108.819V116.355L247.897 114.308V106.773L244.362 108.819Z" fill="#8055BB"/>
<path d="M239.803 111.424V118.959L243.338 116.913V109.377L239.803 111.424Z" fill="#8055BB"/>
<path d="M235.245 114.029V121.564L238.78 119.518V111.982L235.245 114.029Z" fill="#8055BB"/>
<path d="M227.616 135.891L227.709 148.17L265.479 126.309L265.386 114.122L227.616 135.891Z" fill="#8055BB" stroke="#251725" stroke-miterlimit="10" stroke-linecap="round" stroke-linejoin="round"/>
<path d="M211.895 163.52L216.825 166.404V84.446L211.895 81.5621V163.52Z" fill="#A499CE"/>
<path d="M210.034 80.4457L205.011 77.6549V159.52L209.941 162.403L210.034 80.4457Z" fill="#A499CE"/>
<path d="M203.15 76.5387L198.22 73.6548V155.613L203.15 158.403V76.5387Z" fill="#A499CE"/>
<path d="M191.335 151.612L196.266 154.403L196.359 72.5384L191.335 69.6545V151.612Z" fill="#A499CE"/>
<path d="M99.8889 173.102L114.866 164.45L129.844 173.102L152.729 159.892L99.3307 129.006L61.4683 150.868L99.8889 173.102Z" fill="white" stroke="#251725" stroke-miterlimit="10" stroke-linecap="round" stroke-linejoin="round"/>
<path d="M99.8889 86.9577L114.866 78.3061L129.844 86.9577L152.729 73.7477L99.3307 42.9554L61.4683 64.724L99.8889 86.9577Z" fill="white" stroke="#251725" stroke-miterlimit="10" stroke-linecap="round" stroke-linejoin="round"/>
<path d="M100.075 83.7018L114.401 75.4223L128.728 83.7018L150.961 70.8639L99.7959 41.281L63.2358 62.3984L100.075 83.7018Z" fill="white" stroke="#251725" stroke-miterlimit="10" stroke-linecap="round" stroke-linejoin="round"/>
<path d="M99.7958 44.0719V45.9325L69.6547 63.3287L68.0732 62.3984L99.7958 44.0719Z" stroke="#251725" stroke-miterlimit="10" stroke-linecap="round" stroke-linejoin="round"/>
<path d="M146.124 70.864L144.542 71.7012L99.7959 45.9325V44.0719L146.124 70.864Z" fill="#AF56FF" stroke="#251725" stroke-miterlimit="10" stroke-linecap="round" stroke-linejoin="round"/>
<path d="M144.542 71.7011L128.728 80.8179L114.401 72.5384L100.075 80.8179L69.6548 63.3286L99.7959 45.9324L144.542 71.7011Z" fill="url(#paint9_linear_2396_5808)" stroke="#251725" stroke-miterlimit="10" stroke-linecap="round" stroke-linejoin="round"/>
<path d="M114.866 78.3062V164.45L99.8889 173.102V86.9578L114.866 78.3062Z" fill="url(#paint10_linear_2396_5808)" stroke="#251725" stroke-miterlimit="10" stroke-linecap="round" stroke-linejoin="round"/>
<path d="M99.8889 86.9577L61.4683 64.724V150.868L99.8889 173.102V86.9577Z" fill="white" stroke="#251725" stroke-miterlimit="10" stroke-linecap="round" stroke-linejoin="round"/>
<path d="M69.1896 85.3763L67.5151 84.353V88.1672L69.1896 89.0975V85.3763Z" fill="#251725"/>
<path d="M69.1896 93.0046L67.5151 91.9813V95.7955L69.1896 96.7258V93.0046Z" fill="#251725"/>
<path d="M69.1896 100.633L67.5151 99.6096V103.424L69.1896 104.354V100.633Z" fill="#251725"/>
<path d="M69.1896 108.261L67.5151 107.331V111.052L69.1896 111.982V108.261Z" fill="#251725"/>
<path d="M69.1896 115.89L67.5151 114.959V118.68L69.1896 119.611V115.89Z" fill="#251725"/>
<path d="M69.1896 123.518L67.5151 122.588V126.309L69.1896 127.239V123.518Z" fill="#251725"/>
<path d="M69.1896 131.146L67.5151 130.216V133.937L69.1896 134.867V131.146Z" fill="#251725"/>
<path d="M74.2131 88.2602L72.5386 87.33V91.0511L74.2131 91.9814V88.2602Z" fill="#251725"/>
<path d="M74.2131 95.8885L72.5386 94.9583V98.6794L74.2131 99.6097V95.8885Z" fill="#251725"/>
<path d="M74.2131 103.517L72.5386 102.587V106.308L74.2131 107.238V103.517Z" fill="#251725"/>
<path d="M74.2131 111.145L72.5386 110.215V113.936L74.2131 114.866V111.145Z" fill="#251725"/>
<path d="M74.2131 118.773L72.5386 117.843V121.564L74.2131 122.588V118.773Z" fill="#251725"/>
<path d="M74.2131 126.402L72.5386 125.471V129.193L74.2131 130.216V126.402Z" fill="#251725"/>
<path d="M74.2131 134.03L72.5386 133.1V136.821L74.2131 137.844V134.03Z" fill="#251725"/>
<path d="M79.2368 91.144L77.5623 90.2137V93.9349L79.2368 94.9582V91.144Z" fill="#251725"/>
<path d="M79.2368 98.7723L77.5623 97.842V101.563L79.2368 102.586V98.7723Z" fill="#251725"/>
<path d="M79.2368 106.401L77.5623 105.47V109.191L79.2368 110.215V106.401Z" fill="#251725"/>
<path d="M79.2368 114.122L77.5623 113.099V116.82L79.2368 117.843V114.122Z" fill="#251725"/>
<path d="M79.2368 121.75L77.5623 120.727V124.448L79.2368 125.471V121.75Z" fill="#251725"/>
<path d="M79.2368 129.379L77.5623 128.355V132.169L79.2368 133.1V129.379Z" fill="#251725"/>
<path d="M79.2368 137.007L77.5623 135.984V139.798L79.2368 140.728V137.007Z" fill="#251725"/>
<path d="M84.3532 94.121L82.6787 93.0977V96.8188L84.3532 97.8421V94.121Z" fill="#251725"/>
<path d="M84.3532 101.749L82.6787 100.726V104.54L84.3532 105.47V101.749Z" fill="#251725"/>
<path d="M84.3532 109.378L82.6787 108.354V112.168L84.3532 113.099V109.378Z" fill="#251725"/>
<path d="M84.3532 117.006L82.6787 115.983V119.797L84.3532 120.727V117.006Z" fill="#251725"/>
<path d="M84.3532 124.634L82.6787 123.704V127.425L84.3532 128.355V124.634Z" fill="#251725"/>
<path d="M84.3532 132.262L82.6787 131.332V135.053L84.3532 135.984V132.262Z" fill="#251725"/>
<path d="M84.3532 139.891L82.6787 138.961V142.682L84.3532 143.612V139.891Z" fill="#251725"/>
<path d="M89.3767 97.0049L87.7021 96.0746V99.7957L89.3767 100.726V97.0049Z" fill="#251725"/>
<path d="M89.3767 104.633L87.7021 103.703V107.424L89.3767 108.354V104.633Z" fill="#251725"/>
<path d="M89.3767 112.261L87.7021 111.331V115.052L89.3767 115.983V112.261Z" fill="#251725"/>
<path d="M89.3767 119.89L87.7021 118.959V122.681L89.3767 123.611V119.89Z" fill="#251725"/>
<path d="M89.3767 127.518L87.7021 126.588V130.309L89.3767 131.239V127.518Z" fill="#251725"/>
<path d="M89.3767 135.146L87.7021 134.216V137.937L89.3767 138.867V135.146Z" fill="#251725"/>
<path d="M89.3767 142.775L87.7021 141.844V145.566L89.3767 146.589V142.775Z" fill="#251725"/>
<path d="M94.4001 99.8888L92.7256 98.9585V102.68L94.4001 103.61V99.8888Z" fill="#251725"/>
<path d="M94.4001 107.517L92.7256 106.587V110.308L94.4001 111.238V107.517Z" fill="#251725"/>
<path d="M94.4001 115.145L92.7256 114.215V117.936L94.4001 118.96V115.145Z" fill="#251725"/>
<path d="M94.4001 122.774L92.7256 121.843V125.565L94.4001 126.588V122.774Z" fill="#251725"/>
<path d="M94.4001 130.402L92.7256 129.472V133.193L94.4001 134.216V130.402Z" fill="#251725"/>
<path d="M94.4001 138.123L92.7256 137.1V140.821L94.4001 141.844V138.123Z" fill="#251725"/>
<path d="M94.4001 145.752L92.7256 144.728V148.449L94.4001 149.473V145.752Z" fill="#251725"/>
<path d="M129.844 86.9578V173.102L152.729 159.892V73.7478L129.844 86.9578Z" fill="url(#paint11_linear_2396_5808)" stroke="#251725" stroke-miterlimit="10" stroke-linecap="round" stroke-linejoin="round"/>
<path d="M129.844 86.9578L114.866 78.3062V164.45L129.844 173.102V86.9578Z" fill="white" stroke="#251725" stroke-miterlimit="10" stroke-linecap="round" stroke-linejoin="round"/>
<path d="M61.4683 64.7241L63.2358 62.3984L100.075 83.7019L99.8889 86.9579L61.4683 64.7241Z" fill="white" stroke="#251725" stroke-miterlimit="10" stroke-linecap="round" stroke-linejoin="round"/>
<path d="M100.075 83.7018L99.8889 86.9577L114.866 78.3061L114.401 75.4222L100.075 83.7018Z" fill="#8055BB" stroke="#251725" stroke-miterlimit="10" stroke-linecap="round" stroke-linejoin="round"/>
<path d="M114.401 75.4222L128.728 83.7018L129.844 86.9577L114.867 78.3061L114.401 75.4222Z" fill="white" stroke="#251725" stroke-miterlimit="10" stroke-linecap="round" stroke-linejoin="round"/>
<path d="M150.961 70.8639L152.729 73.7478L129.844 86.9578L128.728 83.7018L150.961 70.8639Z" fill="#8055BB" stroke="#251725" stroke-miterlimit="10" stroke-linecap="round" stroke-linejoin="round"/>
<path d="M74.9573 63.1425L78.1202 61.282L81.2832 63.1425L78.1202 64.9101L74.9573 63.1425Z" fill="url(#paint12_linear_2396_5808)" stroke="#251725" stroke-miterlimit="10" stroke-linecap="round" stroke-linejoin="round"/>
<path d="M147.426 92.6324L149.101 91.7021V95.4233L147.426 96.3536V92.6324Z" fill="#251725"/>
<path d="M147.426 100.261L149.101 99.3304V103.052L147.426 103.982V100.261Z" fill="#251725"/>
<path d="M147.426 107.889L149.101 106.959V110.68L147.426 111.61V107.889Z" fill="#251725"/>
<path d="M147.426 115.517L149.101 114.587V118.308L147.426 119.238V115.517Z" fill="#251725"/>
<path d="M147.426 123.146L149.101 122.215V125.937L147.426 126.867V123.146Z" fill="#251725"/>
<path d="M147.426 130.774L149.101 129.844V133.565L147.426 134.588V130.774Z" fill="#251725"/>
<path d="M147.426 138.402L149.101 137.472V141.193L147.426 142.216V138.402Z" fill="#251725"/>
<path d="M143.24 95.0511L144.915 94.1208V97.842L143.24 98.7723V95.0511Z" fill="#251725"/>
<path d="M143.24 102.679L144.915 101.749V105.47L143.24 106.401V102.679Z" fill="#251725"/>
<path d="M143.24 110.308L144.915 109.377V113.099L143.24 114.029V110.308Z" fill="#251725"/>
<path d="M143.24 117.936L144.915 117.006V120.727L143.24 121.657V117.936Z" fill="#251725"/>
<path d="M143.24 125.564L144.915 124.634V128.355L143.24 129.379V125.564Z" fill="#251725"/>
<path d="M143.24 133.193L144.915 132.262V135.983L143.24 137.007V133.193Z" fill="#251725"/>
<path d="M143.24 140.821L144.915 139.891V143.612L143.24 144.635V140.821Z" fill="#251725"/>
<path d="M138.961 97.47L140.635 96.5397V100.261L138.961 101.191V97.47Z" fill="#251725"/>
<path d="M138.961 105.098L140.635 104.168V107.889L138.961 108.819V105.098Z" fill="#251725"/>
<path d="M138.961 112.727L140.635 111.796V115.517L138.961 116.448V112.727Z" fill="#251725"/>
<path d="M138.961 120.355L140.635 119.425V123.146L138.961 124.169V120.355Z" fill="#251725"/>
<path d="M138.961 127.983L140.635 127.053V130.774L138.961 131.797V127.983Z" fill="#251725"/>
<path d="M138.961 135.611L140.635 134.681V138.402L138.961 139.426V135.611Z" fill="#251725"/>
<path d="M138.961 143.333L140.635 142.31V146.031L138.961 147.054V143.333Z" fill="#251725"/>
<path d="M134.774 99.8887L136.449 98.9584V102.679L134.774 103.61V99.8887Z" fill="#251725"/>
<path d="M134.774 107.517L136.449 106.587V110.308L134.774 111.238V107.517Z" fill="#251725"/>
<path d="M134.774 115.145L136.449 114.215V117.936L134.774 118.959V115.145Z" fill="#251725"/>
<path d="M134.774 122.774L136.449 121.843V125.564L134.774 126.588V122.774Z" fill="#251725"/>
<path d="M134.774 130.402L136.449 129.472V133.193L134.774 134.216V130.402Z" fill="#251725"/>
<path d="M134.774 138.123L136.449 137.1V140.821L134.774 141.844V138.123Z" fill="#251725"/>
<path d="M134.774 145.751L136.449 144.728V148.449L134.774 149.473V145.751Z" fill="#251725"/>
<path d="M133.565 221.755L100.075 218.499L98.6794 205.01L146.124 179.893L147.984 180.823V192.917L165.66 203.15L133.565 221.755Z" fill="#8055BB"/>
<path d="M208.453 215.709L186.126 214.313L187.986 201.755L253.106 178.032L280.549 191.056L234.5 217.569H212.174L208.453 215.709Z" fill="#8055BB"/>
<path d="M212.453 217.755L255.525 193.01L255.711 137.379L212.639 162.124L212.453 217.755Z" fill="#251725" stroke="#251725" stroke-miterlimit="10" stroke-linecap="round" stroke-linejoin="round"/>
<path d="M212.639 162.125L212.453 217.755L171.148 193.94V138.216L212.639 162.125Z" fill="white" stroke="#251725" stroke-miterlimit="10" stroke-linecap="round" stroke-linejoin="round"/>
<path d="M138.31 119.239L171.148 138.216V193.94L138.217 174.869L138.31 119.239Z" fill="white" stroke="#251725" stroke-miterlimit="10" stroke-linecap="round" stroke-linejoin="round"/>
<path d="M146.217 132.355L149.287 134.123C149.287 134.123 149.287 134.123 149.287 134.216V142.403L146.217 140.635V132.355Z" fill="#DF87F1"/>
<path d="M142.496 130.216L145.565 131.89V140.077L142.496 138.309V130.216Z" fill="#DF87F1"/>
<path d="M146.217 147.798L149.287 149.566C149.287 149.566 149.287 149.566 149.287 149.659V157.845L146.217 156.078V147.798Z" fill="#DF87F1"/>
<path d="M142.496 145.658L145.565 147.333V155.519L142.496 153.752V145.658Z" fill="#DF87F1"/>
<path d="M146.217 161.659L149.287 163.427C149.287 163.427 149.287 163.427 149.287 163.52V171.706L146.217 169.939V161.659Z" fill="#DF87F1"/>
<path d="M142.496 159.613C142.496 159.52 142.496 159.613 142.496 159.613L145.565 161.287V169.474L142.496 167.706V159.613Z" fill="#DF87F1"/>
<path d="M185.847 214.499L196.173 208.36L196.359 152.729L185.94 158.869L185.847 214.499Z" fill="#251725" stroke="#251725" stroke-miterlimit="10" stroke-linecap="round" stroke-linejoin="round"/>
<path d="M138.309 119.239L181.753 93.8419L255.711 137.379L212.639 162.125L196.452 152.822L185.94 158.869L148.263 137.1L158.776 131.053L138.309 119.239Z" fill="white" stroke="#251725" stroke-miterlimit="10" stroke-linecap="round" stroke-linejoin="round"/>
<path d="M148.263 137.1L148.077 192.824L185.847 214.499L185.94 158.869L148.263 137.1Z" fill="white" stroke="#251725" stroke-miterlimit="10" stroke-linecap="round" stroke-linejoin="round"/>
<path d="M160.078 131.053V133.007L151.333 138.03L149.752 137.1L160.078 131.053Z" fill="#AF56FF" stroke="#251725" stroke-miterlimit="10" stroke-linecap="round" stroke-linejoin="round"/>
<path d="M212.639 163.055V165.846L196.359 156.543V153.659L212.639 163.055Z" fill="white" stroke="#251725" stroke-miterlimit="10" stroke-linecap="round" stroke-linejoin="round"/>
<path d="M196.359 153.659V156.543L185.94 162.59V159.706L196.359 153.659Z" fill="#8055BB" stroke="#251725" stroke-miterlimit="10" stroke-linecap="round" stroke-linejoin="round"/>
<path d="M185.94 159.706V162.59L146.775 139.984V137.1L185.94 159.706Z" fill="white" stroke="#251725" stroke-miterlimit="10" stroke-linecap="round" stroke-linejoin="round"/>
<path d="M157.194 131.053L155.52 133.007L136.914 122.029V119.239L157.194 131.053Z" fill="white" stroke="#251725" stroke-miterlimit="10" stroke-linecap="round" stroke-linejoin="round"/>
<path d="M258.874 136.821V139.612L212.639 165.846V163.055L258.874 136.821Z" fill="#8055BB" stroke="#251725" stroke-miterlimit="10" stroke-linecap="round" stroke-linejoin="round"/>
<path d="M212.639 163.055L258.781 136.821L182.033 92.4465L136.821 119.239L157.101 131.053L146.682 137.1L185.847 159.706L196.266 153.659L212.639 163.055Z" fill="white"/>
<path d="M212.639 163.055L258.781 136.821L182.033 92.4465L136.821 119.239L157.101 131.053L146.682 137.1L185.847 159.706L196.266 153.659L212.639 163.055Z" fill="url(#paint13_linear_2396_5808)"/>
<path d="M212.639 163.055L258.781 136.821L182.033 92.4465L136.821 119.239L157.101 131.053L146.682 137.1L185.847 159.706L196.266 153.659L212.639 163.055Z" stroke="#251725" stroke-miterlimit="10" stroke-linecap="round" stroke-linejoin="round"/>
<path d="M213.29 137.844V139.147L219.151 142.496L220.174 141.844L213.29 137.844Z" fill="white" stroke="#251725" stroke-miterlimit="10" stroke-linecap="round" stroke-linejoin="round"/>
<path d="M206.406 141.844L207.522 142.496L213.29 139.147V137.844L206.406 141.844Z" fill="#AF56FF" stroke="#251725" stroke-miterlimit="10" stroke-linecap="round" stroke-linejoin="round"/>
<path d="M207.522 142.496L213.29 145.845L219.151 142.496L213.29 139.147L207.522 142.496Z" fill="url(#paint14_linear_2396_5808)" stroke="#251725" stroke-miterlimit="10" stroke-linecap="round" stroke-linejoin="round"/>
<path d="M200.173 130.309V131.518L205.941 134.867L207.057 134.216L200.173 130.309Z" fill="white" stroke="#251725" stroke-miterlimit="10" stroke-linecap="round" stroke-linejoin="round"/>
<path d="M193.289 134.216L194.312 134.867L200.173 131.518V130.309L193.289 134.216Z" fill="#AF56FF" stroke="#251725" stroke-miterlimit="10" stroke-linecap="round" stroke-linejoin="round"/>
<path d="M194.312 134.867L200.173 138.216L205.941 134.867L200.173 131.518L194.312 134.867Z" fill="url(#paint15_linear_2396_5808)" stroke="#251725" stroke-miterlimit="10" stroke-linecap="round" stroke-linejoin="round"/>
<path d="M187.056 122.681V123.983L192.824 127.332L193.94 126.681L187.056 122.681Z" fill="white" stroke="#251725" stroke-miterlimit="10" stroke-linecap="round" stroke-linejoin="round"/>
<path d="M180.079 126.681L181.195 127.332L187.056 123.983V122.681L180.079 126.681Z" fill="#AF56FF" stroke="#251725" stroke-miterlimit="10" stroke-linecap="round" stroke-linejoin="round"/>
<path d="M181.195 127.332L187.056 130.681L192.824 127.332L187.056 123.983L181.195 127.332Z" fill="url(#paint16_linear_2396_5808)" stroke="#251725" stroke-miterlimit="10" stroke-linecap="round" stroke-linejoin="round"/>
<path d="M173.846 115.052V116.355L179.707 119.704L180.823 119.053L173.846 115.052Z" fill="white" stroke="#251725" stroke-miterlimit="10" stroke-linecap="round" stroke-linejoin="round"/>
<path d="M166.962 119.053L168.078 119.704L173.846 116.355V115.052L166.962 119.053Z" fill="#AF56FF" stroke="#251725" stroke-miterlimit="10" stroke-linecap="round" stroke-linejoin="round"/>
<path d="M168.079 119.704L173.846 123.053L179.707 119.704L173.846 116.355L168.079 119.704Z" fill="url(#paint17_linear_2396_5808)" stroke="#251725" stroke-miterlimit="10" stroke-linecap="round" stroke-linejoin="round"/>
<path d="M233.942 157.566L230.872 159.334C230.872 159.334 230.872 159.334 230.872 159.427V167.613L233.942 165.846V157.566Z" fill="#8055BB"/>
<path d="M237.57 155.519C237.57 155.426 237.57 155.426 237.57 155.519L234.501 157.194V165.38L237.57 163.613V155.519Z" fill="#8055BB"/>
<path d="M246.315 150.496L243.245 152.264C243.245 152.264 243.245 152.264 243.245 152.357V160.543L246.315 158.775V150.496Z" fill="#8055BB"/>
<path d="M249.943 148.449C249.943 148.356 249.943 148.449 249.943 148.449L246.873 150.124V158.31L249.943 156.543V148.449Z" fill="#8055BB"/>
<path d="M221.383 164.729L218.314 166.497C218.314 166.497 218.314 166.497 218.314 166.59V174.776L221.383 173.009V164.729Z" fill="#8055BB"/>
<path d="M225.105 162.683L222.035 164.357V172.544L225.105 170.776V162.683Z" fill="#8055BB"/>
<path d="M233.942 173.009L230.872 174.776C230.872 174.776 230.872 174.776 230.872 174.869V183.056L233.942 181.288V173.009Z" fill="#8055BB"/>
<path d="M237.57 170.962C237.57 170.869 237.57 170.869 237.57 170.962L234.501 172.637V180.823L237.57 179.056V170.962Z" fill="#8055BB"/>
<path d="M246.315 165.939L243.245 167.706C243.245 167.706 243.245 167.706 243.245 167.799V175.986L246.315 174.218V165.939Z" fill="#8055BB"/>
<path d="M249.943 163.799L246.873 165.474V173.66L249.943 171.892V163.799Z" fill="#8055BB"/>
<path d="M221.383 180.172L218.314 181.94C218.314 181.94 218.314 181.94 218.314 182.033V190.219L221.383 188.451V180.172Z" fill="#8055BB"/>
<path d="M225.105 178.125L222.035 179.8V187.986L225.105 186.219V178.125Z" fill="#8055BB"/>
<path d="M233.942 186.87L230.872 188.637C230.872 188.637 230.872 188.637 230.872 188.73V196.917L233.942 195.149V186.87Z" fill="#8055BB"/>
<path d="M237.57 184.823L234.501 186.498V194.684L237.57 192.917V184.823Z" fill="#8055BB"/>
<path d="M246.315 179.8L243.245 181.567C243.245 181.567 243.245 181.567 243.245 181.66V189.847L246.315 188.079V179.8Z" fill="#8055BB"/>
<path d="M249.943 177.753L246.873 179.428V187.614L249.943 185.847V177.753Z" fill="#8055BB"/>
<path d="M221.383 194.126L218.314 195.894C218.314 195.894 218.314 195.894 218.314 195.987V204.173L221.383 202.406V194.126Z" fill="#8055BB"/>
<path d="M225.105 192.08C225.105 191.987 225.105 191.987 225.105 192.08L222.035 193.754V201.941L225.105 200.173V192.08Z" fill="#8055BB"/>
<path d="M204.918 164.729L207.987 166.497C207.987 166.497 207.987 166.497 207.987 166.59V174.776L204.918 173.009V164.729Z" fill="#DF87F1"/>
<path d="M201.196 162.683L204.266 164.357V172.544L201.196 170.776V162.683Z" fill="#DF87F1"/>
<path d="M204.918 180.172L207.987 181.94C207.987 181.94 207.987 181.94 207.987 182.033V190.219L204.918 188.451V180.172Z" fill="#DF87F1"/>
<path d="M201.196 178.125L204.266 179.8V187.986L201.196 186.219V178.125Z" fill="#DF87F1"/>
<path d="M204.918 194.126L207.987 195.894C207.987 195.894 207.987 195.894 207.987 195.987V204.173L204.918 202.406V194.126Z" fill="#DF87F1"/>
<path d="M201.196 192.08C201.196 191.987 201.196 191.987 201.196 192.08L204.266 193.754V201.941L201.196 200.173V192.08Z" fill="#DF87F1"/>
<path d="M175.614 172.265C175.614 172.265 175.614 172.265 175.614 171.986C175.428 169.474 174.683 166.869 173.474 164.45C173.381 164.357 173.381 164.264 173.288 164.078L166.962 167.241L167.334 167.427L175.614 172.265Z" fill="#DF87F1"/>
<path d="M173.009 163.427C173.009 163.334 172.916 163.334 172.916 163.241C172.916 163.241 172.916 163.241 172.823 163.055C172.823 163.055 172.823 163.055 172.823 162.962C172.451 162.311 171.985 161.659 171.613 161.008C171.334 160.729 171.148 160.357 170.869 160.078C171.148 160.357 171.334 160.636 171.613 161.008C170.218 159.148 168.73 157.659 167.055 156.636L166.962 167.055L167.148 166.962L173.009 163.427Z" fill="#8055BB"/>
<path d="M166.218 155.985V156.171L166.125 166.404L164.078 162.962L166.125 166.404V166.497L159.799 155.892C159.799 155.892 159.799 155.892 159.892 155.892C159.892 155.892 159.985 155.892 159.985 155.799C160.078 155.706 160.078 155.706 160.171 155.706C162.032 154.682 164.078 154.775 166.218 155.985Z" fill="#DF87F1"/>
<path d="M159.613 157.008L159.427 156.636C158.496 157.473 157.752 158.683 157.38 160.264C157.38 160.264 157.38 160.264 157.38 160.357V160.45C157.38 160.729 157.287 160.915 157.287 161.194C157.287 161.287 157.287 161.287 157.287 161.38L157.566 161.566L165.846 166.311L159.613 157.008Z" fill="#8055BB"/>
<path d="M158.404 176.637L158.311 198.685L173.939 207.615V185.568L158.404 176.637Z" stroke="#251725" stroke-miterlimit="10" stroke-linecap="round" stroke-linejoin="round"/>
<path d="M167.334 184.544L172.079 187.335V203.708L167.334 201.01V184.544Z" fill="url(#paint18_linear_2396_5808)"/>
<path d="M160.264 180.544L165.009 183.335V199.801L160.264 197.01V180.544Z" fill="url(#paint19_linear_2396_5808)"/>
<defs>
<linearGradient id="paint0_linear_2396_5808" x1="297.397" y1="138.311" x2="288.503" y2="127.164" gradientUnits="userSpaceOnUse">
<stop stop-color="#DF87F1"/>
<stop offset="0.75" stop-color="#FBFBFF"/>
</linearGradient>
<linearGradient id="paint1_linear_2396_5808" x1="16.8445" y1="93.6395" x2="8.28945" y2="81.2904" gradientUnits="userSpaceOnUse">
<stop stop-color="#DF87F1"/>
<stop offset="0.75" stop-color="#FBFBFF"/>
</linearGradient>
<linearGradient id="paint2_linear_2396_5808" x1="322.176" y1="83.1231" x2="302.591" y2="59.6518" gradientUnits="userSpaceOnUse">
<stop offset="0.55" stop-color="#FBFBFF"/>
<stop offset="0.9" stop-color="#DF87F1"/>
</linearGradient>
<linearGradient id="paint3_linear_2396_5808" x1="277.411" y1="65.8497" x2="326.037" y2="107.593" gradientUnits="userSpaceOnUse">
<stop offset="0.293434" stop-color="#10AD74"/>
<stop offset="0.495204" stop-color="#1288AA"/>
</linearGradient>
<linearGradient id="paint4_linear_2396_5808" x1="332.665" y1="96.9517" x2="287.648" y2="59.4071" gradientUnits="userSpaceOnUse">
<stop offset="0.4" stop-color="#DF87F1"/>
<stop offset="0.75" stop-color="#FBFBFF"/>
</linearGradient>
<linearGradient id="paint5_linear_2396_5808" x1="78.81" y1="97.1376" x2="23.0949" y2="73.5167" gradientUnits="userSpaceOnUse">
<stop offset="0.75" stop-color="#DF87F1"/>
<stop offset="0.9" stop-color="#FBFBFF"/>
</linearGradient>
<linearGradient id="paint6_linear_2396_5808" x1="81.7062" y1="93.5876" x2="24.622" y2="69.3689" gradientUnits="userSpaceOnUse">
<stop stop-color="#DF87F1"/>
<stop offset="0.75" stop-color="#FBFBFF"/>
</linearGradient>
<linearGradient id="paint7_linear_2396_5808" x1="29.5717" y1="60.2631" x2="94.645" y2="87.842" gradientUnits="userSpaceOnUse">
<stop offset="0.15" stop-color="#10AD74"/>
<stop offset="0.5" stop-color="#1288AA"/>
</linearGradient>
<linearGradient id="paint8_linear_2396_5808" x1="155.5" y1="7.93746" x2="182.39" y2="106.83" gradientUnits="userSpaceOnUse">
<stop stop-color="#DF87F1"/>
<stop offset="0.45" stop-color="#FBFBFF"/>
</linearGradient>
<linearGradient id="paint9_linear_2396_5808" x1="95.9847" y1="26.5002" x2="103.298" y2="94.9161" gradientUnits="userSpaceOnUse">
<stop stop-color="#DF87F1"/>
<stop offset="0.75" stop-color="#FBFBFF"/>
</linearGradient>
<linearGradient id="paint10_linear_2396_5808" x1="103.296" y1="52.4698" x2="143.328" y2="58.7949" gradientUnits="userSpaceOnUse">
<stop offset="0.1" stop-color="#F76DFC"/>
<stop offset="0.75" stop-color="#1288AA"/>
</linearGradient>
<linearGradient id="paint11_linear_2396_5808" x1="135.049" y1="46.6691" x2="194.585" y2="60.3825" gradientUnits="userSpaceOnUse">
<stop offset="0.1" stop-color="#F76DFC"/>
<stop offset="0.75" stop-color="#1288AA"/>
</linearGradient>
<linearGradient id="paint12_linear_2396_5808" x1="76.3961" y1="60.2932" x2="80.6857" y2="67.7724" gradientUnits="userSpaceOnUse">
<stop offset="0.1" stop-color="#F76DFC"/>
<stop offset="0.75" stop-color="#1288AA"/>
</linearGradient>
<linearGradient id="paint13_linear_2396_5808" x1="215.901" y1="53.1159" x2="197.618" y2="190.743" gradientUnits="userSpaceOnUse">
<stop stop-color="#DF87F1"/>
<stop offset="0.75" stop-color="#FBFBFF"/>
</linearGradient>
<linearGradient id="paint14_linear_2396_5808" x1="216.506" y1="137.321" x2="208.57" y2="151.099" gradientUnits="userSpaceOnUse">
<stop offset="0.1" stop-color="#F76DFC"/>
<stop offset="0.75" stop-color="#1288AA"/>
</linearGradient>
<linearGradient id="paint15_linear_2396_5808" x1="203.296" y1="129.693" x2="195.36" y2="143.471" gradientUnits="userSpaceOnUse">
<stop offset="0.1" stop-color="#F76DFC"/>
<stop offset="0.75" stop-color="#1288AA"/>
</linearGradient>
<linearGradient id="paint16_linear_2396_5808" x1="190.179" y1="122.157" x2="182.243" y2="135.936" gradientUnits="userSpaceOnUse">
<stop offset="0.1" stop-color="#F76DFC"/>
<stop offset="0.75" stop-color="#1288AA"/>
</linearGradient>
<linearGradient id="paint17_linear_2396_5808" x1="177.062" y1="114.529" x2="169.126" y2="128.308" gradientUnits="userSpaceOnUse">
<stop offset="0.1" stop-color="#F76DFC"/>
<stop offset="0.75" stop-color="#1288AA"/>
</linearGradient>
<linearGradient id="paint18_linear_2396_5808" x1="170.999" y1="179.321" x2="158.752" y2="182.353" gradientUnits="userSpaceOnUse">
<stop offset="0.15" stop-color="#10AD74"/>
<stop offset="0.5" stop-color="#1288AA"/>
</linearGradient>
<linearGradient id="paint19_linear_2396_5808" x1="163.929" y1="175.296" x2="151.676" y2="178.315" gradientUnits="userSpaceOnUse">
<stop offset="0.15" stop-color="#10AD74"/>
<stop offset="0.5" stop-color="#1288AA"/>
</linearGradient>
</defs>
</svg>
