<svg width="37" height="36" viewBox="0 0 37 36" fill="none" xmlns="http://www.w3.org/2000/svg">
<path opacity="0.4" fill-rule="evenodd" clip-rule="evenodd" d="M28.9113 7.67916C26.1588 4.92666 22.4973 3.41016 18.5973 3.41016C14.6988 3.41016 11.0343 4.92666 8.28179 7.68066C5.52179 10.4392 4.00379 14.1067 4.00679 18.0052C4.00679 21.9592 6.08279 25.7272 6.83579 26.9632L3.32129 32.5672L4.69079 32.5552C4.77779 32.5552 13.4058 32.4802 18.2808 32.5852C18.3903 32.5867 18.4983 32.5882 18.6063 32.5882C22.5003 32.5882 26.1483 31.0777 28.9113 28.3132C34.5993 22.6237 34.5993 13.3687 28.9113 7.67916Z" fill="#8055BB"/>
<path d="M25.3593 19.6963H22.9623V17.4463H25.3593V19.6963Z" fill="#8055BB"/>
<path d="M19.7583 19.6963H17.3598V17.4463H19.7583V19.6963Z" fill="#8055BB"/>
<path d="M14.1573 19.6963H11.7588V17.4463H14.1573V19.6963Z" fill="#8055BB"/>
</svg>
