<svg width="181" height="37" viewBox="0 0 181 37" fill="none" xmlns="http://www.w3.org/2000/svg">
<g clip-path="url(#clip0_2376_20784)">
<path d="M0.565186 26.3709L6.23733 25.53C7.07147 28.9946 9.30696 30.7437 13.0105 30.7437C16.1469 30.7437 18.4825 29.1291 18.4825 26.9428C18.4825 25.5973 17.5816 24.6891 15.6798 24.1173L8.20589 21.8973C3.86837 20.6191 1.66625 18.0291 1.66625 14.2282C1.69961 9.04822 6.0705 5.61731 12.2765 5.61731C18.4825 5.61731 22.5531 8.67822 23.9544 14.1273L18.0821 15.1364C17.4482 12.2773 15.3461 10.73 12.2098 10.73C9.24023 10.73 7.40512 12.0755 7.40512 13.9928C7.40512 15.4391 8.60628 16.3809 11.3089 17.1546L16.247 18.5C21.6522 19.98 24.2214 22.57 24.2214 26.6064C24.2214 32.0555 19.5168 35.8564 12.6435 35.8564C5.77021 35.8564 1.43269 32.1564 0.565186 26.3709Z" fill="#EE99FF"/>
<path d="M25.0221 13.4545H28.6923V6.18909H34.1309V13.4545H40.3703V18.5336H34.1309V27.7836C34.1309 29.5664 34.9651 30.4073 36.7334 30.4073H40.3703V35.2509H35.6324C31.2281 35.2509 28.659 32.8964 28.659 28.8264V18.5336H24.9888V13.4545H25.0221Z" fill="#EE99FF"/>
<path d="M62.1246 22.5364V35.2509H56.686V32.56C55.318 34.7464 53.1159 35.8564 50.0129 35.8564C45.7087 35.8564 42.8059 33.1991 42.8059 29.23C42.8059 25.0591 45.642 22.57 51.2808 21.8637L56.7193 21.1909C56.5859 18.8028 55.2513 17.6591 52.8489 17.6591C50.4466 17.6591 49.1787 18.4664 48.5114 20.3164L43.5733 18.9373C44.7411 15.0018 48.0443 12.8491 52.8156 12.8491C59.155 12.8491 62.1246 15.9437 62.1246 22.5364ZM52.0482 25.6982C49.4123 26.0346 48.111 27.0437 48.111 28.7591C48.111 30.4746 49.2121 31.3491 51.3475 31.3491C53.6163 31.3491 55.4181 30.1046 56.1521 28.6582C56.6526 27.6155 56.686 26.4046 56.686 25.4291V25.1264L52.0482 25.6982Z" fill="#EE99FF"/>
<path d="M63.7594 13.4545H67.4297V6.18909H72.8682V13.4545H79.1076V18.5336H72.8682V27.7836C72.8682 29.5664 73.7024 30.4073 75.4707 30.4073H79.1076V35.2509H74.3697C69.9654 35.2509 67.3963 32.8964 67.3963 28.8264V18.5336H63.7261V13.4545H63.7594Z" fill="#EE99FF"/>
<path d="M96.3241 28.0526L101.763 29.5326C100.128 33.5353 96.491 35.8226 91.8532 35.8226C85.3135 35.8226 80.9426 31.0462 80.9426 24.3189C80.9426 17.5917 85.4803 12.8153 91.8532 12.8153C98.8599 12.8153 102.63 17.928 101.963 25.8326H86.7816C87.2487 28.9608 89.0505 30.7435 91.8532 30.7435C94.0887 30.7435 95.49 29.8689 96.3241 27.9853V28.0526ZM96.4242 21.7962C96.224 19.2062 94.5224 17.6926 91.8532 17.6926C89.1839 17.6926 87.5824 19.1726 86.9484 21.7962H96.4242Z" fill="#EE99FF"/>
<path d="M105.266 35.2509V6.18909H116.878C123.951 6.18909 127.321 9.75454 127.321 15.7755C127.321 21.7964 123.951 25.3618 116.878 25.3618H110.772V35.2173H105.3L105.266 35.2509ZM110.738 20.2827H116.811C120.081 20.2827 121.816 18.7355 121.816 15.8091C121.816 12.8827 120.081 11.3355 116.811 11.3355H110.738V20.2827Z" fill="#EE99FF"/>
<path d="M130.524 10.4273V5.58362H135.963V10.4273H130.524ZM130.524 35.2509V13.4545H135.963V35.2509H130.524Z" fill="#EE99FF"/>
<path d="M138.365 35.2509L146.072 24.2518L138.498 13.4882H144.904L149.242 19.9463L153.479 13.4882H159.886L152.312 24.2518L160.086 35.2509H153.68L149.242 28.5572L144.771 35.2509H138.365Z" fill="#EE99FF"/>
<path d="M164.991 22.0989C163.456 21.1907 162.255 19.9798 161.354 18.4326C160.453 16.8853 160.019 15.2371 160.019 13.3871C160.019 11.5371 160.453 9.88893 161.354 8.34165C162.255 6.79438 163.456 5.58347 164.991 4.67529C166.526 3.76711 168.16 3.32983 169.996 3.32983C171.831 3.32983 173.466 3.76711 175 4.67529C176.535 5.58347 177.736 6.79438 178.637 8.34165C179.538 9.88893 179.972 11.5371 179.972 13.3871C179.972 15.2371 179.538 16.8853 178.637 18.4326C177.736 19.9798 176.535 21.1907 175 22.0989C173.466 23.0071 171.831 23.4444 169.996 23.4444C168.16 23.4444 166.526 23.0071 164.991 22.0989ZM173.499 19.5089C174.567 18.9035 175.434 18.0289 176.068 16.9526C176.702 15.8762 177.002 14.6989 177.002 13.4207C177.002 12.1426 176.702 10.9653 176.068 9.88893C175.434 8.81256 174.6 7.93802 173.499 7.33256C172.431 6.69347 171.263 6.39074 169.996 6.39074C168.728 6.39074 167.56 6.69347 166.492 7.33256C165.424 7.97165 164.557 8.81256 163.956 9.88893C163.322 10.9653 163.022 12.1426 163.022 13.4207C163.022 14.6989 163.322 15.8762 163.956 16.9526C164.59 18.0289 165.424 18.9035 166.492 19.5089C167.56 20.148 168.728 20.4507 169.996 20.4507C171.263 20.4507 172.431 20.148 173.499 19.5089ZM166.659 16.8517C165.858 15.8426 165.491 14.6989 165.491 13.3871C165.491 12.0753 165.892 10.898 166.659 9.9562C167.56 8.87983 168.661 8.37529 170.329 8.37529C171.263 8.37529 171.931 8.54347 172.698 9.01438C173.632 9.55256 174.233 10.4271 174.5 11.5371L172.131 12.1762C171.998 11.7389 171.797 11.3689 171.43 11.0662C171.097 10.7635 170.696 10.6289 170.229 10.6289C169.528 10.6289 168.995 10.898 168.594 11.4362C168.194 11.9407 168.06 12.6135 168.06 13.4207C168.06 14.1944 168.227 14.8671 168.594 15.4053C168.961 15.9435 169.528 16.2126 170.263 16.2126C170.796 16.2126 171.197 16.078 171.464 15.8089C171.764 15.5062 171.931 15.2371 172.064 14.7998L174.5 15.3044C174.233 16.2462 173.699 17.0871 172.965 17.6589C172.231 18.2307 171.43 18.4998 170.229 18.4998C168.628 18.4998 167.56 18.0289 166.692 16.9189L166.659 16.8517Z" fill="#EE99FF"/>
</g>
<defs>
<clipPath id="clip0_2376_20784">
<rect width="180.174" height="37" fill="white" transform="translate(0.565186)"/>
</clipPath>
</defs>
</svg>
