<svg width="210" height="44" viewBox="0 0 210 44" fill="none" xmlns="http://www.w3.org/2000/svg">
<g clip-path="url(#clip0_2216_711)">
<path fill-rule="evenodd" clip-rule="evenodd" d="M19.4169 -0.000488281L-0.000244141 11.4246V24.2683H11.6874L-0.000244141 31.1453V43.9998H12.8435L32.2715 32.5748V19.7202H20.5773L32.2715 12.8432V-0.000488281H19.4169Z" fill="url(#paint0_linear_2216_711)"/>
<path fill-rule="evenodd" clip-rule="evenodd" d="M19.4169 -0.000488281L-0.000244141 11.4246V24.2683H11.6874L-0.000244141 31.1453V43.9998H12.8435L32.2715 32.5748V19.7202H20.5773L32.2715 12.8432V-0.000488281H19.4169Z" fill="url(#paint1_linear_2216_711)"/>
<path d="M32.2607 -0.000488281H19.417V12.8432H32.2607V-0.000488281Z" fill="#251725"/>
<path d="M121.463 32.4879C120.304 32.5528 119.34 32.5637 118.56 32.5312C117.781 32.4662 117.185 32.2496 116.784 31.8814C116.384 31.5024 116.178 30.9176 116.178 30.1054V20.3806H121.463V14.576H116.178V8.02417L110.146 11.5871V30.1054C110.146 33.3217 110.991 35.5418 112.669 36.798C114.38 38.0434 117.315 38.4332 121.463 37.9676V32.4987V32.4879Z" fill="#251725"/>
<path d="M74.4089 8.02417L68.377 11.5762V30.1054C68.377 33.3217 69.2217 35.5418 70.9002 36.798C72.6113 38.0434 75.546 38.4332 79.6937 37.9676V32.4987C78.535 32.5637 77.5711 32.5745 76.7914 32.542C76.0117 32.477 75.4161 32.2605 75.0154 31.8923C74.6147 31.5132 74.4089 30.9284 74.4089 30.1162V20.3914H79.6937V14.5868H74.4089V8.035V8.02417Z" fill="#251725"/>
<path d="M100.67 17.3368C98.8616 15.0626 96.3167 13.9255 93.0462 13.9255C89.7757 13.9255 87.2416 15.1276 84.9999 17.5317C82.7907 19.9034 81.6753 22.8165 81.6753 26.2819C81.6753 29.7473 82.7799 32.6713 84.9999 35.0754C87.2416 37.4471 89.9273 38.6275 93.0462 38.6275C96.3167 38.6275 98.8616 37.4904 100.67 35.2162V37.9777H106.702V14.5753H100.67V17.3368ZM98.7966 31.0469C97.5837 32.2598 96.0351 32.8662 94.1616 32.8662C92.2881 32.8662 90.7504 32.2598 89.5266 31.0469C88.3137 29.8015 87.7073 28.2096 87.7073 26.2711C87.7073 24.3326 88.3137 22.7624 89.5266 21.5495C90.7395 20.3041 92.2881 19.676 94.1616 19.676C96.0351 19.676 97.5729 20.3041 98.7966 21.5495C100.042 22.7624 100.67 24.3435 100.67 26.2711C100.67 28.1987 100.042 29.7907 98.7966 31.0469Z" fill="#251725"/>
<path d="M64.8466 24.1174C64.5325 23.5542 64.0668 23.0128 63.4387 22.4821C62.8106 21.9515 62.2583 21.5291 61.7602 21.2151C61.2945 20.901 60.6014 20.5761 59.7026 20.2296C58.8254 19.8506 58.1323 19.5907 57.6017 19.439C57.1035 19.2549 56.3563 19.0059 55.36 18.6918C52.9233 17.9446 51.2773 17.2623 50.4001 16.6342C49.5554 15.9845 49.133 15.1398 49.133 14.111C49.133 13.1471 49.5121 12.3674 50.2593 11.7718C51.039 11.1437 52.1003 10.8405 53.4432 10.8405C56.313 10.8405 58.403 12.2483 59.7134 15.0531L65.139 11.9234C64.0127 9.61674 62.4424 7.81906 60.4173 6.54118C58.4247 5.23082 56.0964 4.58105 53.4432 4.58105C50.4759 4.58105 47.9418 5.46907 45.8192 7.2451C43.7292 8.98864 42.6895 11.3495 42.6895 14.3059C42.6895 15.8004 42.9494 17.1107 43.4801 18.237C44.0107 19.3632 44.7688 20.2946 45.7759 21.0418C46.8047 21.7565 47.8227 22.3413 48.819 22.7745C49.8478 23.2077 51.0932 23.6517 52.566 24.0849C55.2192 24.8321 57.0602 25.536 58.089 26.1858C59.1178 26.8139 59.6376 27.7019 59.6376 28.8498C59.6376 29.8461 59.2153 30.6692 58.3706 31.3298C57.5259 31.9795 56.2047 32.3152 54.3962 32.3152C50.6492 32.3152 48.1476 30.6475 46.8697 27.312L41.3467 30.5392C42.2564 33.03 43.805 35.0118 46.025 36.4846C48.2342 37.9141 50.9632 38.6396 54.2121 38.6396C57.7316 38.6396 60.5906 37.7516 62.7673 35.9756C64.9765 34.1996 66.0919 31.7954 66.0919 28.774C66.0919 27.8427 65.962 26.9763 65.7129 26.1966C65.4963 25.3844 65.2148 24.7022 64.8682 24.139L64.8466 24.1174Z" fill="#251725"/>
<path d="M182.66 14.5769H176.628V37.9685H182.66V14.5769Z" fill="#251725"/>
<path d="M200.561 25.9911L208.737 14.5769H201.817L197.095 21.172L192.374 14.5769H185.399L193.586 26.0344L185.031 37.9685H191.995L197.095 30.8535L202.142 37.9685H209.116L200.561 25.9911Z" fill="#251725"/>
<path d="M170.888 8.40358C168.733 6.28101 166.091 5.21973 162.939 5.21973H150.735V37.9571H157.189V27.2035H162.939C166.091 27.2035 168.744 26.1422 170.888 24.0196C173.043 21.8971 174.115 19.298 174.115 16.2116C174.115 13.1252 173.043 10.5153 170.888 8.40358ZM166.329 19.7745C165.419 20.7058 164.282 21.1823 162.918 21.1823H157.167V11.2626H162.918C164.293 11.2626 165.43 11.7282 166.329 12.6704C167.239 13.6017 167.683 14.7929 167.683 16.2224C167.683 17.6519 167.228 18.8107 166.329 19.7745Z" fill="#251725"/>
<path d="M141.606 30.8086C140.425 32.3681 138.671 33.1478 136.364 33.1478C132.78 33.1478 130.581 31.6858 129.769 28.751H147.4C147.551 27.8738 147.638 27.0508 147.638 26.2711C147.638 22.7732 146.512 19.8492 144.27 17.4776C142.061 15.1059 139.234 13.9255 135.801 13.9255C132.184 13.9255 129.217 15.1059 126.91 17.4776C124.604 19.8168 123.445 22.7515 123.445 26.2711C123.445 29.7907 124.614 32.7688 126.954 35.1079C129.293 37.4471 132.39 38.6166 136.267 38.6166C140.761 38.6166 144.162 36.9489 146.468 33.6135L141.606 30.8086ZM131.783 20.6073C132.845 19.7626 134.188 19.3403 135.801 19.3403C137.177 19.3403 138.389 19.7301 139.451 20.5098C140.545 21.2896 141.259 22.47 141.606 24.0619H129.683C130.029 22.5674 130.722 21.4087 131.783 20.5965V20.6073Z" fill="#251725"/>
<path d="M182.66 5.49097H176.628V11.523H182.66V5.49097Z" fill="#251725"/>
</g>
<defs>
<linearGradient id="paint0_linear_2216_711" x1="-5.9635" y1="16.9436" x2="36.1543" y2="25.9594" gradientUnits="userSpaceOnUse">
<stop stop-color="#DF87F1"/>
<stop offset="1" stop-color="#219F70"/>
</linearGradient>
<linearGradient id="paint1_linear_2216_711" x1="32.5988" y1="-0.000489148" x2="12.9976" y2="49.1803" gradientUnits="userSpaceOnUse">
<stop offset="0.2" stop-color="#DF87F1"/>
<stop offset="0.8" stop-color="#219F70"/>
</linearGradient>
<clipPath id="clip0_2216_711">
<rect width="209.116" height="44" fill="white"/>
</clipPath>
</defs>
</svg>
