<svg width="481" height="348" viewBox="0 0 481 348" fill="none" xmlns="http://www.w3.org/2000/svg">
<path d="M164.537 13L162.01 9.171H159.483V13H158.447V2.92H162.185C164.285 2.92 165.51 4.124 165.51 6.049C165.51 7.645 164.656 8.751 163.158 9.073L165.741 13H164.537ZM159.483 3.907V8.191H162.178C163.606 8.191 164.453 7.386 164.453 6.049C164.453 4.705 163.606 3.907 162.178 3.907H159.483ZM170.478 12.237C171.605 12.237 172.347 11.705 172.795 10.781L173.768 11.138C173.166 12.468 171.983 13.21 170.478 13.21C168.287 13.21 166.859 11.649 166.859 9.22C166.859 6.777 168.259 5.23 170.436 5.23C172.704 5.23 173.992 6.847 173.915 9.507H167.958C168.056 11.229 168.994 12.237 170.478 12.237ZM167.979 8.646H172.83C172.704 7.064 171.85 6.182 170.436 6.182C169.036 6.182 168.147 7.085 167.979 8.646ZM182.146 5.44V16.36H181.117V11.733C180.627 12.657 179.766 13.21 178.492 13.21C176.364 13.21 175.048 11.593 175.048 9.213C175.048 6.875 176.343 5.23 178.492 5.23C179.759 5.23 180.62 5.783 181.117 6.707V5.44H182.146ZM178.632 12.223C180.27 12.223 181.117 11.033 181.117 9.213C181.117 7.449 180.326 6.217 178.632 6.217C176.973 6.217 176.14 7.393 176.14 9.213C176.14 10.998 176.959 12.223 178.632 12.223ZM184.991 5.44V9.591C184.991 11.467 185.88 12.223 187.189 12.223C188.484 12.223 189.429 11.474 189.429 9.591V5.44H190.451V13H189.429V11.873C189.079 12.545 188.386 13.21 187.007 13.21C185.187 13.21 183.969 12.125 183.969 9.731V5.44H184.991ZM195.62 12.237C196.747 12.237 197.489 11.705 197.937 10.781L198.91 11.138C198.308 12.468 197.125 13.21 195.62 13.21C193.429 13.21 192.001 11.649 192.001 9.22C192.001 6.777 193.401 5.23 195.578 5.23C197.846 5.23 199.134 6.847 199.057 9.507H193.1C193.198 11.229 194.136 12.237 195.62 12.237ZM193.121 8.646H197.972C197.846 7.064 196.992 6.182 195.578 6.182C194.178 6.182 193.289 7.085 193.121 8.646ZM203.439 13.203C201.682 13.203 200.555 12.475 200.191 11.033L201.255 10.844C201.528 11.796 202.277 12.265 203.453 12.265C204.636 12.265 205.35 11.775 205.35 10.935C205.35 10.494 205.168 10.186 204.538 9.934C204.258 9.822 203.775 9.675 203.194 9.521C201.759 9.136 200.422 8.716 200.422 7.344C200.422 6.105 201.619 5.23 203.327 5.23C204.993 5.23 206.204 6.105 206.4 7.435L205.35 7.624C205.21 6.714 204.426 6.168 203.278 6.168C202.256 6.168 201.465 6.651 201.465 7.323C201.465 8.114 202.543 8.352 203.32 8.562C203.838 8.702 204.384 8.877 204.832 9.038C205.959 9.437 206.414 10.011 206.414 10.914C206.414 12.335 205.28 13.203 203.439 13.203ZM207.126 6.42V5.44H208.743V2.913H209.765V5.44H212.082V6.42H209.765V10.851C209.765 11.719 210.087 12.048 210.948 12.048H212.082V13H210.675C209.471 13 208.743 12.293 208.743 11.131V6.42H207.126ZM219.203 13.203C217.446 13.203 216.319 12.475 215.955 11.033L217.019 10.844C217.292 11.796 218.041 12.265 219.217 12.265C220.4 12.265 221.114 11.775 221.114 10.935C221.114 10.494 220.932 10.186 220.302 9.934C220.022 9.822 219.539 9.675 218.958 9.521C217.523 9.136 216.186 8.716 216.186 7.344C216.186 6.105 217.383 5.23 219.091 5.23C220.757 5.23 221.968 6.105 222.164 7.435L221.114 7.624C220.974 6.714 220.19 6.168 219.042 6.168C218.02 6.168 217.229 6.651 217.229 7.323C217.229 8.114 218.307 8.352 219.084 8.562C219.602 8.702 220.148 8.877 220.596 9.038C221.723 9.437 222.178 10.011 222.178 10.914C222.178 12.335 221.044 13.203 219.203 13.203ZM226.929 12.237C228.056 12.237 228.798 11.705 229.246 10.781L230.219 11.138C229.617 12.468 228.434 13.21 226.929 13.21C224.738 13.21 223.31 11.649 223.31 9.22C223.31 6.777 224.71 5.23 226.887 5.23C229.155 5.23 230.443 6.847 230.366 9.507H224.409C224.507 11.229 225.445 12.237 226.929 12.237ZM224.43 8.646H229.281C229.155 7.064 228.301 6.182 226.887 6.182C225.487 6.182 224.598 7.085 224.43 8.646ZM235.055 13.21C232.836 13.21 231.499 11.635 231.499 9.22C231.499 6.784 232.85 5.23 235.062 5.23C236.595 5.23 237.806 6.035 238.226 7.323L237.218 7.645C236.861 6.749 236.049 6.217 235.055 6.217C233.459 6.217 232.591 7.365 232.591 9.22C232.591 11.033 233.431 12.223 235.055 12.223C236.098 12.223 236.812 11.733 237.19 10.837L238.226 11.145C237.659 12.489 236.553 13.21 235.055 13.21ZM242.623 13.21C240.376 13.21 239.046 11.565 239.046 9.213C239.046 6.84 240.411 5.23 242.623 5.23C244.884 5.23 246.207 6.868 246.207 9.213C246.207 11.593 244.863 13.21 242.623 13.21ZM242.623 12.223C244.275 12.223 245.115 11.026 245.115 9.213C245.115 7.372 244.268 6.217 242.623 6.217C240.957 6.217 240.138 7.414 240.138 9.213C240.138 11.054 240.999 12.223 242.623 12.223ZM253.204 13V8.849C253.204 6.973 252.322 6.217 251.013 6.217C249.718 6.217 248.773 6.966 248.773 8.849V13H247.744V5.44H248.773V6.567C249.116 5.895 249.809 5.23 251.188 5.23C253.008 5.23 254.233 6.315 254.233 8.709V13H253.204ZM261.706 2.92H262.728V13H261.706V11.733C261.209 12.657 260.348 13.21 259.074 13.21C256.932 13.21 255.63 11.565 255.63 9.227C255.63 6.847 256.946 5.23 259.074 5.23C260.355 5.23 261.209 5.79 261.706 6.707V2.92ZM259.214 6.217C257.541 6.217 256.722 7.442 256.722 9.227C256.722 11.047 257.555 12.223 259.214 12.223C260.908 12.223 261.706 10.991 261.706 9.227C261.706 7.407 260.852 6.217 259.214 6.217ZM268.243 6.42H266.934V5.44H268.243V4.754C268.243 3.389 268.922 2.71 270.287 2.71H271.337V3.578H270.455C269.594 3.578 269.272 3.914 269.272 4.817V5.44H271.337V6.42H269.272V13H268.243V6.42ZM275.198 5.23C277.214 5.23 278.208 6.273 278.208 8.373V13H277.186V11.726C276.647 12.692 275.702 13.21 274.442 13.21C272.825 13.21 271.831 12.377 271.831 11.019C271.831 9.43 273.056 8.821 274.911 8.59L277.186 8.303C277.186 6.819 276.563 6.175 275.184 6.175C274.036 6.175 273.35 6.637 273.091 7.596L272.118 7.365C272.475 5.986 273.567 5.23 275.198 5.23ZM277.186 9.157L275.009 9.423C273.469 9.619 272.853 10.06 272.853 10.963C272.853 11.838 273.455 12.293 274.624 12.293C275.933 12.293 276.85 11.537 277.088 10.333C277.179 9.955 277.186 9.493 277.186 9.157ZM283.167 13.21C280.948 13.21 279.611 11.635 279.611 9.22C279.611 6.784 280.962 5.23 283.174 5.23C284.707 5.23 285.918 6.035 286.338 7.323L285.33 7.645C284.973 6.749 284.161 6.217 283.167 6.217C281.571 6.217 280.703 7.365 280.703 9.22C280.703 11.033 281.543 12.223 283.167 12.223C284.21 12.223 284.924 11.733 285.302 10.837L286.338 11.145C285.771 12.489 284.665 13.21 283.167 13.21ZM286.943 6.42V5.44H288.56V2.913H289.582V5.44H291.899V6.42H289.582V10.851C289.582 11.719 289.904 12.048 290.765 12.048H291.899V13H290.492C289.288 13 288.56 12.293 288.56 11.131V6.42H286.943ZM296.34 13.21C294.093 13.21 292.763 11.565 292.763 9.213C292.763 6.84 294.128 5.23 296.34 5.23C298.601 5.23 299.924 6.868 299.924 9.213C299.924 11.593 298.58 13.21 296.34 13.21ZM296.34 12.223C297.992 12.223 298.832 11.026 298.832 9.213C298.832 7.372 297.985 6.217 296.34 6.217C294.674 6.217 293.855 7.414 293.855 9.213C293.855 11.054 294.716 12.223 296.34 12.223ZM305.185 5.237V6.245C305.052 6.217 304.905 6.217 304.73 6.217C303.435 6.217 302.49 6.966 302.49 8.849V13H301.461V5.44H302.49V6.567C302.84 5.895 303.526 5.23 304.905 5.23C305.003 5.23 305.087 5.23 305.185 5.237Z" fill="#2D3748"/>
<path d="M105.365 97H104.336V86.92H110.545V87.907H105.365V91.701H109.663V92.688H105.365V97ZM112.97 88.005H111.941V86.85H112.97V88.005ZM112.97 97H111.941V89.44H112.97V97ZM118.786 89.237V90.245C118.653 90.217 118.506 90.217 118.331 90.217C117.036 90.217 116.091 90.966 116.091 92.849V97H115.062V89.44H116.091V90.567C116.441 89.895 117.127 89.23 118.506 89.23C118.604 89.23 118.688 89.23 118.786 89.237ZM122.668 97.203C120.911 97.203 119.784 96.475 119.42 95.033L120.484 94.844C120.757 95.796 121.506 96.265 122.682 96.265C123.865 96.265 124.579 95.775 124.579 94.935C124.579 94.494 124.397 94.186 123.767 93.934C123.487 93.822 123.004 93.675 122.423 93.521C120.988 93.136 119.651 92.716 119.651 91.344C119.651 90.105 120.848 89.23 122.556 89.23C124.222 89.23 125.433 90.105 125.629 91.435L124.579 91.624C124.439 90.714 123.655 90.168 122.507 90.168C121.485 90.168 120.694 90.651 120.694 91.323C120.694 92.114 121.772 92.352 122.549 92.562C123.067 92.702 123.613 92.877 124.061 93.038C125.188 93.437 125.643 94.011 125.643 94.914C125.643 96.335 124.509 97.203 122.668 97.203ZM126.356 90.42V89.44H127.973V86.913H128.995V89.44H131.312V90.42H128.995V94.851C128.995 95.719 129.317 96.048 130.178 96.048H131.312V97H129.905C128.701 97 127.973 96.293 127.973 95.131V90.42H126.356ZM136.353 90.42H135.044V89.44H136.353V88.754C136.353 87.389 137.032 86.71 138.397 86.71H139.447V87.578H138.565C137.704 87.578 137.382 87.914 137.382 88.817V89.44H139.447V90.42H137.382V97H136.353V90.42ZM143.309 89.23C145.325 89.23 146.319 90.273 146.319 92.373V97H145.297V95.726C144.758 96.692 143.813 97.21 142.553 97.21C140.936 97.21 139.942 96.377 139.942 95.019C139.942 93.43 141.167 92.821 143.022 92.59L145.297 92.303C145.297 90.819 144.674 90.175 143.295 90.175C142.147 90.175 141.461 90.637 141.202 91.596L140.229 91.365C140.586 89.986 141.678 89.23 143.309 89.23ZM145.297 93.157L143.12 93.423C141.58 93.619 140.964 94.06 140.964 94.963C140.964 95.838 141.566 96.293 142.735 96.293C144.044 96.293 144.961 95.537 145.199 94.333C145.29 93.955 145.297 93.493 145.297 93.157ZM151.277 97.21C149.058 97.21 147.721 95.635 147.721 93.22C147.721 90.784 149.072 89.23 151.284 89.23C152.817 89.23 154.028 90.035 154.448 91.323L153.44 91.645C153.083 90.749 152.271 90.217 151.277 90.217C149.681 90.217 148.813 91.365 148.813 93.22C148.813 95.033 149.653 96.223 151.277 96.223C152.32 96.223 153.034 95.733 153.412 94.837L154.448 95.145C153.881 96.489 152.775 97.21 151.277 97.21ZM155.053 90.42V89.44H156.67V86.913H157.692V89.44H160.009V90.42H157.692V94.851C157.692 95.719 158.014 96.048 158.875 96.048H160.009V97H158.602C157.398 97 156.67 96.293 156.67 95.131V90.42H155.053ZM164.45 97.21C162.203 97.21 160.873 95.565 160.873 93.213C160.873 90.84 162.238 89.23 164.45 89.23C166.711 89.23 168.034 90.868 168.034 93.213C168.034 95.593 166.69 97.21 164.45 97.21ZM164.45 96.223C166.102 96.223 166.942 95.026 166.942 93.213C166.942 91.372 166.095 90.217 164.45 90.217C162.784 90.217 161.965 91.414 161.965 93.213C161.965 95.054 162.826 96.223 164.45 96.223ZM173.296 89.237V90.245C173.163 90.217 173.016 90.217 172.841 90.217C171.546 90.217 170.601 90.966 170.601 92.849V97H169.572V89.44H170.601V90.567C170.951 89.895 171.637 89.23 173.016 89.23C173.114 89.23 173.198 89.23 173.296 89.237Z" fill="#2D3748"/>
<path d="M223.775 190.21C221.654 190.21 220.107 189.09 219.764 187.305L220.814 187.13C221.157 188.453 222.256 189.223 223.817 189.223C225.357 189.223 226.407 188.439 226.407 187.284C226.407 186.514 225.896 185.968 224.86 185.66L222.305 184.897C220.877 184.477 220.156 183.658 220.156 182.475C220.156 180.844 221.563 179.717 223.586 179.717C225.609 179.717 227.072 180.844 227.401 182.657L226.323 182.853C226.12 181.544 225.042 180.697 223.572 180.697C222.172 180.697 221.241 181.453 221.241 182.44C221.241 183.217 221.738 183.651 223.04 184.036L225.007 184.61C226.624 185.079 227.457 185.968 227.457 187.249C227.457 189.034 225.994 190.21 223.775 190.21ZM232.101 189.237C233.228 189.237 233.97 188.705 234.418 187.781L235.391 188.138C234.789 189.468 233.606 190.21 232.101 190.21C229.91 190.21 228.482 188.649 228.482 186.22C228.482 183.777 229.882 182.23 232.059 182.23C234.327 182.23 235.615 183.847 235.538 186.507H229.581C229.679 188.229 230.617 189.237 232.101 189.237ZM229.602 185.646H234.453C234.327 184.064 233.473 183.182 232.059 183.182C230.659 183.182 229.77 184.085 229.602 185.646ZM240.227 190.21C238.008 190.21 236.671 188.635 236.671 186.22C236.671 183.784 238.022 182.23 240.234 182.23C241.767 182.23 242.978 183.035 243.398 184.323L242.39 184.645C242.033 183.749 241.221 183.217 240.227 183.217C238.631 183.217 237.763 184.365 237.763 186.22C237.763 188.033 238.603 189.223 240.227 189.223C241.27 189.223 241.984 188.733 242.362 187.837L243.398 188.145C242.831 189.489 241.725 190.21 240.227 190.21ZM247.795 190.21C245.548 190.21 244.218 188.565 244.218 186.213C244.218 183.84 245.583 182.23 247.795 182.23C250.056 182.23 251.379 183.868 251.379 186.213C251.379 188.593 250.035 190.21 247.795 190.21ZM247.795 189.223C249.447 189.223 250.287 188.026 250.287 186.213C250.287 184.372 249.44 183.217 247.795 183.217C246.129 183.217 245.31 184.414 245.31 186.213C245.31 188.054 246.171 189.223 247.795 189.223ZM258.376 190V185.849C258.376 183.973 257.494 183.217 256.185 183.217C254.89 183.217 253.945 183.966 253.945 185.849V190H252.916V182.44H253.945V183.567C254.288 182.895 254.981 182.23 256.36 182.23C258.18 182.23 259.405 183.315 259.405 185.709V190H258.376ZM266.878 179.92H267.9V190H266.878V188.733C266.381 189.657 265.52 190.21 264.246 190.21C262.104 190.21 260.802 188.565 260.802 186.227C260.802 183.847 262.118 182.23 264.246 182.23C265.527 182.23 266.381 182.79 266.878 183.707V179.92ZM264.386 183.217C262.713 183.217 261.894 184.442 261.894 186.227C261.894 188.047 262.727 189.223 264.386 189.223C266.08 189.223 266.878 187.991 266.878 186.227C266.878 184.407 266.024 183.217 264.386 183.217ZM273.415 183.42H272.106V182.44H273.415V181.754C273.415 180.389 274.094 179.71 275.459 179.71H276.509V180.578H275.627C274.766 180.578 274.444 180.914 274.444 181.817V182.44H276.509V183.42H274.444V190H273.415V183.42ZM280.37 182.23C282.386 182.23 283.38 183.273 283.38 185.373V190H282.358V188.726C281.819 189.692 280.874 190.21 279.614 190.21C277.997 190.21 277.003 189.377 277.003 188.019C277.003 186.43 278.228 185.821 280.083 185.59L282.358 185.303C282.358 183.819 281.735 183.175 280.356 183.175C279.208 183.175 278.522 183.637 278.263 184.596L277.29 184.365C277.647 182.986 278.739 182.23 280.37 182.23ZM282.358 186.157L280.181 186.423C278.641 186.619 278.025 187.06 278.025 187.963C278.025 188.838 278.627 189.293 279.796 189.293C281.105 189.293 282.022 188.537 282.26 187.333C282.351 186.955 282.358 186.493 282.358 186.157ZM288.339 190.21C286.12 190.21 284.783 188.635 284.783 186.22C284.783 183.784 286.134 182.23 288.346 182.23C289.879 182.23 291.09 183.035 291.51 184.323L290.502 184.645C290.145 183.749 289.333 183.217 288.339 183.217C286.743 183.217 285.875 184.365 285.875 186.22C285.875 188.033 286.715 189.223 288.339 189.223C289.382 189.223 290.096 188.733 290.474 187.837L291.51 188.145C290.943 189.489 289.837 190.21 288.339 190.21ZM292.115 183.42V182.44H293.732V179.913H294.754V182.44H297.071V183.42H294.754V187.851C294.754 188.719 295.076 189.048 295.937 189.048H297.071V190H295.664C294.46 190 293.732 189.293 293.732 188.131V183.42H292.115ZM301.512 190.21C299.265 190.21 297.935 188.565 297.935 186.213C297.935 183.84 299.3 182.23 301.512 182.23C303.773 182.23 305.096 183.868 305.096 186.213C305.096 188.593 303.752 190.21 301.512 190.21ZM301.512 189.223C303.164 189.223 304.004 188.026 304.004 186.213C304.004 184.372 303.157 183.217 301.512 183.217C299.846 183.217 299.027 184.414 299.027 186.213C299.027 188.054 299.888 189.223 301.512 189.223ZM310.357 182.237V183.245C310.224 183.217 310.077 183.217 309.902 183.217C308.607 183.217 307.662 183.966 307.662 185.849V190H306.633V182.44H307.662V183.567C308.012 182.895 308.698 182.23 310.077 182.23C310.175 182.23 310.259 182.23 310.357 182.237Z" fill="#2D3748"/>
<path d="M362.354 108.353C362.549 108.157 362.549 107.841 362.354 107.645L359.172 104.464C358.976 104.268 358.66 104.268 358.464 104.464C358.269 104.659 358.269 104.975 358.464 105.171L361.293 107.999L358.464 110.827C358.269 111.023 358.269 111.339 358.464 111.535C358.66 111.73 358.976 111.73 359.172 111.535L362.354 108.353ZM92 108.499L362 108.499L362 107.499L92 107.499L92 108.499Z" fill="#2D3748"/>
<path d="M421.646 229.354C421.842 229.549 422.158 229.549 422.354 229.354L425.536 226.172C425.731 225.976 425.731 225.66 425.536 225.464C425.34 225.269 425.024 225.269 424.828 225.464L422 228.293L419.172 225.464C418.976 225.269 418.66 225.269 418.464 225.464C418.269 225.66 418.269 225.976 418.464 226.172L421.646 229.354ZM421.5 180L421.5 229L422.5 229L422.5 180L421.5 180Z" fill="#2D3748"/>
<path d="M219 200.999L306.5 200.999C312.023 200.999 316.5 196.522 316.5 190.999L316.5 107.999" stroke="#2D3748"/>
<path d="M40 190.999L39.5 190.999L40 190.999ZM50 200.999L50 201.499L50 200.999ZM110.354 201.352C110.549 201.157 110.549 200.84 110.354 200.645L107.172 197.463C106.976 197.268 106.66 197.268 106.464 197.463C106.269 197.659 106.269 197.975 106.464 198.17L109.293 200.999L106.464 203.827C106.269 204.022 106.269 204.339 106.464 204.534C106.66 204.73 106.976 204.73 107.172 204.534L110.354 201.352ZM39.5 180L39.5 190.999L40.5 190.999L40.5 180L39.5 180ZM50 201.499L110 201.499L110 200.499L50 200.499L50 201.499ZM39.5 190.999C39.5 196.798 44.201 201.499 50 201.499L50 200.499C44.7533 200.499 40.5 196.245 40.5 190.999L39.5 190.999Z" fill="#2D3748"/>
<path d="M39.6465 61.3525C39.8417 61.5478 40.1583 61.5478 40.3535 61.3525L43.5355 58.1706C43.7308 57.9753 43.7308 57.6587 43.5355 57.4635C43.3403 57.2682 43.0237 57.2682 42.8284 57.4635L40 60.2919L37.1716 57.4635C36.9763 57.2682 36.6597 57.2682 36.4645 57.4635C36.2692 57.6587 36.2692 57.9753 36.4645 58.1706L39.6465 61.3525ZM422 34.999L422.5 34.999L422 34.999ZM412 24.999L412 24.499L412 24.999ZM50 24.999L50 25.499L50 24.999ZM39.5 34.999L39.5 60.999L40.5 60.999L40.5 34.999L39.5 34.999ZM422.5 60.999L422.5 34.999L421.5 34.999L421.5 60.999H422.5ZM412 24.499L50 24.499L50 25.499L412 25.499L412 24.499ZM422.5 34.999C422.5 29.2 417.799 24.499 412 24.499L412 25.499C417.247 25.499 421.5 29.7523 421.5 34.999L422.5 34.999ZM40.5 34.999C40.5 29.7523 44.7533 25.499 50 25.499L50 24.499C44.201 24.499 39.5 29.2 39.5 34.999L40.5 34.999Z" fill="#2D3748"/>
<path d="M369.125 159.479L372.933 170.999H370.901L370.085 168.503H365.589L364.773 170.999H362.741L366.557 159.479H369.125ZM366.173 166.703H369.501L367.837 161.591L366.173 166.703ZM376.083 162.359V167.111C376.083 168.583 376.803 169.431 378.107 169.431C379.403 169.431 380.139 168.599 380.139 167.111V162.359H382.059V170.999H380.139V169.871C379.707 170.655 378.939 171.239 377.595 171.239C375.539 171.239 374.163 170.071 374.163 167.519V162.359H376.083ZM383.348 164.151V162.359H384.916V159.479H386.836V162.359H389.372V164.151H386.836V168.167C386.836 168.943 387.18 169.287 387.956 169.287H389.372V170.999H387.556C385.892 170.999 384.916 170.095 384.916 168.559V164.151H383.348ZM397.189 170.999V166.239C397.189 164.767 396.477 163.927 395.173 163.927C393.877 163.927 393.141 164.759 393.141 166.239V170.999H391.213V159.479H393.141V163.487C393.565 162.703 394.341 162.119 395.677 162.119C397.741 162.119 399.117 163.287 399.117 165.839V170.999H397.189ZM405.03 169.463C406.014 169.463 406.654 169.047 407.038 168.231L408.942 168.775C408.278 170.343 406.854 171.239 405.03 171.239C402.446 171.239 400.718 169.375 400.718 166.679C400.718 163.951 402.478 162.119 405.014 162.119C407.766 162.119 409.262 164.103 409.038 167.215H402.79C402.958 168.639 403.766 169.463 405.03 169.463ZM402.838 165.759H407.078C406.982 164.543 406.222 163.831 405.014 163.831C403.846 163.831 403.078 164.535 402.838 165.759ZM416.549 170.999V166.239C416.549 164.767 415.837 163.927 414.533 163.927C413.229 163.927 412.501 164.759 412.501 166.239V170.999H410.573V162.359H412.501V163.487C412.925 162.703 413.701 162.119 415.037 162.119C417.101 162.119 418.477 163.287 418.477 165.839V170.999H416.549ZM419.598 164.151V162.359H421.166V159.479H423.086V162.359H425.622V164.151H423.086V168.167C423.086 168.943 423.43 169.287 424.206 169.287H425.622V170.999H423.806C422.142 170.999 421.166 170.095 421.166 168.559V164.151H419.598ZM429.567 161.047H427.639V159.279H429.567V161.047ZM429.567 170.999H427.639V162.359H429.567V170.999ZM435.716 171.239C433.068 171.239 431.484 169.311 431.484 166.679C431.484 164.015 433.132 162.119 435.74 162.119C437.708 162.119 439.156 163.175 439.564 164.879L437.644 165.399C437.348 164.471 436.604 163.927 435.716 163.927C434.228 163.927 433.524 165.071 433.524 166.679C433.524 168.327 434.268 169.431 435.716 169.431C436.748 169.431 437.3 168.943 437.596 168.063L439.564 168.503C439.028 170.263 437.644 171.239 435.716 171.239ZM444.647 162.119C447.119 162.119 448.303 163.343 448.303 165.895V170.999H446.383V169.839C445.815 170.767 444.887 171.239 443.591 171.239C441.839 171.239 440.687 170.207 440.687 168.647C440.687 166.951 441.887 166.039 444.103 165.759L446.375 165.479C446.343 164.335 445.759 163.815 444.647 163.815C443.607 163.815 443.015 164.191 442.751 165.015L440.999 164.543C441.455 162.975 442.751 162.119 444.647 162.119ZM446.383 166.887L444.375 167.135C443.143 167.287 442.575 167.719 442.575 168.487C442.575 169.247 443.079 169.631 444.055 169.631C445.111 169.631 445.911 169.047 446.199 168.271C446.375 167.855 446.383 167.351 446.383 166.967V166.887ZM449.426 164.151V162.359H450.994V159.479H452.914V162.359H455.45V164.151H452.914V168.167C452.914 168.943 453.258 169.287 454.034 169.287H455.45V170.999H453.634C451.97 170.999 450.994 170.095 450.994 168.559V164.151H449.426ZM459.396 161.047H457.468V159.279H459.396V161.047ZM459.396 170.999H457.468V162.359H459.396V170.999ZM465.608 171.239C463.032 171.239 461.312 169.367 461.312 166.679C461.312 163.983 463.048 162.119 465.608 162.119C468.2 162.119 469.92 163.983 469.92 166.679C469.92 169.375 468.192 171.239 465.608 171.239ZM465.608 169.431C467.064 169.431 467.88 168.391 467.88 166.679C467.88 164.943 467.072 163.927 465.608 163.927C464.136 163.927 463.352 164.943 463.352 166.679C463.352 168.407 464.16 169.431 465.608 169.431ZM477.643 170.999V166.239C477.643 164.767 476.931 163.927 475.627 163.927C474.323 163.927 473.595 164.759 473.595 166.239V170.999H471.667V162.359H473.595V163.487C474.019 162.703 474.795 162.119 476.131 162.119C478.195 162.119 479.571 163.287 479.571 165.839V170.999H477.643Z" fill="#2D3748"/>
<rect x="382" y="67.999" width="80" height="80" rx="6" fill="url(#paint0_linear_3082_7960)"/>
<path d="M418.447 99.6722C418.447 100.891 418.447 102.072 418.831 103.178C414.791 107.922 404.122 120.457 403.128 121.413C402.931 121.59 402.773 121.807 402.664 122.049C402.556 122.291 402.5 122.554 402.5 122.819C402.5 123.616 402.987 124.385 403.4 124.816C404.019 125.463 406.662 127.91 407.15 127.441C408.594 126.035 408.884 125.66 409.475 125.078C410.366 124.207 409.381 122.425 409.691 121.703C410 120.982 410.328 120.841 410.862 120.728C411.397 120.616 412.344 121 413.084 121.01C413.862 121.019 414.284 120.691 414.866 120.147C415.334 119.716 415.672 119.313 415.681 118.685C415.7 117.841 414.481 116.725 415.391 115.835C416.3 114.944 417.613 116.416 418.578 116.303C419.544 116.191 420.716 114.85 420.838 114.278C420.959 113.707 419.741 112.235 419.928 111.4C419.994 111.119 420.566 110.463 420.997 110.369C421.428 110.275 423.341 111.016 423.772 110.922C424.297 110.81 424.906 110.257 425.403 109.947C426.856 110.575 428.178 110.828 429.875 110.828C436.297 110.828 441.5 105.822 441.5 99.6534C441.5 93.4847 436.297 88.5 429.875 88.5C423.453 88.5 418.447 93.5034 418.447 99.6722ZM435.5 97.5C435.5 98.0933 435.324 98.6734 434.994 99.1667C434.665 99.6601 434.196 100.045 433.648 100.272C433.1 100.499 432.497 100.558 431.915 100.442C431.333 100.327 430.798 100.041 430.379 99.6213C429.959 99.2018 429.673 98.6672 429.558 98.0853C429.442 97.5033 429.501 96.9001 429.728 96.352C429.955 95.8038 430.34 95.3352 430.833 95.0056C431.327 94.6759 431.907 94.5 432.5 94.5C433.296 94.5 434.059 94.8161 434.621 95.3787C435.184 95.9413 435.5 96.7044 435.5 97.5Z" fill="white"/>
<path d="M27.1741 171.239C24.4061 171.239 22.5341 169.583 22.5341 166.399V159.479H24.4701V166.319C24.4701 168.399 25.3501 169.423 27.1741 169.423C29.0061 169.423 29.8781 168.399 29.8781 166.319V159.479H31.8141V166.399C31.8141 169.583 29.9501 171.239 27.1741 171.239ZM37.4097 171.239C35.2657 171.239 33.8897 170.255 33.5697 168.495L35.5457 168.183C35.7617 169.095 36.4177 169.567 37.4497 169.567C38.3777 169.567 38.9777 169.183 38.9777 168.535C38.9777 168.143 38.8337 167.935 38.2417 167.719C37.9537 167.615 37.4657 167.471 36.8017 167.295C34.8017 166.775 33.8497 166.159 33.8497 164.759C33.8497 163.167 35.2097 162.119 37.2657 162.119C39.2497 162.119 40.6657 163.111 40.8897 164.671L38.9217 165.023C38.8177 164.255 38.1617 163.783 37.2017 163.783C36.3697 163.783 35.7697 164.151 35.7697 164.671C35.7697 165.135 36.2017 165.319 36.8897 165.535C37.2737 165.655 37.8017 165.815 38.4577 165.991C40.2657 166.487 40.9537 167.183 40.9537 168.447C40.9537 170.183 39.6097 171.239 37.4097 171.239ZM46.5379 169.463C47.5219 169.463 48.1619 169.047 48.5459 168.231L50.4499 168.775C49.7859 170.343 48.3619 171.239 46.5379 171.239C43.9539 171.239 42.2259 169.375 42.2259 166.679C42.2259 163.951 43.9859 162.119 46.5219 162.119C49.2739 162.119 50.7699 164.103 50.5459 167.215H44.2979C44.4659 168.639 45.2739 169.463 46.5379 169.463ZM44.3459 165.759H48.5859C48.4899 164.543 47.7299 163.831 46.5219 163.831C45.3539 163.831 44.5859 164.535 44.3459 165.759ZM57.1869 162.135V163.991C56.9389 163.935 56.6349 163.927 56.2749 163.927C54.9789 163.927 54.2429 164.759 54.2429 166.239V170.999H52.3149V162.359H54.2429V163.487C54.6669 162.703 55.4429 162.119 56.7789 162.119C56.9149 162.119 57.0509 162.127 57.1869 162.135Z" fill="#2D3748"/>
<rect y="67.999" width="80" height="80" rx="6" fill="#F4F6FF"/>
<path d="M36.1562 121.237C34.1125 118.04 33.0812 113.887 33.0062 109.705L28.3469 111.73C25.8062 112.837 24.1656 115.293 24.1656 118.012V125.577H38.9312L36.1562 121.237ZM51.6531 111.73L46.9937 109.705C46.9187 113.887 45.8875 118.04 43.8437 121.237L41.0687 125.577H55.8344V118.012C55.8344 115.293 54.1937 112.827 51.6531 111.73ZM40 90.4209C36.1187 90.4209 32.9687 93.5709 32.9687 97.4521V99.2146C32.9969 103.105 36.1281 109.705 40 109.705C43.8719 109.705 47.0031 103.105 47.0312 99.2146V97.4521C47.0312 93.5709 43.8812 90.4209 40 90.4209ZM43.5156 114.149V112.396C43.5156 111.908 43.1219 111.515 42.6344 111.515H37.3656C36.8781 111.515 36.4844 111.908 36.4844 112.396V114.149C36.4844 114.637 36.8781 115.03 37.3656 115.03H38.2562L36.5031 118.537L39.9906 123.815L43.5156 118.537L41.7625 115.03H42.6344C43.1219 115.03 43.5156 114.637 43.5156 114.149Z" fill="#718096"/>
<path d="M128.83 264.239C126.062 264.239 124.19 262.583 124.19 259.399V252.479H126.126V259.319C126.126 261.399 127.006 262.423 128.83 262.423C130.662 262.423 131.534 261.399 131.534 259.319V252.479H133.47V259.399C133.47 262.583 131.606 264.239 128.83 264.239ZM139.066 264.239C136.922 264.239 135.546 263.255 135.226 261.495L137.202 261.183C137.418 262.095 138.074 262.567 139.106 262.567C140.034 262.567 140.634 262.183 140.634 261.535C140.634 261.143 140.49 260.935 139.898 260.719C139.61 260.615 139.122 260.471 138.458 260.295C136.458 259.775 135.506 259.159 135.506 257.759C135.506 256.167 136.866 255.119 138.922 255.119C140.906 255.119 142.322 256.111 142.546 257.671L140.578 258.023C140.474 257.255 139.818 256.783 138.858 256.783C138.026 256.783 137.426 257.151 137.426 257.671C137.426 258.135 137.858 258.319 138.546 258.535C138.93 258.655 139.458 258.815 140.114 258.991C141.922 259.487 142.61 260.183 142.61 261.447C142.61 263.183 141.266 264.239 139.066 264.239ZM148.194 262.463C149.178 262.463 149.818 262.047 150.202 261.231L152.106 261.775C151.442 263.343 150.018 264.239 148.194 264.239C145.61 264.239 143.882 262.375 143.882 259.679C143.882 256.951 145.642 255.119 148.178 255.119C150.93 255.119 152.426 257.103 152.202 260.215H145.954C146.122 261.639 146.93 262.463 148.194 262.463ZM146.002 258.759H150.242C150.146 257.543 149.386 256.831 148.178 256.831C147.01 256.831 146.242 257.535 146.002 258.759ZM158.843 255.135V256.991C158.595 256.935 158.291 256.927 157.931 256.927C156.635 256.927 155.899 257.759 155.899 259.239V263.999H153.971V255.359H155.899V256.487C156.323 255.703 157.099 255.119 158.435 255.119C158.571 255.119 158.707 255.127 158.843 255.135ZM169.661 252.479H171.581V263.999H169.661V262.839C169.141 263.719 168.285 264.239 166.997 264.239C164.733 264.239 163.085 262.351 163.085 259.679C163.085 256.983 164.733 255.119 166.997 255.119C168.293 255.119 169.141 255.647 169.661 256.519V252.479ZM167.397 256.927C165.877 256.927 165.125 258.055 165.125 259.679C165.125 261.351 165.893 262.431 167.397 262.431C168.949 262.431 169.661 261.311 169.661 259.679C169.661 257.999 168.885 256.927 167.397 256.927ZM177.647 262.463C178.631 262.463 179.271 262.047 179.655 261.231L181.559 261.775C180.895 263.343 179.471 264.239 177.647 264.239C175.063 264.239 173.335 262.375 173.335 259.679C173.335 256.951 175.095 255.119 177.631 255.119C180.383 255.119 181.879 257.103 181.655 260.215H175.407C175.575 261.639 176.383 262.463 177.647 262.463ZM175.455 258.759H179.695C179.599 257.543 178.839 256.831 177.631 256.831C176.463 256.831 175.695 257.535 175.455 258.759ZM187.4 263.999H185.464L182.328 255.359H184.264L186.432 261.631L188.608 255.359H190.536L187.4 263.999ZM194.06 254.047H192.132V252.279H194.06V254.047ZM194.06 263.999H192.132V255.359H194.06V263.999ZM200.208 264.239C197.56 264.239 195.976 262.311 195.976 259.679C195.976 257.015 197.624 255.119 200.232 255.119C202.2 255.119 203.648 256.175 204.056 257.879L202.136 258.399C201.84 257.471 201.096 256.927 200.208 256.927C198.72 256.927 198.016 258.071 198.016 259.679C198.016 261.327 198.76 262.431 200.208 262.431C201.24 262.431 201.792 261.943 202.088 261.063L204.056 261.503C203.52 263.263 202.136 264.239 200.208 264.239ZM209.257 262.463C210.241 262.463 210.881 262.047 211.265 261.231L213.169 261.775C212.505 263.343 211.081 264.239 209.257 264.239C206.673 264.239 204.945 262.375 204.945 259.679C204.945 256.951 206.705 255.119 209.241 255.119C211.993 255.119 213.489 257.103 213.265 260.215H207.017C207.185 261.639 207.993 262.463 209.257 262.463ZM207.065 258.759H211.305C211.209 257.543 210.449 256.831 209.241 256.831C208.073 256.831 207.305 257.535 207.065 258.759Z" fill="#2D3748"/>
<rect x="129" y="160.999" width="80" height="80" rx="6" fill="#F4F6FF"/>
<g clip-path="url(#clip0_3082_7960)">
<path d="M191.5 214.5H188.843C189.589 213.674 190.001 212.6 190 211.487V189.013C189.999 187.817 189.523 186.67 188.676 185.824C187.83 184.977 186.683 184.501 185.487 184.5H152.513C151.317 184.501 150.17 184.977 149.324 185.824C148.477 186.67 148.001 187.817 148 189.013V211.487C147.999 212.6 148.411 213.674 149.157 214.5H146.5C146.102 214.5 145.721 214.658 145.439 214.939C145.158 215.221 145 215.602 145 216C145 216.398 145.158 216.779 145.439 217.061C145.721 217.342 146.102 217.5 146.5 217.5H191.5C191.898 217.5 192.279 217.342 192.561 217.061C192.842 216.779 193 216.398 193 216C193 215.602 192.842 215.221 192.561 214.939C192.279 214.658 191.898 214.5 191.5 214.5Z" fill="#718096"/>
<circle cx="169" cy="188" r="1" fill="white"/>
</g>
<path d="M397.665 344.239C395.105 344.239 393.249 342.823 392.897 340.591L394.897 340.287C395.241 341.695 396.233 342.431 397.785 342.431C399.169 342.431 400.169 341.727 400.169 340.751C400.169 340.127 399.753 339.703 398.889 339.447L395.913 338.567C394.209 338.063 393.345 337.063 393.345 335.599C393.345 333.591 395.065 332.255 397.505 332.255C399.913 332.255 401.585 333.479 402.097 335.623L400.025 335.983C399.777 334.759 398.841 334.055 397.473 334.055C396.185 334.055 395.369 334.671 395.369 335.519C395.369 336.167 395.873 336.583 397.057 336.911L399.097 337.479C401.177 338.047 402.185 339.079 402.185 340.647C402.185 342.783 400.361 344.239 397.665 344.239ZM406.705 347.839H404.897L406.321 343.943L402.825 335.359H404.833L407.241 341.543L409.593 335.359H411.521L406.705 347.839ZM416.074 344.239C413.93 344.239 412.554 343.255 412.234 341.495L414.21 341.183C414.426 342.095 415.082 342.567 416.114 342.567C417.042 342.567 417.642 342.183 417.642 341.535C417.642 341.143 417.498 340.935 416.906 340.719C416.618 340.615 416.13 340.471 415.466 340.295C413.466 339.775 412.514 339.159 412.514 337.759C412.514 336.167 413.874 335.119 415.93 335.119C417.914 335.119 419.33 336.111 419.554 337.671L417.586 338.023C417.482 337.255 416.826 336.783 415.866 336.783C415.034 336.783 414.434 337.151 414.434 337.671C414.434 338.135 414.866 338.319 415.554 338.535C415.938 338.655 416.466 338.815 417.122 338.991C418.93 339.487 419.618 340.183 419.618 341.447C419.618 343.183 418.274 344.239 416.074 344.239ZM420.41 337.151V335.359H421.978V332.479H423.898V335.359H426.434V337.151H423.898V341.167C423.898 341.943 424.242 342.287 425.018 342.287H426.434V343.999H424.618C422.954 343.999 421.978 343.095 421.978 341.559V337.151H420.41ZM431.89 342.463C432.874 342.463 433.514 342.047 433.898 341.231L435.802 341.775C435.138 343.343 433.714 344.239 431.89 344.239C429.306 344.239 427.578 342.375 427.578 339.679C427.578 336.951 429.338 335.119 431.874 335.119C434.626 335.119 436.122 337.103 435.898 340.215H429.65C429.818 341.639 430.626 342.463 431.89 342.463ZM429.698 338.759H433.938C433.842 337.543 433.082 336.831 431.874 336.831C430.706 336.831 429.938 337.535 429.698 338.759ZM442.624 343.999V338.839C442.624 337.679 442.112 336.927 441 336.927C439.88 336.927 439.36 337.679 439.36 338.839V343.999H437.432V335.359H439.36V336.399C439.72 335.679 440.368 335.119 441.488 335.119C442.776 335.119 443.672 335.583 444.144 336.487C444.616 335.695 445.424 335.119 446.56 335.119C448.632 335.119 449.752 336.239 449.752 338.439V343.999H447.824V338.839C447.824 337.679 447.32 336.927 446.2 336.927C445.088 336.927 444.56 337.679 444.56 338.839L444.544 338.831V343.999H442.624Z" fill="#2D3748"/>
<rect x="382" y="240.999" width="80" height="80" rx="6" fill="#F4F6FF"/>
<path d="M422 285.5C424.485 285.5 426.5 283.485 426.5 281C426.5 278.515 424.485 276.5 422 276.5C419.515 276.5 417.5 278.515 417.5 281C417.5 283.485 419.515 285.5 422 285.5Z" fill="#718096"/>
<path d="M442.099 285.125L442.055 285.089L439.096 282.769C438.909 282.621 438.759 282.43 438.66 282.213C438.561 281.996 438.514 281.758 438.524 281.519V280.436C438.515 280.198 438.562 279.962 438.662 279.747C438.761 279.532 438.91 279.343 439.097 279.196L442.055 276.875L442.099 276.839C442.555 276.459 442.861 275.929 442.963 275.345C443.064 274.76 442.954 274.158 442.652 273.646L438.648 266.718C438.644 266.712 438.639 266.705 438.636 266.698C438.333 266.193 437.862 265.811 437.306 265.618C436.751 265.424 436.145 265.431 435.594 265.638L435.561 265.65L432.083 267.05C431.863 267.139 431.626 267.174 431.39 267.153C431.154 267.132 430.927 267.055 430.726 266.929C430.419 266.735 430.106 266.552 429.789 266.38C429.583 266.268 429.406 266.11 429.273 265.917C429.139 265.725 429.053 265.504 429.021 265.272L428.497 261.56L428.486 261.492C428.372 260.918 428.063 260.4 427.612 260.025C427.161 259.651 426.595 259.444 426.009 259.438H417.991C417.397 259.439 416.822 259.651 416.369 260.035C415.915 260.419 415.612 260.951 415.512 261.537L415.503 261.589L414.981 265.308C414.949 265.539 414.863 265.76 414.731 265.952C414.599 266.145 414.423 266.304 414.219 266.416C413.9 266.588 413.588 266.77 413.281 266.962C413.081 267.087 412.854 267.163 412.619 267.184C412.384 267.205 412.147 267.169 411.928 267.081L408.448 265.675L408.415 265.662C407.863 265.455 407.256 265.448 406.7 265.642C406.143 265.836 405.673 266.219 405.37 266.725L405.358 266.745L401.348 273.678C401.046 274.19 400.935 274.793 401.037 275.378C401.138 275.964 401.444 276.494 401.901 276.875L401.945 276.911L404.904 279.231C405.091 279.379 405.241 279.57 405.34 279.787C405.439 280.004 405.486 280.242 405.476 280.481V281.564C405.485 281.802 405.438 282.038 405.338 282.253C405.239 282.468 405.09 282.657 404.903 282.804L401.945 285.125L401.901 285.161C401.445 285.541 401.139 286.071 401.037 286.655C400.936 287.24 401.046 287.842 401.348 288.354L405.352 295.282C405.356 295.288 405.361 295.295 405.364 295.302C405.667 295.807 406.138 296.189 406.694 296.382C407.249 296.576 407.855 296.569 408.406 296.362L408.439 296.35L411.914 294.95C412.134 294.861 412.371 294.826 412.607 294.847C412.843 294.868 413.071 294.945 413.271 295.071C413.578 295.265 413.891 295.448 414.208 295.62C414.414 295.732 414.591 295.89 414.724 296.083C414.858 296.275 414.944 296.496 414.976 296.728L415.497 300.44L415.509 300.507C415.623 301.083 415.932 301.602 416.385 301.976C416.837 302.351 417.404 302.558 417.991 302.562H426.009C426.603 302.561 427.178 302.349 427.631 301.965C428.085 301.581 428.388 301.049 428.488 300.463L428.497 300.411L429.019 296.692C429.052 296.46 429.138 296.239 429.271 296.047C429.404 295.854 429.581 295.696 429.786 295.584C430.107 295.411 430.42 295.228 430.723 295.038C430.923 294.913 431.15 294.837 431.386 294.816C431.621 294.795 431.857 294.831 432.076 294.919L435.557 296.321L435.59 296.334C436.142 296.541 436.749 296.548 437.305 296.354C437.862 296.16 438.332 295.776 438.635 295.271C438.639 295.264 438.643 295.257 438.647 295.25L442.651 288.323C442.954 287.811 443.065 287.208 442.964 286.622C442.862 286.036 442.556 285.506 442.099 285.125ZM429.492 281.353C429.423 282.804 428.935 284.205 428.085 285.384C427.236 286.563 426.062 287.47 424.706 287.995C423.351 288.519 421.872 288.639 420.45 288.338C419.028 288.038 417.724 287.331 416.696 286.303C415.669 285.275 414.962 283.971 414.662 282.549C414.361 281.127 414.481 279.648 415.005 278.293C415.53 276.938 416.437 275.764 417.617 274.914C418.796 274.065 420.197 273.577 421.648 273.508C422.691 273.463 423.731 273.634 424.704 274.012C425.676 274.39 426.559 274.966 427.297 275.704C428.034 276.442 428.61 277.325 428.988 278.297C429.366 279.27 429.538 280.31 429.492 281.353Z" fill="#718096"/>
<defs>
<linearGradient id="paint0_linear_3082_7960" x1="364.5" y1="154.499" x2="481" y2="93.999" gradientUnits="userSpaceOnUse">
<stop stop-color="#34AC81"/>
<stop offset="0.415" stop-color="#1C8D78"/>
<stop offset="0.65" stop-color="#7775CC"/>
<stop offset="1" stop-color="#EA9EF9"/>
</linearGradient>
<clipPath id="clip0_3082_7960">
<rect width="48" height="48" fill="white" transform="translate(145 177)"/>
</clipPath>
</defs>
</svg>
