<svg width="393" height="430" viewBox="0 0 393 430" fill="none" xmlns="http://www.w3.org/2000/svg">
<path d="M82.0274 418.372L195.263 429.234L305.701 404.546C307.017 404.217 306.853 402.324 305.454 402.324L177.323 397.963L82.0274 418.372Z" fill="#251725"/>
<path d="M285.127 70.6816C284.963 70.517 284.798 70.3524 284.716 70.2702L276.075 61.7939L276.24 66.8961C275.005 66.8138 273.688 66.9784 272.289 67.2253L161.687 87.3872C151.812 89.1976 141.608 100.39 138.727 112.569L71.5761 392.202C70.424 396.975 70.3417 401.501 71.2469 405.368L67.8729 406.438C67.8729 406.438 72.0698 410.471 74.7855 413.186C75.5261 414.092 76.4314 410.718 77.3366 411.376C77.5012 407.261 74.8678 411.047 74.8678 411.047L72.1521 413.845C73.8803 415.079 78.4064 417.301 83.1794 417.712L191.889 428.328C203.657 429.48 216.083 418.289 219.293 403.311L220.198 399.279L288.584 87.8809C290.229 80.4745 288.748 74.3848 285.127 70.6816Z" fill="#251725" stroke="#251725" stroke-miterlimit="10" stroke-linecap="round" stroke-linejoin="round"/>
<path d="M191.889 428.411C203.657 429.563 216.083 418.371 219.293 403.394L220.198 399.361" stroke="white" stroke-miterlimit="10" stroke-linecap="round" stroke-linejoin="round"/>
<path d="M280.601 80.2283L269.574 131.25L262.167 165.32L211.31 399.938C208.018 415.08 195.674 426.436 183.906 425.284L75.197 414.504C65.5687 413.516 60.4665 401.913 63.5937 388.581L71.823 353.854L81.0398 314.846L130.663 105.245C133.543 92.9014 143.747 81.545 153.623 79.7345L264.225 59.3258C276.157 57.1038 283.564 66.4853 280.601 80.2283Z" fill="url(#paint0_linear_3082_7763)" stroke="#251725" stroke-miterlimit="10" stroke-linecap="round" stroke-linejoin="round"/>
<path d="M273.688 81.3805L204.48 399.444C202.258 409.813 193.782 417.549 185.717 416.808L76.9252 406.85C70.3417 406.274 66.7208 398.292 68.9427 389.075L136.176 104.34C138.151 95.8641 145.229 87.9639 151.977 86.8118L176.912 82.368C178.311 82.1211 179.298 82.8617 179.545 84.343C179.956 86.8941 181.767 88.2108 184.236 87.7993L222.749 81.1336C225.382 80.6398 228.18 78.5002 229.908 75.4553C230.896 73.7272 232.542 72.4928 234.023 72.1636L262.579 67.0614C270.726 65.4978 275.746 71.999 273.688 81.3805Z" fill="url(#paint1_linear_3082_7763)" stroke="#251725" stroke-miterlimit="10" stroke-linecap="round" stroke-linejoin="round"/>
<path d="M185.717 416.891C193.782 417.631 202.258 409.813 204.48 399.527L212.133 364.47L155.104 414.093L185.717 416.891Z" fill="#251725" stroke="#251725" stroke-miterlimit="10" stroke-linecap="round" stroke-linejoin="round"/>
<path d="M262.579 66.9789L234.023 72.0811C232.542 72.328 230.896 73.6447 229.908 75.3728C228.18 78.4177 225.382 80.5573 222.749 81.0511L184.236 87.7168C182.096 88.1283 180.368 87.0585 179.709 85.0834L132.802 118.083L106.962 227.945L269.327 101.46L273.688 81.4625C275.746 71.9988 270.726 65.4976 262.579 66.9789Z" fill="white" stroke="#251725" stroke-miterlimit="10" stroke-linecap="round" stroke-linejoin="round"/>
<path d="M179.545 84.2607C179.298 82.8618 178.311 82.0388 176.912 82.2857L151.977 86.7295C145.229 87.9639 138.151 95.7818 136.176 104.258L132.967 118.001L179.874 85.0014C179.71 84.8368 179.627 84.5899 179.545 84.2607Z" fill="#251725" stroke="#251725" stroke-miterlimit="10" stroke-linecap="round" stroke-linejoin="round"/>
<path d="M159.054 291.969C139.386 283.081 131.156 264.565 136.341 242.181L146.463 198.648L151.73 197.496C168.106 193.875 182.343 183.671 182.507 183.588L186.128 180.955L188.762 182.93C188.844 183.012 199.378 190.913 216.001 191.571L221.597 191.818L211.31 238.067C206.043 261.849 187.61 282.094 162.839 291.886L160.782 292.709L159.054 291.969Z" fill="#251725" stroke="#251725" stroke-miterlimit="10" stroke-linecap="round" stroke-linejoin="round"/>
<path d="M221.597 191.901L217.153 187.868C217.153 187.868 211.557 203.01 211.968 203.257C212.298 203.504 214.026 204.08 214.108 203.915C214.108 203.751 221.597 191.901 221.597 191.901Z" fill="#251725" stroke="#251725" stroke-miterlimit="10" stroke-linecap="round" stroke-linejoin="round"/>
<path d="M155.104 288.019C135.436 279.131 127.206 260.615 132.391 238.231L142.513 194.698L147.78 193.546C164.156 189.925 178.393 179.721 178.557 179.638L182.178 177.005L184.812 178.98C184.894 179.062 195.428 186.962 212.051 187.621L217.647 187.868L207.36 234.116C202.093 257.899 183.66 278.143 158.889 287.936L156.832 288.759L155.104 288.019Z" fill="white" stroke="#251725" stroke-miterlimit="10" stroke-linecap="round" stroke-linejoin="round"/>
<path d="M209.582 195.439C209.582 195.439 205.303 214.778 200.859 234.446C196.415 254.196 181.108 271.56 158.56 280.612C140.62 272.63 133.707 256.665 138.069 237.902C142.431 219.222 146.628 200.87 146.628 200.87C164.732 197.002 180.121 185.811 180.121 185.811C180.121 185.811 191.313 194.616 209.582 195.439Z" fill="url(#paint2_linear_3082_7763)" stroke="#251725" stroke-miterlimit="10" stroke-linecap="round" stroke-linejoin="round"/>
<path d="M209.582 195.439C209.582 195.439 209.417 196.097 209.17 197.332C192.547 195.768 182.425 187.868 182.425 187.868C182.425 187.868 167.036 198.977 148.932 202.845C148.932 202.845 144.653 221.197 140.373 239.96C137.164 253.703 140.044 265.882 148.767 274.605C138.234 265.882 134.613 252.797 138.069 237.902C142.431 219.222 146.628 200.788 146.628 200.788C164.65 196.92 180.121 185.811 180.121 185.811C180.121 185.811 191.313 194.616 209.582 195.439Z" fill="#251725" stroke="#251725" stroke-miterlimit="10" stroke-linecap="round" stroke-linejoin="round"/>
<path d="M177.158 256.501L151.071 257.488C149.179 257.57 148.109 255.678 148.685 253.291L154.199 229.179C154.775 226.793 156.75 224.735 158.56 224.653L184.647 222.925C186.622 222.76 187.774 224.653 187.198 227.122L181.602 251.892C181.191 254.361 179.133 256.418 177.158 256.501Z" stroke="#251725" stroke-miterlimit="10" stroke-linecap="round" stroke-linejoin="round"/>
<path d="M185.552 225.228L182.014 225.475L184.071 216.505C185.47 210.333 182.59 205.56 177.652 205.971C172.797 206.383 167.695 211.649 166.296 217.739L164.321 226.544L160.864 226.791L162.839 217.986C164.814 209.51 171.809 202.103 178.64 201.527C185.552 200.951 189.585 207.535 187.61 216.175L185.552 225.228Z" fill="#251725" stroke="#251725" stroke-miterlimit="10" stroke-linecap="round" stroke-linejoin="round"/>
<path d="M178.887 257.816L152.8 258.804C150.907 258.886 149.837 256.993 150.413 254.607L155.927 230.495C156.503 228.108 158.478 226.051 160.288 225.969L186.375 224.24C188.35 224.076 189.502 225.969 188.926 228.437L183.33 253.208C182.919 255.676 180.862 257.734 178.887 257.816Z" fill="#251725" stroke="#251725" stroke-miterlimit="10" stroke-linecap="round" stroke-linejoin="round"/>
<path d="M183.906 223.911L180.368 224.158L182.425 215.188C183.824 209.016 180.944 204.243 176.006 204.655C171.151 205.066 166.049 210.333 164.65 216.423L162.675 225.228L159.218 225.475L161.193 216.67C163.168 208.193 170.163 200.787 176.994 200.211C183.906 199.635 187.939 206.218 185.964 214.859L183.906 223.911Z" fill="#251725"/>
<path d="M177.158 256.5L151.071 257.487C149.179 257.57 148.109 255.677 148.685 253.29L154.199 229.178C154.775 226.792 156.75 224.734 158.56 224.652L184.647 222.924C186.622 222.759 187.774 224.652 187.198 227.121L181.602 251.891C181.191 254.36 179.133 256.417 177.158 256.5Z" fill="white" stroke="#251725" stroke-miterlimit="10" stroke-linecap="round" stroke-linejoin="round"/>
<path d="M173.044 234.115C172.961 236.255 171.809 238.23 170.246 239.464C169.752 239.794 169.423 240.37 169.258 240.946L167.695 247.941C167.448 249.093 166.46 250.08 165.555 250.163C164.65 250.163 164.074 249.257 164.403 248.105L165.966 241.193C166.131 240.617 165.966 240.123 165.72 239.794C164.897 238.971 164.567 237.489 164.979 235.844C165.72 232.716 168.518 230.083 170.986 230.741C172.303 230.906 173.126 232.387 173.044 234.115Z" fill="#251725" stroke="#251725" stroke-miterlimit="10" stroke-linecap="round" stroke-linejoin="round"/>
<path d="M269.492 131.332L262.085 165.401L215.754 170.586L208.677 176.511C207.36 177.581 206.043 176.84 206.373 175.194L212.791 146.803C213.779 142.442 217.482 138.492 221.103 137.998L269.492 131.332Z" fill="#251725" stroke="#251725" stroke-miterlimit="10" stroke-linecap="round" stroke-linejoin="round"/>
<path d="M301.751 123.844L297.636 119.812C297.636 119.812 297.389 121.375 297.307 123.021L217.235 133.884C213.614 134.377 209.911 138.328 208.924 142.689L204.727 161.205C202.011 164.661 198.966 168.776 198.966 168.776L202.669 172.397C202.752 172.562 202.916 172.726 203.081 172.808C203.492 173.055 204.151 172.973 204.809 172.397L211.886 166.472L290.394 157.749C294.509 157.255 298.706 153.058 299.693 148.367L303.561 130.345C304.137 127.465 303.396 125.078 301.751 123.844Z" fill="white" stroke="#251725" stroke-miterlimit="10" stroke-linecap="round" stroke-linejoin="round"/>
<path d="M286.362 153.798L207.854 162.521L200.777 168.446C199.46 169.516 198.143 168.776 198.472 167.13L204.891 138.739C205.879 134.377 209.582 130.427 213.203 129.933L293.768 118.906C297.883 118.33 300.434 121.704 299.446 126.395L295.579 144.417C294.673 149.108 290.476 153.304 286.362 153.798Z" fill="url(#paint3_linear_3082_7763)" stroke="#251725" stroke-miterlimit="10" stroke-linecap="round" stroke-linejoin="round"/>
<path d="M223.572 142.525L223.983 144.006L221.597 145.24L223.572 145.899L222.502 147.545L221.021 145.981L220.774 148.779L219.293 148.944L220.198 146.063L217.976 148.038L217.564 146.475L219.951 145.24L217.976 144.582L219.046 142.936L220.527 144.417L220.774 141.702L222.255 141.537L221.268 144.417L223.572 142.525Z" fill="#251725"/>
<path d="M232.706 141.372L233.118 142.853L230.649 144.088L232.706 144.746L231.637 146.474L230.155 144.911L229.908 147.709L228.427 147.873L229.415 144.993L227.193 147.05L226.781 145.487L229.168 144.252L227.193 143.594L228.263 141.948L229.744 143.429L229.991 140.631L231.554 140.467L230.567 143.347L232.706 141.372Z" fill="#251725"/>
<path d="M242.006 140.22L242.417 141.701L239.948 142.935L242.006 143.594L240.853 145.322L239.372 143.758L239.125 146.556L237.562 146.721L238.549 143.841L236.245 145.898L235.834 144.334L238.302 143.1L236.327 142.442L237.397 140.796L238.961 142.277L239.208 139.479L240.771 139.314L239.784 142.195L242.006 140.22Z" fill="#251725"/>
<path d="M251.387 138.985L251.798 140.467L249.33 141.783L251.387 142.442L250.235 144.17L248.754 142.606L248.507 145.404L246.943 145.569L247.931 142.689L245.626 144.746L245.215 143.182L247.684 141.866L245.626 141.207L246.696 139.561L248.26 141.043L248.507 138.245L250.07 138.08L249.083 140.96L251.387 138.985Z" fill="#251725"/>
<path d="M261.015 137.833L261.427 139.315L258.876 140.631L261.015 141.372L259.863 143.1L258.3 141.536L258.053 144.334L256.489 144.499L257.477 141.536L255.09 143.594L254.679 142.03L257.23 140.713L255.172 139.973L256.242 138.245L257.806 139.808L258.053 137.01L259.616 136.846L258.629 139.808L261.015 137.833Z" fill="#251725"/>
<path d="M270.726 136.599L271.137 138.08L268.586 139.397L270.726 140.137L269.574 141.866L268.01 140.302L267.763 143.182L266.2 143.347L267.187 140.384L264.801 142.442L264.307 140.878L266.858 139.561L264.719 138.821L265.871 137.093L267.517 138.656L267.763 135.776L269.409 135.611L268.422 138.574L270.726 136.599Z" fill="#251725"/>
<path d="M280.519 135.364L280.93 136.846L278.297 138.162L280.519 138.903L279.367 140.631L277.803 139.068L277.556 141.948L275.91 142.113L276.898 139.15L274.511 141.29L274.018 139.726L276.569 138.409L274.429 137.669L275.581 135.941L277.227 137.504L277.474 134.624L279.12 134.377L278.132 137.34L280.519 135.364Z" fill="#251725"/>
<path d="M180.532 380.023L95.7703 374.756C93.1369 374.592 91.6556 371.547 92.4786 367.926L98.7329 341.181C99.5558 337.56 102.436 334.762 105.069 334.762L189.996 337.066C193.041 337.148 194.851 340.358 194.028 344.308L187.61 373.275C186.869 377.143 183.66 380.188 180.532 380.023Z" stroke="#251725" stroke-miterlimit="10" stroke-linecap="round" stroke-linejoin="round"/>
<path d="M184.071 358.215L168.435 365.375L169.834 359.367L180.286 358.051L170.575 355.829L171.974 349.821L184.071 358.215Z" fill="#251725"/>
<path d="M147.615 351.961C147.451 351.631 147.121 351.467 146.71 351.385C146.052 351.385 145.476 351.714 144.982 352.537C144.488 353.36 144.077 354.594 143.747 356.322C144.077 355.664 144.57 355.252 145.064 354.841C145.64 354.512 146.216 354.347 146.874 354.347C148.027 354.429 148.85 354.923 149.261 355.828C149.755 356.816 149.755 358.133 149.343 359.861C149.096 360.931 148.685 361.918 148.191 362.741C147.697 363.564 147.039 364.222 146.216 364.634C145.476 365.045 144.653 365.292 143.665 365.21C141.855 365.127 140.785 364.305 140.456 362.823C140.126 361.342 140.291 359.285 140.867 356.651C141.525 353.606 142.431 351.467 143.5 350.068C144.57 348.669 145.887 348.011 147.533 348.093C148.85 348.175 149.672 348.669 150.166 349.656C150.578 350.644 150.742 351.878 150.413 353.442L147.615 353.36C147.78 352.866 147.78 352.372 147.615 351.961ZM143.254 361.342C143.418 361.836 143.83 362 144.406 362.083C144.899 362.083 145.393 361.918 145.722 361.589C146.134 361.177 146.381 360.684 146.545 359.943C146.71 359.202 146.71 358.626 146.463 358.215C146.216 357.803 145.887 357.557 145.393 357.557C144.899 357.557 144.406 357.721 143.994 358.05C143.583 358.379 143.254 358.956 143.089 359.614C143.007 360.272 143.089 360.848 143.254 361.342Z" fill="#251725"/>
<path d="M151.647 357.227C152.224 354.676 153.046 352.701 154.199 351.219C155.351 349.738 156.75 349.08 158.478 349.162C160.206 349.244 161.276 350.067 161.77 351.549C162.263 353.112 162.181 355.17 161.605 357.721C161.029 360.354 160.124 362.329 158.972 363.81C157.819 365.292 156.421 365.95 154.692 365.868C152.964 365.785 151.894 364.962 151.483 363.399C150.989 361.835 151.071 359.778 151.647 357.227ZM158.56 357.556C158.889 356.075 159.054 354.923 158.972 354.1C158.889 353.277 158.478 352.865 157.655 352.865C156.832 352.865 156.256 353.194 155.762 354.017C155.351 354.758 154.939 355.91 154.61 357.391C154.281 358.873 154.116 360.025 154.199 360.848C154.281 361.671 154.692 362.082 155.515 362.164C156.256 362.164 156.914 361.835 157.326 361.012C157.819 360.107 158.231 359.037 158.56 357.556Z" fill="#251725"/>
<path d="M136.917 358.38C137.328 356.651 136.917 355.582 135.518 354.923C134.613 354.429 134.448 354.183 134.53 353.853C134.695 353.36 135.189 353.277 135.436 353.195C136.176 353.195 136.506 353.442 136.835 353.606L137.246 353.853L138.481 351.22L138.234 351.055C137.822 350.808 137.411 350.644 136.835 350.562L137.246 348.998L135.353 349.08L134.942 350.809C133.625 351.302 132.473 352.537 132.144 354.1C131.65 356.075 132.72 356.898 133.708 357.474C134.53 357.886 134.613 358.297 134.53 358.544C134.366 359.12 133.872 359.285 133.461 359.285C132.885 359.285 132.309 359.12 131.897 358.709L131.486 358.38L130.251 361.013L130.416 361.26C130.745 361.671 131.403 361.918 132.062 362L131.65 363.646H133.543L134.037 361.836C135.353 361.342 136.506 360.025 136.917 358.38Z" fill="#251725"/>
<path d="M211.228 77.1823L190.49 80.8855C189.996 80.9678 189.749 80.5564 189.832 79.9803C189.996 79.4043 190.49 78.8282 190.984 78.7459L211.722 75.0427C212.215 74.9604 212.545 75.3719 212.38 75.9479C212.298 76.6063 211.722 77.1 211.228 77.1823Z" fill="#251725"/>
<path d="M218.963 75.8659L214.684 76.6066C214.19 76.6889 213.861 76.2774 214.026 75.7013C214.19 75.1253 214.684 74.5492 215.178 74.4669L219.457 73.7263C219.951 73.644 220.28 74.0555 220.115 74.6315C219.951 75.2076 219.457 75.7836 218.963 75.8659Z" fill="#251725"/>
<path d="M154.116 300.363L154.445 302.174C154.445 302.256 154.528 302.338 154.61 302.421L156.091 302.832C156.338 302.915 156.338 303.326 156.091 303.573L154.61 305.136C154.528 305.219 154.445 305.383 154.445 305.466L154.198 307.523C154.116 307.852 153.787 308.181 153.622 308.017L152.388 307.111C152.306 307.029 152.223 307.029 152.059 307.111L150.413 308.017C150.166 308.181 149.919 307.934 150.002 307.523L150.66 305.466C150.742 305.301 150.66 305.219 150.66 305.136L149.919 303.655C149.755 303.408 150.002 302.997 150.248 302.915L151.894 302.503C151.977 302.503 152.141 302.421 152.223 302.256L153.458 300.446C153.705 300.034 154.116 300.034 154.116 300.363Z" fill="white"/>
<path d="M163.662 300.28L164.074 302.173C164.074 302.255 164.156 302.338 164.238 302.42L165.802 302.832C166.049 302.914 166.049 303.325 165.802 303.572L164.321 305.136C164.238 305.218 164.156 305.383 164.156 305.547L163.909 307.687C163.827 308.016 163.498 308.345 163.333 308.181L162.016 307.275C161.934 307.193 161.852 307.193 161.687 307.275L159.959 308.181C159.712 308.345 159.465 308.098 159.548 307.687L160.206 305.547C160.288 305.383 160.206 305.3 160.206 305.218L159.383 303.654C159.218 303.408 159.465 302.996 159.712 302.914L161.44 302.502C161.523 302.502 161.687 302.42 161.77 302.255L163.004 300.363C163.251 299.951 163.662 299.951 163.662 300.28Z" fill="white"/>
<path d="M173.373 300.198L173.784 302.091C173.784 302.173 173.867 302.255 173.949 302.338L175.512 302.749C175.759 302.831 175.759 303.243 175.512 303.49L174.031 305.053C173.949 305.136 173.867 305.3 173.867 305.465L173.62 307.604C173.537 307.934 173.208 308.263 172.961 308.098L171.645 307.193C171.562 307.111 171.48 307.111 171.316 307.193L169.587 308.098C169.258 308.263 169.094 308.016 169.176 307.604L169.834 305.465C169.917 305.3 169.834 305.218 169.834 305.053L169.011 303.49C168.847 303.243 169.094 302.831 169.34 302.749L171.069 302.338C171.151 302.338 171.316 302.255 171.398 302.091L172.632 300.198C172.961 299.869 173.291 299.869 173.373 300.198Z" fill="white"/>
<path d="M135.518 300.445L135.847 302.256C135.847 302.338 135.929 302.42 136.012 302.502L137.493 302.914C137.74 302.996 137.74 303.408 137.493 303.655L136.094 305.136C136.012 305.218 135.929 305.383 135.929 305.465L135.683 307.522C135.6 307.852 135.271 308.098 135.106 308.016L133.872 307.111C133.79 307.029 133.707 307.029 133.543 307.111L131.897 308.016C131.65 308.181 131.403 307.934 131.486 307.522L132.144 305.465C132.226 305.3 132.144 305.218 132.144 305.136L131.403 303.655C131.239 303.408 131.486 302.996 131.732 302.914L133.378 302.502C133.461 302.502 133.625 302.42 133.625 302.256L134.777 300.445C135.106 300.116 135.436 300.116 135.518 300.445Z" fill="white"/>
<path d="M144.735 300.363L145.064 302.173C145.064 302.256 145.146 302.338 145.229 302.42L146.71 302.832C146.957 302.914 146.957 303.325 146.71 303.572L145.229 305.054C145.146 305.136 145.064 305.3 145.064 305.383L144.817 307.44C144.735 307.769 144.406 308.016 144.241 307.934L143.007 307.029C142.924 306.946 142.842 306.946 142.677 307.029L141.032 307.934C140.785 308.098 140.538 307.852 140.62 307.44L141.278 305.383C141.361 305.218 141.278 305.136 141.278 305.054L140.538 303.572C140.373 303.325 140.62 302.914 140.867 302.832L142.513 302.42C142.595 302.42 142.76 302.338 142.842 302.173L143.994 300.363C144.406 300.116 144.735 300.116 144.735 300.363Z" fill="white"/>
<path d="M130.58 323.076L122.187 359.532C121.775 361.26 120.129 362.165 119.389 361.095L115.274 355.582L71.823 353.936L81.0399 314.929L126.466 315.093C129.758 315.093 131.568 318.714 130.58 323.076Z" fill="#251725"/>
<path d="M124.82 311.884L121.034 308.017C121.034 308.017 120.705 309.58 120.458 311.061L57.5863 310.815C54.6237 310.815 51.4966 314.106 50.509 318.303L44.9131 341.428C44.8308 341.757 44.7485 342.004 44.7485 342.333L42.0328 344.061L45.9006 347.929C46.559 348.669 47.3819 349.081 48.3694 349.163L111.242 351.55L112.147 352.784L111.324 353.113L115.356 357.146C116.097 358.216 117.825 357.31 118.154 355.582L126.548 319.126C127.289 315.917 126.548 313.201 124.82 311.884Z" fill="white" stroke="#251725" stroke-miterlimit="10" stroke-linecap="round" stroke-linejoin="round"/>
<path d="M44.337 345.213L107.209 347.599L111.324 353.113C112.064 354.183 113.793 353.278 114.122 351.55L122.516 315.094C123.503 310.65 121.693 307.111 118.401 307.111L53.5539 306.864C50.5913 306.864 47.4642 310.156 46.4766 314.353L40.8807 337.477C39.8932 341.592 41.4567 345.048 44.337 345.213Z" fill="white" stroke="#251725" stroke-miterlimit="10" stroke-linecap="round" stroke-linejoin="round"/>
<path d="M56.2695 327.19L55.3643 330.976H54.2945L56.5987 321.348H58.9029C59.7259 321.348 60.2196 321.677 60.4665 322.171C60.7134 322.747 60.7957 323.405 60.5488 324.392C60.3019 325.298 59.9727 326.038 59.3967 326.532C58.8206 327.026 58.2446 327.273 57.4216 327.273L56.2695 327.19ZM59.479 324.31C59.6436 323.734 59.5613 323.323 59.479 323.076C59.3144 322.747 58.9852 322.664 58.5737 322.664H57.5039L56.681 326.038H57.7508C58.5737 325.956 59.1498 325.38 59.479 324.31Z" fill="#251725"/>
<path d="M65.8156 323.981C66.0625 324.31 66.2271 324.804 66.2271 325.38L66.6385 323.652H67.7906L65.9802 331.305H64.8281L65.2396 329.577C64.9927 330.153 64.5812 330.565 64.1697 330.894C63.7583 331.223 63.2645 331.388 62.7708 331.388C62.277 331.388 61.9478 331.223 61.6187 330.894C61.2895 330.565 61.1249 330.153 61.0426 329.495C60.9603 328.919 61.0426 328.178 61.2072 327.438C61.3718 326.615 61.7009 325.956 62.0301 325.38C62.3593 324.804 62.7708 324.393 63.1822 324.064C63.5937 323.734 64.0875 323.57 64.5812 323.652C65.1573 323.405 65.5687 323.57 65.8156 323.981ZM63.3468 325.463C62.9353 325.874 62.6062 326.532 62.4416 327.273C62.277 328.014 62.277 328.672 62.4416 329.083C62.6062 329.577 63.0176 329.742 63.5114 329.742C63.8406 329.742 64.1697 329.66 64.4166 329.413C64.7458 329.248 64.9927 328.919 65.2396 328.59C65.4864 328.178 65.651 327.767 65.7333 327.273C65.8156 326.779 65.8979 326.368 65.8156 325.956C65.7333 325.545 65.651 325.298 65.4041 325.051C65.2396 324.804 64.9104 324.722 64.6635 324.722C64.1698 324.804 63.7583 324.969 63.3468 325.463Z" fill="#251725"/>
<path d="M70.5886 323.651L70.9178 329.33L73.7981 323.734H75.0325L69.025 334.926H67.7906L69.848 331.14L69.3542 323.651H70.5886Z" fill="#251725"/>
<path d="M84.9076 324.64C85.1545 325.216 85.1545 326.039 84.9076 327.108L83.8378 331.635H82.6857L83.6732 327.273C83.8378 326.615 83.8378 326.039 83.6732 325.709C83.5086 325.298 83.2617 325.133 82.768 325.133C82.2742 325.133 81.9451 325.298 81.5336 325.709C81.2044 326.121 80.8752 326.697 80.7107 327.438L79.7231 331.552H78.571L79.5586 327.191C79.7231 326.532 79.7231 325.956 79.5586 325.627C79.394 325.216 79.1471 325.051 78.6533 325.051C78.2419 325.051 77.8304 325.216 77.4189 325.627C77.0898 326.039 76.7606 326.615 76.596 327.355L75.6085 331.47H74.4564L76.2668 323.817H77.4189L77.0075 325.38C77.2543 324.804 77.5835 324.393 77.995 324.146C78.4064 323.817 78.8179 323.734 79.2294 323.734C79.7231 323.734 80.0523 323.899 80.2992 324.228C80.5461 324.557 80.7107 325.051 80.7107 325.627C81.0398 325.051 81.369 324.64 81.7805 324.31C82.1919 323.981 82.6857 323.817 83.0972 323.817C84.167 323.734 84.6607 324.064 84.9076 324.64Z" fill="#251725"/>
<path d="M92.0671 328.26L87.7056 328.178C87.541 329.001 87.541 329.577 87.7879 329.989C88.0347 330.4 88.3639 330.565 88.7754 330.565C89.1868 330.565 89.516 330.482 89.8452 330.153C90.1744 329.906 90.4212 329.495 90.5858 329.083H91.8202C91.6556 329.659 91.3265 330.071 90.9973 330.565C90.6681 330.976 90.2567 331.305 89.8452 331.552C89.4337 331.799 88.94 331.881 88.4462 331.881C87.8701 331.881 87.4587 331.717 87.1295 331.388C86.8003 331.058 86.5535 330.565 86.4712 329.989C86.3889 329.413 86.3888 328.672 86.6357 327.849C86.8003 327.026 87.1295 326.368 87.4587 325.709C87.8701 325.133 88.2816 324.64 88.7754 324.31C89.2691 323.981 89.7629 323.817 90.3389 323.899C90.915 323.899 91.3265 324.063 91.6556 324.393C91.9848 324.722 92.2317 325.133 92.314 325.709C92.3963 326.285 92.3963 326.861 92.2317 327.602C92.1494 327.849 92.1494 328.014 92.0671 328.26ZM91.1619 326.203C91.0796 325.874 90.9973 325.627 90.7504 325.462C90.5035 325.298 90.3389 325.216 90.0098 325.216C89.516 325.216 89.1045 325.38 88.6931 325.792C88.2816 326.203 87.9524 326.697 87.7879 327.52L90.9973 327.602C91.1619 326.944 91.2442 326.532 91.1619 326.203Z" fill="#251725"/>
<path d="M99.6381 324.886C99.885 325.462 99.885 326.285 99.6381 327.437L98.5683 332.046H97.3339L98.3214 327.684C98.486 326.944 98.486 326.45 98.3214 326.038C98.1568 325.627 97.8276 325.462 97.3339 325.462C96.8401 325.462 96.4287 325.627 96.0172 326.038C95.6057 326.45 95.3588 327.026 95.1943 327.849L94.2067 331.963H93.0546L94.8651 324.146H96.0172L95.6057 325.874C95.9349 325.298 96.2641 324.804 96.6755 324.557C97.087 324.228 97.5808 324.063 98.0745 324.063C98.8975 323.981 99.3912 324.31 99.6381 324.886Z" fill="#251725"/>
<path d="M104 330.729L103.671 332.128H102.93C102.272 332.128 101.86 331.881 101.695 331.47C101.449 331.059 101.449 330.4 101.695 329.413L102.601 325.545H101.778L102.107 324.146H102.93L103.424 322.171H104.658L104.164 324.146H105.563L105.234 325.545H103.835L102.93 329.413C102.848 329.824 102.848 330.153 102.93 330.318C103.012 330.483 103.177 330.565 103.506 330.565L104 330.729Z" fill="#251725"/>
<path d="M174.278 128.534C177.241 128.123 178.887 128.946 180.203 129.686L181.849 130.509L186.704 119.894L182.672 115.861L180.779 117.918C180.45 117.918 180.121 117.918 179.71 117.918L181.191 111.664L177.158 107.632L174.36 112.652L173.291 112.816L172.55 115.861L172.303 116.355C172.303 116.355 172.303 116.437 172.385 116.602L171.727 119.564C166.213 122.115 161.852 127.382 160.371 133.472C158.478 141.537 163.004 144.335 167.201 145.816C170.74 147.133 170.986 148.532 170.657 149.766C170.163 151.988 167.942 152.975 166.213 153.222C163.827 153.551 161.44 152.893 159.63 151.494L158.066 150.26L155.268 156.514L149.261 156.926L153.293 160.958L154.116 161.699C155.598 163.015 158.149 163.838 160.947 163.92V164.085L155.433 166.472L159.465 170.504L167.283 169.681L169.011 162.439C174.936 160.053 179.627 154.457 181.109 147.791C182.672 141.043 180.697 137.011 174.772 134.789C170.904 133.225 170.328 132.238 170.575 131.168C170.986 129.193 173.291 128.699 174.278 128.534Z" fill="#251725"/>
<path d="M177.076 144.005C178.64 137.257 176.665 133.225 170.74 131.003C166.872 129.439 166.296 128.452 166.543 127.382C167.036 125.242 169.341 124.666 170.328 124.584C173.291 124.173 174.937 124.995 176.253 125.736L177.899 126.559L182.754 115.943L181.602 115.285C179.956 114.38 178.064 113.968 175.842 113.968L177.323 107.714L169.505 108.948L167.942 115.779C162.428 118.33 158.066 123.596 156.585 129.686C154.692 137.751 159.219 140.549 163.415 142.03C166.954 143.347 167.201 144.746 166.872 145.98C166.378 148.202 164.156 149.19 162.428 149.437C160.041 149.766 157.655 149.107 155.845 147.708L154.281 146.474L149.508 157.172L150.331 157.913C151.812 159.229 154.363 160.052 157.161 160.135L155.598 166.636L163.415 165.813L165.144 158.571C170.822 156.185 175.513 150.589 177.076 144.005Z" fill="white" stroke="#251725" stroke-miterlimit="10" stroke-linecap="round" stroke-linejoin="round"/>
<path d="M44.4193 304.478L40.387 302.503" stroke="#251725" stroke-miterlimit="10" stroke-linecap="round" stroke-linejoin="round"/>
<path d="M48.4517 301.926L47.0527 297.729" stroke="#251725" stroke-miterlimit="10" stroke-linecap="round" stroke-linejoin="round"/>
<path d="M53.3893 300.61L54.7883 297.647" stroke="#251725" stroke-miterlimit="10" stroke-linecap="round" stroke-linejoin="round"/>
<path d="M295.908 113.145L294.344 109.03" stroke="#251725" stroke-miterlimit="10" stroke-linecap="round" stroke-linejoin="round"/>
<path d="M300.598 114.132L302.491 110.1" stroke="#251725" stroke-miterlimit="10" stroke-linecap="round" stroke-linejoin="round"/>
<path d="M305.042 116.601L308.087 115.449" stroke="#251725" stroke-miterlimit="10" stroke-linecap="round" stroke-linejoin="round"/>
<path d="M122.845 242.181C103.835 247.694 84.5784 259.298 77.9127 278.883C75.7731 285.22 74.9501 291.968 74.9501 298.798C73.5511 289.993 74.5387 280.447 78.3241 272.135C86.3066 255.101 104.658 244.732 122.845 242.181Z" fill="#251725"/>
<path d="M86.5535 255.841C86.5535 255.841 81.369 266.539 81.5336 268.103C81.6981 269.666 92.6432 263.412 92.6432 263.412L86.5535 255.841Z" fill="#251725" stroke="#251725" stroke-miterlimit="10" stroke-linecap="round" stroke-linejoin="round"/>
<path d="M192.712 118.824C206.537 108.702 225.465 105.492 241.841 110.841C247.272 112.652 252.375 115.367 256.901 118.824C251.881 116.273 246.696 114.133 241.265 112.734C225.053 108.455 207.607 111.417 192.712 118.824Z" fill="#251725"/>
<path d="M222.338 106.315C222.338 106.315 228.756 107.55 230.896 109.525C231.719 110.266 221.35 114.216 221.35 114.216C221.35 114.216 222.091 109.689 222.338 106.315Z" fill="#251725" stroke="#251725" stroke-miterlimit="10" stroke-linecap="round" stroke-linejoin="round"/>
<path d="M281.013 164.085C280.766 188.773 267.187 214.86 243.158 223.83C235.34 226.792 227.028 228.109 218.799 227.945C234.928 226.381 250.976 220.374 261.921 208.112C272.866 196.015 278.708 180.132 281.013 164.085Z" fill="#251725"/>
<path d="M228.18 222.431C228.18 222.431 221.761 225.805 219.128 227.945C216.824 229.755 229.497 231.812 229.415 231.072C228.921 225.147 229.168 221.526 228.18 222.431Z" fill="#251725" stroke="#251725" stroke-miterlimit="10" stroke-linecap="round" stroke-linejoin="round"/>
<path d="M326.274 224.817H320.102L317.057 230.166L320.102 235.433H326.274L329.319 230.166L326.274 224.817Z" stroke="#A499CE" stroke-miterlimit="10" stroke-linecap="round" stroke-linejoin="round"/>
<path d="M126.301 85.248H122.433L120.458 88.5398L122.433 91.9138H126.301L128.276 88.5398L126.301 85.248Z" stroke="#251725" stroke-miterlimit="10" stroke-linecap="round" stroke-linejoin="round"/>
<path d="M271.302 374.509H267.434L265.541 377.801L267.434 381.092H271.302L273.195 377.801L271.302 374.509Z" stroke="#251725" stroke-miterlimit="10" stroke-linecap="round" stroke-linejoin="round"/>
<path d="M16.5218 252.304H12.654L10.7613 255.595L12.654 258.969H16.5218L18.4146 255.595L16.5218 252.304Z" stroke="#A499CE" stroke-miterlimit="10" stroke-linecap="round" stroke-linejoin="round"/>
<path d="M322.159 201.281H311.955L306.77 210.169L311.955 219.057H322.159L327.344 210.169L322.159 201.281Z" stroke="#251725" stroke-miterlimit="10" stroke-linecap="round" stroke-linejoin="round"/>
<path d="M33.7211 264.647H23.4345L18.3323 273.535L23.4345 282.423H33.7211L38.8233 273.535L33.7211 264.647Z" stroke="#251725" stroke-miterlimit="10" stroke-linecap="round" stroke-linejoin="round"/>
<path d="M84.1669 128.699H73.9625L68.7781 137.587L73.9625 146.475H84.1669L89.2691 137.587L84.1669 128.699Z" stroke="#A499CE" stroke-miterlimit="10" stroke-linecap="round" stroke-linejoin="round"/>
<path d="M49.2746 356.98H35.5316L28.619 368.913L35.5316 380.928H49.2746L56.1872 368.913L49.2746 356.98Z" stroke="#A499CE" stroke-miterlimit="10" stroke-linecap="round" stroke-linejoin="round"/>
<path d="M25.4919 158.077L27.6315 161.78C29.1128 164.414 25.3273 169.434 19.073 173.055C12.8187 176.675 6.56441 177.498 5.00084 174.865L2.86121 171.162C4.34249 173.795 10.6791 172.972 16.9334 169.351C23.1054 165.813 26.9731 160.711 25.4919 158.077Z" stroke="#251725" stroke-miterlimit="10" stroke-linecap="round" stroke-linejoin="round"/>
<path d="M16.9054 169.436C23.1635 165.823 27.0024 160.756 25.4798 158.119C23.9573 155.482 17.6498 156.273 11.3917 159.886C5.13361 163.5 1.2947 168.566 2.81725 171.204C4.3398 173.841 10.6473 173.049 16.9054 169.436Z" fill="white" stroke="#251725" stroke-miterlimit="10" stroke-linecap="round" stroke-linejoin="round"/>
<mask id="mask0_3082_7763" style="mask-type:alpha" maskUnits="userSpaceOnUse" x="2" y="157" width="27" height="20">
<path d="M25.4919 158.077L27.6315 161.78C29.1128 164.414 25.3273 169.434 19.073 173.055C12.8187 176.675 6.56441 177.498 5.00084 174.865L2.86121 171.162C4.34249 173.795 10.6791 172.972 16.9334 169.351C23.1054 165.813 26.9731 160.711 25.4919 158.077Z" fill="#D9D9D9" stroke="#251725" stroke-miterlimit="10" stroke-linecap="round" stroke-linejoin="round"/>
</mask>
<g mask="url(#mask0_3082_7763)">
<path d="M25.4919 158.077L27.6315 161.78C29.1128 164.414 25.3273 169.434 19.073 173.055C12.8187 176.675 6.56441 177.498 5.00084 174.865L2.86121 171.162C4.34249 173.795 10.6791 172.972 16.9334 169.351C23.1054 165.813 26.9731 160.711 25.4919 158.077Z" fill="white"/>
<path d="M10.7613 180.625L4.34247 169.434" stroke="#251725" stroke-miterlimit="10" stroke-linecap="round" stroke-linejoin="round"/>
<path d="M14.6291 178.404L8.21027 167.212" stroke="#251725" stroke-miterlimit="10" stroke-linecap="round" stroke-linejoin="round"/>
<path d="M18.4969 176.181L12.078 164.989" stroke="#251725" stroke-miterlimit="10" stroke-linecap="round" stroke-linejoin="round"/>
<path d="M22.3647 173.96L15.8635 162.769" stroke="#251725" stroke-miterlimit="10" stroke-linecap="round" stroke-linejoin="round"/>
<path d="M26.2325 171.738L19.7313 160.546" stroke="#251725" stroke-miterlimit="10" stroke-linecap="round" stroke-linejoin="round"/>
<path d="M30.0179 169.516L23.5991 158.324" stroke="#251725" stroke-miterlimit="10" stroke-linecap="round" stroke-linejoin="round"/>
<path d="M25.4919 158.077L27.6315 161.78C29.1128 164.414 25.3273 169.434 19.073 173.055C12.8187 176.675 6.56441 177.498 5.00084 174.865L2.86121 171.162C4.34249 173.795 10.6791 172.972 16.9334 169.351C23.1054 165.813 26.9731 160.711 25.4919 158.077Z" stroke="#251725" stroke-miterlimit="10" stroke-linecap="round" stroke-linejoin="round"/>
</g>
<path d="M346.929 267.363L345.366 270.079C344.214 271.972 347.094 275.757 351.702 278.391C356.311 281.024 360.919 281.6 362.071 279.707L363.635 276.992C362.483 278.884 357.874 278.308 353.266 275.675C348.658 273.042 345.86 269.256 346.929 267.363Z" stroke="#251725" stroke-miterlimit="10" stroke-linecap="round" stroke-linejoin="round"/>
<path d="M357.298 268.679C352.69 266.046 348.082 265.47 346.929 267.363C345.777 269.255 348.658 273.041 353.266 275.674C357.874 278.308 362.483 278.884 363.635 276.991C364.705 275.016 361.907 271.313 357.298 268.679Z" fill="white" stroke="#251725" stroke-miterlimit="10" stroke-linecap="round" stroke-linejoin="round"/>
<path d="M346.929 267.363L345.366 270.079C344.214 271.972 347.094 275.757 351.702 278.391C356.311 281.024 360.919 281.6 362.071 279.707L363.635 276.992C362.483 278.884 357.874 278.308 353.266 275.675C348.658 273.042 345.86 269.256 346.929 267.363Z" fill="white"/>
<mask id="mask1_3082_7763" style="mask-type:alpha" maskUnits="userSpaceOnUse" x="344" y="266" width="21" height="16">
<path d="M346.929 267.363L345.366 270.079C344.214 271.972 347.094 275.757 351.702 278.391C356.311 281.024 360.919 281.6 362.071 279.707L363.635 276.992C362.483 278.884 357.874 278.308 353.266 275.675C348.658 273.042 345.86 269.256 346.929 267.363Z" fill="#D9D9D9" stroke="#251725" stroke-miterlimit="10" stroke-linecap="round" stroke-linejoin="round"/>
</mask>
<g mask="url(#mask1_3082_7763)">
<path d="M357.792 283.905L362.483 275.676" stroke="#251725" stroke-miterlimit="10" stroke-linecap="round" stroke-linejoin="round"/>
<path d="M353.019 281.188L357.792 272.959" stroke="#251725" stroke-miterlimit="10" stroke-linecap="round" stroke-linejoin="round"/>
<path d="M348.328 278.473L353.019 270.244" stroke="#251725" stroke-miterlimit="10" stroke-linecap="round" stroke-linejoin="round"/>
<path d="M343.555 275.758L348.328 267.528" stroke="#251725" stroke-miterlimit="10" stroke-linecap="round" stroke-linejoin="round"/>
</g>
<path d="M346.929 267.363L345.366 270.079C344.214 271.972 347.094 275.757 351.702 278.391C356.311 281.024 360.919 281.6 362.071 279.707L363.635 276.992C362.483 278.884 357.874 278.308 353.266 275.675C348.658 273.042 345.86 269.256 346.929 267.363Z" stroke="#251725" stroke-miterlimit="10" stroke-linecap="round" stroke-linejoin="round"/>
<path d="M372.934 109.442L371.288 114.051C370.136 117.343 362.812 117.754 354.912 114.956C347.012 112.158 341.663 107.22 342.815 103.929L344.461 99.3203C343.309 102.612 348.74 107.55 356.558 110.348C364.376 113.146 371.7 112.816 372.934 109.442Z" stroke="#251725" stroke-miterlimit="10" stroke-linecap="round" stroke-linejoin="round"/>
<path d="M372.873 109.43C374.048 106.133 368.649 101.198 360.814 98.4055C352.979 95.6134 345.675 96.0224 344.5 99.319C343.326 102.616 348.725 107.552 356.559 110.344C364.394 113.136 371.698 112.727 372.873 109.43Z" fill="white" stroke="#251725" stroke-miterlimit="10" stroke-linecap="round" stroke-linejoin="round"/>
<path d="M372.934 109.442L371.288 114.051C370.136 117.343 362.812 117.754 354.912 114.956C347.012 112.158 341.663 107.22 342.815 103.929L344.461 99.3203C343.309 102.612 348.74 107.55 356.558 110.348C364.376 113.146 371.7 112.816 372.934 109.442Z" fill="white"/>
<mask id="mask2_3082_7763" style="mask-type:alpha" maskUnits="userSpaceOnUse" x="342" y="98" width="32" height="20">
<path d="M372.934 109.442L371.288 114.051C370.136 117.343 362.812 117.754 354.912 114.956C347.012 112.158 341.663 107.22 342.815 103.929L344.461 99.3203C343.309 102.612 348.74 107.55 356.558 110.348C364.376 113.146 371.7 112.816 372.934 109.442Z" fill="#D9D9D9" stroke="#251725" stroke-miterlimit="10" stroke-linecap="round" stroke-linejoin="round"/>
</mask>
<g mask="url(#mask2_3082_7763)">
<path d="M342.074 113.392L347.094 99.3203" stroke="#251725" stroke-miterlimit="10" stroke-linecap="round" stroke-linejoin="round"/>
<path d="M346.929 115.121L351.949 101.049" stroke="#251725" stroke-miterlimit="10" stroke-linecap="round" stroke-linejoin="round"/>
<path d="M351.785 116.849L356.805 102.777" stroke="#251725" stroke-miterlimit="10" stroke-linecap="round" stroke-linejoin="round"/>
<path d="M356.64 118.577L361.66 104.505" stroke="#251725" stroke-miterlimit="10" stroke-linecap="round" stroke-linejoin="round"/>
<path d="M361.495 120.306L366.433 106.233" stroke="#251725" stroke-miterlimit="10" stroke-linecap="round" stroke-linejoin="round"/>
<path d="M366.268 122.033L371.288 107.961" stroke="#251725" stroke-miterlimit="10" stroke-linecap="round" stroke-linejoin="round"/>
</g>
<path d="M372.934 109.442L371.288 114.051C370.136 117.343 362.812 117.754 354.912 114.956C347.012 112.158 341.663 107.22 342.815 103.929L344.461 99.3203C343.309 102.612 348.74 107.55 356.558 110.348C364.376 113.146 371.7 112.816 372.934 109.442Z" stroke="#251725" stroke-miterlimit="10" stroke-linecap="round" stroke-linejoin="round"/>
<path d="M358.697 272.383C357.957 271.724 357.052 271.395 355.817 271.148C354.912 270.984 354.665 270.901 354.5 270.819C354.254 270.572 354.583 270.572 354.747 270.572C355.159 270.572 355.57 270.654 355.899 270.654L356.311 270.737L355.488 269.667L355.241 269.585C354.83 269.502 354.418 269.42 354.007 269.42L353.266 268.762L352.032 268.844L352.855 269.585C352.278 269.832 352.361 270.408 353.101 270.984C354.089 271.807 355.323 272.053 356.229 272.218C356.969 272.3 357.216 272.465 357.381 272.547C357.628 272.794 357.381 272.876 357.134 272.876C356.805 272.959 356.311 272.876 355.817 272.794L355.323 272.712L356.146 273.782L356.393 273.864C356.805 273.946 357.381 274.029 357.874 274.029L358.615 274.605L359.685 274.44L358.944 273.782C359.52 273.535 359.438 272.959 358.697 272.383Z" fill="#251725"/>
<path d="M249.33 346.695L249.741 350.481C250.07 353.196 245.05 355.912 238.714 356.653C232.295 357.393 226.863 355.748 226.617 353.032L226.205 349.246C226.534 351.962 231.966 353.526 238.302 352.867C244.721 352.127 249.659 349.411 249.33 346.695Z" stroke="#251725" stroke-miterlimit="10" stroke-linecap="round" stroke-linejoin="round"/>
<path d="M237.232 343.074C243.651 342.334 249.083 343.979 249.33 346.695C249.659 349.411 244.639 352.126 238.302 352.867C231.966 353.608 226.452 351.962 226.205 349.246C225.876 346.53 230.814 343.815 237.232 343.074Z" fill="white" stroke="#251725" stroke-miterlimit="10" stroke-linecap="round" stroke-linejoin="round"/>
<mask id="mask3_3082_7763" style="mask-type:alpha" maskUnits="userSpaceOnUse" x="225" y="346" width="26" height="12">
<path d="M249.33 346.695L249.741 350.481C250.07 353.196 245.05 355.912 238.714 356.653C232.295 357.393 226.863 355.748 226.617 353.032L226.205 349.246C226.534 351.962 231.966 353.526 238.302 352.867C244.721 352.127 249.659 349.411 249.33 346.695Z" fill="#D9D9D9" stroke="#251725" stroke-miterlimit="10" stroke-linecap="round" stroke-linejoin="round"/>
</mask>
<g mask="url(#mask3_3082_7763)">
<path d="M249.33 346.695L249.741 350.481C250.07 353.196 245.05 355.912 238.714 356.653C232.295 357.393 226.863 355.748 226.617 353.032L226.205 349.246C226.534 351.962 231.966 353.526 238.302 352.867C244.721 352.127 249.659 349.411 249.33 346.695Z" fill="white"/>
<path d="M229.25 359.863L228.016 348.342" stroke="#251725" stroke-miterlimit="10" stroke-linecap="round" stroke-linejoin="round"/>
<path d="M234.188 359.286L232.953 347.848" stroke="#251725" stroke-miterlimit="10" stroke-linecap="round" stroke-linejoin="round"/>
<path d="M239.125 358.71L237.891 347.271" stroke="#251725" stroke-miterlimit="10" stroke-linecap="round" stroke-linejoin="round"/>
<path d="M244.063 358.216L242.828 346.695" stroke="#251725" stroke-miterlimit="10" stroke-linecap="round" stroke-linejoin="round"/>
<path d="M249 357.641L247.766 346.202" stroke="#251725" stroke-miterlimit="10" stroke-linecap="round" stroke-linejoin="round"/>
<path d="M249.33 346.695L249.741 350.481C250.07 353.196 245.05 355.912 238.714 356.653C232.295 357.393 226.863 355.748 226.617 353.032L226.205 349.246C226.534 351.962 231.966 353.526 238.302 352.867C244.721 352.127 249.659 349.411 249.33 346.695Z" stroke="#251725" stroke-miterlimit="10" stroke-linecap="round" stroke-linejoin="round"/>
</g>
<path d="M240.195 348.917C240.689 348.176 240.277 347.6 238.796 347.189C237.809 346.859 237.726 346.777 237.808 346.612C237.973 346.366 238.549 346.366 238.796 346.448C239.537 346.53 239.948 346.612 240.277 346.777L240.689 346.942L242.088 345.872L241.841 345.79C241.429 345.625 240.936 345.543 240.442 345.46L240.936 344.802L238.961 344.72L238.385 345.378C236.903 345.46 235.669 345.954 235.175 346.612C234.434 347.518 235.587 347.929 236.656 348.258C237.562 348.505 237.562 348.67 237.479 348.834C237.315 349.081 236.656 349.164 236.163 349.081C235.504 349.081 234.846 348.917 234.434 348.67L234.023 348.505L232.377 349.657L232.624 349.74C232.953 349.987 233.694 350.151 234.434 350.233L233.858 351.056L236.08 351.221L236.739 350.316C238.302 350.151 239.619 349.657 240.195 348.917Z" fill="#251725"/>
<path d="M102.765 310.814L106.057 312.954C108.361 314.518 113.217 311.308 116.92 305.794C120.623 300.281 121.693 294.603 119.389 293.039L116.097 290.899C118.401 292.463 117.331 298.141 113.628 303.655C109.925 309.169 105.069 312.378 102.765 310.814Z" stroke="#251725" stroke-miterlimit="10" stroke-linecap="round" stroke-linejoin="round"/>
<path d="M105.152 298.059C101.449 303.573 100.379 309.251 102.683 310.815C104.987 312.378 109.842 309.169 113.546 303.655C117.249 298.141 118.319 292.463 116.014 290.9C113.71 289.336 108.855 292.546 105.152 298.059Z" fill="white" stroke="#251725" stroke-miterlimit="10" stroke-linecap="round" stroke-linejoin="round"/>
<path d="M102.765 310.813L106.057 312.953C108.361 314.517 113.216 311.307 116.92 305.794C120.623 300.28 121.693 294.602 119.388 293.038L116.097 290.898C118.401 292.462 117.331 298.14 113.628 303.654C109.925 309.168 105.069 312.377 102.765 310.813Z" fill="white"/>
<mask id="mask4_3082_7763" style="mask-type:alpha" maskUnits="userSpaceOnUse" x="102" y="290" width="19" height="24">
<path d="M102.765 310.813L106.057 312.953C108.361 314.517 113.216 311.307 116.92 305.794C120.623 300.28 121.693 294.602 119.388 293.038L116.097 290.898C118.401 292.462 117.331 298.14 113.628 303.654C109.925 309.168 105.069 312.377 102.765 310.813Z" fill="white"/>
</mask>
<g mask="url(#mask4_3082_7763)">
<path d="M124.161 298.716L114.369 292.133" stroke="#251725" stroke-miterlimit="10" stroke-linecap="round" stroke-linejoin="round"/>
<path d="M121.364 302.996L111.488 296.412" stroke="#251725" stroke-miterlimit="10" stroke-linecap="round" stroke-linejoin="round"/>
<path d="M118.566 307.192L108.69 300.608" stroke="#251725" stroke-miterlimit="10" stroke-linecap="round" stroke-linejoin="round"/>
<path d="M115.685 311.472L105.892 304.889" stroke="#251725" stroke-miterlimit="10" stroke-linecap="round" stroke-linejoin="round"/>
<path d="M112.887 315.669L103.012 309.168" stroke="#251725" stroke-miterlimit="10" stroke-linecap="round" stroke-linejoin="round"/>
</g>
<path d="M102.765 310.813L106.057 312.953C108.361 314.517 113.216 311.307 116.92 305.794C120.623 300.28 121.693 294.602 119.388 293.038L116.097 290.898C118.401 292.462 117.331 298.14 113.628 303.654C109.925 309.168 105.069 312.377 102.765 310.813Z" stroke="#251725" stroke-miterlimit="10" stroke-linecap="round" stroke-linejoin="round"/>
<path d="M111.324 301.187C111.735 300.117 111.406 299.541 110.254 299.376C109.431 299.211 109.349 299.047 109.431 298.882C109.596 298.553 110.089 298.389 110.254 298.389C110.912 298.306 111.241 298.389 111.488 298.471L111.817 298.553L112.97 296.907L112.723 296.825C112.394 296.743 112.064 296.66 111.571 296.66L111.982 295.673L110.336 295.92L109.842 296.99C108.608 297.483 107.456 298.389 107.044 299.458C106.468 300.857 107.456 301.186 108.443 301.269C109.184 301.351 109.266 301.598 109.184 301.763C109.02 302.092 108.526 302.339 108.114 302.421C107.538 302.585 107.044 302.503 106.633 302.421L106.304 302.256L104.905 304.231L105.069 304.314C105.399 304.478 106.057 304.478 106.715 304.396L106.139 305.548L107.95 305.054L108.443 303.82C109.842 303.244 110.912 302.174 111.324 301.187Z" fill="#251725"/>
<path d="M15.9458 165.895C16.7688 164.99 16.6042 164.414 15.2875 163.92C14.4646 163.591 14.3823 163.426 14.4646 163.344C14.7114 163.015 15.3698 163.015 15.6167 163.015C16.3573 163.015 16.6865 163.179 17.0157 163.344L17.3448 163.509L19.2376 162.11L18.9907 162.027C18.6615 161.863 18.2501 161.78 17.674 161.698L18.4969 160.793H16.4396L15.6167 161.78C14.0531 162.027 12.6541 162.686 11.9135 163.509C10.926 164.578 11.8312 165.072 12.8187 165.401C13.6416 165.648 13.5593 165.813 13.3948 166.06C13.1479 166.389 12.4895 166.471 12.0781 166.471C11.502 166.471 10.9259 166.307 10.5968 166.142L10.2676 165.977L8.45715 167.376L8.62174 167.459C8.86862 167.706 9.44467 167.87 10.1853 167.87L9.44467 168.693H11.4197L12.2426 167.788C13.6416 167.376 15.1229 166.718 15.9458 165.895Z" fill="#251725"/>
<path d="M363.47 103.517C361.907 102.859 360.261 102.694 358.368 102.941C357.052 103.106 356.64 103.106 356.393 102.941C355.899 102.694 356.311 102.529 356.475 102.447C357.052 102.2 357.628 102.118 358.121 102.118L358.697 102.036L356.887 100.884H356.475C355.899 100.966 355.323 101.048 354.83 101.213L353.513 100.637L352.114 101.295L353.513 101.953C352.937 102.612 353.348 103.352 354.747 104.011C356.558 104.834 358.451 104.751 359.849 104.505C361.002 104.34 361.495 104.422 361.825 104.587C362.318 104.834 362.154 105.081 361.825 105.245C361.331 105.492 360.59 105.657 359.767 105.657H359.027L361.084 107.056H361.495C362.236 107.056 363.059 106.891 363.8 106.644L365.445 107.385L367.009 106.562L365.116 105.739C365.692 105.081 365.116 104.175 363.47 103.517Z" fill="#251725"/>
<path d="M271.556 317.943L272.285 317.052C268.155 311.79 266.293 304.746 267.427 297.297C269.532 283.29 281.919 270.984 296.25 269.527C301.108 269.041 305.723 269.85 309.609 271.632L310.58 270.417L316.248 276.166C316.329 276.247 316.41 276.327 316.491 276.408L316.815 276.732C321.43 281.671 323.859 288.796 322.887 297.054C320.701 314.38 304.508 327.254 288.477 325.634C284.996 325.311 281.838 324.258 279.086 322.72H279.005C278.195 322.234 277.385 321.748 276.657 321.181L271.556 317.943Z" fill="url(#paint4_linear_3082_7763)" stroke="#251725" stroke-miterlimit="10" stroke-linecap="round" stroke-linejoin="round"/>
<mask id="mask5_3082_7763" style="mask-type:alpha" maskUnits="userSpaceOnUse" x="266" y="268" width="58" height="59">
<path d="M271.556 317.942L272.285 317.051C268.155 311.789 266.293 304.745 267.427 297.296C269.532 283.289 281.919 270.983 296.25 269.526C301.108 269.04 305.723 269.849 309.609 271.631L310.58 270.416L316.248 276.165C316.329 276.246 316.41 276.327 316.491 276.407L316.815 276.731C321.43 281.67 323.859 288.795 322.887 297.053C320.701 314.379 304.508 327.253 288.477 325.633C284.996 325.31 281.838 324.257 279.086 322.719H279.005C278.195 322.233 277.385 321.747 276.657 321.18L271.556 317.942Z" fill="white" stroke="#251725" stroke-miterlimit="10" stroke-linecap="round" stroke-linejoin="round"/>
</mask>
<g mask="url(#mask5_3082_7763)">
<path d="M296.574 333.001L276.738 312.922" stroke="#251725" stroke-miterlimit="10" stroke-linecap="round" stroke-linejoin="round"/>
<path d="M303.456 326.119L283.62 306.121" stroke="#251725" stroke-miterlimit="10" stroke-linecap="round" stroke-linejoin="round"/>
<path d="M310.338 319.236L290.502 299.238" stroke="#251725" stroke-miterlimit="10" stroke-linecap="round" stroke-linejoin="round"/>
<path d="M317.219 312.436L297.383 292.438" stroke="#251725" stroke-miterlimit="10" stroke-linecap="round" stroke-linejoin="round"/>
<path d="M324.182 305.554L304.265 285.556" stroke="#251725" stroke-miterlimit="10" stroke-linecap="round" stroke-linejoin="round"/>
<path d="M331.064 298.753L311.147 278.755" stroke="#251725" stroke-miterlimit="10" stroke-linecap="round" stroke-linejoin="round"/>
</g>
<path d="M262.326 293.573C260.14 308.147 269.127 321.182 283.862 322.639C300.298 324.34 316.896 311.142 319.082 293.411C321.268 275.923 308.232 263.455 291.878 265.155C277.142 266.612 264.512 279.243 262.326 293.573Z" fill="url(#paint5_linear_3082_7763)" stroke="#251725" stroke-miterlimit="10" stroke-linecap="round" stroke-linejoin="round"/>
<path d="M266.131 293.573C264.269 305.961 272.042 316.81 284.51 317.862C298.112 318.996 311.714 308.066 313.576 293.411C315.438 279 304.832 268.475 291.23 269.689C278.762 270.742 267.993 281.348 266.131 293.573Z" fill="url(#paint6_linear_3082_7763)" stroke="#251725" stroke-miterlimit="10" stroke-linecap="round" stroke-linejoin="round"/>
<path d="M277.952 279.161C279.086 278.109 280.381 277.299 281.838 276.651" stroke="#251725" stroke-miterlimit="10" stroke-linecap="round" stroke-linejoin="round"/>
<path d="M274.552 283.291C274.957 282.562 275.442 281.914 275.928 281.348" stroke="#251725" stroke-miterlimit="10" stroke-linecap="round" stroke-linejoin="round"/>
<path d="M286.696 300.78L289.449 293.331L294.712 291.874L293.983 289.283L290.582 290.173L293.902 281.024H286.21L282.243 292.44L277.062 293.817L277.709 296.488L281.11 295.517L277.952 304.585H300.784L302.646 300.78H286.696Z" fill="#251725"/>
<path d="M79.56 221.918L78.8105 220.981C82.9325 215.735 84.8062 208.74 83.682 201.245C81.5585 187.255 69.1925 174.952 54.8278 173.453C49.9563 172.953 45.3971 173.765 41.4625 175.576L40.4632 174.389L34.8423 180.198C34.7798 180.26 34.6549 180.385 34.5924 180.448L34.2802 180.76C29.6585 185.694 27.2228 192.814 28.222 201.058C30.408 218.42 46.5838 231.223 62.6347 229.6C66.1322 229.225 69.2549 228.226 72.0654 226.664H72.1279C72.9398 226.227 73.7517 225.665 74.5011 225.103L79.56 221.918Z" fill="url(#paint7_linear_3082_7763)" stroke="#251725" stroke-miterlimit="10" stroke-linecap="round" stroke-linejoin="round"/>
<mask id="mask6_3082_7763" style="mask-type:alpha" maskUnits="userSpaceOnUse" x="27" y="172" width="58" height="59">
<path d="M79.56 221.917L78.8105 220.98C82.9325 215.734 84.8062 208.739 83.682 201.244C81.5585 187.254 69.1925 174.951 54.8278 173.452C49.9563 172.952 45.3971 173.764 41.4625 175.575L40.4632 174.388L34.8423 180.197C34.7798 180.259 34.6549 180.384 34.5924 180.447L34.2802 180.759C29.6585 185.693 27.2228 192.813 28.222 201.057C30.408 218.419 46.5838 231.222 62.6347 229.599C66.1322 229.224 69.2549 228.225 72.0654 226.663H72.1279C72.9398 226.226 73.7517 225.664 74.5011 225.102L79.56 221.917Z" fill="white" stroke="#251725" stroke-miterlimit="10" stroke-linecap="round" stroke-linejoin="round"/>
</mask>
<g mask="url(#mask6_3082_7763)">
<path d="M54.5156 236.969L74.4387 216.921" stroke="#251725" stroke-miterlimit="10" stroke-linecap="round" stroke-linejoin="round"/>
<path d="M47.6454 230.099L67.5061 210.051" stroke="#251725" stroke-miterlimit="10" stroke-linecap="round" stroke-linejoin="round"/>
<path d="M40.7755 223.29L60.6362 203.242" stroke="#251725" stroke-miterlimit="10" stroke-linecap="round" stroke-linejoin="round"/>
<path d="M33.843 216.42L53.7661 196.372" stroke="#251725" stroke-miterlimit="10" stroke-linecap="round" stroke-linejoin="round"/>
<path d="M26.9728 209.551L46.8335 189.565" stroke="#251725" stroke-miterlimit="10" stroke-linecap="round" stroke-linejoin="round"/>
<path d="M20.0404 202.743L39.9635 182.695" stroke="#251725" stroke-miterlimit="10" stroke-linecap="round" stroke-linejoin="round"/>
</g>
<path d="M88.8033 197.56C90.9892 212.111 81.9957 225.165 67.2563 226.663C50.8307 228.35 34.2177 215.172 31.9693 197.435C29.7834 179.947 42.774 167.519 59.1996 169.143C74.0015 170.579 86.6174 183.195 88.8033 197.56Z" fill="url(#paint8_linear_3082_7763)" stroke="#251725" stroke-miterlimit="10" stroke-linecap="round" stroke-linejoin="round"/>
<path d="M84.9936 197.56C86.8672 209.926 79.0604 220.855 66.6318 221.855C53.0167 222.979 39.4015 211.987 37.5278 197.435C35.7167 183.008 46.2715 172.515 59.8867 173.702C72.3152 174.701 83.1199 185.318 84.9936 197.56Z" fill="url(#paint9_linear_3082_7763)" stroke="#251725" stroke-miterlimit="10" stroke-linecap="round" stroke-linejoin="round"/>
<path d="M45.0848 183.131C46.0841 181.945 47.2083 180.883 48.4574 179.946" stroke="#251725" stroke-miterlimit="10" stroke-linecap="round" stroke-linejoin="round"/>
<path d="M42.3994 187.816C42.7116 187.066 43.0239 186.317 43.3986 185.63" stroke="#251725" stroke-miterlimit="10" stroke-linecap="round" stroke-linejoin="round"/>
<path d="M74.2513 203.18C74.0639 201.806 73.5018 200.557 72.5026 199.495C71.5657 198.433 70.3166 197.746 68.8802 197.372C70.0668 197.059 70.9412 196.435 71.5033 195.498C72.0654 194.561 72.2527 193.375 72.0654 191.938C71.8156 190.002 70.9412 188.441 69.5047 187.379C68.5054 186.567 67.2563 186.067 65.7574 185.818L65.2578 182.445L62.4473 182.258L62.8845 185.505L59.6993 185.38L59.2621 182.133L56.3267 181.945L56.7639 185.255L52.4545 185.068L55.8895 210.612L60.1989 210.425L60.5737 213.36L63.509 213.235L63.1343 210.362L66.3195 210.237L66.6942 213.11L69.5047 212.985L69.0675 210.05C70.6914 209.738 72.0029 209.176 72.8148 208.239C74.1264 206.865 74.5636 205.241 74.2513 203.18ZM66.5693 192.875C66.8192 194.624 65.9448 195.498 63.9462 195.436L60.074 195.373L59.3246 190.002L63.1343 190.127C65.1953 190.252 66.3195 191.126 66.5693 192.875ZM65.6325 205.179L61.448 205.303L60.6986 199.683H64.8831C65.9448 199.683 66.7567 199.932 67.3813 200.432C68.0058 200.932 68.3805 201.619 68.5054 202.493C68.6928 204.242 67.756 205.179 65.6325 205.179Z" fill="#251725"/>
<path d="M166.423 45.0237C169.711 35.7991 154.585 21.9812 132.64 14.1605C110.695 6.33987 90.2397 7.47801 86.9523 16.7026C83.6649 25.9272 98.7902 39.7452 120.736 47.5658C142.681 55.3864 163.136 54.2483 166.423 45.0237Z" fill="url(#paint10_linear_3082_7763)" stroke="#251725" stroke-miterlimit="10" stroke-linecap="round" stroke-linejoin="round"/>
<path d="M161.878 41.6929C164.445 34.4901 151.023 23.1265 131.9 16.3116C112.777 9.49667 95.1934 9.81111 92.6266 17.0139C90.0597 24.2167 103.481 35.5802 122.604 42.3952C141.728 49.2101 159.311 48.8957 161.878 41.6929Z" fill="url(#paint11_linear_3082_7763)" stroke="#251725" stroke-miterlimit="10" stroke-linecap="round" stroke-linejoin="round"/>
<path d="M101.311 26.9641C99.0444 24.94 97.4252 22.9159 96.6155 21.0537L101.311 26.9641Z" fill="#A499CE"/>
<path d="M101.311 26.9641C99.0444 24.94 97.4252 22.9159 96.6155 21.0537" stroke="#251725" stroke-miterlimit="10" stroke-linecap="round" stroke-linejoin="round"/>
<path d="M106.331 30.7688C105.603 30.283 104.874 29.7163 104.145 29.2305L106.331 30.7688Z" fill="#A499CE"/>
<path d="M106.331 30.7688C105.603 30.283 104.874 29.7163 104.145 29.2305" stroke="#251725" stroke-miterlimit="10" stroke-linecap="round" stroke-linejoin="round"/>
<path d="M105.36 20.6497L119.043 32.5514L129.73 29.3129L123.496 20.083L105.36 20.6497Z" fill="#251725"/>
<path d="M134.426 31.013L123.576 34.1706L150.942 36.9233L128.029 21.7021L134.426 31.013Z" fill="#251725"/>
<path d="M166.487 45.0199L163.249 54.0879C159.929 63.3177 139.526 64.4512 117.585 56.5977C95.6441 48.7443 80.5039 34.9804 83.7424 25.7506L86.981 16.6826C83.6615 25.9125 98.8017 39.6763 120.824 47.5298C142.684 55.3833 163.168 54.2498 166.487 45.0199Z" fill="url(#paint12_linear_3082_7763)"/>
<mask id="mask7_3082_7763" style="mask-type:alpha" maskUnits="userSpaceOnUse" x="82" y="16" width="85" height="47">
<path d="M166.487 45.0199L163.249 54.0879C159.929 63.3177 139.526 64.4512 117.585 56.5977C95.6441 48.7443 80.5039 34.9804 83.7425 25.7506L86.981 16.6826C83.6615 25.9125 98.8017 39.6763 120.824 47.5298C142.684 55.3833 163.168 54.2498 166.487 45.0199Z" fill="#D9D9D9" stroke="#251725" stroke-miterlimit="10" stroke-linecap="round" stroke-linejoin="round"/>
</mask>
<g mask="url(#mask7_3082_7763)">
<path d="M80.3421 56.0311L94.3488 16.7637" stroke="#251725" stroke-miterlimit="10" stroke-linecap="round" stroke-linejoin="round"/>
<path d="M93.8631 60.8894L107.87 21.541" stroke="#251725" stroke-miterlimit="10" stroke-linecap="round" stroke-linejoin="round"/>
<path d="M107.384 65.6658L121.391 26.3984" stroke="#251725" stroke-miterlimit="10" stroke-linecap="round" stroke-linejoin="round"/>
<path d="M120.905 70.5232L134.912 31.1748" stroke="#251725" stroke-miterlimit="10" stroke-linecap="round" stroke-linejoin="round"/>
<path d="M134.426 75.3006L148.433 36.0332" stroke="#251725" stroke-miterlimit="10" stroke-linecap="round" stroke-linejoin="round"/>
<path d="M148.028 80.1589L162.034 40.8105" stroke="#251725" stroke-miterlimit="10" stroke-linecap="round" stroke-linejoin="round"/>
</g>
<path d="M166.487 45.0199L163.249 54.0879C159.929 63.3177 139.526 64.4512 117.585 56.5977C95.6441 48.7443 80.5039 34.9804 83.7424 25.7506L86.981 16.6826C83.6615 25.9125 98.8017 39.6763 120.824 47.5298C142.684 55.3833 163.168 54.2498 166.487 45.0199Z" stroke="#251725" stroke-miterlimit="10" stroke-linecap="round" stroke-linejoin="round"/>
<path d="M364.471 166.604C379.884 157.704 389.343 145.232 385.597 138.745C381.852 132.259 366.321 134.214 350.908 143.113C335.495 152.012 326.036 164.485 329.781 170.972C333.526 177.458 349.057 175.503 364.471 166.604Z" fill="url(#paint13_linear_3082_7763)" stroke="#251725" stroke-miterlimit="10" stroke-linecap="round" stroke-linejoin="round"/>
<path d="M351.855 144.712C365.231 136.998 378.42 134.945 381.406 140.046C384.392 145.148 375.931 155.599 362.618 163.314C349.242 171.028 336.053 173.081 333.066 167.98C330.08 162.816 338.541 152.426 351.855 144.712Z" fill="url(#paint14_linear_3082_7763)" stroke="#251725" stroke-miterlimit="10" stroke-linecap="round" stroke-linejoin="round"/>
<path d="M385.637 138.739L389.494 144.898C393.227 151.369 383.77 163.873 368.341 172.77C352.913 181.666 337.359 183.657 333.627 177.187L329.769 171.028C333.502 177.498 349.055 175.507 364.484 166.611C379.913 157.714 389.37 145.209 385.637 138.739Z" fill="url(#paint15_linear_3082_7763)"/>
<mask id="mask8_3082_7763" style="mask-type:alpha" maskUnits="userSpaceOnUse" x="329" y="138" width="62" height="44">
<path d="M385.637 138.739L389.494 144.898C393.227 151.369 383.77 163.873 368.341 172.77C352.913 181.666 337.359 183.657 333.627 177.187L329.769 171.028C333.502 177.498 349.055 175.507 364.484 166.611C379.913 157.714 389.37 145.209 385.637 138.739Z" fill="#D9D9D9" stroke="#251725" stroke-miterlimit="10" stroke-linecap="round" stroke-linejoin="round"/>
</mask>
<g mask="url(#mask8_3082_7763)">
<path d="M349.429 194.359L333.502 166.736" stroke="#251725" stroke-miterlimit="10" stroke-linecap="round" stroke-linejoin="round"/>
<path d="M358.947 188.822L342.958 161.262" stroke="#251725" stroke-miterlimit="10" stroke-linecap="round" stroke-linejoin="round"/>
<path d="M368.466 183.347L352.477 155.725" stroke="#251725" stroke-miterlimit="10" stroke-linecap="round" stroke-linejoin="round"/>
<path d="M377.922 177.873L361.996 150.25" stroke="#251725" stroke-miterlimit="10" stroke-linecap="round" stroke-linejoin="round"/>
<path d="M387.441 172.397L371.514 144.774" stroke="#251725" stroke-miterlimit="10" stroke-linecap="round" stroke-linejoin="round"/>
<path d="M396.959 166.86L381.033 139.3" stroke="#251725" stroke-miterlimit="10" stroke-linecap="round" stroke-linejoin="round"/>
</g>
<path d="M385.637 138.739L389.494 144.898C393.227 151.369 383.77 163.873 368.341 172.77C352.913 181.666 337.359 183.657 333.627 177.187L329.769 171.028C333.502 177.498 349.055 175.507 364.484 166.611C379.913 157.714 389.37 145.209 385.637 138.739Z" stroke="#251725" stroke-miterlimit="10" stroke-linecap="round" stroke-linejoin="round"/>
<path d="M365.542 152.053C364.546 152.115 363.551 152.426 362.618 152.986C361.436 153.608 360.254 153.795 359.507 153.484L359.072 153.297C358.325 152.986 358.138 152.302 358.574 151.431L358.761 150.995C359.196 150.186 360.005 149.253 361.125 148.693C362.556 147.884 363.8 146.702 363.986 145.645C364.173 144.711 363.427 144.152 362.12 144.276C360.191 144.525 357.765 146.018 356.894 147.511C356.396 148.382 356.521 149.129 357.205 149.377C357.827 149.626 358.014 150.186 357.578 151.057L357.267 151.617C356.832 152.488 355.837 153.421 354.654 154.106L353.97 154.479C352.788 155.101 351.606 155.412 350.984 155.101C350.486 154.852 349.74 154.852 348.806 155.163C347.189 155.661 345.26 156.967 343.954 158.461C341.527 161.26 341.963 163.438 344.949 162.691C346.629 162.256 348.682 160.887 350.113 159.332C350.548 158.896 350.859 158.461 351.046 158.087C351.668 157.03 352.726 156.034 353.97 155.35L354.779 154.914C355.961 154.23 357.143 154.043 357.89 154.355L358.387 154.541C359.134 154.852 359.32 155.661 358.885 156.719C358.761 157.092 358.636 157.527 358.636 157.901C358.636 159.269 359.632 160.265 361.374 160.14C364.609 159.954 368.093 156.781 368.155 154.168C368.341 152.799 367.159 151.928 365.542 152.053Z" fill="#251725"/>
<defs>
<linearGradient id="paint0_linear_3082_7763" x1="9.96735" y1="136.521" x2="386.919" y2="142.835" gradientUnits="userSpaceOnUse">
<stop stop-color="#DF87F1"/>
<stop offset="0.75" stop-color="#FBFBFF"/>
</linearGradient>
<linearGradient id="paint1_linear_3082_7763" x1="297.918" y1="416.857" x2="-9.28465" y2="236.181" gradientUnits="userSpaceOnUse">
<stop stop-color="#DF87F1"/>
<stop offset="0.75" stop-color="#FBFBFF"/>
</linearGradient>
<linearGradient id="paint2_linear_3082_7763" x1="153.356" y1="159.972" x2="278.805" y2="256.281" gradientUnits="userSpaceOnUse">
<stop offset="0.15" stop-color="#10AD74"/>
<stop offset="0.5" stop-color="#1288AA"/>
</linearGradient>
<linearGradient id="paint3_linear_3082_7763" x1="311.347" y1="168.947" x2="271.341" y2="88.1137" gradientUnits="userSpaceOnUse">
<stop stop-color="#DF87F1"/>
<stop offset="0.75" stop-color="#FBFBFF"/>
</linearGradient>
<linearGradient id="paint4_linear_3082_7763" x1="329.564" y1="325.772" x2="272.943" y2="269.538" gradientUnits="userSpaceOnUse">
<stop offset="0.35" stop-color="#DF87F1"/>
<stop offset="0.45" stop-color="#FBFBFF"/>
</linearGradient>
<linearGradient id="paint5_linear_3082_7763" x1="285.338" y1="253.876" x2="309.707" y2="322.59" gradientUnits="userSpaceOnUse">
<stop offset="0.1" stop-color="#DF87F1"/>
<stop offset="0.3" stop-color="#FBFBFF"/>
<stop offset="0.5" stop-color="#DF87F1"/>
<stop offset="0.8" stop-color="#FBFBFF"/>
</linearGradient>
<linearGradient id="paint6_linear_3082_7763" x1="276.759" y1="256.416" x2="342.985" y2="322.07" gradientUnits="userSpaceOnUse">
<stop offset="0.3" stop-color="#F76DFC"/>
<stop offset="0.75" stop-color="#1288AA"/>
</linearGradient>
<linearGradient id="paint7_linear_3082_7763" x1="90.4693" y1="229.738" x2="33.8017" y2="173.5" gradientUnits="userSpaceOnUse">
<stop offset="0.75" stop-color="#DF87F1"/>
<stop offset="0.9" stop-color="#FBFBFF"/>
</linearGradient>
<linearGradient id="paint8_linear_3082_7763" x1="95.7564" y1="226.809" x2="37.7048" y2="169.167" gradientUnits="userSpaceOnUse">
<stop stop-color="#DF87F1"/>
<stop offset="0.75" stop-color="#FBFBFF"/>
</linearGradient>
<linearGradient id="paint9_linear_3082_7763" x1="48.2303" y1="160.44" x2="114.421" y2="226.113" gradientUnits="userSpaceOnUse">
<stop offset="0.15" stop-color="#10AD74"/>
<stop offset="0.5" stop-color="#1288AA"/>
</linearGradient>
<linearGradient id="paint10_linear_3082_7763" x1="173.75" y1="24.4642" x2="129.463" y2="72.9412" gradientUnits="userSpaceOnUse">
<stop stop-color="#DF87F1"/>
<stop offset="0.75" stop-color="#FBFBFF"/>
</linearGradient>
<linearGradient id="paint11_linear_3082_7763" x1="157.586" y1="12.7197" x2="139.848" y2="67.6337" gradientUnits="userSpaceOnUse">
<stop offset="0.35" stop-color="#F76DFC"/>
<stop offset="0.85" stop-color="#1288AA"/>
</linearGradient>
<linearGradient id="paint12_linear_3082_7763" x1="176.091" y1="61.8218" x2="138.086" y2="-8.21375" gradientUnits="userSpaceOnUse">
<stop offset="0.5" stop-color="#DF87F1"/>
<stop offset="0.75" stop-color="#FBFBFF"/>
</linearGradient>
<linearGradient id="paint13_linear_3082_7763" x1="389.606" y1="161.876" x2="374.51" y2="128.875" gradientUnits="userSpaceOnUse">
<stop offset="0.55" stop-color="#FBFBFF"/>
<stop offset="0.9" stop-color="#DF87F1"/>
</linearGradient>
<linearGradient id="paint14_linear_3082_7763" x1="343.734" y1="128.107" x2="386.38" y2="191.107" gradientUnits="userSpaceOnUse">
<stop offset="0.293434" stop-color="#10AD74"/>
<stop offset="0.495204" stop-color="#1288AA"/>
</linearGradient>
<linearGradient id="paint15_linear_3082_7763" x1="397.298" y1="180.99" x2="357.473" y2="123.926" gradientUnits="userSpaceOnUse">
<stop offset="0.4" stop-color="#DF87F1"/>
<stop offset="0.75" stop-color="#FBFBFF"/>
</linearGradient>
</defs>
</svg>
