<svg width="330" height="239" viewBox="0 0 330 239" fill="none" xmlns="http://www.w3.org/2000/svg">
<path d="M255.558 186H235.558V185L252.558 144L294.058 164L255.558 186Z" fill="#8055BB"/>
<path d="M294.144 151.169L295.197 153.876C295.979 155.812 292.818 158.809 288.236 160.628C283.653 162.447 279.325 162.311 278.543 160.375L277.489 157.667C278.271 159.603 282.583 159.678 287.182 157.92C291.764 156.101 294.925 153.104 294.144 151.169Z" fill="#DF87F1" stroke="#251725" stroke-miterlimit="10" stroke-linecap="round" stroke-linejoin="round"/>
<path d="M284.451 150.916C289.034 149.098 293.362 149.233 294.144 151.169C294.925 153.105 291.764 156.101 287.182 157.92C282.599 159.739 278.271 159.603 277.489 157.668C276.769 155.716 279.869 152.735 284.451 150.916Z" fill="url(#paint0_linear_4013_18872)" stroke="#251725" stroke-miterlimit="10" stroke-linecap="round" stroke-linejoin="round"/>
<mask id="mask0_4013_18872" style="mask-type:alpha" maskUnits="userSpaceOnUse" x="276" y="150" width="20" height="13">
<path d="M294.144 151.169L295.198 153.876C295.979 155.812 292.818 158.809 288.236 160.628C283.653 162.447 279.324 162.311 278.543 160.375L277.489 157.667C278.271 159.603 282.583 159.678 287.182 157.92C291.764 156.101 294.925 153.104 294.144 151.169Z" fill="#D9D9D9" stroke="#251725" stroke-miterlimit="10" stroke-linecap="round" stroke-linejoin="round"/>
</mask>
<g mask="url(#mask0_4013_18872)">
<path d="M281.899 164.869L278.705 156.625" stroke="#251725" stroke-miterlimit="10" stroke-linecap="round" stroke-linejoin="round"/>
<path d="M285.44 163.526L282.245 155.282" stroke="#251725" stroke-miterlimit="10" stroke-linecap="round" stroke-linejoin="round"/>
<path d="M288.963 162.123L285.769 153.878" stroke="#251725" stroke-miterlimit="10" stroke-linecap="round" stroke-linejoin="round"/>
<path d="M292.548 160.702L289.309 152.535" stroke="#251725" stroke-miterlimit="10" stroke-linecap="round" stroke-linejoin="round"/>
<path d="M296.088 159.359L292.833 151.131" stroke="#251725" stroke-miterlimit="10" stroke-linecap="round" stroke-linejoin="round"/>
</g>
<path d="M294.144 151.169L295.198 153.876C295.979 155.812 292.819 158.809 288.236 160.628C283.653 162.446 279.325 162.311 278.544 160.375L277.49 157.667C278.271 159.603 282.583 159.678 287.182 157.92C291.765 156.101 294.925 153.104 294.144 151.169Z" stroke="#251725" stroke-miterlimit="10" stroke-linecap="round" stroke-linejoin="round"/>
<path d="M288.096 154.552C288.092 154.294 288.043 154.112 287.872 153.962C287.702 153.813 287.427 153.757 287.047 153.794C287.334 153.652 287.621 153.51 287.814 153.263C288.024 153.076 288.157 152.845 288.152 152.586C288.192 152.251 288.082 152.085 287.73 151.985C287.516 151.912 287.257 151.917 286.893 152.015L286.944 151.481L286.277 151.66L286.21 152.134L285.482 152.33L285.55 151.856L284.883 152.036L284.754 152.526L283.845 152.77L282.811 157.145L283.903 156.852L283.791 157.402L284.519 157.206L284.631 156.656L285.479 156.427L285.367 156.978L286.095 156.782L286.191 156.171C286.66 155.98 287.007 155.821 287.322 155.541C287.835 155.273 287.996 154.905 288.096 154.552ZM286.685 153.176C286.629 153.452 286.359 153.654 285.874 153.785L284.964 154.03L285.116 153.144L285.965 152.915C286.527 152.829 286.741 152.901 286.685 153.176ZM285.692 155.525L284.661 155.802L284.841 154.778L285.871 154.501C286.114 154.436 286.312 154.447 286.45 154.475C286.587 154.503 286.62 154.625 286.592 154.762C286.552 155.098 286.237 155.378 285.692 155.525Z" fill="#251725"/>
<path d="M129.719 18.2959L127.144 19.8029C125.323 20.8704 125.888 25.266 128.4 29.6616C130.912 34.0572 134.491 36.7573 136.312 35.6898L138.887 34.1828C137.065 35.2503 133.486 32.5501 130.974 28.1546C128.463 23.759 127.898 19.3006 129.719 18.2959Z" fill="#8055BB" stroke="#251725" stroke-miterlimit="10" stroke-linecap="round" stroke-linejoin="round"/>
<path d="M137.694 24.2613C135.182 19.8658 131.603 17.1656 129.781 18.2331C127.96 19.3006 128.526 23.6962 131.037 28.0918C133.549 32.4873 137.128 35.1875 138.949 34.12C140.77 33.1153 140.205 28.6569 137.694 24.2613Z" fill="#DF87F1" stroke="#251725" stroke-miterlimit="10" stroke-linecap="round" stroke-linejoin="round"/>
<mask id="mask1_4013_18872" style="mask-type:alpha" maskUnits="userSpaceOnUse" x="125" y="17" width="15" height="20">
<path d="M129.719 18.2959L127.144 19.8029C125.323 20.8704 125.888 25.266 128.4 29.6616C130.912 34.0572 134.491 36.7573 136.312 35.6898L138.887 34.1828C137.065 35.2503 133.486 32.5501 130.974 28.1546C128.463 23.759 127.898 19.3006 129.719 18.2959Z" fill="#D9D9D9" stroke="#251725" stroke-miterlimit="10" stroke-linecap="round" stroke-linejoin="round"/>
</mask>
<g mask="url(#mask1_4013_18872)">
<path d="M130.786 37.1341L138.635 32.6129" stroke="#251725" stroke-miterlimit="10" stroke-linecap="round" stroke-linejoin="round"/>
<path d="M128.839 33.7432L136.689 29.222" stroke="#251725" stroke-miterlimit="10" stroke-linecap="round" stroke-linejoin="round"/>
<path d="M126.83 30.3523L134.742 25.8312" stroke="#251725" stroke-miterlimit="10" stroke-linecap="round" stroke-linejoin="round"/>
<path d="M124.883 26.9615L132.733 22.4403" stroke="#251725" stroke-miterlimit="10" stroke-linecap="round" stroke-linejoin="round"/>
<path d="M122.937 23.5706L130.786 19.0494" stroke="#251725" stroke-miterlimit="10" stroke-linecap="round" stroke-linejoin="round"/>
</g>
<path d="M129.719 18.2959L127.144 19.8029C125.323 20.8704 125.888 25.266 128.4 29.6616C130.912 34.0572 134.491 36.7573 136.312 35.6898L138.887 34.1828C137.065 35.2503 133.486 32.5501 130.974 28.1546C128.463 23.759 127.898 19.3006 129.719 18.2959Z" stroke="#251725" stroke-miterlimit="10" stroke-linecap="round" stroke-linejoin="round"/>
<path d="M135.81 27.715L135.244 25.7056L135.81 24.9521L135.433 24.5125L134.993 24.9521L134.177 22.252L132.921 23.2566L133.737 26.3336L132.67 27.5266L133.298 28.1546L133.989 27.2755L134.742 30.2896L138.007 26.8987L137.693 25.894L135.81 27.715Z" fill="#251725"/>
<path d="M2.38694 102.416L1.19385 104.489C0.314735 105.996 2.51252 108.821 6.02898 110.831C9.54544 112.84 13.1247 113.343 13.941 111.835L15.1341 109.763C14.255 111.27 10.7385 110.768 7.22207 108.759C3.70561 106.749 1.50783 103.923 2.38694 102.416Z" fill="#DF87F1" stroke="#251725" stroke-miterlimit="10" stroke-linecap="round" stroke-linejoin="round"/>
<path d="M10.299 103.421C6.78254 101.412 3.20329 100.909 2.38697 102.416C1.50785 103.923 3.70564 106.749 7.2221 108.758C10.7386 110.768 14.3178 111.27 15.1341 109.763C16.0132 108.319 13.8155 105.493 10.299 103.421Z" fill="url(#paint1_linear_4013_18872)" stroke="#251725" stroke-miterlimit="10" stroke-linecap="round" stroke-linejoin="round"/>
<mask id="mask2_4013_18872" style="mask-type:alpha" maskUnits="userSpaceOnUse" x="0" y="101" width="16" height="13">
<path d="M2.38694 102.416L1.19385 104.489C0.314735 105.996 2.51252 108.821 6.02898 110.831C9.54544 112.84 13.1247 113.343 13.941 111.835L15.1341 109.763C14.255 111.27 10.7385 110.768 7.22207 108.759C3.70561 106.749 1.50783 103.923 2.38694 102.416Z" fill="#D9D9D9" stroke="#251725" stroke-miterlimit="10" stroke-linecap="round" stroke-linejoin="round"/>
</mask>
<g mask="url(#mask2_4013_18872)">
<path d="M10.6758 115.101L14.3178 108.821" stroke="#251725" stroke-miterlimit="10" stroke-linecap="round" stroke-linejoin="round"/>
<path d="M7.03394 113.028L10.676 106.749" stroke="#251725" stroke-miterlimit="10" stroke-linecap="round" stroke-linejoin="round"/>
<path d="M3.39185 110.956L7.0339 104.614" stroke="#251725" stroke-miterlimit="10" stroke-linecap="round" stroke-linejoin="round"/>
<path d="M-0.1875 108.884L3.45455 102.542" stroke="#251725" stroke-miterlimit="10" stroke-linecap="round" stroke-linejoin="round"/>
</g>
<path d="M2.38694 102.416L1.19385 104.489C0.314735 105.996 2.51252 108.821 6.02898 110.831C9.54544 112.84 13.1247 113.343 13.941 111.835L15.1341 109.763C14.255 111.27 10.7385 110.768 7.22207 108.759C3.70561 106.749 1.50783 103.923 2.38694 102.416Z" stroke="#251725" stroke-miterlimit="10" stroke-linecap="round" stroke-linejoin="round"/>
<path d="M6.90803 104.175C6.90803 104.175 6.15449 104.74 6.84523 105.556C7.59875 106.435 8.41508 107 8.10111 108.005C8.10111 108.005 8.72905 107.754 8.66626 107C8.54067 106.372 7.53596 105.493 7.28478 105.116C6.78243 104.614 6.90803 104.175 6.90803 104.175Z" fill="#251725"/>
<path d="M9.92227 104.175C9.92227 104.175 9.16874 104.74 9.98506 105.556C10.8014 106.435 11.6805 106.937 11.4921 107.942C11.4921 107.942 12.1201 107.691 11.9317 106.937C11.7433 106.31 10.6758 105.43 10.3618 105.054C9.85948 104.614 9.92227 104.175 9.92227 104.175Z" fill="#251725"/>
<path d="M8.1012 103.609C8.1012 103.609 7.15929 104.3 8.03841 105.305C8.98032 106.372 10.1106 107.126 9.79663 108.382C9.79663 108.382 10.613 108.005 10.4246 107.126C10.2362 106.31 8.91752 105.242 8.54075 104.802C8.0384 104.175 8.1012 103.609 8.1012 103.609Z" fill="#251725"/>
<path d="M302.798 109.538C313.351 98.8884 318.272 86.6551 313.79 82.214C309.308 77.7729 297.121 82.8058 286.568 93.4553C276.015 104.105 271.094 116.338 275.576 120.779C280.058 125.22 292.245 120.187 302.798 109.538Z" fill="url(#paint2_linear_4013_18872)" stroke="#251725" stroke-miterlimit="10" stroke-linecap="round" stroke-linejoin="round"/>
<path d="M287.692 94.5443C296.852 85.3092 307.115 80.7164 310.673 84.2002C314.231 87.6841 309.672 98.054 300.563 107.275C291.403 116.51 281.14 121.103 277.582 117.619C274.01 114.085 278.583 103.766 287.692 94.5443Z" fill="url(#paint3_linear_4013_18872)" stroke="#251725" stroke-miterlimit="10" stroke-linecap="round" stroke-linejoin="round"/>
<path d="M313.821 82.2004L318.322 86.3507C322.79 90.7813 317.877 103.041 307.311 113.691C296.745 124.342 284.546 129.409 280.078 124.978L275.578 120.828C280.046 125.258 292.244 120.192 302.811 109.541C313.377 98.8903 318.289 86.6311 313.821 82.2004Z" fill="url(#paint4_linear_4013_18872)"/>
<mask id="mask3_4013_18872" style="mask-type:alpha" maskUnits="userSpaceOnUse" x="275" y="81" width="46" height="47">
<path d="M313.822 82.2003L318.322 86.3507C322.79 90.7814 317.877 103.041 307.311 113.692C296.744 124.342 284.546 129.409 280.078 124.978L275.578 120.828C280.046 125.258 292.244 120.192 302.811 109.541C313.377 98.8903 318.29 86.6311 313.822 82.2003Z" fill="#D9D9D9" stroke="#251725" stroke-miterlimit="10" stroke-linecap="round" stroke-linejoin="round"/>
</mask>
<g mask="url(#mask3_4013_18872)">
<path d="M296.728 135.429L277.66 116.511" stroke="#251725" stroke-miterlimit="10" stroke-linecap="round" stroke-linejoin="round"/>
<path d="M303.236 128.819L284.131 109.965" stroke="#251725" stroke-miterlimit="10" stroke-linecap="round" stroke-linejoin="round"/>
<path d="M309.757 122.259L290.639 103.355" stroke="#251725" stroke-miterlimit="10" stroke-linecap="round" stroke-linejoin="round"/>
<path d="M316.228 115.713L297.161 96.7949" stroke="#251725" stroke-miterlimit="10" stroke-linecap="round" stroke-linejoin="round"/>
<path d="M322.75 109.153L303.682 90.2352" stroke="#251725" stroke-miterlimit="10" stroke-linecap="round" stroke-linejoin="round"/>
<path d="M329.258 102.543L310.203 83.6755" stroke="#251725" stroke-miterlimit="10" stroke-linecap="round" stroke-linejoin="round"/>
</g>
<path d="M313.821 82.2004L318.322 86.3507C322.79 90.7813 317.877 103.041 307.311 113.691C296.745 124.342 284.546 129.409 280.078 124.978L275.578 120.828C280.046 125.258 292.244 120.192 302.811 109.541C313.377 98.8903 318.289 86.6311 313.821 82.2004Z" stroke="#251725" stroke-miterlimit="10" stroke-linecap="round" stroke-linejoin="round"/>
<path d="M300.443 97.4758C299.647 97.747 298.907 98.2205 298.273 98.8825C297.45 99.6501 296.531 100.064 295.856 99.9766L295.46 99.9215C294.785 99.8342 294.481 99.3195 294.642 98.5151L294.697 98.1198C294.872 97.3659 295.322 96.4282 296.108 95.7249C297.092 94.7504 297.841 93.5139 297.758 92.613C297.703 91.8132 296.972 91.5237 295.938 91.9145C294.425 92.5443 292.785 94.2957 292.408 95.7022C292.197 96.5204 292.463 97.0995 293.074 97.1501C293.635 97.2144 293.911 97.628 293.75 98.4324L293.622 98.9564C293.461 99.7608 292.859 100.74 292.05 101.558L291.576 102.013C290.754 102.781 289.862 103.296 289.288 103.181C288.828 103.089 288.221 103.255 287.532 103.714C286.328 104.477 285.05 105.967 284.319 107.47C282.968 110.283 283.805 111.956 286.066 110.687C287.335 109.961 288.7 108.393 289.518 106.812C289.775 106.362 289.931 105.939 290 105.594C290.271 104.597 290.91 103.553 291.77 102.721L292.33 102.188C293.139 101.37 294.058 100.956 294.734 101.043L295.18 101.084C295.856 101.172 296.187 101.788 296.067 102.744C296.049 103.075 296.044 103.456 296.127 103.759C296.431 104.872 297.46 105.46 298.848 104.973C301.436 104.104 303.564 100.753 303.035 98.6155C302.883 97.4618 301.729 97.016 300.443 97.4758Z" fill="#251725"/>
<path d="M68.9304 111.706L68.1392 111.257C69.5628 106.405 68.9118 100.954 66.0103 95.9967C60.5767 86.7493 48.4096 81.5727 37.8785 84.5626C34.3096 85.5827 31.3297 87.4379 29.0707 89.8204L28.0333 89.2667L25.7131 94.937C25.6867 94.9986 25.634 95.1216 25.6076 95.1832L25.4758 95.4909C23.6126 100.264 23.9033 105.961 26.9279 111.481C33.3551 123.084 48.3439 127.54 59.1824 121.878C61.5382 120.629 63.4545 119.046 64.9927 117.156L65.0366 117.139C65.4849 116.602 65.898 115.978 66.2672 115.372L68.9304 111.706Z" fill="url(#paint5_linear_4013_18872)" stroke="#251725" stroke-miterlimit="10" stroke-linecap="round" stroke-linejoin="round"/>
<mask id="mask4_4013_18872" style="mask-type:alpha" maskUnits="userSpaceOnUse" x="23" y="83" width="47" height="42">
<path d="M68.9305 111.707L68.1393 111.258C69.5632 106.406 68.9123 100.955 66.011 95.9973C60.5777 86.7494 48.4107 81.5722 37.8792 84.5618C34.3101 85.5817 31.3301 87.4368 29.071 89.8192L28.0336 89.2655L25.7131 94.9358C25.6867 94.9973 25.634 95.1204 25.6076 95.1819L25.4758 95.4896C23.6123 100.263 23.9028 105.96 26.9272 111.48C33.354 123.084 48.3429 127.54 59.1819 121.878C61.5378 120.63 63.4541 119.047 64.9925 117.157L65.0364 117.14C65.4847 116.603 65.8979 115.979 66.267 115.373L68.9305 111.707Z" fill="white" stroke="#251725" stroke-miterlimit="10" stroke-linecap="round" stroke-linejoin="round"/>
</mask>
<g mask="url(#mask4_4013_18872)">
<path d="M55.5427 129.35L63.9201 109.631" stroke="#251725" stroke-miterlimit="10" stroke-linecap="round" stroke-linejoin="round"/>
<path d="M48.7737 126.45L57.1071 106.749" stroke="#251725" stroke-miterlimit="10" stroke-linecap="round" stroke-linejoin="round"/>
<path d="M42.0219 123.593L50.3554 103.892" stroke="#251725" stroke-miterlimit="10" stroke-linecap="round" stroke-linejoin="round"/>
<path d="M35.2087 120.711L43.5861 100.992" stroke="#251725" stroke-miterlimit="10" stroke-linecap="round" stroke-linejoin="round"/>
<path d="M28.4394 117.81L36.7905 98.1534" stroke="#251725" stroke-miterlimit="10" stroke-linecap="round" stroke-linejoin="round"/>
<path d="M21.644 114.972L30.0214 95.253" stroke="#251725" stroke-miterlimit="10" stroke-linecap="round" stroke-linejoin="round"/>
</g>
<path d="M68.5769 91.9614C74.2128 101.587 71.5592 113.305 61.6085 118.51C50.5238 124.322 35.1219 119.726 28.5451 107.877C22.0827 96.1856 27.7252 83.7812 39.7419 80.2988C50.5631 77.1419 62.9938 82.4678 68.5769 91.9614Z" fill="url(#paint6_linear_4013_18872)" stroke="#251725" stroke-miterlimit="10" stroke-linecap="round" stroke-linejoin="round"/>
<path d="M65.8958 93.0341C70.6964 101.209 68.2799 111.099 59.8148 115.302C50.5497 119.927 37.873 116.025 32.4569 106.312C27.1199 96.6686 31.5934 86.3126 41.5091 83.3139C50.537 80.5175 61.1304 84.947 65.8958 93.0341Z" fill="url(#paint7_linear_4013_18872)" stroke="#251725" stroke-miterlimit="10" stroke-linecap="round" stroke-linejoin="round"/>
<path d="M33.748 94.1186C34.1171 93.0022 34.6093 91.9384 35.2245 90.9274" stroke="#251725" stroke-miterlimit="10" stroke-linecap="round" stroke-linejoin="round"/>
<path d="M33.1768 98.1713C33.1855 97.5559 33.1943 96.9405 33.2645 96.3516" stroke="#251725" stroke-miterlimit="10" stroke-linecap="round" stroke-linejoin="round"/>
<path d="M59.9187 100.015C59.4 99.1005 58.6527 98.3797 57.6505 97.9139C56.6922 97.4305 55.6197 97.2987 54.5033 97.4395C55.2505 96.8856 55.69 96.1999 55.8217 95.3823C55.9535 94.5647 55.7512 93.6769 55.2149 92.7187C54.4939 91.4266 53.4389 90.574 52.1291 90.2312C51.1972 89.9412 50.1775 89.9413 49.0523 90.1876L47.751 87.9549L45.7204 88.6144L46.9425 90.7768L44.6658 91.5858L43.4437 89.4234L41.3251 90.118L42.5649 92.3244L39.4794 93.406L49.0895 110.415L52.0694 109.07L53.1597 111.03L55.1903 110.116L54.1176 108.199L56.324 107.215L57.3967 109.131L59.3393 108.252L58.2051 106.309C59.26 105.632 60.0247 104.867 60.3323 103.979C60.8684 102.643 60.7188 101.377 59.9187 100.015ZM51.6109 94.9256C52.2791 96.0859 51.91 96.9475 50.4859 97.4663L47.7433 98.5126L45.7035 94.9438L48.4197 93.9589C49.9053 93.4665 50.9427 93.7653 51.6109 94.9256ZM54.4161 103.848L51.5064 105.114L49.3962 101.369L52.341 100.191C53.0882 99.8923 53.73 99.8395 54.3102 100.015C54.8904 100.191 55.3475 100.569 55.6816 101.149C56.3059 102.327 55.9104 103.25 54.4161 103.848Z" fill="#251725"/>
<path d="M141.472 52.6993L141.658 145.262L222.035 191.962L221.849 99.3994L141.472 52.6993Z" fill="white" stroke="#251725" stroke-miterlimit="10" stroke-linecap="round" stroke-linejoin="round"/>
<path d="M221.849 99.3994L222.035 191.962L262.037 168.798L268.828 164.891L268.642 72.4213L221.849 99.3994Z" fill="#251725" stroke="#251725" stroke-miterlimit="10" stroke-linecap="round" stroke-linejoin="round"/>
<path d="M141.472 52.6993L221.849 99.3994L268.642 72.4213L188.266 25.7212L141.472 52.6993Z" fill="white" stroke="#251725" stroke-miterlimit="10" stroke-linecap="round" stroke-linejoin="round"/>
<path d="M188.265 28.8842L147.054 52.6993L148.915 53.9087L188.358 31.1168L188.265 28.8842Z" fill="white" stroke="#251725" stroke-miterlimit="10" stroke-linecap="round" stroke-linejoin="round"/>
<path d="M188.359 31.1168L261.199 73.4446L263.06 72.4213L188.266 28.8842L188.359 31.1168Z" fill="#AF56FF" stroke="#251725" stroke-miterlimit="10" stroke-linecap="round" stroke-linejoin="round"/>
<path d="M261.199 73.4446L221.849 96.2365L148.915 53.9087L188.358 31.1168L261.199 73.4446Z" fill="white"/>
<path d="M261.199 73.4446L221.849 96.2365L148.915 53.9087L188.358 31.1168L261.199 73.4446Z" fill="url(#paint8_linear_4013_18872)"/>
<path d="M261.199 73.4446L221.849 96.2365L148.915 53.9087L188.358 31.1168L261.199 73.4446Z" stroke="#251725" stroke-miterlimit="10" stroke-linecap="round" stroke-linejoin="round"/>
<path d="M173.102 59.2112L179.149 55.7692L179.056 52.1411H181.009L184.638 55.7692L178.591 59.2112H173.102Z" fill="#8055BB"/>
<path d="M166.962 50.1875V55.6761L173.102 59.2112L173.009 53.7226L166.962 50.1875Z" fill="white" stroke="#251725" stroke-miterlimit="10" stroke-linecap="round" stroke-linejoin="round"/>
<path d="M173.009 53.7227L173.102 59.2113L179.149 55.7693L179.056 50.2806L173.009 53.7227Z" fill="#AF56FF" stroke="#251725" stroke-miterlimit="10" stroke-linecap="round" stroke-linejoin="round"/>
<path d="M166.962 50.1875L173.009 53.7226L179.056 50.2806L173.009 46.6525L166.962 50.1875Z" fill="white" stroke="#251725" stroke-miterlimit="10" stroke-linecap="round" stroke-linejoin="round"/>
<path d="M174.033 54.8389L176.73 53.3504L178.126 52.5132" stroke="#251725" stroke-miterlimit="10" stroke-linecap="round" stroke-linejoin="round"/>
<path d="M174.033 56.6995L176.73 55.118L178.126 54.3738" stroke="#251725" stroke-miterlimit="10" stroke-linecap="round" stroke-linejoin="round"/>
<path d="M172.079 54.8389L169.288 53.3504L167.986 52.5132" stroke="#8055BB" stroke-miterlimit="10" stroke-linecap="round" stroke-linejoin="round"/>
<path d="M172.079 56.6995L169.288 55.118L167.986 54.3738" stroke="#8055BB" stroke-miterlimit="10" stroke-linecap="round" stroke-linejoin="round"/>
<path d="M189.754 49.4433L195.801 45.9082V42.3732L197.661 42.2802L201.29 45.9082L195.243 49.4433H189.754Z" fill="#8055BB"/>
<path d="M183.614 40.3265L183.707 45.8152L189.754 49.4433V43.8616L183.614 40.3265Z" fill="white" stroke="#251725" stroke-miterlimit="10" stroke-linecap="round" stroke-linejoin="round"/>
<path d="M189.754 43.8616V49.4433L195.801 45.9082V40.4196L189.754 43.8616Z" fill="#AF56FF" stroke="#251725" stroke-miterlimit="10" stroke-linecap="round" stroke-linejoin="round"/>
<path d="M183.614 40.3266L189.754 43.8616L195.801 40.4196L189.661 36.7915L183.614 40.3266Z" fill="white" stroke="#251725" stroke-miterlimit="10" stroke-linecap="round" stroke-linejoin="round"/>
<path d="M190.777 45.0711L193.475 43.4896L194.778 42.7454" stroke="#251725" stroke-miterlimit="10" stroke-linecap="round" stroke-linejoin="round"/>
<path d="M190.777 46.8386L193.475 45.2572L194.778 44.5129" stroke="#251725" stroke-miterlimit="10" stroke-linecap="round" stroke-linejoin="round"/>
<path d="M188.731 45.0711L186.033 43.4896L184.731 42.7454" stroke="#8055BB" stroke-miterlimit="10" stroke-linecap="round" stroke-linejoin="round"/>
<path d="M188.731 46.8386L186.033 45.2572L184.731 44.5129" stroke="#8055BB" stroke-miterlimit="10" stroke-linecap="round" stroke-linejoin="round"/>
<path d="M194.312 71.491L200.359 68.049L200.266 64.4209H202.22L205.848 68.049L199.801 71.491H194.312Z" fill="#8055BB"/>
<path d="M188.172 62.3743V67.956L194.312 71.491L194.219 66.0024L188.172 62.3743Z" fill="white" stroke="#251725" stroke-miterlimit="10" stroke-linecap="round" stroke-linejoin="round"/>
<path d="M194.219 66.0023L194.312 71.491L200.359 68.049L200.266 62.4673L194.219 66.0023Z" fill="#AF56FF" stroke="#251725" stroke-miterlimit="10" stroke-linecap="round" stroke-linejoin="round"/>
<path d="M188.172 62.3743L194.219 66.0024L200.266 62.4673L194.219 58.9323L188.172 62.3743Z" fill="white" stroke="#251725" stroke-miterlimit="10" stroke-linecap="round" stroke-linejoin="round"/>
<path d="M195.243 67.1187L197.94 65.5372L199.243 64.793" stroke="#251725" stroke-miterlimit="10" stroke-linecap="round" stroke-linejoin="round"/>
<path d="M195.243 68.8862L197.94 67.3978L199.243 66.6536" stroke="#251725" stroke-miterlimit="10" stroke-linecap="round" stroke-linejoin="round"/>
<path d="M193.196 67.1187L190.498 65.5372L189.196 64.793" stroke="#8055BB" stroke-miterlimit="10" stroke-linecap="round" stroke-linejoin="round"/>
<path d="M193.196 68.8862L190.498 67.3978L189.196 66.6536" stroke="#8055BB" stroke-miterlimit="10" stroke-linecap="round" stroke-linejoin="round"/>
<path d="M210.964 61.6299L217.011 58.1879V54.5598H218.872L222.5 58.1879L216.453 61.6299H210.964Z" fill="#8055BB"/>
<path d="M204.825 52.5132L204.918 58.0949L210.964 61.6299V56.1413L204.825 52.5132Z" fill="white" stroke="#251725" stroke-miterlimit="10" stroke-linecap="round" stroke-linejoin="round"/>
<path d="M210.965 56.1413V61.6299L217.011 58.1879V52.6062L210.965 56.1413Z" fill="#AF56FF" stroke="#251725" stroke-miterlimit="10" stroke-linecap="round" stroke-linejoin="round"/>
<path d="M204.825 52.5132L210.965 56.1413L217.011 52.6062L210.871 49.0712L204.825 52.5132Z" fill="white" stroke="#251725" stroke-miterlimit="10" stroke-linecap="round" stroke-linejoin="round"/>
<path d="M211.988 57.2576L214.686 55.6761L215.988 54.9319" stroke="#251725" stroke-miterlimit="10" stroke-linecap="round" stroke-linejoin="round"/>
<path d="M211.988 59.1182L214.686 57.5367L215.988 56.7925" stroke="#251725" stroke-miterlimit="10" stroke-linecap="round" stroke-linejoin="round"/>
<path d="M209.941 57.2576L207.243 55.6761L205.941 54.9319" stroke="#8055BB" stroke-miterlimit="10" stroke-linecap="round" stroke-linejoin="round"/>
<path d="M209.941 59.1182L207.243 57.5367L205.941 56.7925" stroke="#8055BB" stroke-miterlimit="10" stroke-linecap="round" stroke-linejoin="round"/>
<path d="M215.523 83.7707L221.57 80.2356L221.477 76.7006H223.43L227.058 80.3286L221.012 83.7707H215.523Z" fill="#8055BB"/>
<path d="M209.383 74.6539V80.2356L215.523 83.7707L215.43 78.189L209.383 74.6539Z" fill="white" stroke="#251725" stroke-miterlimit="10" stroke-linecap="round" stroke-linejoin="round"/>
<path d="M215.43 78.189L215.523 83.7707L221.57 80.2356L221.477 74.7469L215.43 78.189Z" fill="#AF56FF" stroke="#251725" stroke-miterlimit="10" stroke-linecap="round" stroke-linejoin="round"/>
<path d="M209.383 74.6539L215.43 78.189L221.477 74.747L215.43 71.2119L209.383 74.6539Z" fill="white" stroke="#251725" stroke-miterlimit="10" stroke-linecap="round" stroke-linejoin="round"/>
<path d="M216.453 79.3983L219.151 77.8169L220.453 77.0726" stroke="#251725" stroke-miterlimit="10" stroke-linecap="round" stroke-linejoin="round"/>
<path d="M216.453 81.1658L219.151 79.5843L220.453 78.8401" stroke="#251725" stroke-miterlimit="10" stroke-linecap="round" stroke-linejoin="round"/>
<path d="M214.406 79.3983L211.709 77.8169L210.406 77.0726" stroke="#8055BB" stroke-miterlimit="10" stroke-linecap="round" stroke-linejoin="round"/>
<path d="M214.406 81.1658L211.709 79.5843L210.406 78.8401" stroke="#8055BB" stroke-miterlimit="10" stroke-linecap="round" stroke-linejoin="round"/>
<path d="M232.175 73.9097L238.222 70.4677V66.8396H240.082L243.71 70.4677L237.663 73.9097H232.175Z" fill="#8055BB"/>
<path d="M226.035 64.793L226.128 70.3747L232.175 73.9097V68.4211L226.035 64.793Z" fill="white" stroke="#251725" stroke-miterlimit="10" stroke-linecap="round" stroke-linejoin="round"/>
<path d="M232.175 68.4211V73.9097L238.222 70.4677V64.886L232.175 68.4211Z" fill="#AF56FF" stroke="#251725" stroke-miterlimit="10" stroke-linecap="round" stroke-linejoin="round"/>
<path d="M226.035 64.793L232.175 68.4211L238.222 64.886L232.082 61.351L226.035 64.793Z" fill="white" stroke="#251725" stroke-miterlimit="10" stroke-linecap="round" stroke-linejoin="round"/>
<path d="M233.198 69.5374L235.896 67.9559L237.198 67.2117" stroke="#251725" stroke-miterlimit="10" stroke-linecap="round" stroke-linejoin="round"/>
<path d="M233.198 71.305L235.896 69.8165L237.198 69.0723" stroke="#251725" stroke-miterlimit="10" stroke-linecap="round" stroke-linejoin="round"/>
<path d="M231.151 69.5374L228.454 67.9559L227.151 67.2117" stroke="#8055BB" stroke-miterlimit="10" stroke-linecap="round" stroke-linejoin="round"/>
<path d="M231.151 71.305L228.454 69.8165L227.151 69.0723" stroke="#8055BB" stroke-miterlimit="10" stroke-linecap="round" stroke-linejoin="round"/>
<path d="M147.612 61.444V68.9792L144.17 67.0256V59.4904L147.612 61.444Z" fill="#DF87F1"/>
<path d="M152.171 64.1417V71.584L148.729 69.6304V62.0951L152.171 64.1417Z" fill="#DF87F1"/>
<path d="M156.729 66.7466V74.2818L153.287 72.2352V64.7L156.729 66.7466Z" fill="#DF87F1"/>
<path d="M162.683 70.2816V77.8169L159.241 75.7703V68.235L162.683 70.2816Z" fill="#DF87F1"/>
<path d="M167.241 72.8863V80.4216L163.799 78.375V70.9327L167.241 72.8863Z" fill="#DF87F1"/>
<path d="M171.799 75.4912V83.0264L168.357 81.0729V73.5376L171.799 75.4912Z" fill="#DF87F1"/>
<path d="M177.846 79.1193L177.753 86.6545L174.311 84.6079V77.0726L177.846 79.1193Z" fill="#A499CE"/>
<path d="M182.405 81.7241L182.312 89.2594L178.87 87.2127V79.6775L182.405 81.7241Z" fill="#A499CE"/>
<path d="M186.963 84.3289L186.87 91.8641L183.428 89.8175V82.2822L186.963 84.3289Z" fill="#A499CE"/>
<path d="M147.612 75.1191V82.6544L144.17 80.6078V73.1655L147.612 75.1191Z" fill="#DF87F1"/>
<path d="M152.171 77.724V85.2593L148.729 83.3057V75.7704L152.171 77.724Z" fill="#DF87F1"/>
<path d="M156.729 80.3287V87.864L153.287 85.9104V78.3751L156.729 80.3287Z" fill="#DF87F1"/>
<path d="M162.683 83.9568V91.492L159.241 89.4454V81.9102L162.683 83.9568Z" fill="#DF87F1"/>
<path d="M167.241 86.5615V94.0968L163.799 92.0502V84.5149L167.241 86.5615Z" fill="#DF87F1"/>
<path d="M171.799 89.1664V96.7016L168.357 94.655V87.1198L171.799 89.1664Z" fill="#DF87F1"/>
<path d="M177.846 92.7945L177.753 100.33L174.311 98.2832V90.7479L177.846 92.7945Z" fill="#A499CE"/>
<path d="M182.405 95.3993L182.312 102.935L178.87 100.888V93.3527L182.405 95.3993Z" fill="#A499CE"/>
<path d="M186.963 98.0041L186.87 105.539L183.428 103.493V95.9575L186.963 98.0041Z" fill="#A499CE"/>
<path d="M147.612 88.7942V96.3295L144.17 94.2828V86.7476L147.612 88.7942Z" fill="#DF87F1"/>
<path d="M152.171 91.399V98.9343L148.729 96.8877V89.4454L152.171 91.399Z" fill="#DF87F1"/>
<path d="M156.729 94.0038V101.539L153.287 99.5854V92.0502L156.729 94.0038Z" fill="#DF87F1"/>
<path d="M162.683 97.6318V105.167L159.241 103.12V95.5852L162.683 97.6318Z" fill="#DF87F1"/>
<path d="M167.241 100.237V107.772L163.799 105.725V98.1901L167.241 100.237Z" fill="#DF87F1"/>
<path d="M171.799 102.841V110.377L168.357 108.33V100.795L171.799 102.841Z" fill="#DF87F1"/>
<path d="M177.846 106.469L177.753 114.005L174.311 111.958V104.423L177.846 106.469Z" fill="#A499CE"/>
<path d="M182.405 109.074L182.312 116.61L178.87 114.563V107.028L182.405 109.074Z" fill="#A499CE"/>
<path d="M186.963 111.679L186.87 119.214L183.428 117.168V109.632L186.963 111.679Z" fill="#A499CE"/>
<path d="M147.705 108.609V116.145L144.263 114.191V106.656L147.705 108.609Z" fill="#DF87F1"/>
<path d="M152.264 111.307V118.749L148.822 116.796V109.26L152.264 111.307Z" fill="#DF87F1"/>
<path d="M156.822 113.912V121.447L153.38 119.401V111.865L156.822 113.912Z" fill="#DF87F1"/>
<path d="M162.776 117.447V124.982L159.334 122.936V115.4L162.776 117.447Z" fill="#DF87F1"/>
<path d="M167.334 120.052V127.587L163.892 125.54V118.098L167.334 120.052Z" fill="#DF87F1"/>
<path d="M171.892 122.656V130.192L168.45 128.238V120.703L171.892 122.656Z" fill="#DF87F1"/>
<path d="M177.939 126.285L177.846 133.82L174.404 131.773V124.238L177.939 126.285Z" fill="#DF87F1"/>
<path d="M182.498 128.889L182.405 136.425L178.963 134.378V126.843L182.498 128.889Z" fill="#DF87F1"/>
<path d="M187.056 131.494L186.963 139.03L183.521 136.983V129.448L187.056 131.494Z" fill="#DF87F1"/>
<path d="M147.705 122.284V129.82L144.263 127.773V120.331L147.705 122.284Z" fill="#DF87F1"/>
<path d="M152.264 124.889V132.424L148.822 130.471V122.936L152.264 124.889Z" fill="#DF87F1"/>
<path d="M156.822 127.494V135.029L153.38 133.076V125.54L156.822 127.494Z" fill="#DF87F1"/>
<path d="M162.776 131.122V138.657L159.334 136.611V129.075L162.776 131.122Z" fill="#DF87F1"/>
<path d="M167.334 133.727V141.262L163.892 139.215V131.68L167.334 133.727Z" fill="#DF87F1"/>
<path d="M171.892 136.332V143.867L168.45 141.82V134.285L171.892 136.332Z" fill="#DF87F1"/>
<path d="M177.939 139.96L177.846 147.495L174.404 145.448V137.913L177.939 139.96Z" fill="#DF87F1"/>
<path d="M182.498 142.564L182.405 150.1L178.963 148.053V140.518L182.498 142.564Z" fill="#DF87F1"/>
<path d="M187.056 145.169L186.963 152.704L183.521 150.658V143.123L187.056 145.169Z" fill="#DF87F1"/>
<path d="M147.705 135.959V143.495L144.263 141.448V133.913L147.705 135.959Z" fill="#DF87F1"/>
<path d="M152.264 138.564V146.1L148.822 144.053V136.611L152.264 138.564Z" fill="#DF87F1"/>
<path d="M156.822 141.169V148.704L153.38 146.751V139.215L156.822 141.169Z" fill="#DF87F1"/>
<path d="M162.776 144.797V152.332L159.334 150.286V142.75L162.776 144.797Z" fill="#DF87F1"/>
<path d="M167.334 147.402V154.937L163.892 152.891V145.355L167.334 147.402Z" fill="#DF87F1"/>
<path d="M171.892 150.007V157.542L168.45 155.495V147.96L171.892 150.007Z" fill="#DF87F1"/>
<path d="M177.939 153.635L177.846 161.17L174.404 159.123V151.588L177.939 153.635Z" fill="#DF87F1"/>
<path d="M182.498 156.239L182.405 163.775L178.963 161.728V154.193L182.498 156.239Z" fill="#DF87F1"/>
<path d="M187.056 158.844L186.963 166.38L183.521 164.333V156.798L187.056 158.844Z" fill="#DF87F1"/>
<path d="M253.478 92.8874V100.423L257.013 98.3761V90.8408L253.478 92.8874Z" fill="#8055BB"/>
<path d="M248.92 95.4922V103.027L252.455 100.981V93.4456L248.92 95.4922Z" fill="#8055BB"/>
<path d="M244.362 98.097V105.632L247.897 103.679V96.1434L244.362 98.097Z" fill="#8055BB"/>
<path d="M239.803 100.702V108.237L243.338 106.283V98.7482L239.803 100.702Z" fill="#8055BB"/>
<path d="M235.245 103.307V110.842L238.78 108.888V101.353L235.245 103.307Z" fill="#8055BB"/>
<path d="M253.478 102.097V109.633L257.013 107.586V100.051L253.478 102.097Z" fill="#8055BB"/>
<path d="M248.92 104.702V112.237L252.455 110.284V102.749L248.92 104.702Z" fill="#8055BB"/>
<path d="M244.362 107.307V114.842L247.897 112.889V105.353L244.362 107.307Z" fill="#8055BB"/>
<path d="M239.803 109.912V117.447L243.338 115.493V107.958L239.803 109.912Z" fill="#8055BB"/>
<path d="M235.245 112.609V120.145L238.78 118.098V110.563L235.245 112.609Z" fill="#8055BB"/>
<path d="M253.478 111.307V118.842L257.013 116.889V109.353L253.478 111.307Z" fill="#8055BB"/>
<path d="M248.92 113.912V121.447L252.455 119.493V111.958L248.92 113.912Z" fill="#8055BB"/>
<path d="M244.362 116.517V124.052L247.897 122.098V114.563L244.362 116.517Z" fill="#8055BB"/>
<path d="M239.803 119.214V126.75L243.338 124.703V117.168L239.803 119.214Z" fill="#8055BB"/>
<path d="M235.245 121.819V129.354L238.78 127.308V119.772L235.245 121.819Z" fill="#8055BB"/>
<path d="M253.478 120.517V128.052L257.013 126.098V118.563L253.478 120.517Z" fill="#8055BB"/>
<path d="M248.92 123.214V130.657L252.455 128.703V121.168L248.92 123.214Z" fill="#8055BB"/>
<path d="M244.362 125.819V133.355L247.897 131.308V123.773L244.362 125.819Z" fill="#8055BB"/>
<path d="M239.803 128.424V135.959L243.338 133.913V126.377L239.803 128.424Z" fill="#8055BB"/>
<path d="M235.245 131.029V138.564L238.78 136.518V128.982L235.245 131.029Z" fill="#8055BB"/>
<path d="M227.616 152.891L227.709 165.17L265.479 143.309L265.386 131.122L227.616 152.891Z" fill="#8055BB" stroke="#251725" stroke-miterlimit="10" stroke-linecap="round" stroke-linejoin="round"/>
<path d="M211.895 180.52L216.825 183.404V101.446L211.895 98.5621V180.52Z" fill="#A499CE"/>
<path d="M210.034 97.4457L205.011 94.6549V176.52L209.941 179.403L210.034 97.4457Z" fill="#A499CE"/>
<path d="M203.15 93.5387L198.22 90.6548V172.613L203.15 175.403V93.5387Z" fill="#A499CE"/>
<path d="M191.335 168.612L196.266 171.403L196.359 89.5384L191.335 86.6545V168.612Z" fill="#A499CE"/>
<path d="M99.8889 190.102L114.866 181.45L129.844 190.102L152.729 176.892L99.3307 146.006L61.4683 167.868L99.8889 190.102Z" fill="white" stroke="#251725" stroke-miterlimit="10" stroke-linecap="round" stroke-linejoin="round"/>
<path d="M99.8889 103.958L114.866 95.3061L129.844 103.958L152.729 90.7477L99.3307 59.9554L61.4683 81.724L99.8889 103.958Z" fill="white" stroke="#251725" stroke-miterlimit="10" stroke-linecap="round" stroke-linejoin="round"/>
<path d="M100.075 100.702L114.401 92.4223L128.728 100.702L150.961 87.8639L99.7959 58.281L63.2358 79.3984L100.075 100.702Z" fill="white" stroke="#251725" stroke-miterlimit="10" stroke-linecap="round" stroke-linejoin="round"/>
<path d="M99.7958 61.0719V62.9325L69.6547 80.3287L68.0732 79.3984L99.7958 61.0719Z" stroke="#251725" stroke-miterlimit="10" stroke-linecap="round" stroke-linejoin="round"/>
<path d="M146.124 87.864L144.542 88.7012L99.7959 62.9325V61.0719L146.124 87.864Z" fill="#AF56FF" stroke="#251725" stroke-miterlimit="10" stroke-linecap="round" stroke-linejoin="round"/>
<path d="M144.542 88.7011L128.728 97.8179L114.401 89.5384L100.075 97.8179L69.6548 80.3286L99.7959 62.9324L144.542 88.7011Z" fill="url(#paint9_linear_4013_18872)" stroke="#251725" stroke-miterlimit="10" stroke-linecap="round" stroke-linejoin="round"/>
<path d="M114.866 95.3062V181.45L99.8889 190.102V103.958L114.866 95.3062Z" fill="url(#paint10_linear_4013_18872)" stroke="#251725" stroke-miterlimit="10" stroke-linecap="round" stroke-linejoin="round"/>
<path d="M99.8889 103.958L61.4683 81.724V167.868L99.8889 190.102V103.958Z" fill="white" stroke="#251725" stroke-miterlimit="10" stroke-linecap="round" stroke-linejoin="round"/>
<path d="M69.1896 102.376L67.5151 101.353V105.167L69.1896 106.097V102.376Z" fill="#251725"/>
<path d="M69.1896 110.005L67.5151 108.981V112.795L69.1896 113.726V110.005Z" fill="#251725"/>
<path d="M69.1896 117.633L67.5151 116.61V120.424L69.1896 121.354V117.633Z" fill="#251725"/>
<path d="M69.1896 125.261L67.5151 124.331V128.052L69.1896 128.982V125.261Z" fill="#251725"/>
<path d="M69.1896 132.89L67.5151 131.959V135.68L69.1896 136.611V132.89Z" fill="#251725"/>
<path d="M69.1896 140.518L67.5151 139.588V143.309L69.1896 144.239V140.518Z" fill="#251725"/>
<path d="M69.1896 148.146L67.5151 147.216V150.937L69.1896 151.867V148.146Z" fill="#251725"/>
<path d="M74.2131 105.26L72.5386 104.33V108.051L74.2131 108.981V105.26Z" fill="#251725"/>
<path d="M74.2131 112.889L72.5386 111.958V115.679L74.2131 116.61V112.889Z" fill="#251725"/>
<path d="M74.2131 120.517L72.5386 119.587V123.308L74.2131 124.238V120.517Z" fill="#251725"/>
<path d="M74.2131 128.145L72.5386 127.215V130.936L74.2131 131.866V128.145Z" fill="#251725"/>
<path d="M74.2131 135.773L72.5386 134.843V138.564L74.2131 139.588V135.773Z" fill="#251725"/>
<path d="M74.2131 143.402L72.5386 142.471V146.193L74.2131 147.216V143.402Z" fill="#251725"/>
<path d="M74.2131 151.03L72.5386 150.1V153.821L74.2131 154.844V151.03Z" fill="#251725"/>
<path d="M79.2368 108.144L77.5623 107.214V110.935L79.2368 111.958V108.144Z" fill="#251725"/>
<path d="M79.2368 115.772L77.5623 114.842V118.563L79.2368 119.586V115.772Z" fill="#251725"/>
<path d="M79.2368 123.401L77.5623 122.47V126.191L79.2368 127.215V123.401Z" fill="#251725"/>
<path d="M79.2368 131.122L77.5623 130.099V133.82L79.2368 134.843V131.122Z" fill="#251725"/>
<path d="M79.2368 138.75L77.5623 137.727V141.448L79.2368 142.471V138.75Z" fill="#251725"/>
<path d="M79.2368 146.379L77.5623 145.355V149.169L79.2368 150.1V146.379Z" fill="#251725"/>
<path d="M79.2368 154.007L77.5623 152.984V156.798L79.2368 157.728V154.007Z" fill="#251725"/>
<path d="M84.3532 111.121L82.6787 110.098V113.819L84.3532 114.842V111.121Z" fill="#251725"/>
<path d="M84.3532 118.749L82.6787 117.726V121.54L84.3532 122.47V118.749Z" fill="#251725"/>
<path d="M84.3532 126.378L82.6787 125.354V129.168L84.3532 130.099V126.378Z" fill="#251725"/>
<path d="M84.3532 134.006L82.6787 132.983V136.797L84.3532 137.727V134.006Z" fill="#251725"/>
<path d="M84.3532 141.634L82.6787 140.704V144.425L84.3532 145.355V141.634Z" fill="#251725"/>
<path d="M84.3532 149.262L82.6787 148.332V152.053L84.3532 152.984V149.262Z" fill="#251725"/>
<path d="M84.3532 156.891L82.6787 155.961V159.682L84.3532 160.612V156.891Z" fill="#251725"/>
<path d="M89.3767 114.005L87.7021 113.075V116.796L89.3767 117.726V114.005Z" fill="#251725"/>
<path d="M89.3767 121.633L87.7021 120.703V124.424L89.3767 125.354V121.633Z" fill="#251725"/>
<path d="M89.3767 129.261L87.7021 128.331V132.052L89.3767 132.983V129.261Z" fill="#251725"/>
<path d="M89.3767 136.89L87.7021 135.959V139.681L89.3767 140.611V136.89Z" fill="#251725"/>
<path d="M89.3767 144.518L87.7021 143.588V147.309L89.3767 148.239V144.518Z" fill="#251725"/>
<path d="M89.3767 152.146L87.7021 151.216V154.937L89.3767 155.867V152.146Z" fill="#251725"/>
<path d="M89.3767 159.775L87.7021 158.844V162.566L89.3767 163.589V159.775Z" fill="#251725"/>
<path d="M94.4001 116.889L92.7256 115.958V119.68L94.4001 120.61V116.889Z" fill="#251725"/>
<path d="M94.4001 124.517L92.7256 123.587V127.308L94.4001 128.238V124.517Z" fill="#251725"/>
<path d="M94.4001 132.145L92.7256 131.215V134.936L94.4001 135.96V132.145Z" fill="#251725"/>
<path d="M94.4001 139.774L92.7256 138.843V142.565L94.4001 143.588V139.774Z" fill="#251725"/>
<path d="M94.4001 147.402L92.7256 146.472V150.193L94.4001 151.216V147.402Z" fill="#251725"/>
<path d="M94.4001 155.123L92.7256 154.1V157.821L94.4001 158.844V155.123Z" fill="#251725"/>
<path d="M94.4001 162.752L92.7256 161.728V165.449L94.4001 166.473V162.752Z" fill="#251725"/>
<path d="M129.844 103.958V190.102L152.729 176.892V90.7478L129.844 103.958Z" fill="url(#paint11_linear_4013_18872)" stroke="#251725" stroke-miterlimit="10" stroke-linecap="round" stroke-linejoin="round"/>
<path d="M129.844 103.958L114.866 95.3062V181.45L129.844 190.102V103.958Z" fill="white" stroke="#251725" stroke-miterlimit="10" stroke-linecap="round" stroke-linejoin="round"/>
<path d="M61.4683 81.7241L63.2358 79.3984L100.075 100.702L99.8889 103.958L61.4683 81.7241Z" fill="white" stroke="#251725" stroke-miterlimit="10" stroke-linecap="round" stroke-linejoin="round"/>
<path d="M100.075 100.702L99.8889 103.958L114.866 95.3061L114.401 92.4222L100.075 100.702Z" fill="#8055BB" stroke="#251725" stroke-miterlimit="10" stroke-linecap="round" stroke-linejoin="round"/>
<path d="M114.401 92.4222L128.728 100.702L129.844 103.958L114.867 95.3061L114.401 92.4222Z" fill="white" stroke="#251725" stroke-miterlimit="10" stroke-linecap="round" stroke-linejoin="round"/>
<path d="M150.961 87.8639L152.729 90.7478L129.844 103.958L128.728 100.702L150.961 87.8639Z" fill="#8055BB" stroke="#251725" stroke-miterlimit="10" stroke-linecap="round" stroke-linejoin="round"/>
<path d="M74.9573 80.1425L78.1202 78.282L81.2832 80.1425L78.1202 81.9101L74.9573 80.1425Z" fill="url(#paint12_linear_4013_18872)" stroke="#251725" stroke-miterlimit="10" stroke-linecap="round" stroke-linejoin="round"/>
<path d="M147.426 109.632L149.101 108.702V112.423L147.426 113.354V109.632Z" fill="#251725"/>
<path d="M147.426 117.261L149.101 116.33V120.052L147.426 120.982V117.261Z" fill="#251725"/>
<path d="M147.426 124.889L149.101 123.959V127.68L147.426 128.61V124.889Z" fill="#251725"/>
<path d="M147.426 132.517L149.101 131.587V135.308L147.426 136.238V132.517Z" fill="#251725"/>
<path d="M147.426 140.146L149.101 139.215V142.937L147.426 143.867V140.146Z" fill="#251725"/>
<path d="M147.426 147.774L149.101 146.844V150.565L147.426 151.588V147.774Z" fill="#251725"/>
<path d="M147.426 155.402L149.101 154.472V158.193L147.426 159.216V155.402Z" fill="#251725"/>
<path d="M143.24 112.051L144.915 111.121V114.842L143.24 115.772V112.051Z" fill="#251725"/>
<path d="M143.24 119.679L144.915 118.749V122.47L143.24 123.401V119.679Z" fill="#251725"/>
<path d="M143.24 127.308L144.915 126.377V130.099L143.24 131.029V127.308Z" fill="#251725"/>
<path d="M143.24 134.936L144.915 134.006V137.727L143.24 138.657V134.936Z" fill="#251725"/>
<path d="M143.24 142.564L144.915 141.634V145.355L143.24 146.379V142.564Z" fill="#251725"/>
<path d="M143.24 150.193L144.915 149.262V152.983L143.24 154.007V150.193Z" fill="#251725"/>
<path d="M143.24 157.821L144.915 156.891V160.612L143.24 161.635V157.821Z" fill="#251725"/>
<path d="M138.961 114.47L140.635 113.54V117.261L138.961 118.191V114.47Z" fill="#251725"/>
<path d="M138.961 122.098L140.635 121.168V124.889L138.961 125.819V122.098Z" fill="#251725"/>
<path d="M138.961 129.727L140.635 128.796V132.517L138.961 133.448V129.727Z" fill="#251725"/>
<path d="M138.961 137.355L140.635 136.425V140.146L138.961 141.169V137.355Z" fill="#251725"/>
<path d="M138.961 144.983L140.635 144.053V147.774L138.961 148.797V144.983Z" fill="#251725"/>
<path d="M138.961 152.611L140.635 151.681V155.402L138.961 156.426V152.611Z" fill="#251725"/>
<path d="M138.961 160.333L140.635 159.31V163.031L138.961 164.054V160.333Z" fill="#251725"/>
<path d="M134.774 116.889L136.449 115.958V119.679L134.774 120.61V116.889Z" fill="#251725"/>
<path d="M134.774 124.517L136.449 123.587V127.308L134.774 128.238V124.517Z" fill="#251725"/>
<path d="M134.774 132.145L136.449 131.215V134.936L134.774 135.959V132.145Z" fill="#251725"/>
<path d="M134.774 139.774L136.449 138.843V142.564L134.774 143.588V139.774Z" fill="#251725"/>
<path d="M134.774 147.402L136.449 146.472V150.193L134.774 151.216V147.402Z" fill="#251725"/>
<path d="M134.774 155.123L136.449 154.1V157.821L134.774 158.844V155.123Z" fill="#251725"/>
<path d="M134.774 162.751L136.449 161.728V165.449L134.774 166.473V162.751Z" fill="#251725"/>
<path d="M133.565 238.755L100.075 235.499L98.6794 222.01L146.124 196.893L147.984 197.823V209.917L165.66 220.15L133.565 238.755Z" fill="#8055BB"/>
<path d="M208.453 232.709L186.126 231.313L187.986 218.755L253.106 195.032L280.549 208.056L234.5 234.569H212.174L208.453 232.709Z" fill="#8055BB"/>
<path d="M212.453 234.755L255.525 210.01L255.711 154.379L212.639 179.124L212.453 234.755Z" fill="#251725" stroke="#251725" stroke-miterlimit="10" stroke-linecap="round" stroke-linejoin="round"/>
<path d="M212.639 179.125L212.453 234.755L171.148 210.94V155.216L212.639 179.125Z" fill="white" stroke="#251725" stroke-miterlimit="10" stroke-linecap="round" stroke-linejoin="round"/>
<path d="M138.31 136.239L171.148 155.216V210.94L138.217 191.869L138.31 136.239Z" fill="white" stroke="#251725" stroke-miterlimit="10" stroke-linecap="round" stroke-linejoin="round"/>
<path d="M146.217 149.355L149.287 151.123C149.287 151.123 149.287 151.123 149.287 151.216V159.403L146.217 157.635V149.355Z" fill="#DF87F1"/>
<path d="M142.496 147.216L145.565 148.89V157.077L142.496 155.309V147.216Z" fill="#DF87F1"/>
<path d="M146.217 164.798L149.287 166.566C149.287 166.566 149.287 166.566 149.287 166.659V174.845L146.217 173.078V164.798Z" fill="#DF87F1"/>
<path d="M142.496 162.658L145.565 164.333V172.519L142.496 170.752V162.658Z" fill="#DF87F1"/>
<path d="M146.217 178.659L149.287 180.427C149.287 180.427 149.287 180.427 149.287 180.52V188.706L146.217 186.939V178.659Z" fill="#DF87F1"/>
<path d="M142.496 176.613C142.496 176.52 142.496 176.613 142.496 176.613L145.565 178.287V186.474L142.496 184.706V176.613Z" fill="#DF87F1"/>
<path d="M185.847 231.499L196.173 225.36L196.359 169.729L185.94 175.869L185.847 231.499Z" fill="#251725" stroke="#251725" stroke-miterlimit="10" stroke-linecap="round" stroke-linejoin="round"/>
<path d="M138.309 136.239L181.753 110.842L255.711 154.379L212.639 179.125L196.452 169.822L185.94 175.869L148.263 154.1L158.776 148.053L138.309 136.239Z" fill="white" stroke="#251725" stroke-miterlimit="10" stroke-linecap="round" stroke-linejoin="round"/>
<path d="M148.263 154.1L148.077 209.824L185.847 231.499L185.94 175.869L148.263 154.1Z" fill="white" stroke="#251725" stroke-miterlimit="10" stroke-linecap="round" stroke-linejoin="round"/>
<path d="M160.078 148.053V150.007L151.333 155.03L149.752 154.1L160.078 148.053Z" fill="#AF56FF" stroke="#251725" stroke-miterlimit="10" stroke-linecap="round" stroke-linejoin="round"/>
<path d="M212.639 180.055V182.846L196.359 173.543V170.659L212.639 180.055Z" fill="white" stroke="#251725" stroke-miterlimit="10" stroke-linecap="round" stroke-linejoin="round"/>
<path d="M196.359 170.659V173.543L185.94 179.59V176.706L196.359 170.659Z" fill="#8055BB" stroke="#251725" stroke-miterlimit="10" stroke-linecap="round" stroke-linejoin="round"/>
<path d="M185.94 176.706V179.59L146.775 156.984V154.1L185.94 176.706Z" fill="white" stroke="#251725" stroke-miterlimit="10" stroke-linecap="round" stroke-linejoin="round"/>
<path d="M157.194 148.053L155.52 150.007L136.914 139.029V136.239L157.194 148.053Z" fill="white" stroke="#251725" stroke-miterlimit="10" stroke-linecap="round" stroke-linejoin="round"/>
<path d="M258.874 153.821V156.612L212.639 182.846V180.055L258.874 153.821Z" fill="#8055BB" stroke="#251725" stroke-miterlimit="10" stroke-linecap="round" stroke-linejoin="round"/>
<path d="M212.639 180.055L258.781 153.821L182.033 109.447L136.821 136.239L157.101 148.053L146.682 154.1L185.847 176.706L196.266 170.659L212.639 180.055Z" fill="white"/>
<path d="M212.639 180.055L258.781 153.821L182.033 109.447L136.821 136.239L157.101 148.053L146.682 154.1L185.847 176.706L196.266 170.659L212.639 180.055Z" fill="url(#paint13_linear_4013_18872)"/>
<path d="M212.639 180.055L258.781 153.821L182.033 109.447L136.821 136.239L157.101 148.053L146.682 154.1L185.847 176.706L196.266 170.659L212.639 180.055Z" stroke="#251725" stroke-miterlimit="10" stroke-linecap="round" stroke-linejoin="round"/>
<path d="M213.29 154.844V156.147L219.151 159.496L220.174 158.844L213.29 154.844Z" fill="white" stroke="#251725" stroke-miterlimit="10" stroke-linecap="round" stroke-linejoin="round"/>
<path d="M206.406 158.844L207.522 159.496L213.29 156.147V154.844L206.406 158.844Z" fill="#AF56FF" stroke="#251725" stroke-miterlimit="10" stroke-linecap="round" stroke-linejoin="round"/>
<path d="M207.522 159.496L213.29 162.845L219.151 159.496L213.29 156.147L207.522 159.496Z" fill="url(#paint14_linear_4013_18872)" stroke="#251725" stroke-miterlimit="10" stroke-linecap="round" stroke-linejoin="round"/>
<path d="M200.173 147.309V148.518L205.941 151.867L207.057 151.216L200.173 147.309Z" fill="white" stroke="#251725" stroke-miterlimit="10" stroke-linecap="round" stroke-linejoin="round"/>
<path d="M193.289 151.216L194.312 151.867L200.173 148.518V147.309L193.289 151.216Z" fill="#AF56FF" stroke="#251725" stroke-miterlimit="10" stroke-linecap="round" stroke-linejoin="round"/>
<path d="M194.312 151.867L200.173 155.216L205.941 151.867L200.173 148.518L194.312 151.867Z" fill="url(#paint15_linear_4013_18872)" stroke="#251725" stroke-miterlimit="10" stroke-linecap="round" stroke-linejoin="round"/>
<path d="M187.056 139.681V140.983L192.824 144.332L193.94 143.681L187.056 139.681Z" fill="white" stroke="#251725" stroke-miterlimit="10" stroke-linecap="round" stroke-linejoin="round"/>
<path d="M180.079 143.681L181.195 144.332L187.056 140.983V139.681L180.079 143.681Z" fill="#AF56FF" stroke="#251725" stroke-miterlimit="10" stroke-linecap="round" stroke-linejoin="round"/>
<path d="M181.195 144.332L187.056 147.681L192.824 144.332L187.056 140.983L181.195 144.332Z" fill="url(#paint16_linear_4013_18872)" stroke="#251725" stroke-miterlimit="10" stroke-linecap="round" stroke-linejoin="round"/>
<path d="M173.846 132.052V133.355L179.707 136.704L180.823 136.053L173.846 132.052Z" fill="white" stroke="#251725" stroke-miterlimit="10" stroke-linecap="round" stroke-linejoin="round"/>
<path d="M166.962 136.053L168.078 136.704L173.846 133.355V132.052L166.962 136.053Z" fill="#AF56FF" stroke="#251725" stroke-miterlimit="10" stroke-linecap="round" stroke-linejoin="round"/>
<path d="M168.079 136.704L173.846 140.053L179.707 136.704L173.846 133.355L168.079 136.704Z" fill="url(#paint17_linear_4013_18872)" stroke="#251725" stroke-miterlimit="10" stroke-linecap="round" stroke-linejoin="round"/>
<path d="M233.942 174.566L230.872 176.334C230.872 176.334 230.872 176.334 230.872 176.427V184.613L233.942 182.846V174.566Z" fill="#8055BB"/>
<path d="M237.57 172.519C237.57 172.426 237.57 172.426 237.57 172.519L234.501 174.194V182.38L237.57 180.613V172.519Z" fill="#8055BB"/>
<path d="M246.315 167.496L243.245 169.264C243.245 169.264 243.245 169.264 243.245 169.357V177.543L246.315 175.775V167.496Z" fill="#8055BB"/>
<path d="M249.943 165.449C249.943 165.356 249.943 165.449 249.943 165.449L246.873 167.124V175.31L249.943 173.543V165.449Z" fill="#8055BB"/>
<path d="M221.383 181.729L218.314 183.497C218.314 183.497 218.314 183.497 218.314 183.59V191.776L221.383 190.009V181.729Z" fill="#8055BB"/>
<path d="M225.105 179.683L222.035 181.357V189.544L225.105 187.776V179.683Z" fill="#8055BB"/>
<path d="M233.942 190.009L230.872 191.776C230.872 191.776 230.872 191.776 230.872 191.869V200.056L233.942 198.288V190.009Z" fill="#8055BB"/>
<path d="M237.57 187.962C237.57 187.869 237.57 187.869 237.57 187.962L234.501 189.637V197.823L237.57 196.056V187.962Z" fill="#8055BB"/>
<path d="M246.315 182.939L243.245 184.706C243.245 184.706 243.245 184.706 243.245 184.799V192.986L246.315 191.218V182.939Z" fill="#8055BB"/>
<path d="M249.943 180.799L246.873 182.474V190.66L249.943 188.892V180.799Z" fill="#8055BB"/>
<path d="M221.383 197.172L218.314 198.94C218.314 198.94 218.314 198.94 218.314 199.033V207.219L221.383 205.451V197.172Z" fill="#8055BB"/>
<path d="M225.105 195.125L222.035 196.8V204.986L225.105 203.219V195.125Z" fill="#8055BB"/>
<path d="M233.942 203.87L230.872 205.637C230.872 205.637 230.872 205.637 230.872 205.73V213.917L233.942 212.149V203.87Z" fill="#8055BB"/>
<path d="M237.57 201.823L234.501 203.498V211.684L237.57 209.917V201.823Z" fill="#8055BB"/>
<path d="M246.315 196.8L243.245 198.567C243.245 198.567 243.245 198.567 243.245 198.66V206.847L246.315 205.079V196.8Z" fill="#8055BB"/>
<path d="M249.943 194.753L246.873 196.428V204.614L249.943 202.847V194.753Z" fill="#8055BB"/>
<path d="M221.383 211.126L218.314 212.894C218.314 212.894 218.314 212.894 218.314 212.987V221.173L221.383 219.406V211.126Z" fill="#8055BB"/>
<path d="M225.105 209.08C225.105 208.987 225.105 208.987 225.105 209.08L222.035 210.754V218.941L225.105 217.173V209.08Z" fill="#8055BB"/>
<path d="M204.918 181.729L207.987 183.497C207.987 183.497 207.987 183.497 207.987 183.59V191.776L204.918 190.009V181.729Z" fill="#DF87F1"/>
<path d="M201.196 179.683L204.266 181.357V189.544L201.196 187.776V179.683Z" fill="#DF87F1"/>
<path d="M204.918 197.172L207.987 198.94C207.987 198.94 207.987 198.94 207.987 199.033V207.219L204.918 205.451V197.172Z" fill="#DF87F1"/>
<path d="M201.196 195.125L204.266 196.8V204.986L201.196 203.219V195.125Z" fill="#DF87F1"/>
<path d="M204.918 211.126L207.987 212.894C207.987 212.894 207.987 212.894 207.987 212.987V221.173L204.918 219.406V211.126Z" fill="#DF87F1"/>
<path d="M201.196 209.08C201.196 208.987 201.196 208.987 201.196 209.08L204.266 210.754V218.941L201.196 217.173V209.08Z" fill="#DF87F1"/>
<path d="M175.614 189.265C175.614 189.265 175.614 189.265 175.614 188.986C175.428 186.474 174.683 183.869 173.474 181.45C173.381 181.357 173.381 181.264 173.288 181.078L166.962 184.241L167.334 184.427L175.614 189.265Z" fill="#DF87F1"/>
<path d="M173.009 180.427C173.009 180.334 172.916 180.334 172.916 180.241C172.916 180.241 172.916 180.241 172.823 180.055C172.823 180.055 172.823 180.055 172.823 179.962C172.451 179.311 171.985 178.659 171.613 178.008C171.334 177.729 171.148 177.357 170.869 177.078C171.148 177.357 171.334 177.636 171.613 178.008C170.218 176.148 168.73 174.659 167.055 173.636L166.962 184.055L167.148 183.962L173.009 180.427Z" fill="#8055BB"/>
<path d="M166.218 172.985V173.171L166.125 183.404L164.078 179.962L166.125 183.404V183.497L159.799 172.892C159.799 172.892 159.799 172.892 159.892 172.892C159.892 172.892 159.985 172.892 159.985 172.799C160.078 172.706 160.078 172.706 160.171 172.706C162.032 171.682 164.078 171.775 166.218 172.985Z" fill="#DF87F1"/>
<path d="M159.613 174.008L159.427 173.636C158.496 174.473 157.752 175.683 157.38 177.264C157.38 177.264 157.38 177.264 157.38 177.357V177.45C157.38 177.729 157.287 177.915 157.287 178.194C157.287 178.287 157.287 178.287 157.287 178.38L157.566 178.566L165.846 183.311L159.613 174.008Z" fill="#8055BB"/>
<path d="M158.404 193.637L158.311 215.685L173.939 224.615V202.568L158.404 193.637Z" stroke="#251725" stroke-miterlimit="10" stroke-linecap="round" stroke-linejoin="round"/>
<path d="M167.334 201.544L172.079 204.335V220.708L167.334 218.01V201.544Z" fill="url(#paint18_linear_4013_18872)"/>
<path d="M160.264 197.544L165.009 200.335V216.801L160.264 214.01V197.544Z" fill="url(#paint19_linear_4013_18872)"/>
<path d="M58.1 202.063C65.65 206.413 65.7 213.513 58.2 217.863C50.7 222.213 38.5 222.213 30.95 217.863C23.4 213.513 23.35 206.413 30.85 202.063C38.35 197.713 50.55 197.713 58.1 202.063Z" fill="#8055BB" stroke="#8055BB" stroke-miterlimit="10" stroke-linecap="round" stroke-linejoin="round"/>
<path d="M53.5 209.613V204.963H51.35C50.45 203.963 49.3 203.013 47.85 202.163C40.3 197.813 28.1 197.813 20.6 202.163C19.15 203.013 18 203.963 17.1 204.963H15V209.613C15 209.913 15 210.163 15 210.463V210.513C15.2 213.213 17.05 215.913 20.65 218.013C28.2 222.363 40.4 222.363 47.9 218.013C51.9 215.713 53.75 212.613 53.5 209.613Z" fill="#EBEDFD"/>
<path d="M53.5 209.613V204.963H51.35C50.45 203.963 49.3 203.013 47.85 202.163C40.3 197.813 28.1 197.813 20.6 202.163C19.15 203.013 18 203.963 17.1 204.963H15V209.613C15 209.913 15 210.163 15 210.463V210.513C15.2 213.213 17.05 215.913 20.65 218.013C28.2 222.363 40.4 222.363 47.9 218.013C51.9 215.713 53.75 212.613 53.5 209.613Z" fill="url(#paint20_linear_4013_18872)"/>
<path d="M53.5 209.613V204.963H51.35C50.45 203.963 49.3 203.013 47.85 202.163C40.3 197.813 28.1 197.813 20.6 202.163C19.15 203.013 18 203.963 17.1 204.963H15V209.613C15 209.913 15 210.163 15 210.463V210.513C15.2 213.213 17.05 215.913 20.65 218.013C28.2 222.363 40.4 222.363 47.9 218.013C51.9 215.713 53.75 212.613 53.5 209.613Z" stroke="#251725" stroke-miterlimit="10" stroke-linecap="round" stroke-linejoin="round"/>
<path d="M47.85 197.613C55.4 201.963 55.45 209.063 47.95 213.413C40.45 217.763 28.25 217.763 20.7 213.413C13.15 209.063 13.1 201.963 20.6 197.613C28.1 193.213 40.3 193.213 47.85 197.613Z" fill="#EBEDFD" stroke="#251725" stroke-miterlimit="10" stroke-linecap="round" stroke-linejoin="round"/>
<path d="M45.4501 198.412C51.6501 201.912 51.7001 207.562 45.5001 211.012C39.3001 214.512 29.2501 214.512 23.0501 211.012C16.8501 207.512 16.8001 201.862 23.0001 198.412C29.2001 194.912 39.2501 194.912 45.4501 198.412Z" fill="#A499CE" stroke="#251725" stroke-miterlimit="10" stroke-linecap="round" stroke-linejoin="round"/>
<path d="M17.7 211.162V215.462" stroke="#251725" stroke-miterlimit="10" stroke-linecap="round" stroke-linejoin="round"/>
<path d="M22.2 214.162V218.762" stroke="#251725" stroke-miterlimit="10" stroke-linecap="round" stroke-linejoin="round"/>
<path d="M28.25 216.062V220.613" stroke="#251725" stroke-miterlimit="10" stroke-linecap="round" stroke-linejoin="round"/>
<path d="M35.3501 216.612V221.262" stroke="#251725" stroke-miterlimit="10" stroke-linecap="round" stroke-linejoin="round"/>
<path d="M42.25 215.662V220.262" stroke="#251725" stroke-miterlimit="10" stroke-linecap="round" stroke-linejoin="round"/>
<path d="M47.95 213.363V218.013" stroke="#251725" stroke-miterlimit="10" stroke-linecap="round" stroke-linejoin="round"/>
<path d="M52.3 209.512V214.112" stroke="#251725" stroke-miterlimit="10" stroke-linecap="round" stroke-linejoin="round"/>
<path d="M41.95 200.513L40.4 201.413C41.05 201.863 41.5 202.363 41.8 202.863L42 203.213L38.75 204.263L38.45 203.763C38.2 203.363 37.85 202.863 36.95 202.313C36.65 202.163 35.9 201.763 35.35 202.063C35.1 202.213 35.1 202.513 35.9 203.613C37.2 205.263 37.05 206.413 35.4 207.363C33.8 208.313 31.45 208.413 29.35 207.713L27.6 208.763L25.15 207.363L26.75 206.413C25.95 205.813 25.3 205.163 25.1 204.613L25 204.313L28.3 203.263L28.55 203.813C28.85 204.463 29.4 205.063 30.15 205.463C30.7 205.763 31.55 206.013 32.05 205.713C32.35 205.513 32.55 205.213 31.75 204.263C30.8 203.113 29.95 201.613 31.95 200.463C33.45 199.563 35.7 199.463 37.75 200.113L39.45 199.113L41.95 200.513Z" fill="#251725"/>
<path d="M53.5 205.613V200.963H51.35C50.45 199.963 49.3 199.013 47.85 198.163C40.3 193.813 28.1 193.813 20.6 198.163C19.15 199.013 18 199.963 17.1 200.963H15V205.613C15 205.913 15 206.163 15 206.463V206.513C15.2 209.213 17.05 211.913 20.65 214.013C28.2 218.363 40.4 218.363 47.9 214.013C51.9 211.663 53.75 208.613 53.5 205.613Z" fill="#EBEDFD"/>
<path d="M53.5 205.613V200.963H51.35C50.45 199.963 49.3 199.013 47.85 198.163C40.3 193.813 28.1 193.813 20.6 198.163C19.15 199.013 18 199.963 17.1 200.963H15V205.613C15 205.913 15 206.163 15 206.463V206.513C15.2 209.213 17.05 211.913 20.65 214.013C28.2 218.363 40.4 218.363 47.9 214.013C51.9 211.663 53.75 208.613 53.5 205.613Z" fill="url(#paint21_linear_4013_18872)"/>
<path d="M53.5 205.613V200.963H51.35C50.45 199.963 49.3 199.013 47.85 198.163C40.3 193.813 28.1 193.813 20.6 198.163C19.15 199.013 18 199.963 17.1 200.963H15V205.613C15 205.913 15 206.163 15 206.463V206.513C15.2 209.213 17.05 211.913 20.65 214.013C28.2 218.363 40.4 218.363 47.9 214.013C51.9 211.663 53.75 208.613 53.5 205.613Z" stroke="#251725" stroke-miterlimit="10" stroke-linecap="round" stroke-linejoin="round"/>
<path d="M47.85 193.563C55.4 197.913 55.45 205.013 47.95 209.363C40.45 213.713 28.25 213.713 20.7 209.363C13.15 205.013 13.1 197.913 20.6 193.563C28.1 189.213 40.3 189.213 47.85 193.563Z" fill="#EBEDFD"/>
<path d="M47.85 193.563C55.4 197.913 55.45 205.013 47.95 209.363C40.45 213.713 28.25 213.713 20.7 209.363C13.15 205.013 13.1 197.913 20.6 193.563C28.1 189.213 40.3 189.213 47.85 193.563Z" fill="url(#paint22_linear_4013_18872)"/>
<path d="M47.85 193.563C55.4 197.913 55.45 205.013 47.95 209.363C40.45 213.713 28.25 213.713 20.7 209.363C13.15 205.013 13.1 197.913 20.6 193.563C28.1 189.213 40.3 189.213 47.85 193.563Z" stroke="#251725" stroke-miterlimit="10" stroke-linecap="round" stroke-linejoin="round"/>
<path d="M45.4501 194.413C51.6501 197.913 51.7001 203.563 45.5001 207.013C39.3001 210.513 29.2501 210.513 23.0501 207.013C16.8501 203.513 16.8001 197.863 23.0001 194.413C29.2001 190.913 39.2501 190.913 45.4501 194.413Z" fill="#A499CE"/>
<path d="M45.4501 194.413C51.6501 197.913 51.7001 203.563 45.5001 207.013C39.3001 210.513 29.2501 210.513 23.0501 207.013C16.8501 203.513 16.8001 197.863 23.0001 194.413C29.2001 190.913 39.2501 190.913 45.4501 194.413Z" fill="url(#paint23_linear_4013_18872)"/>
<path d="M45.4501 194.413C51.6501 197.913 51.7001 203.563 45.5001 207.013C39.3001 210.513 29.2501 210.513 23.0501 207.013C16.8501 203.513 16.8001 197.863 23.0001 194.413C29.2001 190.913 39.2501 190.913 45.4501 194.413Z" stroke="#251725" stroke-miterlimit="10" stroke-linecap="round" stroke-linejoin="round"/>
<path d="M17.7 207.163V211.463" stroke="#251725" stroke-miterlimit="10" stroke-linecap="round" stroke-linejoin="round"/>
<path d="M22.2 210.163V214.763" stroke="#251725" stroke-miterlimit="10" stroke-linecap="round" stroke-linejoin="round"/>
<path d="M28.25 212.062V216.613" stroke="#251725" stroke-miterlimit="10" stroke-linecap="round" stroke-linejoin="round"/>
<path d="M35.3501 212.613V217.213" stroke="#251725" stroke-miterlimit="10" stroke-linecap="round" stroke-linejoin="round"/>
<path d="M42.25 211.663V216.263" stroke="#251725" stroke-miterlimit="10" stroke-linecap="round" stroke-linejoin="round"/>
<path d="M47.95 209.363V213.963" stroke="#251725" stroke-miterlimit="10" stroke-linecap="round" stroke-linejoin="round"/>
<path d="M52.3 205.463V210.113" stroke="#251725" stroke-miterlimit="10" stroke-linecap="round" stroke-linejoin="round"/>
<path d="M41.95 196.513L40.4 197.413C41.05 197.863 41.5 198.363 41.8 198.863L42 199.213L38.75 200.263L38.45 199.763C38.2 199.363 37.85 198.863 36.95 198.313C36.65 198.163 35.9 197.763 35.35 198.063C35.1 198.213 35.1 198.513 35.9 199.613C37.2 201.263 37.05 202.413 35.4 203.363C33.8 204.313 31.45 204.413 29.35 203.713L27.6 204.763L25.15 203.363L26.75 202.413C25.95 201.813 25.3 201.163 25.1 200.613L25 200.313L28.3 199.263L28.55 199.813C28.85 200.463 29.4 201.063 30.15 201.463C30.7 201.763 31.55 202.013 32.05 201.713C32.35 201.513 32.55 201.213 31.75 200.263C30.8 199.113 29.95 197.613 31.95 196.463C33.45 195.563 35.7 195.463 37.75 196.113L39.45 195.113L41.95 196.513Z" fill="#251725"/>
<path d="M62.6499 199.312V194.662H60.4999C59.5999 193.662 58.4499 192.712 56.9999 191.862C49.4499 187.512 37.2499 187.512 29.7499 191.862C28.2999 192.712 27.1499 193.662 26.2499 194.662H24.1499V199.312C24.1499 199.612 24.1499 199.862 24.1499 200.162V200.212C24.3499 202.912 26.1999 205.612 29.7999 207.712C37.3499 212.062 49.5499 212.062 57.0499 207.712C61.0499 205.362 62.8999 202.312 62.6499 199.312Z" fill="url(#paint24_linear_4013_18872)" stroke="#251725" stroke-miterlimit="10" stroke-linecap="round" stroke-linejoin="round"/>
<path d="M56.9999 187.262C64.5499 191.612 64.5999 198.712 57.0999 203.062C49.5999 207.412 37.3999 207.412 29.8499 203.062C22.2999 198.712 22.2499 191.612 29.7499 187.262C37.2499 182.912 49.4499 182.912 56.9999 187.262Z" fill="url(#paint25_linear_4013_18872)" stroke="#251725" stroke-miterlimit="10" stroke-linecap="round" stroke-linejoin="round"/>
<path d="M54.6 188.113C60.8 191.613 60.85 197.263 54.65 200.713C48.45 204.213 38.4 204.213 32.2 200.713C26 197.213 25.95 191.563 32.15 188.113C38.3 184.613 48.35 184.613 54.6 188.113Z" fill="url(#paint26_linear_4013_18872)" stroke="#251725" stroke-miterlimit="10" stroke-linecap="round" stroke-linejoin="round"/>
<path d="M26.8499 200.863V205.163" stroke="#251725" stroke-miterlimit="10" stroke-linecap="round" stroke-linejoin="round"/>
<path d="M31.3499 203.863V208.463" stroke="#251725" stroke-miterlimit="10" stroke-linecap="round" stroke-linejoin="round"/>
<path d="M37.3999 205.762V210.312" stroke="#251725" stroke-miterlimit="10" stroke-linecap="round" stroke-linejoin="round"/>
<path d="M44.5 206.312V210.913" stroke="#251725" stroke-miterlimit="10" stroke-linecap="round" stroke-linejoin="round"/>
<path d="M51.3999 205.363V209.963" stroke="#251725" stroke-miterlimit="10" stroke-linecap="round" stroke-linejoin="round"/>
<path d="M57.0999 203.062V207.663" stroke="#251725" stroke-miterlimit="10" stroke-linecap="round" stroke-linejoin="round"/>
<path d="M61.45 199.162V203.812" stroke="#251725" stroke-miterlimit="10" stroke-linecap="round" stroke-linejoin="round"/>
<path d="M51.0999 190.213L49.5499 191.113C50.1999 191.563 50.6499 192.062 50.9499 192.562L51.1499 192.913L47.8999 193.963L47.5999 193.463C47.3499 193.063 46.9999 192.563 46.0999 192.013C45.7999 191.863 45.0499 191.463 44.4999 191.763C44.2499 191.913 44.2499 192.213 45.0499 193.312C46.3499 194.963 46.1999 196.113 44.5499 197.062C42.9499 198.012 40.5999 198.113 38.4999 197.413L36.7499 198.463L34.2999 197.062L35.8999 196.113C35.0999 195.513 34.4499 194.863 34.2499 194.312L34.1499 194.013L37.4499 192.963L37.6999 193.513C37.9999 194.163 38.5499 194.763 39.2999 195.163C39.8499 195.463 40.6999 195.713 41.1999 195.413C41.4999 195.213 41.6999 194.913 40.8999 193.963C39.9499 192.813 39.0999 191.313 41.0999 190.163C42.5999 189.263 44.8499 189.163 46.8999 189.812L48.5999 188.812L51.0999 190.213Z" fill="#251725"/>
<path d="M121.051 235.289L110.741 229.354V195.676L121.176 201.924L121.051 235.289Z" fill="url(#paint27_linear_4013_18872)" stroke="#251725" stroke-miterlimit="10" stroke-linecap="round" stroke-linejoin="round"/>
<path d="M79 179.43V195.363V211.046L110.741 229.353V191.614L79 179.43Z" fill="url(#paint28_linear_4013_18872)" stroke="#251725" stroke-miterlimit="10" stroke-linecap="round" stroke-linejoin="round"/>
<path d="M118.926 209.671V221.605L113.365 218.481V206.485L118.926 209.671Z" fill="url(#paint29_linear_4013_18872)" stroke="#251725" stroke-miterlimit="10" stroke-linecap="round" stroke-linejoin="round"/>
<path d="M115.302 207.672V219.481" stroke="#251725" stroke-miterlimit="10" stroke-linecap="round" stroke-linejoin="round"/>
<path d="M135.047 178.18L146.168 187.303V220.981L130.61 229.978L121.238 235.414V219.731V201.736L135.047 178.18Z" fill="#251725" stroke="#251725" stroke-miterlimit="10" stroke-linecap="round" stroke-linejoin="round"/>
<path d="M119.551 202.861L78.0002 178.868L93.0584 153L134.547 176.931L119.551 202.861Z" fill="url(#paint30_linear_4013_18872)" stroke="#251725" stroke-miterlimit="10" stroke-linecap="round" stroke-linejoin="round"/>
<path d="M99.7439 235.727L94.9952 232.977L80.6243 224.73V191.052L91.6212 184.679L99.7439 202.111V235.727Z" fill="url(#paint31_linear_4013_18872)" stroke="#251725" stroke-miterlimit="10" stroke-linecap="round" stroke-linejoin="round"/>
<path d="M119.551 202.861L121.175 201.924L126.549 192.614L134.547 178.805L146.106 187.49L147.48 186.678L134.547 176.931L126.549 190.739L119.551 202.861Z" fill="#DF87F1" stroke="#251725" stroke-miterlimit="10" stroke-linecap="round" stroke-linejoin="round"/>
<path d="M142.357 213.608L126.799 222.543V204.611L142.357 195.676V213.608Z" fill="url(#paint32_linear_4013_18872)" stroke="#EBEDFD" stroke-miterlimit="10" stroke-linecap="round" stroke-linejoin="round"/>
<path d="M136.484 199.049V216.919" stroke="#EBEDFD" stroke-miterlimit="10" stroke-linecap="round" stroke-linejoin="round"/>
<path d="M94.9956 215.045V232.977L84.6235 227.041V209.109L87.0604 210.484L94.9956 215.045Z" fill="#DF87F1" stroke="#251725" stroke-miterlimit="10" stroke-linecap="round" stroke-linejoin="round"/>
<path d="M110.741 229.354L99.7441 235.727V202.111L110.741 195.738V229.354Z" fill="#251725" stroke="#251725" stroke-miterlimit="10" stroke-linecap="round" stroke-linejoin="round"/>
<path d="M79.2496 191.927L80.6242 192.677L89.8091 185.554L100.494 204.111L102.056 204.986L89.8091 183.742L79.2496 191.927Z" fill="#DF87F1" stroke="#251725" stroke-miterlimit="10" stroke-linecap="round" stroke-linejoin="round"/>
<path d="M89.8092 183.742L102.056 204.986L110.116 200.299L112.678 198.862L100.494 177.618L89.8092 183.742Z" fill="#EBEDFD" stroke="#251725" stroke-miterlimit="10" stroke-linecap="round" stroke-linejoin="round"/>
<path d="M89.8093 203.236C88.3098 202.361 87.0601 203.049 87.0601 204.798C87.0601 206.548 88.3098 208.672 89.8093 209.547C91.3089 210.421 92.5585 209.734 92.5585 207.985C92.621 206.235 91.3714 204.111 89.8093 203.236V209.547V203.236Z" fill="url(#paint33_linear_4013_18872)"/>
<path d="M89.8093 203.236C88.3098 202.361 87.0601 203.049 87.0601 204.798C87.0601 206.548 88.3098 208.672 89.8093 209.547C91.3089 210.421 92.5585 209.734 92.5585 207.985C92.621 206.235 91.3714 204.111 89.8093 203.236ZM89.8093 203.236V209.547" stroke="#251725" stroke-miterlimit="10" stroke-linecap="round" stroke-linejoin="round"/>
<path d="M92.5586 207.984L87.0602 204.798" stroke="#251725" stroke-miterlimit="10" stroke-linecap="round" stroke-linejoin="round"/>
<path d="M87.0601 210.484V228.416" stroke="#251725" stroke-miterlimit="10" stroke-linecap="round" stroke-linejoin="round"/>
<path d="M88.4973 219.419V220.418" stroke="#251725" stroke-miterlimit="10" stroke-linecap="round" stroke-linejoin="round"/>
<path d="M116.552 186.74L121.8 183.741L116.552 180.68L111.303 183.741L116.552 186.74Z" stroke="#251725" stroke-miterlimit="10" stroke-linecap="round" stroke-linejoin="round"/>
<path d="M116.552 179.367L121.8 176.368L116.552 173.307L111.303 176.368L116.552 179.367Z" stroke="#251725" stroke-miterlimit="10" stroke-linecap="round" stroke-linejoin="round"/>
<path d="M119.301 176.368L116.552 174.743L113.803 176.368L116.552 177.93L119.301 176.368Z" fill="url(#paint34_linear_4013_18872)" stroke="#251725" stroke-miterlimit="10" stroke-linecap="round" stroke-linejoin="round"/>
<path d="M116.552 179.367V192.801L121.8 183.741V176.368L116.552 179.367Z" fill="url(#paint35_linear_4013_18872)" stroke="#251725" stroke-miterlimit="10" stroke-linecap="round" stroke-linejoin="round"/>
<path d="M111.303 176.368L116.552 179.367V192.801L111.303 189.802V176.368Z" fill="#EBEDFD" stroke="#251725" stroke-miterlimit="10" stroke-linecap="round" stroke-linejoin="round"/>
<path d="M95.8701 166.496L101.181 163.435L95.8701 160.435L90.6216 163.435L95.8701 166.496Z" stroke="#251725" stroke-miterlimit="10" stroke-linecap="round" stroke-linejoin="round"/>
<path d="M98.6816 163.435L95.8699 161.873L93.1207 163.435L95.8699 165.059L98.6816 163.435Z" fill="url(#paint36_linear_4013_18872)" stroke="#251725" stroke-miterlimit="10" stroke-linecap="round" stroke-linejoin="round"/>
<path d="M95.8701 166.496V179.93L101.181 170.807V163.435L95.8701 166.496Z" fill="url(#paint37_linear_4013_18872)" stroke="#251725" stroke-miterlimit="10" stroke-linecap="round" stroke-linejoin="round"/>
<path d="M90.6216 163.435L95.8701 166.496V179.93L90.6216 176.868V163.435Z" fill="#EBEDFD" stroke="#251725" stroke-miterlimit="10" stroke-linecap="round" stroke-linejoin="round"/>
<path d="M99.7441 232.165L110.741 225.792" stroke="#251725" stroke-miterlimit="10" stroke-linecap="round" stroke-linejoin="round"/>
<path d="M121.238 231.853L110.741 225.792" stroke="#251725" stroke-miterlimit="10" stroke-linecap="round" stroke-linejoin="round"/>
<path d="M134.984 226.229L135.421 225.979L134.984 226.229Z" fill="#A499CE"/>
<path d="M132.29 145.682L132.219 162.047C132.219 162.758 132.006 163.327 131.579 163.612L131.294 163.754L129.017 165.106C129.444 164.821 129.658 164.252 129.658 163.541L129.729 147.176C129.729 145.54 128.59 143.548 127.167 142.694L99.7038 126.828H99.6327C98.9923 126.472 98.3519 126.401 97.925 126.614L100.344 125.191L100.486 125.12C100.913 124.907 101.554 124.978 102.194 125.334L129.658 141.2C131.152 141.982 132.29 143.975 132.29 145.682Z" fill="url(#paint38_linear_4013_18872)" stroke="#251725" stroke-miterlimit="10" stroke-linecap="round" stroke-linejoin="round"/>
<path d="M127.167 142.623L99.7037 126.756C98.2807 125.903 97.0711 126.614 97.0711 128.251L97 144.615C97 146.251 98.1384 148.244 99.5614 149.097L108.526 154.291L110.376 158.276C110.518 158.631 110.803 158.845 111.016 158.987C111.23 159.129 111.514 159.129 111.657 158.987L113.507 157.137L127.025 164.964C128.448 165.817 129.658 165.106 129.658 163.47L129.729 147.105C129.729 145.469 128.59 143.477 127.167 142.623Z" fill="white" stroke="#251725" stroke-miterlimit="10" stroke-linecap="round" stroke-linejoin="round"/>
<path d="M103.902 135.579C102.834 134.939 101.981 135.437 101.981 136.646C101.981 137.571 102.479 138.638 103.19 139.35C101.767 138.923 100.771 139.777 100.771 141.484V143.69L107.032 147.319V145.113C107.032 144.117 106.676 143.05 106.107 142.054C105.68 141.342 105.182 140.702 104.613 140.204C105.325 140.275 105.823 139.777 105.823 138.852C105.823 137.642 104.969 136.148 103.902 135.579Z" fill="#219F70"/>
<path d="M116.512 149.248C116.512 150.798 115.525 151.088 114.161 150.3C113.005 149.633 111.91 148.345 111.65 146.5L112.879 147C112.996 147.848 113.369 148.573 114.187 149.045C114.841 149.423 115.274 149.168 115.274 148.588C115.274 147.898 114.845 147.285 114.161 146.89L113.395 146.448L113.395 145.368L114.81 144.595L111.996 142.97L111.996 141.7L116.252 144.158L116.252 145.428L114.798 146.223C115.915 147.033 116.512 148.053 116.512 149.248ZM119.177 153.046L117.873 152.293L120.272 147.748L117.375 146.076L117.375 144.806L121.566 147.226L121.567 148.496L119.177 153.046Z" fill="#251725"/>
<path d="M236.794 120.803L236.677 147.548C236.677 148.711 236.329 149.641 235.631 150.106L235.166 150.339L231.445 152.548C232.142 152.083 232.491 151.153 232.491 149.99L232.607 123.245C232.607 120.57 230.747 117.314 228.421 115.919L183.535 89.9871H183.419C182.372 89.4057 181.326 89.2894 180.628 89.6382L184.582 87.3125L184.814 87.1962C185.512 86.8474 186.558 86.9637 187.605 87.5451L232.491 113.477C234.933 114.872 236.794 118.128 236.794 120.803Z" fill="url(#paint39_linear_4013_18872)" stroke="#251725" stroke-miterlimit="10" stroke-linecap="round" stroke-linejoin="round"/>
<path d="M228.305 115.919L183.419 89.9872C181.093 88.5917 179.116 89.7546 179.116 92.4291L179 119.175C179 121.849 180.861 125.105 183.186 126.501L197.838 134.989L200.862 141.501C201.094 142.083 201.559 142.432 201.908 142.664C202.257 142.897 202.722 142.897 202.955 142.664L205.978 139.641L228.072 152.432C230.398 153.828 232.375 152.665 232.375 149.99L232.491 123.245C232.607 120.57 230.747 117.314 228.305 115.919Z" fill="white" stroke="#251725" stroke-miterlimit="10" stroke-linecap="round" stroke-linejoin="round"/>
<path d="M190.396 104.29C188.652 103.244 187.256 104.058 187.256 106.034C187.256 107.546 188.07 109.29 189.233 110.453C186.907 109.756 185.279 111.151 185.279 113.942V117.547L195.513 123.477V119.872C195.513 118.244 194.931 116.5 194.001 114.872C193.303 113.709 192.489 112.663 191.559 111.849C192.722 111.965 193.536 111.151 193.536 109.639C193.536 107.779 192.14 105.337 190.396 104.29Z" fill="#8055BB"/>
<path d="M208.064 125.371C208.064 127.696 206.583 128.131 204.537 126.95C202.803 125.949 201.16 124.017 200.77 121.25L202.615 122C202.79 123.271 203.349 124.359 204.576 125.068C205.557 125.634 206.206 125.251 206.206 124.381C206.206 123.346 205.563 122.428 204.537 121.835L203.387 121.171L203.387 119.551L205.511 118.393L201.289 115.955L201.289 114.05L207.674 117.736L207.674 119.641L205.492 120.834C207.168 122.049 208.064 123.579 208.064 125.371ZM214.015 132.198L212.236 131.17L212.235 122.74L210.495 122.942L209.618 120.674L212.235 120.37L214.015 121.398L214.015 132.198ZM216.354 133.548L216.354 131.628L220.297 129.982C220.985 129.697 221.251 129.416 221.251 128.711C221.251 127.646 220.595 126.892 219.803 126.434C218.894 125.909 218.328 126.168 218.134 127.106L216.224 125.628C216.659 123.854 217.945 123.457 219.783 124.518C221.608 125.572 223.141 127.432 223.102 129.81C223.076 131.25 222.291 131.876 221.745 132.101L219.095 133.211L223.109 135.528L223.109 137.448L216.354 133.548Z" fill="#251725"/>
<path d="M261.553 39H252.553L248 47L252.553 55H261.553L266 47L261.553 39Z" stroke="#A499CE" stroke-miterlimit="10" stroke-linecap="round" stroke-linejoin="round"/>
<path d="M307.553 125H298.553L294 133L298.553 141H307.553L312 133L307.553 125Z" stroke="#A499CE" stroke-miterlimit="10" stroke-linecap="round" stroke-linejoin="round"/>
<path d="M45.2 129H53.7L58 136.5L53.7 144H45.2L41 136.5L45.2 129Z" stroke="#A499CE" stroke-miterlimit="10" stroke-linecap="round" stroke-linejoin="round"/>
<path d="M279.2 182H287.7L292 189.5L287.7 197H279.2L275 189.5L279.2 182Z" stroke="#A499CE" stroke-miterlimit="10" stroke-linecap="round" stroke-linejoin="round"/>
<path d="M150.459 23H157.459L161 29L157.459 35H150.459L147 29L150.459 23Z" stroke="#A499CE" stroke-miterlimit="10" stroke-linecap="round" stroke-linejoin="round"/>
<path d="M277.024 57H273.024L271 60.5L273.024 64H277.024L279 60.5L277.024 57Z" stroke="#A499CE" stroke-miterlimit="10" stroke-linecap="round" stroke-linejoin="round"/>
<path d="M286.024 137H282.024L280 140.5L282.024 144H286.024L288 140.5L286.024 137Z" stroke="#A499CE" stroke-miterlimit="10" stroke-linecap="round" stroke-linejoin="round"/>
<path d="M298.024 172H294.024L292 175.5L294.024 179H298.024L300 175.5L298.024 172Z" stroke="#A499CE" stroke-miterlimit="10" stroke-linecap="round" stroke-linejoin="round"/>
<path d="M169.024 229H165.024L163 232.5L165.024 236H169.024L171 232.5L169.024 229Z" stroke="#A499CE" stroke-miterlimit="10" stroke-linecap="round" stroke-linejoin="round"/>
<path d="M32.9765 144H36.9765L39 147.5L36.9765 151H32.9765L31 147.5L32.9765 144Z" stroke="#A499CE" stroke-miterlimit="10" stroke-linecap="round" stroke-linejoin="round"/>
<path d="M142.976 11H146.976L149 14.5L146.976 18H142.976L141 14.5L142.976 11Z" stroke="#A499CE" stroke-miterlimit="10" stroke-linecap="round" stroke-linejoin="round"/>
<path d="M124.976 45H128.976L131 48.5L128.976 52H124.976L123 48.5L124.976 45Z" stroke="#A499CE" stroke-miterlimit="10" stroke-linecap="round" stroke-linejoin="round"/>
<path d="M15.9765 128H19.9765L22 131.5L19.9765 135H15.9765L14 131.5L15.9765 128Z" stroke="#A499CE" stroke-miterlimit="10" stroke-linecap="round" stroke-linejoin="round"/>
<path d="M62.9765 223H66.9765L69 226.5L66.9765 230H62.9765L61 226.5L62.9765 223Z" stroke="#A499CE" stroke-miterlimit="10" stroke-linecap="round" stroke-linejoin="round"/>
<path d="M254.348 25.8187L254.263 45.4559C254.263 46.3097 254.007 46.9928 253.494 47.3343L253.153 47.505L250.421 49.1272C250.933 48.7857 251.189 48.1027 251.189 47.2489L251.274 27.6117C251.274 25.6479 249.908 23.2573 248.201 22.2328L215.244 3.19318H215.159C214.391 2.76628 213.622 2.6809 213.11 2.93704L216.013 1.22945L216.184 1.14408C216.696 0.887943 217.464 0.973312 218.233 1.40021L251.189 20.4398C252.982 21.379 254.348 23.7696 254.348 25.8187Z" fill="url(#paint40_linear_4013_18872)" stroke="#251725" stroke-miterlimit="10" stroke-linecap="round" stroke-linejoin="round"/>
<path d="M248.201 22.1473L215.244 3.1077C213.537 2.08315 212.085 2.93695 212.085 4.90067L212 24.5379C212 26.5016 213.366 28.8923 215.074 29.9168L225.831 36.1495L228.051 40.9308C228.222 41.3577 228.563 41.6138 228.82 41.7845C229.076 41.9553 229.417 41.9553 229.588 41.7845L231.808 39.5647L248.03 48.9564C249.738 49.981 251.189 49.1272 251.189 47.1634L251.274 27.5262C251.274 25.5625 249.908 23.1718 248.201 22.1473Z" fill="#FBFBFF" stroke="#251725" stroke-miterlimit="10" stroke-linecap="round" stroke-linejoin="round"/>
<path d="M220.282 13.6947C219.001 12.9263 217.976 13.524 217.976 14.9754C217.976 16.0854 218.574 17.366 219.428 18.2198C217.72 17.7076 216.525 18.7321 216.525 20.7812V23.428L224.038 27.7823V25.1356C224.038 23.9402 223.611 22.6596 222.928 21.4642C222.416 20.6105 221.818 19.842 221.135 19.2444C221.989 19.3298 222.587 18.7321 222.587 17.6222C222.587 16.1707 221.562 14.3778 220.282 13.6947Z" fill="#8055BB"/>
<path d="M232.998 31.4766C231.096 30.3785 230.151 28.4945 230.088 25.7645C230.01 22.4255 230.982 21.3125 233.06 22.5126C234.572 23.3856 235.539 24.7597 235.897 26.5387L234.458 25.9836C234.234 25.0506 233.829 24.4806 233.096 24.0576C232.057 23.4576 231.512 23.9165 231.486 25.4255L231.481 25.7405C231.886 25.3446 232.587 25.5396 233.31 25.9566C234.702 26.7606 235.871 28.2637 235.871 30.2557C235.871 32.2357 234.5 32.3436 232.998 31.4766ZM232.998 29.9526C233.881 30.4626 234.375 30.2316 234.375 29.4516C234.375 28.6716 233.881 27.8706 232.998 27.3606C232.115 26.8506 231.621 27.0815 231.621 27.8615C231.621 28.6415 232.115 29.4426 232.998 29.9526ZM242.15 36.581L240.726 35.759L240.726 34.295L237.146 32.2278L237.146 30.7038L239.531 26.4289L241.09 27.329L238.705 31.6039L240.726 32.771L240.726 30.179L242.15 31.001L242.15 33.593L242.878 34.013L242.878 35.537L242.15 35.117L242.15 36.581Z" fill="#251725"/>
<path d="M137.353 52.5631L137.213 84.6578C137.213 86.0533 136.795 87.1696 135.957 87.7278L135.399 88.0068L130.934 90.6581C131.771 90.1 132.19 88.9836 132.19 87.5882L132.329 55.4935C132.329 52.284 130.097 48.3769 127.306 46.7024L73.4424 15.5845H73.3029C72.047 14.8868 70.7911 14.7472 69.9539 15.1659L74.6983 12.375L74.9774 12.2355C75.8146 11.8168 77.0705 11.9564 78.3264 12.6541L132.19 43.772C135.12 45.4465 137.353 49.3537 137.353 52.5631Z" fill="url(#paint41_linear_4013_18872)" stroke="#251725" stroke-miterlimit="10" stroke-linecap="round" stroke-linejoin="round"/>
<path d="M127.166 46.7024L73.3026 15.5845C70.5118 13.91 68.1396 15.3054 68.1396 18.5149L68 50.6095C68 53.819 70.2327 57.7262 73.0235 59.4007L90.6058 69.5873L94.2339 77.4016C94.513 78.0993 95.0712 78.518 95.4898 78.7971C95.9084 79.0761 96.4666 79.0761 96.7457 78.7971L100.374 75.169L126.887 90.5186C129.678 92.1931 132.05 90.7977 132.05 87.5882L132.189 55.4935C132.329 52.284 130.096 48.3769 127.166 46.7024Z" fill="white" stroke="#251725" stroke-miterlimit="10" stroke-linecap="round" stroke-linejoin="round"/>
<path d="M81.6753 32.7481C79.5821 31.4922 77.9076 32.469 77.9076 34.8412C77.9076 36.6553 78.8844 38.7484 80.2798 40.1438C77.489 39.3066 75.5354 40.9811 75.5354 44.3301V48.6559L87.8151 55.7725V51.4467C87.8151 49.4931 87.1174 47.4 86.0011 45.4464C85.1638 44.051 84.187 42.7951 83.0707 41.8183C84.4661 41.9579 85.4429 40.9811 85.4429 39.167C85.4429 36.9343 83.7684 34.004 81.6753 32.7481Z" fill="#219F70"/>
<path d="M94.7435 56.6902L94.7434 54.3862L99.4743 52.4108C100.3 52.0689 100.62 51.7314 100.62 50.8854C100.62 49.6074 99.8327 48.7028 98.8818 48.1538C97.7907 47.5238 97.1126 47.8343 96.8788 48.9592L94.5873 47.1862C95.1095 45.0577 96.6526 44.5807 98.8584 45.8543C101.049 47.1189 102.888 49.3509 102.841 52.2039C102.81 53.9319 101.867 54.6834 101.212 54.9534L98.0325 56.2853L102.849 59.0664L102.849 61.3704L94.7435 56.6902ZM108.779 65.0641C105.926 63.417 104.508 60.5909 104.414 56.4959C104.297 51.4874 105.754 49.818 108.872 51.6181C111.14 52.9276 112.59 54.9887 113.128 57.6572L110.969 56.8246C110.633 55.4251 110.026 54.5701 108.927 53.9356C107.368 53.0355 106.549 53.724 106.511 55.9875L106.503 56.46C107.111 55.866 108.163 56.1585 109.246 56.7841C111.335 57.9902 113.089 60.2447 113.089 63.2327C113.089 66.2027 111.031 66.3646 108.779 65.0641ZM108.779 62.7781C110.104 63.5431 110.844 63.1966 110.844 62.0266C110.844 60.8566 110.104 59.6551 108.779 58.8901C107.454 58.125 106.713 58.4715 106.713 59.6415C106.713 60.8115 107.454 62.013 108.779 62.7781ZM120.206 71.3918L118.07 70.1587L118.07 60.0427L115.981 60.2856L114.929 57.5631L118.07 57.1987L120.205 58.4318L120.206 71.3918Z" fill="#251725"/>
<defs>
<linearGradient id="paint0_linear_4013_18872" x1="297.397" y1="155.311" x2="288.503" y2="144.164" gradientUnits="userSpaceOnUse">
<stop stop-color="#DF87F1"/>
<stop offset="0.75" stop-color="#FBFBFF"/>
</linearGradient>
<linearGradient id="paint1_linear_4013_18872" x1="16.8445" y1="110.639" x2="8.28945" y2="98.2904" gradientUnits="userSpaceOnUse">
<stop stop-color="#DF87F1"/>
<stop offset="0.75" stop-color="#FBFBFF"/>
</linearGradient>
<linearGradient id="paint2_linear_4013_18872" x1="322.176" y1="100.123" x2="302.591" y2="76.6518" gradientUnits="userSpaceOnUse">
<stop offset="0.55" stop-color="#FBFBFF"/>
<stop offset="0.9" stop-color="#DF87F1"/>
</linearGradient>
<linearGradient id="paint3_linear_4013_18872" x1="277.411" y1="82.8497" x2="326.037" y2="124.593" gradientUnits="userSpaceOnUse">
<stop offset="0.293434" stop-color="#10AD74"/>
<stop offset="0.495204" stop-color="#1288AA"/>
</linearGradient>
<linearGradient id="paint4_linear_4013_18872" x1="332.665" y1="113.952" x2="287.648" y2="76.4071" gradientUnits="userSpaceOnUse">
<stop offset="0.4" stop-color="#DF87F1"/>
<stop offset="0.75" stop-color="#FBFBFF"/>
</linearGradient>
<linearGradient id="paint5_linear_4013_18872" x1="78.81" y1="114.138" x2="23.0949" y2="90.5167" gradientUnits="userSpaceOnUse">
<stop offset="0.75" stop-color="#DF87F1"/>
<stop offset="0.9" stop-color="#FBFBFF"/>
</linearGradient>
<linearGradient id="paint6_linear_4013_18872" x1="81.7062" y1="110.588" x2="24.622" y2="86.3689" gradientUnits="userSpaceOnUse">
<stop stop-color="#DF87F1"/>
<stop offset="0.75" stop-color="#FBFBFF"/>
</linearGradient>
<linearGradient id="paint7_linear_4013_18872" x1="29.5717" y1="77.2631" x2="94.645" y2="104.842" gradientUnits="userSpaceOnUse">
<stop offset="0.15" stop-color="#10AD74"/>
<stop offset="0.5" stop-color="#1288AA"/>
</linearGradient>
<linearGradient id="paint8_linear_4013_18872" x1="155.5" y1="24.9375" x2="182.39" y2="123.83" gradientUnits="userSpaceOnUse">
<stop stop-color="#DF87F1"/>
<stop offset="0.45" stop-color="#FBFBFF"/>
</linearGradient>
<linearGradient id="paint9_linear_4013_18872" x1="95.9847" y1="43.5002" x2="103.298" y2="111.916" gradientUnits="userSpaceOnUse">
<stop stop-color="#DF87F1"/>
<stop offset="0.75" stop-color="#FBFBFF"/>
</linearGradient>
<linearGradient id="paint10_linear_4013_18872" x1="103.296" y1="69.4698" x2="143.328" y2="75.7949" gradientUnits="userSpaceOnUse">
<stop offset="0.1" stop-color="#F76DFC"/>
<stop offset="0.75" stop-color="#1288AA"/>
</linearGradient>
<linearGradient id="paint11_linear_4013_18872" x1="135.049" y1="63.6691" x2="194.585" y2="77.3825" gradientUnits="userSpaceOnUse">
<stop offset="0.1" stop-color="#F76DFC"/>
<stop offset="0.75" stop-color="#1288AA"/>
</linearGradient>
<linearGradient id="paint12_linear_4013_18872" x1="76.3961" y1="77.2932" x2="80.6857" y2="84.7724" gradientUnits="userSpaceOnUse">
<stop offset="0.1" stop-color="#F76DFC"/>
<stop offset="0.75" stop-color="#1288AA"/>
</linearGradient>
<linearGradient id="paint13_linear_4013_18872" x1="215.901" y1="70.1159" x2="197.618" y2="207.743" gradientUnits="userSpaceOnUse">
<stop stop-color="#DF87F1"/>
<stop offset="0.75" stop-color="#FBFBFF"/>
</linearGradient>
<linearGradient id="paint14_linear_4013_18872" x1="216.506" y1="154.321" x2="208.57" y2="168.099" gradientUnits="userSpaceOnUse">
<stop offset="0.1" stop-color="#F76DFC"/>
<stop offset="0.75" stop-color="#1288AA"/>
</linearGradient>
<linearGradient id="paint15_linear_4013_18872" x1="203.296" y1="146.693" x2="195.36" y2="160.471" gradientUnits="userSpaceOnUse">
<stop offset="0.1" stop-color="#F76DFC"/>
<stop offset="0.75" stop-color="#1288AA"/>
</linearGradient>
<linearGradient id="paint16_linear_4013_18872" x1="190.179" y1="139.157" x2="182.243" y2="152.936" gradientUnits="userSpaceOnUse">
<stop offset="0.1" stop-color="#F76DFC"/>
<stop offset="0.75" stop-color="#1288AA"/>
</linearGradient>
<linearGradient id="paint17_linear_4013_18872" x1="177.062" y1="131.529" x2="169.126" y2="145.308" gradientUnits="userSpaceOnUse">
<stop offset="0.1" stop-color="#F76DFC"/>
<stop offset="0.75" stop-color="#1288AA"/>
</linearGradient>
<linearGradient id="paint18_linear_4013_18872" x1="170.999" y1="196.321" x2="158.752" y2="199.353" gradientUnits="userSpaceOnUse">
<stop offset="0.15" stop-color="#10AD74"/>
<stop offset="0.5" stop-color="#1288AA"/>
</linearGradient>
<linearGradient id="paint19_linear_4013_18872" x1="163.929" y1="192.296" x2="151.676" y2="195.315" gradientUnits="userSpaceOnUse">
<stop offset="0.15" stop-color="#10AD74"/>
<stop offset="0.5" stop-color="#1288AA"/>
</linearGradient>
<linearGradient id="paint20_linear_4013_18872" x1="64.0378" y1="205.361" x2="33.0931" y2="181.154" gradientUnits="userSpaceOnUse">
<stop offset="0.540232" stop-color="#DF87F1"/>
<stop offset="0.784112" stop-color="#FBFBFF"/>
</linearGradient>
<linearGradient id="paint21_linear_4013_18872" x1="64.0378" y1="201.361" x2="33.0931" y2="177.154" gradientUnits="userSpaceOnUse">
<stop offset="0.540232" stop-color="#DF87F1"/>
<stop offset="0.784112" stop-color="#FBFBFF"/>
</linearGradient>
<linearGradient id="paint22_linear_4013_18872" x1="57.9933" y1="212.625" x2="38.5449" y2="179.053" gradientUnits="userSpaceOnUse">
<stop offset="0.112285" stop-color="#DF87F1"/>
<stop offset="0.583747" stop-color="#FBFBFF"/>
<stop offset="1" stop-color="#DF87F1"/>
</linearGradient>
<linearGradient id="paint23_linear_4013_18872" x1="53.7909" y1="209.638" x2="38.4761" y2="182.397" gradientUnits="userSpaceOnUse">
<stop offset="0.35" stop-color="#DF87F1"/>
<stop offset="0.85" stop-color="#FBFBFF"/>
</linearGradient>
<linearGradient id="paint24_linear_4013_18872" x1="73.1877" y1="195.061" x2="42.243" y2="170.854" gradientUnits="userSpaceOnUse">
<stop offset="0.540232" stop-color="#DF87F1"/>
<stop offset="0.784112" stop-color="#FBFBFF"/>
</linearGradient>
<linearGradient id="paint25_linear_4013_18872" x1="67.1432" y1="206.325" x2="47.6949" y2="172.753" gradientUnits="userSpaceOnUse">
<stop offset="0.112285" stop-color="#DF87F1"/>
<stop offset="0.583747" stop-color="#FBFBFF"/>
<stop offset="1" stop-color="#DF87F1"/>
</linearGradient>
<linearGradient id="paint26_linear_4013_18872" x1="62.9408" y1="203.338" x2="47.626" y2="176.097" gradientUnits="userSpaceOnUse">
<stop stop-color="#DF87F1"/>
<stop offset="0.75" stop-color="#FBFBFF"/>
</linearGradient>
<linearGradient id="paint27_linear_4013_18872" x1="109.536" y1="235.289" x2="129.134" y2="230.127" gradientUnits="userSpaceOnUse">
<stop stop-color="#DF87F1"/>
<stop offset="0.669" stop-color="#FBFBFF"/>
</linearGradient>
<linearGradient id="paint28_linear_4013_18872" x1="75.3352" y1="229.353" x2="120.734" y2="200.489" gradientUnits="userSpaceOnUse">
<stop stop-color="#DF87F1"/>
<stop offset="0.669" stop-color="#FBFBFF"/>
</linearGradient>
<linearGradient id="paint29_linear_4013_18872" x1="117.661" y1="202.364" x2="104.242" y2="207.299" gradientUnits="userSpaceOnUse">
<stop offset="0.1" stop-color="#F76DFC"/>
<stop offset="0.75" stop-color="#1288AA"/>
</linearGradient>
<linearGradient id="paint30_linear_4013_18872" x1="66.3854" y1="190.901" x2="122.555" y2="145.703" gradientUnits="userSpaceOnUse">
<stop stop-color="#DF87F1"/>
<stop offset="0.59775" stop-color="#FBFBFF"/>
</linearGradient>
<linearGradient id="paint31_linear_4013_18872" x1="78.4168" y1="235.727" x2="112.093" y2="223.113" gradientUnits="userSpaceOnUse">
<stop stop-color="#DF87F1"/>
<stop offset="0.669" stop-color="#FBFBFF"/>
</linearGradient>
<linearGradient id="paint32_linear_4013_18872" x1="138.818" y1="188.353" x2="106.899" y2="206.836" gradientUnits="userSpaceOnUse">
<stop offset="0.1" stop-color="#F76DFC"/>
<stop offset="0.75" stop-color="#1288AA"/>
</linearGradient>
<linearGradient id="paint33_linear_4013_18872" x1="91.3097" y1="200.93" x2="81.9234" y2="208.234" gradientUnits="userSpaceOnUse">
<stop offset="0.1" stop-color="#F76DFC"/>
<stop offset="0.75" stop-color="#1288AA"/>
</linearGradient>
<linearGradient id="paint34_linear_4013_18872" x1="118.05" y1="173.875" x2="114.263" y2="180.41" gradientUnits="userSpaceOnUse">
<stop offset="0.1" stop-color="#F76DFC"/>
<stop offset="0.75" stop-color="#1288AA"/>
</linearGradient>
<linearGradient id="paint35_linear_4013_18872" x1="120.607" y1="171.889" x2="107.559" y2="176.057" gradientUnits="userSpaceOnUse">
<stop offset="0.1" stop-color="#F76DFC"/>
<stop offset="0.75" stop-color="#1288AA"/>
</linearGradient>
<linearGradient id="paint36_linear_4013_18872" x1="97.4168" y1="161.004" x2="93.6509" y2="167.576" gradientUnits="userSpaceOnUse">
<stop offset="0.1" stop-color="#F76DFC"/>
<stop offset="0.75" stop-color="#1288AA"/>
</linearGradient>
<linearGradient id="paint37_linear_4013_18872" x1="99.9732" y1="158.939" x2="86.7899" y2="163.183" gradientUnits="userSpaceOnUse">
<stop offset="0.1" stop-color="#F76DFC"/>
<stop offset="0.75" stop-color="#1288AA"/>
</linearGradient>
<linearGradient id="paint38_linear_4013_18872" x1="136.258" y1="165.106" x2="96.4583" y2="131.003" gradientUnits="userSpaceOnUse">
<stop stop-color="#DF87F1"/>
<stop offset="0.75" stop-color="#FBFBFF"/>
</linearGradient>
<linearGradient id="paint39_linear_4013_18872" x1="243.278" y1="152.548" x2="178.231" y2="96.8119" gradientUnits="userSpaceOnUse">
<stop stop-color="#DF87F1"/>
<stop offset="0.75" stop-color="#FBFBFF"/>
</linearGradient>
<linearGradient id="paint40_linear_4013_18872" x1="259.109" y1="49.1272" x2="211.35" y2="8.20415" gradientUnits="userSpaceOnUse">
<stop stop-color="#DF87F1"/>
<stop offset="0.75" stop-color="#FBFBFF"/>
</linearGradient>
<linearGradient id="paint41_linear_4013_18872" x1="145.134" y1="90.6581" x2="67.0772" y2="23.7743" gradientUnits="userSpaceOnUse">
<stop stop-color="#DF87F1"/>
<stop offset="0.75" stop-color="#FBFBFF"/>
</linearGradient>
</defs>
</svg>
