<svg width="92" height="102" viewBox="0 0 92 102" fill="none" xmlns="http://www.w3.org/2000/svg">
<path d="M90.6 12.7L85.2 11.3L84.3 12.9C65.2 12.3 48.1 2.90001 48.1 2.90001L41.6 1.20001L44.5 5.50002C37.9 10.1 23.2 19.4 9.29998 21.2C9.29998 21.2 3.6 69 41.2 95.2V100.6L48.1 99.5C98.3 70.7 90.6 12.7 90.6 12.7Z" fill="#251725" stroke="#251725" stroke-miterlimit="10" stroke-linecap="round" stroke-linejoin="round"/>
<path d="M85.2001 11.3C63.2001 13.1 41.6 1.20001 41.6 1.20001C41.6 1.20001 20.9001 17.5 1.60005 20C1.60005 20 -5.19998 75.1 41.1 100.5C93 70.9 85.2001 11.3 85.2001 11.3Z" fill="#A499CE"/>
<path d="M85.2001 11.3C63.2001 13.1 41.6 1.20001 41.6 1.20001C41.6 1.20001 20.9001 17.5 1.60005 20C1.60005 20 -5.19998 75.1 41.1 100.5C93 70.9 85.2001 11.3 85.2001 11.3Z" fill="url(#paint0_linear_2216_2645)"/>
<path d="M85.2001 11.3C63.2001 13.1 41.6 1.20001 41.6 1.20001C41.6 1.20001 20.9001 17.5 1.60005 20C1.60005 20 -5.19998 75.1 41.1 100.5C93 70.9 85.2001 11.3 85.2001 11.3Z" fill="url(#paint1_linear_2216_2645)"/>
<path d="M85.2001 11.3C63.2001 13.1 41.6 1.20001 41.6 1.20001C41.6 1.20001 20.9001 17.5 1.60005 20C1.60005 20 -5.19998 75.1 41.1 100.5C93 70.9 85.2001 11.3 85.2001 11.3Z" stroke="#251725" stroke-miterlimit="10" stroke-linecap="round" stroke-linejoin="round"/>
<path d="M41.2002 92.3C9.10017 73.2 6.70015 38.6 7.00015 25.4C21.4002 22.1 35.3001 13.2 41.6001 8.79999C47.9001 11.8 62.6001 18 78.8001 18.4C79.0001 32.5 75.9002 70.2 41.2002 92.3Z" fill="#FBFBFF"/>
<path d="M41.2002 92.3C9.10017 73.2 6.70015 38.6 7.00015 25.4C21.4002 22.1 35.3001 13.2 41.6001 8.79999C47.9001 11.8 62.6001 18 78.8001 18.4C79.0001 32.5 75.9002 70.2 41.2002 92.3Z" fill="url(#paint2_linear_2216_2645)"/>
<path d="M41.2002 92.3C9.10017 73.2 6.70015 38.6 7.00015 25.4C21.4002 22.1 35.3001 13.2 41.6001 8.79999C47.9001 11.8 62.6001 18 78.8001 18.4C79.0001 32.5 75.9002 70.2 41.2002 92.3Z" stroke="#251725" stroke-miterlimit="10" stroke-linecap="round" stroke-linejoin="round"/>
<path d="M42.8934 43.7417C48.1301 43.7417 52.3752 38.9964 52.3752 33.1427C52.3752 27.289 48.1301 22.5437 42.8934 22.5437C37.6568 22.5437 33.4116 27.289 33.4116 33.1427C33.4116 38.9964 37.6568 43.7417 42.8934 43.7417Z" fill="#251725"/>
<path d="M50.0354 47.2741L35.7514 47.7163C33.4299 47.7191 31.2043 48.6426 29.5627 50.2841C27.9211 51.9257 26.9977 54.1513 26.9949 56.4728V63.4566L58.7919 64.9391V56.0307C58.7891 53.7092 57.8656 51.4835 56.2241 49.842C54.5825 48.2004 52.3569 47.277 50.0354 47.2741Z" fill="#251725"/>
<defs>
<linearGradient id="paint0_linear_2216_2645" x1="20.439" y1="-25.864" x2="154.672" y2="88.183" gradientUnits="userSpaceOnUse">
<stop offset="0.15" stop-color="#10AD74"/>
<stop offset="0.65" stop-color="#1288AA"/>
</linearGradient>
<linearGradient id="paint1_linear_2216_2645" x1="20.439" y1="-25.864" x2="131.788" y2="68.7399" gradientUnits="userSpaceOnUse">
<stop offset="0.1" stop-color="#F76DFC"/>
<stop offset="0.7" stop-color="#1288AA"/>
</linearGradient>
<linearGradient id="paint2_linear_2216_2645" x1="121.521" y1="115" x2="1.60518" y2="26.5681" gradientUnits="userSpaceOnUse">
<stop offset="0.35" stop-color="#DF87F1"/>
<stop offset="0.65" stop-color="#FBFBFF"/>
</linearGradient>
</defs>
</svg>
