<svg width="481" height="349" viewBox="0 0 481 349" fill="none" xmlns="http://www.w3.org/2000/svg">
<path d="M373.466 271.69H344.202V270.227L369.077 210.236L429.799 239.5L373.466 271.69Z" fill="#8055BB"/>
<path d="M430.016 220.726L431.525 224.653C432.644 227.461 427.976 231.841 421.238 234.519C414.501 237.198 408.161 237.034 407.042 234.226L405.533 230.299C406.652 233.106 412.969 233.182 419.729 230.592C426.467 227.913 431.135 223.533 430.016 220.726Z" fill="#DF87F1" stroke="#251725" stroke-miterlimit="10" stroke-linecap="round" stroke-linejoin="round"/>
<path d="M415.785 220.399C422.523 217.721 428.863 217.884 429.983 220.692C431.102 223.5 426.433 227.88 419.695 230.559C412.957 233.238 406.617 233.074 405.498 230.266C404.468 227.434 409.048 223.078 415.785 220.399Z" fill="url(#paint0_linear_3068_10627)" stroke="#251725" stroke-miterlimit="10" stroke-linecap="round" stroke-linejoin="round"/>
<mask id="mask0_3068_10627" style="mask-type:alpha" maskUnits="userSpaceOnUse" x="405" y="220" width="28" height="17">
<path d="M430.063 220.728L431.555 224.635C432.662 227.428 427.97 231.805 421.216 234.494C414.462 237.183 408.12 237.039 407.013 234.246L405.521 230.338C406.628 233.132 412.948 233.188 419.725 230.587C426.479 227.898 431.17 223.521 430.063 220.728Z" fill="#D9D9D9" stroke="#251725" stroke-miterlimit="10" stroke-linecap="round" stroke-linejoin="round"/>
</mask>
<g mask="url(#mask0_3068_10627)">
<path d="M412.009 240.762L407.335 228.719" stroke="#251725" stroke-miterlimit="10" stroke-linecap="round" stroke-linejoin="round"/>
<path d="M417.189 238.796L412.514 226.753" stroke="#251725" stroke-miterlimit="10" stroke-linecap="round" stroke-linejoin="round"/>
<path d="M422.345 236.743L417.671 224.699" stroke="#251725" stroke-miterlimit="10" stroke-linecap="round" stroke-linejoin="round"/>
<path d="M427.59 234.663L422.85 222.734" stroke="#251725" stroke-miterlimit="10" stroke-linecap="round" stroke-linejoin="round"/>
<path d="M432.77 232.699L428.007 220.681" stroke="#251725" stroke-miterlimit="10" stroke-linecap="round" stroke-linejoin="round"/>
</g>
<path d="M430.051 220.727L431.547 224.64C432.657 227.437 427.972 231.814 421.222 234.501C414.473 237.187 408.131 237.038 407.021 234.241L405.524 230.328C406.634 233.125 412.953 233.186 419.726 230.588C426.475 227.902 431.161 223.524 430.051 220.727Z" stroke="#251725" stroke-miterlimit="10" stroke-linecap="round" stroke-linejoin="round"/>
<path d="M421.089 225.653C421.085 225.276 421.015 225.011 420.767 224.795C420.519 224.579 420.116 224.5 419.557 224.557C419.98 224.347 420.403 224.138 420.691 223.776C421.001 223.503 421.2 223.165 421.196 222.788C421.259 222.298 421.1 222.058 420.584 221.915C420.27 221.811 419.89 221.82 419.354 221.965L419.436 221.187L418.455 221.454L418.349 222.144L417.278 222.435L417.384 221.745L416.402 222.012L416.207 222.726L414.868 223.09L413.295 229.473L414.902 229.037L414.73 229.84L415.801 229.548L415.973 228.746L417.222 228.406L417.051 229.209L418.122 228.918L418.27 228.026C418.961 227.744 419.473 227.51 419.939 227.1C420.696 226.705 420.937 226.167 421.089 225.653ZM419.034 223.659C418.949 224.061 418.549 224.359 417.835 224.553L416.496 224.917L416.73 223.624L417.98 223.284C418.806 223.154 419.12 223.258 419.034 223.659ZM417.545 227.089L416.028 227.502L416.305 226.008L417.822 225.596C418.179 225.499 418.47 225.514 418.672 225.554C418.873 225.594 418.92 225.77 418.877 225.971C418.814 226.46 418.349 226.871 417.545 227.089Z" fill="#251725"/>
<path d="M189.34 26.3076L185.573 28.5127C182.908 30.0747 183.735 36.5062 187.41 42.9378C191.085 49.3693 196.322 53.3202 198.987 51.7582L202.754 49.5531C200.09 51.1151 194.852 47.1642 191.177 40.7327C187.502 34.3011 186.675 27.7777 189.34 26.3076Z" fill="#8055BB" stroke="#251725" stroke-miterlimit="10" stroke-linecap="round" stroke-linejoin="round"/>
<path d="M201.009 35.0365C197.333 28.6049 192.096 24.6541 189.432 26.2161C186.767 27.778 187.594 34.2096 191.269 40.6412C194.944 47.0727 200.182 51.0235 202.846 49.4616C205.511 47.9915 204.684 41.4681 201.009 35.0365Z" fill="#DF87F1" stroke="#251725" stroke-miterlimit="10" stroke-linecap="round" stroke-linejoin="round"/>
<mask id="mask1_3068_10627" style="mask-type:alpha" maskUnits="userSpaceOnUse" x="183" y="25" width="21" height="28">
<path d="M189.34 26.3066L185.573 28.5117C182.908 30.0737 183.735 36.5053 187.41 42.9368C191.085 49.3684 196.322 53.3192 198.987 51.7572L202.754 49.5521C200.09 51.1141 194.852 47.1633 191.177 40.7317C187.502 34.3002 186.675 27.7767 189.34 26.3066Z" fill="#D9D9D9" stroke="#251725" stroke-miterlimit="10" stroke-linecap="round" stroke-linejoin="round"/>
</mask>
<g mask="url(#mask1_3068_10627)">
<path d="M190.901 53.8712L202.386 47.2559" stroke="#251725" stroke-miterlimit="10" stroke-linecap="round" stroke-linejoin="round"/>
<path d="M188.053 48.9102L199.538 42.2949" stroke="#251725" stroke-miterlimit="10" stroke-linecap="round" stroke-linejoin="round"/>
<path d="M185.113 43.9493L196.69 37.334" stroke="#251725" stroke-miterlimit="10" stroke-linecap="round" stroke-linejoin="round"/>
<path d="M182.265 38.9864L193.75 32.3711" stroke="#251725" stroke-miterlimit="10" stroke-linecap="round" stroke-linejoin="round"/>
<path d="M179.417 34.0255L190.901 27.4102" stroke="#251725" stroke-miterlimit="10" stroke-linecap="round" stroke-linejoin="round"/>
</g>
<path d="M189.34 26.3066L185.573 28.5117C182.908 30.0737 183.735 36.5053 187.41 42.9368C191.085 49.3684 196.322 53.3192 198.987 51.7572L202.754 49.5521C200.09 51.1141 194.852 47.1633 191.177 40.7317C187.502 34.3002 186.675 27.7767 189.34 26.3066Z" stroke="#251725" stroke-miterlimit="10" stroke-linecap="round" stroke-linejoin="round"/>
<path d="M198.252 40.0902L197.425 37.15L198.252 36.0475L197.701 35.4043L197.057 36.0475L195.863 32.0967L194.025 33.5667L195.22 38.0688L193.658 39.8145L194.577 40.7333L195.587 39.447L196.69 43.8572L201.468 38.8957L201.008 37.4257L198.252 40.0902Z" fill="#251725"/>
<path d="M3.02936 149.391L1.28364 152.423C-0.0026716 154.628 3.2131 158.762 8.35835 161.702C13.5036 164.643 18.7407 165.378 19.9351 163.173L21.6809 160.14C20.3945 162.346 15.2493 161.611 10.1041 158.67C4.95882 155.73 1.74304 151.596 3.02936 149.391Z" fill="#DF87F1" stroke="#251725" stroke-miterlimit="10" stroke-linecap="round" stroke-linejoin="round"/>
<path d="M14.6063 150.862C9.46103 147.921 4.22392 147.186 3.02949 149.392C1.74318 151.597 4.95895 155.731 10.1042 158.671C15.2494 161.611 20.4866 162.346 21.681 160.141C22.9673 158.028 19.7515 153.894 14.6063 150.862Z" fill="url(#paint1_linear_3068_10627)" stroke="#251725" stroke-miterlimit="10" stroke-linecap="round" stroke-linejoin="round"/>
<mask id="mask2_3068_10627" style="mask-type:alpha" maskUnits="userSpaceOnUse" x="0" y="148" width="23" height="17">
<path d="M3.02936 149.391L1.28364 152.423C-0.0026716 154.628 3.2131 158.762 8.35835 161.702C13.5036 164.643 18.7407 165.378 19.9351 163.173L21.6809 160.14C20.3945 162.346 15.2493 161.611 10.1041 158.67C4.95882 155.73 1.74304 151.596 3.02936 149.391Z" fill="#D9D9D9" stroke="#251725" stroke-miterlimit="10" stroke-linecap="round" stroke-linejoin="round"/>
</mask>
<g mask="url(#mask2_3068_10627)">
<path d="M15.1575 167.951L20.4865 158.763" stroke="#251725" stroke-miterlimit="10" stroke-linecap="round" stroke-linejoin="round"/>
<path d="M9.82886 164.918L15.1579 155.73" stroke="#251725" stroke-miterlimit="10" stroke-linecap="round" stroke-linejoin="round"/>
<path d="M4.49976 161.887L9.82876 152.607" stroke="#251725" stroke-miterlimit="10" stroke-linecap="round" stroke-linejoin="round"/>
<path d="M-0.737549 158.855L4.59146 149.575" stroke="#251725" stroke-miterlimit="10" stroke-linecap="round" stroke-linejoin="round"/>
</g>
<path d="M3.02936 149.391L1.28364 152.423C-0.00267157 154.628 3.2131 158.762 8.35835 161.702C13.5036 164.643 18.7407 165.378 19.9351 163.173L21.6809 160.14C20.3945 162.346 15.2493 161.611 10.1041 158.67C4.95882 155.73 1.74304 151.596 3.02936 149.391Z" stroke="#251725" stroke-miterlimit="10" stroke-linecap="round" stroke-linejoin="round"/>
<path d="M9.64441 151.965C9.64441 151.965 8.54185 152.792 9.55252 153.986C10.6551 155.273 11.8495 156.099 11.3901 157.569C11.3901 157.569 12.3089 157.202 12.217 156.099C12.0333 155.181 10.5632 153.894 10.1957 153.343C9.46064 152.608 9.64441 151.965 9.64441 151.965Z" fill="#251725"/>
<path d="M14.0547 151.965C14.0547 151.965 12.9522 152.792 14.1466 153.986C15.341 155.273 16.6273 156.008 16.3517 157.478C16.3517 157.478 17.2705 157.11 16.9949 156.008C16.7192 155.089 15.1573 153.802 14.6979 153.251C13.9628 152.608 14.0547 151.965 14.0547 151.965Z" fill="#251725"/>
<path d="M11.3902 151.138C11.3902 151.138 10.012 152.148 11.2983 153.618C12.6765 155.18 14.3303 156.283 13.8709 158.121C13.8709 158.121 15.0654 157.569 14.7897 156.283C14.5141 155.089 12.5846 153.527 12.0333 152.883C11.2983 151.965 11.3902 151.138 11.3902 151.138Z" fill="#251725"/>
<path d="M442.454 159.705C457.968 144.064 465.289 126.164 458.805 119.725C452.321 113.286 434.488 120.745 418.974 136.386C403.459 152.027 396.139 169.927 402.623 176.366C409.107 182.806 426.94 175.346 442.454 159.705Z" fill="url(#paint2_linear_3068_10627)" stroke="#251725" stroke-miterlimit="10" stroke-linecap="round" stroke-linejoin="round"/>
<path d="M420.538 137.968C434.101 124.446 449.223 117.675 454.399 122.721C459.576 127.766 452.751 142.905 439.263 156.407C425.701 169.929 410.579 176.7 405.402 171.654C400.206 166.535 407.05 151.47 420.538 137.968Z" fill="url(#paint3_linear_3068_10627)" stroke="#251725" stroke-miterlimit="10" stroke-linecap="round" stroke-linejoin="round"/>
<path d="M459.244 119.848L465.782 125.823C472.267 132.207 464.821 150.08 449.095 165.684C433.369 181.289 415.347 188.799 408.861 182.416L402.324 176.44C408.809 182.823 426.831 175.313 442.557 159.709C458.283 144.104 465.729 126.231 459.244 119.848Z" fill="url(#paint4_linear_3068_10627)"/>
<mask id="mask3_3068_10627" style="mask-type:alpha" maskUnits="userSpaceOnUse" x="401" y="119" width="68" height="67">
<path d="M459.311 119.853L465.843 125.813C472.322 132.181 464.843 150.043 449.083 165.651C433.323 181.259 415.278 188.785 408.8 182.417L402.268 176.457C408.746 182.824 426.791 175.299 442.551 159.691C458.311 144.083 465.79 126.22 459.311 119.853Z" fill="#D9D9D9" stroke="#251725" stroke-miterlimit="10" stroke-linecap="round" stroke-linejoin="round"/>
</mask>
<g mask="url(#mask3_3068_10627)">
<path d="M433.706 197.509L405.807 170.198" stroke="#251725" stroke-miterlimit="10" stroke-linecap="round" stroke-linejoin="round"/>
<path d="M443.228 187.837L415.275 160.621" stroke="#251725" stroke-miterlimit="10" stroke-linecap="round" stroke-linejoin="round"/>
<path d="M452.77 178.24L424.797 150.95" stroke="#251725" stroke-miterlimit="10" stroke-linecap="round" stroke-linejoin="round"/>
<path d="M462.239 168.662L434.339 141.351" stroke="#251725" stroke-miterlimit="10" stroke-linecap="round" stroke-linejoin="round"/>
<path d="M471.781 159.063L443.881 131.752" stroke="#251725" stroke-miterlimit="10" stroke-linecap="round" stroke-linejoin="round"/>
<path d="M481.303 149.391L453.423 122.154" stroke="#251725" stroke-miterlimit="10" stroke-linecap="round" stroke-linejoin="round"/>
</g>
<path d="M459.244 119.848L465.782 125.823C472.267 132.207 464.821 150.08 449.095 165.684C433.369 181.289 415.347 188.799 408.861 182.416L402.324 176.44C408.809 182.823 426.831 175.313 442.557 159.709C458.283 144.104 465.729 126.231 459.244 119.848Z" stroke="#251725" stroke-miterlimit="10" stroke-linecap="round" stroke-linejoin="round"/>
<path d="M439.225 142.122C438.054 142.523 436.962 143.219 436.022 144.188C434.804 145.313 433.449 145.923 432.459 145.801L431.879 145.724C430.888 145.602 430.45 144.855 430.696 143.682L430.782 143.106C431.048 142.006 431.721 140.636 432.884 139.606C434.341 138.178 435.456 136.371 435.346 135.059C435.276 133.894 434.207 133.479 432.683 134.056C430.455 134.986 428.024 137.55 427.453 139.602C427.132 140.796 427.516 141.637 428.413 141.706C429.235 141.795 429.635 142.395 429.388 143.568L429.192 144.333C428.946 145.506 428.049 146.937 426.851 148.135L426.151 148.802C424.933 149.927 423.617 150.684 422.775 150.521C422.102 150.391 421.209 150.637 420.191 151.312C418.413 152.434 416.518 154.613 415.426 156.809C413.407 160.918 414.613 163.348 417.949 161.482C419.821 160.414 421.845 158.119 423.066 155.809C423.45 155.151 423.685 154.534 423.79 154.031C424.201 152.576 425.152 151.051 426.425 149.832L427.255 149.05C428.453 147.852 429.808 147.242 430.799 147.364L431.453 147.42C432.443 147.542 432.921 148.437 432.734 149.83C432.702 150.313 432.691 150.869 432.808 151.31C433.24 152.928 434.743 153.776 436.787 153.055C440.598 151.769 443.765 146.871 443.016 143.761C442.808 142.082 441.12 141.442 439.225 142.122Z" fill="#251725"/>
<path d="M100.426 162.778L99.2696 162.13C101.439 155.034 100.567 147.083 96.3799 139.87C88.5377 126.414 70.7337 118.955 55.2061 123.405C49.9437 124.923 45.5341 127.655 42.176 131.151L40.6598 130.351L37.16 138.647C37.1203 138.737 37.0408 138.917 37.0011 139.007L36.8025 139.457C33.9886 146.441 34.3264 154.754 38.6858 162.788C47.9514 179.675 69.9148 186.058 85.9363 177.705C89.419 175.863 92.2607 173.538 94.5515 170.766L94.6164 170.74C95.2838 169.954 95.9009 169.039 96.453 168.151L100.426 162.778Z" fill="url(#paint5_linear_3068_10627)" stroke="#251725" stroke-miterlimit="10" stroke-linecap="round" stroke-linejoin="round"/>
<mask id="mask4_3068_10627" style="mask-type:alpha" maskUnits="userSpaceOnUse" x="34" y="121" width="67" height="61">
<path d="M100.437 162.692L99.282 162.047C101.484 154.954 100.644 147.013 96.4792 139.816C88.6789 126.392 70.8743 118.981 55.3009 123.461C50.023 124.989 45.5944 127.728 42.2158 131.229L40.7002 130.433L37.16 138.729C37.1198 138.819 37.0395 138.999 36.9993 139.089L36.7985 139.539C33.9508 146.522 34.2548 154.826 38.5887 162.842C47.8009 179.691 69.7766 186.018 85.8609 177.637C89.3573 175.79 92.2136 173.46 94.5199 170.686L94.585 170.66C95.2569 169.872 95.8788 168.957 96.4356 168.069L100.437 162.692Z" fill="white" stroke="#251725" stroke-miterlimit="10" stroke-linecap="round" stroke-linejoin="round"/>
</mask>
<g mask="url(#mask4_3068_10627)">
<path d="M80.5481 188.799L93.322 159.947" stroke="#251725" stroke-miterlimit="10" stroke-linecap="round" stroke-linejoin="round"/>
<path d="M70.644 184.555L83.3532 155.729" stroke="#251725" stroke-miterlimit="10" stroke-linecap="round" stroke-linejoin="round"/>
<path d="M60.7649 180.376L73.4741 151.549" stroke="#251725" stroke-miterlimit="10" stroke-linecap="round" stroke-linejoin="round"/>
<path d="M50.7957 176.159L63.5696 147.307" stroke="#251725" stroke-miterlimit="10" stroke-linecap="round" stroke-linejoin="round"/>
<path d="M40.8918 171.915L53.6256 143.153" stroke="#251725" stroke-miterlimit="10" stroke-linecap="round" stroke-linejoin="round"/>
<path d="M30.9478 167.761L43.7217 138.909" stroke="#251725" stroke-miterlimit="10" stroke-linecap="round" stroke-linejoin="round"/>
</g>
<path d="M100.142 133.962C108.276 147.968 104.191 165.095 89.4817 172.774C73.0961 181.347 50.5276 174.762 41.0461 157.517C31.7301 140.503 40.2194 122.35 57.9385 117.169C73.895 112.474 92.0844 120.149 100.142 133.962Z" fill="url(#paint6_linear_3068_10627)" stroke="#251725" stroke-miterlimit="10" stroke-linecap="round" stroke-linejoin="round"/>
<path d="M96.1752 135.553C103.104 147.449 99.396 161.905 86.8862 168.108C73.194 174.934 54.6206 169.34 46.8115 155.205C39.1177 141.171 45.8564 126.018 60.4796 121.56C73.7945 117.406 89.2971 123.786 96.1752 135.553Z" fill="url(#paint7_linear_3068_10627)" stroke="#251725" stroke-miterlimit="10" stroke-linecap="round" stroke-linejoin="round"/>
<path d="M48.8869 137.251C49.4468 135.618 50.1867 134.062 51.1067 132.581" stroke="#251725" stroke-miterlimit="10" stroke-linecap="round" stroke-linejoin="round"/>
<path d="M48.0656 143.18C48.0883 142.28 48.1111 141.38 48.2243 140.517" stroke="#251725" stroke-miterlimit="10" stroke-linecap="round" stroke-linejoin="round"/>
<path d="M87.2915 145.803C86.5415 144.471 85.4517 143.424 83.9822 142.751C82.5778 142.052 80.9995 141.868 79.3522 142.083C80.4619 141.267 81.1203 140.262 81.3274 139.066C81.5345 137.87 81.2505 136.574 80.4753 135.179C79.4333 133.296 77.8921 132.059 75.9674 131.568C74.5988 131.152 73.0961 131.16 71.4342 131.529L69.5519 128.277L66.5493 129.257L68.3161 132.407L64.9484 133.607L63.1816 130.457L60.0488 131.489L61.8408 134.704L57.2771 136.309L71.1697 161.088L75.5821 159.098L77.1577 161.954L80.1643 160.602L78.6139 157.81L81.8807 156.353L83.4312 159.145L86.3077 157.844L84.667 155.015C86.2321 154.017 87.371 152.893 87.8383 151.593C88.6494 149.636 88.449 147.787 87.2915 145.803ZM75.1297 138.432C76.096 140.123 75.5385 141.385 73.4318 142.154L69.3739 143.705L66.4244 138.506L70.4426 137.045C72.6395 136.314 74.1633 136.742 75.1297 138.432ZM79.1224 151.448L74.8149 153.322L71.7645 147.867L76.1225 146.121C77.2282 145.678 78.1747 145.596 79.0269 145.848C79.8791 146.101 80.5468 146.649 81.03 147.494C81.9313 149.211 81.3339 150.563 79.1224 151.448Z" fill="#251725"/>
<path d="M206.538 76.6465L206.81 212.083L324.415 280.414L324.143 144.978L206.538 76.6465Z" fill="white" stroke="#251725" stroke-miterlimit="10" stroke-linecap="round" stroke-linejoin="round"/>
<path d="M324.143 144.978L324.415 280.415L382.946 246.522L392.882 240.805L392.61 105.504L324.143 144.978Z" fill="#251725" stroke="#251725" stroke-miterlimit="10" stroke-linecap="round" stroke-linejoin="round"/>
<path d="M206.538 76.646L324.143 144.977L392.61 105.503L275.005 37.1719L206.538 76.646Z" fill="white" stroke="#251725" stroke-miterlimit="10" stroke-linecap="round" stroke-linejoin="round"/>
<path d="M275.004 41.7998L214.704 76.6459L217.427 78.4154L275.141 45.0666L275.004 41.7998Z" fill="white" stroke="#251725" stroke-miterlimit="10" stroke-linecap="round" stroke-linejoin="round"/>
<path d="M275.141 45.0666L381.721 107L384.443 105.503L275.005 41.7998L275.141 45.0666Z" fill="#AF56FF" stroke="#251725" stroke-miterlimit="10" stroke-linecap="round" stroke-linejoin="round"/>
<path d="M381.721 107L324.143 140.349L217.427 78.4152L275.141 45.0664L381.721 107Z" fill="white"/>
<path d="M381.721 107L324.143 140.349L217.427 78.4152L275.141 45.0664L381.721 107Z" fill="url(#paint8_linear_3068_10627)"/>
<path d="M381.721 107L324.143 140.349L217.427 78.4152L275.141 45.0664L381.721 107Z" stroke="#251725" stroke-miterlimit="10" stroke-linecap="round" stroke-linejoin="round"/>
<path d="M252.818 86.175L261.666 81.1387L261.529 75.8301H264.388L269.697 81.1387L260.849 86.175H252.818Z" fill="#8055BB"/>
<path d="M243.834 72.9727V81.0036L252.818 86.1761L252.682 78.1451L243.834 72.9727Z" fill="white" stroke="#251725" stroke-miterlimit="10" stroke-linecap="round" stroke-linejoin="round"/>
<path d="M252.682 78.1447L252.818 86.1757L261.665 81.1393L261.529 73.1084L252.682 78.1447Z" fill="#AF56FF" stroke="#251725" stroke-miterlimit="10" stroke-linecap="round" stroke-linejoin="round"/>
<path d="M243.834 72.9723L252.682 78.1447L261.529 73.1084L252.682 67.7998L243.834 72.9723Z" fill="white" stroke="#251725" stroke-miterlimit="10" stroke-linecap="round" stroke-linejoin="round"/>
<path d="M254.179 79.777L258.126 77.5991L260.168 76.374" stroke="#251725" stroke-miterlimit="10" stroke-linecap="round" stroke-linejoin="round"/>
<path d="M254.179 82.4986L258.126 80.1846L260.168 79.0957" stroke="#251725" stroke-miterlimit="10" stroke-linecap="round" stroke-linejoin="round"/>
<path d="M251.321 79.777L247.237 77.5991L245.331 76.374" stroke="#8055BB" stroke-miterlimit="10" stroke-linecap="round" stroke-linejoin="round"/>
<path d="M251.321 82.4986L247.237 80.1846L245.331 79.0957" stroke="#8055BB" stroke-miterlimit="10" stroke-linecap="round" stroke-linejoin="round"/>
<path d="M277.183 71.8814L286.03 66.709V61.5365L288.753 61.4004L294.061 66.709L285.214 71.8814H277.183Z" fill="#8055BB"/>
<path d="M268.199 58.542L268.335 66.5729L277.182 71.8815V63.7145L268.199 58.542Z" fill="white" stroke="#251725" stroke-miterlimit="10" stroke-linecap="round" stroke-linejoin="round"/>
<path d="M277.182 63.7141V71.8811L286.03 66.7087V58.6777L277.182 63.7141Z" fill="#AF56FF" stroke="#251725" stroke-miterlimit="10" stroke-linecap="round" stroke-linejoin="round"/>
<path d="M268.199 58.5426L277.183 63.715L286.03 58.6787L277.047 53.3701L268.199 58.5426Z" fill="white" stroke="#251725" stroke-miterlimit="10" stroke-linecap="round" stroke-linejoin="round"/>
<path d="M278.68 65.485L282.628 63.171L284.533 62.082" stroke="#251725" stroke-miterlimit="10" stroke-linecap="round" stroke-linejoin="round"/>
<path d="M278.68 68.0709L282.628 65.7569L284.533 64.668" stroke="#251725" stroke-miterlimit="10" stroke-linecap="round" stroke-linejoin="round"/>
<path d="M275.686 65.485L271.738 63.171L269.832 62.082" stroke="#8055BB" stroke-miterlimit="10" stroke-linecap="round" stroke-linejoin="round"/>
<path d="M275.686 68.0709L271.738 65.7569L269.832 64.668" stroke="#8055BB" stroke-miterlimit="10" stroke-linecap="round" stroke-linejoin="round"/>
<path d="M283.852 104.142L292.7 99.1055L292.564 93.7969H295.422L300.731 99.1055L291.883 104.142H283.852Z" fill="#8055BB"/>
<path d="M274.868 90.8047V98.9717L283.852 104.144L283.716 96.1133L274.868 90.8047Z" fill="white" stroke="#251725" stroke-miterlimit="10" stroke-linecap="round" stroke-linejoin="round"/>
<path d="M283.716 96.1119L283.852 104.143L292.7 99.1065L292.564 90.9395L283.716 96.1119Z" fill="#AF56FF" stroke="#251725" stroke-miterlimit="10" stroke-linecap="round" stroke-linejoin="round"/>
<path d="M274.868 90.8039L283.716 96.1125L292.564 90.9401L283.716 85.7676L274.868 90.8039Z" fill="white" stroke="#251725" stroke-miterlimit="10" stroke-linecap="round" stroke-linejoin="round"/>
<path d="M285.214 97.7447L289.161 95.4307L291.067 94.3418" stroke="#251725" stroke-miterlimit="10" stroke-linecap="round" stroke-linejoin="round"/>
<path d="M285.214 100.33L289.161 98.1524L291.067 97.0635" stroke="#251725" stroke-miterlimit="10" stroke-linecap="round" stroke-linejoin="round"/>
<path d="M282.219 97.7447L278.271 95.4307L276.366 94.3418" stroke="#8055BB" stroke-miterlimit="10" stroke-linecap="round" stroke-linejoin="round"/>
<path d="M282.219 100.33L278.271 98.1524L276.366 97.0635" stroke="#8055BB" stroke-miterlimit="10" stroke-linecap="round" stroke-linejoin="round"/>
<path d="M308.217 89.7121L317.065 84.6758V79.3672H319.787L325.096 84.6758L316.248 89.7121H308.217Z" fill="#8055BB"/>
<path d="M299.233 76.373L299.37 84.5401L308.217 89.7126V81.6816L299.233 76.373Z" fill="white" stroke="#251725" stroke-miterlimit="10" stroke-linecap="round" stroke-linejoin="round"/>
<path d="M308.217 81.6812V89.7122L317.065 84.6758V76.5088L308.217 81.6812Z" fill="#AF56FF" stroke="#251725" stroke-miterlimit="10" stroke-linecap="round" stroke-linejoin="round"/>
<path d="M299.233 76.3733L308.217 81.6818L317.065 76.5094L308.081 71.3369L299.233 76.3733Z" fill="white" stroke="#251725" stroke-miterlimit="10" stroke-linecap="round" stroke-linejoin="round"/>
<path d="M309.714 83.3141L313.662 81.0001L315.567 79.9111" stroke="#251725" stroke-miterlimit="10" stroke-linecap="round" stroke-linejoin="round"/>
<path d="M309.714 86.0358L313.662 83.7217L315.567 82.6328" stroke="#251725" stroke-miterlimit="10" stroke-linecap="round" stroke-linejoin="round"/>
<path d="M306.719 83.3141L302.772 81.0001L300.866 79.9111" stroke="#8055BB" stroke-miterlimit="10" stroke-linecap="round" stroke-linejoin="round"/>
<path d="M306.719 86.0358L302.772 83.7217L300.866 82.6328" stroke="#8055BB" stroke-miterlimit="10" stroke-linecap="round" stroke-linejoin="round"/>
<path d="M314.887 122.11L323.735 116.937L323.599 111.765H326.457L331.766 117.073L322.918 122.11H314.887Z" fill="#8055BB"/>
<path d="M305.903 108.771V116.938L314.887 122.11L314.751 113.943L305.903 108.771Z" fill="white" stroke="#251725" stroke-miterlimit="10" stroke-linecap="round" stroke-linejoin="round"/>
<path d="M314.751 113.943L314.887 122.11L323.735 116.937L323.599 108.906L314.751 113.943Z" fill="#AF56FF" stroke="#251725" stroke-miterlimit="10" stroke-linecap="round" stroke-linejoin="round"/>
<path d="M305.903 108.771L314.751 113.943L323.599 108.907L314.751 103.734L305.903 108.771Z" fill="white" stroke="#251725" stroke-miterlimit="10" stroke-linecap="round" stroke-linejoin="round"/>
<path d="M316.248 115.713L320.195 113.399L322.101 112.31" stroke="#251725" stroke-miterlimit="10" stroke-linecap="round" stroke-linejoin="round"/>
<path d="M316.248 118.298L320.195 115.984L322.101 114.896" stroke="#251725" stroke-miterlimit="10" stroke-linecap="round" stroke-linejoin="round"/>
<path d="M313.254 115.713L309.306 113.399L307.401 112.31" stroke="#8055BB" stroke-miterlimit="10" stroke-linecap="round" stroke-linejoin="round"/>
<path d="M313.254 118.298L309.306 115.984L307.401 114.896" stroke="#8055BB" stroke-miterlimit="10" stroke-linecap="round" stroke-linejoin="round"/>
<path d="M339.252 107.681L348.1 102.645V97.3359H350.822L356.131 102.645L347.283 107.681H339.252Z" fill="#8055BB"/>
<path d="M330.268 94.3408L330.405 102.508L339.252 107.68V99.6494L330.268 94.3408Z" fill="white" stroke="#251725" stroke-miterlimit="10" stroke-linecap="round" stroke-linejoin="round"/>
<path d="M339.252 99.6491V107.68L348.1 102.644V94.4766L339.252 99.6491Z" fill="#AF56FF" stroke="#251725" stroke-miterlimit="10" stroke-linecap="round" stroke-linejoin="round"/>
<path d="M330.268 94.3401L339.252 99.6487L348.1 94.4762L339.116 89.3037L330.268 94.3401Z" fill="white" stroke="#251725" stroke-miterlimit="10" stroke-linecap="round" stroke-linejoin="round"/>
<path d="M340.75 101.283L344.697 98.9688L346.603 97.8799" stroke="#251725" stroke-miterlimit="10" stroke-linecap="round" stroke-linejoin="round"/>
<path d="M340.75 103.869L344.697 101.692L346.603 100.603" stroke="#251725" stroke-miterlimit="10" stroke-linecap="round" stroke-linejoin="round"/>
<path d="M337.755 101.283L333.807 98.9688L331.902 97.8799" stroke="#8055BB" stroke-miterlimit="10" stroke-linecap="round" stroke-linejoin="round"/>
<path d="M337.755 103.869L333.807 101.692L331.902 100.603" stroke="#8055BB" stroke-miterlimit="10" stroke-linecap="round" stroke-linejoin="round"/>
<path d="M215.521 89.4415V100.467L210.485 97.6085V86.583L215.521 89.4415Z" fill="#DF87F1"/>
<path d="M222.191 93.3891V104.279L217.155 101.42V90.3945L222.191 93.3891Z" fill="#DF87F1"/>
<path d="M228.861 97.2006V108.226L223.824 105.232V94.2061L228.861 97.2006Z" fill="#DF87F1"/>
<path d="M237.572 102.372V113.397L232.536 110.402V99.377L237.572 102.372Z" fill="#DF87F1"/>
<path d="M244.242 106.184V117.209L239.206 114.215V103.325L244.242 106.184Z" fill="#DF87F1"/>
<path d="M250.912 109.994V121.02L245.875 118.161V107.136L250.912 109.994Z" fill="#DF87F1"/>
<path d="M259.76 115.304L259.624 126.33L254.587 123.335V112.31L259.76 115.304Z" fill="#A499CE"/>
<path d="M266.429 119.115L266.293 130.14L261.257 127.146V116.12L266.429 119.115Z" fill="#A499CE"/>
<path d="M273.099 122.927L272.963 133.953L267.927 130.958V119.933L273.099 122.927Z" fill="#A499CE"/>
<path d="M215.521 109.45V120.476L210.485 117.481V106.592L215.521 109.45Z" fill="#DF87F1"/>
<path d="M222.191 113.262V124.287L217.155 121.429V110.403L222.191 113.262Z" fill="#DF87F1"/>
<path d="M228.861 117.073V128.099L223.824 125.24V114.215L228.861 117.073Z" fill="#DF87F1"/>
<path d="M237.572 122.382V133.408L232.536 130.413V119.388L237.572 122.382Z" fill="#DF87F1"/>
<path d="M244.242 126.193V137.218L239.206 134.224V123.198L244.242 126.193Z" fill="#DF87F1"/>
<path d="M250.912 130.005V141.031L245.875 138.036V127.011L250.912 130.005Z" fill="#DF87F1"/>
<path d="M259.76 135.313L259.624 146.338L254.587 143.344V132.318L259.76 135.313Z" fill="#A499CE"/>
<path d="M266.429 139.124L266.293 150.149L261.257 147.154V136.129L266.429 139.124Z" fill="#A499CE"/>
<path d="M273.099 142.936L272.963 153.961L267.927 150.967V139.941L273.099 142.936Z" fill="#A499CE"/>
<path d="M215.521 129.459V140.485L210.485 137.49V126.465L215.521 129.459Z" fill="#DF87F1"/>
<path d="M222.191 133.272V144.297L217.155 141.302V130.413L222.191 133.272Z" fill="#DF87F1"/>
<path d="M228.861 137.082V148.108L223.824 145.249V134.224L228.861 137.082Z" fill="#DF87F1"/>
<path d="M237.572 142.391V153.417L232.536 150.422V139.396L237.572 142.391Z" fill="#DF87F1"/>
<path d="M244.242 146.202V157.227L239.206 154.233V143.207L244.242 146.202Z" fill="#DF87F1"/>
<path d="M250.912 150.014V161.04L245.875 158.045V147.02L250.912 150.014Z" fill="#DF87F1"/>
<path d="M259.759 155.323L259.623 166.348L254.587 163.354V152.328L259.759 155.323Z" fill="#A499CE"/>
<path d="M266.429 159.133L266.293 170.159L261.257 167.164V156.139L266.429 159.133Z" fill="#A499CE"/>
<path d="M273.099 162.946L272.963 173.971L267.927 170.977V159.951L273.099 162.946Z" fill="#A499CE"/>
<path d="M215.657 158.453V169.479L210.621 166.62V155.595L215.657 158.453Z" fill="#DF87F1"/>
<path d="M222.327 162.4V173.289L217.291 170.431V159.405L222.327 162.4Z" fill="#DF87F1"/>
<path d="M228.997 166.212V177.238L223.96 174.243V163.218L228.997 166.212Z" fill="#DF87F1"/>
<path d="M237.708 171.384V182.41L232.672 179.415V168.39L237.708 171.384Z" fill="#DF87F1"/>
<path d="M244.378 175.196V186.222L239.342 183.227V172.338L244.378 175.196Z" fill="#DF87F1"/>
<path d="M251.048 179.007V190.032L246.011 187.174V176.148L251.048 179.007Z" fill="#DF87F1"/>
<path d="M259.896 184.315L259.76 195.34L254.723 192.346V181.32L259.896 184.315Z" fill="#DF87F1"/>
<path d="M266.565 188.125L266.429 199.151L261.393 196.156V185.131L266.565 188.125Z" fill="#DF87F1"/>
<path d="M273.235 191.938L273.099 202.963L268.062 199.969V188.943L273.235 191.938Z" fill="#DF87F1"/>
<path d="M215.657 178.462V189.487L210.621 186.493V175.604L215.657 178.462Z" fill="#DF87F1"/>
<path d="M222.327 182.273V193.298L217.291 190.44V179.414L222.327 182.273Z" fill="#DF87F1"/>
<path d="M228.997 186.085V197.111L223.96 194.252V183.227L228.997 186.085Z" fill="#DF87F1"/>
<path d="M237.708 191.392V202.418L232.672 199.423V188.397L237.708 191.392Z" fill="#DF87F1"/>
<path d="M244.378 195.204V206.229L239.342 203.235V192.209L244.378 195.204Z" fill="#DF87F1"/>
<path d="M251.048 199.015V210.041L246.011 207.046V196.021L251.048 199.015Z" fill="#DF87F1"/>
<path d="M259.895 204.324L259.759 215.349L254.723 212.355V201.329L259.895 204.324Z" fill="#DF87F1"/>
<path d="M266.565 208.134L266.429 219.16L261.393 216.165V205.14L266.565 208.134Z" fill="#DF87F1"/>
<path d="M273.235 211.947L273.099 222.972L268.062 219.978V208.952L273.235 211.947Z" fill="#DF87F1"/>
<path d="M215.657 198.471V209.497L210.621 206.502V195.477L215.657 198.471Z" fill="#DF87F1"/>
<path d="M222.327 202.283V213.309L217.291 210.314V199.425L222.327 202.283Z" fill="#DF87F1"/>
<path d="M228.997 206.094V217.119L223.96 214.261V203.235L228.997 206.094Z" fill="#DF87F1"/>
<path d="M237.708 211.402V222.427L232.672 219.433V208.407L237.708 211.402Z" fill="#DF87F1"/>
<path d="M244.378 215.212V226.238L239.342 223.243V212.218L244.378 215.212Z" fill="#DF87F1"/>
<path d="M251.048 219.025V230.05L246.011 227.056V216.03L251.048 219.025Z" fill="#DF87F1"/>
<path d="M259.895 224.333L259.759 235.359L254.723 232.364V221.339L259.895 224.333Z" fill="#DF87F1"/>
<path d="M266.565 228.144L266.429 239.17L261.393 236.175V225.149L266.565 228.144Z" fill="#DF87F1"/>
<path d="M273.235 231.957L273.099 242.982L268.062 239.987V228.962L273.235 231.957Z" fill="#DF87F1"/>
<path d="M370.423 135.45V146.475L375.596 143.481V132.455L370.423 135.45Z" fill="#8055BB"/>
<path d="M363.754 139.26V150.286L368.926 147.291V136.266L363.754 139.26Z" fill="#8055BB"/>
<path d="M357.084 143.072V154.098L362.256 151.239V140.214L357.084 143.072Z" fill="#8055BB"/>
<path d="M350.414 146.883V157.908L355.587 155.05V144.024L350.414 146.883Z" fill="#8055BB"/>
<path d="M343.744 150.694V161.72L348.917 158.861V147.836L343.744 150.694Z" fill="#8055BB"/>
<path d="M370.423 148.926V159.952L375.596 156.957V145.932L370.423 148.926Z" fill="#8055BB"/>
<path d="M363.754 152.738V163.764L368.926 160.905V149.88L363.754 152.738Z" fill="#8055BB"/>
<path d="M357.084 156.549V167.574L362.256 164.716V153.69L357.084 156.549Z" fill="#8055BB"/>
<path d="M350.414 160.359V171.385L355.587 168.527V157.501L350.414 160.359Z" fill="#8055BB"/>
<path d="M343.744 164.307V175.333L348.917 172.338V161.312L343.744 164.307Z" fill="#8055BB"/>
<path d="M370.423 162.4V173.426L375.596 170.568V159.542L370.423 162.4Z" fill="#8055BB"/>
<path d="M363.754 166.211V177.237L368.926 174.378V163.353L363.754 166.211Z" fill="#8055BB"/>
<path d="M357.084 170.023V181.049L362.256 178.191V167.165L357.084 170.023Z" fill="#8055BB"/>
<path d="M350.414 173.97V184.996L355.587 182.001V170.976L350.414 173.97Z" fill="#8055BB"/>
<path d="M343.744 177.782V188.807L348.917 185.813V174.787L343.744 177.782Z" fill="#8055BB"/>
<path d="M370.423 175.877V186.903L375.596 184.044V173.019L370.423 175.877Z" fill="#8055BB"/>
<path d="M363.754 179.824V190.713L368.926 187.855V176.829L363.754 179.824Z" fill="#8055BB"/>
<path d="M357.084 183.636V194.662L362.256 191.667V180.642L357.084 183.636Z" fill="#8055BB"/>
<path d="M350.414 187.447V198.472L355.587 195.478V184.452L350.414 187.447Z" fill="#8055BB"/>
<path d="M343.744 191.258V202.284L348.917 199.289V188.264L343.744 191.258Z" fill="#8055BB"/>
<path d="M332.583 223.244L332.719 241.212L387.982 209.224L387.846 191.393L332.583 223.244Z" fill="#8055BB" stroke="#251725" stroke-miterlimit="10" stroke-linecap="round" stroke-linejoin="round"/>
<path d="M309.579 263.672L316.793 267.891V147.972L309.579 143.752V263.672Z" fill="#A499CE"/>
<path d="M306.856 142.119L299.506 138.035V257.819L306.72 262.038L306.856 142.119Z" fill="#A499CE"/>
<path d="M296.784 136.401L289.569 132.182V252.101L296.784 256.185V136.401Z" fill="#A499CE"/>
<path d="M279.497 246.249L286.711 250.332L286.847 130.549L279.497 126.329V246.249Z" fill="#A499CE"/>
<path d="M145.693 277.692L167.608 265.033L189.523 277.692L223.008 258.363L144.876 213.172L89.4763 245.16L145.693 277.692Z" fill="white" stroke="#251725" stroke-miterlimit="10" stroke-linecap="round" stroke-linejoin="round"/>
<path d="M145.693 151.646L167.608 138.987L189.523 151.646L223.008 132.318L144.876 87.2627L89.4763 119.114L145.693 151.646Z" fill="white" stroke="#251725" stroke-miterlimit="10" stroke-linecap="round" stroke-linejoin="round"/>
<path d="M145.965 146.882L166.927 134.768L187.889 146.882L220.421 128.098L145.557 84.8125L92.0625 115.711L145.965 146.882Z" fill="white" stroke="#251725" stroke-miterlimit="10" stroke-linecap="round" stroke-linejoin="round"/>
<path d="M145.557 88.8965V91.6188L101.455 117.073L99.1406 115.712L145.557 88.8965Z" stroke="#251725" stroke-miterlimit="10" stroke-linecap="round" stroke-linejoin="round"/>
<path d="M213.343 128.098L211.029 129.323L145.557 91.6188V88.8965L213.343 128.098Z" fill="#AF56FF" stroke="#251725" stroke-miterlimit="10" stroke-linecap="round" stroke-linejoin="round"/>
<path d="M211.029 129.323L187.889 142.662L166.927 130.548L145.965 142.662L101.455 117.072L145.557 91.6182L211.029 129.323Z" fill="url(#paint9_linear_3068_10627)" stroke="#251725" stroke-miterlimit="10" stroke-linecap="round" stroke-linejoin="round"/>
<path d="M167.608 138.987V265.032L145.693 277.691V151.646L167.608 138.987Z" fill="url(#paint10_linear_3068_10627)" stroke="#251725" stroke-miterlimit="10" stroke-linecap="round" stroke-linejoin="round"/>
<path d="M145.693 151.646L89.4763 119.114V245.159L145.693 277.691V151.646Z" fill="white" stroke="#251725" stroke-miterlimit="10" stroke-linecap="round" stroke-linejoin="round"/>
<path d="M100.774 149.332L98.324 147.835V153.416L100.774 154.777V149.332Z" fill="#251725"/>
<path d="M100.774 160.493L98.324 158.996V164.577L100.774 165.938V160.493Z" fill="#251725"/>
<path d="M100.774 171.656L98.324 170.158V175.739L100.774 177.1V171.656Z" fill="#251725"/>
<path d="M100.774 182.816L98.324 181.455V186.9L100.774 188.261V182.816Z" fill="#251725"/>
<path d="M100.774 193.979L98.324 192.618V198.063L100.774 199.424V193.979Z" fill="#251725"/>
<path d="M100.774 205.14L98.324 203.779V209.224L100.774 210.585V205.14Z" fill="#251725"/>
<path d="M100.774 216.303L98.324 214.941V220.386L100.774 221.747V216.303Z" fill="#251725"/>
<path d="M108.124 153.553L105.674 152.191V157.636L108.124 158.997V153.553Z" fill="#251725"/>
<path d="M108.124 164.714L105.674 163.353V168.797L108.124 170.158V164.714Z" fill="#251725"/>
<path d="M108.124 175.876L105.674 174.515V179.959L108.124 181.321V175.876Z" fill="#251725"/>
<path d="M108.124 187.037L105.674 185.676V191.12L108.124 192.482V187.037Z" fill="#251725"/>
<path d="M108.124 198.2L105.674 196.839V202.284L108.124 203.781V198.2Z" fill="#251725"/>
<path d="M108.124 209.361L105.674 208V213.445L108.124 214.942V209.361Z" fill="#251725"/>
<path d="M108.124 220.522L105.674 219.161V224.606L108.124 226.103V220.522Z" fill="#251725"/>
<path d="M115.475 157.771L113.025 156.41V161.855L115.475 163.352V157.771Z" fill="#251725"/>
<path d="M115.475 168.932L113.025 167.571V173.016L115.475 174.513V168.932Z" fill="#251725"/>
<path d="M115.475 180.095L113.025 178.733V184.178L115.475 185.675V180.095Z" fill="#251725"/>
<path d="M115.475 191.392L113.025 189.895V195.339L115.475 196.837V191.392Z" fill="#251725"/>
<path d="M115.475 202.555L113.025 201.058V206.502L115.475 208V202.555Z" fill="#251725"/>
<path d="M115.475 213.716L113.025 212.219V217.8L115.475 219.161V213.716Z" fill="#251725"/>
<path d="M115.475 224.877L113.025 223.38V228.961L115.475 230.322V224.877Z" fill="#251725"/>
<path d="M122.961 162.127L120.511 160.63V166.075L122.961 167.572V162.127Z" fill="#251725"/>
<path d="M122.961 173.288L120.511 171.791V177.372L122.961 178.733V173.288Z" fill="#251725"/>
<path d="M122.961 184.45L120.511 182.953V188.534L122.961 189.895V184.45Z" fill="#251725"/>
<path d="M122.961 195.612L120.511 194.114V199.695L122.961 201.056V195.612Z" fill="#251725"/>
<path d="M122.961 206.774L120.511 205.413V210.858L122.961 212.219V206.774Z" fill="#251725"/>
<path d="M122.961 217.935L120.511 216.574V222.019L122.961 223.38V217.935Z" fill="#251725"/>
<path d="M122.961 229.098L120.511 227.736V233.181L122.961 234.542V229.098Z" fill="#251725"/>
<path d="M130.311 166.348L127.861 164.986V170.431L130.311 171.792V166.348Z" fill="#251725"/>
<path d="M130.311 177.509L127.861 176.147V181.592L130.311 182.953V177.509Z" fill="#251725"/>
<path d="M130.311 188.671L127.861 187.31V192.754L130.311 194.115V188.671Z" fill="#251725"/>
<path d="M130.311 199.832L127.861 198.471V203.915L130.311 205.277V199.832Z" fill="#251725"/>
<path d="M130.311 210.995L127.861 209.634V215.078L130.311 216.44V210.995Z" fill="#251725"/>
<path d="M130.311 222.156L127.861 220.795V226.24L130.311 227.601V222.156Z" fill="#251725"/>
<path d="M130.311 233.317L127.861 231.956V237.401L130.311 238.898V233.317Z" fill="#251725"/>
<path d="M137.662 170.567L135.211 169.206V174.651L137.662 176.012V170.567Z" fill="#251725"/>
<path d="M137.662 181.728L135.211 180.367V185.812L137.662 187.173V181.728Z" fill="#251725"/>
<path d="M137.662 192.891L135.211 191.53V196.975L137.662 198.472V192.891Z" fill="#251725"/>
<path d="M137.662 204.052L135.211 202.69V208.135L137.662 209.632V204.052Z" fill="#251725"/>
<path d="M137.662 215.215L135.211 213.854V219.298L137.662 220.796V215.215Z" fill="#251725"/>
<path d="M137.662 226.512L135.211 225.015V230.459L137.662 231.957V226.512Z" fill="#251725"/>
<path d="M137.662 237.673L135.211 236.176V241.62L137.662 243.118V237.673Z" fill="#251725"/>
<path d="M189.523 151.646V277.691L223.008 258.362V132.317L189.523 151.646Z" fill="url(#paint11_linear_3068_10627)" stroke="#251725" stroke-miterlimit="10" stroke-linecap="round" stroke-linejoin="round"/>
<path d="M189.523 151.646L167.608 138.987V265.032L189.523 277.691V151.646Z" fill="white" stroke="#251725" stroke-miterlimit="10" stroke-linecap="round" stroke-linejoin="round"/>
<path d="M89.4763 119.114L92.0625 115.711L145.965 146.882L145.693 151.646L89.4763 119.114Z" fill="white" stroke="#251725" stroke-miterlimit="10" stroke-linecap="round" stroke-linejoin="round"/>
<path d="M145.965 146.883L145.693 151.647L167.608 138.988L166.927 134.769L145.965 146.883Z" fill="#8055BB" stroke="#251725" stroke-miterlimit="10" stroke-linecap="round" stroke-linejoin="round"/>
<path d="M166.927 134.769L187.89 146.883L189.523 151.647L167.608 138.988L166.927 134.769Z" fill="white" stroke="#251725" stroke-miterlimit="10" stroke-linecap="round" stroke-linejoin="round"/>
<path d="M220.422 128.098L223.008 132.317L189.523 151.646L187.889 146.882L220.422 128.098Z" fill="#8055BB" stroke="#251725" stroke-miterlimit="10" stroke-linecap="round" stroke-linejoin="round"/>
<path d="M109.213 116.8L113.841 114.078L118.469 116.8L113.841 119.387L109.213 116.8Z" fill="url(#paint12_linear_3068_10627)" stroke="#251725" stroke-miterlimit="10" stroke-linecap="round" stroke-linejoin="round"/>
<path d="M215.249 159.949L217.699 158.588V164.033L215.249 165.394V159.949Z" fill="#251725"/>
<path d="M215.249 171.11L217.699 169.749V175.194L215.249 176.555V171.11Z" fill="#251725"/>
<path d="M215.249 182.273L217.699 180.912V186.357L215.249 187.718V182.273Z" fill="#251725"/>
<path d="M215.249 193.434L217.699 192.073V197.518L215.249 198.879V193.434Z" fill="#251725"/>
<path d="M215.249 204.597L217.699 203.235V208.68L215.249 210.041V204.597Z" fill="#251725"/>
<path d="M215.249 215.758L217.699 214.396V219.841L215.249 221.338V215.758Z" fill="#251725"/>
<path d="M215.249 226.919L217.699 225.558V231.002L215.249 232.5V226.919Z" fill="#251725"/>
<path d="M209.124 163.489L211.574 162.128V167.573L209.124 168.934V163.489Z" fill="#251725"/>
<path d="M209.124 174.65L211.574 173.289V178.734L209.124 180.095V174.65Z" fill="#251725"/>
<path d="M209.124 185.812L211.574 184.451V189.896L209.124 191.257V185.812Z" fill="#251725"/>
<path d="M209.124 196.973L211.574 195.612V201.057L209.124 202.418V196.973Z" fill="#251725"/>
<path d="M209.124 208.137L211.574 206.775V212.22L209.124 213.717V208.137Z" fill="#251725"/>
<path d="M209.124 219.298L211.574 217.937V223.381L209.124 224.879V219.298Z" fill="#251725"/>
<path d="M209.124 230.459L211.574 229.098V234.542L209.124 236.04V230.459Z" fill="#251725"/>
<path d="M202.863 167.028L205.313 165.667V171.112L202.863 172.473V167.028Z" fill="#251725"/>
<path d="M202.863 178.189L205.313 176.828V182.273L202.863 183.634V178.189Z" fill="#251725"/>
<path d="M202.863 189.351L205.313 187.99V193.435L202.863 194.796V189.351Z" fill="#251725"/>
<path d="M202.863 200.513L205.313 199.151V204.596L202.863 206.093V200.513Z" fill="#251725"/>
<path d="M202.863 211.676L205.313 210.314V215.759L202.863 217.256V211.676Z" fill="#251725"/>
<path d="M202.863 222.837L205.313 221.476V226.92L202.863 228.418V222.837Z" fill="#251725"/>
<path d="M202.863 234.134L205.313 232.637V238.081L202.863 239.579V234.134Z" fill="#251725"/>
<path d="M196.737 170.565L199.187 169.204V174.649L196.737 176.01V170.565Z" fill="#251725"/>
<path d="M196.737 181.726L199.187 180.365V185.81L196.737 187.171V181.726Z" fill="#251725"/>
<path d="M196.737 192.889L199.187 191.527V196.972L196.737 198.469V192.889Z" fill="#251725"/>
<path d="M196.737 204.05L199.187 202.688V208.133L196.737 209.63V204.05Z" fill="#251725"/>
<path d="M196.737 215.213L199.187 213.852V219.296L196.737 220.794V215.213Z" fill="#251725"/>
<path d="M196.737 226.51L199.187 225.013V230.457L196.737 231.955V226.51Z" fill="#251725"/>
<path d="M196.737 237.671L199.187 236.174V241.619L196.737 243.116V237.671Z" fill="#251725"/>
<path d="M194.968 348.881L145.965 344.117L143.924 324.38L213.344 287.628L216.066 288.989V306.684L241.928 321.657L194.968 348.881Z" fill="#8055BB"/>
<path d="M304.542 340.034L271.874 337.992L274.596 319.616L369.878 284.906L410.033 303.963L342.655 342.756H309.987L304.542 340.034Z" fill="#8055BB"/>
<path d="M310.396 343.028L373.418 306.821L373.69 225.423L310.668 261.63L310.396 343.028Z" fill="#251725" stroke="#251725" stroke-miterlimit="10" stroke-linecap="round" stroke-linejoin="round"/>
<path d="M310.668 261.63L310.396 343.028L249.96 308.182V226.647L310.668 261.63Z" fill="white" stroke="#251725" stroke-miterlimit="10" stroke-linecap="round" stroke-linejoin="round"/>
<path d="M201.91 198.88L249.959 226.648V308.182L201.774 280.278L201.91 198.88Z" fill="white" stroke="#251725" stroke-miterlimit="10" stroke-linecap="round" stroke-linejoin="round"/>
<path d="M213.479 218.072L217.971 220.659C217.971 220.659 217.971 220.658 217.971 220.795V232.773L213.479 230.187V218.072Z" fill="#DF87F1"/>
<path d="M208.035 214.941L212.526 217.392V229.37L208.035 226.784V214.941Z" fill="#DF87F1"/>
<path d="M213.48 240.668L217.971 243.254C217.971 243.254 217.971 243.254 217.971 243.39V255.369L213.48 252.782V240.668Z" fill="#DF87F1"/>
<path d="M208.035 237.537L212.527 239.987V251.966L208.035 249.379V237.537Z" fill="#DF87F1"/>
<path d="M213.48 260.949L217.971 263.535C217.971 263.535 217.971 263.535 217.971 263.672V275.65L213.48 273.064V260.949Z" fill="#DF87F1"/>
<path d="M208.035 257.955C208.035 257.819 208.035 257.955 208.035 257.955L212.527 260.405V272.383L208.035 269.797V257.955Z" fill="#DF87F1"/>
<path d="M271.466 338.265L286.575 329.281L286.848 247.883L271.602 256.867L271.466 338.265Z" fill="#251725" stroke="#251725" stroke-miterlimit="10" stroke-linecap="round" stroke-linejoin="round"/>
<path d="M201.91 198.881L265.477 161.721L373.69 225.424L310.668 261.631L286.984 248.019L271.602 256.867L216.475 225.015L231.856 216.168L201.91 198.881Z" fill="white" stroke="#251725" stroke-miterlimit="10" stroke-linecap="round" stroke-linejoin="round"/>
<path d="M216.475 225.015L216.202 306.549L271.466 338.264L271.602 256.866L216.475 225.015Z" fill="white" stroke="#251725" stroke-miterlimit="10" stroke-linecap="round" stroke-linejoin="round"/>
<path d="M233.761 216.166V219.024L220.966 226.375L218.652 225.014L233.761 216.166Z" fill="#AF56FF" stroke="#251725" stroke-miterlimit="10" stroke-linecap="round" stroke-linejoin="round"/>
<path d="M310.667 262.991V267.075L286.847 253.463V249.243L310.667 262.991Z" fill="white" stroke="#251725" stroke-miterlimit="10" stroke-linecap="round" stroke-linejoin="round"/>
<path d="M286.847 249.243V253.463L271.601 262.31V258.091L286.847 249.243Z" fill="#8055BB" stroke="#251725" stroke-miterlimit="10" stroke-linecap="round" stroke-linejoin="round"/>
<path d="M271.602 258.09V262.31L214.296 229.233V225.014L271.602 258.09Z" fill="white" stroke="#251725" stroke-miterlimit="10" stroke-linecap="round" stroke-linejoin="round"/>
<path d="M229.541 216.166L227.091 219.024L199.868 202.962V198.879L229.541 216.166Z" fill="white" stroke="#251725" stroke-miterlimit="10" stroke-linecap="round" stroke-linejoin="round"/>
<path d="M378.318 224.604V228.688L310.667 267.073V262.99L378.318 224.604Z" fill="#8055BB" stroke="#251725" stroke-miterlimit="10" stroke-linecap="round" stroke-linejoin="round"/>
<path d="M310.667 262.99L378.182 224.605L265.885 159.677L199.732 198.879L229.405 216.166L214.16 225.013L271.465 258.09L286.711 249.242L310.667 262.99Z" fill="white"/>
<path d="M310.667 262.99L378.182 224.605L265.885 159.677L199.732 198.879L229.405 216.166L214.16 225.013L271.465 258.09L286.711 249.242L310.667 262.99Z" fill="url(#paint13_linear_3068_10627)"/>
<path d="M310.667 262.99L378.182 224.605L265.885 159.677L199.732 198.879L229.405 216.166L214.16 225.013L271.465 258.09L286.711 249.242L310.667 262.99Z" stroke="#251725" stroke-miterlimit="10" stroke-linecap="round" stroke-linejoin="round"/>
<path d="M311.62 226.104V228.01L320.196 232.91L321.693 231.958L311.62 226.104Z" fill="white" stroke="#251725" stroke-miterlimit="10" stroke-linecap="round" stroke-linejoin="round"/>
<path d="M301.548 231.958L303.181 232.91L311.621 228.01V226.104L301.548 231.958Z" fill="#AF56FF" stroke="#251725" stroke-miterlimit="10" stroke-linecap="round" stroke-linejoin="round"/>
<path d="M303.181 232.911L311.621 237.811L320.196 232.911L311.621 228.011L303.181 232.911Z" fill="url(#paint14_linear_3068_10627)" stroke="#251725" stroke-miterlimit="10" stroke-linecap="round" stroke-linejoin="round"/>
<path d="M292.428 215.079V216.849L300.867 221.749L302.5 220.796L292.428 215.079Z" fill="white" stroke="#251725" stroke-miterlimit="10" stroke-linecap="round" stroke-linejoin="round"/>
<path d="M282.355 220.796L283.852 221.749L292.428 216.849V215.079L282.355 220.796Z" fill="#AF56FF" stroke="#251725" stroke-miterlimit="10" stroke-linecap="round" stroke-linejoin="round"/>
<path d="M283.852 221.748L292.428 226.648L300.867 221.748L292.428 216.848L283.852 221.748Z" fill="url(#paint15_linear_3068_10627)" stroke="#251725" stroke-miterlimit="10" stroke-linecap="round" stroke-linejoin="round"/>
<path d="M273.235 203.917V205.823L281.674 210.723L283.308 209.77L273.235 203.917Z" fill="white" stroke="#251725" stroke-miterlimit="10" stroke-linecap="round" stroke-linejoin="round"/>
<path d="M263.026 209.77L264.66 210.723L273.235 205.823V203.917L263.026 209.77Z" fill="#AF56FF" stroke="#251725" stroke-miterlimit="10" stroke-linecap="round" stroke-linejoin="round"/>
<path d="M264.66 210.723L273.235 215.624L281.675 210.723L273.235 205.823L264.66 210.723Z" fill="url(#paint16_linear_3068_10627)" stroke="#251725" stroke-miterlimit="10" stroke-linecap="round" stroke-linejoin="round"/>
<path d="M253.907 192.756V194.661L262.482 199.562L264.115 198.609L253.907 192.756Z" fill="white" stroke="#251725" stroke-miterlimit="10" stroke-linecap="round" stroke-linejoin="round"/>
<path d="M243.834 198.609L245.467 199.562L253.907 194.661V192.756L243.834 198.609Z" fill="#AF56FF" stroke="#251725" stroke-miterlimit="10" stroke-linecap="round" stroke-linejoin="round"/>
<path d="M245.467 199.562L253.907 204.463L262.482 199.562L253.907 194.662L245.467 199.562Z" fill="url(#paint17_linear_3068_10627)" stroke="#251725" stroke-miterlimit="10" stroke-linecap="round" stroke-linejoin="round"/>
<path d="M341.838 254.96L337.346 257.546C337.346 257.546 337.346 257.546 337.346 257.682V269.661L341.838 267.074V254.96Z" fill="#8055BB"/>
<path d="M347.147 251.965C347.147 251.829 347.147 251.829 347.147 251.965L342.655 254.415V266.394L347.147 263.808V251.965Z" fill="#8055BB"/>
<path d="M359.942 244.615L355.45 247.202C355.45 247.202 355.45 247.201 355.45 247.338V259.316L359.942 256.73V244.615Z" fill="#8055BB"/>
<path d="M365.25 241.62C365.25 241.484 365.25 241.62 365.25 241.62L360.759 244.07V256.049L365.25 253.462V241.62Z" fill="#8055BB"/>
<path d="M323.463 265.442L318.971 268.029C318.971 268.029 318.971 268.029 318.971 268.165V280.143L323.463 277.557V265.442Z" fill="#8055BB"/>
<path d="M328.907 262.447L324.416 264.897V276.876L328.907 274.29V262.447Z" fill="#8055BB"/>
<path d="M341.838 277.557L337.346 280.143C337.346 280.143 337.346 280.143 337.346 280.279V292.257L341.838 289.671V277.557Z" fill="#8055BB"/>
<path d="M347.147 274.562C347.147 274.426 347.147 274.426 347.147 274.562L342.655 277.012V288.991L347.147 286.404V274.562Z" fill="#8055BB"/>
<path d="M359.942 267.212L355.45 269.798C355.45 269.798 355.45 269.798 355.45 269.934V281.913L359.942 279.326V267.212Z" fill="#8055BB"/>
<path d="M365.25 264.081L360.759 266.531V278.51L365.25 275.923V264.081Z" fill="#8055BB"/>
<path d="M323.463 288.038L318.971 290.624C318.971 290.624 318.971 290.624 318.971 290.76V302.739L323.463 300.153V288.038Z" fill="#8055BB"/>
<path d="M328.907 285.043L324.416 287.493V299.471L328.907 296.885V285.043Z" fill="#8055BB"/>
<path d="M341.838 297.839L337.346 300.425C337.346 300.425 337.346 300.425 337.346 300.561V312.54L341.838 309.953V297.839Z" fill="#8055BB"/>
<path d="M347.147 294.844L342.655 297.294V309.272L347.147 306.686V294.844Z" fill="#8055BB"/>
<path d="M359.942 287.493L355.45 290.079C355.45 290.079 355.45 290.079 355.45 290.216V302.194L359.942 299.608V287.493Z" fill="#8055BB"/>
<path d="M365.251 284.498L360.759 286.948V298.927L365.251 296.34V284.498Z" fill="#8055BB"/>
<path d="M323.463 308.455L318.971 311.041C318.971 311.041 318.971 311.041 318.971 311.177V323.156L323.463 320.57V308.455Z" fill="#8055BB"/>
<path d="M328.907 305.46C328.907 305.324 328.907 305.324 328.907 305.46L324.416 307.911V319.889L328.907 317.303V305.46Z" fill="#8055BB"/>
<path d="M299.369 265.442L303.861 268.029C303.861 268.029 303.861 268.029 303.861 268.165V280.143L299.369 277.557V265.442Z" fill="#DF87F1"/>
<path d="M293.925 262.447L298.417 264.897V276.876L293.925 274.29V262.447Z" fill="#DF87F1"/>
<path d="M299.37 288.038L303.862 290.624C303.862 290.624 303.862 290.624 303.862 290.76V302.739L299.37 300.153V288.038Z" fill="#DF87F1"/>
<path d="M293.925 285.043L298.417 287.493V299.471L293.925 296.885V285.043Z" fill="#DF87F1"/>
<path d="M299.37 308.455L303.862 311.041C303.862 311.041 303.862 311.041 303.862 311.177V323.156L299.37 320.57V308.455Z" fill="#DF87F1"/>
<path d="M293.925 305.46C293.925 305.324 293.925 305.324 293.925 305.46L298.417 307.911V319.889L293.925 317.303V305.46Z" fill="#DF87F1"/>
<path d="M256.493 276.468C256.493 276.468 256.493 276.468 256.493 276.059C256.221 272.384 255.132 268.573 253.362 265.034C253.226 264.898 253.226 264.761 253.09 264.489L243.834 269.117L244.378 269.389L256.493 276.468Z" fill="#DF87F1"/>
<path d="M252.681 263.536C252.681 263.4 252.545 263.4 252.545 263.264C252.545 263.264 252.545 263.264 252.409 262.992C252.409 262.992 252.409 262.992 252.409 262.856C251.865 261.903 251.184 260.95 250.64 259.997C250.231 259.589 249.959 259.044 249.551 258.636C249.959 259.044 250.231 259.453 250.64 259.997C248.598 257.275 246.42 255.097 243.97 253.6L243.834 268.845L244.106 268.709L252.681 263.536Z" fill="#8055BB"/>
<path d="M242.745 252.647V252.919L242.609 267.892L239.614 262.856L242.609 267.892V268.028L233.353 252.511C233.353 252.511 233.353 252.511 233.489 252.511C233.489 252.511 233.625 252.511 233.625 252.374C233.761 252.238 233.761 252.238 233.897 252.238C236.62 250.741 239.614 250.877 242.745 252.647Z" fill="#DF87F1"/>
<path d="M233.081 254.144L232.808 253.6C231.447 254.825 230.358 256.594 229.814 258.908C229.814 258.908 229.814 258.908 229.814 259.044V259.18C229.814 259.589 229.678 259.861 229.678 260.269C229.678 260.406 229.678 260.405 229.678 260.542L230.086 260.814L242.2 267.756L233.081 254.144Z" fill="#8055BB"/>
<path d="M231.311 282.864L231.175 315.124L254.042 328.191V295.932L231.311 282.864Z" stroke="#251725" stroke-miterlimit="10" stroke-linecap="round" stroke-linejoin="round"/>
<path d="M244.378 294.435L251.32 298.518V322.475L244.378 318.527V294.435Z" fill="url(#paint18_linear_3068_10627)"/>
<path d="M234.034 288.581L240.976 292.665V316.757L234.034 312.674V288.581Z" fill="url(#paint19_linear_3068_10627)"/>
<path d="M84.548 295.192C95.5951 301.556 95.6682 311.945 84.6943 318.31C73.7204 324.675 55.8695 324.675 44.8224 318.31C33.7754 311.945 33.7022 301.556 44.6761 295.192C55.65 288.827 73.5009 288.827 84.548 295.192Z" fill="#8055BB" stroke="#8055BB" stroke-miterlimit="10" stroke-linecap="round" stroke-linejoin="round"/>
<path d="M77.8174 306.24V299.436H74.6715C73.3546 297.973 71.672 296.583 69.5503 295.339C58.5033 288.974 40.6524 288.974 29.6785 295.339C27.5569 296.583 25.8742 297.973 24.5573 299.436H21.4846V306.24C21.4846 306.679 21.4846 307.045 21.4846 307.484V307.557C21.7773 311.507 24.4842 315.458 29.7516 318.531C40.7987 324.895 58.6496 324.895 69.6235 318.531C75.4763 315.165 78.1832 310.629 77.8174 306.24Z" fill="#EBEDFD"/>
<path d="M77.8174 306.24V299.436H74.6715C73.3546 297.973 71.672 296.583 69.5503 295.339C58.5033 288.974 40.6524 288.974 29.6785 295.339C27.5569 296.583 25.8742 297.973 24.5573 299.436H21.4846V306.24C21.4846 306.679 21.4846 307.045 21.4846 307.484V307.557C21.7773 311.507 24.4842 315.458 29.7516 318.531C40.7987 324.895 58.6496 324.895 69.6235 318.531C75.4763 315.165 78.1832 310.629 77.8174 306.24Z" fill="url(#paint20_linear_3068_10627)"/>
<path d="M77.8174 306.24V299.436H74.6715C73.3546 297.973 71.672 296.583 69.5503 295.339C58.5033 288.974 40.6524 288.974 29.6785 295.339C27.5569 296.583 25.8742 297.973 24.5573 299.436H21.4846V306.24C21.4846 306.679 21.4846 307.045 21.4846 307.484V307.557C21.7773 311.507 24.4842 315.458 29.7516 318.531C40.7987 324.895 58.6496 324.895 69.6235 318.531C75.4763 315.165 78.1832 310.629 77.8174 306.24Z" stroke="#251725" stroke-miterlimit="10" stroke-linecap="round" stroke-linejoin="round"/>
<path d="M69.5504 288.681C80.5975 295.046 80.6707 305.435 69.6968 311.799C58.7228 318.164 40.872 318.164 29.8249 311.799C18.7778 305.435 18.7047 295.046 29.6786 288.681C40.6525 282.243 58.5034 282.243 69.5504 288.681Z" fill="#EBEDFD" stroke="#251725" stroke-miterlimit="10" stroke-linecap="round" stroke-linejoin="round"/>
<path d="M66.0388 289.852C75.1105 294.973 75.1837 303.24 66.112 308.288C57.0402 313.409 42.3351 313.409 33.2634 308.288C24.1916 303.167 24.1184 294.9 33.1902 289.852C42.262 284.73 56.967 284.73 66.0388 289.852Z" fill="#A499CE" stroke="#251725" stroke-miterlimit="10" stroke-linecap="round" stroke-linejoin="round"/>
<path d="M25.4351 308.507V314.799" stroke="#251725" stroke-miterlimit="10" stroke-linecap="round" stroke-linejoin="round"/>
<path d="M32.0195 312.896V319.627" stroke="#251725" stroke-miterlimit="10" stroke-linecap="round" stroke-linejoin="round"/>
<path d="M40.8718 315.677V322.334" stroke="#251725" stroke-miterlimit="10" stroke-linecap="round" stroke-linejoin="round"/>
<path d="M51.2607 316.481V323.285" stroke="#251725" stroke-miterlimit="10" stroke-linecap="round" stroke-linejoin="round"/>
<path d="M61.3564 315.091V321.821" stroke="#251725" stroke-miterlimit="10" stroke-linecap="round" stroke-linejoin="round"/>
<path d="M69.6965 311.726V318.529" stroke="#251725" stroke-miterlimit="10" stroke-linecap="round" stroke-linejoin="round"/>
<path d="M76.0615 306.094V312.824" stroke="#251725" stroke-miterlimit="10" stroke-linecap="round" stroke-linejoin="round"/>
<path d="M60.9175 292.923L58.6496 294.24C59.6006 294.899 60.2591 295.63 60.698 296.362L60.9907 296.874L56.2353 298.41L55.7963 297.679C55.4305 297.094 54.9184 296.362 53.6015 295.557C53.1626 295.338 52.0652 294.752 51.2604 295.191C50.8946 295.411 50.8947 295.85 52.0652 297.459C53.9674 299.874 53.7479 301.556 51.3336 302.946C48.9925 304.336 45.554 304.483 42.4813 303.458L39.9208 304.995L36.3359 302.946L38.677 301.556C37.5065 300.678 36.5554 299.727 36.2628 298.923L36.1165 298.484L40.945 296.947L41.3108 297.752C41.7497 298.703 42.5545 299.581 43.6519 300.166C44.4566 300.605 45.7003 300.971 46.4319 300.532C46.8709 300.239 47.1635 299.8 45.993 298.41C44.603 296.728 43.3592 294.533 46.2856 292.85C48.4804 291.533 51.7726 291.387 54.7721 292.338L57.2595 290.875L60.9175 292.923Z" fill="#251725"/>
<path d="M77.8174 300.385V293.582H74.6715C73.3546 292.118 71.672 290.728 69.5503 289.485C58.5033 283.12 40.6524 283.12 29.6785 289.485C27.5569 290.728 25.8742 292.118 24.5573 293.582H21.4846V300.385C21.4846 300.824 21.4846 301.19 21.4846 301.629V301.702C21.7773 305.653 24.4842 309.603 29.7516 312.676C40.7987 319.041 58.6496 319.041 69.6235 312.676C75.4763 309.238 78.1832 304.775 77.8174 300.385Z" fill="#EBEDFD"/>
<path d="M77.8174 300.385V293.582H74.6715C73.3546 292.118 71.672 290.728 69.5503 289.485C58.5033 283.12 40.6524 283.12 29.6785 289.485C27.5569 290.728 25.8742 292.118 24.5573 293.582H21.4846V300.385C21.4846 300.824 21.4846 301.19 21.4846 301.629V301.702C21.7773 305.653 24.4842 309.603 29.7516 312.676C40.7987 319.041 58.6496 319.041 69.6235 312.676C75.4763 309.238 78.1832 304.775 77.8174 300.385Z" fill="url(#paint21_linear_3068_10627)"/>
<path d="M77.8174 300.385V293.582H74.6715C73.3546 292.118 71.672 290.728 69.5503 289.485C58.5033 283.12 40.6524 283.12 29.6785 289.485C27.5569 290.728 25.8742 292.118 24.5573 293.582H21.4846V300.385C21.4846 300.824 21.4846 301.19 21.4846 301.629V301.702C21.7773 305.653 24.4842 309.603 29.7516 312.676C40.7987 319.041 58.6496 319.041 69.6235 312.676C75.4763 309.238 78.1832 304.775 77.8174 300.385Z" stroke="#251725" stroke-miterlimit="10" stroke-linecap="round" stroke-linejoin="round"/>
<path d="M69.5504 282.754C80.5975 289.119 80.6707 299.508 69.6968 305.872C58.7228 312.237 40.872 312.237 29.8249 305.872C18.7778 299.508 18.7047 289.119 29.6786 282.754C40.6525 276.389 58.5034 276.389 69.5504 282.754Z" fill="#EBEDFD"/>
<path d="M69.5504 282.754C80.5975 289.119 80.6707 299.508 69.6968 305.872C58.7228 312.237 40.872 312.237 29.8249 305.872C18.7778 299.508 18.7047 289.119 29.6786 282.754C40.6525 276.389 58.5034 276.389 69.5504 282.754Z" fill="url(#paint22_linear_3068_10627)"/>
<path d="M69.5504 282.754C80.5975 289.119 80.6707 299.508 69.6968 305.872C58.7228 312.237 40.872 312.237 29.8249 305.872C18.7778 299.508 18.7047 289.119 29.6786 282.754C40.6525 276.389 58.5034 276.389 69.5504 282.754Z" stroke="#251725" stroke-miterlimit="10" stroke-linecap="round" stroke-linejoin="round"/>
<path d="M66.0388 283.997C75.1105 289.118 75.1837 297.385 66.112 302.433C57.0402 307.554 42.3351 307.554 33.2634 302.433C24.1916 297.312 24.1184 289.045 33.1902 283.997C42.262 278.876 56.967 278.876 66.0388 283.997Z" fill="#A499CE"/>
<path d="M66.0388 283.997C75.1105 289.118 75.1837 297.385 66.112 302.433C57.0402 307.554 42.3351 307.554 33.2634 302.433C24.1916 297.312 24.1184 289.045 33.1902 283.997C42.262 278.876 56.967 278.876 66.0388 283.997Z" fill="url(#paint23_linear_3068_10627)"/>
<path d="M66.0388 283.997C75.1105 289.118 75.1837 297.385 66.112 302.433C57.0402 307.554 42.3351 307.554 33.2634 302.433C24.1916 297.312 24.1184 289.045 33.1902 283.997C42.262 278.876 56.967 278.876 66.0388 283.997Z" stroke="#251725" stroke-miterlimit="10" stroke-linecap="round" stroke-linejoin="round"/>
<path d="M25.4351 302.653V308.945" stroke="#251725" stroke-miterlimit="10" stroke-linecap="round" stroke-linejoin="round"/>
<path d="M32.0195 307.043V313.774" stroke="#251725" stroke-miterlimit="10" stroke-linecap="round" stroke-linejoin="round"/>
<path d="M40.8718 309.823V316.481" stroke="#251725" stroke-miterlimit="10" stroke-linecap="round" stroke-linejoin="round"/>
<path d="M51.2607 310.628V317.359" stroke="#251725" stroke-miterlimit="10" stroke-linecap="round" stroke-linejoin="round"/>
<path d="M61.3564 309.237V315.968" stroke="#251725" stroke-miterlimit="10" stroke-linecap="round" stroke-linejoin="round"/>
<path d="M69.6965 305.872V312.603" stroke="#251725" stroke-miterlimit="10" stroke-linecap="round" stroke-linejoin="round"/>
<path d="M76.0615 300.165V306.969" stroke="#251725" stroke-miterlimit="10" stroke-linecap="round" stroke-linejoin="round"/>
<path d="M60.9175 287.071L58.6496 288.388C59.6006 289.046 60.2591 289.778 60.698 290.509L60.9907 291.022L56.2353 292.558L55.7963 291.826C55.4305 291.241 54.9184 290.509 53.6015 289.705C53.1626 289.485 52.0652 288.9 51.2604 289.339C50.8946 289.558 50.8947 289.997 52.0652 291.607C53.9674 294.021 53.7479 295.704 51.3336 297.094C48.9925 298.484 45.554 298.63 42.4813 297.606L39.9208 299.142L36.3359 297.094L38.677 295.704C37.5065 294.826 36.5554 293.875 36.2628 293.07L36.1165 292.631L40.945 291.095L41.3108 291.899C41.7497 292.851 42.5545 293.728 43.6519 294.314C44.4566 294.753 45.7003 295.118 46.4319 294.68C46.8709 294.387 47.1635 293.948 45.993 292.558C44.603 290.875 43.3592 288.68 46.2856 286.998C48.4804 285.681 51.7726 285.535 54.7721 286.486L57.2595 285.022L60.9175 287.071Z" fill="#251725"/>
<path d="M91.2056 291.168V284.364H88.0597C86.7428 282.901 85.0602 281.511 82.9385 280.267C71.8915 273.902 54.0406 273.902 43.0666 280.267C40.945 281.511 39.2624 282.901 37.9455 284.364H34.8728V291.168C34.8728 291.607 34.8728 291.972 34.8728 292.411V292.484C35.1654 296.435 37.8723 300.386 43.1398 303.458C54.1869 309.823 72.0378 309.823 83.0117 303.458C88.8644 300.02 91.5714 295.557 91.2056 291.168Z" fill="url(#paint24_linear_3068_10627)" stroke="#251725" stroke-miterlimit="10" stroke-linecap="round" stroke-linejoin="round"/>
<path d="M82.9386 273.536C93.9857 279.901 94.0588 290.29 83.0849 296.655C72.111 303.02 54.2601 303.02 43.2131 296.655C32.166 290.29 32.0928 279.901 43.0667 273.536C54.0407 267.171 71.8916 267.171 82.9386 273.536Z" fill="url(#paint25_linear_3068_10627)" stroke="#251725" stroke-miterlimit="10" stroke-linecap="round" stroke-linejoin="round"/>
<path d="M79.4269 274.779C88.4987 279.901 88.5719 288.168 79.5001 293.216C70.4284 298.337 55.7233 298.337 46.6515 293.216C37.5798 288.094 37.5066 279.827 46.5784 274.779C55.577 269.658 70.282 269.658 79.4269 274.779Z" fill="url(#paint26_linear_3068_10627)" stroke="#251725" stroke-miterlimit="10" stroke-linecap="round" stroke-linejoin="round"/>
<path d="M38.8232 293.436V299.727" stroke="#251725" stroke-miterlimit="10" stroke-linecap="round" stroke-linejoin="round"/>
<path d="M45.4077 297.825V304.556" stroke="#251725" stroke-miterlimit="10" stroke-linecap="round" stroke-linejoin="round"/>
<path d="M54.26 300.605V307.263" stroke="#251725" stroke-miterlimit="10" stroke-linecap="round" stroke-linejoin="round"/>
<path d="M64.6489 301.41V308.141" stroke="#251725" stroke-miterlimit="10" stroke-linecap="round" stroke-linejoin="round"/>
<path d="M74.7446 300.02V306.75" stroke="#251725" stroke-miterlimit="10" stroke-linecap="round" stroke-linejoin="round"/>
<path d="M83.0847 296.654V303.385" stroke="#251725" stroke-miterlimit="10" stroke-linecap="round" stroke-linejoin="round"/>
<path d="M89.4497 290.947V297.751" stroke="#251725" stroke-miterlimit="10" stroke-linecap="round" stroke-linejoin="round"/>
<path d="M74.3057 277.853L72.0377 279.17C72.9888 279.828 73.6472 280.56 74.0862 281.292L74.3788 281.804L69.6235 283.34L69.1845 282.609C68.8187 282.023 68.3066 281.292 66.9897 280.487C66.5508 280.267 65.4534 279.682 64.6486 280.121C64.2828 280.341 64.2828 280.78 65.4534 282.389C67.3555 284.803 67.136 286.486 64.7218 287.876C62.3807 289.266 58.9422 289.412 55.8695 288.388L53.3089 289.924L49.7241 287.876L52.0652 286.486C50.8947 285.608 49.9436 284.657 49.651 283.852L49.5046 283.413L54.3331 281.877L54.6989 282.682C55.1379 283.633 55.9427 284.511 57.04 285.096C57.8448 285.535 59.0885 285.901 59.8201 285.462C60.2591 285.169 60.5517 284.73 59.3812 283.34C57.9911 281.657 56.7474 279.463 59.6738 277.78C61.8686 276.463 65.1608 276.317 68.1603 277.268L70.6477 275.805L74.3057 277.853Z" fill="#251725"/>
<path d="M176.657 343.809L161.572 335.124V285.847L176.839 294.989L176.657 343.809Z" fill="url(#paint27_linear_3068_10627)" stroke="#251725" stroke-miterlimit="10" stroke-linecap="round" stroke-linejoin="round"/>
<path d="M115.128 262.076V285.389V308.336L161.572 335.123V279.904L115.128 262.076Z" fill="url(#paint28_linear_3068_10627)" stroke="#251725" stroke-miterlimit="10" stroke-linecap="round" stroke-linejoin="round"/>
<path d="M173.548 306.325V323.787L165.411 319.215V301.662L173.548 306.325Z" fill="url(#paint29_linear_3068_10627)" stroke="#251725" stroke-miterlimit="10" stroke-linecap="round" stroke-linejoin="round"/>
<path d="M168.246 303.399V320.678" stroke="#251725" stroke-miterlimit="10" stroke-linecap="round" stroke-linejoin="round"/>
<path d="M197.135 260.248L213.409 273.596V322.873L190.644 336.038L176.931 343.992V321.045V294.715L197.135 260.248Z" fill="#251725" stroke="#251725" stroke-miterlimit="10" stroke-linecap="round" stroke-linejoin="round"/>
<path d="M174.462 296.36L113.666 261.254L135.699 223.404L196.404 258.419L174.462 296.36Z" fill="url(#paint30_linear_3068_10627)" stroke="#251725" stroke-miterlimit="10" stroke-linecap="round" stroke-linejoin="round"/>
<path d="M145.481 344.449L138.533 340.426L117.505 328.358V279.081L133.596 269.756L145.481 295.263V344.449Z" fill="url(#paint31_linear_3068_10627)" stroke="#251725" stroke-miterlimit="10" stroke-linecap="round" stroke-linejoin="round"/>
<path d="M174.462 296.36L176.839 294.988L184.702 281.366L196.404 261.162L213.317 273.869L215.328 272.681L196.404 258.419L184.702 278.624L174.462 296.36Z" fill="#DF87F1" stroke="#251725" stroke-miterlimit="10" stroke-linecap="round" stroke-linejoin="round"/>
<path d="M207.832 312.085L185.067 325.159V298.92L207.832 285.847V312.085Z" fill="url(#paint32_linear_3068_10627)" stroke="#EBEDFD" stroke-miterlimit="10" stroke-linecap="round" stroke-linejoin="round"/>
<path d="M199.238 290.782V316.929" stroke="#EBEDFD" stroke-miterlimit="10" stroke-linecap="round" stroke-linejoin="round"/>
<path d="M138.533 314.188V340.427L123.357 331.741V305.503L126.922 307.514L138.533 314.188Z" fill="#DF87F1" stroke="#251725" stroke-miterlimit="10" stroke-linecap="round" stroke-linejoin="round"/>
<path d="M161.572 335.124L145.481 344.449V295.264L161.572 285.938V335.124Z" fill="#251725" stroke="#251725" stroke-miterlimit="10" stroke-linecap="round" stroke-linejoin="round"/>
<path d="M115.494 280.361L117.505 281.458L130.945 271.036L146.578 298.189L148.864 299.469L130.945 268.385L115.494 280.361Z" fill="#DF87F1" stroke="#251725" stroke-miterlimit="10" stroke-linecap="round" stroke-linejoin="round"/>
<path d="M130.945 268.385L148.864 299.469L160.657 292.612L164.406 290.51L146.578 259.426L130.945 268.385Z" fill="#EBEDFD" stroke="#251725" stroke-miterlimit="10" stroke-linecap="round" stroke-linejoin="round"/>
<path d="M130.945 296.908C128.75 295.628 126.922 296.634 126.922 299.194C126.922 301.754 128.75 304.862 130.945 306.142C133.139 307.422 134.967 306.416 134.967 303.857C135.059 301.297 133.23 298.188 130.945 296.908V306.142V296.908Z" fill="url(#paint33_linear_3068_10627)"/>
<path d="M130.945 296.908C128.75 295.628 126.922 296.634 126.922 299.194C126.922 301.754 128.75 304.862 130.945 306.142C133.139 307.422 134.967 306.416 134.967 303.857C135.059 301.297 133.23 298.188 130.945 296.908ZM130.945 296.908V306.142" stroke="#251725" stroke-miterlimit="10" stroke-linecap="round" stroke-linejoin="round"/>
<path d="M134.967 303.857L126.922 299.194" stroke="#251725" stroke-miterlimit="10" stroke-linecap="round" stroke-linejoin="round"/>
<path d="M126.922 307.514V333.752" stroke="#251725" stroke-miterlimit="10" stroke-linecap="round" stroke-linejoin="round"/>
<path d="M129.025 320.588V322.051" stroke="#251725" stroke-miterlimit="10" stroke-linecap="round" stroke-linejoin="round"/>
<path d="M170.074 272.773L177.753 268.385L170.074 263.905L162.394 268.385L170.074 272.773Z" stroke="#251725" stroke-miterlimit="10" stroke-linecap="round" stroke-linejoin="round"/>
<path d="M170.074 261.985L177.753 257.597L170.074 253.117L162.394 257.597L170.074 261.985Z" stroke="#251725" stroke-miterlimit="10" stroke-linecap="round" stroke-linejoin="round"/>
<path d="M174.096 257.596L170.074 255.219L166.051 257.596L170.074 259.881L174.096 257.596Z" fill="url(#paint34_linear_3068_10627)" stroke="#251725" stroke-miterlimit="10" stroke-linecap="round" stroke-linejoin="round"/>
<path d="M170.074 261.985V281.641L177.753 268.385V257.597L170.074 261.985Z" fill="url(#paint35_linear_3068_10627)" stroke="#251725" stroke-miterlimit="10" stroke-linecap="round" stroke-linejoin="round"/>
<path d="M162.394 257.597L170.074 261.985V281.641L162.394 277.253V257.597Z" fill="#EBEDFD" stroke="#251725" stroke-miterlimit="10" stroke-linecap="round" stroke-linejoin="round"/>
<path d="M139.813 243.152L147.584 238.673L139.813 234.284L132.133 238.673L139.813 243.152Z" stroke="#251725" stroke-miterlimit="10" stroke-linecap="round" stroke-linejoin="round"/>
<path d="M143.927 238.673L139.812 236.388L135.79 238.673L139.812 241.05L143.927 238.673Z" fill="url(#paint36_linear_3068_10627)" stroke="#251725" stroke-miterlimit="10" stroke-linecap="round" stroke-linejoin="round"/>
<path d="M139.813 243.152V262.808L147.584 249.46V238.672L139.813 243.152Z" fill="url(#paint37_linear_3068_10627)" stroke="#251725" stroke-miterlimit="10" stroke-linecap="round" stroke-linejoin="round"/>
<path d="M132.133 238.672L139.813 243.152V262.808L132.133 258.328V238.672Z" fill="#EBEDFD" stroke="#251725" stroke-miterlimit="10" stroke-linecap="round" stroke-linejoin="round"/>
<path d="M145.481 339.238L161.572 329.913" stroke="#251725" stroke-miterlimit="10" stroke-linecap="round" stroke-linejoin="round"/>
<path d="M176.93 338.781L161.571 329.913" stroke="#251725" stroke-miterlimit="10" stroke-linecap="round" stroke-linejoin="round"/>
<path d="M197.044 330.553L197.684 330.188L197.044 330.553Z" fill="#A499CE"/>
<path d="M193.102 212.697L192.998 236.641C192.998 237.682 192.686 238.515 192.061 238.931L191.645 239.139L188.313 241.117C188.938 240.701 189.25 239.868 189.25 238.827L189.355 214.883C189.355 212.488 187.689 209.573 185.607 208.324L145.422 185.109H145.318C144.381 184.588 143.444 184.484 142.82 184.796L146.359 182.714L146.567 182.61C147.192 182.298 148.129 182.402 149.066 182.923L189.25 206.138C191.437 207.283 193.102 210.198 193.102 212.697Z" fill="url(#paint38_linear_3068_10627)" stroke="#251725" stroke-miterlimit="10" stroke-linecap="round" stroke-linejoin="round"/>
<path d="M185.607 208.22L145.422 185.005C143.34 183.755 141.57 184.796 141.57 187.191L141.466 211.135C141.466 213.529 143.132 216.444 145.214 217.694L158.331 225.293L161.038 231.123C161.246 231.644 161.662 231.956 161.975 232.164C162.287 232.372 162.703 232.372 162.912 232.164L165.618 229.457L185.398 240.909C187.48 242.158 189.25 241.117 189.25 238.723L189.354 214.779C189.354 212.384 187.689 209.469 185.607 208.22Z" fill="white" stroke="#251725" stroke-miterlimit="10" stroke-linecap="round" stroke-linejoin="round"/>
<path d="M151.565 197.913C150.003 196.976 148.754 197.705 148.754 199.475C148.754 200.828 149.482 202.39 150.523 203.431C148.441 202.806 146.984 204.056 146.984 206.554V209.781L156.145 215.091V211.863C156.145 210.406 155.625 208.844 154.792 207.387C154.167 206.346 153.438 205.409 152.606 204.68C153.647 204.784 154.375 204.056 154.375 202.702C154.375 200.932 153.126 198.746 151.565 197.913Z" fill="#219F70"/>
<path d="M167.603 212.472C167.603 214.022 166.616 214.312 165.252 213.525C164.096 212.857 163.001 211.57 162.741 209.725L163.97 210.225C164.087 211.072 164.46 211.797 165.278 212.27C165.932 212.647 166.365 212.392 166.365 211.812C166.365 211.122 165.936 210.51 165.252 210.115L164.486 209.672L164.486 208.592L165.902 207.82L163.087 206.195L163.087 204.925L167.343 207.382L167.343 208.652L165.889 209.447C167.006 210.257 167.603 211.277 167.603 212.472ZM170.268 216.271L168.964 215.518L171.363 210.973L168.466 209.3L168.466 208.03L172.658 210.451L172.658 211.721L170.268 216.271Z" fill="#251725"/>
<path d="M346.011 176.294L345.84 215.427C345.84 217.129 345.33 218.49 344.309 219.171L343.629 219.511L338.184 222.744C339.205 222.063 339.715 220.702 339.715 219L339.885 179.867C339.885 175.953 337.163 171.189 333.76 169.147L268.083 131.205H267.913C266.382 130.354 264.85 130.184 263.83 130.694L269.615 127.291L269.955 127.121C270.976 126.611 272.507 126.781 274.038 127.632L339.715 165.574C343.288 167.616 346.011 172.38 346.011 176.294Z" fill="url(#paint39_linear_3068_10627)" stroke="#251725" stroke-miterlimit="10" stroke-linecap="round" stroke-linejoin="round"/>
<path d="M333.59 169.147L267.913 131.204C264.51 129.162 261.618 130.864 261.618 134.777L261.448 173.911C261.448 177.824 264.17 182.589 267.573 184.63L289.011 197.051L293.435 206.579C293.775 207.43 294.456 207.941 294.966 208.281C295.477 208.621 296.157 208.621 296.498 208.281L300.922 203.857L333.25 222.573C336.652 224.615 339.545 222.913 339.545 219L339.715 179.866C339.885 175.953 337.163 171.189 333.59 169.147Z" fill="white" stroke="#251725" stroke-miterlimit="10" stroke-linecap="round" stroke-linejoin="round"/>
<path d="M278.122 152.133C275.57 150.601 273.528 151.792 273.528 154.685C273.528 156.897 274.719 159.449 276.42 161.15C273.017 160.13 270.635 162.171 270.635 166.255V171.529L285.608 180.207V174.932C285.608 172.55 284.757 169.998 283.396 167.616C282.375 165.915 281.184 164.383 279.823 163.192C281.525 163.362 282.716 162.171 282.716 159.959C282.716 157.237 280.674 153.664 278.122 152.133Z" fill="#8055BB"/>
<path d="M300.354 175.048C300.354 177.373 298.873 177.808 296.828 176.627C295.093 175.626 293.45 173.694 293.06 170.927L294.905 171.677C295.08 172.948 295.639 174.036 296.866 174.744C297.847 175.311 298.497 174.928 298.497 174.058C298.497 173.023 297.854 172.104 296.827 171.512L295.678 170.848L295.678 169.228L297.802 168.069L293.58 165.632L293.58 163.727L299.964 167.413L299.964 169.318L297.782 170.511C299.458 171.726 300.354 173.256 300.354 175.048ZM306.306 181.874L304.526 180.847L304.526 172.417L302.785 172.619L301.908 170.351L304.526 170.047L306.305 171.074L306.306 181.874ZM308.645 183.225L308.644 181.305L312.587 179.659C313.275 179.374 313.542 179.093 313.542 178.388C313.542 177.323 312.886 176.569 312.093 176.111C311.184 175.586 310.619 175.845 310.424 176.782L308.514 175.305C308.949 173.531 310.235 173.134 312.074 174.195C313.899 175.249 315.432 177.109 315.393 179.486C315.367 180.926 314.581 181.553 314.035 181.778L311.385 182.888L315.399 185.205L315.399 187.125L308.645 183.225Z" fill="#251725"/>
<path d="M382.238 56.6016H369.069L362.407 68.3071L369.069 80.0126H382.238L388.745 68.3071L382.238 56.6016Z" stroke="#A499CE" stroke-miterlimit="10" stroke-linecap="round" stroke-linejoin="round"/>
<path d="M449.545 182.436H436.376L429.714 194.141L436.376 205.847H449.545L456.052 194.141L449.545 182.436Z" stroke="#A499CE" stroke-miterlimit="10" stroke-linecap="round" stroke-linejoin="round"/>
<path d="M65.6728 188.288H78.1099L84.4016 199.262L78.1099 210.236H65.6728L59.5274 199.262L65.6728 188.288Z" stroke="#A499CE" stroke-miterlimit="10" stroke-linecap="round" stroke-linejoin="round"/>
<path d="M408.059 265.837H420.496L426.788 276.811L420.496 287.785H408.059L401.914 276.811L408.059 265.837Z" stroke="#A499CE" stroke-miterlimit="10" stroke-linecap="round" stroke-linejoin="round"/>
<path d="M219.686 33.1904H229.929L235.11 41.9695L229.929 50.7487H219.686L214.625 41.9695L219.686 33.1904Z" stroke="#A499CE" stroke-miterlimit="10" stroke-linecap="round" stroke-linejoin="round"/>
<path d="M404.874 82.9385H399.022L396.061 88.0596L399.022 93.1808H404.874L407.766 88.0596L404.874 82.9385Z" stroke="#A499CE" stroke-miterlimit="10" stroke-linecap="round" stroke-linejoin="round"/>
<path d="M418.043 199.993H412.19L409.229 205.114L412.19 210.235H418.043L420.935 205.114L418.043 199.993Z" stroke="#A499CE" stroke-miterlimit="10" stroke-linecap="round" stroke-linejoin="round"/>
<path d="M435.601 251.205H429.749L426.788 256.326L429.749 261.447H435.601L438.493 256.326L435.601 251.205Z" stroke="#A499CE" stroke-miterlimit="10" stroke-linecap="round" stroke-linejoin="round"/>
<path d="M246.85 334.606H240.997L238.037 339.728L240.997 344.849H246.85L249.742 339.728L246.85 334.606Z" stroke="#A499CE" stroke-miterlimit="10" stroke-linecap="round" stroke-linejoin="round"/>
<path d="M47.7875 210.236H53.6403L56.6011 215.357L53.6403 220.479H47.7875L44.8956 215.357L47.7875 210.236Z" stroke="#A499CE" stroke-miterlimit="10" stroke-linecap="round" stroke-linejoin="round"/>
<path d="M208.738 15.6318H214.591L217.552 20.753L214.591 25.8742H208.738L205.846 20.753L208.738 15.6318Z" stroke="#A499CE" stroke-miterlimit="10" stroke-linecap="round" stroke-linejoin="round"/>
<path d="M182.401 65.3799H188.254L191.214 70.501L188.254 75.6222H182.401L179.509 70.501L182.401 65.3799Z" stroke="#A499CE" stroke-miterlimit="10" stroke-linecap="round" stroke-linejoin="round"/>
<path d="M22.9135 186.825H28.7662L31.7271 191.946L28.7662 197.068H22.9135L20.0215 191.946L22.9135 186.825Z" stroke="#A499CE" stroke-miterlimit="10" stroke-linecap="round" stroke-linejoin="round"/>
<path d="M91.6833 325.828H97.536L100.497 330.949L97.536 336.07H91.6833L88.7913 330.949L91.6833 325.828Z" stroke="#A499CE" stroke-miterlimit="10" stroke-linecap="round" stroke-linejoin="round"/>
<path d="M371.696 37.3144L371.571 66.0474C371.571 67.2967 371.196 68.2961 370.447 68.7958L369.947 69.0456L365.95 71.4192C366.699 70.9195 367.074 69.9201 367.074 68.6709L367.199 39.9379C367.199 37.0646 365.2 33.5667 362.702 32.0675L314.48 4.20903H314.355C313.231 3.5844 312.106 3.45947 311.357 3.83425L315.604 1.33573L315.854 1.21082C316.604 0.836039 317.728 0.96095 318.852 1.58558L367.074 29.4441C369.697 30.8183 371.696 34.3162 371.696 37.3144Z" fill="url(#paint40_linear_3068_10627)" stroke="#251725" stroke-miterlimit="10" stroke-linecap="round" stroke-linejoin="round"/>
<path d="M362.702 31.943L314.48 4.08452C311.982 2.58541 309.858 3.83468 309.858 6.70798L309.733 35.441C309.733 38.3143 311.732 41.8122 314.23 43.3113L329.971 52.4309L333.219 59.4268C333.469 60.0514 333.969 60.4262 334.343 60.676C334.718 60.9259 335.218 60.9259 335.468 60.676L338.716 57.4279L362.452 71.1698C364.95 72.6689 367.074 71.4197 367.074 68.5464L367.199 39.8134C367.199 36.9401 365.2 33.4421 362.702 31.943Z" fill="#FBFBFF" stroke="#251725" stroke-miterlimit="10" stroke-linecap="round" stroke-linejoin="round"/>
<path d="M321.851 19.5745C319.977 18.4502 318.478 19.3247 318.478 21.4484C318.478 23.0724 319.352 24.9463 320.601 26.1956C318.103 25.446 316.354 26.9452 316.354 29.9434V33.8161L327.347 40.1873V36.3146C327.347 34.5656 326.723 32.6917 325.723 30.9428C324.974 29.6935 324.099 28.5692 323.1 27.6947C324.349 27.8196 325.224 26.9451 325.224 25.3211C325.224 23.1974 323.724 20.5739 321.851 19.5745Z" fill="#8055BB"/>
<path d="M338.866 38.5694C336.964 37.4713 336.018 35.5873 335.956 32.8573C335.878 29.5183 336.85 28.4053 338.928 29.6054C340.44 30.4784 341.407 31.8524 341.765 33.6315L340.326 33.0764C340.102 32.1434 339.697 31.5734 338.964 31.1504C337.925 30.5503 337.38 31.0093 337.354 32.5183L337.349 32.8333C337.754 32.4373 338.455 32.6323 339.178 33.0494C340.57 33.8534 341.739 35.3565 341.739 37.3485C341.739 39.3285 340.368 39.4364 338.866 38.5694ZM338.866 37.0454C339.749 37.5554 340.243 37.3244 340.243 36.5444C340.243 35.7644 339.749 34.9634 338.866 34.4534C337.982 33.9433 337.489 34.1743 337.489 34.9543C337.489 35.7343 337.983 36.5353 338.866 37.0454ZM348.018 43.6738L346.594 42.8517L346.594 41.3877L343.014 39.3206L343.014 37.7966L345.399 33.5217L346.958 34.4217L344.573 38.6967L346.594 39.8637L346.594 37.2717L348.018 38.0938L348.018 40.6858L348.745 41.1058L348.746 42.6298L348.018 42.2098L348.018 43.6738Z" fill="#251725"/>
<path d="M200.51 76.4472L200.305 123.408C200.305 125.45 199.693 127.083 198.468 127.9L197.651 128.308L191.117 132.187C192.342 131.371 192.955 129.737 192.955 127.695L193.159 80.7349C193.159 76.0388 189.892 70.3219 185.809 67.8718L106.997 22.3405H106.793C104.955 21.3196 103.117 21.1154 101.892 21.728L108.834 17.6444L109.243 17.4402C110.468 16.8277 112.305 17.0319 114.143 18.0528L192.955 63.5841C197.243 66.0342 200.51 71.7512 200.51 76.4472Z" fill="url(#paint41_linear_3068_10627)" stroke="#251725" stroke-miterlimit="10" stroke-linecap="round" stroke-linejoin="round"/>
<path d="M185.604 67.8713L106.792 22.34C102.709 19.8899 99.2376 21.9316 99.2376 26.6277L99.0334 73.5882C99.0334 78.2843 102.3 84.0012 106.384 86.4514L132.11 101.356L137.419 112.79C137.827 113.811 138.644 114.424 139.256 114.832C139.869 115.24 140.685 115.24 141.094 114.832L146.402 109.523L185.196 131.983C189.279 134.433 192.75 132.391 192.75 127.695L192.955 80.7344C193.159 76.0384 189.892 70.3214 185.604 67.8713Z" fill="white" stroke="#251725" stroke-miterlimit="10" stroke-linecap="round" stroke-linejoin="round"/>
<path d="M119.043 47.4553C115.98 45.6177 113.53 47.0469 113.53 50.5179C113.53 53.1722 114.959 56.2348 117.001 58.2766C112.918 57.0516 110.059 59.5017 110.059 64.4019V70.7314L128.027 81.1444V74.8149C128.027 71.9564 127.006 68.8938 125.372 66.0353C124.147 63.9936 122.718 62.156 121.085 60.7268C123.126 60.9309 124.556 59.5017 124.556 56.8474C124.556 53.5806 122.106 49.2929 119.043 47.4553Z" fill="#219F70"/>
<path d="M137.731 73.4355L137.731 71.1315L142.462 69.1562C143.288 68.8142 143.607 68.4767 143.607 67.6307C143.607 66.3527 142.82 65.4482 141.869 64.8992C140.778 64.2691 140.1 64.5796 139.866 65.7046L137.575 63.9315C138.097 61.803 139.64 61.3261 141.846 62.5997C144.036 63.8642 145.875 66.0963 145.829 68.9493C145.797 70.6773 144.854 71.4288 144.2 71.6987L141.02 73.0306L145.837 75.8118L145.837 78.1158L137.731 73.4355ZM151.766 81.8094C148.914 80.1623 147.495 77.3363 147.401 73.2413C147.284 68.2328 148.742 66.5633 151.859 68.3634C154.127 69.673 155.577 71.7341 156.115 74.4026L153.956 73.57C153.621 72.1705 153.013 71.3155 151.914 70.6809C150.355 69.7809 149.537 70.4694 149.498 72.7329L149.49 73.2054C150.098 72.6114 151.15 72.9039 152.234 73.5294C154.322 74.7355 156.076 76.9901 156.076 79.9781C156.076 82.9481 154.019 83.11 151.766 81.8094ZM151.766 79.5234C153.091 80.2885 153.831 79.942 153.831 78.772C153.831 77.602 153.091 76.4005 151.766 75.6354C150.441 74.8704 149.701 75.2169 149.701 76.3869C149.701 77.5569 150.441 78.7584 151.766 79.5234ZM163.193 88.1371L161.057 86.9041L161.057 76.7881L158.968 77.031L157.916 74.3085L161.057 73.9441L163.192 75.1771L163.193 88.1371Z" fill="#251725"/>
<defs>
<linearGradient id="paint0_linear_3068_10627" x1="434.696" y1="226.688" x2="421.882" y2="210.495" gradientUnits="userSpaceOnUse">
<stop stop-color="#DF87F1"/>
<stop offset="0.75" stop-color="#FBFBFF"/>
</linearGradient>
<linearGradient id="paint1_linear_3068_10627" x1="24.1836" y1="161.424" x2="11.6659" y2="143.355" gradientUnits="userSpaceOnUse">
<stop stop-color="#DF87F1"/>
<stop offset="0.75" stop-color="#FBFBFF"/>
</linearGradient>
<linearGradient id="paint2_linear_3068_10627" x1="470.825" y1="145.783" x2="442.425" y2="111.807" gradientUnits="userSpaceOnUse">
<stop offset="0.55" stop-color="#FBFBFF"/>
<stop offset="0.9" stop-color="#DF87F1"/>
</linearGradient>
<linearGradient id="paint3_linear_3068_10627" x1="405.601" y1="121.018" x2="475.83" y2="182.11" gradientUnits="userSpaceOnUse">
<stop offset="0.293434" stop-color="#10AD74"/>
<stop offset="0.495204" stop-color="#1288AA"/>
</linearGradient>
<linearGradient id="paint4_linear_3068_10627" x1="486.355" y1="165.754" x2="421.706" y2="110.78" gradientUnits="userSpaceOnUse">
<stop offset="0.4" stop-color="#DF87F1"/>
<stop offset="0.75" stop-color="#FBFBFF"/>
</linearGradient>
<linearGradient id="paint5_linear_3068_10627" x1="114.91" y1="166.248" x2="33.9559" y2="130.898" gradientUnits="userSpaceOnUse">
<stop offset="0.75" stop-color="#DF87F1"/>
<stop offset="0.9" stop-color="#FBFBFF"/>
</linearGradient>
<linearGradient id="paint6_linear_3068_10627" x1="119.149" y1="161.047" x2="36.2066" y2="124.803" gradientUnits="userSpaceOnUse">
<stop stop-color="#DF87F1"/>
<stop offset="0.75" stop-color="#FBFBFF"/>
</linearGradient>
<linearGradient id="paint7_linear_3068_10627" x1="43.0268" y1="112.824" x2="137.579" y2="154.098" gradientUnits="userSpaceOnUse">
<stop offset="0.15" stop-color="#10AD74"/>
<stop offset="0.5" stop-color="#1288AA"/>
</linearGradient>
<linearGradient id="paint8_linear_3068_10627" x1="227.063" y1="36.0248" x2="266.408" y2="180.724" gradientUnits="userSpaceOnUse">
<stop stop-color="#DF87F1"/>
<stop offset="0.45" stop-color="#FBFBFF"/>
</linearGradient>
<linearGradient id="paint9_linear_3068_10627" x1="139.981" y1="63.1853" x2="150.68" y2="163.291" gradientUnits="userSpaceOnUse">
<stop stop-color="#DF87F1"/>
<stop offset="0.75" stop-color="#FBFBFF"/>
</linearGradient>
<linearGradient id="paint10_linear_3068_10627" x1="150.677" y1="101.184" x2="209.253" y2="110.439" gradientUnits="userSpaceOnUse">
<stop offset="0.1" stop-color="#F76DFC"/>
<stop offset="0.75" stop-color="#1288AA"/>
</linearGradient>
<linearGradient id="paint11_linear_3068_10627" x1="197.139" y1="92.6961" x2="284.252" y2="112.761" gradientUnits="userSpaceOnUse">
<stop offset="0.1" stop-color="#F76DFC"/>
<stop offset="0.75" stop-color="#1288AA"/>
</linearGradient>
<linearGradient id="paint12_linear_3068_10627" x1="111.319" y1="112.631" x2="117.595" y2="123.575" gradientUnits="userSpaceOnUse">
<stop offset="0.1" stop-color="#F76DFC"/>
<stop offset="0.75" stop-color="#1288AA"/>
</linearGradient>
<linearGradient id="paint13_linear_3068_10627" x1="315.44" y1="102.129" x2="288.689" y2="303.503" gradientUnits="userSpaceOnUse">
<stop stop-color="#DF87F1"/>
<stop offset="0.75" stop-color="#FBFBFF"/>
</linearGradient>
<linearGradient id="paint14_linear_3068_10627" x1="316.326" y1="225.34" x2="304.714" y2="245.5" gradientUnits="userSpaceOnUse">
<stop offset="0.1" stop-color="#F76DFC"/>
<stop offset="0.75" stop-color="#1288AA"/>
</linearGradient>
<linearGradient id="paint15_linear_3068_10627" x1="296.997" y1="214.177" x2="285.385" y2="234.337" gradientUnits="userSpaceOnUse">
<stop offset="0.1" stop-color="#F76DFC"/>
<stop offset="0.75" stop-color="#1288AA"/>
</linearGradient>
<linearGradient id="paint16_linear_3068_10627" x1="277.805" y1="203.152" x2="266.192" y2="223.312" gradientUnits="userSpaceOnUse">
<stop offset="0.1" stop-color="#F76DFC"/>
<stop offset="0.75" stop-color="#1288AA"/>
</linearGradient>
<linearGradient id="paint17_linear_3068_10627" x1="258.612" y1="191.991" x2="247" y2="212.151" gradientUnits="userSpaceOnUse">
<stop offset="0.1" stop-color="#F76DFC"/>
<stop offset="0.75" stop-color="#1288AA"/>
</linearGradient>
<linearGradient id="paint18_linear_3068_10627" x1="249.741" y1="286.792" x2="231.822" y2="291.229" gradientUnits="userSpaceOnUse">
<stop offset="0.15" stop-color="#10AD74"/>
<stop offset="0.5" stop-color="#1288AA"/>
</linearGradient>
<linearGradient id="paint19_linear_3068_10627" x1="239.397" y1="280.902" x2="221.467" y2="285.319" gradientUnits="userSpaceOnUse">
<stop offset="0.15" stop-color="#10AD74"/>
<stop offset="0.5" stop-color="#1288AA"/>
</linearGradient>
<linearGradient id="paint20_linear_3068_10627" x1="93.2362" y1="300.019" x2="47.9583" y2="264.6" gradientUnits="userSpaceOnUse">
<stop offset="0.540232" stop-color="#DF87F1"/>
<stop offset="0.784112" stop-color="#FBFBFF"/>
</linearGradient>
<linearGradient id="paint21_linear_3068_10627" x1="93.2362" y1="294.165" x2="47.9583" y2="258.745" gradientUnits="userSpaceOnUse">
<stop offset="0.540232" stop-color="#DF87F1"/>
<stop offset="0.784112" stop-color="#FBFBFF"/>
</linearGradient>
<linearGradient id="paint22_linear_3068_10627" x1="84.392" y1="310.646" x2="55.9354" y2="261.524" gradientUnits="userSpaceOnUse">
<stop offset="0.112285" stop-color="#DF87F1"/>
<stop offset="0.583747" stop-color="#FBFBFF"/>
<stop offset="1" stop-color="#DF87F1"/>
</linearGradient>
<linearGradient id="paint23_linear_3068_10627" x1="78.243" y1="306.274" x2="55.8345" y2="266.416" gradientUnits="userSpaceOnUse">
<stop offset="0.35" stop-color="#DF87F1"/>
<stop offset="0.85" stop-color="#FBFBFF"/>
</linearGradient>
<linearGradient id="paint24_linear_3068_10627" x1="106.624" y1="284.947" x2="61.3464" y2="249.528" gradientUnits="userSpaceOnUse">
<stop offset="0.540232" stop-color="#DF87F1"/>
<stop offset="0.784112" stop-color="#FBFBFF"/>
</linearGradient>
<linearGradient id="paint25_linear_3068_10627" x1="97.7802" y1="301.428" x2="69.3236" y2="252.306" gradientUnits="userSpaceOnUse">
<stop offset="0.112285" stop-color="#DF87F1"/>
<stop offset="0.583747" stop-color="#FBFBFF"/>
<stop offset="1" stop-color="#DF87F1"/>
</linearGradient>
<linearGradient id="paint26_linear_3068_10627" x1="91.6312" y1="297.056" x2="69.2227" y2="257.198" gradientUnits="userSpaceOnUse">
<stop stop-color="#DF87F1"/>
<stop offset="0.75" stop-color="#FBFBFF"/>
</linearGradient>
<linearGradient id="paint27_linear_3068_10627" x1="159.809" y1="343.809" x2="188.484" y2="336.256" gradientUnits="userSpaceOnUse">
<stop stop-color="#DF87F1"/>
<stop offset="0.669" stop-color="#FBFBFF"/>
</linearGradient>
<linearGradient id="paint28_linear_3068_10627" x1="109.766" y1="335.123" x2="176.193" y2="292.89" gradientUnits="userSpaceOnUse">
<stop stop-color="#DF87F1"/>
<stop offset="0.669" stop-color="#FBFBFF"/>
</linearGradient>
<linearGradient id="paint29_linear_3068_10627" x1="171.697" y1="295.632" x2="152.062" y2="302.853" gradientUnits="userSpaceOnUse">
<stop offset="0.1" stop-color="#F76DFC"/>
<stop offset="0.75" stop-color="#1288AA"/>
</linearGradient>
<linearGradient id="paint30_linear_3068_10627" x1="96.6711" y1="278.861" x2="178.857" y2="212.728" gradientUnits="userSpaceOnUse">
<stop stop-color="#DF87F1"/>
<stop offset="0.59775" stop-color="#FBFBFF"/>
</linearGradient>
<linearGradient id="paint31_linear_3068_10627" x1="114.275" y1="344.449" x2="163.55" y2="325.993" gradientUnits="userSpaceOnUse">
<stop stop-color="#DF87F1"/>
<stop offset="0.669" stop-color="#FBFBFF"/>
</linearGradient>
<linearGradient id="paint32_linear_3068_10627" x1="202.654" y1="275.132" x2="155.95" y2="302.177" gradientUnits="userSpaceOnUse">
<stop offset="0.1" stop-color="#F76DFC"/>
<stop offset="0.75" stop-color="#1288AA"/>
</linearGradient>
<linearGradient id="paint33_linear_3068_10627" x1="133.14" y1="293.534" x2="119.406" y2="304.221" gradientUnits="userSpaceOnUse">
<stop offset="0.1" stop-color="#F76DFC"/>
<stop offset="0.75" stop-color="#1288AA"/>
</linearGradient>
<linearGradient id="paint34_linear_3068_10627" x1="172.267" y1="253.948" x2="166.725" y2="263.51" gradientUnits="userSpaceOnUse">
<stop offset="0.1" stop-color="#F76DFC"/>
<stop offset="0.75" stop-color="#1288AA"/>
</linearGradient>
<linearGradient id="paint35_linear_3068_10627" x1="176.007" y1="251.043" x2="156.915" y2="257.141" gradientUnits="userSpaceOnUse">
<stop offset="0.1" stop-color="#F76DFC"/>
<stop offset="0.75" stop-color="#1288AA"/>
</linearGradient>
<linearGradient id="paint36_linear_3068_10627" x1="142.076" y1="235.117" x2="136.566" y2="244.733" gradientUnits="userSpaceOnUse">
<stop offset="0.1" stop-color="#F76DFC"/>
<stop offset="0.75" stop-color="#1288AA"/>
</linearGradient>
<linearGradient id="paint37_linear_3068_10627" x1="145.816" y1="232.094" x2="126.527" y2="238.304" gradientUnits="userSpaceOnUse">
<stop offset="0.1" stop-color="#F76DFC"/>
<stop offset="0.75" stop-color="#1288AA"/>
</linearGradient>
<linearGradient id="paint38_linear_3068_10627" x1="198.908" y1="241.117" x2="140.673" y2="191.219" gradientUnits="userSpaceOnUse">
<stop stop-color="#DF87F1"/>
<stop offset="0.75" stop-color="#FBFBFF"/>
</linearGradient>
<linearGradient id="paint39_linear_3068_10627" x1="355.499" y1="222.744" x2="260.322" y2="141.191" gradientUnits="userSpaceOnUse">
<stop stop-color="#DF87F1"/>
<stop offset="0.75" stop-color="#FBFBFF"/>
</linearGradient>
<linearGradient id="paint40_linear_3068_10627" x1="378.663" y1="71.4192" x2="308.782" y2="11.541" gradientUnits="userSpaceOnUse">
<stop stop-color="#DF87F1"/>
<stop offset="0.75" stop-color="#FBFBFF"/>
</linearGradient>
<linearGradient id="paint41_linear_3068_10627" x1="211.896" y1="132.187" x2="97.6833" y2="34.3237" gradientUnits="userSpaceOnUse">
<stop stop-color="#DF87F1"/>
<stop offset="0.75" stop-color="#FBFBFF"/>
</linearGradient>
</defs>
</svg>
