<svg width="36" height="36" viewBox="0 0 36 36" fill="none" xmlns="http://www.w3.org/2000/svg">
<path d="M21.36 15.8403C20.895 17.7003 18 16.7553 17.1 16.5003L17.925 13.2303C18.855 13.5003 21.84 13.8903 21.36 15.8403ZM16.695 18.1803L15.795 21.7953C16.905 22.0803 20.34 23.1753 20.85 21.1353C21.39 19.0053 17.805 18.4503 16.695 18.1803ZM32.55 21.6303C30.54 29.6703 22.41 34.5603 14.37 32.5503C6.33 30.5403 1.4445 22.4103 3.45 14.3703C3.92647 12.4594 4.7747 10.6612 5.94626 9.07815C7.11781 7.49515 8.58974 6.15846 10.278 5.1444C11.9662 4.13035 13.8377 3.45881 15.7855 3.16813C17.7333 2.87745 19.7193 2.97334 21.63 3.45031C29.655 5.46031 34.545 13.5903 32.55 21.6303ZM21.315 12.0753L21.99 9.37531L20.34 9.00031L19.68 11.5953C19.245 11.4903 18.81 11.3853 18.36 11.2953L19.02 8.64031L17.385 8.25031L16.71 10.9353C16.35 10.8453 15.99 10.7703 15.66 10.6803L13.395 10.1103L12.945 11.8653C12.945 11.8653 14.175 12.1503 14.145 12.1653C14.82 12.3303 14.94 12.7503 14.91 13.1253L13.065 20.5203C12.99 20.7303 12.75 21.0003 12.315 20.9253C12.33 20.9403 11.115 20.6253 11.115 20.6253L10.305 22.5003L12.435 23.0403C12.84 23.1453 13.23 23.2503 13.62 23.3403L12.93 26.0703L14.58 26.4903L15.255 23.7753C15.705 23.8953 16.14 24.0003 16.56 24.1203L15.885 26.8053L17.535 27.2253L18.225 24.4953C21 25.0203 23.13 24.8103 24 22.2753C24.75 20.2503 24 19.0503 22.5 18.2853C23.58 18.0003 24.39 17.3253 24.615 15.8553C24.915 13.8603 23.385 12.7953 21.315 12.0753Z" fill="#718096"/>
</svg>
